G04 #@! TF.GenerationSoftware,KiCad,Pcbnew,7.0.2*
G04 #@! TF.CreationDate,2023-08-29T10:55:17-05:00*
G04 #@! TF.ProjectId,Power-Secondary,506f7765-722d-4536-9563-6f6e64617279,rev?*
G04 #@! TF.SameCoordinates,Original*
G04 #@! TF.FileFunction,Copper,L2,Bot*
G04 #@! TF.FilePolarity,Positive*
%FSLAX46Y46*%
G04 Gerber Fmt 4.6, Leading zero omitted, Abs format (unit mm)*
G04 Created by KiCad (PCBNEW 7.0.2) date 2023-08-29 10:55:17*
%MOMM*%
%LPD*%
G01*
G04 APERTURE LIST*
G04 Aperture macros list*
%AMRoundRect*
0 Rectangle with rounded corners*
0 $1 Rounding radius*
0 $2 $3 $4 $5 $6 $7 $8 $9 X,Y pos of 4 corners*
0 Add a 4 corners polygon primitive as box body*
4,1,4,$2,$3,$4,$5,$6,$7,$8,$9,$2,$3,0*
0 Add four circle primitives for the rounded corners*
1,1,$1+$1,$2,$3*
1,1,$1+$1,$4,$5*
1,1,$1+$1,$6,$7*
1,1,$1+$1,$8,$9*
0 Add four rect primitives between the rounded corners*
20,1,$1+$1,$2,$3,$4,$5,0*
20,1,$1+$1,$4,$5,$6,$7,0*
20,1,$1+$1,$6,$7,$8,$9,0*
20,1,$1+$1,$8,$9,$2,$3,0*%
G04 Aperture macros list end*
G04 #@! TA.AperFunction,ComponentPad*
%ADD10R,2.085000X2.085000*%
G04 #@! TD*
G04 #@! TA.AperFunction,ComponentPad*
%ADD11C,2.085000*%
G04 #@! TD*
G04 #@! TA.AperFunction,ComponentPad*
%ADD12R,3.430000X3.780000*%
G04 #@! TD*
G04 #@! TA.AperFunction,ComponentPad*
%ADD13RoundRect,0.250001X0.499999X0.759999X-0.499999X0.759999X-0.499999X-0.759999X0.499999X-0.759999X0*%
G04 #@! TD*
G04 #@! TA.AperFunction,ComponentPad*
%ADD14O,1.500000X2.020000*%
G04 #@! TD*
G04 #@! TA.AperFunction,ComponentPad*
%ADD15C,2.780000*%
G04 #@! TD*
G04 #@! TA.AperFunction,ComponentPad*
%ADD16RoundRect,0.250001X-0.499999X-0.759999X0.499999X-0.759999X0.499999X0.759999X-0.499999X0.759999X0*%
G04 #@! TD*
G04 #@! TA.AperFunction,SMDPad,CuDef*
%ADD17RoundRect,0.250000X1.100000X-0.325000X1.100000X0.325000X-1.100000X0.325000X-1.100000X-0.325000X0*%
G04 #@! TD*
G04 #@! TA.AperFunction,ViaPad*
%ADD18C,0.800000*%
G04 #@! TD*
G04 #@! TA.AperFunction,Conductor*
%ADD19C,0.250000*%
G04 #@! TD*
G04 #@! TA.AperFunction,Conductor*
%ADD20C,4.000000*%
G04 #@! TD*
G04 APERTURE END LIST*
D10*
X137685000Y-73200000D03*
D11*
X135145000Y-73200000D03*
X132605000Y-73200000D03*
D10*
X125620000Y-67485000D03*
D11*
X123080000Y-67485000D03*
X120540000Y-67485000D03*
D12*
X158645000Y-84060000D03*
X155465000Y-84060000D03*
X158645000Y-91550000D03*
X155465000Y-91550000D03*
D13*
X120000000Y-101165000D03*
D14*
X117000000Y-101165000D03*
D15*
X124590000Y-81230000D03*
X124590000Y-84630000D03*
X134510000Y-81230000D03*
X134510000Y-84630000D03*
D12*
X99580000Y-91550000D03*
X102760000Y-91550000D03*
X99580000Y-84060000D03*
X102760000Y-84060000D03*
X99580000Y-67485000D03*
X102760000Y-67485000D03*
X99580000Y-59995000D03*
X102760000Y-59995000D03*
D10*
X137685000Y-67525000D03*
D11*
X135145000Y-67525000D03*
X132605000Y-67525000D03*
D13*
X142000000Y-101165000D03*
D14*
X139000000Y-101165000D03*
D16*
X127549000Y-52973000D03*
D14*
X130549000Y-52973000D03*
D10*
X125620000Y-73200000D03*
D11*
X123080000Y-73200000D03*
X120540000Y-73200000D03*
D12*
X158645000Y-59995000D03*
X155465000Y-59995000D03*
X158645000Y-67485000D03*
X155465000Y-67485000D03*
D17*
X140420000Y-80390000D03*
X140420000Y-77440000D03*
X144670000Y-80390000D03*
X144670000Y-77440000D03*
X148920000Y-80390000D03*
X148920000Y-77440000D03*
D18*
X130500000Y-45750000D03*
X100500000Y-106250000D03*
X143000000Y-45750000D03*
X115500000Y-79000000D03*
X115500000Y-45750000D03*
X130500000Y-106000000D03*
X100500000Y-46000000D03*
X158000000Y-106000000D03*
X115500000Y-64000000D03*
X158000000Y-64000000D03*
X143000000Y-64000000D03*
X158000000Y-45750000D03*
X143000000Y-106000000D03*
X115500000Y-106000000D03*
X120250000Y-58250000D03*
X132250000Y-62000000D03*
X130250000Y-63750000D03*
X122750000Y-63750000D03*
D19*
X127522000Y-53000000D02*
X127549000Y-52973000D01*
D20*
X120000000Y-99836308D02*
X111713692Y-91550000D01*
X111713692Y-91550000D02*
X99580000Y-91550000D01*
D19*
X125500000Y-53000000D02*
X127522000Y-53000000D01*
X120250000Y-58250000D02*
X125500000Y-53000000D01*
D20*
X120000000Y-101165000D02*
X120000000Y-99836308D01*
D19*
X122750000Y-63750000D02*
X130250000Y-63750000D01*
G04 #@! TA.AperFunction,Conductor*
G36*
X103703039Y-83079685D02*
G01*
X103748794Y-83132489D01*
X103760000Y-83184000D01*
X103760000Y-84936000D01*
X103740315Y-85003039D01*
X103687511Y-85048794D01*
X103636000Y-85060000D01*
X98704000Y-85060000D01*
X98636961Y-85040315D01*
X98591206Y-84987511D01*
X98580000Y-84936000D01*
X98580000Y-84153543D01*
X98690000Y-84153543D01*
X98728898Y-84336540D01*
X98804992Y-84507451D01*
X98914958Y-84658806D01*
X99053990Y-84783991D01*
X99216011Y-84877534D01*
X99393939Y-84935346D01*
X99533361Y-84950000D01*
X99626639Y-84950000D01*
X99766061Y-84935346D01*
X99943989Y-84877534D01*
X100106010Y-84783991D01*
X100245042Y-84658806D01*
X100355008Y-84507451D01*
X100431102Y-84336540D01*
X100470000Y-84153543D01*
X101870000Y-84153543D01*
X101908898Y-84336540D01*
X101984992Y-84507451D01*
X102094958Y-84658806D01*
X102233990Y-84783991D01*
X102396011Y-84877534D01*
X102573939Y-84935346D01*
X102713361Y-84950000D01*
X102806639Y-84950000D01*
X102946061Y-84935346D01*
X103123989Y-84877534D01*
X103286010Y-84783991D01*
X103425042Y-84658806D01*
X103535008Y-84507451D01*
X103611102Y-84336540D01*
X103650000Y-84153543D01*
X103650000Y-83966457D01*
X103611102Y-83783460D01*
X103535008Y-83612549D01*
X103425042Y-83461194D01*
X103286010Y-83336009D01*
X103123989Y-83242466D01*
X102946061Y-83184654D01*
X102806639Y-83170000D01*
X102713361Y-83170000D01*
X102573939Y-83184654D01*
X102396011Y-83242466D01*
X102233990Y-83336009D01*
X102094958Y-83461194D01*
X101984992Y-83612549D01*
X101908898Y-83783460D01*
X101870000Y-83966457D01*
X101870000Y-84153543D01*
X100470000Y-84153543D01*
X100470000Y-83966457D01*
X100431102Y-83783460D01*
X100355008Y-83612549D01*
X100245042Y-83461194D01*
X100106010Y-83336009D01*
X99943989Y-83242466D01*
X99766061Y-83184654D01*
X99626639Y-83170000D01*
X99533361Y-83170000D01*
X99393939Y-83184654D01*
X99216011Y-83242466D01*
X99053990Y-83336009D01*
X98914958Y-83461194D01*
X98804992Y-83612549D01*
X98728898Y-83783460D01*
X98690000Y-83966457D01*
X98690000Y-84153543D01*
X98580000Y-84153543D01*
X98580000Y-83184000D01*
X98599685Y-83116961D01*
X98652489Y-83071206D01*
X98704000Y-83060000D01*
X103636000Y-83060000D01*
X103703039Y-83079685D01*
G37*
G04 #@! TD.AperFunction*
G04 #@! TA.AperFunction,Conductor*
G36*
X103703039Y-59014685D02*
G01*
X103748794Y-59067489D01*
X103760000Y-59119000D01*
X103760000Y-60871000D01*
X103740315Y-60938039D01*
X103687511Y-60983794D01*
X103636000Y-60995000D01*
X98704000Y-60995000D01*
X98636961Y-60975315D01*
X98591206Y-60922511D01*
X98580000Y-60871000D01*
X98580000Y-60088543D01*
X98690000Y-60088543D01*
X98728898Y-60271540D01*
X98804992Y-60442451D01*
X98914958Y-60593806D01*
X99053990Y-60718991D01*
X99216011Y-60812534D01*
X99393939Y-60870346D01*
X99533361Y-60885000D01*
X99626639Y-60885000D01*
X99766061Y-60870346D01*
X99943989Y-60812534D01*
X100106010Y-60718991D01*
X100245042Y-60593806D01*
X100355008Y-60442451D01*
X100431102Y-60271540D01*
X100470000Y-60088543D01*
X101870000Y-60088543D01*
X101908898Y-60271540D01*
X101984992Y-60442451D01*
X102094958Y-60593806D01*
X102233990Y-60718991D01*
X102396011Y-60812534D01*
X102573939Y-60870346D01*
X102713361Y-60885000D01*
X102806639Y-60885000D01*
X102946061Y-60870346D01*
X103123989Y-60812534D01*
X103286010Y-60718991D01*
X103425042Y-60593806D01*
X103535008Y-60442451D01*
X103611102Y-60271540D01*
X103650000Y-60088543D01*
X103650000Y-59901457D01*
X103611102Y-59718460D01*
X103535008Y-59547549D01*
X103425042Y-59396194D01*
X103286010Y-59271009D01*
X103123989Y-59177466D01*
X102946061Y-59119654D01*
X102806639Y-59105000D01*
X102713361Y-59105000D01*
X102573939Y-59119654D01*
X102396011Y-59177466D01*
X102233990Y-59271009D01*
X102094958Y-59396194D01*
X101984992Y-59547549D01*
X101908898Y-59718460D01*
X101870000Y-59901457D01*
X101870000Y-60088543D01*
X100470000Y-60088543D01*
X100470000Y-59901457D01*
X100431102Y-59718460D01*
X100355008Y-59547549D01*
X100245042Y-59396194D01*
X100106010Y-59271009D01*
X99943989Y-59177466D01*
X99766061Y-59119654D01*
X99626639Y-59105000D01*
X99533361Y-59105000D01*
X99393939Y-59119654D01*
X99216011Y-59177466D01*
X99053990Y-59271009D01*
X98914958Y-59396194D01*
X98804992Y-59547549D01*
X98728898Y-59718460D01*
X98690000Y-59901457D01*
X98690000Y-60088543D01*
X98580000Y-60088543D01*
X98580000Y-59119000D01*
X98599685Y-59051961D01*
X98652489Y-59006206D01*
X98704000Y-58995000D01*
X103636000Y-58995000D01*
X103703039Y-59014685D01*
G37*
G04 #@! TD.AperFunction*
G04 #@! TA.AperFunction,Conductor*
G36*
X165002702Y-43100617D02*
G01*
X165421634Y-43118908D01*
X165432369Y-43119848D01*
X165845430Y-43174228D01*
X165856056Y-43176101D01*
X166262816Y-43266278D01*
X166273228Y-43269067D01*
X166670582Y-43394353D01*
X166680717Y-43398042D01*
X167065625Y-43557477D01*
X167075416Y-43562043D01*
X167176472Y-43614649D01*
X167444942Y-43754406D01*
X167454310Y-43759814D01*
X167805675Y-43983658D01*
X167814536Y-43989863D01*
X168145045Y-44243471D01*
X168153332Y-44250425D01*
X168460478Y-44531872D01*
X168468127Y-44539521D01*
X168749574Y-44846667D01*
X168756528Y-44854954D01*
X169010136Y-45185463D01*
X169016341Y-45194324D01*
X169240185Y-45545689D01*
X169245593Y-45555057D01*
X169437953Y-45924576D01*
X169442525Y-45934380D01*
X169601951Y-46319267D01*
X169605650Y-46329430D01*
X169632572Y-46414816D01*
X169730926Y-46726752D01*
X169733726Y-46737202D01*
X169823895Y-47143930D01*
X169825773Y-47154583D01*
X169880149Y-47567610D01*
X169881092Y-47578386D01*
X169899382Y-47997296D01*
X169899500Y-48002705D01*
X169899500Y-103997293D01*
X169899382Y-104002702D01*
X169881092Y-104421613D01*
X169880149Y-104432389D01*
X169825773Y-104845416D01*
X169823895Y-104856069D01*
X169733726Y-105262797D01*
X169730926Y-105273247D01*
X169605651Y-105670567D01*
X169601951Y-105680732D01*
X169442525Y-106065619D01*
X169437953Y-106075423D01*
X169245593Y-106444942D01*
X169240185Y-106454310D01*
X169016341Y-106805675D01*
X169010136Y-106814536D01*
X168756528Y-107145045D01*
X168749574Y-107153332D01*
X168468127Y-107460478D01*
X168460478Y-107468127D01*
X168153332Y-107749574D01*
X168145045Y-107756528D01*
X167814536Y-108010136D01*
X167805675Y-108016341D01*
X167454310Y-108240185D01*
X167444942Y-108245593D01*
X167075423Y-108437953D01*
X167065619Y-108442525D01*
X166680732Y-108601951D01*
X166670567Y-108605651D01*
X166273247Y-108730926D01*
X166262797Y-108733726D01*
X165856069Y-108823895D01*
X165845416Y-108825773D01*
X165432389Y-108880149D01*
X165421613Y-108881092D01*
X165002703Y-108899382D01*
X164997294Y-108899500D01*
X93002706Y-108899500D01*
X92997297Y-108899382D01*
X92578386Y-108881092D01*
X92567610Y-108880149D01*
X92154583Y-108825773D01*
X92143930Y-108823895D01*
X91836064Y-108755643D01*
X91737199Y-108733725D01*
X91726756Y-108730927D01*
X91329430Y-108605650D01*
X91319267Y-108601951D01*
X90934380Y-108442525D01*
X90924576Y-108437953D01*
X90555057Y-108245593D01*
X90545689Y-108240185D01*
X90194324Y-108016341D01*
X90185463Y-108010136D01*
X89854954Y-107756528D01*
X89846667Y-107749574D01*
X89539521Y-107468127D01*
X89531872Y-107460478D01*
X89250425Y-107153332D01*
X89243471Y-107145045D01*
X88989863Y-106814536D01*
X88983658Y-106805675D01*
X88759814Y-106454310D01*
X88754406Y-106444942D01*
X88562046Y-106075423D01*
X88557474Y-106065619D01*
X88398042Y-105680717D01*
X88394353Y-105670582D01*
X88269067Y-105273228D01*
X88266278Y-105262816D01*
X88176101Y-104856056D01*
X88174228Y-104845430D01*
X88119848Y-104432369D01*
X88118908Y-104421632D01*
X88106240Y-104131482D01*
X91245500Y-104131482D01*
X91284691Y-104391507D01*
X91362202Y-104642787D01*
X91476296Y-104879707D01*
X91476297Y-104879709D01*
X91476298Y-104879710D01*
X91624430Y-105096980D01*
X91803290Y-105289746D01*
X92008883Y-105453701D01*
X92236616Y-105585183D01*
X92481402Y-105681254D01*
X92737772Y-105739769D01*
X92934346Y-105754500D01*
X92936663Y-105754500D01*
X93063337Y-105754500D01*
X93065654Y-105754500D01*
X93262228Y-105739769D01*
X93518598Y-105681254D01*
X93763384Y-105585183D01*
X93991117Y-105453701D01*
X94196710Y-105289746D01*
X94375570Y-105096980D01*
X94523702Y-104879710D01*
X94637798Y-104642788D01*
X94715308Y-104391508D01*
X94754500Y-104131482D01*
X163245500Y-104131482D01*
X163284691Y-104391507D01*
X163362202Y-104642787D01*
X163476296Y-104879707D01*
X163476297Y-104879709D01*
X163476298Y-104879710D01*
X163624430Y-105096980D01*
X163803290Y-105289746D01*
X164008883Y-105453701D01*
X164236616Y-105585183D01*
X164481402Y-105681254D01*
X164737772Y-105739769D01*
X164934346Y-105754500D01*
X164936663Y-105754500D01*
X165063337Y-105754500D01*
X165065654Y-105754500D01*
X165262228Y-105739769D01*
X165518598Y-105681254D01*
X165763384Y-105585183D01*
X165991117Y-105453701D01*
X166196710Y-105289746D01*
X166375570Y-105096980D01*
X166523702Y-104879710D01*
X166637798Y-104642788D01*
X166715308Y-104391508D01*
X166754500Y-104131482D01*
X166754500Y-103868518D01*
X166715308Y-103608492D01*
X166637798Y-103357212D01*
X166523702Y-103120290D01*
X166375570Y-102903020D01*
X166196710Y-102710254D01*
X166117701Y-102647246D01*
X165991116Y-102546298D01*
X165782241Y-102425704D01*
X165763384Y-102414817D01*
X165763383Y-102414816D01*
X165763382Y-102414816D01*
X165518600Y-102318746D01*
X165262225Y-102260230D01*
X165067968Y-102245673D01*
X165067957Y-102245672D01*
X165065654Y-102245500D01*
X164934346Y-102245500D01*
X164932043Y-102245672D01*
X164932031Y-102245673D01*
X164737774Y-102260230D01*
X164481399Y-102318746D01*
X164236617Y-102414816D01*
X164008883Y-102546298D01*
X163803290Y-102710253D01*
X163624431Y-102903018D01*
X163476296Y-103120292D01*
X163362202Y-103357212D01*
X163284691Y-103608492D01*
X163245500Y-103868517D01*
X163245500Y-104131482D01*
X94754500Y-104131482D01*
X94754500Y-103868518D01*
X94715308Y-103608492D01*
X94637798Y-103357212D01*
X94570993Y-103218491D01*
X113110500Y-103218491D01*
X113149373Y-103401382D01*
X113225427Y-103572202D01*
X113335329Y-103723469D01*
X113474284Y-103848585D01*
X113636214Y-103942075D01*
X113721803Y-103969884D01*
X113814044Y-103999855D01*
X113953380Y-104014500D01*
X113956622Y-104014500D01*
X114043378Y-104014500D01*
X114046620Y-104014500D01*
X114185956Y-103999855D01*
X114363785Y-103942075D01*
X114525715Y-103848585D01*
X114664669Y-103723470D01*
X114664670Y-103723469D01*
X114774572Y-103572202D01*
X114850626Y-103401382D01*
X114889500Y-103218491D01*
X114889500Y-103031508D01*
X114850626Y-102848617D01*
X114774572Y-102677797D01*
X114664670Y-102526530D01*
X114525715Y-102401414D01*
X114363785Y-102307924D01*
X114185957Y-102250145D01*
X114049840Y-102235838D01*
X114049831Y-102235837D01*
X114046620Y-102235500D01*
X113953380Y-102235500D01*
X113950169Y-102235837D01*
X113950159Y-102235838D01*
X113814042Y-102250145D01*
X113636214Y-102307924D01*
X113474284Y-102401414D01*
X113335329Y-102526530D01*
X113225427Y-102677797D01*
X113149373Y-102848617D01*
X113110500Y-103031508D01*
X113110500Y-103218491D01*
X94570993Y-103218491D01*
X94523702Y-103120290D01*
X94375570Y-102903020D01*
X94196710Y-102710254D01*
X94117701Y-102647246D01*
X93991116Y-102546298D01*
X93782241Y-102425704D01*
X93763384Y-102414817D01*
X93763383Y-102414816D01*
X93763382Y-102414816D01*
X93518600Y-102318746D01*
X93262225Y-102260230D01*
X93067968Y-102245673D01*
X93067957Y-102245672D01*
X93065654Y-102245500D01*
X92934346Y-102245500D01*
X92932043Y-102245672D01*
X92932031Y-102245673D01*
X92737774Y-102260230D01*
X92481399Y-102318746D01*
X92236617Y-102414816D01*
X92008883Y-102546298D01*
X91803290Y-102710253D01*
X91624431Y-102903018D01*
X91476296Y-103120292D01*
X91362202Y-103357212D01*
X91284691Y-103608492D01*
X91245500Y-103868517D01*
X91245500Y-104131482D01*
X88106240Y-104131482D01*
X88100618Y-104002701D01*
X88100500Y-103997293D01*
X88100500Y-101915000D01*
X115848576Y-101915000D01*
X115922600Y-102068712D01*
X116054855Y-102250745D01*
X116217491Y-102406241D01*
X116250000Y-102427700D01*
X116250000Y-101915000D01*
X115848576Y-101915000D01*
X88100500Y-101915000D01*
X88100500Y-101238327D01*
X116490000Y-101238327D01*
X116531318Y-101379040D01*
X116610605Y-101502413D01*
X116721438Y-101598451D01*
X116854839Y-101659373D01*
X116963527Y-101675000D01*
X117036473Y-101675000D01*
X117145161Y-101659373D01*
X117278562Y-101598451D01*
X117389395Y-101502413D01*
X117468682Y-101379040D01*
X117510000Y-101238327D01*
X117510000Y-101091673D01*
X117468682Y-100950960D01*
X117389395Y-100827587D01*
X117278562Y-100731549D01*
X117145161Y-100670627D01*
X117036473Y-100655000D01*
X116963527Y-100655000D01*
X116854839Y-100670627D01*
X116721438Y-100731549D01*
X116610605Y-100827587D01*
X116531318Y-100950960D01*
X116490000Y-101091673D01*
X116490000Y-101238327D01*
X88100500Y-101238327D01*
X88100500Y-97841000D01*
X94299500Y-97841000D01*
X94299854Y-97844297D01*
X94299855Y-97844306D01*
X94303840Y-97881372D01*
X94303842Y-97881388D01*
X94304197Y-97884684D01*
X94304903Y-97887933D01*
X94304904Y-97887934D01*
X94315403Y-97936195D01*
X94315768Y-97937732D01*
X94317878Y-97946350D01*
X94360899Y-98027085D01*
X94405399Y-98078441D01*
X94405420Y-98078464D01*
X94406655Y-98079889D01*
X94424246Y-98097843D01*
X94504063Y-98142490D01*
X94571102Y-98162175D01*
X94629000Y-98170500D01*
X94629004Y-98170500D01*
X107077678Y-98170500D01*
X107081000Y-98170500D01*
X107124684Y-98165803D01*
X107176195Y-98154597D01*
X107177732Y-98154232D01*
X107186350Y-98152121D01*
X107186368Y-98152111D01*
X107186373Y-98152110D01*
X107267085Y-98109100D01*
X107300796Y-98079889D01*
X107318441Y-98064600D01*
X107318446Y-98064595D01*
X107319889Y-98063345D01*
X107337843Y-98045754D01*
X107382490Y-97965937D01*
X107402175Y-97898898D01*
X107410500Y-97841000D01*
X107410500Y-93874500D01*
X107430185Y-93807461D01*
X107482989Y-93761706D01*
X107534500Y-93750500D01*
X110750853Y-93750500D01*
X110817892Y-93770185D01*
X110838534Y-93786819D01*
X116587005Y-99535290D01*
X116620490Y-99596613D01*
X116615506Y-99666305D01*
X116573634Y-99722238D01*
X116537643Y-99740902D01*
X116506733Y-99750945D01*
X116308592Y-99857569D01*
X116132681Y-99997853D01*
X115984640Y-100167299D01*
X115869237Y-100360451D01*
X115848764Y-100415000D01*
X117415353Y-100415000D01*
X117482392Y-100434685D01*
X117503034Y-100451319D01*
X117713681Y-100661966D01*
X117747166Y-100723289D01*
X117750000Y-100749647D01*
X117750000Y-102425704D01*
X117867315Y-102332149D01*
X117910449Y-102282778D01*
X117969381Y-102245244D01*
X118039250Y-102245528D01*
X118097874Y-102283541D01*
X118106060Y-102294182D01*
X118269184Y-102531812D01*
X118271962Y-102534883D01*
X118271964Y-102534886D01*
X118368039Y-102641111D01*
X118466805Y-102750312D01*
X118691787Y-102940522D01*
X118940113Y-103099047D01*
X119207353Y-103223060D01*
X119488738Y-103310346D01*
X119779246Y-103359349D01*
X120073694Y-103369193D01*
X120366827Y-103339704D01*
X120653414Y-103271407D01*
X120790807Y-103218491D01*
X122110500Y-103218491D01*
X122149373Y-103401382D01*
X122225427Y-103572202D01*
X122335329Y-103723469D01*
X122474284Y-103848585D01*
X122636214Y-103942075D01*
X122721803Y-103969884D01*
X122814044Y-103999855D01*
X122953380Y-104014500D01*
X122956622Y-104014500D01*
X123043378Y-104014500D01*
X123046620Y-104014500D01*
X123185956Y-103999855D01*
X123363785Y-103942075D01*
X123525715Y-103848585D01*
X123664669Y-103723470D01*
X123664670Y-103723469D01*
X123774572Y-103572202D01*
X123850626Y-103401382D01*
X123863647Y-103340119D01*
X123889500Y-103218491D01*
X135110500Y-103218491D01*
X135149373Y-103401382D01*
X135225427Y-103572202D01*
X135335329Y-103723469D01*
X135474284Y-103848585D01*
X135636214Y-103942075D01*
X135721803Y-103969884D01*
X135814044Y-103999855D01*
X135953380Y-104014500D01*
X135956622Y-104014500D01*
X136043378Y-104014500D01*
X136046620Y-104014500D01*
X136185956Y-103999855D01*
X136363785Y-103942075D01*
X136525715Y-103848585D01*
X136664669Y-103723470D01*
X136664670Y-103723469D01*
X136774572Y-103572202D01*
X136850626Y-103401382D01*
X136889500Y-103218491D01*
X144110500Y-103218491D01*
X144149373Y-103401382D01*
X144225427Y-103572202D01*
X144335329Y-103723469D01*
X144474284Y-103848585D01*
X144636214Y-103942075D01*
X144721803Y-103969884D01*
X144814044Y-103999855D01*
X144953380Y-104014500D01*
X144956622Y-104014500D01*
X145043378Y-104014500D01*
X145046620Y-104014500D01*
X145185956Y-103999855D01*
X145363785Y-103942075D01*
X145525715Y-103848585D01*
X145664669Y-103723470D01*
X145664670Y-103723469D01*
X145774572Y-103572202D01*
X145850626Y-103401382D01*
X145889500Y-103218491D01*
X145889500Y-103031508D01*
X145850626Y-102848617D01*
X145774572Y-102677797D01*
X145664670Y-102526530D01*
X145525715Y-102401414D01*
X145363785Y-102307924D01*
X145185957Y-102250145D01*
X145049840Y-102235838D01*
X145049831Y-102235837D01*
X145046620Y-102235500D01*
X144953380Y-102235500D01*
X144950169Y-102235837D01*
X144950159Y-102235838D01*
X144814042Y-102250145D01*
X144636214Y-102307924D01*
X144474284Y-102401414D01*
X144335329Y-102526530D01*
X144225427Y-102677797D01*
X144149373Y-102848617D01*
X144110500Y-103031508D01*
X144110500Y-103218491D01*
X136889500Y-103218491D01*
X136889500Y-103031508D01*
X136850626Y-102848617D01*
X136774572Y-102677797D01*
X136664670Y-102526530D01*
X136525715Y-102401414D01*
X136363785Y-102307924D01*
X136185957Y-102250145D01*
X136049840Y-102235838D01*
X136049831Y-102235837D01*
X136046620Y-102235500D01*
X135953380Y-102235500D01*
X135950169Y-102235837D01*
X135950159Y-102235838D01*
X135814042Y-102250145D01*
X135636214Y-102307924D01*
X135474284Y-102401414D01*
X135335329Y-102526530D01*
X135225427Y-102677797D01*
X135149373Y-102848617D01*
X135110500Y-103031508D01*
X135110500Y-103218491D01*
X123889500Y-103218491D01*
X123889500Y-103218490D01*
X123889500Y-103031510D01*
X123850745Y-102849178D01*
X123850626Y-102848617D01*
X123774572Y-102677797D01*
X123664670Y-102526530D01*
X123525715Y-102401414D01*
X123363785Y-102307924D01*
X123185957Y-102250145D01*
X123049840Y-102235838D01*
X123049831Y-102235837D01*
X123046620Y-102235500D01*
X122953380Y-102235500D01*
X122950169Y-102235837D01*
X122950159Y-102235838D01*
X122814042Y-102250145D01*
X122636214Y-102307924D01*
X122474284Y-102401414D01*
X122335329Y-102526530D01*
X122225427Y-102677797D01*
X122149373Y-102848617D01*
X122110500Y-103031508D01*
X122110500Y-103218491D01*
X120790807Y-103218491D01*
X120928340Y-103165521D01*
X121186700Y-103023936D01*
X121423884Y-102849178D01*
X121635658Y-102644365D01*
X121818244Y-102413154D01*
X121968383Y-102159669D01*
X122072132Y-101915000D01*
X137848576Y-101915000D01*
X137922600Y-102068712D01*
X138054855Y-102250745D01*
X138217491Y-102406241D01*
X138250000Y-102427700D01*
X138250000Y-101915000D01*
X139750000Y-101915000D01*
X139750000Y-102425704D01*
X139867318Y-102332146D01*
X140015359Y-102162700D01*
X140126691Y-101976361D01*
X141049500Y-101976361D01*
X141049501Y-101976372D01*
X141049501Y-101979264D01*
X141049770Y-101982140D01*
X141049771Y-101982148D01*
X141052354Y-102009695D01*
X141052354Y-102009698D01*
X141097207Y-102137882D01*
X141115915Y-102163230D01*
X141177849Y-102247150D01*
X141195574Y-102260231D01*
X141287118Y-102327793D01*
X141415302Y-102372646D01*
X141445735Y-102375500D01*
X142554264Y-102375499D01*
X142584698Y-102372646D01*
X142712882Y-102327793D01*
X142822150Y-102247150D01*
X142902793Y-102137882D01*
X142947646Y-102009698D01*
X142950500Y-101979265D01*
X142950499Y-100350736D01*
X142947646Y-100320302D01*
X142902793Y-100192118D01*
X142856393Y-100129248D01*
X142822150Y-100082849D01*
X142759280Y-100036450D01*
X142712882Y-100002207D01*
X142584698Y-99957354D01*
X142584697Y-99957353D01*
X142584695Y-99957353D01*
X142557150Y-99954770D01*
X142557138Y-99954769D01*
X142554265Y-99954500D01*
X142551372Y-99954500D01*
X141448638Y-99954500D01*
X141448616Y-99954500D01*
X141445736Y-99954501D01*
X141442860Y-99954770D01*
X141442851Y-99954771D01*
X141415301Y-99957354D01*
X141287118Y-100002207D01*
X141177849Y-100082849D01*
X141097207Y-100192118D01*
X141052353Y-100320304D01*
X141049770Y-100347849D01*
X141049770Y-100347851D01*
X141049500Y-100350735D01*
X141049500Y-100353626D01*
X141049500Y-100353627D01*
X141049500Y-101976361D01*
X140126691Y-101976361D01*
X140130762Y-101969548D01*
X140151235Y-101915000D01*
X139750000Y-101915000D01*
X138250000Y-101915000D01*
X137848576Y-101915000D01*
X122072132Y-101915000D01*
X122083397Y-101888434D01*
X122161232Y-101604290D01*
X122200500Y-101312306D01*
X122200500Y-101238327D01*
X138490000Y-101238327D01*
X138531318Y-101379040D01*
X138610605Y-101502413D01*
X138721438Y-101598451D01*
X138854839Y-101659373D01*
X138963527Y-101675000D01*
X139036473Y-101675000D01*
X139145161Y-101659373D01*
X139278562Y-101598451D01*
X139389395Y-101502413D01*
X139468682Y-101379040D01*
X139510000Y-101238327D01*
X139510000Y-101091673D01*
X139468682Y-100950960D01*
X139389395Y-100827587D01*
X139278562Y-100731549D01*
X139145161Y-100670627D01*
X139036473Y-100655000D01*
X138963527Y-100655000D01*
X138854839Y-100670627D01*
X138721438Y-100731549D01*
X138610605Y-100827587D01*
X138531318Y-100950960D01*
X138490000Y-101091673D01*
X138490000Y-101238327D01*
X122200500Y-101238327D01*
X122200500Y-100415000D01*
X137848764Y-100415000D01*
X138250000Y-100415000D01*
X138250000Y-99904295D01*
X138249999Y-99904295D01*
X138132679Y-99997855D01*
X137984640Y-100167299D01*
X137869237Y-100360451D01*
X137848764Y-100415000D01*
X122200500Y-100415000D01*
X122200500Y-99902298D01*
X139750000Y-99902298D01*
X139750000Y-100415000D01*
X140151423Y-100415000D01*
X140151423Y-100414999D01*
X140077399Y-100261287D01*
X139945144Y-100079254D01*
X139782508Y-99923758D01*
X139750000Y-99902298D01*
X122200500Y-99902298D01*
X122200500Y-99854704D01*
X122202654Y-99725792D01*
X122192259Y-99637338D01*
X122191693Y-99631191D01*
X122185747Y-99542354D01*
X122175757Y-99493207D01*
X122174125Y-99483011D01*
X122168271Y-99433193D01*
X122146176Y-99346902D01*
X122144792Y-99340867D01*
X122127891Y-99257715D01*
X122127064Y-99253645D01*
X122110616Y-99206278D01*
X122107631Y-99196362D01*
X122095194Y-99147788D01*
X122061800Y-99065225D01*
X122059633Y-99059453D01*
X122030424Y-98975334D01*
X122007809Y-98930582D01*
X122003529Y-98921152D01*
X121986283Y-98878511D01*
X121986282Y-98878509D01*
X121984729Y-98874669D01*
X121940644Y-98797320D01*
X121937702Y-98791844D01*
X121927472Y-98771600D01*
X121897551Y-98712387D01*
X121869164Y-98671034D01*
X121863678Y-98662278D01*
X121840899Y-98622311D01*
X121840897Y-98622309D01*
X121838847Y-98618711D01*
X121784846Y-98547928D01*
X121781201Y-98542894D01*
X121733159Y-98472909D01*
X121733158Y-98472908D01*
X121730816Y-98469496D01*
X121697167Y-98432292D01*
X121690562Y-98424344D01*
X121662667Y-98387779D01*
X121662658Y-98387768D01*
X121660149Y-98384480D01*
X121597202Y-98321533D01*
X121592918Y-98317029D01*
X121535975Y-98254070D01*
X121533195Y-98250996D01*
X121494897Y-98218617D01*
X121487274Y-98211605D01*
X116735417Y-93459748D01*
X153549500Y-93459748D01*
X153561132Y-93518230D01*
X153605447Y-93584552D01*
X153671769Y-93628867D01*
X153730251Y-93640500D01*
X153730252Y-93640500D01*
X160379749Y-93640500D01*
X160408989Y-93634683D01*
X160438231Y-93628867D01*
X160504552Y-93584552D01*
X160548867Y-93518231D01*
X160560500Y-93459748D01*
X160560500Y-89640252D01*
X160548867Y-89581769D01*
X160547681Y-89579994D01*
X160504552Y-89515447D01*
X160438230Y-89471132D01*
X160379749Y-89459500D01*
X160379748Y-89459500D01*
X157199748Y-89459500D01*
X153730252Y-89459500D01*
X153730251Y-89459500D01*
X153671769Y-89471132D01*
X153605447Y-89515447D01*
X153561132Y-89581769D01*
X153549500Y-89640251D01*
X153549500Y-93459748D01*
X116735417Y-93459748D01*
X113282679Y-90007010D01*
X113195938Y-89917321D01*
X113193057Y-89914342D01*
X113189801Y-89911771D01*
X113189797Y-89911767D01*
X113123172Y-89859153D01*
X113118417Y-89855200D01*
X113051392Y-89796587D01*
X113009585Y-89768904D01*
X113001197Y-89762831D01*
X112965094Y-89734321D01*
X112961846Y-89731756D01*
X112958284Y-89729646D01*
X112958275Y-89729640D01*
X112885234Y-89686377D01*
X112879969Y-89683078D01*
X112809206Y-89636223D01*
X112809198Y-89636218D01*
X112805748Y-89633934D01*
X112760628Y-89612072D01*
X112751512Y-89607175D01*
X112711925Y-89583728D01*
X112708361Y-89581617D01*
X112704548Y-89580000D01*
X112704536Y-89579994D01*
X112626386Y-89546856D01*
X112620726Y-89544287D01*
X112544352Y-89507282D01*
X112544349Y-89507281D01*
X112540618Y-89505473D01*
X112536683Y-89504180D01*
X112536676Y-89504177D01*
X112492995Y-89489823D01*
X112483299Y-89486182D01*
X112440947Y-89468223D01*
X112440943Y-89468221D01*
X112437126Y-89466603D01*
X112433128Y-89465507D01*
X112433120Y-89465505D01*
X112351241Y-89443076D01*
X112345304Y-89441289D01*
X112260731Y-89413497D01*
X112256660Y-89412740D01*
X112256652Y-89412738D01*
X112211439Y-89404332D01*
X112201349Y-89402016D01*
X112156970Y-89389860D01*
X112156964Y-89389858D01*
X112152982Y-89388768D01*
X112148890Y-89388217D01*
X112148887Y-89388217D01*
X112064736Y-89376900D01*
X112058599Y-89375917D01*
X111975162Y-89360404D01*
X111975154Y-89360403D01*
X111971082Y-89359646D01*
X111966949Y-89359438D01*
X111966936Y-89359437D01*
X111921002Y-89357132D01*
X111910695Y-89356182D01*
X111865105Y-89350052D01*
X111865100Y-89350051D01*
X111860998Y-89349500D01*
X111856857Y-89349500D01*
X111771967Y-89349500D01*
X111765753Y-89349344D01*
X111680989Y-89345091D01*
X111680986Y-89345091D01*
X111676840Y-89344883D01*
X111672711Y-89345228D01*
X111672697Y-89345229D01*
X111626880Y-89349067D01*
X111616532Y-89349500D01*
X107534500Y-89349500D01*
X107467461Y-89329815D01*
X107421706Y-89277011D01*
X107410500Y-89225500D01*
X107410500Y-78791000D01*
X117159500Y-78791000D01*
X117159854Y-78794297D01*
X117159855Y-78794306D01*
X117163840Y-78831372D01*
X117163842Y-78831388D01*
X117164197Y-78834684D01*
X117164903Y-78837933D01*
X117164904Y-78837934D01*
X117175403Y-78886195D01*
X117175768Y-78887732D01*
X117177878Y-78896350D01*
X117220899Y-78977085D01*
X117265399Y-79028441D01*
X117265420Y-79028464D01*
X117266655Y-79029889D01*
X117284246Y-79047843D01*
X117364063Y-79092490D01*
X117431102Y-79112175D01*
X117489000Y-79120500D01*
X120845500Y-79120500D01*
X120912539Y-79140185D01*
X120958294Y-79192989D01*
X120969499Y-79244499D01*
X120969500Y-86411000D01*
X120969854Y-86414297D01*
X120969855Y-86414306D01*
X120973840Y-86451372D01*
X120973842Y-86451388D01*
X120974197Y-86454684D01*
X120974903Y-86457933D01*
X120974904Y-86457934D01*
X120985403Y-86506195D01*
X120985768Y-86507732D01*
X120987878Y-86516350D01*
X121030899Y-86597085D01*
X121075399Y-86648441D01*
X121075420Y-86648464D01*
X121076655Y-86649889D01*
X121094246Y-86667843D01*
X121174063Y-86712490D01*
X121241102Y-86732175D01*
X121299000Y-86740500D01*
X121299004Y-86740500D01*
X123646487Y-86740500D01*
X123649250Y-86740500D01*
X123685736Y-86737235D01*
X123729070Y-86729417D01*
X123732163Y-86728834D01*
X123815738Y-86691692D01*
X123871671Y-86649820D01*
X123890833Y-86633555D01*
X123941060Y-86557125D01*
X123965477Y-86491661D01*
X123972805Y-86467615D01*
X123973738Y-86376164D01*
X123958886Y-86307891D01*
X123957726Y-86303789D01*
X123958439Y-86233923D01*
X123996812Y-86175533D01*
X124060660Y-86147158D01*
X124105997Y-86149495D01*
X124340422Y-86205776D01*
X124590000Y-86225418D01*
X124839578Y-86205776D01*
X125073851Y-86149532D01*
X125143631Y-86153023D01*
X125200449Y-86193686D01*
X125226262Y-86258613D01*
X125218531Y-86314618D01*
X125212058Y-86331448D01*
X125204603Y-86422598D01*
X125211261Y-86468898D01*
X125214548Y-86491758D01*
X125214926Y-86493589D01*
X125214931Y-86493613D01*
X125219640Y-86516373D01*
X125262650Y-86597086D01*
X125307149Y-86648441D01*
X125307170Y-86648464D01*
X125308405Y-86649889D01*
X125325996Y-86667843D01*
X125405813Y-86712490D01*
X125472852Y-86732175D01*
X125530750Y-86740500D01*
X125530754Y-86740500D01*
X128032678Y-86740500D01*
X128036000Y-86740500D01*
X128079684Y-86735803D01*
X128131195Y-86724597D01*
X128132732Y-86724232D01*
X128141350Y-86722121D01*
X128141368Y-86722111D01*
X128141373Y-86722110D01*
X128222085Y-86679100D01*
X128254249Y-86651230D01*
X128273441Y-86634600D01*
X128273446Y-86634595D01*
X128274889Y-86633345D01*
X128292843Y-86615754D01*
X128337490Y-86535937D01*
X128357175Y-86468898D01*
X128365500Y-86411000D01*
X128365500Y-79244500D01*
X128385185Y-79177461D01*
X128437989Y-79131706D01*
X128489500Y-79120500D01*
X131005500Y-79120500D01*
X131072539Y-79140185D01*
X131118294Y-79192989D01*
X131129500Y-79244500D01*
X131129500Y-79609500D01*
X131129500Y-81301944D01*
X131129500Y-82854500D01*
X131129500Y-84701944D01*
X131129500Y-87046000D01*
X131129854Y-87049297D01*
X131129855Y-87049306D01*
X131133840Y-87086372D01*
X131133842Y-87086388D01*
X131134197Y-87089684D01*
X131134903Y-87092933D01*
X131134904Y-87092934D01*
X131145403Y-87141195D01*
X131145768Y-87142732D01*
X131147878Y-87151350D01*
X131190899Y-87232085D01*
X131235399Y-87283441D01*
X131235420Y-87283464D01*
X131236655Y-87284889D01*
X131254246Y-87302843D01*
X131334063Y-87347490D01*
X131401102Y-87367175D01*
X131459000Y-87375500D01*
X131459004Y-87375500D01*
X161687678Y-87375500D01*
X161691000Y-87375500D01*
X161734684Y-87370803D01*
X161786195Y-87359597D01*
X161787732Y-87359232D01*
X161796350Y-87357121D01*
X161796368Y-87357111D01*
X161796373Y-87357110D01*
X161877085Y-87314100D01*
X161910796Y-87284889D01*
X161928441Y-87269600D01*
X161928446Y-87269595D01*
X161929889Y-87268345D01*
X161947843Y-87250754D01*
X161992490Y-87170937D01*
X162012175Y-87103898D01*
X162020500Y-87046000D01*
X162020500Y-79039000D01*
X162015803Y-78995316D01*
X162004597Y-78943805D01*
X162004232Y-78942268D01*
X162002121Y-78933649D01*
X162002110Y-78933629D01*
X162002110Y-78933627D01*
X161976834Y-78886195D01*
X161959100Y-78852914D01*
X161914600Y-78801558D01*
X161914580Y-78801536D01*
X161913345Y-78800111D01*
X161895754Y-78782157D01*
X161815937Y-78737510D01*
X161815936Y-78737509D01*
X161815935Y-78737509D01*
X161748901Y-78717826D01*
X161748898Y-78717825D01*
X161691000Y-78709500D01*
X150322489Y-78709500D01*
X150255450Y-78689815D01*
X150209695Y-78637011D01*
X150199751Y-78567853D01*
X150228776Y-78504297D01*
X150283485Y-78467794D01*
X150339122Y-78449357D01*
X150488345Y-78357316D01*
X150612315Y-78233346D01*
X150704358Y-78084121D01*
X150727263Y-78015000D01*
X147112737Y-78015000D01*
X147135641Y-78084121D01*
X147227684Y-78233346D01*
X147351654Y-78357316D01*
X147500877Y-78449357D01*
X147556515Y-78467794D01*
X147613960Y-78507567D01*
X147640783Y-78572083D01*
X147628468Y-78640858D01*
X147580925Y-78692058D01*
X147517511Y-78709500D01*
X146072489Y-78709500D01*
X146005450Y-78689815D01*
X145959695Y-78637011D01*
X145949751Y-78567853D01*
X145978776Y-78504297D01*
X146033485Y-78467794D01*
X146089122Y-78449357D01*
X146238345Y-78357316D01*
X146362315Y-78233346D01*
X146454358Y-78084121D01*
X146477263Y-78015000D01*
X142862737Y-78015000D01*
X142885641Y-78084121D01*
X142977684Y-78233346D01*
X143101654Y-78357316D01*
X143250877Y-78449357D01*
X143306515Y-78467794D01*
X143363960Y-78507567D01*
X143390783Y-78572083D01*
X143378468Y-78640858D01*
X143330925Y-78692058D01*
X143267511Y-78709500D01*
X141822489Y-78709500D01*
X141755450Y-78689815D01*
X141709695Y-78637011D01*
X141699751Y-78567853D01*
X141728776Y-78504297D01*
X141783485Y-78467794D01*
X141839122Y-78449357D01*
X141988345Y-78357316D01*
X142112315Y-78233346D01*
X142204358Y-78084121D01*
X142227263Y-78015000D01*
X138612737Y-78015000D01*
X138635641Y-78084121D01*
X138727684Y-78233346D01*
X138851654Y-78357316D01*
X139000877Y-78449357D01*
X139056515Y-78467794D01*
X139113960Y-78507567D01*
X139140783Y-78572083D01*
X139128468Y-78640858D01*
X139080925Y-78692058D01*
X139017511Y-78709500D01*
X134204499Y-78709500D01*
X134137460Y-78689815D01*
X134091705Y-78637011D01*
X134080499Y-78585500D01*
X134080499Y-76865000D01*
X138612737Y-76865000D01*
X139845000Y-76865000D01*
X139845000Y-76365000D01*
X140995000Y-76365000D01*
X140995000Y-76865000D01*
X142227262Y-76865000D01*
X142862737Y-76865000D01*
X144095000Y-76865000D01*
X144095000Y-76365000D01*
X145245000Y-76365000D01*
X145245000Y-76865000D01*
X146477262Y-76865000D01*
X147112737Y-76865000D01*
X148345000Y-76865000D01*
X148345000Y-76365000D01*
X149495000Y-76365000D01*
X149495000Y-76865000D01*
X150727262Y-76865000D01*
X150704358Y-76795878D01*
X150612315Y-76646653D01*
X150488345Y-76522683D01*
X150339122Y-76430642D01*
X150172696Y-76375493D01*
X150073109Y-76365319D01*
X150066832Y-76365000D01*
X149495000Y-76365000D01*
X148345000Y-76365000D01*
X147773171Y-76365000D01*
X147766888Y-76365321D01*
X147667304Y-76375493D01*
X147500877Y-76430642D01*
X147351654Y-76522683D01*
X147227684Y-76646653D01*
X147135641Y-76795878D01*
X147112737Y-76865000D01*
X146477262Y-76865000D01*
X146454358Y-76795878D01*
X146362315Y-76646653D01*
X146238345Y-76522683D01*
X146089122Y-76430642D01*
X145922696Y-76375493D01*
X145823109Y-76365319D01*
X145816832Y-76365000D01*
X145245000Y-76365000D01*
X144095000Y-76365000D01*
X143523171Y-76365000D01*
X143516888Y-76365321D01*
X143417304Y-76375493D01*
X143250877Y-76430642D01*
X143101654Y-76522683D01*
X142977684Y-76646653D01*
X142885641Y-76795878D01*
X142862737Y-76865000D01*
X142227262Y-76865000D01*
X142204358Y-76795878D01*
X142112315Y-76646653D01*
X141988345Y-76522683D01*
X141839122Y-76430642D01*
X141672696Y-76375493D01*
X141573109Y-76365319D01*
X141566832Y-76365000D01*
X140995000Y-76365000D01*
X139845000Y-76365000D01*
X139273171Y-76365000D01*
X139266888Y-76365321D01*
X139167304Y-76375493D01*
X139000877Y-76430642D01*
X138851654Y-76522683D01*
X138727684Y-76646653D01*
X138635641Y-76795878D01*
X138612737Y-76865000D01*
X134080499Y-76865000D01*
X134080499Y-74192728D01*
X134100184Y-74125689D01*
X134152988Y-74079934D01*
X134222146Y-74069990D01*
X134285702Y-74099015D01*
X134292180Y-74105046D01*
X134342963Y-74155830D01*
X134521126Y-74280581D01*
X134718245Y-74372500D01*
X134928331Y-74428792D01*
X135145000Y-74447748D01*
X135361669Y-74428792D01*
X135571755Y-74372500D01*
X135768874Y-74280581D01*
X135947037Y-74155830D01*
X136100830Y-74002037D01*
X136216426Y-73836947D01*
X136271002Y-73793325D01*
X136340501Y-73786132D01*
X136402855Y-73817654D01*
X136438269Y-73877884D01*
X136442000Y-73908073D01*
X136442000Y-74262248D01*
X136453632Y-74320730D01*
X136497947Y-74387052D01*
X136564269Y-74431367D01*
X136622751Y-74443000D01*
X136622752Y-74443000D01*
X138747249Y-74443000D01*
X138776489Y-74437183D01*
X138805731Y-74431367D01*
X138872052Y-74387052D01*
X138916367Y-74320731D01*
X138928000Y-74262248D01*
X138928000Y-72137752D01*
X138916367Y-72079269D01*
X138903358Y-72059800D01*
X138872052Y-72012947D01*
X138805730Y-71968632D01*
X138747249Y-71957000D01*
X138747248Y-71957000D01*
X136622752Y-71957000D01*
X136622751Y-71957000D01*
X136564269Y-71968632D01*
X136497947Y-72012947D01*
X136453632Y-72079269D01*
X136442000Y-72137751D01*
X136442000Y-72491926D01*
X136422315Y-72558965D01*
X136369511Y-72604720D01*
X136300353Y-72614664D01*
X136236797Y-72585639D01*
X136216425Y-72563050D01*
X136213565Y-72558965D01*
X136100830Y-72397963D01*
X135947037Y-72244170D01*
X135768874Y-72119419D01*
X135571755Y-72027500D01*
X135517446Y-72012948D01*
X135361667Y-71971207D01*
X135145000Y-71952251D01*
X134928332Y-71971207D01*
X134718244Y-72027500D01*
X134607227Y-72079269D01*
X134521126Y-72119419D01*
X134342963Y-72244170D01*
X134342959Y-72244173D01*
X134292179Y-72294953D01*
X134230856Y-72328437D01*
X134161164Y-72323452D01*
X134105231Y-72281581D01*
X134080815Y-72216116D01*
X134080499Y-72207271D01*
X134080499Y-71858865D01*
X134080500Y-71419000D01*
X134075803Y-71375316D01*
X134064597Y-71323805D01*
X134064232Y-71322268D01*
X134062121Y-71313649D01*
X134062110Y-71313629D01*
X134062110Y-71313627D01*
X134037348Y-71267159D01*
X134019100Y-71232914D01*
X133974600Y-71181558D01*
X133974580Y-71181536D01*
X133973345Y-71180111D01*
X133955754Y-71162157D01*
X133875937Y-71117510D01*
X133875936Y-71117509D01*
X133875935Y-71117509D01*
X133808901Y-71097826D01*
X133808898Y-71097825D01*
X133751000Y-71089500D01*
X129554000Y-71089500D01*
X129550703Y-71089854D01*
X129550693Y-71089855D01*
X129513627Y-71093840D01*
X129513608Y-71093842D01*
X129510316Y-71094197D01*
X129507069Y-71094903D01*
X129507065Y-71094904D01*
X129458805Y-71105403D01*
X129457268Y-71105768D01*
X129448649Y-71107878D01*
X129367914Y-71150899D01*
X129316558Y-71195399D01*
X129316518Y-71195435D01*
X129315111Y-71196655D01*
X129313769Y-71197970D01*
X129297156Y-71214247D01*
X129252509Y-71294064D01*
X129232826Y-71361098D01*
X129232825Y-71361102D01*
X129230306Y-71378627D01*
X129224500Y-71419003D01*
X129224500Y-76045500D01*
X129204815Y-76112539D01*
X129152011Y-76158294D01*
X129100500Y-76169500D01*
X122139500Y-76169500D01*
X122072461Y-76149815D01*
X122026706Y-76097011D01*
X122015500Y-76045500D01*
X122015500Y-74192729D01*
X122035185Y-74125690D01*
X122087989Y-74079935D01*
X122157147Y-74069991D01*
X122220703Y-74099016D01*
X122227180Y-74105047D01*
X122277963Y-74155830D01*
X122456126Y-74280581D01*
X122653245Y-74372500D01*
X122863331Y-74428792D01*
X122892764Y-74431367D01*
X123079999Y-74447748D01*
X123079999Y-74447747D01*
X123080000Y-74447748D01*
X123296669Y-74428792D01*
X123506755Y-74372500D01*
X123703874Y-74280581D01*
X123882037Y-74155830D01*
X124035830Y-74002037D01*
X124151426Y-73836947D01*
X124206002Y-73793325D01*
X124275501Y-73786132D01*
X124337855Y-73817654D01*
X124373269Y-73877884D01*
X124377000Y-73908073D01*
X124377000Y-74262248D01*
X124388632Y-74320730D01*
X124432947Y-74387052D01*
X124499269Y-74431367D01*
X124557751Y-74443000D01*
X124557752Y-74443000D01*
X126682249Y-74443000D01*
X126711489Y-74437183D01*
X126740731Y-74431367D01*
X126807052Y-74387052D01*
X126851367Y-74320731D01*
X126863000Y-74262248D01*
X126863000Y-72137752D01*
X126851367Y-72079269D01*
X126838358Y-72059800D01*
X126807052Y-72012947D01*
X126740730Y-71968632D01*
X126682249Y-71957000D01*
X126682248Y-71957000D01*
X124557752Y-71957000D01*
X124557751Y-71957000D01*
X124499269Y-71968632D01*
X124432947Y-72012947D01*
X124388632Y-72079269D01*
X124377000Y-72137751D01*
X124377000Y-72491926D01*
X124357315Y-72558965D01*
X124304511Y-72604720D01*
X124235353Y-72614664D01*
X124171797Y-72585639D01*
X124151425Y-72563050D01*
X124148565Y-72558965D01*
X124035830Y-72397963D01*
X123882037Y-72244170D01*
X123703874Y-72119419D01*
X123506755Y-72027500D01*
X123452446Y-72012948D01*
X123296667Y-71971207D01*
X123079999Y-71952251D01*
X122863332Y-71971207D01*
X122653244Y-72027500D01*
X122542227Y-72079269D01*
X122456126Y-72119419D01*
X122277963Y-72244170D01*
X122277959Y-72244173D01*
X122227181Y-72294952D01*
X122165858Y-72328437D01*
X122096166Y-72323453D01*
X122040233Y-72281581D01*
X122015816Y-72216117D01*
X122015500Y-72207271D01*
X122015500Y-71422322D01*
X122015500Y-71419000D01*
X122010803Y-71375316D01*
X121999597Y-71323805D01*
X121999232Y-71322268D01*
X121997121Y-71313649D01*
X121997110Y-71313629D01*
X121997110Y-71313627D01*
X121972348Y-71267159D01*
X121954100Y-71232914D01*
X121909600Y-71181558D01*
X121909580Y-71181536D01*
X121908345Y-71180111D01*
X121890754Y-71162157D01*
X121810937Y-71117510D01*
X121810936Y-71117509D01*
X121810935Y-71117509D01*
X121743901Y-71097826D01*
X121743898Y-71097825D01*
X121686000Y-71089500D01*
X117489000Y-71089500D01*
X117485703Y-71089854D01*
X117485693Y-71089855D01*
X117448627Y-71093840D01*
X117448608Y-71093842D01*
X117445316Y-71094197D01*
X117442069Y-71094903D01*
X117442065Y-71094904D01*
X117393805Y-71105403D01*
X117392268Y-71105768D01*
X117383649Y-71107878D01*
X117302914Y-71150899D01*
X117251558Y-71195399D01*
X117251518Y-71195435D01*
X117250111Y-71196655D01*
X117248769Y-71197970D01*
X117232156Y-71214247D01*
X117187509Y-71294064D01*
X117167826Y-71361098D01*
X117167825Y-71361102D01*
X117159500Y-71419000D01*
X117159500Y-78791000D01*
X107410500Y-78791000D01*
X107410500Y-70354500D01*
X107430185Y-70287461D01*
X107482989Y-70241706D01*
X107534500Y-70230500D01*
X121682678Y-70230500D01*
X121686000Y-70230500D01*
X121729684Y-70225803D01*
X121781195Y-70214597D01*
X121782732Y-70214232D01*
X121791350Y-70212121D01*
X121791368Y-70212111D01*
X121791373Y-70212110D01*
X121872085Y-70169100D01*
X121924889Y-70123345D01*
X121942843Y-70105754D01*
X121987490Y-70025937D01*
X122007175Y-69958898D01*
X122015500Y-69901000D01*
X122015500Y-68477729D01*
X122035185Y-68410690D01*
X122087989Y-68364935D01*
X122157147Y-68354991D01*
X122220703Y-68384016D01*
X122227181Y-68390048D01*
X122277963Y-68440830D01*
X122456126Y-68565581D01*
X122653245Y-68657500D01*
X122863331Y-68713792D01*
X123080000Y-68732748D01*
X123296669Y-68713792D01*
X123506755Y-68657500D01*
X123703874Y-68565581D01*
X123882037Y-68440830D01*
X124035830Y-68287037D01*
X124151426Y-68121947D01*
X124206002Y-68078325D01*
X124275501Y-68071132D01*
X124337855Y-68102654D01*
X124373269Y-68162884D01*
X124377000Y-68193073D01*
X124377000Y-68547248D01*
X124388632Y-68605730D01*
X124432947Y-68672052D01*
X124499269Y-68716367D01*
X124557751Y-68728000D01*
X124557752Y-68728000D01*
X126682249Y-68728000D01*
X126716459Y-68721195D01*
X126740731Y-68716367D01*
X126807052Y-68672052D01*
X126851367Y-68605731D01*
X126863000Y-68547248D01*
X126863000Y-66422752D01*
X126851367Y-66364269D01*
X126833779Y-66337947D01*
X126807052Y-66297947D01*
X126740730Y-66253632D01*
X126682249Y-66242000D01*
X126682248Y-66242000D01*
X124557752Y-66242000D01*
X124557751Y-66242000D01*
X124499269Y-66253632D01*
X124432947Y-66297947D01*
X124388632Y-66364269D01*
X124377000Y-66422751D01*
X124377000Y-66776926D01*
X124357315Y-66843965D01*
X124304511Y-66889720D01*
X124235353Y-66899664D01*
X124171797Y-66870639D01*
X124151425Y-66848050D01*
X124129632Y-66816926D01*
X124035830Y-66682963D01*
X123882037Y-66529170D01*
X123703874Y-66404419D01*
X123506755Y-66312500D01*
X123452446Y-66297948D01*
X123296667Y-66256207D01*
X123080000Y-66237251D01*
X122863332Y-66256207D01*
X122653244Y-66312500D01*
X122542227Y-66364269D01*
X122456126Y-66404419D01*
X122277963Y-66529170D01*
X122277959Y-66529173D01*
X122227181Y-66579952D01*
X122165858Y-66613437D01*
X122096166Y-66608453D01*
X122040233Y-66566581D01*
X122015816Y-66501117D01*
X122015500Y-66492271D01*
X122015500Y-65072321D01*
X122015500Y-65072320D01*
X122015500Y-65068999D01*
X122010803Y-65025314D01*
X121999597Y-64973804D01*
X121999237Y-64972294D01*
X121997120Y-64963646D01*
X121954099Y-64882913D01*
X121909600Y-64831558D01*
X121909580Y-64831536D01*
X121908345Y-64830111D01*
X121890754Y-64812157D01*
X121810937Y-64767510D01*
X121810936Y-64767509D01*
X121810935Y-64767509D01*
X121743901Y-64747826D01*
X121743898Y-64747825D01*
X121686000Y-64739500D01*
X121685996Y-64739500D01*
X107534500Y-64739500D01*
X107467461Y-64719815D01*
X107421706Y-64667011D01*
X107410500Y-64615500D01*
X107410500Y-63750000D01*
X122144317Y-63750000D01*
X122164956Y-63906762D01*
X122225463Y-64052840D01*
X122321717Y-64178282D01*
X122447158Y-64274536D01*
X122447159Y-64274536D01*
X122593238Y-64335044D01*
X122750000Y-64355682D01*
X122906762Y-64335044D01*
X123052841Y-64274536D01*
X123178282Y-64178282D01*
X123219923Y-64124013D01*
X123276350Y-64082811D01*
X123318299Y-64075500D01*
X129681701Y-64075500D01*
X129748740Y-64095185D01*
X129780076Y-64124013D01*
X129821718Y-64178282D01*
X129947159Y-64274536D01*
X130093238Y-64335044D01*
X130250000Y-64355682D01*
X130406762Y-64335044D01*
X130552841Y-64274536D01*
X130595012Y-64242176D01*
X130660181Y-64216982D01*
X130728626Y-64231020D01*
X130778616Y-64279833D01*
X130794499Y-64340552D01*
X130794499Y-67334212D01*
X130806031Y-67402086D01*
X130854689Y-67479524D01*
X130959601Y-67584436D01*
X131044733Y-67669566D01*
X131129865Y-67754698D01*
X131136707Y-67761540D01*
X131142110Y-67766943D01*
X131175595Y-67828266D01*
X131170611Y-67897958D01*
X131128739Y-67953891D01*
X131072077Y-67977361D01*
X131069816Y-67977687D01*
X131045113Y-67981238D01*
X131045081Y-67981243D01*
X131043242Y-67981508D01*
X131041415Y-67981885D01*
X131041386Y-67981891D01*
X131018626Y-67986600D01*
X130937913Y-68029610D01*
X130886558Y-68074109D01*
X130886518Y-68074145D01*
X130885111Y-68075365D01*
X130883769Y-68076680D01*
X130867156Y-68092957D01*
X130822509Y-68172774D01*
X130816549Y-68193073D01*
X130802825Y-68239812D01*
X130794500Y-68297710D01*
X130794500Y-68626000D01*
X130794854Y-68629297D01*
X130794855Y-68629306D01*
X130798840Y-68666372D01*
X130798842Y-68666388D01*
X130799197Y-68669684D01*
X130799903Y-68672933D01*
X130799904Y-68672934D01*
X130810403Y-68721195D01*
X130810768Y-68722732D01*
X130812878Y-68731350D01*
X130855899Y-68812085D01*
X130900399Y-68863441D01*
X130900420Y-68863464D01*
X130901655Y-68864889D01*
X130919246Y-68882843D01*
X130999063Y-68927490D01*
X131066102Y-68947175D01*
X131124000Y-68955500D01*
X131124004Y-68955500D01*
X131349375Y-68955500D01*
X131353751Y-68955500D01*
X131410944Y-68947381D01*
X131477237Y-68928172D01*
X131500232Y-68920000D01*
X131574385Y-68866471D01*
X131620516Y-68813995D01*
X131635928Y-68794135D01*
X131669369Y-68709012D01*
X131679806Y-68639926D01*
X131681352Y-68622549D01*
X131706899Y-68557518D01*
X131763550Y-68516622D01*
X131833317Y-68512846D01*
X131875987Y-68531962D01*
X131970975Y-68598473D01*
X131987532Y-68612367D01*
X132270476Y-68895310D01*
X132316791Y-68928172D01*
X132326624Y-68935149D01*
X132415786Y-68955500D01*
X132415787Y-68955500D01*
X132794212Y-68955500D01*
X132794213Y-68955500D01*
X132862085Y-68943968D01*
X132939524Y-68895310D01*
X133222476Y-68612356D01*
X133239015Y-68598478D01*
X133407037Y-68480830D01*
X133560830Y-68327037D01*
X133678484Y-68159007D01*
X133692363Y-68142468D01*
X133818843Y-68015989D01*
X133880163Y-67982506D01*
X133949855Y-67987490D01*
X134005788Y-68029362D01*
X134018903Y-68051266D01*
X134064419Y-68148874D01*
X134189170Y-68327037D01*
X134342963Y-68480830D01*
X134521126Y-68605581D01*
X134718245Y-68697500D01*
X134928331Y-68753792D01*
X135145000Y-68772748D01*
X135361669Y-68753792D01*
X135571755Y-68697500D01*
X135768874Y-68605581D01*
X135947037Y-68480830D01*
X136100830Y-68327037D01*
X136216426Y-68161947D01*
X136271002Y-68118325D01*
X136340501Y-68111132D01*
X136402855Y-68142654D01*
X136438269Y-68202884D01*
X136442000Y-68233073D01*
X136442000Y-68587248D01*
X136453632Y-68645730D01*
X136497947Y-68712052D01*
X136564269Y-68756367D01*
X136622751Y-68768000D01*
X136622752Y-68768000D01*
X138747249Y-68768000D01*
X138776489Y-68762183D01*
X138805731Y-68756367D01*
X138872052Y-68712052D01*
X138916367Y-68645731D01*
X138928000Y-68587248D01*
X138928000Y-68485000D01*
X153250000Y-68485000D01*
X153250000Y-69419518D01*
X153250354Y-69426132D01*
X153256400Y-69482371D01*
X153306647Y-69617089D01*
X153392811Y-69732188D01*
X153507910Y-69818352D01*
X153642628Y-69868599D01*
X153698867Y-69874645D01*
X153705482Y-69875000D01*
X154465000Y-69875000D01*
X154465000Y-68485000D01*
X156465000Y-68485000D01*
X156465000Y-69875000D01*
X157645000Y-69875000D01*
X157645000Y-68485000D01*
X159645000Y-68485000D01*
X159645000Y-69875000D01*
X160404518Y-69875000D01*
X160411132Y-69874645D01*
X160467371Y-69868599D01*
X160602089Y-69818352D01*
X160717188Y-69732188D01*
X160803352Y-69617089D01*
X160853599Y-69482371D01*
X160859645Y-69426132D01*
X160860000Y-69419518D01*
X160860000Y-68485000D01*
X159645000Y-68485000D01*
X157645000Y-68485000D01*
X156465000Y-68485000D01*
X154465000Y-68485000D01*
X153250000Y-68485000D01*
X138928000Y-68485000D01*
X138928000Y-67578543D01*
X154575000Y-67578543D01*
X154613898Y-67761540D01*
X154689992Y-67932451D01*
X154799958Y-68083806D01*
X154938990Y-68208991D01*
X155101011Y-68302534D01*
X155278939Y-68360346D01*
X155418361Y-68375000D01*
X155511639Y-68375000D01*
X155651061Y-68360346D01*
X155828989Y-68302534D01*
X155991010Y-68208991D01*
X156130042Y-68083806D01*
X156240008Y-67932451D01*
X156316102Y-67761540D01*
X156355000Y-67578543D01*
X157755000Y-67578543D01*
X157793898Y-67761540D01*
X157869992Y-67932451D01*
X157979958Y-68083806D01*
X158118990Y-68208991D01*
X158281011Y-68302534D01*
X158458939Y-68360346D01*
X158598361Y-68375000D01*
X158691639Y-68375000D01*
X158831061Y-68360346D01*
X159008989Y-68302534D01*
X159171010Y-68208991D01*
X159310042Y-68083806D01*
X159420008Y-67932451D01*
X159496102Y-67761540D01*
X159535000Y-67578543D01*
X159535000Y-67391457D01*
X159496102Y-67208460D01*
X159420008Y-67037549D01*
X159310042Y-66886194D01*
X159171010Y-66761009D01*
X159008989Y-66667466D01*
X158831061Y-66609654D01*
X158691639Y-66595000D01*
X158598361Y-66595000D01*
X158458939Y-66609654D01*
X158281011Y-66667466D01*
X158118990Y-66761009D01*
X157979958Y-66886194D01*
X157869992Y-67037549D01*
X157793898Y-67208460D01*
X157755000Y-67391457D01*
X157755000Y-67578543D01*
X156355000Y-67578543D01*
X156355000Y-67391457D01*
X156316102Y-67208460D01*
X156240008Y-67037549D01*
X156130042Y-66886194D01*
X155991010Y-66761009D01*
X155828989Y-66667466D01*
X155651061Y-66609654D01*
X155511639Y-66595000D01*
X155418361Y-66595000D01*
X155278939Y-66609654D01*
X155101011Y-66667466D01*
X154938990Y-66761009D01*
X154799958Y-66886194D01*
X154689992Y-67037549D01*
X154613898Y-67208460D01*
X154575000Y-67391457D01*
X154575000Y-67578543D01*
X138928000Y-67578543D01*
X138928000Y-66485000D01*
X153250000Y-66485000D01*
X154465000Y-66485000D01*
X154465000Y-65095000D01*
X156465000Y-65095000D01*
X156465000Y-66485000D01*
X157645000Y-66485000D01*
X157645000Y-65095000D01*
X159645000Y-65095000D01*
X159645000Y-66485000D01*
X160860000Y-66485000D01*
X160860000Y-65550481D01*
X160859645Y-65543867D01*
X160853599Y-65487628D01*
X160803352Y-65352910D01*
X160717188Y-65237811D01*
X160602089Y-65151647D01*
X160467371Y-65101400D01*
X160411132Y-65095354D01*
X160404518Y-65095000D01*
X159645000Y-65095000D01*
X157645000Y-65095000D01*
X156465000Y-65095000D01*
X154465000Y-65095000D01*
X153705482Y-65095000D01*
X153698867Y-65095354D01*
X153642628Y-65101400D01*
X153507910Y-65151647D01*
X153392811Y-65237811D01*
X153306647Y-65352910D01*
X153256400Y-65487628D01*
X153250354Y-65543867D01*
X153250000Y-65550481D01*
X153250000Y-66485000D01*
X138928000Y-66485000D01*
X138928000Y-66462752D01*
X138924529Y-66445304D01*
X138916367Y-66404269D01*
X138872052Y-66337947D01*
X138805730Y-66293632D01*
X138747249Y-66282000D01*
X138747248Y-66282000D01*
X136622752Y-66282000D01*
X136622751Y-66282000D01*
X136564269Y-66293632D01*
X136497947Y-66337947D01*
X136453632Y-66404269D01*
X136442000Y-66462751D01*
X136442000Y-66816926D01*
X136422315Y-66883965D01*
X136369511Y-66929720D01*
X136300353Y-66939664D01*
X136236797Y-66910639D01*
X136216425Y-66888050D01*
X136100830Y-66722963D01*
X135947037Y-66569170D01*
X135768874Y-66444419D01*
X135571755Y-66352500D01*
X135517446Y-66337948D01*
X135361667Y-66296207D01*
X135145000Y-66277251D01*
X134928332Y-66296207D01*
X134718244Y-66352500D01*
X134530602Y-66440000D01*
X134521126Y-66444419D01*
X134342963Y-66569170D01*
X134342959Y-66569173D01*
X134189173Y-66722959D01*
X134189170Y-66722962D01*
X134189170Y-66722963D01*
X134064419Y-66901126D01*
X134064418Y-66901128D01*
X134064416Y-66901131D01*
X134018903Y-66998731D01*
X133972730Y-67051170D01*
X133905537Y-67070321D01*
X133838656Y-67050104D01*
X133818841Y-67034006D01*
X133692368Y-66907533D01*
X133678474Y-66890976D01*
X133648417Y-66848050D01*
X133561742Y-66724266D01*
X133539417Y-66658064D01*
X133556427Y-66590297D01*
X133607375Y-66542483D01*
X133645669Y-66530408D01*
X133706758Y-66521625D01*
X133731373Y-66516533D01*
X133812085Y-66473523D01*
X133832332Y-66455979D01*
X133863441Y-66429023D01*
X133863446Y-66429018D01*
X133864889Y-66427768D01*
X133882843Y-66410177D01*
X133927490Y-66330360D01*
X133947175Y-66263321D01*
X133955500Y-66205423D01*
X133955500Y-63829500D01*
X133975185Y-63762461D01*
X134027989Y-63716706D01*
X134079500Y-63705500D01*
X142623091Y-63705500D01*
X142624372Y-63705480D01*
X142631646Y-63705322D01*
X142632969Y-63705274D01*
X142641942Y-63704896D01*
X142641960Y-63704892D01*
X142641966Y-63704892D01*
X142707521Y-63691242D01*
X142744949Y-63676770D01*
X142754502Y-63674142D01*
X142760715Y-63671568D01*
X142760717Y-63671568D01*
X142791783Y-63658699D01*
X142794512Y-63657607D01*
X142799605Y-63655637D01*
X142801114Y-63654834D01*
X142881799Y-63621413D01*
X142913062Y-63613035D01*
X142983820Y-63603720D01*
X143016178Y-63603720D01*
X143086933Y-63613035D01*
X143118199Y-63621413D01*
X143224512Y-63665450D01*
X143224512Y-63665449D01*
X143238923Y-63671419D01*
X143245299Y-63674273D01*
X143251972Y-63677490D01*
X143251979Y-63677492D01*
X143252365Y-63677678D01*
X143255931Y-63678937D01*
X143260876Y-63680104D01*
X143319011Y-63697175D01*
X143376909Y-63705500D01*
X143376913Y-63705500D01*
X157623091Y-63705500D01*
X157624372Y-63705480D01*
X157631646Y-63705322D01*
X157632969Y-63705274D01*
X157641942Y-63704896D01*
X157641960Y-63704892D01*
X157641966Y-63704892D01*
X157707521Y-63691242D01*
X157744949Y-63676770D01*
X157754502Y-63674142D01*
X157760715Y-63671568D01*
X157760717Y-63671568D01*
X157791783Y-63658699D01*
X157794512Y-63657607D01*
X157799605Y-63655637D01*
X157801114Y-63654834D01*
X157881799Y-63621413D01*
X157913062Y-63613035D01*
X157983820Y-63603720D01*
X158016178Y-63603720D01*
X158086933Y-63613035D01*
X158118199Y-63621413D01*
X158224512Y-63665450D01*
X158224512Y-63665449D01*
X158238923Y-63671419D01*
X158245299Y-63674273D01*
X158251972Y-63677490D01*
X158251979Y-63677492D01*
X158252365Y-63677678D01*
X158255931Y-63678937D01*
X158260876Y-63680104D01*
X158319011Y-63697175D01*
X158376909Y-63705500D01*
X158376913Y-63705500D01*
X160872678Y-63705500D01*
X160876000Y-63705500D01*
X160919684Y-63700803D01*
X160971195Y-63689597D01*
X160972732Y-63689232D01*
X160981350Y-63687121D01*
X160981368Y-63687111D01*
X160981373Y-63687110D01*
X161062085Y-63644100D01*
X161114889Y-63598345D01*
X161132843Y-63580754D01*
X161177490Y-63500937D01*
X161197175Y-63433898D01*
X161205500Y-63376000D01*
X161205500Y-62236958D01*
X161204322Y-62214989D01*
X161201488Y-62188631D01*
X161177529Y-62112114D01*
X161144044Y-62050791D01*
X161130670Y-62029507D01*
X161062167Y-61968914D01*
X161000844Y-61935429D01*
X160978087Y-61924754D01*
X160978085Y-61924753D01*
X160887700Y-61910814D01*
X160819899Y-61915663D01*
X160819876Y-61915665D01*
X160818007Y-61915799D01*
X160816156Y-61916045D01*
X160816136Y-61916048D01*
X160793083Y-61919124D01*
X160734857Y-61945001D01*
X160665601Y-61954238D01*
X160602345Y-61924566D01*
X160565172Y-61865405D01*
X160560500Y-61831687D01*
X160560500Y-58158616D01*
X160580185Y-58091577D01*
X160632989Y-58045822D01*
X160702147Y-58035878D01*
X160736003Y-58045819D01*
X160772985Y-58062708D01*
X160796449Y-58071733D01*
X160873817Y-58078059D01*
X160887598Y-58079187D01*
X160887598Y-58079186D01*
X160887600Y-58079187D01*
X160956758Y-58069243D01*
X160981373Y-58064151D01*
X161062085Y-58021141D01*
X161114889Y-57975386D01*
X161132843Y-57957795D01*
X161177490Y-57877978D01*
X161197175Y-57810939D01*
X161205500Y-57753041D01*
X161205500Y-57622971D01*
X161200984Y-57580127D01*
X161190204Y-57529557D01*
X161189873Y-57528125D01*
X161187988Y-57520213D01*
X161187816Y-57519884D01*
X161145641Y-57439124D01*
X161100327Y-57385941D01*
X161082887Y-57367843D01*
X161082886Y-57367842D01*
X161082885Y-57367841D01*
X161003445Y-57322532D01*
X160936565Y-57302287D01*
X160878749Y-57293482D01*
X160760455Y-57292496D01*
X160760446Y-57292496D01*
X160758745Y-57292482D01*
X160757039Y-57292562D01*
X160757026Y-57292563D01*
X160737634Y-57293481D01*
X160737620Y-57293482D01*
X160735910Y-57293563D01*
X160734226Y-57293736D01*
X160734186Y-57293740D01*
X160708524Y-57296392D01*
X160631165Y-57320439D01*
X160575660Y-57350745D01*
X160569840Y-57353924D01*
X160568233Y-57354934D01*
X160548550Y-57367301D01*
X160487959Y-57435802D01*
X160486144Y-57439126D01*
X160454474Y-57497126D01*
X160453676Y-57498826D01*
X160453672Y-57498835D01*
X160443798Y-57519884D01*
X160429859Y-57610269D01*
X160434709Y-57678084D01*
X160434711Y-57678104D01*
X160434844Y-57679963D01*
X160435090Y-57681807D01*
X160435093Y-57681836D01*
X160438167Y-57704878D01*
X160449395Y-57730142D01*
X160458632Y-57799398D01*
X160428961Y-57862655D01*
X160369800Y-57899827D01*
X160336081Y-57904500D01*
X153827943Y-57904500D01*
X153760904Y-57884815D01*
X153715149Y-57832011D01*
X153705205Y-57762853D01*
X153715582Y-57728050D01*
X153726398Y-57704879D01*
X153744286Y-57666559D01*
X153753506Y-57643172D01*
X153761720Y-57552086D01*
X153752353Y-57482847D01*
X153751983Y-57480982D01*
X153751980Y-57480962D01*
X153747465Y-57458187D01*
X153705130Y-57377122D01*
X153705129Y-57377120D01*
X153659815Y-57323937D01*
X153642375Y-57305839D01*
X153642374Y-57305838D01*
X153642373Y-57305837D01*
X153562933Y-57260528D01*
X153496053Y-57240283D01*
X153438237Y-57231478D01*
X131130113Y-57045576D01*
X131130110Y-57045576D01*
X131126739Y-57045548D01*
X131123396Y-57045886D01*
X131123382Y-57045887D01*
X131085545Y-57049717D01*
X131085529Y-57049719D01*
X131082175Y-57050059D01*
X131078867Y-57050764D01*
X131078856Y-57050766D01*
X131029636Y-57061261D01*
X131027981Y-57061650D01*
X131018651Y-57063913D01*
X130937912Y-57106937D01*
X130886566Y-57151429D01*
X130886541Y-57151451D01*
X130885110Y-57152692D01*
X130883769Y-57154004D01*
X130883734Y-57154038D01*
X130867157Y-57170279D01*
X130822509Y-57250097D01*
X130802824Y-57317131D01*
X130794499Y-57375029D01*
X130794499Y-61200500D01*
X130794498Y-63159447D01*
X130774813Y-63226487D01*
X130722009Y-63272241D01*
X130652851Y-63282185D01*
X130595011Y-63257822D01*
X130552840Y-63225463D01*
X130406762Y-63164956D01*
X130250000Y-63144317D01*
X130093237Y-63164956D01*
X129947159Y-63225463D01*
X129821718Y-63321717D01*
X129780077Y-63375986D01*
X129723650Y-63417189D01*
X129681701Y-63424500D01*
X123318299Y-63424500D01*
X123251260Y-63404815D01*
X123219923Y-63375986D01*
X123178281Y-63321717D01*
X123052840Y-63225463D01*
X122906762Y-63164956D01*
X122750000Y-63144317D01*
X122593237Y-63164956D01*
X122447159Y-63225463D01*
X122321717Y-63321717D01*
X122225463Y-63447159D01*
X122164956Y-63593237D01*
X122144317Y-63750000D01*
X107410500Y-63750000D01*
X107410500Y-58250000D01*
X119644317Y-58250000D01*
X119664956Y-58406762D01*
X119725463Y-58552840D01*
X119821717Y-58678282D01*
X119947158Y-58774536D01*
X119947159Y-58774536D01*
X120093238Y-58835044D01*
X120250000Y-58855682D01*
X120406762Y-58835044D01*
X120552841Y-58774536D01*
X120678282Y-58678282D01*
X120774536Y-58552841D01*
X120835044Y-58406762D01*
X120855682Y-58250000D01*
X120846752Y-58182180D01*
X120857518Y-58113144D01*
X120882008Y-58078316D01*
X125598507Y-53361819D01*
X125659831Y-53328334D01*
X125686189Y-53325500D01*
X126474501Y-53325500D01*
X126541540Y-53345185D01*
X126587295Y-53397989D01*
X126598501Y-53449499D01*
X126598501Y-53787264D01*
X126598770Y-53790140D01*
X126598771Y-53790148D01*
X126601354Y-53817695D01*
X126601354Y-53817698D01*
X126646207Y-53945882D01*
X126680450Y-53992280D01*
X126726849Y-54055150D01*
X126773248Y-54089393D01*
X126836118Y-54135793D01*
X126964302Y-54180646D01*
X126994735Y-54183500D01*
X128103264Y-54183499D01*
X128133698Y-54180646D01*
X128261882Y-54135793D01*
X128371150Y-54055150D01*
X128451793Y-53945882D01*
X128496646Y-53817698D01*
X128499500Y-53787265D01*
X128499500Y-53723000D01*
X129397576Y-53723000D01*
X129471600Y-53876712D01*
X129603855Y-54058745D01*
X129766491Y-54214241D01*
X129799000Y-54235700D01*
X129799000Y-53723000D01*
X131299000Y-53723000D01*
X131299000Y-54233704D01*
X131416318Y-54140146D01*
X131564359Y-53970700D01*
X131679762Y-53777548D01*
X131700235Y-53723000D01*
X131299000Y-53723000D01*
X129799000Y-53723000D01*
X129397576Y-53723000D01*
X128499500Y-53723000D01*
X128499500Y-53046327D01*
X130039000Y-53046327D01*
X130080318Y-53187040D01*
X130159605Y-53310413D01*
X130270438Y-53406451D01*
X130403839Y-53467373D01*
X130512527Y-53483000D01*
X130585473Y-53483000D01*
X130694161Y-53467373D01*
X130827562Y-53406451D01*
X130938395Y-53310413D01*
X131017682Y-53187040D01*
X131059000Y-53046327D01*
X131059000Y-52899673D01*
X131017682Y-52758960D01*
X130938395Y-52635587D01*
X130827562Y-52539549D01*
X130694161Y-52478627D01*
X130585473Y-52463000D01*
X130512527Y-52463000D01*
X130403839Y-52478627D01*
X130270438Y-52539549D01*
X130159605Y-52635587D01*
X130080318Y-52758960D01*
X130039000Y-52899673D01*
X130039000Y-53046327D01*
X128499500Y-53046327D01*
X128499499Y-52223000D01*
X129397764Y-52223000D01*
X129798999Y-52223000D01*
X129798999Y-51712294D01*
X129681678Y-51805856D01*
X129533640Y-51975299D01*
X129418237Y-52168451D01*
X129397764Y-52223000D01*
X128499499Y-52223000D01*
X128499499Y-52158736D01*
X128496646Y-52128302D01*
X128451793Y-52000118D01*
X128405393Y-51937248D01*
X128371150Y-51890849D01*
X128288802Y-51830075D01*
X128261882Y-51810207D01*
X128133698Y-51765354D01*
X128133697Y-51765353D01*
X128133695Y-51765353D01*
X128106150Y-51762770D01*
X128106138Y-51762769D01*
X128103265Y-51762500D01*
X128100372Y-51762500D01*
X126997638Y-51762500D01*
X126997616Y-51762500D01*
X126994736Y-51762501D01*
X126991860Y-51762770D01*
X126991851Y-51762771D01*
X126964301Y-51765354D01*
X126836118Y-51810207D01*
X126726849Y-51890849D01*
X126646207Y-52000118D01*
X126601353Y-52128304D01*
X126598770Y-52155849D01*
X126598770Y-52155851D01*
X126598500Y-52158735D01*
X126598500Y-52161626D01*
X126598500Y-52161627D01*
X126598500Y-52550500D01*
X126578815Y-52617539D01*
X126526011Y-52663294D01*
X126474500Y-52674500D01*
X125519619Y-52674500D01*
X125508812Y-52674028D01*
X125506298Y-52673808D01*
X125471191Y-52670736D01*
X125434710Y-52680511D01*
X125424155Y-52682852D01*
X125412814Y-52684851D01*
X125386955Y-52689412D01*
X125386953Y-52689412D01*
X125385897Y-52689599D01*
X125361192Y-52699832D01*
X125329378Y-52722107D01*
X125320261Y-52727915D01*
X125287545Y-52746804D01*
X125263262Y-52775743D01*
X125255956Y-52783715D01*
X120421684Y-57617988D01*
X120360361Y-57651473D01*
X120317818Y-57653246D01*
X120250000Y-57644317D01*
X120093237Y-57664956D01*
X119947159Y-57725463D01*
X119821717Y-57821717D01*
X119725463Y-57947159D01*
X119664956Y-58093237D01*
X119644317Y-58250000D01*
X107410500Y-58250000D01*
X107410500Y-53007322D01*
X107410500Y-53004000D01*
X107405803Y-52960316D01*
X107394597Y-52908805D01*
X107394232Y-52907268D01*
X107392121Y-52898649D01*
X107392110Y-52898629D01*
X107392110Y-52898627D01*
X107367348Y-52852159D01*
X107349100Y-52817914D01*
X107304600Y-52766558D01*
X107304580Y-52766536D01*
X107303345Y-52765111D01*
X107285754Y-52747157D01*
X107205937Y-52702510D01*
X107205936Y-52702509D01*
X107205935Y-52702509D01*
X107138901Y-52682826D01*
X107138898Y-52682825D01*
X107081000Y-52674500D01*
X94629000Y-52674500D01*
X94625703Y-52674854D01*
X94625693Y-52674855D01*
X94588627Y-52678840D01*
X94588608Y-52678842D01*
X94585316Y-52679197D01*
X94582069Y-52679903D01*
X94582065Y-52679904D01*
X94533805Y-52690403D01*
X94532268Y-52690768D01*
X94523649Y-52692878D01*
X94442914Y-52735899D01*
X94391558Y-52780399D01*
X94391518Y-52780435D01*
X94390111Y-52781655D01*
X94372157Y-52799246D01*
X94372156Y-52799247D01*
X94327509Y-52879064D01*
X94307826Y-52946098D01*
X94307825Y-52946102D01*
X94299500Y-53004000D01*
X94299500Y-58110000D01*
X94299500Y-64944999D01*
X94299500Y-64945000D01*
X94299500Y-66279500D01*
X94299500Y-67556944D01*
X94299500Y-68690500D01*
X94299500Y-70025000D01*
X94299500Y-82175000D01*
X94299500Y-90344500D01*
X94299500Y-91621944D01*
X94299500Y-92755500D01*
X94299500Y-97841000D01*
X88100500Y-97841000D01*
X88100500Y-51106491D01*
X123659500Y-51106491D01*
X123698373Y-51289382D01*
X123774427Y-51460202D01*
X123884329Y-51611469D01*
X124023284Y-51736585D01*
X124185214Y-51830075D01*
X124270803Y-51857884D01*
X124363044Y-51887855D01*
X124502380Y-51902500D01*
X124505622Y-51902500D01*
X124592378Y-51902500D01*
X124595620Y-51902500D01*
X124734956Y-51887855D01*
X124912785Y-51830075D01*
X125074715Y-51736585D01*
X125103910Y-51710298D01*
X131299000Y-51710298D01*
X131299000Y-52223000D01*
X131700423Y-52223000D01*
X131700423Y-52222999D01*
X131626399Y-52069287D01*
X131494144Y-51887254D01*
X131331508Y-51731758D01*
X131299000Y-51710298D01*
X125103910Y-51710298D01*
X125213669Y-51611470D01*
X125323573Y-51460200D01*
X125399625Y-51289385D01*
X125438500Y-51106491D01*
X132659500Y-51106491D01*
X132698373Y-51289382D01*
X132774427Y-51460202D01*
X132884329Y-51611469D01*
X133023284Y-51736585D01*
X133185214Y-51830075D01*
X133270803Y-51857884D01*
X133363044Y-51887855D01*
X133502380Y-51902500D01*
X133505622Y-51902500D01*
X133592378Y-51902500D01*
X133595620Y-51902500D01*
X133734956Y-51887855D01*
X133912785Y-51830075D01*
X134074715Y-51736585D01*
X134213669Y-51611470D01*
X134323573Y-51460200D01*
X134399625Y-51289385D01*
X134438500Y-51106490D01*
X134438500Y-50919510D01*
X134438500Y-50919508D01*
X134399626Y-50736617D01*
X134323572Y-50565797D01*
X134213670Y-50414530D01*
X134074715Y-50289414D01*
X133912785Y-50195924D01*
X133734957Y-50138145D01*
X133598840Y-50123838D01*
X133598831Y-50123837D01*
X133595620Y-50123500D01*
X133502380Y-50123500D01*
X133499169Y-50123837D01*
X133499159Y-50123838D01*
X133363042Y-50138145D01*
X133185214Y-50195924D01*
X133023284Y-50289414D01*
X132884329Y-50414530D01*
X132774427Y-50565797D01*
X132698373Y-50736617D01*
X132659500Y-50919508D01*
X132659500Y-51106491D01*
X125438500Y-51106491D01*
X125438500Y-51106490D01*
X125438500Y-50919510D01*
X125438500Y-50919508D01*
X125399626Y-50736617D01*
X125323572Y-50565797D01*
X125213670Y-50414530D01*
X125074715Y-50289414D01*
X124912785Y-50195924D01*
X124734957Y-50138145D01*
X124598840Y-50123838D01*
X124598831Y-50123837D01*
X124595620Y-50123500D01*
X124502380Y-50123500D01*
X124499169Y-50123837D01*
X124499159Y-50123838D01*
X124363042Y-50138145D01*
X124185214Y-50195924D01*
X124023284Y-50289414D01*
X123884329Y-50414530D01*
X123774427Y-50565797D01*
X123698373Y-50736617D01*
X123659500Y-50919508D01*
X123659500Y-51106491D01*
X88100500Y-51106491D01*
X88100500Y-48131482D01*
X91245500Y-48131482D01*
X91284691Y-48391507D01*
X91362202Y-48642787D01*
X91476296Y-48879707D01*
X91476297Y-48879709D01*
X91476298Y-48879710D01*
X91624430Y-49096980D01*
X91803290Y-49289746D01*
X92008883Y-49453701D01*
X92236616Y-49585183D01*
X92481402Y-49681254D01*
X92737772Y-49739769D01*
X92934346Y-49754500D01*
X92936663Y-49754500D01*
X93063337Y-49754500D01*
X93065654Y-49754500D01*
X93262228Y-49739769D01*
X93518598Y-49681254D01*
X93763384Y-49585183D01*
X93991117Y-49453701D01*
X94196710Y-49289746D01*
X94375570Y-49096980D01*
X94523702Y-48879710D01*
X94637798Y-48642788D01*
X94715308Y-48391508D01*
X94754500Y-48131482D01*
X163245500Y-48131482D01*
X163284691Y-48391507D01*
X163362202Y-48642787D01*
X163476296Y-48879707D01*
X163476297Y-48879709D01*
X163476298Y-48879710D01*
X163624430Y-49096980D01*
X163803290Y-49289746D01*
X164008883Y-49453701D01*
X164236616Y-49585183D01*
X164481402Y-49681254D01*
X164737772Y-49739769D01*
X164934346Y-49754500D01*
X164936663Y-49754500D01*
X165063337Y-49754500D01*
X165065654Y-49754500D01*
X165262228Y-49739769D01*
X165518598Y-49681254D01*
X165763384Y-49585183D01*
X165991117Y-49453701D01*
X166196710Y-49289746D01*
X166375570Y-49096980D01*
X166523702Y-48879710D01*
X166637798Y-48642788D01*
X166715308Y-48391508D01*
X166754500Y-48131482D01*
X166754500Y-47868518D01*
X166715308Y-47608492D01*
X166637798Y-47357212D01*
X166523702Y-47120290D01*
X166375570Y-46903020D01*
X166196710Y-46710254D01*
X165991117Y-46546299D01*
X165991116Y-46546298D01*
X165763382Y-46414816D01*
X165518600Y-46318746D01*
X165262225Y-46260230D01*
X165067968Y-46245673D01*
X165067957Y-46245672D01*
X165065654Y-46245500D01*
X164934346Y-46245500D01*
X164932043Y-46245672D01*
X164932031Y-46245673D01*
X164737774Y-46260230D01*
X164481399Y-46318746D01*
X164236617Y-46414816D01*
X164008883Y-46546298D01*
X163803290Y-46710253D01*
X163624431Y-46903018D01*
X163476296Y-47120292D01*
X163362202Y-47357212D01*
X163284691Y-47608492D01*
X163245500Y-47868517D01*
X163245500Y-48131482D01*
X94754500Y-48131482D01*
X94754500Y-47868518D01*
X94715308Y-47608492D01*
X94637798Y-47357212D01*
X94523702Y-47120290D01*
X94375570Y-46903020D01*
X94196710Y-46710254D01*
X93991117Y-46546299D01*
X93991116Y-46546298D01*
X93763382Y-46414816D01*
X93518600Y-46318746D01*
X93262225Y-46260230D01*
X93067968Y-46245673D01*
X93067957Y-46245672D01*
X93065654Y-46245500D01*
X92934346Y-46245500D01*
X92932043Y-46245672D01*
X92932031Y-46245673D01*
X92737774Y-46260230D01*
X92481399Y-46318746D01*
X92236617Y-46414816D01*
X92008883Y-46546298D01*
X91803290Y-46710253D01*
X91624431Y-46903018D01*
X91476296Y-47120292D01*
X91362202Y-47357212D01*
X91284691Y-47608492D01*
X91245500Y-47868517D01*
X91245500Y-48131482D01*
X88100500Y-48131482D01*
X88100500Y-48002705D01*
X88100618Y-47997296D01*
X88101195Y-47984083D01*
X88118908Y-47578363D01*
X88119848Y-47567631D01*
X88174229Y-47154565D01*
X88176101Y-47143946D01*
X88266279Y-46737177D01*
X88269066Y-46726777D01*
X88394355Y-46329410D01*
X88398039Y-46319289D01*
X88557480Y-45934365D01*
X88562038Y-45924591D01*
X88754412Y-45555045D01*
X88759807Y-45545700D01*
X88983665Y-45194313D01*
X88989855Y-45185473D01*
X89243478Y-44854945D01*
X89250416Y-44846676D01*
X89531883Y-44539509D01*
X89539509Y-44531883D01*
X89846676Y-44250416D01*
X89854945Y-44243478D01*
X90185473Y-43989855D01*
X90194313Y-43983665D01*
X90545700Y-43759807D01*
X90555045Y-43754412D01*
X90924591Y-43562038D01*
X90934365Y-43557480D01*
X91319289Y-43398039D01*
X91329410Y-43394355D01*
X91726777Y-43269066D01*
X91737177Y-43266279D01*
X92143946Y-43176101D01*
X92154565Y-43174229D01*
X92567631Y-43119848D01*
X92578365Y-43118908D01*
X92984694Y-43101168D01*
X92997298Y-43100618D01*
X93002706Y-43100500D01*
X93026929Y-43100500D01*
X164973071Y-43100500D01*
X164997294Y-43100500D01*
X165002702Y-43100617D01*
G37*
G04 #@! TD.AperFunction*
G04 #@! TA.AperFunction,Conductor*
G36*
X121753039Y-64964685D02*
G01*
X121798794Y-65017489D01*
X121810000Y-65068999D01*
X121810000Y-68452991D01*
X121810000Y-69901000D01*
X121790315Y-69968039D01*
X121737511Y-70013794D01*
X121686000Y-70025000D01*
X94505000Y-70025000D01*
X94505000Y-68485000D01*
X97365000Y-68485000D01*
X97365000Y-69419518D01*
X97365354Y-69426132D01*
X97371400Y-69482371D01*
X97421647Y-69617089D01*
X97507811Y-69732188D01*
X97622910Y-69818352D01*
X97757628Y-69868599D01*
X97813867Y-69874645D01*
X97820482Y-69875000D01*
X98580000Y-69875000D01*
X98580000Y-68485000D01*
X100580000Y-68485000D01*
X100580000Y-69875000D01*
X101760000Y-69875000D01*
X101760000Y-68485000D01*
X103760000Y-68485000D01*
X103760000Y-69875000D01*
X104519518Y-69875000D01*
X104526132Y-69874645D01*
X104582371Y-69868599D01*
X104717089Y-69818352D01*
X104832188Y-69732188D01*
X104918352Y-69617089D01*
X104968599Y-69482371D01*
X104974645Y-69426132D01*
X104975000Y-69419518D01*
X104975000Y-69022561D01*
X120416649Y-69022561D01*
X120539999Y-69032269D01*
X120663348Y-69022561D01*
X120663349Y-69022561D01*
X120536531Y-68895743D01*
X120523350Y-68904550D01*
X120520315Y-68914888D01*
X120503681Y-68935530D01*
X120416649Y-69022561D01*
X104975000Y-69022561D01*
X104975000Y-68485000D01*
X103760000Y-68485000D01*
X101760000Y-68485000D01*
X100580000Y-68485000D01*
X98580000Y-68485000D01*
X97365000Y-68485000D01*
X94505000Y-68485000D01*
X94505000Y-67578543D01*
X98690000Y-67578543D01*
X98728898Y-67761540D01*
X98804992Y-67932451D01*
X98914958Y-68083806D01*
X99053990Y-68208991D01*
X99216011Y-68302534D01*
X99393939Y-68360346D01*
X99533361Y-68375000D01*
X99626639Y-68375000D01*
X99766061Y-68360346D01*
X99943989Y-68302534D01*
X100106010Y-68208991D01*
X100245042Y-68083806D01*
X100355008Y-67932451D01*
X100431102Y-67761540D01*
X100470000Y-67578543D01*
X101870000Y-67578543D01*
X101908898Y-67761540D01*
X101984992Y-67932451D01*
X102094958Y-68083806D01*
X102233990Y-68208991D01*
X102396011Y-68302534D01*
X102573939Y-68360346D01*
X102713361Y-68375000D01*
X102806639Y-68375000D01*
X102946061Y-68360346D01*
X103123989Y-68302534D01*
X103286010Y-68208991D01*
X103425042Y-68083806D01*
X103535008Y-67932451D01*
X103611102Y-67761540D01*
X103650000Y-67578543D01*
X103650000Y-67484999D01*
X118992730Y-67484999D01*
X119002437Y-67608349D01*
X119041398Y-67569388D01*
X119845000Y-67569388D01*
X119885390Y-67733261D01*
X119963825Y-67882705D01*
X120075745Y-68009036D01*
X120214645Y-68104912D01*
X120372454Y-68164761D01*
X120497957Y-68180000D01*
X120582043Y-68180000D01*
X120707546Y-68164761D01*
X120865355Y-68104912D01*
X121004255Y-68009036D01*
X121116175Y-67882705D01*
X121194610Y-67733261D01*
X121235000Y-67569388D01*
X121235000Y-67400612D01*
X121194610Y-67236739D01*
X121116175Y-67087295D01*
X121004255Y-66960964D01*
X120865355Y-66865088D01*
X120707546Y-66805239D01*
X120582043Y-66790000D01*
X120497957Y-66790000D01*
X120372454Y-66805239D01*
X120214645Y-66865088D01*
X120075745Y-66960964D01*
X119963825Y-67087295D01*
X119885390Y-67236739D01*
X119845000Y-67400612D01*
X119845000Y-67569388D01*
X119041398Y-67569388D01*
X119125785Y-67485000D01*
X119125786Y-67484999D01*
X119125785Y-67484998D01*
X119002437Y-67361649D01*
X118992730Y-67484999D01*
X103650000Y-67484999D01*
X103650000Y-67391457D01*
X103611102Y-67208460D01*
X103535008Y-67037549D01*
X103425042Y-66886194D01*
X103286010Y-66761009D01*
X103123989Y-66667466D01*
X102946061Y-66609654D01*
X102806639Y-66595000D01*
X102713361Y-66595000D01*
X102573939Y-66609654D01*
X102396011Y-66667466D01*
X102233990Y-66761009D01*
X102094958Y-66886194D01*
X101984992Y-67037549D01*
X101908898Y-67208460D01*
X101870000Y-67391457D01*
X101870000Y-67578543D01*
X100470000Y-67578543D01*
X100470000Y-67391457D01*
X100431102Y-67208460D01*
X100355008Y-67037549D01*
X100245042Y-66886194D01*
X100106010Y-66761009D01*
X99943989Y-66667466D01*
X99766061Y-66609654D01*
X99626639Y-66595000D01*
X99533361Y-66595000D01*
X99393939Y-66609654D01*
X99216011Y-66667466D01*
X99053990Y-66761009D01*
X98914958Y-66886194D01*
X98804992Y-67037549D01*
X98728898Y-67208460D01*
X98690000Y-67391457D01*
X98690000Y-67578543D01*
X94505000Y-67578543D01*
X94505000Y-66485000D01*
X97365000Y-66485000D01*
X98580000Y-66485000D01*
X98580000Y-65095000D01*
X100580000Y-65095000D01*
X100580000Y-66485000D01*
X101760000Y-66485000D01*
X101760000Y-65095000D01*
X103760000Y-65095000D01*
X103760000Y-66485000D01*
X104975000Y-66485000D01*
X104975000Y-65947437D01*
X120416649Y-65947437D01*
X120539998Y-66070785D01*
X120539999Y-66070786D01*
X120540000Y-66070786D01*
X120540000Y-66070785D01*
X120663349Y-65947437D01*
X120539999Y-65937730D01*
X120416649Y-65947437D01*
X104975000Y-65947437D01*
X104975000Y-65550481D01*
X104974645Y-65543867D01*
X104968599Y-65487628D01*
X104918352Y-65352910D01*
X104832188Y-65237811D01*
X104717089Y-65151647D01*
X104582371Y-65101400D01*
X104526132Y-65095354D01*
X104519518Y-65095000D01*
X103760000Y-65095000D01*
X101760000Y-65095000D01*
X100580000Y-65095000D01*
X98580000Y-65095000D01*
X97820482Y-65095000D01*
X97813867Y-65095354D01*
X97757628Y-65101400D01*
X97622910Y-65151647D01*
X97507811Y-65237811D01*
X97421647Y-65352910D01*
X97371400Y-65487628D01*
X97365354Y-65543867D01*
X97365000Y-65550481D01*
X97365000Y-66485000D01*
X94505000Y-66485000D01*
X94505000Y-64945000D01*
X107205000Y-64945000D01*
X121686000Y-64945000D01*
X121753039Y-64964685D01*
G37*
G04 #@! TD.AperFunction*
G04 #@! TA.AperFunction,Conductor*
G36*
X107205000Y-97841000D02*
G01*
X107185315Y-97908039D01*
X107132511Y-97953794D01*
X107081000Y-97965000D01*
X94629000Y-97965000D01*
X94561961Y-97945315D01*
X94516206Y-97892511D01*
X94505000Y-97841000D01*
X94505000Y-92550000D01*
X97365000Y-92550000D01*
X97365000Y-93484518D01*
X97365354Y-93491132D01*
X97371400Y-93547371D01*
X97421647Y-93682089D01*
X97507811Y-93797188D01*
X97622910Y-93883352D01*
X97757628Y-93933599D01*
X97813867Y-93939645D01*
X97820482Y-93940000D01*
X98580000Y-93940000D01*
X98580000Y-92550000D01*
X100580000Y-92550000D01*
X100580000Y-93940000D01*
X101760000Y-93940000D01*
X101760000Y-92550000D01*
X103760000Y-92550000D01*
X103760000Y-93940000D01*
X104519518Y-93940000D01*
X104526132Y-93939645D01*
X104582371Y-93933599D01*
X104717089Y-93883352D01*
X104832188Y-93797188D01*
X104918352Y-93682089D01*
X104968599Y-93547371D01*
X104974645Y-93491132D01*
X104975000Y-93484518D01*
X104975000Y-92550000D01*
X103760000Y-92550000D01*
X101760000Y-92550000D01*
X100580000Y-92550000D01*
X98580000Y-92550000D01*
X97365000Y-92550000D01*
X94505000Y-92550000D01*
X94505000Y-91643543D01*
X98690000Y-91643543D01*
X98728898Y-91826540D01*
X98804992Y-91997451D01*
X98914958Y-92148806D01*
X99053990Y-92273991D01*
X99216011Y-92367534D01*
X99393939Y-92425346D01*
X99533361Y-92440000D01*
X99626639Y-92440000D01*
X99766061Y-92425346D01*
X99943989Y-92367534D01*
X100106010Y-92273991D01*
X100245042Y-92148806D01*
X100355008Y-91997451D01*
X100431102Y-91826540D01*
X100470000Y-91643543D01*
X101870000Y-91643543D01*
X101908898Y-91826540D01*
X101984992Y-91997451D01*
X102094958Y-92148806D01*
X102233990Y-92273991D01*
X102396011Y-92367534D01*
X102573939Y-92425346D01*
X102713361Y-92440000D01*
X102806639Y-92440000D01*
X102946061Y-92425346D01*
X103123989Y-92367534D01*
X103286010Y-92273991D01*
X103425042Y-92148806D01*
X103535008Y-91997451D01*
X103611102Y-91826540D01*
X103650000Y-91643543D01*
X103650000Y-91456457D01*
X103611102Y-91273460D01*
X103535008Y-91102549D01*
X103425042Y-90951194D01*
X103286010Y-90826009D01*
X103123989Y-90732466D01*
X102946061Y-90674654D01*
X102806639Y-90660000D01*
X102713361Y-90660000D01*
X102573939Y-90674654D01*
X102396011Y-90732466D01*
X102233990Y-90826009D01*
X102094958Y-90951194D01*
X101984992Y-91102549D01*
X101908898Y-91273460D01*
X101870000Y-91456457D01*
X101870000Y-91643543D01*
X100470000Y-91643543D01*
X100470000Y-91456457D01*
X100431102Y-91273460D01*
X100355008Y-91102549D01*
X100245042Y-90951194D01*
X100106010Y-90826009D01*
X99943989Y-90732466D01*
X99766061Y-90674654D01*
X99626639Y-90660000D01*
X99533361Y-90660000D01*
X99393939Y-90674654D01*
X99216011Y-90732466D01*
X99053990Y-90826009D01*
X98914958Y-90951194D01*
X98804992Y-91102549D01*
X98728898Y-91273460D01*
X98690000Y-91456457D01*
X98690000Y-91643543D01*
X94505000Y-91643543D01*
X94505000Y-90550000D01*
X97365000Y-90550000D01*
X98580000Y-90550000D01*
X98580000Y-89160000D01*
X100580000Y-89160000D01*
X100580000Y-90550000D01*
X101760000Y-90550000D01*
X101760000Y-89160000D01*
X103760000Y-89160000D01*
X103760000Y-90550000D01*
X104975000Y-90550000D01*
X104975000Y-89615481D01*
X104974645Y-89608867D01*
X104968599Y-89552628D01*
X104918352Y-89417910D01*
X104832188Y-89302811D01*
X104717089Y-89216647D01*
X104582371Y-89166400D01*
X104526132Y-89160354D01*
X104519518Y-89160000D01*
X103760000Y-89160000D01*
X101760000Y-89160000D01*
X100580000Y-89160000D01*
X98580000Y-89160000D01*
X97820482Y-89160000D01*
X97813867Y-89160354D01*
X97757628Y-89166400D01*
X97622910Y-89216647D01*
X97507811Y-89302811D01*
X97421647Y-89417910D01*
X97371400Y-89552628D01*
X97365354Y-89608867D01*
X97365000Y-89615481D01*
X97365000Y-90550000D01*
X94505000Y-90550000D01*
X94505000Y-85969748D01*
X97664500Y-85969748D01*
X97676132Y-86028230D01*
X97720447Y-86094552D01*
X97786769Y-86138867D01*
X97845251Y-86150500D01*
X97845252Y-86150500D01*
X104494749Y-86150500D01*
X104523989Y-86144683D01*
X104553231Y-86138867D01*
X104619552Y-86094552D01*
X104663867Y-86028231D01*
X104675500Y-85969748D01*
X104675500Y-82150252D01*
X104663867Y-82091769D01*
X104619552Y-82025447D01*
X104553230Y-81981132D01*
X104494749Y-81969500D01*
X104494748Y-81969500D01*
X101314748Y-81969500D01*
X97845252Y-81969500D01*
X97845251Y-81969500D01*
X97786769Y-81981132D01*
X97720447Y-82025447D01*
X97676132Y-82091769D01*
X97664500Y-82150251D01*
X97664500Y-85969748D01*
X94505000Y-85969748D01*
X94505000Y-70025000D01*
X107205000Y-70025000D01*
X107205000Y-97841000D01*
G37*
G04 #@! TD.AperFunction*
G04 #@! TA.AperFunction,Conductor*
G36*
X107148039Y-52899685D02*
G01*
X107193794Y-52952489D01*
X107205000Y-53004000D01*
X107204999Y-64944999D01*
X107205000Y-64945000D01*
X94505000Y-64945000D01*
X94505000Y-61904748D01*
X97664500Y-61904748D01*
X97676132Y-61963230D01*
X97720447Y-62029552D01*
X97786769Y-62073867D01*
X97845251Y-62085500D01*
X97845252Y-62085500D01*
X104494749Y-62085500D01*
X104523989Y-62079683D01*
X104553231Y-62073867D01*
X104619552Y-62029552D01*
X104663867Y-61963231D01*
X104675500Y-61904748D01*
X104675500Y-58085252D01*
X104663867Y-58026769D01*
X104663867Y-58026768D01*
X104619552Y-57960447D01*
X104553230Y-57916132D01*
X104494749Y-57904500D01*
X104494748Y-57904500D01*
X101314748Y-57904500D01*
X97845252Y-57904500D01*
X97845251Y-57904500D01*
X97786769Y-57916132D01*
X97720447Y-57960447D01*
X97676132Y-58026769D01*
X97664500Y-58085251D01*
X97664500Y-61904748D01*
X94505000Y-61904748D01*
X94505000Y-53004000D01*
X94524685Y-52936961D01*
X94577489Y-52891206D01*
X94629000Y-52880000D01*
X107081000Y-52880000D01*
X107148039Y-52899685D01*
G37*
G04 #@! TD.AperFunction*
G04 #@! TA.AperFunction,Conductor*
G36*
X121753039Y-71314685D02*
G01*
X121798794Y-71367489D01*
X121810000Y-71419000D01*
X121810000Y-72232190D01*
X121790315Y-72299229D01*
X121773681Y-72319871D01*
X121176437Y-72917114D01*
X121116175Y-72802295D01*
X121004255Y-72675964D01*
X120865355Y-72580088D01*
X120822580Y-72563865D01*
X121442488Y-71943958D01*
X121242447Y-71821372D01*
X121018133Y-71728458D01*
X120782047Y-71671779D01*
X120540000Y-71652730D01*
X120297952Y-71671779D01*
X120061866Y-71728458D01*
X119837552Y-71821372D01*
X119637510Y-71943958D01*
X120257417Y-72563866D01*
X120214645Y-72580088D01*
X120075745Y-72675964D01*
X119963825Y-72802295D01*
X119903562Y-72917114D01*
X119283958Y-72297510D01*
X119161372Y-72497552D01*
X119068458Y-72721866D01*
X119011779Y-72957952D01*
X118992730Y-73200000D01*
X119011779Y-73442047D01*
X119068458Y-73678133D01*
X119161372Y-73902447D01*
X119283958Y-74102488D01*
X119903561Y-73482884D01*
X119963825Y-73597705D01*
X120075745Y-73724036D01*
X120214645Y-73819912D01*
X120257418Y-73836133D01*
X119637510Y-74456040D01*
X119837552Y-74578626D01*
X120061866Y-74671541D01*
X120297952Y-74728220D01*
X120539999Y-74747269D01*
X120782047Y-74728220D01*
X121018133Y-74671541D01*
X121242447Y-74578626D01*
X121442488Y-74456040D01*
X120822581Y-73836133D01*
X120865355Y-73819912D01*
X121004255Y-73724036D01*
X121116175Y-73597705D01*
X121176437Y-73482885D01*
X121773681Y-74080128D01*
X121807166Y-74141451D01*
X121810000Y-74167808D01*
X121810000Y-76375000D01*
X129430000Y-76375000D01*
X129430000Y-71419000D01*
X129449685Y-71351961D01*
X129502489Y-71306206D01*
X129554000Y-71295000D01*
X133751000Y-71295000D01*
X133818039Y-71314685D01*
X133863794Y-71367489D01*
X133875000Y-71419000D01*
X133874999Y-72232190D01*
X133855314Y-72299230D01*
X133838680Y-72319871D01*
X133241437Y-72917114D01*
X133181175Y-72802295D01*
X133069255Y-72675964D01*
X132930355Y-72580088D01*
X132887581Y-72563866D01*
X133507488Y-71943958D01*
X133307447Y-71821372D01*
X133083133Y-71728458D01*
X132847047Y-71671779D01*
X132605000Y-71652730D01*
X132362952Y-71671779D01*
X132126866Y-71728458D01*
X131902552Y-71821372D01*
X131702510Y-71943958D01*
X132322418Y-72563866D01*
X132279645Y-72580088D01*
X132140745Y-72675964D01*
X132028825Y-72802295D01*
X131968562Y-72917114D01*
X131348958Y-72297510D01*
X131226372Y-72497552D01*
X131133458Y-72721866D01*
X131076779Y-72957952D01*
X131057730Y-73200000D01*
X131076779Y-73442047D01*
X131133458Y-73678133D01*
X131226372Y-73902447D01*
X131348958Y-74102488D01*
X131968562Y-73482884D01*
X132028825Y-73597705D01*
X132140745Y-73724036D01*
X132279645Y-73819912D01*
X132322418Y-73836133D01*
X131702510Y-74456040D01*
X131902552Y-74578626D01*
X132126866Y-74671541D01*
X132362952Y-74728220D01*
X132604999Y-74747269D01*
X132847047Y-74728220D01*
X133083133Y-74671541D01*
X133307447Y-74578626D01*
X133507488Y-74456040D01*
X132887581Y-73836133D01*
X132930355Y-73819912D01*
X133069255Y-73724036D01*
X133181175Y-73597705D01*
X133241437Y-73482885D01*
X133838680Y-74080128D01*
X133872165Y-74141451D01*
X133874999Y-74167809D01*
X133875000Y-78791000D01*
X133855315Y-78858039D01*
X133802511Y-78903794D01*
X133751000Y-78915000D01*
X128160000Y-78915000D01*
X128160000Y-86411000D01*
X128140315Y-86478039D01*
X128087511Y-86523794D01*
X128036000Y-86535000D01*
X125530750Y-86535000D01*
X125463711Y-86515315D01*
X125417956Y-86462511D01*
X125408012Y-86393353D01*
X125437037Y-86329797D01*
X125471324Y-86302168D01*
X125614421Y-86224031D01*
X125737980Y-86131534D01*
X125737980Y-86131533D01*
X125017381Y-85410934D01*
X125116010Y-85353991D01*
X125255042Y-85228806D01*
X125365008Y-85077451D01*
X125373016Y-85059463D01*
X126091533Y-85777980D01*
X126091534Y-85777980D01*
X126184029Y-85654423D01*
X126313593Y-85417143D01*
X126408075Y-85163830D01*
X126465540Y-84899663D01*
X126484828Y-84630000D01*
X126465540Y-84360336D01*
X126408075Y-84096169D01*
X126313593Y-83842856D01*
X126184029Y-83605576D01*
X126091534Y-83482019D01*
X126091533Y-83482018D01*
X125373016Y-84200535D01*
X125365008Y-84182549D01*
X125255042Y-84031194D01*
X125116010Y-83906009D01*
X125017380Y-83849065D01*
X125737980Y-83128465D01*
X125607321Y-83030654D01*
X125609102Y-83028274D01*
X125570250Y-82989409D01*
X125555408Y-82921134D01*
X125579835Y-82855673D01*
X125608467Y-82830878D01*
X125607321Y-82829347D01*
X125737980Y-82731534D01*
X125737980Y-82731533D01*
X125017381Y-82010934D01*
X125116010Y-81953991D01*
X125255042Y-81828806D01*
X125365008Y-81677451D01*
X125373016Y-81659463D01*
X126091533Y-82377980D01*
X126091534Y-82377980D01*
X126184029Y-82254423D01*
X126313593Y-82017143D01*
X126408075Y-81763830D01*
X126465540Y-81499663D01*
X126484828Y-81230000D01*
X126465540Y-80960336D01*
X126408075Y-80696169D01*
X126313593Y-80442856D01*
X126184029Y-80205576D01*
X126091534Y-80082019D01*
X126091533Y-80082018D01*
X125373016Y-80800535D01*
X125365008Y-80782549D01*
X125255042Y-80631194D01*
X125116010Y-80506009D01*
X125017380Y-80449065D01*
X125737980Y-79728465D01*
X125614418Y-79635967D01*
X125377143Y-79506406D01*
X125123830Y-79411924D01*
X124859663Y-79354459D01*
X124590000Y-79335171D01*
X124320336Y-79354459D01*
X124056169Y-79411924D01*
X123802856Y-79506406D01*
X123565580Y-79635967D01*
X123442018Y-79728465D01*
X124162619Y-80449065D01*
X124063990Y-80506009D01*
X123924958Y-80631194D01*
X123814992Y-80782549D01*
X123806983Y-80800536D01*
X123088465Y-80082018D01*
X122995967Y-80205580D01*
X122866406Y-80442856D01*
X122771924Y-80696169D01*
X122714459Y-80960336D01*
X122695171Y-81230000D01*
X122714459Y-81499663D01*
X122771924Y-81763830D01*
X122866406Y-82017143D01*
X122995967Y-82254418D01*
X123088465Y-82377980D01*
X123806983Y-81659462D01*
X123814992Y-81677451D01*
X123924958Y-81828806D01*
X124063990Y-81953991D01*
X124162618Y-82010934D01*
X123442018Y-82731533D01*
X123442019Y-82731534D01*
X123572679Y-82829347D01*
X123570896Y-82831728D01*
X123609741Y-82870575D01*
X123624592Y-82938848D01*
X123600174Y-83004312D01*
X123571535Y-83029127D01*
X123572679Y-83030654D01*
X123442018Y-83128465D01*
X124162619Y-83849065D01*
X124063990Y-83906009D01*
X123924958Y-84031194D01*
X123814992Y-84182549D01*
X123806983Y-84200536D01*
X123088465Y-83482018D01*
X122995967Y-83605580D01*
X122866406Y-83842856D01*
X122771924Y-84096169D01*
X122714459Y-84360336D01*
X122695171Y-84630000D01*
X122714459Y-84899663D01*
X122771924Y-85163830D01*
X122866406Y-85417143D01*
X122995967Y-85654418D01*
X123088465Y-85777980D01*
X123806983Y-85059462D01*
X123814992Y-85077451D01*
X123924958Y-85228806D01*
X124063990Y-85353991D01*
X124162618Y-85410934D01*
X123442018Y-86131533D01*
X123442019Y-86131534D01*
X123565578Y-86224031D01*
X123708676Y-86302168D01*
X123758082Y-86351573D01*
X123772934Y-86419846D01*
X123748517Y-86485310D01*
X123692584Y-86527182D01*
X123649250Y-86535000D01*
X121299000Y-86535000D01*
X121231961Y-86515315D01*
X121186206Y-86462511D01*
X121175000Y-86411000D01*
X121175000Y-78915000D01*
X117489000Y-78915000D01*
X117421961Y-78895315D01*
X117376206Y-78842511D01*
X117365000Y-78791000D01*
X117365000Y-71419000D01*
X117384685Y-71351961D01*
X117437489Y-71306206D01*
X117489000Y-71295000D01*
X121686000Y-71295000D01*
X121753039Y-71314685D01*
G37*
G04 #@! TD.AperFunction*
G04 #@! TA.AperFunction,Conductor*
G36*
X161758039Y-78934685D02*
G01*
X161803794Y-78987489D01*
X161815000Y-79039000D01*
X161815000Y-87046000D01*
X161795315Y-87113039D01*
X161742511Y-87158794D01*
X161691000Y-87170000D01*
X131459000Y-87170000D01*
X131391961Y-87150315D01*
X131346206Y-87097511D01*
X131335000Y-87046000D01*
X131335000Y-86471295D01*
X134082916Y-86471295D01*
X134240336Y-86505540D01*
X134509999Y-86524828D01*
X134779663Y-86505540D01*
X134937081Y-86471296D01*
X134937082Y-86471295D01*
X134510001Y-86044214D01*
X134510000Y-86044214D01*
X134082916Y-86471295D01*
X131335000Y-86471295D01*
X131335000Y-84630000D01*
X132615171Y-84630000D01*
X132634459Y-84899665D01*
X132668702Y-85057081D01*
X132668703Y-85057082D01*
X133002243Y-84723543D01*
X133620000Y-84723543D01*
X133658898Y-84906540D01*
X133734992Y-85077451D01*
X133844958Y-85228806D01*
X133983990Y-85353991D01*
X134146011Y-85447534D01*
X134323939Y-85505346D01*
X134463361Y-85520000D01*
X134556639Y-85520000D01*
X134696061Y-85505346D01*
X134873989Y-85447534D01*
X135036010Y-85353991D01*
X135175042Y-85228806D01*
X135285008Y-85077451D01*
X135292778Y-85060000D01*
X153250000Y-85060000D01*
X153250000Y-85994518D01*
X153250354Y-86001132D01*
X153256400Y-86057371D01*
X153306647Y-86192089D01*
X153392811Y-86307188D01*
X153507910Y-86393352D01*
X153642628Y-86443599D01*
X153698867Y-86449645D01*
X153705482Y-86450000D01*
X154465000Y-86450000D01*
X154465000Y-85060000D01*
X156465000Y-85060000D01*
X156465000Y-86450000D01*
X157645000Y-86450000D01*
X157645000Y-85060000D01*
X159645000Y-85060000D01*
X159645000Y-86450000D01*
X160404518Y-86450000D01*
X160411132Y-86449645D01*
X160467371Y-86443599D01*
X160602089Y-86393352D01*
X160717188Y-86307188D01*
X160803352Y-86192089D01*
X160853599Y-86057371D01*
X160859645Y-86001132D01*
X160860000Y-85994518D01*
X160860000Y-85060000D01*
X159645000Y-85060000D01*
X157645000Y-85060000D01*
X156465000Y-85060000D01*
X154465000Y-85060000D01*
X153250000Y-85060000D01*
X135292778Y-85060000D01*
X135361102Y-84906540D01*
X135400000Y-84723543D01*
X135400000Y-84630001D01*
X135924214Y-84630001D01*
X136351295Y-85057082D01*
X136351296Y-85057081D01*
X136385540Y-84899663D01*
X136404828Y-84630000D01*
X136385540Y-84360336D01*
X136351295Y-84202917D01*
X136351295Y-84202916D01*
X135924214Y-84629999D01*
X135924214Y-84630001D01*
X135400000Y-84630001D01*
X135400000Y-84536457D01*
X135361102Y-84353460D01*
X135285008Y-84182549D01*
X135263934Y-84153543D01*
X154575000Y-84153543D01*
X154613898Y-84336540D01*
X154689992Y-84507451D01*
X154799958Y-84658806D01*
X154938990Y-84783991D01*
X155101011Y-84877534D01*
X155278939Y-84935346D01*
X155418361Y-84950000D01*
X155511639Y-84950000D01*
X155651061Y-84935346D01*
X155828989Y-84877534D01*
X155991010Y-84783991D01*
X156130042Y-84658806D01*
X156240008Y-84507451D01*
X156316102Y-84336540D01*
X156355000Y-84153543D01*
X157755000Y-84153543D01*
X157793898Y-84336540D01*
X157869992Y-84507451D01*
X157979958Y-84658806D01*
X158118990Y-84783991D01*
X158281011Y-84877534D01*
X158458939Y-84935346D01*
X158598361Y-84950000D01*
X158691639Y-84950000D01*
X158831061Y-84935346D01*
X159008989Y-84877534D01*
X159171010Y-84783991D01*
X159310042Y-84658806D01*
X159420008Y-84507451D01*
X159496102Y-84336540D01*
X159535000Y-84153543D01*
X159535000Y-83966457D01*
X159496102Y-83783460D01*
X159420008Y-83612549D01*
X159310042Y-83461194D01*
X159171010Y-83336009D01*
X159008989Y-83242466D01*
X158831061Y-83184654D01*
X158691639Y-83170000D01*
X158598361Y-83170000D01*
X158458939Y-83184654D01*
X158281011Y-83242466D01*
X158118990Y-83336009D01*
X157979958Y-83461194D01*
X157869992Y-83612549D01*
X157793898Y-83783460D01*
X157755000Y-83966457D01*
X157755000Y-84153543D01*
X156355000Y-84153543D01*
X156355000Y-83966457D01*
X156316102Y-83783460D01*
X156240008Y-83612549D01*
X156130042Y-83461194D01*
X155991010Y-83336009D01*
X155828989Y-83242466D01*
X155651061Y-83184654D01*
X155511639Y-83170000D01*
X155418361Y-83170000D01*
X155278939Y-83184654D01*
X155101011Y-83242466D01*
X154938990Y-83336009D01*
X154799958Y-83461194D01*
X154689992Y-83612549D01*
X154613898Y-83783460D01*
X154575000Y-83966457D01*
X154575000Y-84153543D01*
X135263934Y-84153543D01*
X135175042Y-84031194D01*
X135036010Y-83906009D01*
X134873989Y-83812466D01*
X134696061Y-83754654D01*
X134556639Y-83740000D01*
X134463361Y-83740000D01*
X134323939Y-83754654D01*
X134146011Y-83812466D01*
X133983990Y-83906009D01*
X133844958Y-84031194D01*
X133734992Y-84182549D01*
X133658898Y-84353460D01*
X133620000Y-84536457D01*
X133620000Y-84723543D01*
X133002243Y-84723543D01*
X133095786Y-84630000D01*
X132668702Y-84202916D01*
X132668702Y-84202917D01*
X132634459Y-84360334D01*
X132615171Y-84630000D01*
X131335000Y-84630000D01*
X131335000Y-82930000D01*
X134224214Y-82930000D01*
X134510000Y-83215786D01*
X134665786Y-83060000D01*
X153250000Y-83060000D01*
X154465000Y-83060000D01*
X154465000Y-81670000D01*
X156465000Y-81670000D01*
X156465000Y-83060000D01*
X157645000Y-83060000D01*
X157645000Y-81670000D01*
X159645000Y-81670000D01*
X159645000Y-83060000D01*
X160860000Y-83060000D01*
X160860000Y-82125481D01*
X160859645Y-82118867D01*
X160853599Y-82062628D01*
X160803352Y-81927910D01*
X160717188Y-81812811D01*
X160602089Y-81726647D01*
X160467371Y-81676400D01*
X160411132Y-81670354D01*
X160404518Y-81670000D01*
X159645000Y-81670000D01*
X157645000Y-81670000D01*
X156465000Y-81670000D01*
X154465000Y-81670000D01*
X153705482Y-81670000D01*
X153698867Y-81670354D01*
X153642628Y-81676400D01*
X153507910Y-81726647D01*
X153392811Y-81812811D01*
X153306647Y-81927910D01*
X153256400Y-82062628D01*
X153250354Y-82118867D01*
X153250000Y-82125481D01*
X153250000Y-83060000D01*
X134665786Y-83060000D01*
X134795786Y-82930000D01*
X134510000Y-82644214D01*
X134224214Y-82930000D01*
X131335000Y-82930000D01*
X131335000Y-81230000D01*
X132615171Y-81230000D01*
X132634459Y-81499665D01*
X132668702Y-81657081D01*
X132668703Y-81657082D01*
X133002243Y-81323543D01*
X133620000Y-81323543D01*
X133658898Y-81506540D01*
X133734992Y-81677451D01*
X133844958Y-81828806D01*
X133983990Y-81953991D01*
X134146011Y-82047534D01*
X134323939Y-82105346D01*
X134463361Y-82120000D01*
X134556639Y-82120000D01*
X134696061Y-82105346D01*
X134873989Y-82047534D01*
X135036010Y-81953991D01*
X135175042Y-81828806D01*
X135285008Y-81677451D01*
X135361102Y-81506540D01*
X135400000Y-81323543D01*
X135400000Y-81230001D01*
X135924214Y-81230001D01*
X136351295Y-81657082D01*
X136351296Y-81657081D01*
X136385540Y-81499663D01*
X136404828Y-81230000D01*
X136385874Y-80965000D01*
X138612737Y-80965000D01*
X138635641Y-81034121D01*
X138727684Y-81183346D01*
X138851654Y-81307316D01*
X139000877Y-81399357D01*
X139167303Y-81454506D01*
X139266890Y-81464680D01*
X139273168Y-81464999D01*
X139844999Y-81464999D01*
X139845000Y-81464998D01*
X139845000Y-80965000D01*
X140995000Y-80965000D01*
X140995000Y-81464999D01*
X141566829Y-81464999D01*
X141573111Y-81464678D01*
X141672695Y-81454506D01*
X141839122Y-81399357D01*
X141988345Y-81307316D01*
X142112315Y-81183346D01*
X142204358Y-81034121D01*
X142227263Y-80965000D01*
X142862737Y-80965000D01*
X142885641Y-81034121D01*
X142977684Y-81183346D01*
X143101654Y-81307316D01*
X143250877Y-81399357D01*
X143417303Y-81454506D01*
X143516890Y-81464680D01*
X143523168Y-81464999D01*
X144094999Y-81464999D01*
X144095000Y-81464998D01*
X144095000Y-80965000D01*
X145245000Y-80965000D01*
X145245000Y-81464999D01*
X145816829Y-81464999D01*
X145823111Y-81464678D01*
X145922695Y-81454506D01*
X146089122Y-81399357D01*
X146238345Y-81307316D01*
X146362315Y-81183346D01*
X146454358Y-81034121D01*
X146477263Y-80965000D01*
X147112737Y-80965000D01*
X147135641Y-81034121D01*
X147227684Y-81183346D01*
X147351654Y-81307316D01*
X147500877Y-81399357D01*
X147667303Y-81454506D01*
X147766890Y-81464680D01*
X147773168Y-81464999D01*
X148344999Y-81464999D01*
X148345000Y-81464998D01*
X148345000Y-80965000D01*
X149495000Y-80965000D01*
X149495000Y-81464999D01*
X150066829Y-81464999D01*
X150073111Y-81464678D01*
X150172695Y-81454506D01*
X150339122Y-81399357D01*
X150488345Y-81307316D01*
X150612315Y-81183346D01*
X150704358Y-81034121D01*
X150727263Y-80965000D01*
X149495000Y-80965000D01*
X148345000Y-80965000D01*
X147112737Y-80965000D01*
X146477263Y-80965000D01*
X145245000Y-80965000D01*
X144095000Y-80965000D01*
X142862737Y-80965000D01*
X142227263Y-80965000D01*
X140995000Y-80965000D01*
X139845000Y-80965000D01*
X138612737Y-80965000D01*
X136385874Y-80965000D01*
X136385540Y-80960336D01*
X136351295Y-80802917D01*
X136351295Y-80802916D01*
X135924214Y-81229999D01*
X135924214Y-81230001D01*
X135400000Y-81230001D01*
X135400000Y-81136457D01*
X135361102Y-80953460D01*
X135285008Y-80782549D01*
X135175042Y-80631194D01*
X135036010Y-80506009D01*
X134873989Y-80412466D01*
X134696061Y-80354654D01*
X134556639Y-80340000D01*
X134463361Y-80340000D01*
X134323939Y-80354654D01*
X134146011Y-80412466D01*
X133983990Y-80506009D01*
X133844958Y-80631194D01*
X133734992Y-80782549D01*
X133658898Y-80953460D01*
X133620000Y-81136457D01*
X133620000Y-81323543D01*
X133002243Y-81323543D01*
X133095786Y-81230000D01*
X132668702Y-80802916D01*
X132668702Y-80802917D01*
X132634459Y-80960334D01*
X132615171Y-81230000D01*
X131335000Y-81230000D01*
X131335000Y-79388702D01*
X134082916Y-79388702D01*
X134510000Y-79815786D01*
X134510001Y-79815786D01*
X134510787Y-79815000D01*
X138612737Y-79815000D01*
X139845000Y-79815000D01*
X139845000Y-79315000D01*
X140995000Y-79315000D01*
X140995000Y-79815000D01*
X142227262Y-79815000D01*
X142862737Y-79815000D01*
X144095000Y-79815000D01*
X144095000Y-79315000D01*
X145245000Y-79315000D01*
X145245000Y-79815000D01*
X146477262Y-79815000D01*
X147112737Y-79815000D01*
X148345000Y-79815000D01*
X148345000Y-79315000D01*
X149495000Y-79315000D01*
X149495000Y-79815000D01*
X150727262Y-79815000D01*
X150704358Y-79745878D01*
X150612315Y-79596653D01*
X150488345Y-79472683D01*
X150339122Y-79380642D01*
X150172696Y-79325493D01*
X150073109Y-79315319D01*
X150066832Y-79315000D01*
X149495000Y-79315000D01*
X148345000Y-79315000D01*
X147773171Y-79315000D01*
X147766888Y-79315321D01*
X147667304Y-79325493D01*
X147500877Y-79380642D01*
X147351654Y-79472683D01*
X147227684Y-79596653D01*
X147135641Y-79745878D01*
X147112737Y-79815000D01*
X146477262Y-79815000D01*
X146454358Y-79745878D01*
X146362315Y-79596653D01*
X146238345Y-79472683D01*
X146089122Y-79380642D01*
X145922696Y-79325493D01*
X145823109Y-79315319D01*
X145816832Y-79315000D01*
X145245000Y-79315000D01*
X144095000Y-79315000D01*
X143523171Y-79315000D01*
X143516888Y-79315321D01*
X143417304Y-79325493D01*
X143250877Y-79380642D01*
X143101654Y-79472683D01*
X142977684Y-79596653D01*
X142885641Y-79745878D01*
X142862737Y-79815000D01*
X142227262Y-79815000D01*
X142204358Y-79745878D01*
X142112315Y-79596653D01*
X141988345Y-79472683D01*
X141839122Y-79380642D01*
X141672696Y-79325493D01*
X141573109Y-79315319D01*
X141566832Y-79315000D01*
X140995000Y-79315000D01*
X139845000Y-79315000D01*
X139273171Y-79315000D01*
X139266888Y-79315321D01*
X139167304Y-79325493D01*
X139000877Y-79380642D01*
X138851654Y-79472683D01*
X138727684Y-79596653D01*
X138635641Y-79745878D01*
X138612737Y-79815000D01*
X134510787Y-79815000D01*
X134937082Y-79388703D01*
X134937081Y-79388702D01*
X134779665Y-79354459D01*
X134510000Y-79335171D01*
X134240334Y-79354459D01*
X134082917Y-79388702D01*
X134082916Y-79388702D01*
X131335000Y-79388702D01*
X131335000Y-79244500D01*
X131354685Y-79177461D01*
X131407489Y-79131706D01*
X131459000Y-79120500D01*
X133747678Y-79120500D01*
X133751000Y-79120500D01*
X133794684Y-79115803D01*
X133846195Y-79104597D01*
X133847732Y-79104232D01*
X133856350Y-79102121D01*
X133856368Y-79102111D01*
X133856373Y-79102110D01*
X133937085Y-79059100D01*
X133989889Y-79013345D01*
X134007843Y-78995754D01*
X134013211Y-78986156D01*
X134017515Y-78978464D01*
X134067422Y-78929566D01*
X134125734Y-78915000D01*
X161691000Y-78915000D01*
X161758039Y-78934685D01*
G37*
G04 #@! TD.AperFunction*
G04 #@! TA.AperFunction,Conductor*
G36*
X153436521Y-57436971D02*
G01*
X153503394Y-57457214D01*
X153548708Y-57510397D01*
X153558075Y-57579636D01*
X153528521Y-57642948D01*
X153509799Y-57660234D01*
X153392811Y-57747810D01*
X153306647Y-57862910D01*
X153256400Y-57997628D01*
X153250354Y-58053867D01*
X153250000Y-58060481D01*
X153250000Y-58995000D01*
X159521000Y-58995000D01*
X159588039Y-59014685D01*
X159633794Y-59067489D01*
X159645000Y-59119000D01*
X159645000Y-62385000D01*
X160404518Y-62385000D01*
X160411132Y-62384645D01*
X160467371Y-62378599D01*
X160602089Y-62328352D01*
X160717190Y-62242187D01*
X160776733Y-62162648D01*
X160832666Y-62120776D01*
X160902358Y-62115792D01*
X160963681Y-62149277D01*
X160997166Y-62210600D01*
X161000000Y-62236958D01*
X161000000Y-63376000D01*
X160980315Y-63443039D01*
X160927511Y-63488794D01*
X160876000Y-63500000D01*
X158376909Y-63500000D01*
X158309870Y-63480315D01*
X158303153Y-63475593D01*
X158156762Y-63414956D01*
X158000000Y-63394317D01*
X157843237Y-63414956D01*
X157682076Y-63481711D01*
X157681734Y-63480886D01*
X157633411Y-63499570D01*
X157623091Y-63500000D01*
X143376909Y-63500000D01*
X143309870Y-63480315D01*
X143303153Y-63475593D01*
X143156762Y-63414956D01*
X143000000Y-63394317D01*
X142843237Y-63414956D01*
X142682076Y-63481711D01*
X142681734Y-63480886D01*
X142633411Y-63499570D01*
X142623091Y-63500000D01*
X133750000Y-63500000D01*
X133750000Y-66205423D01*
X133730315Y-66272462D01*
X133677511Y-66318217D01*
X133608353Y-66328161D01*
X133545470Y-66299714D01*
X133514464Y-66273233D01*
X133307447Y-66146373D01*
X133083133Y-66053458D01*
X132847047Y-65996779D01*
X132604999Y-65977730D01*
X132481649Y-65987437D01*
X133750000Y-67255786D01*
X133750000Y-67794212D01*
X132794213Y-68750000D01*
X132415787Y-68750000D01*
X131275176Y-67609388D01*
X131910000Y-67609388D01*
X131950390Y-67773261D01*
X132028825Y-67922705D01*
X132140745Y-68049036D01*
X132279645Y-68144912D01*
X132437454Y-68204761D01*
X132562957Y-68220000D01*
X132647043Y-68220000D01*
X132772546Y-68204761D01*
X132930355Y-68144912D01*
X133069255Y-68049036D01*
X133181175Y-67922705D01*
X133259610Y-67773261D01*
X133300000Y-67609388D01*
X133300000Y-67440612D01*
X133259610Y-67276739D01*
X133181175Y-67127295D01*
X133069255Y-67000964D01*
X132930355Y-66905088D01*
X132772546Y-66845239D01*
X132647043Y-66830000D01*
X132562957Y-66830000D01*
X132437454Y-66845239D01*
X132279645Y-66905088D01*
X132140745Y-67000964D01*
X132028825Y-67127295D01*
X131950390Y-67276739D01*
X131910000Y-67440612D01*
X131910000Y-67609388D01*
X131275176Y-67609388D01*
X131011313Y-67345525D01*
X131011308Y-67345521D01*
X130999999Y-67334213D01*
X130999999Y-60995000D01*
X153250000Y-60995000D01*
X153250000Y-61929518D01*
X153250354Y-61936132D01*
X153256400Y-61992371D01*
X153306647Y-62127089D01*
X153392811Y-62242188D01*
X153507910Y-62328352D01*
X153642628Y-62378599D01*
X153698867Y-62384645D01*
X153705482Y-62385000D01*
X154465000Y-62385000D01*
X154465000Y-60995000D01*
X156465000Y-60995000D01*
X156465000Y-62385000D01*
X157645000Y-62385000D01*
X157645000Y-60995000D01*
X156465000Y-60995000D01*
X154465000Y-60995000D01*
X153250000Y-60995000D01*
X130999999Y-60995000D01*
X130999999Y-60088543D01*
X154575000Y-60088543D01*
X154613898Y-60271540D01*
X154689992Y-60442451D01*
X154799958Y-60593806D01*
X154938990Y-60718991D01*
X155101011Y-60812534D01*
X155278939Y-60870346D01*
X155418361Y-60885000D01*
X155511639Y-60885000D01*
X155651061Y-60870346D01*
X155828989Y-60812534D01*
X155991010Y-60718991D01*
X156130042Y-60593806D01*
X156240008Y-60442451D01*
X156316102Y-60271540D01*
X156355000Y-60088543D01*
X157755000Y-60088543D01*
X157793898Y-60271540D01*
X157869992Y-60442451D01*
X157979958Y-60593806D01*
X158118990Y-60718991D01*
X158281011Y-60812534D01*
X158458939Y-60870346D01*
X158598361Y-60885000D01*
X158691639Y-60885000D01*
X158831061Y-60870346D01*
X159008989Y-60812534D01*
X159171010Y-60718991D01*
X159310042Y-60593806D01*
X159420008Y-60442451D01*
X159496102Y-60271540D01*
X159535000Y-60088543D01*
X159535000Y-59901457D01*
X159496102Y-59718460D01*
X159420008Y-59547549D01*
X159310042Y-59396194D01*
X159171010Y-59271009D01*
X159008989Y-59177466D01*
X158831061Y-59119654D01*
X158691639Y-59105000D01*
X158598361Y-59105000D01*
X158458939Y-59119654D01*
X158281011Y-59177466D01*
X158118990Y-59271009D01*
X157979958Y-59396194D01*
X157869992Y-59547549D01*
X157793898Y-59718460D01*
X157755000Y-59901457D01*
X157755000Y-60088543D01*
X156355000Y-60088543D01*
X156355000Y-59901457D01*
X156316102Y-59718460D01*
X156240008Y-59547549D01*
X156130042Y-59396194D01*
X155991010Y-59271009D01*
X155828989Y-59177466D01*
X155651061Y-59119654D01*
X155511639Y-59105000D01*
X155418361Y-59105000D01*
X155278939Y-59119654D01*
X155101011Y-59177466D01*
X154938990Y-59271009D01*
X154799958Y-59396194D01*
X154689992Y-59547549D01*
X154613898Y-59718460D01*
X154575000Y-59901457D01*
X154575000Y-60088543D01*
X130999999Y-60088543D01*
X130999999Y-57375033D01*
X131019684Y-57307998D01*
X131072488Y-57262243D01*
X131125027Y-57251041D01*
X153436521Y-57436971D01*
G37*
G04 #@! TD.AperFunction*
M02*
