G04 #@! TF.GenerationSoftware,KiCad,Pcbnew,8.0.0*
G04 #@! TF.CreationDate,2024-11-27T00:01:04-06:00*
G04 #@! TF.ProjectId,Power-Secondary,506f7765-722d-4536-9563-6f6e64617279,rev?*
G04 #@! TF.SameCoordinates,Original*
G04 #@! TF.FileFunction,Paste,Bot*
G04 #@! TF.FilePolarity,Positive*
%FSLAX46Y46*%
G04 Gerber Fmt 4.6, Leading zero omitted, Abs format (unit mm)*
G04 Created by KiCad (PCBNEW 8.0.0) date 2024-11-27 00:01:04*
%MOMM*%
%LPD*%
G01*
G04 APERTURE LIST*
G04 Aperture macros list*
%AMRoundRect*
0 Rectangle with rounded corners*
0 $1 Rounding radius*
0 $2 $3 $4 $5 $6 $7 $8 $9 X,Y pos of 4 corners*
0 Add a 4 corners polygon primitive as box body*
4,1,4,$2,$3,$4,$5,$6,$7,$8,$9,$2,$3,0*
0 Add four circle primitives for the rounded corners*
1,1,$1+$1,$2,$3*
1,1,$1+$1,$4,$5*
1,1,$1+$1,$6,$7*
1,1,$1+$1,$8,$9*
0 Add four rect primitives between the rounded corners*
20,1,$1+$1,$2,$3,$4,$5,0*
20,1,$1+$1,$4,$5,$6,$7,0*
20,1,$1+$1,$6,$7,$8,$9,0*
20,1,$1+$1,$8,$9,$2,$3,0*%
G04 Aperture macros list end*
%ADD10RoundRect,0.250000X-0.450000X0.262500X-0.450000X-0.262500X0.450000X-0.262500X0.450000X0.262500X0*%
%ADD11RoundRect,0.250000X-0.262500X-0.450000X0.262500X-0.450000X0.262500X0.450000X-0.262500X0.450000X0*%
%ADD12RoundRect,0.250000X0.450000X-0.262500X0.450000X0.262500X-0.450000X0.262500X-0.450000X-0.262500X0*%
%ADD13RoundRect,0.125000X-0.125000X-0.625000X0.125000X-0.625000X0.125000X0.625000X-0.125000X0.625000X0*%
%ADD14RoundRect,0.250000X0.475000X-0.250000X0.475000X0.250000X-0.475000X0.250000X-0.475000X-0.250000X0*%
%ADD15RoundRect,0.250000X0.262500X0.450000X-0.262500X0.450000X-0.262500X-0.450000X0.262500X-0.450000X0*%
%ADD16RoundRect,0.150000X0.200000X-0.150000X0.200000X0.150000X-0.200000X0.150000X-0.200000X-0.150000X0*%
%ADD17RoundRect,0.250000X-0.475000X0.250000X-0.475000X-0.250000X0.475000X-0.250000X0.475000X0.250000X0*%
G04 APERTURE END LIST*
D10*
X140400000Y-95175000D03*
X140400000Y-97000000D03*
D11*
X111487500Y-69800000D03*
X113312500Y-69800000D03*
D12*
X131000000Y-95112500D03*
X131000000Y-93287500D03*
D13*
X151325000Y-88300000D03*
X152275000Y-88300000D03*
X153225000Y-88300000D03*
X153225000Y-86100000D03*
X152275000Y-86100000D03*
X151325000Y-86100000D03*
D12*
X151800000Y-95112500D03*
X151800000Y-93287500D03*
X145300000Y-88500000D03*
X145300000Y-86675000D03*
X128800000Y-95100000D03*
X128800000Y-93275000D03*
D13*
X125200000Y-88300000D03*
X126150000Y-88300000D03*
X127100000Y-88300000D03*
X127100000Y-86100000D03*
X126150000Y-86100000D03*
X125200000Y-86100000D03*
D14*
X137900000Y-90450000D03*
X137900000Y-88550000D03*
D12*
X149500000Y-88500000D03*
X149500000Y-86675000D03*
D15*
X166812500Y-99800000D03*
X164987500Y-99800000D03*
D12*
X147400000Y-95112500D03*
X147400000Y-93287500D03*
X133112500Y-88512500D03*
X133112500Y-86687500D03*
D14*
X140550000Y-90450000D03*
X140550000Y-88550000D03*
X124250000Y-80700000D03*
X124250000Y-78800000D03*
D11*
X111450000Y-72000000D03*
X113275000Y-72000000D03*
D14*
X154150000Y-80650000D03*
X154150000Y-78750000D03*
D16*
X124250000Y-75050000D03*
X124250000Y-76450000D03*
D12*
X133200000Y-95100000D03*
X133200000Y-93275000D03*
X128925000Y-88512500D03*
X128925000Y-86687500D03*
X149600000Y-95112500D03*
X149600000Y-93287500D03*
X145200000Y-95112500D03*
X145200000Y-93287500D03*
D15*
X166675000Y-72100000D03*
X164850000Y-72100000D03*
D12*
X131012500Y-88512500D03*
X131012500Y-86687500D03*
D16*
X154127500Y-75000000D03*
X154127500Y-76400000D03*
D14*
X140750000Y-84050000D03*
X140750000Y-82150000D03*
D11*
X111587500Y-99800000D03*
X113412500Y-99800000D03*
D17*
X137700000Y-82150000D03*
X137700000Y-84050000D03*
D12*
X147400000Y-88500000D03*
X147400000Y-86675000D03*
D15*
X166712500Y-70000000D03*
X164887500Y-70000000D03*
D12*
X126600000Y-95100000D03*
X126600000Y-93275000D03*
D10*
X138100000Y-95175000D03*
X138100000Y-97000000D03*
M02*
