G04 #@! TF.GenerationSoftware,KiCad,Pcbnew,7.0.2*
G04 #@! TF.CreationDate,2023-08-29T10:55:17-05:00*
G04 #@! TF.ProjectId,Power-Secondary,506f7765-722d-4536-9563-6f6e64617279,rev?*
G04 #@! TF.SameCoordinates,Original*
G04 #@! TF.FileFunction,Soldermask,Top*
G04 #@! TF.FilePolarity,Negative*
%FSLAX46Y46*%
G04 Gerber Fmt 4.6, Leading zero omitted, Abs format (unit mm)*
G04 Created by KiCad (PCBNEW 7.0.2) date 2023-08-29 10:55:17*
%MOMM*%
%LPD*%
G01*
G04 APERTURE LIST*
G04 Aperture macros list*
%AMRoundRect*
0 Rectangle with rounded corners*
0 $1 Rounding radius*
0 $2 $3 $4 $5 $6 $7 $8 $9 X,Y pos of 4 corners*
0 Add a 4 corners polygon primitive as box body*
4,1,4,$2,$3,$4,$5,$6,$7,$8,$9,$2,$3,0*
0 Add four circle primitives for the rounded corners*
1,1,$1+$1,$2,$3*
1,1,$1+$1,$4,$5*
1,1,$1+$1,$6,$7*
1,1,$1+$1,$8,$9*
0 Add four rect primitives between the rounded corners*
20,1,$1+$1,$2,$3,$4,$5,0*
20,1,$1+$1,$4,$5,$6,$7,0*
20,1,$1+$1,$6,$7,$8,$9,0*
20,1,$1+$1,$8,$9,$2,$3,0*%
G04 Aperture macros list end*
%ADD10C,3.000000*%
%ADD11R,2.085000X2.085000*%
%ADD12C,2.085000*%
%ADD13R,3.430000X3.780000*%
%ADD14RoundRect,0.243750X-0.243750X-0.456250X0.243750X-0.456250X0.243750X0.456250X-0.243750X0.456250X0*%
%ADD15RoundRect,0.200000X-0.200000X-0.275000X0.200000X-0.275000X0.200000X0.275000X-0.200000X0.275000X0*%
%ADD16R,2.000000X2.000000*%
%ADD17R,0.750000X0.400000*%
%ADD18C,1.270000*%
%ADD19RoundRect,0.250001X0.499999X0.759999X-0.499999X0.759999X-0.499999X-0.759999X0.499999X-0.759999X0*%
%ADD20O,1.500000X2.020000*%
%ADD21C,2.780000*%
%ADD22RoundRect,0.243750X0.243750X0.456250X-0.243750X0.456250X-0.243750X-0.456250X0.243750X-0.456250X0*%
%ADD23RoundRect,0.250000X0.262500X0.450000X-0.262500X0.450000X-0.262500X-0.450000X0.262500X-0.450000X0*%
%ADD24R,1.100000X0.500000*%
%ADD25RoundRect,0.250001X-0.499999X-0.759999X0.499999X-0.759999X0.499999X0.759999X-0.499999X0.759999X0*%
%ADD26R,2.850000X1.250000*%
%ADD27R,6.500000X5.550000*%
%ADD28RoundRect,0.250000X-0.262500X-0.450000X0.262500X-0.450000X0.262500X0.450000X-0.262500X0.450000X0*%
G04 APERTURE END LIST*
D10*
X93000000Y-48000000D03*
D11*
X137685000Y-73200000D03*
D12*
X135145000Y-73200000D03*
X132605000Y-73200000D03*
D11*
X125620000Y-67485000D03*
D12*
X123080000Y-67485000D03*
X120540000Y-67485000D03*
D13*
X158645000Y-84060000D03*
X155465000Y-84060000D03*
X158645000Y-91550000D03*
X155465000Y-91550000D03*
D14*
X109696500Y-56690000D03*
X111571500Y-56690000D03*
D10*
X165000000Y-104000000D03*
D15*
X128175000Y-59500000D03*
X129825000Y-59500000D03*
D16*
X110126000Y-52118000D03*
D17*
X136100000Y-62650000D03*
X136100000Y-62000000D03*
X136100000Y-61350000D03*
X133900000Y-61350000D03*
X133900000Y-62000000D03*
X133900000Y-62650000D03*
D18*
X123000000Y-103125000D03*
X114000000Y-103125000D03*
D19*
X120000000Y-101165000D03*
D20*
X117000000Y-101165000D03*
D21*
X124590000Y-81230000D03*
X124590000Y-84630000D03*
X134510000Y-81230000D03*
X134510000Y-84630000D03*
D13*
X99580000Y-91550000D03*
X102760000Y-91550000D03*
X99580000Y-84060000D03*
X102760000Y-84060000D03*
D10*
X165000000Y-48000000D03*
D13*
X99580000Y-67485000D03*
X102760000Y-67485000D03*
X99580000Y-59995000D03*
X102760000Y-59995000D03*
D15*
X118925000Y-59500000D03*
X120575000Y-59500000D03*
D11*
X137685000Y-67525000D03*
D12*
X135145000Y-67525000D03*
X132605000Y-67525000D03*
D16*
X147972000Y-52118000D03*
D10*
X93000000Y-104000000D03*
D22*
X148655500Y-56436000D03*
X146780500Y-56436000D03*
D16*
X143019000Y-52118000D03*
D18*
X145000000Y-103125000D03*
X136000000Y-103125000D03*
D19*
X142000000Y-101165000D03*
D20*
X139000000Y-101165000D03*
D23*
X115864500Y-56690000D03*
X114039500Y-56690000D03*
D24*
X130150000Y-62000000D03*
X127850000Y-62000000D03*
D18*
X124549000Y-51013000D03*
X133549000Y-51013000D03*
D25*
X127549000Y-52973000D03*
D20*
X130549000Y-52973000D03*
D11*
X125620000Y-73200000D03*
D12*
X123080000Y-73200000D03*
X120540000Y-73200000D03*
D26*
X125675000Y-90175000D03*
D27*
X132075000Y-92455000D03*
D26*
X125675000Y-94735000D03*
D16*
X115000000Y-52118000D03*
X120000000Y-52118000D03*
X137939000Y-52118000D03*
D13*
X158645000Y-59995000D03*
X155465000Y-59995000D03*
X158645000Y-67485000D03*
X155465000Y-67485000D03*
D28*
X142487500Y-56436000D03*
X144312500Y-56436000D03*
D17*
X124100000Y-62650000D03*
X124100000Y-62000000D03*
X124100000Y-61350000D03*
X121900000Y-61350000D03*
X121900000Y-62000000D03*
X121900000Y-62650000D03*
M02*
