G04 #@! TF.GenerationSoftware,KiCad,Pcbnew,9.0.1*
G04 #@! TF.CreationDate,2025-06-15T22:17:52-07:00*
G04 #@! TF.ProjectId,Power-Secondary,506f7765-722d-4536-9563-6f6e64617279,rev?*
G04 #@! TF.SameCoordinates,Original*
G04 #@! TF.FileFunction,Paste,Top*
G04 #@! TF.FilePolarity,Positive*
%FSLAX46Y46*%
G04 Gerber Fmt 4.6, Leading zero omitted, Abs format (unit mm)*
G04 Created by KiCad (PCBNEW 9.0.1) date 2025-06-15 22:17:52*
%MOMM*%
%LPD*%
G01*
G04 APERTURE LIST*
G04 Aperture macros list*
%AMRoundRect*
0 Rectangle with rounded corners*
0 $1 Rounding radius*
0 $2 $3 $4 $5 $6 $7 $8 $9 X,Y pos of 4 corners*
0 Add a 4 corners polygon primitive as box body*
4,1,4,$2,$3,$4,$5,$6,$7,$8,$9,$2,$3,0*
0 Add four circle primitives for the rounded corners*
1,1,$1+$1,$2,$3*
1,1,$1+$1,$4,$5*
1,1,$1+$1,$6,$7*
1,1,$1+$1,$8,$9*
0 Add four rect primitives between the rounded corners*
20,1,$1+$1,$2,$3,$4,$5,0*
20,1,$1+$1,$4,$5,$6,$7,0*
20,1,$1+$1,$6,$7,$8,$9,0*
20,1,$1+$1,$8,$9,$2,$3,0*%
G04 Aperture macros list end*
%ADD10C,0.010000*%
%ADD11RoundRect,0.250000X-0.450000X0.262500X-0.450000X-0.262500X0.450000X-0.262500X0.450000X0.262500X0*%
%ADD12RoundRect,0.243750X0.243750X0.456250X-0.243750X0.456250X-0.243750X-0.456250X0.243750X-0.456250X0*%
%ADD13RoundRect,0.243750X-0.243750X-0.456250X0.243750X-0.456250X0.243750X0.456250X-0.243750X0.456250X0*%
%ADD14RoundRect,0.225000X-0.225000X-0.250000X0.225000X-0.250000X0.225000X0.250000X-0.225000X0.250000X0*%
%ADD15R,3.450000X1.450000*%
%ADD16R,1.530000X1.180000*%
%ADD17RoundRect,0.250000X-0.475000X0.250000X-0.475000X-0.250000X0.475000X-0.250000X0.475000X0.250000X0*%
%ADD18RoundRect,0.163043X1.036957X-0.586957X1.036957X0.586957X-1.036957X0.586957X-1.036957X-0.586957X0*%
%ADD19RoundRect,0.163043X-1.036957X0.586957X-1.036957X-0.586957X1.036957X-0.586957X1.036957X0.586957X0*%
%ADD20RoundRect,0.250000X0.250000X0.475000X-0.250000X0.475000X-0.250000X-0.475000X0.250000X-0.475000X0*%
%ADD21RoundRect,0.150000X0.587500X0.150000X-0.587500X0.150000X-0.587500X-0.150000X0.587500X-0.150000X0*%
%ADD22RoundRect,0.249999X-0.760001X-1.205001X0.760001X-1.205001X0.760001X1.205001X-0.760001X1.205001X0*%
%ADD23RoundRect,0.075000X-0.700000X-0.075000X0.700000X-0.075000X0.700000X0.075000X-0.700000X0.075000X0*%
%ADD24R,1.651000X0.431800*%
G04 APERTURE END LIST*
D10*
X147070000Y-76115000D02*
X145410000Y-76115000D01*
X145410000Y-74485000D01*
X147070000Y-74485000D01*
X147070000Y-76115000D01*
G36*
X147070000Y-76115000D02*
G01*
X145410000Y-76115000D01*
X145410000Y-74485000D01*
X147070000Y-74485000D01*
X147070000Y-76115000D01*
G37*
X147070000Y-78515000D02*
X145410000Y-78515000D01*
X145410000Y-76885000D01*
X147070000Y-76885000D01*
X147070000Y-78515000D01*
G36*
X147070000Y-78515000D02*
G01*
X145410000Y-78515000D01*
X145410000Y-76885000D01*
X147070000Y-76885000D01*
X147070000Y-78515000D01*
G37*
X147070000Y-80915000D02*
X145410000Y-80915000D01*
X145410000Y-79285000D01*
X147070000Y-79285000D01*
X147070000Y-80915000D01*
G36*
X147070000Y-80915000D02*
G01*
X145410000Y-80915000D01*
X145410000Y-79285000D01*
X147070000Y-79285000D01*
X147070000Y-80915000D01*
G37*
X149890000Y-76115000D02*
X148230000Y-76115000D01*
X148230000Y-74485000D01*
X149890000Y-74485000D01*
X149890000Y-76115000D01*
G36*
X149890000Y-76115000D02*
G01*
X148230000Y-76115000D01*
X148230000Y-74485000D01*
X149890000Y-74485000D01*
X149890000Y-76115000D01*
G37*
X149890000Y-78515000D02*
X148230000Y-78515000D01*
X148230000Y-76885000D01*
X149890000Y-76885000D01*
X149890000Y-78515000D01*
G36*
X149890000Y-78515000D02*
G01*
X148230000Y-78515000D01*
X148230000Y-76885000D01*
X149890000Y-76885000D01*
X149890000Y-78515000D01*
G37*
X149890000Y-80915000D02*
X148230000Y-80915000D01*
X148230000Y-79285000D01*
X149890000Y-79285000D01*
X149890000Y-80915000D01*
G36*
X149890000Y-80915000D02*
G01*
X148230000Y-80915000D01*
X148230000Y-79285000D01*
X149890000Y-79285000D01*
X149890000Y-80915000D01*
G37*
X117120000Y-76165000D02*
X115460000Y-76165000D01*
X115460000Y-74535000D01*
X117120000Y-74535000D01*
X117120000Y-76165000D01*
G36*
X117120000Y-76165000D02*
G01*
X115460000Y-76165000D01*
X115460000Y-74535000D01*
X117120000Y-74535000D01*
X117120000Y-76165000D01*
G37*
X117120000Y-78565000D02*
X115460000Y-78565000D01*
X115460000Y-76935000D01*
X117120000Y-76935000D01*
X117120000Y-78565000D01*
G36*
X117120000Y-78565000D02*
G01*
X115460000Y-78565000D01*
X115460000Y-76935000D01*
X117120000Y-76935000D01*
X117120000Y-78565000D01*
G37*
X117120000Y-80965000D02*
X115460000Y-80965000D01*
X115460000Y-79335000D01*
X117120000Y-79335000D01*
X117120000Y-80965000D01*
G36*
X117120000Y-80965000D02*
G01*
X115460000Y-80965000D01*
X115460000Y-79335000D01*
X117120000Y-79335000D01*
X117120000Y-80965000D01*
G37*
X119940000Y-76165000D02*
X118280000Y-76165000D01*
X118280000Y-74535000D01*
X119940000Y-74535000D01*
X119940000Y-76165000D01*
G36*
X119940000Y-76165000D02*
G01*
X118280000Y-76165000D01*
X118280000Y-74535000D01*
X119940000Y-74535000D01*
X119940000Y-76165000D01*
G37*
X119940000Y-78565000D02*
X118280000Y-78565000D01*
X118280000Y-76935000D01*
X119940000Y-76935000D01*
X119940000Y-78565000D01*
G36*
X119940000Y-78565000D02*
G01*
X118280000Y-78565000D01*
X118280000Y-76935000D01*
X119940000Y-76935000D01*
X119940000Y-78565000D01*
G37*
X119940000Y-80965000D02*
X118280000Y-80965000D01*
X118280000Y-79335000D01*
X119940000Y-79335000D01*
X119940000Y-80965000D01*
G36*
X119940000Y-80965000D02*
G01*
X118280000Y-80965000D01*
X118280000Y-79335000D01*
X119940000Y-79335000D01*
X119940000Y-80965000D01*
G37*
X160120000Y-76115000D02*
X158460000Y-76115000D01*
X158460000Y-74485000D01*
X160120000Y-74485000D01*
X160120000Y-76115000D01*
G36*
X160120000Y-76115000D02*
G01*
X158460000Y-76115000D01*
X158460000Y-74485000D01*
X160120000Y-74485000D01*
X160120000Y-76115000D01*
G37*
X160120000Y-78515000D02*
X158460000Y-78515000D01*
X158460000Y-76885000D01*
X160120000Y-76885000D01*
X160120000Y-78515000D01*
G36*
X160120000Y-78515000D02*
G01*
X158460000Y-78515000D01*
X158460000Y-76885000D01*
X160120000Y-76885000D01*
X160120000Y-78515000D01*
G37*
X160120000Y-80915000D02*
X158460000Y-80915000D01*
X158460000Y-79285000D01*
X160120000Y-79285000D01*
X160120000Y-80915000D01*
G36*
X160120000Y-80915000D02*
G01*
X158460000Y-80915000D01*
X158460000Y-79285000D01*
X160120000Y-79285000D01*
X160120000Y-80915000D01*
G37*
X162940000Y-76115000D02*
X161280000Y-76115000D01*
X161280000Y-74485000D01*
X162940000Y-74485000D01*
X162940000Y-76115000D01*
G36*
X162940000Y-76115000D02*
G01*
X161280000Y-76115000D01*
X161280000Y-74485000D01*
X162940000Y-74485000D01*
X162940000Y-76115000D01*
G37*
X162940000Y-78515000D02*
X161280000Y-78515000D01*
X161280000Y-76885000D01*
X162940000Y-76885000D01*
X162940000Y-78515000D01*
G36*
X162940000Y-78515000D02*
G01*
X161280000Y-78515000D01*
X161280000Y-76885000D01*
X162940000Y-76885000D01*
X162940000Y-78515000D01*
G37*
X162940000Y-80915000D02*
X161280000Y-80915000D01*
X161280000Y-79285000D01*
X162940000Y-79285000D01*
X162940000Y-80915000D01*
G36*
X162940000Y-80915000D02*
G01*
X161280000Y-80915000D01*
X161280000Y-79285000D01*
X162940000Y-79285000D01*
X162940000Y-80915000D01*
G37*
X130220000Y-76165000D02*
X128560000Y-76165000D01*
X128560000Y-74535000D01*
X130220000Y-74535000D01*
X130220000Y-76165000D01*
G36*
X130220000Y-76165000D02*
G01*
X128560000Y-76165000D01*
X128560000Y-74535000D01*
X130220000Y-74535000D01*
X130220000Y-76165000D01*
G37*
X130220000Y-78565000D02*
X128560000Y-78565000D01*
X128560000Y-76935000D01*
X130220000Y-76935000D01*
X130220000Y-78565000D01*
G36*
X130220000Y-78565000D02*
G01*
X128560000Y-78565000D01*
X128560000Y-76935000D01*
X130220000Y-76935000D01*
X130220000Y-78565000D01*
G37*
X130220000Y-80965000D02*
X128560000Y-80965000D01*
X128560000Y-79335000D01*
X130220000Y-79335000D01*
X130220000Y-80965000D01*
G36*
X130220000Y-80965000D02*
G01*
X128560000Y-80965000D01*
X128560000Y-79335000D01*
X130220000Y-79335000D01*
X130220000Y-80965000D01*
G37*
X133040000Y-76165000D02*
X131380000Y-76165000D01*
X131380000Y-74535000D01*
X133040000Y-74535000D01*
X133040000Y-76165000D01*
G36*
X133040000Y-76165000D02*
G01*
X131380000Y-76165000D01*
X131380000Y-74535000D01*
X133040000Y-74535000D01*
X133040000Y-76165000D01*
G37*
X133040000Y-78565000D02*
X131380000Y-78565000D01*
X131380000Y-76935000D01*
X133040000Y-76935000D01*
X133040000Y-78565000D01*
G36*
X133040000Y-78565000D02*
G01*
X131380000Y-78565000D01*
X131380000Y-76935000D01*
X133040000Y-76935000D01*
X133040000Y-78565000D01*
G37*
X133040000Y-80965000D02*
X131380000Y-80965000D01*
X131380000Y-79335000D01*
X133040000Y-79335000D01*
X133040000Y-80965000D01*
G36*
X133040000Y-80965000D02*
G01*
X131380000Y-80965000D01*
X131380000Y-79335000D01*
X133040000Y-79335000D01*
X133040000Y-80965000D01*
G37*
D11*
X145300000Y-86675000D03*
X145300000Y-88500000D03*
D12*
X166760000Y-72100000D03*
X164885000Y-72100000D03*
D13*
X111525000Y-72000000D03*
X113400000Y-72000000D03*
D11*
X128925000Y-86687500D03*
X128925000Y-88512500D03*
X120700000Y-87710000D03*
X120700000Y-89535000D03*
D14*
X143325000Y-96750000D03*
X144875000Y-96750000D03*
D11*
X147400000Y-86675000D03*
X147400000Y-88500000D03*
D13*
X111525000Y-69800000D03*
X113400000Y-69800000D03*
D11*
X157795000Y-87567500D03*
X157795000Y-89392500D03*
D15*
X142300000Y-77200000D03*
X142300000Y-71400000D03*
D16*
X152900000Y-80700000D03*
X152900000Y-78700000D03*
X152900000Y-76700000D03*
X152900000Y-74700000D03*
D15*
X136200000Y-77200000D03*
X136200000Y-71400000D03*
D16*
X122950000Y-80750000D03*
X122950000Y-78750000D03*
X122950000Y-76750000D03*
X122950000Y-74750000D03*
D17*
X120700000Y-91390000D03*
X120700000Y-93290000D03*
D18*
X117000000Y-89975000D03*
X117000000Y-85675000D03*
D11*
X131012500Y-86687500D03*
X131012500Y-88512500D03*
D19*
X161420000Y-85530000D03*
X161420000Y-89830000D03*
D16*
X155450000Y-74700000D03*
X155450000Y-76700000D03*
X155450000Y-78700000D03*
X155450000Y-80700000D03*
D11*
X149500000Y-86675000D03*
X149500000Y-88500000D03*
D16*
X125550000Y-74750000D03*
X125550000Y-76750000D03*
X125550000Y-78750000D03*
X125550000Y-80750000D03*
D20*
X109150000Y-60000000D03*
X107250000Y-60000000D03*
D11*
X133112500Y-86687500D03*
X133112500Y-88512500D03*
D20*
X135050000Y-97000000D03*
X133150000Y-97000000D03*
X109150000Y-62300000D03*
X107250000Y-62300000D03*
D21*
X147037500Y-98250000D03*
X148912500Y-99200000D03*
X148912500Y-97300000D03*
D22*
X143875000Y-66150000D03*
D23*
X141250000Y-64400000D03*
X141250000Y-64900000D03*
X141250000Y-65400000D03*
X141250000Y-65900000D03*
X141250000Y-66400000D03*
X141250000Y-66900000D03*
X141250000Y-67400000D03*
X141250000Y-67900000D03*
X146500000Y-67900000D03*
X146500000Y-67400000D03*
X146500000Y-66900000D03*
X146500000Y-66400000D03*
X146500000Y-65900000D03*
X146500000Y-65400000D03*
X146500000Y-64900000D03*
X146500000Y-64400000D03*
D12*
X166760000Y-70000000D03*
X164885000Y-70000000D03*
D17*
X157795000Y-91247500D03*
X157795000Y-93147500D03*
D24*
X135567800Y-84149999D03*
X135567800Y-84800000D03*
X135567800Y-85450001D03*
X135567800Y-86100000D03*
X135567800Y-86750001D03*
X135567800Y-87400000D03*
X135567800Y-88050001D03*
X135567800Y-88700000D03*
X135567800Y-89350001D03*
X135567800Y-90000000D03*
X135567800Y-90650001D03*
X135567800Y-91300000D03*
X135567800Y-91950001D03*
X135567800Y-92599999D03*
X135567800Y-93250001D03*
X135567800Y-93899999D03*
X135567800Y-94549998D03*
X135567800Y-95199999D03*
X142832200Y-95199999D03*
X142832200Y-94549998D03*
X142832200Y-93899999D03*
X142832200Y-93249998D03*
X142832200Y-92599999D03*
X142832200Y-91949998D03*
X142832200Y-91300000D03*
X142832200Y-90649998D03*
X142832200Y-90000000D03*
X142832200Y-89349998D03*
X142832200Y-88700000D03*
X142832200Y-88049998D03*
X142832200Y-87400000D03*
X142832200Y-86749999D03*
X142832200Y-86100000D03*
X142832200Y-85449999D03*
X142832200Y-84800000D03*
X142832200Y-84149999D03*
M02*
