G04 #@! TF.GenerationSoftware,KiCad,Pcbnew,7.0.2*
G04 #@! TF.CreationDate,2023-08-29T10:55:17-05:00*
G04 #@! TF.ProjectId,Power-Secondary,506f7765-722d-4536-9563-6f6e64617279,rev?*
G04 #@! TF.SameCoordinates,Original*
G04 #@! TF.FileFunction,Legend,Top*
G04 #@! TF.FilePolarity,Positive*
%FSLAX46Y46*%
G04 Gerber Fmt 4.6, Leading zero omitted, Abs format (unit mm)*
G04 Created by KiCad (PCBNEW 7.0.2) date 2023-08-29 10:55:17*
%MOMM*%
%LPD*%
G01*
G04 APERTURE LIST*
G04 Aperture macros list*
%AMRoundRect*
0 Rectangle with rounded corners*
0 $1 Rounding radius*
0 $2 $3 $4 $5 $6 $7 $8 $9 X,Y pos of 4 corners*
0 Add a 4 corners polygon primitive as box body*
4,1,4,$2,$3,$4,$5,$6,$7,$8,$9,$2,$3,0*
0 Add four circle primitives for the rounded corners*
1,1,$1+$1,$2,$3*
1,1,$1+$1,$4,$5*
1,1,$1+$1,$6,$7*
1,1,$1+$1,$8,$9*
0 Add four rect primitives between the rounded corners*
20,1,$1+$1,$2,$3,$4,$5,0*
20,1,$1+$1,$4,$5,$6,$7,0*
20,1,$1+$1,$6,$7,$8,$9,0*
20,1,$1+$1,$8,$9,$2,$3,0*%
G04 Aperture macros list end*
%ADD10C,0.150000*%
%ADD11C,0.254000*%
%ADD12C,0.200000*%
%ADD13C,0.120000*%
%ADD14C,0.100000*%
%ADD15C,3.000000*%
%ADD16R,2.085000X2.085000*%
%ADD17C,2.085000*%
%ADD18R,3.430000X3.780000*%
%ADD19RoundRect,0.243750X-0.243750X-0.456250X0.243750X-0.456250X0.243750X0.456250X-0.243750X0.456250X0*%
%ADD20RoundRect,0.200000X-0.200000X-0.275000X0.200000X-0.275000X0.200000X0.275000X-0.200000X0.275000X0*%
%ADD21R,2.000000X2.000000*%
%ADD22R,0.750000X0.400000*%
%ADD23C,1.270000*%
%ADD24RoundRect,0.250001X0.499999X0.759999X-0.499999X0.759999X-0.499999X-0.759999X0.499999X-0.759999X0*%
%ADD25O,1.500000X2.020000*%
%ADD26C,2.780000*%
%ADD27RoundRect,0.243750X0.243750X0.456250X-0.243750X0.456250X-0.243750X-0.456250X0.243750X-0.456250X0*%
%ADD28RoundRect,0.250000X0.262500X0.450000X-0.262500X0.450000X-0.262500X-0.450000X0.262500X-0.450000X0*%
%ADD29R,1.100000X0.500000*%
%ADD30RoundRect,0.250001X-0.499999X-0.759999X0.499999X-0.759999X0.499999X0.759999X-0.499999X0.759999X0*%
%ADD31R,2.850000X1.250000*%
%ADD32R,6.500000X5.550000*%
%ADD33RoundRect,0.250000X-0.262500X-0.450000X0.262500X-0.450000X0.262500X0.450000X-0.262500X0.450000X0*%
G04 APERTURE END LIST*
D10*
X166010666Y-92011904D02*
X166010666Y-91250000D01*
X108316476Y-48296000D02*
X108459333Y-48343619D01*
X108459333Y-48343619D02*
X108697428Y-48343619D01*
X108697428Y-48343619D02*
X108792666Y-48296000D01*
X108792666Y-48296000D02*
X108840285Y-48248380D01*
X108840285Y-48248380D02*
X108887904Y-48153142D01*
X108887904Y-48153142D02*
X108887904Y-48057904D01*
X108887904Y-48057904D02*
X108840285Y-47962666D01*
X108840285Y-47962666D02*
X108792666Y-47915047D01*
X108792666Y-47915047D02*
X108697428Y-47867428D01*
X108697428Y-47867428D02*
X108506952Y-47819809D01*
X108506952Y-47819809D02*
X108411714Y-47772190D01*
X108411714Y-47772190D02*
X108364095Y-47724571D01*
X108364095Y-47724571D02*
X108316476Y-47629333D01*
X108316476Y-47629333D02*
X108316476Y-47534095D01*
X108316476Y-47534095D02*
X108364095Y-47438857D01*
X108364095Y-47438857D02*
X108411714Y-47391238D01*
X108411714Y-47391238D02*
X108506952Y-47343619D01*
X108506952Y-47343619D02*
X108745047Y-47343619D01*
X108745047Y-47343619D02*
X108887904Y-47391238D01*
X109316476Y-47343619D02*
X109316476Y-48153142D01*
X109316476Y-48153142D02*
X109364095Y-48248380D01*
X109364095Y-48248380D02*
X109411714Y-48296000D01*
X109411714Y-48296000D02*
X109506952Y-48343619D01*
X109506952Y-48343619D02*
X109697428Y-48343619D01*
X109697428Y-48343619D02*
X109792666Y-48296000D01*
X109792666Y-48296000D02*
X109840285Y-48248380D01*
X109840285Y-48248380D02*
X109887904Y-48153142D01*
X109887904Y-48153142D02*
X109887904Y-47343619D01*
X110364095Y-48343619D02*
X110364095Y-47343619D01*
X110364095Y-47343619D02*
X110745047Y-47343619D01*
X110745047Y-47343619D02*
X110840285Y-47391238D01*
X110840285Y-47391238D02*
X110887904Y-47438857D01*
X110887904Y-47438857D02*
X110935523Y-47534095D01*
X110935523Y-47534095D02*
X110935523Y-47676952D01*
X110935523Y-47676952D02*
X110887904Y-47772190D01*
X110887904Y-47772190D02*
X110840285Y-47819809D01*
X110840285Y-47819809D02*
X110745047Y-47867428D01*
X110745047Y-47867428D02*
X110364095Y-47867428D01*
X111364095Y-48343619D02*
X111364095Y-47343619D01*
X111364095Y-47343619D02*
X111745047Y-47343619D01*
X111745047Y-47343619D02*
X111840285Y-47391238D01*
X111840285Y-47391238D02*
X111887904Y-47438857D01*
X111887904Y-47438857D02*
X111935523Y-47534095D01*
X111935523Y-47534095D02*
X111935523Y-47676952D01*
X111935523Y-47676952D02*
X111887904Y-47772190D01*
X111887904Y-47772190D02*
X111840285Y-47819809D01*
X111840285Y-47819809D02*
X111745047Y-47867428D01*
X111745047Y-47867428D02*
X111364095Y-47867428D01*
X108792667Y-49963619D02*
X108792667Y-48963619D01*
X108792667Y-48963619D02*
X109173619Y-48963619D01*
X109173619Y-48963619D02*
X109268857Y-49011238D01*
X109268857Y-49011238D02*
X109316476Y-49058857D01*
X109316476Y-49058857D02*
X109364095Y-49154095D01*
X109364095Y-49154095D02*
X109364095Y-49296952D01*
X109364095Y-49296952D02*
X109316476Y-49392190D01*
X109316476Y-49392190D02*
X109268857Y-49439809D01*
X109268857Y-49439809D02*
X109173619Y-49487428D01*
X109173619Y-49487428D02*
X108792667Y-49487428D01*
X109697429Y-48963619D02*
X109935524Y-49963619D01*
X109935524Y-49963619D02*
X110126000Y-49249333D01*
X110126000Y-49249333D02*
X110316476Y-49963619D01*
X110316476Y-49963619D02*
X110554572Y-48963619D01*
X111506952Y-49963619D02*
X111173619Y-49487428D01*
X110935524Y-49963619D02*
X110935524Y-48963619D01*
X110935524Y-48963619D02*
X111316476Y-48963619D01*
X111316476Y-48963619D02*
X111411714Y-49011238D01*
X111411714Y-49011238D02*
X111459333Y-49058857D01*
X111459333Y-49058857D02*
X111506952Y-49154095D01*
X111506952Y-49154095D02*
X111506952Y-49296952D01*
X111506952Y-49296952D02*
X111459333Y-49392190D01*
X111459333Y-49392190D02*
X111411714Y-49439809D01*
X111411714Y-49439809D02*
X111316476Y-49487428D01*
X111316476Y-49487428D02*
X110935524Y-49487428D01*
X125556476Y-47089000D02*
X125699333Y-47136619D01*
X125699333Y-47136619D02*
X125937428Y-47136619D01*
X125937428Y-47136619D02*
X126032666Y-47089000D01*
X126032666Y-47089000D02*
X126080285Y-47041380D01*
X126080285Y-47041380D02*
X126127904Y-46946142D01*
X126127904Y-46946142D02*
X126127904Y-46850904D01*
X126127904Y-46850904D02*
X126080285Y-46755666D01*
X126080285Y-46755666D02*
X126032666Y-46708047D01*
X126032666Y-46708047D02*
X125937428Y-46660428D01*
X125937428Y-46660428D02*
X125746952Y-46612809D01*
X125746952Y-46612809D02*
X125651714Y-46565190D01*
X125651714Y-46565190D02*
X125604095Y-46517571D01*
X125604095Y-46517571D02*
X125556476Y-46422333D01*
X125556476Y-46422333D02*
X125556476Y-46327095D01*
X125556476Y-46327095D02*
X125604095Y-46231857D01*
X125604095Y-46231857D02*
X125651714Y-46184238D01*
X125651714Y-46184238D02*
X125746952Y-46136619D01*
X125746952Y-46136619D02*
X125985047Y-46136619D01*
X125985047Y-46136619D02*
X126127904Y-46184238D01*
X126556476Y-46136619D02*
X126556476Y-46946142D01*
X126556476Y-46946142D02*
X126604095Y-47041380D01*
X126604095Y-47041380D02*
X126651714Y-47089000D01*
X126651714Y-47089000D02*
X126746952Y-47136619D01*
X126746952Y-47136619D02*
X126937428Y-47136619D01*
X126937428Y-47136619D02*
X127032666Y-47089000D01*
X127032666Y-47089000D02*
X127080285Y-47041380D01*
X127080285Y-47041380D02*
X127127904Y-46946142D01*
X127127904Y-46946142D02*
X127127904Y-46136619D01*
X127604095Y-47136619D02*
X127604095Y-46136619D01*
X127604095Y-46136619D02*
X127985047Y-46136619D01*
X127985047Y-46136619D02*
X128080285Y-46184238D01*
X128080285Y-46184238D02*
X128127904Y-46231857D01*
X128127904Y-46231857D02*
X128175523Y-46327095D01*
X128175523Y-46327095D02*
X128175523Y-46469952D01*
X128175523Y-46469952D02*
X128127904Y-46565190D01*
X128127904Y-46565190D02*
X128080285Y-46612809D01*
X128080285Y-46612809D02*
X127985047Y-46660428D01*
X127985047Y-46660428D02*
X127604095Y-46660428D01*
X128604095Y-47136619D02*
X128604095Y-46136619D01*
X128604095Y-46136619D02*
X128985047Y-46136619D01*
X128985047Y-46136619D02*
X129080285Y-46184238D01*
X129080285Y-46184238D02*
X129127904Y-46231857D01*
X129127904Y-46231857D02*
X129175523Y-46327095D01*
X129175523Y-46327095D02*
X129175523Y-46469952D01*
X129175523Y-46469952D02*
X129127904Y-46565190D01*
X129127904Y-46565190D02*
X129080285Y-46612809D01*
X129080285Y-46612809D02*
X128985047Y-46660428D01*
X128985047Y-46660428D02*
X128604095Y-46660428D01*
X130366000Y-47136619D02*
X130366000Y-46136619D01*
X130366000Y-46136619D02*
X130699333Y-46850904D01*
X130699333Y-46850904D02*
X131032666Y-46136619D01*
X131032666Y-46136619D02*
X131032666Y-47136619D01*
X131699333Y-46136619D02*
X131889809Y-46136619D01*
X131889809Y-46136619D02*
X131985047Y-46184238D01*
X131985047Y-46184238D02*
X132080285Y-46279476D01*
X132080285Y-46279476D02*
X132127904Y-46469952D01*
X132127904Y-46469952D02*
X132127904Y-46803285D01*
X132127904Y-46803285D02*
X132080285Y-46993761D01*
X132080285Y-46993761D02*
X131985047Y-47089000D01*
X131985047Y-47089000D02*
X131889809Y-47136619D01*
X131889809Y-47136619D02*
X131699333Y-47136619D01*
X131699333Y-47136619D02*
X131604095Y-47089000D01*
X131604095Y-47089000D02*
X131508857Y-46993761D01*
X131508857Y-46993761D02*
X131461238Y-46803285D01*
X131461238Y-46803285D02*
X131461238Y-46469952D01*
X131461238Y-46469952D02*
X131508857Y-46279476D01*
X131508857Y-46279476D02*
X131604095Y-46184238D01*
X131604095Y-46184238D02*
X131699333Y-46136619D01*
X132556476Y-47136619D02*
X132556476Y-46136619D01*
X132556476Y-46136619D02*
X133127904Y-47136619D01*
X133127904Y-47136619D02*
X133127904Y-46136619D01*
X131011904Y-49253333D02*
X130250000Y-49253333D01*
X91568095Y-90984666D02*
X92330000Y-90984666D01*
X91949047Y-91365619D02*
X91949047Y-90603714D01*
X165736095Y-59996666D02*
X166498000Y-59996666D01*
X166117047Y-60377619D02*
X166117047Y-59615714D01*
X166010666Y-67881904D02*
X166010666Y-67120000D01*
X127238095Y-49246666D02*
X128000000Y-49246666D01*
X127619047Y-49627619D02*
X127619047Y-48865714D01*
X141384095Y-48343619D02*
X141384095Y-47343619D01*
X141384095Y-47343619D02*
X141622190Y-47343619D01*
X141622190Y-47343619D02*
X141765047Y-47391238D01*
X141765047Y-47391238D02*
X141860285Y-47486476D01*
X141860285Y-47486476D02*
X141907904Y-47581714D01*
X141907904Y-47581714D02*
X141955523Y-47772190D01*
X141955523Y-47772190D02*
X141955523Y-47915047D01*
X141955523Y-47915047D02*
X141907904Y-48105523D01*
X141907904Y-48105523D02*
X141860285Y-48200761D01*
X141860285Y-48200761D02*
X141765047Y-48296000D01*
X141765047Y-48296000D02*
X141622190Y-48343619D01*
X141622190Y-48343619D02*
X141384095Y-48343619D01*
X142955523Y-48248380D02*
X142907904Y-48296000D01*
X142907904Y-48296000D02*
X142765047Y-48343619D01*
X142765047Y-48343619D02*
X142669809Y-48343619D01*
X142669809Y-48343619D02*
X142526952Y-48296000D01*
X142526952Y-48296000D02*
X142431714Y-48200761D01*
X142431714Y-48200761D02*
X142384095Y-48105523D01*
X142384095Y-48105523D02*
X142336476Y-47915047D01*
X142336476Y-47915047D02*
X142336476Y-47772190D01*
X142336476Y-47772190D02*
X142384095Y-47581714D01*
X142384095Y-47581714D02*
X142431714Y-47486476D01*
X142431714Y-47486476D02*
X142526952Y-47391238D01*
X142526952Y-47391238D02*
X142669809Y-47343619D01*
X142669809Y-47343619D02*
X142765047Y-47343619D01*
X142765047Y-47343619D02*
X142907904Y-47391238D01*
X142907904Y-47391238D02*
X142955523Y-47438857D01*
X143384095Y-48343619D02*
X143384095Y-47343619D01*
X143384095Y-47343619D02*
X143622190Y-47343619D01*
X143622190Y-47343619D02*
X143765047Y-47391238D01*
X143765047Y-47391238D02*
X143860285Y-47486476D01*
X143860285Y-47486476D02*
X143907904Y-47581714D01*
X143907904Y-47581714D02*
X143955523Y-47772190D01*
X143955523Y-47772190D02*
X143955523Y-47915047D01*
X143955523Y-47915047D02*
X143907904Y-48105523D01*
X143907904Y-48105523D02*
X143860285Y-48200761D01*
X143860285Y-48200761D02*
X143765047Y-48296000D01*
X143765047Y-48296000D02*
X143622190Y-48343619D01*
X143622190Y-48343619D02*
X143384095Y-48343619D01*
X144955523Y-48248380D02*
X144907904Y-48296000D01*
X144907904Y-48296000D02*
X144765047Y-48343619D01*
X144765047Y-48343619D02*
X144669809Y-48343619D01*
X144669809Y-48343619D02*
X144526952Y-48296000D01*
X144526952Y-48296000D02*
X144431714Y-48200761D01*
X144431714Y-48200761D02*
X144384095Y-48105523D01*
X144384095Y-48105523D02*
X144336476Y-47915047D01*
X144336476Y-47915047D02*
X144336476Y-47772190D01*
X144336476Y-47772190D02*
X144384095Y-47581714D01*
X144384095Y-47581714D02*
X144431714Y-47486476D01*
X144431714Y-47486476D02*
X144526952Y-47391238D01*
X144526952Y-47391238D02*
X144669809Y-47343619D01*
X144669809Y-47343619D02*
X144765047Y-47343619D01*
X144765047Y-47343619D02*
X144907904Y-47391238D01*
X144907904Y-47391238D02*
X144955523Y-47438857D01*
X141812667Y-49963619D02*
X141812667Y-48963619D01*
X141812667Y-48963619D02*
X142193619Y-48963619D01*
X142193619Y-48963619D02*
X142288857Y-49011238D01*
X142288857Y-49011238D02*
X142336476Y-49058857D01*
X142336476Y-49058857D02*
X142384095Y-49154095D01*
X142384095Y-49154095D02*
X142384095Y-49296952D01*
X142384095Y-49296952D02*
X142336476Y-49392190D01*
X142336476Y-49392190D02*
X142288857Y-49439809D01*
X142288857Y-49439809D02*
X142193619Y-49487428D01*
X142193619Y-49487428D02*
X141812667Y-49487428D01*
X142717429Y-48963619D02*
X142955524Y-49963619D01*
X142955524Y-49963619D02*
X143146000Y-49249333D01*
X143146000Y-49249333D02*
X143336476Y-49963619D01*
X143336476Y-49963619D02*
X143574572Y-48963619D01*
X144526952Y-49963619D02*
X144193619Y-49487428D01*
X143955524Y-49963619D02*
X143955524Y-48963619D01*
X143955524Y-48963619D02*
X144336476Y-48963619D01*
X144336476Y-48963619D02*
X144431714Y-49011238D01*
X144431714Y-49011238D02*
X144479333Y-49058857D01*
X144479333Y-49058857D02*
X144526952Y-49154095D01*
X144526952Y-49154095D02*
X144526952Y-49296952D01*
X144526952Y-49296952D02*
X144479333Y-49392190D01*
X144479333Y-49392190D02*
X144431714Y-49439809D01*
X144431714Y-49439809D02*
X144336476Y-49487428D01*
X144336476Y-49487428D02*
X143955524Y-49487428D01*
X117738095Y-47343619D02*
X118404761Y-47343619D01*
X118404761Y-47343619D02*
X117738095Y-48343619D01*
X117738095Y-48343619D02*
X118404761Y-48343619D01*
X118785714Y-47819809D02*
X119119047Y-47819809D01*
X119261904Y-48343619D02*
X118785714Y-48343619D01*
X118785714Y-48343619D02*
X118785714Y-47343619D01*
X118785714Y-47343619D02*
X119261904Y-47343619D01*
X119690476Y-48343619D02*
X119690476Y-47343619D01*
X119690476Y-47343619D02*
X120261904Y-48343619D01*
X120261904Y-48343619D02*
X120261904Y-47343619D01*
X120738095Y-47819809D02*
X121071428Y-47819809D01*
X121214285Y-48343619D02*
X120738095Y-48343619D01*
X120738095Y-48343619D02*
X120738095Y-47343619D01*
X120738095Y-47343619D02*
X121214285Y-47343619D01*
X122214285Y-48343619D02*
X121880952Y-47867428D01*
X121642857Y-48343619D02*
X121642857Y-47343619D01*
X121642857Y-47343619D02*
X122023809Y-47343619D01*
X122023809Y-47343619D02*
X122119047Y-47391238D01*
X122119047Y-47391238D02*
X122166666Y-47438857D01*
X122166666Y-47438857D02*
X122214285Y-47534095D01*
X122214285Y-47534095D02*
X122214285Y-47676952D01*
X122214285Y-47676952D02*
X122166666Y-47772190D01*
X122166666Y-47772190D02*
X122119047Y-47819809D01*
X122119047Y-47819809D02*
X122023809Y-47867428D01*
X122023809Y-47867428D02*
X121642857Y-47867428D01*
X118999999Y-49011238D02*
X118904761Y-48963619D01*
X118904761Y-48963619D02*
X118761904Y-48963619D01*
X118761904Y-48963619D02*
X118619047Y-49011238D01*
X118619047Y-49011238D02*
X118523809Y-49106476D01*
X118523809Y-49106476D02*
X118476190Y-49201714D01*
X118476190Y-49201714D02*
X118428571Y-49392190D01*
X118428571Y-49392190D02*
X118428571Y-49535047D01*
X118428571Y-49535047D02*
X118476190Y-49725523D01*
X118476190Y-49725523D02*
X118523809Y-49820761D01*
X118523809Y-49820761D02*
X118619047Y-49916000D01*
X118619047Y-49916000D02*
X118761904Y-49963619D01*
X118761904Y-49963619D02*
X118857142Y-49963619D01*
X118857142Y-49963619D02*
X118999999Y-49916000D01*
X118999999Y-49916000D02*
X119047618Y-49868380D01*
X119047618Y-49868380D02*
X119047618Y-49535047D01*
X119047618Y-49535047D02*
X118857142Y-49535047D01*
X119428571Y-49677904D02*
X119904761Y-49677904D01*
X119333333Y-49963619D02*
X119666666Y-48963619D01*
X119666666Y-48963619D02*
X119999999Y-49963619D01*
X120190476Y-48963619D02*
X120761904Y-48963619D01*
X120476190Y-49963619D02*
X120476190Y-48963619D01*
X121095238Y-49439809D02*
X121428571Y-49439809D01*
X121571428Y-49963619D02*
X121095238Y-49963619D01*
X121095238Y-49963619D02*
X121095238Y-48963619D01*
X121095238Y-48963619D02*
X121571428Y-48963619D01*
X114634476Y-108080000D02*
X114777333Y-108127619D01*
X114777333Y-108127619D02*
X115015428Y-108127619D01*
X115015428Y-108127619D02*
X115110666Y-108080000D01*
X115110666Y-108080000D02*
X115158285Y-108032380D01*
X115158285Y-108032380D02*
X115205904Y-107937142D01*
X115205904Y-107937142D02*
X115205904Y-107841904D01*
X115205904Y-107841904D02*
X115158285Y-107746666D01*
X115158285Y-107746666D02*
X115110666Y-107699047D01*
X115110666Y-107699047D02*
X115015428Y-107651428D01*
X115015428Y-107651428D02*
X114824952Y-107603809D01*
X114824952Y-107603809D02*
X114729714Y-107556190D01*
X114729714Y-107556190D02*
X114682095Y-107508571D01*
X114682095Y-107508571D02*
X114634476Y-107413333D01*
X114634476Y-107413333D02*
X114634476Y-107318095D01*
X114634476Y-107318095D02*
X114682095Y-107222857D01*
X114682095Y-107222857D02*
X114729714Y-107175238D01*
X114729714Y-107175238D02*
X114824952Y-107127619D01*
X114824952Y-107127619D02*
X115063047Y-107127619D01*
X115063047Y-107127619D02*
X115205904Y-107175238D01*
X115634476Y-107127619D02*
X115634476Y-107937142D01*
X115634476Y-107937142D02*
X115682095Y-108032380D01*
X115682095Y-108032380D02*
X115729714Y-108080000D01*
X115729714Y-108080000D02*
X115824952Y-108127619D01*
X115824952Y-108127619D02*
X116015428Y-108127619D01*
X116015428Y-108127619D02*
X116110666Y-108080000D01*
X116110666Y-108080000D02*
X116158285Y-108032380D01*
X116158285Y-108032380D02*
X116205904Y-107937142D01*
X116205904Y-107937142D02*
X116205904Y-107127619D01*
X116682095Y-108127619D02*
X116682095Y-107127619D01*
X116682095Y-107127619D02*
X117063047Y-107127619D01*
X117063047Y-107127619D02*
X117158285Y-107175238D01*
X117158285Y-107175238D02*
X117205904Y-107222857D01*
X117205904Y-107222857D02*
X117253523Y-107318095D01*
X117253523Y-107318095D02*
X117253523Y-107460952D01*
X117253523Y-107460952D02*
X117205904Y-107556190D01*
X117205904Y-107556190D02*
X117158285Y-107603809D01*
X117158285Y-107603809D02*
X117063047Y-107651428D01*
X117063047Y-107651428D02*
X116682095Y-107651428D01*
X117682095Y-108127619D02*
X117682095Y-107127619D01*
X117682095Y-107127619D02*
X118063047Y-107127619D01*
X118063047Y-107127619D02*
X118158285Y-107175238D01*
X118158285Y-107175238D02*
X118205904Y-107222857D01*
X118205904Y-107222857D02*
X118253523Y-107318095D01*
X118253523Y-107318095D02*
X118253523Y-107460952D01*
X118253523Y-107460952D02*
X118205904Y-107556190D01*
X118205904Y-107556190D02*
X118158285Y-107603809D01*
X118158285Y-107603809D02*
X118063047Y-107651428D01*
X118063047Y-107651428D02*
X117682095Y-107651428D01*
X119634476Y-107127619D02*
X119824952Y-107127619D01*
X119824952Y-107127619D02*
X119920190Y-107175238D01*
X119920190Y-107175238D02*
X120015428Y-107270476D01*
X120015428Y-107270476D02*
X120063047Y-107460952D01*
X120063047Y-107460952D02*
X120063047Y-107794285D01*
X120063047Y-107794285D02*
X120015428Y-107984761D01*
X120015428Y-107984761D02*
X119920190Y-108080000D01*
X119920190Y-108080000D02*
X119824952Y-108127619D01*
X119824952Y-108127619D02*
X119634476Y-108127619D01*
X119634476Y-108127619D02*
X119539238Y-108080000D01*
X119539238Y-108080000D02*
X119444000Y-107984761D01*
X119444000Y-107984761D02*
X119396381Y-107794285D01*
X119396381Y-107794285D02*
X119396381Y-107460952D01*
X119396381Y-107460952D02*
X119444000Y-107270476D01*
X119444000Y-107270476D02*
X119539238Y-107175238D01*
X119539238Y-107175238D02*
X119634476Y-107127619D01*
X120491619Y-107127619D02*
X120491619Y-107937142D01*
X120491619Y-107937142D02*
X120539238Y-108032380D01*
X120539238Y-108032380D02*
X120586857Y-108080000D01*
X120586857Y-108080000D02*
X120682095Y-108127619D01*
X120682095Y-108127619D02*
X120872571Y-108127619D01*
X120872571Y-108127619D02*
X120967809Y-108080000D01*
X120967809Y-108080000D02*
X121015428Y-108032380D01*
X121015428Y-108032380D02*
X121063047Y-107937142D01*
X121063047Y-107937142D02*
X121063047Y-107127619D01*
X121396381Y-107127619D02*
X121967809Y-107127619D01*
X121682095Y-108127619D02*
X121682095Y-107127619D01*
X117011904Y-104753333D02*
X116250000Y-104753333D01*
X136050095Y-48343619D02*
X136050095Y-47343619D01*
X136050095Y-47343619D02*
X136288190Y-47343619D01*
X136288190Y-47343619D02*
X136431047Y-47391238D01*
X136431047Y-47391238D02*
X136526285Y-47486476D01*
X136526285Y-47486476D02*
X136573904Y-47581714D01*
X136573904Y-47581714D02*
X136621523Y-47772190D01*
X136621523Y-47772190D02*
X136621523Y-47915047D01*
X136621523Y-47915047D02*
X136573904Y-48105523D01*
X136573904Y-48105523D02*
X136526285Y-48200761D01*
X136526285Y-48200761D02*
X136431047Y-48296000D01*
X136431047Y-48296000D02*
X136288190Y-48343619D01*
X136288190Y-48343619D02*
X136050095Y-48343619D01*
X137621523Y-48248380D02*
X137573904Y-48296000D01*
X137573904Y-48296000D02*
X137431047Y-48343619D01*
X137431047Y-48343619D02*
X137335809Y-48343619D01*
X137335809Y-48343619D02*
X137192952Y-48296000D01*
X137192952Y-48296000D02*
X137097714Y-48200761D01*
X137097714Y-48200761D02*
X137050095Y-48105523D01*
X137050095Y-48105523D02*
X137002476Y-47915047D01*
X137002476Y-47915047D02*
X137002476Y-47772190D01*
X137002476Y-47772190D02*
X137050095Y-47581714D01*
X137050095Y-47581714D02*
X137097714Y-47486476D01*
X137097714Y-47486476D02*
X137192952Y-47391238D01*
X137192952Y-47391238D02*
X137335809Y-47343619D01*
X137335809Y-47343619D02*
X137431047Y-47343619D01*
X137431047Y-47343619D02*
X137573904Y-47391238D01*
X137573904Y-47391238D02*
X137621523Y-47438857D01*
X138050095Y-48343619D02*
X138050095Y-47343619D01*
X138050095Y-47343619D02*
X138288190Y-47343619D01*
X138288190Y-47343619D02*
X138431047Y-47391238D01*
X138431047Y-47391238D02*
X138526285Y-47486476D01*
X138526285Y-47486476D02*
X138573904Y-47581714D01*
X138573904Y-47581714D02*
X138621523Y-47772190D01*
X138621523Y-47772190D02*
X138621523Y-47915047D01*
X138621523Y-47915047D02*
X138573904Y-48105523D01*
X138573904Y-48105523D02*
X138526285Y-48200761D01*
X138526285Y-48200761D02*
X138431047Y-48296000D01*
X138431047Y-48296000D02*
X138288190Y-48343619D01*
X138288190Y-48343619D02*
X138050095Y-48343619D01*
X139621523Y-48248380D02*
X139573904Y-48296000D01*
X139573904Y-48296000D02*
X139431047Y-48343619D01*
X139431047Y-48343619D02*
X139335809Y-48343619D01*
X139335809Y-48343619D02*
X139192952Y-48296000D01*
X139192952Y-48296000D02*
X139097714Y-48200761D01*
X139097714Y-48200761D02*
X139050095Y-48105523D01*
X139050095Y-48105523D02*
X139002476Y-47915047D01*
X139002476Y-47915047D02*
X139002476Y-47772190D01*
X139002476Y-47772190D02*
X139050095Y-47581714D01*
X139050095Y-47581714D02*
X139097714Y-47486476D01*
X139097714Y-47486476D02*
X139192952Y-47391238D01*
X139192952Y-47391238D02*
X139335809Y-47343619D01*
X139335809Y-47343619D02*
X139431047Y-47343619D01*
X139431047Y-47343619D02*
X139573904Y-47391238D01*
X139573904Y-47391238D02*
X139621523Y-47438857D01*
X136811999Y-49011238D02*
X136716761Y-48963619D01*
X136716761Y-48963619D02*
X136573904Y-48963619D01*
X136573904Y-48963619D02*
X136431047Y-49011238D01*
X136431047Y-49011238D02*
X136335809Y-49106476D01*
X136335809Y-49106476D02*
X136288190Y-49201714D01*
X136288190Y-49201714D02*
X136240571Y-49392190D01*
X136240571Y-49392190D02*
X136240571Y-49535047D01*
X136240571Y-49535047D02*
X136288190Y-49725523D01*
X136288190Y-49725523D02*
X136335809Y-49820761D01*
X136335809Y-49820761D02*
X136431047Y-49916000D01*
X136431047Y-49916000D02*
X136573904Y-49963619D01*
X136573904Y-49963619D02*
X136669142Y-49963619D01*
X136669142Y-49963619D02*
X136811999Y-49916000D01*
X136811999Y-49916000D02*
X136859618Y-49868380D01*
X136859618Y-49868380D02*
X136859618Y-49535047D01*
X136859618Y-49535047D02*
X136669142Y-49535047D01*
X137240571Y-49677904D02*
X137716761Y-49677904D01*
X137145333Y-49963619D02*
X137478666Y-48963619D01*
X137478666Y-48963619D02*
X137811999Y-49963619D01*
X138002476Y-48963619D02*
X138573904Y-48963619D01*
X138288190Y-49963619D02*
X138288190Y-48963619D01*
X138907238Y-49439809D02*
X139240571Y-49439809D01*
X139383428Y-49963619D02*
X138907238Y-49963619D01*
X138907238Y-49963619D02*
X138907238Y-48963619D01*
X138907238Y-48963619D02*
X139383428Y-48963619D01*
X145956095Y-58757619D02*
X145956095Y-57757619D01*
X145956095Y-57757619D02*
X146194190Y-57757619D01*
X146194190Y-57757619D02*
X146337047Y-57805238D01*
X146337047Y-57805238D02*
X146432285Y-57900476D01*
X146432285Y-57900476D02*
X146479904Y-57995714D01*
X146479904Y-57995714D02*
X146527523Y-58186190D01*
X146527523Y-58186190D02*
X146527523Y-58329047D01*
X146527523Y-58329047D02*
X146479904Y-58519523D01*
X146479904Y-58519523D02*
X146432285Y-58614761D01*
X146432285Y-58614761D02*
X146337047Y-58710000D01*
X146337047Y-58710000D02*
X146194190Y-58757619D01*
X146194190Y-58757619D02*
X145956095Y-58757619D01*
X147527523Y-58662380D02*
X147479904Y-58710000D01*
X147479904Y-58710000D02*
X147337047Y-58757619D01*
X147337047Y-58757619D02*
X147241809Y-58757619D01*
X147241809Y-58757619D02*
X147098952Y-58710000D01*
X147098952Y-58710000D02*
X147003714Y-58614761D01*
X147003714Y-58614761D02*
X146956095Y-58519523D01*
X146956095Y-58519523D02*
X146908476Y-58329047D01*
X146908476Y-58329047D02*
X146908476Y-58186190D01*
X146908476Y-58186190D02*
X146956095Y-57995714D01*
X146956095Y-57995714D02*
X147003714Y-57900476D01*
X147003714Y-57900476D02*
X147098952Y-57805238D01*
X147098952Y-57805238D02*
X147241809Y-57757619D01*
X147241809Y-57757619D02*
X147337047Y-57757619D01*
X147337047Y-57757619D02*
X147479904Y-57805238D01*
X147479904Y-57805238D02*
X147527523Y-57852857D01*
X147956095Y-58757619D02*
X147956095Y-57757619D01*
X147956095Y-57757619D02*
X148194190Y-57757619D01*
X148194190Y-57757619D02*
X148337047Y-57805238D01*
X148337047Y-57805238D02*
X148432285Y-57900476D01*
X148432285Y-57900476D02*
X148479904Y-57995714D01*
X148479904Y-57995714D02*
X148527523Y-58186190D01*
X148527523Y-58186190D02*
X148527523Y-58329047D01*
X148527523Y-58329047D02*
X148479904Y-58519523D01*
X148479904Y-58519523D02*
X148432285Y-58614761D01*
X148432285Y-58614761D02*
X148337047Y-58710000D01*
X148337047Y-58710000D02*
X148194190Y-58757619D01*
X148194190Y-58757619D02*
X147956095Y-58757619D01*
X149527523Y-58662380D02*
X149479904Y-58710000D01*
X149479904Y-58710000D02*
X149337047Y-58757619D01*
X149337047Y-58757619D02*
X149241809Y-58757619D01*
X149241809Y-58757619D02*
X149098952Y-58710000D01*
X149098952Y-58710000D02*
X149003714Y-58614761D01*
X149003714Y-58614761D02*
X148956095Y-58519523D01*
X148956095Y-58519523D02*
X148908476Y-58329047D01*
X148908476Y-58329047D02*
X148908476Y-58186190D01*
X148908476Y-58186190D02*
X148956095Y-57995714D01*
X148956095Y-57995714D02*
X149003714Y-57900476D01*
X149003714Y-57900476D02*
X149098952Y-57805238D01*
X149098952Y-57805238D02*
X149241809Y-57757619D01*
X149241809Y-57757619D02*
X149337047Y-57757619D01*
X149337047Y-57757619D02*
X149479904Y-57805238D01*
X149479904Y-57805238D02*
X149527523Y-57852857D01*
X146384667Y-60377619D02*
X146384667Y-59377619D01*
X146384667Y-59377619D02*
X146765619Y-59377619D01*
X146765619Y-59377619D02*
X146860857Y-59425238D01*
X146860857Y-59425238D02*
X146908476Y-59472857D01*
X146908476Y-59472857D02*
X146956095Y-59568095D01*
X146956095Y-59568095D02*
X146956095Y-59710952D01*
X146956095Y-59710952D02*
X146908476Y-59806190D01*
X146908476Y-59806190D02*
X146860857Y-59853809D01*
X146860857Y-59853809D02*
X146765619Y-59901428D01*
X146765619Y-59901428D02*
X146384667Y-59901428D01*
X147289429Y-59377619D02*
X147527524Y-60377619D01*
X147527524Y-60377619D02*
X147718000Y-59663333D01*
X147718000Y-59663333D02*
X147908476Y-60377619D01*
X147908476Y-60377619D02*
X148146572Y-59377619D01*
X149098952Y-60377619D02*
X148765619Y-59901428D01*
X148527524Y-60377619D02*
X148527524Y-59377619D01*
X148527524Y-59377619D02*
X148908476Y-59377619D01*
X148908476Y-59377619D02*
X149003714Y-59425238D01*
X149003714Y-59425238D02*
X149051333Y-59472857D01*
X149051333Y-59472857D02*
X149098952Y-59568095D01*
X149098952Y-59568095D02*
X149098952Y-59710952D01*
X149098952Y-59710952D02*
X149051333Y-59806190D01*
X149051333Y-59806190D02*
X149003714Y-59853809D01*
X149003714Y-59853809D02*
X148908476Y-59901428D01*
X148908476Y-59901428D02*
X148527524Y-59901428D01*
X167922190Y-84693428D02*
X167922190Y-84360095D01*
X167398380Y-84360095D02*
X168398380Y-84360095D01*
X168398380Y-84360095D02*
X168398380Y-84836285D01*
X168398380Y-85217238D02*
X167588857Y-85217238D01*
X167588857Y-85217238D02*
X167493619Y-85264857D01*
X167493619Y-85264857D02*
X167446000Y-85312476D01*
X167446000Y-85312476D02*
X167398380Y-85407714D01*
X167398380Y-85407714D02*
X167398380Y-85598190D01*
X167398380Y-85598190D02*
X167446000Y-85693428D01*
X167446000Y-85693428D02*
X167493619Y-85741047D01*
X167493619Y-85741047D02*
X167588857Y-85788666D01*
X167588857Y-85788666D02*
X168398380Y-85788666D01*
X167446000Y-86217238D02*
X167398380Y-86360095D01*
X167398380Y-86360095D02*
X167398380Y-86598190D01*
X167398380Y-86598190D02*
X167446000Y-86693428D01*
X167446000Y-86693428D02*
X167493619Y-86741047D01*
X167493619Y-86741047D02*
X167588857Y-86788666D01*
X167588857Y-86788666D02*
X167684095Y-86788666D01*
X167684095Y-86788666D02*
X167779333Y-86741047D01*
X167779333Y-86741047D02*
X167826952Y-86693428D01*
X167826952Y-86693428D02*
X167874571Y-86598190D01*
X167874571Y-86598190D02*
X167922190Y-86407714D01*
X167922190Y-86407714D02*
X167969809Y-86312476D01*
X167969809Y-86312476D02*
X168017428Y-86264857D01*
X168017428Y-86264857D02*
X168112666Y-86217238D01*
X168112666Y-86217238D02*
X168207904Y-86217238D01*
X168207904Y-86217238D02*
X168303142Y-86264857D01*
X168303142Y-86264857D02*
X168350761Y-86312476D01*
X168350761Y-86312476D02*
X168398380Y-86407714D01*
X168398380Y-86407714D02*
X168398380Y-86645809D01*
X168398380Y-86645809D02*
X168350761Y-86788666D01*
X167922190Y-87217238D02*
X167922190Y-87550571D01*
X167398380Y-87693428D02*
X167398380Y-87217238D01*
X167398380Y-87217238D02*
X168398380Y-87217238D01*
X168398380Y-87217238D02*
X168398380Y-87693428D01*
X168398380Y-89074381D02*
X168398380Y-89264857D01*
X168398380Y-89264857D02*
X168350761Y-89360095D01*
X168350761Y-89360095D02*
X168255523Y-89455333D01*
X168255523Y-89455333D02*
X168065047Y-89502952D01*
X168065047Y-89502952D02*
X167731714Y-89502952D01*
X167731714Y-89502952D02*
X167541238Y-89455333D01*
X167541238Y-89455333D02*
X167446000Y-89360095D01*
X167446000Y-89360095D02*
X167398380Y-89264857D01*
X167398380Y-89264857D02*
X167398380Y-89074381D01*
X167398380Y-89074381D02*
X167446000Y-88979143D01*
X167446000Y-88979143D02*
X167541238Y-88883905D01*
X167541238Y-88883905D02*
X167731714Y-88836286D01*
X167731714Y-88836286D02*
X168065047Y-88836286D01*
X168065047Y-88836286D02*
X168255523Y-88883905D01*
X168255523Y-88883905D02*
X168350761Y-88979143D01*
X168350761Y-88979143D02*
X168398380Y-89074381D01*
X168398380Y-89931524D02*
X167588857Y-89931524D01*
X167588857Y-89931524D02*
X167493619Y-89979143D01*
X167493619Y-89979143D02*
X167446000Y-90026762D01*
X167446000Y-90026762D02*
X167398380Y-90122000D01*
X167398380Y-90122000D02*
X167398380Y-90312476D01*
X167398380Y-90312476D02*
X167446000Y-90407714D01*
X167446000Y-90407714D02*
X167493619Y-90455333D01*
X167493619Y-90455333D02*
X167588857Y-90502952D01*
X167588857Y-90502952D02*
X168398380Y-90502952D01*
X168398380Y-90836286D02*
X168398380Y-91407714D01*
X167398380Y-91122000D02*
X168398380Y-91122000D01*
X139511904Y-104753333D02*
X138750000Y-104753333D01*
X167398380Y-59784095D02*
X168398380Y-59784095D01*
X168398380Y-59784095D02*
X168398380Y-60022190D01*
X168398380Y-60022190D02*
X168350761Y-60165047D01*
X168350761Y-60165047D02*
X168255523Y-60260285D01*
X168255523Y-60260285D02*
X168160285Y-60307904D01*
X168160285Y-60307904D02*
X167969809Y-60355523D01*
X167969809Y-60355523D02*
X167826952Y-60355523D01*
X167826952Y-60355523D02*
X167636476Y-60307904D01*
X167636476Y-60307904D02*
X167541238Y-60260285D01*
X167541238Y-60260285D02*
X167446000Y-60165047D01*
X167446000Y-60165047D02*
X167398380Y-60022190D01*
X167398380Y-60022190D02*
X167398380Y-59784095D01*
X167493619Y-61355523D02*
X167446000Y-61307904D01*
X167446000Y-61307904D02*
X167398380Y-61165047D01*
X167398380Y-61165047D02*
X167398380Y-61069809D01*
X167398380Y-61069809D02*
X167446000Y-60926952D01*
X167446000Y-60926952D02*
X167541238Y-60831714D01*
X167541238Y-60831714D02*
X167636476Y-60784095D01*
X167636476Y-60784095D02*
X167826952Y-60736476D01*
X167826952Y-60736476D02*
X167969809Y-60736476D01*
X167969809Y-60736476D02*
X168160285Y-60784095D01*
X168160285Y-60784095D02*
X168255523Y-60831714D01*
X168255523Y-60831714D02*
X168350761Y-60926952D01*
X168350761Y-60926952D02*
X168398380Y-61069809D01*
X168398380Y-61069809D02*
X168398380Y-61165047D01*
X168398380Y-61165047D02*
X168350761Y-61307904D01*
X168350761Y-61307904D02*
X168303142Y-61355523D01*
X167398380Y-61784095D02*
X168398380Y-61784095D01*
X168398380Y-61784095D02*
X168398380Y-62022190D01*
X168398380Y-62022190D02*
X168350761Y-62165047D01*
X168350761Y-62165047D02*
X168255523Y-62260285D01*
X168255523Y-62260285D02*
X168160285Y-62307904D01*
X168160285Y-62307904D02*
X167969809Y-62355523D01*
X167969809Y-62355523D02*
X167826952Y-62355523D01*
X167826952Y-62355523D02*
X167636476Y-62307904D01*
X167636476Y-62307904D02*
X167541238Y-62260285D01*
X167541238Y-62260285D02*
X167446000Y-62165047D01*
X167446000Y-62165047D02*
X167398380Y-62022190D01*
X167398380Y-62022190D02*
X167398380Y-61784095D01*
X167493619Y-63355523D02*
X167446000Y-63307904D01*
X167446000Y-63307904D02*
X167398380Y-63165047D01*
X167398380Y-63165047D02*
X167398380Y-63069809D01*
X167398380Y-63069809D02*
X167446000Y-62926952D01*
X167446000Y-62926952D02*
X167541238Y-62831714D01*
X167541238Y-62831714D02*
X167636476Y-62784095D01*
X167636476Y-62784095D02*
X167826952Y-62736476D01*
X167826952Y-62736476D02*
X167969809Y-62736476D01*
X167969809Y-62736476D02*
X168160285Y-62784095D01*
X168160285Y-62784095D02*
X168255523Y-62831714D01*
X168255523Y-62831714D02*
X168350761Y-62926952D01*
X168350761Y-62926952D02*
X168398380Y-63069809D01*
X168398380Y-63069809D02*
X168398380Y-63165047D01*
X168398380Y-63165047D02*
X168350761Y-63307904D01*
X168350761Y-63307904D02*
X168303142Y-63355523D01*
X167398380Y-64546000D02*
X168398380Y-64546000D01*
X168398380Y-64546000D02*
X168398380Y-64926952D01*
X168398380Y-64926952D02*
X168350761Y-65022190D01*
X168350761Y-65022190D02*
X168303142Y-65069809D01*
X168303142Y-65069809D02*
X168207904Y-65117428D01*
X168207904Y-65117428D02*
X168065047Y-65117428D01*
X168065047Y-65117428D02*
X167969809Y-65069809D01*
X167969809Y-65069809D02*
X167922190Y-65022190D01*
X167922190Y-65022190D02*
X167874571Y-64926952D01*
X167874571Y-64926952D02*
X167874571Y-64546000D01*
X168398380Y-65450762D02*
X167398380Y-65688857D01*
X167398380Y-65688857D02*
X168112666Y-65879333D01*
X168112666Y-65879333D02*
X167398380Y-66069809D01*
X167398380Y-66069809D02*
X168398380Y-66307905D01*
X167398380Y-67260285D02*
X167874571Y-66926952D01*
X167398380Y-66688857D02*
X168398380Y-66688857D01*
X168398380Y-66688857D02*
X168398380Y-67069809D01*
X168398380Y-67069809D02*
X168350761Y-67165047D01*
X168350761Y-67165047D02*
X168303142Y-67212666D01*
X168303142Y-67212666D02*
X168207904Y-67260285D01*
X168207904Y-67260285D02*
X168065047Y-67260285D01*
X168065047Y-67260285D02*
X167969809Y-67212666D01*
X167969809Y-67212666D02*
X167922190Y-67165047D01*
X167922190Y-67165047D02*
X167874571Y-67069809D01*
X167874571Y-67069809D02*
X167874571Y-66688857D01*
X92096666Y-84137904D02*
X92096666Y-83376000D01*
X165736095Y-84126666D02*
X166498000Y-84126666D01*
X166117047Y-84507619D02*
X166117047Y-83745714D01*
X91568095Y-67616666D02*
X92330000Y-67616666D01*
X91949047Y-67997619D02*
X91949047Y-67235714D01*
X119738095Y-104746666D02*
X120500000Y-104746666D01*
X120119047Y-105127619D02*
X120119047Y-104365714D01*
X108824476Y-59218000D02*
X108967333Y-59265619D01*
X108967333Y-59265619D02*
X109205428Y-59265619D01*
X109205428Y-59265619D02*
X109300666Y-59218000D01*
X109300666Y-59218000D02*
X109348285Y-59170380D01*
X109348285Y-59170380D02*
X109395904Y-59075142D01*
X109395904Y-59075142D02*
X109395904Y-58979904D01*
X109395904Y-58979904D02*
X109348285Y-58884666D01*
X109348285Y-58884666D02*
X109300666Y-58837047D01*
X109300666Y-58837047D02*
X109205428Y-58789428D01*
X109205428Y-58789428D02*
X109014952Y-58741809D01*
X109014952Y-58741809D02*
X108919714Y-58694190D01*
X108919714Y-58694190D02*
X108872095Y-58646571D01*
X108872095Y-58646571D02*
X108824476Y-58551333D01*
X108824476Y-58551333D02*
X108824476Y-58456095D01*
X108824476Y-58456095D02*
X108872095Y-58360857D01*
X108872095Y-58360857D02*
X108919714Y-58313238D01*
X108919714Y-58313238D02*
X109014952Y-58265619D01*
X109014952Y-58265619D02*
X109253047Y-58265619D01*
X109253047Y-58265619D02*
X109395904Y-58313238D01*
X109824476Y-58265619D02*
X109824476Y-59075142D01*
X109824476Y-59075142D02*
X109872095Y-59170380D01*
X109872095Y-59170380D02*
X109919714Y-59218000D01*
X109919714Y-59218000D02*
X110014952Y-59265619D01*
X110014952Y-59265619D02*
X110205428Y-59265619D01*
X110205428Y-59265619D02*
X110300666Y-59218000D01*
X110300666Y-59218000D02*
X110348285Y-59170380D01*
X110348285Y-59170380D02*
X110395904Y-59075142D01*
X110395904Y-59075142D02*
X110395904Y-58265619D01*
X110872095Y-59265619D02*
X110872095Y-58265619D01*
X110872095Y-58265619D02*
X111253047Y-58265619D01*
X111253047Y-58265619D02*
X111348285Y-58313238D01*
X111348285Y-58313238D02*
X111395904Y-58360857D01*
X111395904Y-58360857D02*
X111443523Y-58456095D01*
X111443523Y-58456095D02*
X111443523Y-58598952D01*
X111443523Y-58598952D02*
X111395904Y-58694190D01*
X111395904Y-58694190D02*
X111348285Y-58741809D01*
X111348285Y-58741809D02*
X111253047Y-58789428D01*
X111253047Y-58789428D02*
X110872095Y-58789428D01*
X111872095Y-59265619D02*
X111872095Y-58265619D01*
X111872095Y-58265619D02*
X112253047Y-58265619D01*
X112253047Y-58265619D02*
X112348285Y-58313238D01*
X112348285Y-58313238D02*
X112395904Y-58360857D01*
X112395904Y-58360857D02*
X112443523Y-58456095D01*
X112443523Y-58456095D02*
X112443523Y-58598952D01*
X112443523Y-58598952D02*
X112395904Y-58694190D01*
X112395904Y-58694190D02*
X112348285Y-58741809D01*
X112348285Y-58741809D02*
X112253047Y-58789428D01*
X112253047Y-58789428D02*
X111872095Y-58789428D01*
X109300667Y-60885619D02*
X109300667Y-59885619D01*
X109300667Y-59885619D02*
X109681619Y-59885619D01*
X109681619Y-59885619D02*
X109776857Y-59933238D01*
X109776857Y-59933238D02*
X109824476Y-59980857D01*
X109824476Y-59980857D02*
X109872095Y-60076095D01*
X109872095Y-60076095D02*
X109872095Y-60218952D01*
X109872095Y-60218952D02*
X109824476Y-60314190D01*
X109824476Y-60314190D02*
X109776857Y-60361809D01*
X109776857Y-60361809D02*
X109681619Y-60409428D01*
X109681619Y-60409428D02*
X109300667Y-60409428D01*
X110205429Y-59885619D02*
X110443524Y-60885619D01*
X110443524Y-60885619D02*
X110634000Y-60171333D01*
X110634000Y-60171333D02*
X110824476Y-60885619D01*
X110824476Y-60885619D02*
X111062572Y-59885619D01*
X112014952Y-60885619D02*
X111681619Y-60409428D01*
X111443524Y-60885619D02*
X111443524Y-59885619D01*
X111443524Y-59885619D02*
X111824476Y-59885619D01*
X111824476Y-59885619D02*
X111919714Y-59933238D01*
X111919714Y-59933238D02*
X111967333Y-59980857D01*
X111967333Y-59980857D02*
X112014952Y-60076095D01*
X112014952Y-60076095D02*
X112014952Y-60218952D01*
X112014952Y-60218952D02*
X111967333Y-60314190D01*
X111967333Y-60314190D02*
X111919714Y-60361809D01*
X111919714Y-60361809D02*
X111824476Y-60409428D01*
X111824476Y-60409428D02*
X111443524Y-60409428D01*
X113317476Y-48296000D02*
X113460333Y-48343619D01*
X113460333Y-48343619D02*
X113698428Y-48343619D01*
X113698428Y-48343619D02*
X113793666Y-48296000D01*
X113793666Y-48296000D02*
X113841285Y-48248380D01*
X113841285Y-48248380D02*
X113888904Y-48153142D01*
X113888904Y-48153142D02*
X113888904Y-48057904D01*
X113888904Y-48057904D02*
X113841285Y-47962666D01*
X113841285Y-47962666D02*
X113793666Y-47915047D01*
X113793666Y-47915047D02*
X113698428Y-47867428D01*
X113698428Y-47867428D02*
X113507952Y-47819809D01*
X113507952Y-47819809D02*
X113412714Y-47772190D01*
X113412714Y-47772190D02*
X113365095Y-47724571D01*
X113365095Y-47724571D02*
X113317476Y-47629333D01*
X113317476Y-47629333D02*
X113317476Y-47534095D01*
X113317476Y-47534095D02*
X113365095Y-47438857D01*
X113365095Y-47438857D02*
X113412714Y-47391238D01*
X113412714Y-47391238D02*
X113507952Y-47343619D01*
X113507952Y-47343619D02*
X113746047Y-47343619D01*
X113746047Y-47343619D02*
X113888904Y-47391238D01*
X114317476Y-47343619D02*
X114317476Y-48153142D01*
X114317476Y-48153142D02*
X114365095Y-48248380D01*
X114365095Y-48248380D02*
X114412714Y-48296000D01*
X114412714Y-48296000D02*
X114507952Y-48343619D01*
X114507952Y-48343619D02*
X114698428Y-48343619D01*
X114698428Y-48343619D02*
X114793666Y-48296000D01*
X114793666Y-48296000D02*
X114841285Y-48248380D01*
X114841285Y-48248380D02*
X114888904Y-48153142D01*
X114888904Y-48153142D02*
X114888904Y-47343619D01*
X115365095Y-48343619D02*
X115365095Y-47343619D01*
X115365095Y-47343619D02*
X115746047Y-47343619D01*
X115746047Y-47343619D02*
X115841285Y-47391238D01*
X115841285Y-47391238D02*
X115888904Y-47438857D01*
X115888904Y-47438857D02*
X115936523Y-47534095D01*
X115936523Y-47534095D02*
X115936523Y-47676952D01*
X115936523Y-47676952D02*
X115888904Y-47772190D01*
X115888904Y-47772190D02*
X115841285Y-47819809D01*
X115841285Y-47819809D02*
X115746047Y-47867428D01*
X115746047Y-47867428D02*
X115365095Y-47867428D01*
X116365095Y-48343619D02*
X116365095Y-47343619D01*
X116365095Y-47343619D02*
X116746047Y-47343619D01*
X116746047Y-47343619D02*
X116841285Y-47391238D01*
X116841285Y-47391238D02*
X116888904Y-47438857D01*
X116888904Y-47438857D02*
X116936523Y-47534095D01*
X116936523Y-47534095D02*
X116936523Y-47676952D01*
X116936523Y-47676952D02*
X116888904Y-47772190D01*
X116888904Y-47772190D02*
X116841285Y-47819809D01*
X116841285Y-47819809D02*
X116746047Y-47867428D01*
X116746047Y-47867428D02*
X116365095Y-47867428D01*
X114126999Y-49011238D02*
X114031761Y-48963619D01*
X114031761Y-48963619D02*
X113888904Y-48963619D01*
X113888904Y-48963619D02*
X113746047Y-49011238D01*
X113746047Y-49011238D02*
X113650809Y-49106476D01*
X113650809Y-49106476D02*
X113603190Y-49201714D01*
X113603190Y-49201714D02*
X113555571Y-49392190D01*
X113555571Y-49392190D02*
X113555571Y-49535047D01*
X113555571Y-49535047D02*
X113603190Y-49725523D01*
X113603190Y-49725523D02*
X113650809Y-49820761D01*
X113650809Y-49820761D02*
X113746047Y-49916000D01*
X113746047Y-49916000D02*
X113888904Y-49963619D01*
X113888904Y-49963619D02*
X113984142Y-49963619D01*
X113984142Y-49963619D02*
X114126999Y-49916000D01*
X114126999Y-49916000D02*
X114174618Y-49868380D01*
X114174618Y-49868380D02*
X114174618Y-49535047D01*
X114174618Y-49535047D02*
X113984142Y-49535047D01*
X114555571Y-49677904D02*
X115031761Y-49677904D01*
X114460333Y-49963619D02*
X114793666Y-48963619D01*
X114793666Y-48963619D02*
X115126999Y-49963619D01*
X115317476Y-48963619D02*
X115888904Y-48963619D01*
X115603190Y-49963619D02*
X115603190Y-48963619D01*
X116222238Y-49439809D02*
X116555571Y-49439809D01*
X116698428Y-49963619D02*
X116222238Y-49963619D01*
X116222238Y-49963619D02*
X116222238Y-48963619D01*
X116222238Y-48963619D02*
X116698428Y-48963619D01*
X141738095Y-104746666D02*
X142500000Y-104746666D01*
X142119047Y-105127619D02*
X142119047Y-104365714D01*
X90830000Y-92059523D02*
X90877619Y-91916666D01*
X90877619Y-91916666D02*
X90877619Y-91678571D01*
X90877619Y-91678571D02*
X90830000Y-91583333D01*
X90830000Y-91583333D02*
X90782380Y-91535714D01*
X90782380Y-91535714D02*
X90687142Y-91488095D01*
X90687142Y-91488095D02*
X90591904Y-91488095D01*
X90591904Y-91488095D02*
X90496666Y-91535714D01*
X90496666Y-91535714D02*
X90449047Y-91583333D01*
X90449047Y-91583333D02*
X90401428Y-91678571D01*
X90401428Y-91678571D02*
X90353809Y-91869047D01*
X90353809Y-91869047D02*
X90306190Y-91964285D01*
X90306190Y-91964285D02*
X90258571Y-92011904D01*
X90258571Y-92011904D02*
X90163333Y-92059523D01*
X90163333Y-92059523D02*
X90068095Y-92059523D01*
X90068095Y-92059523D02*
X89972857Y-92011904D01*
X89972857Y-92011904D02*
X89925238Y-91964285D01*
X89925238Y-91964285D02*
X89877619Y-91869047D01*
X89877619Y-91869047D02*
X89877619Y-91630952D01*
X89877619Y-91630952D02*
X89925238Y-91488095D01*
X89877619Y-91059523D02*
X90687142Y-91059523D01*
X90687142Y-91059523D02*
X90782380Y-91011904D01*
X90782380Y-91011904D02*
X90830000Y-90964285D01*
X90830000Y-90964285D02*
X90877619Y-90869047D01*
X90877619Y-90869047D02*
X90877619Y-90678571D01*
X90877619Y-90678571D02*
X90830000Y-90583333D01*
X90830000Y-90583333D02*
X90782380Y-90535714D01*
X90782380Y-90535714D02*
X90687142Y-90488095D01*
X90687142Y-90488095D02*
X89877619Y-90488095D01*
X90877619Y-90011904D02*
X89877619Y-90011904D01*
X89877619Y-90011904D02*
X89877619Y-89630952D01*
X89877619Y-89630952D02*
X89925238Y-89535714D01*
X89925238Y-89535714D02*
X89972857Y-89488095D01*
X89972857Y-89488095D02*
X90068095Y-89440476D01*
X90068095Y-89440476D02*
X90210952Y-89440476D01*
X90210952Y-89440476D02*
X90306190Y-89488095D01*
X90306190Y-89488095D02*
X90353809Y-89535714D01*
X90353809Y-89535714D02*
X90401428Y-89630952D01*
X90401428Y-89630952D02*
X90401428Y-90011904D01*
X90877619Y-89011904D02*
X89877619Y-89011904D01*
X89877619Y-89011904D02*
X89877619Y-88630952D01*
X89877619Y-88630952D02*
X89925238Y-88535714D01*
X89925238Y-88535714D02*
X89972857Y-88488095D01*
X89972857Y-88488095D02*
X90068095Y-88440476D01*
X90068095Y-88440476D02*
X90210952Y-88440476D01*
X90210952Y-88440476D02*
X90306190Y-88488095D01*
X90306190Y-88488095D02*
X90353809Y-88535714D01*
X90353809Y-88535714D02*
X90401428Y-88630952D01*
X90401428Y-88630952D02*
X90401428Y-89011904D01*
X90877619Y-87249999D02*
X89877619Y-87249999D01*
X89877619Y-87249999D02*
X89877619Y-86869047D01*
X89877619Y-86869047D02*
X89925238Y-86773809D01*
X89925238Y-86773809D02*
X89972857Y-86726190D01*
X89972857Y-86726190D02*
X90068095Y-86678571D01*
X90068095Y-86678571D02*
X90210952Y-86678571D01*
X90210952Y-86678571D02*
X90306190Y-86726190D01*
X90306190Y-86726190D02*
X90353809Y-86773809D01*
X90353809Y-86773809D02*
X90401428Y-86869047D01*
X90401428Y-86869047D02*
X90401428Y-87249999D01*
X89877619Y-86345237D02*
X90877619Y-86107142D01*
X90877619Y-86107142D02*
X90163333Y-85916666D01*
X90163333Y-85916666D02*
X90877619Y-85726190D01*
X90877619Y-85726190D02*
X89877619Y-85488095D01*
X90877619Y-84535714D02*
X90401428Y-84869047D01*
X90877619Y-85107142D02*
X89877619Y-85107142D01*
X89877619Y-85107142D02*
X89877619Y-84726190D01*
X89877619Y-84726190D02*
X89925238Y-84630952D01*
X89925238Y-84630952D02*
X89972857Y-84583333D01*
X89972857Y-84583333D02*
X90068095Y-84535714D01*
X90068095Y-84535714D02*
X90210952Y-84535714D01*
X90210952Y-84535714D02*
X90306190Y-84583333D01*
X90306190Y-84583333D02*
X90353809Y-84630952D01*
X90353809Y-84630952D02*
X90401428Y-84726190D01*
X90401428Y-84726190D02*
X90401428Y-85107142D01*
X89972857Y-83392856D02*
X89925238Y-83345237D01*
X89925238Y-83345237D02*
X89877619Y-83249999D01*
X89877619Y-83249999D02*
X89877619Y-83011904D01*
X89877619Y-83011904D02*
X89925238Y-82916666D01*
X89925238Y-82916666D02*
X89972857Y-82869047D01*
X89972857Y-82869047D02*
X90068095Y-82821428D01*
X90068095Y-82821428D02*
X90163333Y-82821428D01*
X90163333Y-82821428D02*
X90306190Y-82869047D01*
X90306190Y-82869047D02*
X90877619Y-83440475D01*
X90877619Y-83440475D02*
X90877619Y-82821428D01*
X137510285Y-108127619D02*
X137034095Y-108127619D01*
X137034095Y-108127619D02*
X137034095Y-107127619D01*
X137700762Y-107127619D02*
X138034095Y-108127619D01*
X138034095Y-108127619D02*
X138367428Y-107127619D01*
X139462667Y-107603809D02*
X139796000Y-107603809D01*
X139938857Y-108127619D02*
X139462667Y-108127619D01*
X139462667Y-108127619D02*
X139462667Y-107127619D01*
X139462667Y-107127619D02*
X139938857Y-107127619D01*
X140367429Y-108127619D02*
X140367429Y-107127619D01*
X140367429Y-107127619D02*
X140938857Y-108127619D01*
X140938857Y-108127619D02*
X140938857Y-107127619D01*
X141367429Y-107841904D02*
X141843619Y-107841904D01*
X141272191Y-108127619D02*
X141605524Y-107127619D01*
X141605524Y-107127619D02*
X141938857Y-108127619D01*
X142605524Y-107603809D02*
X142748381Y-107651428D01*
X142748381Y-107651428D02*
X142796000Y-107699047D01*
X142796000Y-107699047D02*
X142843619Y-107794285D01*
X142843619Y-107794285D02*
X142843619Y-107937142D01*
X142843619Y-107937142D02*
X142796000Y-108032380D01*
X142796000Y-108032380D02*
X142748381Y-108080000D01*
X142748381Y-108080000D02*
X142653143Y-108127619D01*
X142653143Y-108127619D02*
X142272191Y-108127619D01*
X142272191Y-108127619D02*
X142272191Y-107127619D01*
X142272191Y-107127619D02*
X142605524Y-107127619D01*
X142605524Y-107127619D02*
X142700762Y-107175238D01*
X142700762Y-107175238D02*
X142748381Y-107222857D01*
X142748381Y-107222857D02*
X142796000Y-107318095D01*
X142796000Y-107318095D02*
X142796000Y-107413333D01*
X142796000Y-107413333D02*
X142748381Y-107508571D01*
X142748381Y-107508571D02*
X142700762Y-107556190D01*
X142700762Y-107556190D02*
X142605524Y-107603809D01*
X142605524Y-107603809D02*
X142272191Y-107603809D01*
X143748381Y-108127619D02*
X143272191Y-108127619D01*
X143272191Y-108127619D02*
X143272191Y-107127619D01*
X144081715Y-107603809D02*
X144415048Y-107603809D01*
X144557905Y-108127619D02*
X144081715Y-108127619D01*
X144081715Y-108127619D02*
X144081715Y-107127619D01*
X144081715Y-107127619D02*
X144557905Y-107127619D01*
X92096666Y-60261904D02*
X92096666Y-59500000D01*
X90830000Y-68183523D02*
X90877619Y-68040666D01*
X90877619Y-68040666D02*
X90877619Y-67802571D01*
X90877619Y-67802571D02*
X90830000Y-67707333D01*
X90830000Y-67707333D02*
X90782380Y-67659714D01*
X90782380Y-67659714D02*
X90687142Y-67612095D01*
X90687142Y-67612095D02*
X90591904Y-67612095D01*
X90591904Y-67612095D02*
X90496666Y-67659714D01*
X90496666Y-67659714D02*
X90449047Y-67707333D01*
X90449047Y-67707333D02*
X90401428Y-67802571D01*
X90401428Y-67802571D02*
X90353809Y-67993047D01*
X90353809Y-67993047D02*
X90306190Y-68088285D01*
X90306190Y-68088285D02*
X90258571Y-68135904D01*
X90258571Y-68135904D02*
X90163333Y-68183523D01*
X90163333Y-68183523D02*
X90068095Y-68183523D01*
X90068095Y-68183523D02*
X89972857Y-68135904D01*
X89972857Y-68135904D02*
X89925238Y-68088285D01*
X89925238Y-68088285D02*
X89877619Y-67993047D01*
X89877619Y-67993047D02*
X89877619Y-67754952D01*
X89877619Y-67754952D02*
X89925238Y-67612095D01*
X89877619Y-67183523D02*
X90687142Y-67183523D01*
X90687142Y-67183523D02*
X90782380Y-67135904D01*
X90782380Y-67135904D02*
X90830000Y-67088285D01*
X90830000Y-67088285D02*
X90877619Y-66993047D01*
X90877619Y-66993047D02*
X90877619Y-66802571D01*
X90877619Y-66802571D02*
X90830000Y-66707333D01*
X90830000Y-66707333D02*
X90782380Y-66659714D01*
X90782380Y-66659714D02*
X90687142Y-66612095D01*
X90687142Y-66612095D02*
X89877619Y-66612095D01*
X90877619Y-66135904D02*
X89877619Y-66135904D01*
X89877619Y-66135904D02*
X89877619Y-65754952D01*
X89877619Y-65754952D02*
X89925238Y-65659714D01*
X89925238Y-65659714D02*
X89972857Y-65612095D01*
X89972857Y-65612095D02*
X90068095Y-65564476D01*
X90068095Y-65564476D02*
X90210952Y-65564476D01*
X90210952Y-65564476D02*
X90306190Y-65612095D01*
X90306190Y-65612095D02*
X90353809Y-65659714D01*
X90353809Y-65659714D02*
X90401428Y-65754952D01*
X90401428Y-65754952D02*
X90401428Y-66135904D01*
X90877619Y-65135904D02*
X89877619Y-65135904D01*
X89877619Y-65135904D02*
X89877619Y-64754952D01*
X89877619Y-64754952D02*
X89925238Y-64659714D01*
X89925238Y-64659714D02*
X89972857Y-64612095D01*
X89972857Y-64612095D02*
X90068095Y-64564476D01*
X90068095Y-64564476D02*
X90210952Y-64564476D01*
X90210952Y-64564476D02*
X90306190Y-64612095D01*
X90306190Y-64612095D02*
X90353809Y-64659714D01*
X90353809Y-64659714D02*
X90401428Y-64754952D01*
X90401428Y-64754952D02*
X90401428Y-65135904D01*
X90877619Y-63373999D02*
X89877619Y-63373999D01*
X89877619Y-63373999D02*
X89877619Y-62993047D01*
X89877619Y-62993047D02*
X89925238Y-62897809D01*
X89925238Y-62897809D02*
X89972857Y-62850190D01*
X89972857Y-62850190D02*
X90068095Y-62802571D01*
X90068095Y-62802571D02*
X90210952Y-62802571D01*
X90210952Y-62802571D02*
X90306190Y-62850190D01*
X90306190Y-62850190D02*
X90353809Y-62897809D01*
X90353809Y-62897809D02*
X90401428Y-62993047D01*
X90401428Y-62993047D02*
X90401428Y-63373999D01*
X89877619Y-62469237D02*
X90877619Y-62231142D01*
X90877619Y-62231142D02*
X90163333Y-62040666D01*
X90163333Y-62040666D02*
X90877619Y-61850190D01*
X90877619Y-61850190D02*
X89877619Y-61612095D01*
X90877619Y-60659714D02*
X90401428Y-60993047D01*
X90877619Y-61231142D02*
X89877619Y-61231142D01*
X89877619Y-61231142D02*
X89877619Y-60850190D01*
X89877619Y-60850190D02*
X89925238Y-60754952D01*
X89925238Y-60754952D02*
X89972857Y-60707333D01*
X89972857Y-60707333D02*
X90068095Y-60659714D01*
X90068095Y-60659714D02*
X90210952Y-60659714D01*
X90210952Y-60659714D02*
X90306190Y-60707333D01*
X90306190Y-60707333D02*
X90353809Y-60754952D01*
X90353809Y-60754952D02*
X90401428Y-60850190D01*
X90401428Y-60850190D02*
X90401428Y-61231142D01*
X90877619Y-58945428D02*
X90877619Y-59516856D01*
X90877619Y-59231142D02*
X89877619Y-59231142D01*
X89877619Y-59231142D02*
X90020476Y-59326380D01*
X90020476Y-59326380D02*
X90115714Y-59421618D01*
X90115714Y-59421618D02*
X90163333Y-59516856D01*
X147210095Y-48201238D02*
X147114857Y-48153619D01*
X147114857Y-48153619D02*
X146972000Y-48153619D01*
X146972000Y-48153619D02*
X146829143Y-48201238D01*
X146829143Y-48201238D02*
X146733905Y-48296476D01*
X146733905Y-48296476D02*
X146686286Y-48391714D01*
X146686286Y-48391714D02*
X146638667Y-48582190D01*
X146638667Y-48582190D02*
X146638667Y-48725047D01*
X146638667Y-48725047D02*
X146686286Y-48915523D01*
X146686286Y-48915523D02*
X146733905Y-49010761D01*
X146733905Y-49010761D02*
X146829143Y-49106000D01*
X146829143Y-49106000D02*
X146972000Y-49153619D01*
X146972000Y-49153619D02*
X147067238Y-49153619D01*
X147067238Y-49153619D02*
X147210095Y-49106000D01*
X147210095Y-49106000D02*
X147257714Y-49058380D01*
X147257714Y-49058380D02*
X147257714Y-48725047D01*
X147257714Y-48725047D02*
X147067238Y-48725047D01*
X147686286Y-49153619D02*
X147686286Y-48153619D01*
X147686286Y-48153619D02*
X148257714Y-49153619D01*
X148257714Y-49153619D02*
X148257714Y-48153619D01*
X148733905Y-49153619D02*
X148733905Y-48153619D01*
X148733905Y-48153619D02*
X148972000Y-48153619D01*
X148972000Y-48153619D02*
X149114857Y-48201238D01*
X149114857Y-48201238D02*
X149210095Y-48296476D01*
X149210095Y-48296476D02*
X149257714Y-48391714D01*
X149257714Y-48391714D02*
X149305333Y-48582190D01*
X149305333Y-48582190D02*
X149305333Y-48725047D01*
X149305333Y-48725047D02*
X149257714Y-48915523D01*
X149257714Y-48915523D02*
X149210095Y-49010761D01*
X149210095Y-49010761D02*
X149114857Y-49106000D01*
X149114857Y-49106000D02*
X148972000Y-49153619D01*
X148972000Y-49153619D02*
X148733905Y-49153619D01*
D11*
X133875000Y-78353478D02*
X133754048Y-78293002D01*
X133754048Y-78293002D02*
X133633095Y-78172050D01*
X133633095Y-78172050D02*
X133451667Y-77990621D01*
X133451667Y-77990621D02*
X133330714Y-77930145D01*
X133330714Y-77930145D02*
X133209762Y-77930145D01*
X133270238Y-78232526D02*
X133149286Y-78172050D01*
X133149286Y-78172050D02*
X133028333Y-78051097D01*
X133028333Y-78051097D02*
X132967857Y-77809192D01*
X132967857Y-77809192D02*
X132967857Y-77385859D01*
X132967857Y-77385859D02*
X133028333Y-77143954D01*
X133028333Y-77143954D02*
X133149286Y-77023002D01*
X133149286Y-77023002D02*
X133270238Y-76962526D01*
X133270238Y-76962526D02*
X133512143Y-76962526D01*
X133512143Y-76962526D02*
X133633095Y-77023002D01*
X133633095Y-77023002D02*
X133754048Y-77143954D01*
X133754048Y-77143954D02*
X133814524Y-77385859D01*
X133814524Y-77385859D02*
X133814524Y-77809192D01*
X133814524Y-77809192D02*
X133754048Y-78051097D01*
X133754048Y-78051097D02*
X133633095Y-78172050D01*
X133633095Y-78172050D02*
X133512143Y-78232526D01*
X133512143Y-78232526D02*
X133270238Y-78232526D01*
X135024048Y-78232526D02*
X134298333Y-78232526D01*
X134661190Y-78232526D02*
X134661190Y-76962526D01*
X134661190Y-76962526D02*
X134540238Y-77143954D01*
X134540238Y-77143954D02*
X134419286Y-77264907D01*
X134419286Y-77264907D02*
X134298333Y-77325383D01*
X135507857Y-77869669D02*
X136112619Y-77869669D01*
X135386905Y-78232526D02*
X135810238Y-76962526D01*
X135810238Y-76962526D02*
X136233572Y-78232526D01*
X136596428Y-77083478D02*
X136656904Y-77023002D01*
X136656904Y-77023002D02*
X136777857Y-76962526D01*
X136777857Y-76962526D02*
X137080238Y-76962526D01*
X137080238Y-76962526D02*
X137201190Y-77023002D01*
X137201190Y-77023002D02*
X137261666Y-77083478D01*
X137261666Y-77083478D02*
X137322143Y-77204430D01*
X137322143Y-77204430D02*
X137322143Y-77325383D01*
X137322143Y-77325383D02*
X137261666Y-77506811D01*
X137261666Y-77506811D02*
X136535952Y-78232526D01*
X136535952Y-78232526D02*
X137322143Y-78232526D01*
X121810000Y-65018478D02*
X121689048Y-64958002D01*
X121689048Y-64958002D02*
X121568095Y-64837050D01*
X121568095Y-64837050D02*
X121386667Y-64655621D01*
X121386667Y-64655621D02*
X121265714Y-64595145D01*
X121265714Y-64595145D02*
X121144762Y-64595145D01*
X121205238Y-64897526D02*
X121084286Y-64837050D01*
X121084286Y-64837050D02*
X120963333Y-64716097D01*
X120963333Y-64716097D02*
X120902857Y-64474192D01*
X120902857Y-64474192D02*
X120902857Y-64050859D01*
X120902857Y-64050859D02*
X120963333Y-63808954D01*
X120963333Y-63808954D02*
X121084286Y-63688002D01*
X121084286Y-63688002D02*
X121205238Y-63627526D01*
X121205238Y-63627526D02*
X121447143Y-63627526D01*
X121447143Y-63627526D02*
X121568095Y-63688002D01*
X121568095Y-63688002D02*
X121689048Y-63808954D01*
X121689048Y-63808954D02*
X121749524Y-64050859D01*
X121749524Y-64050859D02*
X121749524Y-64474192D01*
X121749524Y-64474192D02*
X121689048Y-64716097D01*
X121689048Y-64716097D02*
X121568095Y-64837050D01*
X121568095Y-64837050D02*
X121447143Y-64897526D01*
X121447143Y-64897526D02*
X121205238Y-64897526D01*
X122959048Y-64897526D02*
X122233333Y-64897526D01*
X122596190Y-64897526D02*
X122596190Y-63627526D01*
X122596190Y-63627526D02*
X122475238Y-63808954D01*
X122475238Y-63808954D02*
X122354286Y-63929907D01*
X122354286Y-63929907D02*
X122233333Y-63990383D01*
X123442857Y-64534669D02*
X124047619Y-64534669D01*
X123321905Y-64897526D02*
X123745238Y-63627526D01*
X123745238Y-63627526D02*
X124168572Y-64897526D01*
X125257143Y-64897526D02*
X124531428Y-64897526D01*
X124894285Y-64897526D02*
X124894285Y-63627526D01*
X124894285Y-63627526D02*
X124773333Y-63808954D01*
X124773333Y-63808954D02*
X124652381Y-63929907D01*
X124652381Y-63929907D02*
X124531428Y-63990383D01*
D10*
X166702380Y-87476666D02*
X165988095Y-87476666D01*
X165988095Y-87476666D02*
X165845238Y-87429047D01*
X165845238Y-87429047D02*
X165750000Y-87333809D01*
X165750000Y-87333809D02*
X165702380Y-87190952D01*
X165702380Y-87190952D02*
X165702380Y-87095714D01*
X166702380Y-88429047D02*
X166702380Y-87952857D01*
X166702380Y-87952857D02*
X166226190Y-87905238D01*
X166226190Y-87905238D02*
X166273809Y-87952857D01*
X166273809Y-87952857D02*
X166321428Y-88048095D01*
X166321428Y-88048095D02*
X166321428Y-88286190D01*
X166321428Y-88286190D02*
X166273809Y-88381428D01*
X166273809Y-88381428D02*
X166226190Y-88429047D01*
X166226190Y-88429047D02*
X166130952Y-88476666D01*
X166130952Y-88476666D02*
X165892857Y-88476666D01*
X165892857Y-88476666D02*
X165797619Y-88429047D01*
X165797619Y-88429047D02*
X165750000Y-88381428D01*
X165750000Y-88381428D02*
X165702380Y-88286190D01*
X165702380Y-88286190D02*
X165702380Y-88048095D01*
X165702380Y-88048095D02*
X165750000Y-87952857D01*
X165750000Y-87952857D02*
X165797619Y-87905238D01*
X128833333Y-58462619D02*
X128500000Y-57986428D01*
X128261905Y-58462619D02*
X128261905Y-57462619D01*
X128261905Y-57462619D02*
X128642857Y-57462619D01*
X128642857Y-57462619D02*
X128738095Y-57510238D01*
X128738095Y-57510238D02*
X128785714Y-57557857D01*
X128785714Y-57557857D02*
X128833333Y-57653095D01*
X128833333Y-57653095D02*
X128833333Y-57795952D01*
X128833333Y-57795952D02*
X128785714Y-57891190D01*
X128785714Y-57891190D02*
X128738095Y-57938809D01*
X128738095Y-57938809D02*
X128642857Y-57986428D01*
X128642857Y-57986428D02*
X128261905Y-57986428D01*
X129166667Y-57462619D02*
X129785714Y-57462619D01*
X129785714Y-57462619D02*
X129452381Y-57843571D01*
X129452381Y-57843571D02*
X129595238Y-57843571D01*
X129595238Y-57843571D02*
X129690476Y-57891190D01*
X129690476Y-57891190D02*
X129738095Y-57938809D01*
X129738095Y-57938809D02*
X129785714Y-58034047D01*
X129785714Y-58034047D02*
X129785714Y-58272142D01*
X129785714Y-58272142D02*
X129738095Y-58367380D01*
X129738095Y-58367380D02*
X129690476Y-58415000D01*
X129690476Y-58415000D02*
X129595238Y-58462619D01*
X129595238Y-58462619D02*
X129309524Y-58462619D01*
X129309524Y-58462619D02*
X129214286Y-58415000D01*
X129214286Y-58415000D02*
X129166667Y-58367380D01*
D11*
X134629047Y-60458478D02*
X134508095Y-60398002D01*
X134508095Y-60398002D02*
X134387142Y-60277050D01*
X134387142Y-60277050D02*
X134205714Y-60095621D01*
X134205714Y-60095621D02*
X134084761Y-60035145D01*
X134084761Y-60035145D02*
X133963809Y-60035145D01*
X134024285Y-60337526D02*
X133903333Y-60277050D01*
X133903333Y-60277050D02*
X133782380Y-60156097D01*
X133782380Y-60156097D02*
X133721904Y-59914192D01*
X133721904Y-59914192D02*
X133721904Y-59490859D01*
X133721904Y-59490859D02*
X133782380Y-59248954D01*
X133782380Y-59248954D02*
X133903333Y-59128002D01*
X133903333Y-59128002D02*
X134024285Y-59067526D01*
X134024285Y-59067526D02*
X134266190Y-59067526D01*
X134266190Y-59067526D02*
X134387142Y-59128002D01*
X134387142Y-59128002D02*
X134508095Y-59248954D01*
X134508095Y-59248954D02*
X134568571Y-59490859D01*
X134568571Y-59490859D02*
X134568571Y-59914192D01*
X134568571Y-59914192D02*
X134508095Y-60156097D01*
X134508095Y-60156097D02*
X134387142Y-60277050D01*
X134387142Y-60277050D02*
X134266190Y-60337526D01*
X134266190Y-60337526D02*
X134024285Y-60337526D01*
X135778095Y-60337526D02*
X135052380Y-60337526D01*
X135415237Y-60337526D02*
X135415237Y-59067526D01*
X135415237Y-59067526D02*
X135294285Y-59248954D01*
X135294285Y-59248954D02*
X135173333Y-59369907D01*
X135173333Y-59369907D02*
X135052380Y-59430383D01*
D10*
X118166666Y-105462619D02*
X118166666Y-106176904D01*
X118166666Y-106176904D02*
X118119047Y-106319761D01*
X118119047Y-106319761D02*
X118023809Y-106415000D01*
X118023809Y-106415000D02*
X117880952Y-106462619D01*
X117880952Y-106462619D02*
X117785714Y-106462619D01*
X119071428Y-105462619D02*
X118880952Y-105462619D01*
X118880952Y-105462619D02*
X118785714Y-105510238D01*
X118785714Y-105510238D02*
X118738095Y-105557857D01*
X118738095Y-105557857D02*
X118642857Y-105700714D01*
X118642857Y-105700714D02*
X118595238Y-105891190D01*
X118595238Y-105891190D02*
X118595238Y-106272142D01*
X118595238Y-106272142D02*
X118642857Y-106367380D01*
X118642857Y-106367380D02*
X118690476Y-106415000D01*
X118690476Y-106415000D02*
X118785714Y-106462619D01*
X118785714Y-106462619D02*
X118976190Y-106462619D01*
X118976190Y-106462619D02*
X119071428Y-106415000D01*
X119071428Y-106415000D02*
X119119047Y-106367380D01*
X119119047Y-106367380D02*
X119166666Y-106272142D01*
X119166666Y-106272142D02*
X119166666Y-106034047D01*
X119166666Y-106034047D02*
X119119047Y-105938809D01*
X119119047Y-105938809D02*
X119071428Y-105891190D01*
X119071428Y-105891190D02*
X118976190Y-105843571D01*
X118976190Y-105843571D02*
X118785714Y-105843571D01*
X118785714Y-105843571D02*
X118690476Y-105891190D01*
X118690476Y-105891190D02*
X118642857Y-105938809D01*
X118642857Y-105938809D02*
X118595238Y-106034047D01*
X129216666Y-78423809D02*
X128883333Y-78423809D01*
X128883333Y-78947619D02*
X128883333Y-77947619D01*
X128883333Y-77947619D02*
X129359523Y-77947619D01*
X130264285Y-78947619D02*
X129692857Y-78947619D01*
X129978571Y-78947619D02*
X129978571Y-77947619D01*
X129978571Y-77947619D02*
X129883333Y-78090476D01*
X129883333Y-78090476D02*
X129788095Y-78185714D01*
X129788095Y-78185714D02*
X129692857Y-78233333D01*
X91522619Y-88133333D02*
X92236904Y-88133333D01*
X92236904Y-88133333D02*
X92379761Y-88180952D01*
X92379761Y-88180952D02*
X92475000Y-88276190D01*
X92475000Y-88276190D02*
X92522619Y-88419047D01*
X92522619Y-88419047D02*
X92522619Y-88514285D01*
X91522619Y-87752380D02*
X91522619Y-87133333D01*
X91522619Y-87133333D02*
X91903571Y-87466666D01*
X91903571Y-87466666D02*
X91903571Y-87323809D01*
X91903571Y-87323809D02*
X91951190Y-87228571D01*
X91951190Y-87228571D02*
X91998809Y-87180952D01*
X91998809Y-87180952D02*
X92094047Y-87133333D01*
X92094047Y-87133333D02*
X92332142Y-87133333D01*
X92332142Y-87133333D02*
X92427380Y-87180952D01*
X92427380Y-87180952D02*
X92475000Y-87228571D01*
X92475000Y-87228571D02*
X92522619Y-87323809D01*
X92522619Y-87323809D02*
X92522619Y-87609523D01*
X92522619Y-87609523D02*
X92475000Y-87704761D01*
X92475000Y-87704761D02*
X92427380Y-87752380D01*
X91522619Y-64068333D02*
X92236904Y-64068333D01*
X92236904Y-64068333D02*
X92379761Y-64115952D01*
X92379761Y-64115952D02*
X92475000Y-64211190D01*
X92475000Y-64211190D02*
X92522619Y-64354047D01*
X92522619Y-64354047D02*
X92522619Y-64449285D01*
X91617857Y-63639761D02*
X91570238Y-63592142D01*
X91570238Y-63592142D02*
X91522619Y-63496904D01*
X91522619Y-63496904D02*
X91522619Y-63258809D01*
X91522619Y-63258809D02*
X91570238Y-63163571D01*
X91570238Y-63163571D02*
X91617857Y-63115952D01*
X91617857Y-63115952D02*
X91713095Y-63068333D01*
X91713095Y-63068333D02*
X91808333Y-63068333D01*
X91808333Y-63068333D02*
X91951190Y-63115952D01*
X91951190Y-63115952D02*
X92522619Y-63687380D01*
X92522619Y-63687380D02*
X92522619Y-63068333D01*
X119583333Y-58462619D02*
X119250000Y-57986428D01*
X119011905Y-58462619D02*
X119011905Y-57462619D01*
X119011905Y-57462619D02*
X119392857Y-57462619D01*
X119392857Y-57462619D02*
X119488095Y-57510238D01*
X119488095Y-57510238D02*
X119535714Y-57557857D01*
X119535714Y-57557857D02*
X119583333Y-57653095D01*
X119583333Y-57653095D02*
X119583333Y-57795952D01*
X119583333Y-57795952D02*
X119535714Y-57891190D01*
X119535714Y-57891190D02*
X119488095Y-57938809D01*
X119488095Y-57938809D02*
X119392857Y-57986428D01*
X119392857Y-57986428D02*
X119011905Y-57986428D01*
X119964286Y-57557857D02*
X120011905Y-57510238D01*
X120011905Y-57510238D02*
X120107143Y-57462619D01*
X120107143Y-57462619D02*
X120345238Y-57462619D01*
X120345238Y-57462619D02*
X120440476Y-57510238D01*
X120440476Y-57510238D02*
X120488095Y-57557857D01*
X120488095Y-57557857D02*
X120535714Y-57653095D01*
X120535714Y-57653095D02*
X120535714Y-57748333D01*
X120535714Y-57748333D02*
X120488095Y-57891190D01*
X120488095Y-57891190D02*
X119916667Y-58462619D01*
X119916667Y-58462619D02*
X120535714Y-58462619D01*
D11*
X133875000Y-65058478D02*
X133754048Y-64998002D01*
X133754048Y-64998002D02*
X133633095Y-64877050D01*
X133633095Y-64877050D02*
X133451667Y-64695621D01*
X133451667Y-64695621D02*
X133330714Y-64635145D01*
X133330714Y-64635145D02*
X133209762Y-64635145D01*
X133270238Y-64937526D02*
X133149286Y-64877050D01*
X133149286Y-64877050D02*
X133028333Y-64756097D01*
X133028333Y-64756097D02*
X132967857Y-64514192D01*
X132967857Y-64514192D02*
X132967857Y-64090859D01*
X132967857Y-64090859D02*
X133028333Y-63848954D01*
X133028333Y-63848954D02*
X133149286Y-63728002D01*
X133149286Y-63728002D02*
X133270238Y-63667526D01*
X133270238Y-63667526D02*
X133512143Y-63667526D01*
X133512143Y-63667526D02*
X133633095Y-63728002D01*
X133633095Y-63728002D02*
X133754048Y-63848954D01*
X133754048Y-63848954D02*
X133814524Y-64090859D01*
X133814524Y-64090859D02*
X133814524Y-64514192D01*
X133814524Y-64514192D02*
X133754048Y-64756097D01*
X133754048Y-64756097D02*
X133633095Y-64877050D01*
X133633095Y-64877050D02*
X133512143Y-64937526D01*
X133512143Y-64937526D02*
X133270238Y-64937526D01*
X135024048Y-64937526D02*
X134298333Y-64937526D01*
X134661190Y-64937526D02*
X134661190Y-63667526D01*
X134661190Y-63667526D02*
X134540238Y-63848954D01*
X134540238Y-63848954D02*
X134419286Y-63969907D01*
X134419286Y-63969907D02*
X134298333Y-64030383D01*
X135507857Y-64574669D02*
X136112619Y-64574669D01*
X135386905Y-64937526D02*
X135810238Y-63667526D01*
X135810238Y-63667526D02*
X136233572Y-64937526D01*
X137201190Y-64090859D02*
X137201190Y-64937526D01*
X136898809Y-63607050D02*
X136596428Y-64514192D01*
X136596428Y-64514192D02*
X137382619Y-64514192D01*
D10*
X140266666Y-105462619D02*
X140266666Y-106176904D01*
X140266666Y-106176904D02*
X140219047Y-106319761D01*
X140219047Y-106319761D02*
X140123809Y-106415000D01*
X140123809Y-106415000D02*
X139980952Y-106462619D01*
X139980952Y-106462619D02*
X139885714Y-106462619D01*
X140647619Y-105462619D02*
X141314285Y-105462619D01*
X141314285Y-105462619D02*
X140885714Y-106462619D01*
X114785333Y-55462619D02*
X114452000Y-54986428D01*
X114213905Y-55462619D02*
X114213905Y-54462619D01*
X114213905Y-54462619D02*
X114594857Y-54462619D01*
X114594857Y-54462619D02*
X114690095Y-54510238D01*
X114690095Y-54510238D02*
X114737714Y-54557857D01*
X114737714Y-54557857D02*
X114785333Y-54653095D01*
X114785333Y-54653095D02*
X114785333Y-54795952D01*
X114785333Y-54795952D02*
X114737714Y-54891190D01*
X114737714Y-54891190D02*
X114690095Y-54938809D01*
X114690095Y-54938809D02*
X114594857Y-54986428D01*
X114594857Y-54986428D02*
X114213905Y-54986428D01*
X115737714Y-55462619D02*
X115166286Y-55462619D01*
X115452000Y-55462619D02*
X115452000Y-54462619D01*
X115452000Y-54462619D02*
X115356762Y-54605476D01*
X115356762Y-54605476D02*
X115261524Y-54700714D01*
X115261524Y-54700714D02*
X115166286Y-54748333D01*
D11*
X128062618Y-64837526D02*
X128062618Y-63567526D01*
X128062618Y-63567526D02*
X128364999Y-63567526D01*
X128364999Y-63567526D02*
X128546428Y-63628002D01*
X128546428Y-63628002D02*
X128667380Y-63748954D01*
X128667380Y-63748954D02*
X128727857Y-63869907D01*
X128727857Y-63869907D02*
X128788333Y-64111811D01*
X128788333Y-64111811D02*
X128788333Y-64293240D01*
X128788333Y-64293240D02*
X128727857Y-64535145D01*
X128727857Y-64535145D02*
X128667380Y-64656097D01*
X128667380Y-64656097D02*
X128546428Y-64777050D01*
X128546428Y-64777050D02*
X128364999Y-64837526D01*
X128364999Y-64837526D02*
X128062618Y-64837526D01*
X129997857Y-64837526D02*
X129272142Y-64837526D01*
X129634999Y-64837526D02*
X129634999Y-63567526D01*
X129634999Y-63567526D02*
X129514047Y-63748954D01*
X129514047Y-63748954D02*
X129393095Y-63869907D01*
X129393095Y-63869907D02*
X129272142Y-63930383D01*
D10*
X128715666Y-47462619D02*
X128715666Y-48176904D01*
X128715666Y-48176904D02*
X128668047Y-48319761D01*
X128668047Y-48319761D02*
X128572809Y-48415000D01*
X128572809Y-48415000D02*
X128429952Y-48462619D01*
X128429952Y-48462619D02*
X128334714Y-48462619D01*
X129715666Y-48462619D02*
X129144238Y-48462619D01*
X129429952Y-48462619D02*
X129429952Y-47462619D01*
X129429952Y-47462619D02*
X129334714Y-47605476D01*
X129334714Y-47605476D02*
X129239476Y-47700714D01*
X129239476Y-47700714D02*
X129144238Y-47748333D01*
D11*
X121810000Y-78353478D02*
X121689048Y-78293002D01*
X121689048Y-78293002D02*
X121568095Y-78172050D01*
X121568095Y-78172050D02*
X121386667Y-77990621D01*
X121386667Y-77990621D02*
X121265714Y-77930145D01*
X121265714Y-77930145D02*
X121144762Y-77930145D01*
X121205238Y-78232526D02*
X121084286Y-78172050D01*
X121084286Y-78172050D02*
X120963333Y-78051097D01*
X120963333Y-78051097D02*
X120902857Y-77809192D01*
X120902857Y-77809192D02*
X120902857Y-77385859D01*
X120902857Y-77385859D02*
X120963333Y-77143954D01*
X120963333Y-77143954D02*
X121084286Y-77023002D01*
X121084286Y-77023002D02*
X121205238Y-76962526D01*
X121205238Y-76962526D02*
X121447143Y-76962526D01*
X121447143Y-76962526D02*
X121568095Y-77023002D01*
X121568095Y-77023002D02*
X121689048Y-77143954D01*
X121689048Y-77143954D02*
X121749524Y-77385859D01*
X121749524Y-77385859D02*
X121749524Y-77809192D01*
X121749524Y-77809192D02*
X121689048Y-78051097D01*
X121689048Y-78051097D02*
X121568095Y-78172050D01*
X121568095Y-78172050D02*
X121447143Y-78232526D01*
X121447143Y-78232526D02*
X121205238Y-78232526D01*
X122959048Y-78232526D02*
X122233333Y-78232526D01*
X122596190Y-78232526D02*
X122596190Y-76962526D01*
X122596190Y-76962526D02*
X122475238Y-77143954D01*
X122475238Y-77143954D02*
X122354286Y-77264907D01*
X122354286Y-77264907D02*
X122233333Y-77325383D01*
X123442857Y-77869669D02*
X124047619Y-77869669D01*
X123321905Y-78232526D02*
X123745238Y-76962526D01*
X123745238Y-76962526D02*
X124168572Y-78232526D01*
X124470952Y-76962526D02*
X125257143Y-76962526D01*
X125257143Y-76962526D02*
X124833809Y-77446335D01*
X124833809Y-77446335D02*
X125015238Y-77446335D01*
X125015238Y-77446335D02*
X125136190Y-77506811D01*
X125136190Y-77506811D02*
X125196666Y-77567288D01*
X125196666Y-77567288D02*
X125257143Y-77688240D01*
X125257143Y-77688240D02*
X125257143Y-77990621D01*
X125257143Y-77990621D02*
X125196666Y-78111573D01*
X125196666Y-78111573D02*
X125136190Y-78172050D01*
X125136190Y-78172050D02*
X125015238Y-78232526D01*
X125015238Y-78232526D02*
X124652381Y-78232526D01*
X124652381Y-78232526D02*
X124531428Y-78172050D01*
X124531428Y-78172050D02*
X124470952Y-78111573D01*
X128794047Y-98878478D02*
X128673095Y-98818002D01*
X128673095Y-98818002D02*
X128552142Y-98697050D01*
X128552142Y-98697050D02*
X128370714Y-98515621D01*
X128370714Y-98515621D02*
X128249761Y-98455145D01*
X128249761Y-98455145D02*
X128128809Y-98455145D01*
X128189285Y-98757526D02*
X128068333Y-98697050D01*
X128068333Y-98697050D02*
X127947380Y-98576097D01*
X127947380Y-98576097D02*
X127886904Y-98334192D01*
X127886904Y-98334192D02*
X127886904Y-97910859D01*
X127886904Y-97910859D02*
X127947380Y-97668954D01*
X127947380Y-97668954D02*
X128068333Y-97548002D01*
X128068333Y-97548002D02*
X128189285Y-97487526D01*
X128189285Y-97487526D02*
X128431190Y-97487526D01*
X128431190Y-97487526D02*
X128552142Y-97548002D01*
X128552142Y-97548002D02*
X128673095Y-97668954D01*
X128673095Y-97668954D02*
X128733571Y-97910859D01*
X128733571Y-97910859D02*
X128733571Y-98334192D01*
X128733571Y-98334192D02*
X128673095Y-98576097D01*
X128673095Y-98576097D02*
X128552142Y-98697050D01*
X128552142Y-98697050D02*
X128431190Y-98757526D01*
X128431190Y-98757526D02*
X128189285Y-98757526D01*
X129156904Y-97487526D02*
X129943095Y-97487526D01*
X129943095Y-97487526D02*
X129519761Y-97971335D01*
X129519761Y-97971335D02*
X129701190Y-97971335D01*
X129701190Y-97971335D02*
X129822142Y-98031811D01*
X129822142Y-98031811D02*
X129882618Y-98092288D01*
X129882618Y-98092288D02*
X129943095Y-98213240D01*
X129943095Y-98213240D02*
X129943095Y-98515621D01*
X129943095Y-98515621D02*
X129882618Y-98636573D01*
X129882618Y-98636573D02*
X129822142Y-98697050D01*
X129822142Y-98697050D02*
X129701190Y-98757526D01*
X129701190Y-98757526D02*
X129338333Y-98757526D01*
X129338333Y-98757526D02*
X129217380Y-98697050D01*
X129217380Y-98697050D02*
X129156904Y-98636573D01*
D10*
X166797380Y-63214666D02*
X166083095Y-63214666D01*
X166083095Y-63214666D02*
X165940238Y-63167047D01*
X165940238Y-63167047D02*
X165845000Y-63071809D01*
X165845000Y-63071809D02*
X165797380Y-62928952D01*
X165797380Y-62928952D02*
X165797380Y-62833714D01*
X166464047Y-64119428D02*
X165797380Y-64119428D01*
X166845000Y-63881333D02*
X166130714Y-63643238D01*
X166130714Y-63643238D02*
X166130714Y-64262285D01*
X143233333Y-55248619D02*
X142900000Y-54772428D01*
X142661905Y-55248619D02*
X142661905Y-54248619D01*
X142661905Y-54248619D02*
X143042857Y-54248619D01*
X143042857Y-54248619D02*
X143138095Y-54296238D01*
X143138095Y-54296238D02*
X143185714Y-54343857D01*
X143185714Y-54343857D02*
X143233333Y-54439095D01*
X143233333Y-54439095D02*
X143233333Y-54581952D01*
X143233333Y-54581952D02*
X143185714Y-54677190D01*
X143185714Y-54677190D02*
X143138095Y-54724809D01*
X143138095Y-54724809D02*
X143042857Y-54772428D01*
X143042857Y-54772428D02*
X142661905Y-54772428D01*
X144090476Y-54581952D02*
X144090476Y-55248619D01*
X143852381Y-54201000D02*
X143614286Y-54915285D01*
X143614286Y-54915285D02*
X144233333Y-54915285D01*
D11*
X122879047Y-60458478D02*
X122758095Y-60398002D01*
X122758095Y-60398002D02*
X122637142Y-60277050D01*
X122637142Y-60277050D02*
X122455714Y-60095621D01*
X122455714Y-60095621D02*
X122334761Y-60035145D01*
X122334761Y-60035145D02*
X122213809Y-60035145D01*
X122274285Y-60337526D02*
X122153333Y-60277050D01*
X122153333Y-60277050D02*
X122032380Y-60156097D01*
X122032380Y-60156097D02*
X121971904Y-59914192D01*
X121971904Y-59914192D02*
X121971904Y-59490859D01*
X121971904Y-59490859D02*
X122032380Y-59248954D01*
X122032380Y-59248954D02*
X122153333Y-59128002D01*
X122153333Y-59128002D02*
X122274285Y-59067526D01*
X122274285Y-59067526D02*
X122516190Y-59067526D01*
X122516190Y-59067526D02*
X122637142Y-59128002D01*
X122637142Y-59128002D02*
X122758095Y-59248954D01*
X122758095Y-59248954D02*
X122818571Y-59490859D01*
X122818571Y-59490859D02*
X122818571Y-59914192D01*
X122818571Y-59914192D02*
X122758095Y-60156097D01*
X122758095Y-60156097D02*
X122637142Y-60277050D01*
X122637142Y-60277050D02*
X122516190Y-60337526D01*
X122516190Y-60337526D02*
X122274285Y-60337526D01*
X123302380Y-59188478D02*
X123362856Y-59128002D01*
X123362856Y-59128002D02*
X123483809Y-59067526D01*
X123483809Y-59067526D02*
X123786190Y-59067526D01*
X123786190Y-59067526D02*
X123907142Y-59128002D01*
X123907142Y-59128002D02*
X123967618Y-59188478D01*
X123967618Y-59188478D02*
X124028095Y-59309430D01*
X124028095Y-59309430D02*
X124028095Y-59430383D01*
X124028095Y-59430383D02*
X123967618Y-59611811D01*
X123967618Y-59611811D02*
X123241904Y-60337526D01*
X123241904Y-60337526D02*
X124028095Y-60337526D01*
D12*
X140400000Y-76120000D02*
X140400000Y-73200000D01*
X129890000Y-76120000D02*
X140400000Y-76120000D01*
X129890000Y-71470000D02*
X129890000Y-76120000D01*
X128335000Y-70405000D02*
X128335000Y-67485000D01*
X117825000Y-70405000D02*
X128335000Y-70405000D01*
X117825000Y-65755000D02*
X117825000Y-70405000D01*
D13*
X163225000Y-77160000D02*
X151475000Y-77160000D01*
X151475000Y-77160000D02*
X151475000Y-98450000D01*
X164090685Y-83660000D02*
X163525000Y-84060000D01*
X163525000Y-84060000D02*
X164090685Y-84460000D01*
X164090685Y-84460000D02*
X164090685Y-83660000D01*
X165075000Y-86170000D02*
X165075000Y-89440000D01*
X163225000Y-86170000D02*
X165075000Y-86170000D01*
X165075000Y-89440000D02*
X163225000Y-89440000D01*
X163225000Y-98450000D02*
X163225000Y-77160000D01*
X151475000Y-98450000D02*
X163225000Y-98450000D01*
X108949000Y-55730000D02*
X108949000Y-57650000D01*
X108949000Y-57650000D02*
X111634000Y-57650000D01*
X111634000Y-55730000D02*
X108949000Y-55730000D01*
X128762742Y-58977500D02*
X129237258Y-58977500D01*
X128762742Y-60022500D02*
X129237258Y-60022500D01*
X108926000Y-50918000D02*
X111326000Y-50918000D01*
X108926000Y-53318000D02*
X108926000Y-50918000D01*
X111326000Y-50918000D02*
X111326000Y-53318000D01*
X111326000Y-53318000D02*
X108926000Y-53318000D01*
D12*
X136475000Y-63200000D02*
X135725000Y-63200000D01*
X135375000Y-63000000D02*
X134625000Y-63000000D01*
X135375000Y-61000000D02*
X135375000Y-63000000D01*
X134625000Y-63000000D02*
X134625000Y-61000000D01*
X134625000Y-61000000D02*
X135375000Y-61000000D01*
D13*
X123435000Y-102230000D02*
X123435000Y-99155000D01*
X123435000Y-99155000D02*
X113565000Y-99155000D01*
X122015000Y-103745000D02*
X122015000Y-103245000D01*
X122015000Y-103245000D02*
X114985000Y-103245000D01*
X121995000Y-103745000D02*
X122015000Y-103745000D01*
X114985000Y-103745000D02*
X115005000Y-103745000D01*
X114985000Y-103245000D02*
X114985000Y-103745000D01*
X113565000Y-99155000D02*
X113565000Y-102230000D01*
X121450000Y-79460000D02*
X121450000Y-86400000D01*
X121450000Y-86400000D02*
X137650000Y-86400000D01*
X127950000Y-80930000D02*
X131150000Y-80930000D01*
X128800000Y-82930000D02*
X130300000Y-82930000D01*
X131150000Y-84930000D02*
X127950000Y-84930000D01*
X137650000Y-79460000D02*
X121450000Y-79460000D01*
X137650000Y-86400000D02*
X137650000Y-79460000D01*
X95000000Y-98450000D02*
X106750000Y-98450000D01*
X106750000Y-98450000D02*
X106750000Y-77160000D01*
X94134315Y-91950000D02*
X94700000Y-91550000D01*
X94700000Y-91550000D02*
X94134315Y-91150000D01*
X94134315Y-91150000D02*
X94134315Y-91950000D01*
X93150000Y-89440000D02*
X93150000Y-86170000D01*
X95000000Y-89440000D02*
X93150000Y-89440000D01*
X93150000Y-86170000D02*
X95000000Y-86170000D01*
X95000000Y-77160000D02*
X95000000Y-98450000D01*
X106750000Y-77160000D02*
X95000000Y-77160000D01*
X95000000Y-74385000D02*
X106750000Y-74385000D01*
X106750000Y-74385000D02*
X106750000Y-53095000D01*
X94134315Y-67885000D02*
X94700000Y-67485000D01*
X94700000Y-67485000D02*
X94134315Y-67085000D01*
X94134315Y-67085000D02*
X94134315Y-67885000D01*
X93150000Y-65375000D02*
X93150000Y-62105000D01*
X95000000Y-65375000D02*
X93150000Y-65375000D01*
X93150000Y-62105000D02*
X95000000Y-62105000D01*
X95000000Y-53095000D02*
X95000000Y-74385000D01*
X106750000Y-53095000D02*
X95000000Y-53095000D01*
X119512742Y-58977500D02*
X119987258Y-58977500D01*
X119512742Y-60022500D02*
X119987258Y-60022500D01*
D12*
X140400000Y-70445000D02*
X140400000Y-67525000D01*
X129890000Y-70445000D02*
X140400000Y-70445000D01*
X129890000Y-65795000D02*
X129890000Y-70445000D01*
D13*
X146772000Y-50918000D02*
X149172000Y-50918000D01*
X146772000Y-53318000D02*
X146772000Y-50918000D01*
X149172000Y-50918000D02*
X149172000Y-53318000D01*
X149172000Y-53318000D02*
X146772000Y-53318000D01*
X149403000Y-57396000D02*
X149403000Y-55476000D01*
X149403000Y-55476000D02*
X146718000Y-55476000D01*
X146718000Y-57396000D02*
X149403000Y-57396000D01*
X141819000Y-50918000D02*
X144219000Y-50918000D01*
X141819000Y-53318000D02*
X141819000Y-50918000D01*
X144219000Y-50918000D02*
X144219000Y-53318000D01*
X144219000Y-53318000D02*
X141819000Y-53318000D01*
X145435000Y-102230000D02*
X145435000Y-99155000D01*
X145435000Y-99155000D02*
X135565000Y-99155000D01*
X144015000Y-103745000D02*
X144015000Y-103245000D01*
X144015000Y-103245000D02*
X136985000Y-103245000D01*
X143995000Y-103745000D02*
X144015000Y-103745000D01*
X136985000Y-103745000D02*
X137005000Y-103745000D01*
X136985000Y-103245000D02*
X136985000Y-103745000D01*
X135565000Y-99155000D02*
X135565000Y-102230000D01*
X115179064Y-57425000D02*
X114724936Y-57425000D01*
X115179064Y-55955000D02*
X114724936Y-55955000D01*
D12*
X130700000Y-62625000D02*
X128150000Y-62625000D01*
X129850000Y-61375000D02*
X128150000Y-61375000D01*
D13*
X124114000Y-51908000D02*
X124114000Y-54983000D01*
X124114000Y-54983000D02*
X133984000Y-54983000D01*
X125534000Y-50393000D02*
X125534000Y-50893000D01*
X125534000Y-50893000D02*
X132564000Y-50893000D01*
X125554000Y-50393000D02*
X125534000Y-50393000D01*
X132564000Y-50393000D02*
X132544000Y-50393000D01*
X132564000Y-50893000D02*
X132564000Y-50393000D01*
X133984000Y-54983000D02*
X133984000Y-51908000D01*
D12*
X128335000Y-76120000D02*
X128335000Y-73200000D01*
X117825000Y-76120000D02*
X128335000Y-76120000D01*
X117825000Y-71470000D02*
X117825000Y-76120000D01*
D14*
X134055000Y-89090000D02*
X127835000Y-89090000D01*
X127835000Y-89090000D02*
X127835000Y-95820000D01*
D12*
X123875000Y-90055000D02*
X123875000Y-90055000D01*
X123875000Y-90255000D02*
X123875000Y-90255000D01*
D14*
X127835000Y-95820000D02*
X134055000Y-95820000D01*
D12*
X123875000Y-90255000D02*
G75*
G03*
X123875000Y-90055000I0J100000D01*
G01*
X123875000Y-90055000D02*
G75*
G03*
X123875000Y-90255000I0J-100000D01*
G01*
D13*
X113800000Y-50918000D02*
X116200000Y-50918000D01*
X113800000Y-53318000D02*
X113800000Y-50918000D01*
X116200000Y-50918000D02*
X116200000Y-53318000D01*
X116200000Y-53318000D02*
X113800000Y-53318000D01*
X118800000Y-50918000D02*
X121200000Y-50918000D01*
X118800000Y-53318000D02*
X118800000Y-50918000D01*
X121200000Y-50918000D02*
X121200000Y-53318000D01*
X121200000Y-53318000D02*
X118800000Y-53318000D01*
X136739000Y-50918000D02*
X139139000Y-50918000D01*
X136739000Y-53318000D02*
X136739000Y-50918000D01*
X139139000Y-50918000D02*
X139139000Y-53318000D01*
X139139000Y-53318000D02*
X136739000Y-53318000D01*
X163225000Y-53095000D02*
X151475000Y-53095000D01*
X151475000Y-53095000D02*
X151475000Y-74385000D01*
X164090685Y-59595000D02*
X163525000Y-59995000D01*
X163525000Y-59995000D02*
X164090685Y-60395000D01*
X164090685Y-60395000D02*
X164090685Y-59595000D01*
X165075000Y-62105000D02*
X165075000Y-65375000D01*
X163225000Y-62105000D02*
X165075000Y-62105000D01*
X165075000Y-65375000D02*
X163225000Y-65375000D01*
X163225000Y-74385000D02*
X163225000Y-53095000D01*
X151475000Y-74385000D02*
X163225000Y-74385000D01*
X143172936Y-55701000D02*
X143627064Y-55701000D01*
X143172936Y-57171000D02*
X143627064Y-57171000D01*
D12*
X124475000Y-63200000D02*
X123725000Y-63200000D01*
X123375000Y-63000000D02*
X122625000Y-63000000D01*
X123375000Y-61000000D02*
X123375000Y-63000000D01*
X122625000Y-63000000D02*
X122625000Y-61000000D01*
X122625000Y-61000000D02*
X123375000Y-61000000D01*
%LPC*%
D15*
X93000000Y-48000000D03*
D16*
X137685000Y-73200000D03*
D17*
X135145000Y-73200000D03*
X132605000Y-73200000D03*
D16*
X125620000Y-67485000D03*
D17*
X123080000Y-67485000D03*
X120540000Y-67485000D03*
D18*
X158645000Y-84060000D03*
X155465000Y-84060000D03*
X158645000Y-91550000D03*
X155465000Y-91550000D03*
D19*
X109696500Y-56690000D03*
X111571500Y-56690000D03*
D15*
X165000000Y-104000000D03*
D20*
X128175000Y-59500000D03*
X129825000Y-59500000D03*
D21*
X110126000Y-52118000D03*
D22*
X136100000Y-62650000D03*
X136100000Y-62000000D03*
X136100000Y-61350000D03*
X133900000Y-61350000D03*
X133900000Y-62000000D03*
X133900000Y-62650000D03*
D23*
X123000000Y-103125000D03*
X114000000Y-103125000D03*
D24*
X120000000Y-101165000D03*
D25*
X117000000Y-101165000D03*
D26*
X124590000Y-81230000D03*
X124590000Y-84630000D03*
X134510000Y-81230000D03*
X134510000Y-84630000D03*
D18*
X99580000Y-91550000D03*
X102760000Y-91550000D03*
X99580000Y-84060000D03*
X102760000Y-84060000D03*
D15*
X165000000Y-48000000D03*
D18*
X99580000Y-67485000D03*
X102760000Y-67485000D03*
X99580000Y-59995000D03*
X102760000Y-59995000D03*
D20*
X118925000Y-59500000D03*
X120575000Y-59500000D03*
D16*
X137685000Y-67525000D03*
D17*
X135145000Y-67525000D03*
X132605000Y-67525000D03*
D21*
X147972000Y-52118000D03*
D15*
X93000000Y-104000000D03*
D27*
X148655500Y-56436000D03*
X146780500Y-56436000D03*
D21*
X143019000Y-52118000D03*
D23*
X145000000Y-103125000D03*
X136000000Y-103125000D03*
D24*
X142000000Y-101165000D03*
D25*
X139000000Y-101165000D03*
D28*
X115864500Y-56690000D03*
X114039500Y-56690000D03*
D29*
X130150000Y-62000000D03*
X127850000Y-62000000D03*
D23*
X124549000Y-51013000D03*
X133549000Y-51013000D03*
D30*
X127549000Y-52973000D03*
D25*
X130549000Y-52973000D03*
D16*
X125620000Y-73200000D03*
D17*
X123080000Y-73200000D03*
X120540000Y-73200000D03*
D31*
X125675000Y-90175000D03*
D32*
X132075000Y-92455000D03*
D31*
X125675000Y-94735000D03*
D21*
X115000000Y-52118000D03*
X120000000Y-52118000D03*
X137939000Y-52118000D03*
D18*
X158645000Y-59995000D03*
X155465000Y-59995000D03*
X158645000Y-67485000D03*
X155465000Y-67485000D03*
D33*
X142487500Y-56436000D03*
X144312500Y-56436000D03*
D22*
X124100000Y-62650000D03*
X124100000Y-62000000D03*
X124100000Y-61350000D03*
X121900000Y-61350000D03*
X121900000Y-62000000D03*
X121900000Y-62650000D03*
%LPD*%
M02*
