G04 #@! TF.GenerationSoftware,KiCad,Pcbnew,8.0.0*
G04 #@! TF.CreationDate,2024-11-27T00:01:04-06:00*
G04 #@! TF.ProjectId,Power-Secondary,506f7765-722d-4536-9563-6f6e64617279,rev?*
G04 #@! TF.SameCoordinates,Original*
G04 #@! TF.FileFunction,Copper,L1,Top*
G04 #@! TF.FilePolarity,Positive*
%FSLAX46Y46*%
G04 Gerber Fmt 4.6, Leading zero omitted, Abs format (unit mm)*
G04 Created by KiCad (PCBNEW 8.0.0) date 2024-11-27 00:01:04*
%MOMM*%
%LPD*%
G01*
G04 APERTURE LIST*
G04 Aperture macros list*
%AMRoundRect*
0 Rectangle with rounded corners*
0 $1 Rounding radius*
0 $2 $3 $4 $5 $6 $7 $8 $9 X,Y pos of 4 corners*
0 Add a 4 corners polygon primitive as box body*
4,1,4,$2,$3,$4,$5,$6,$7,$8,$9,$2,$3,0*
0 Add four circle primitives for the rounded corners*
1,1,$1+$1,$2,$3*
1,1,$1+$1,$4,$5*
1,1,$1+$1,$6,$7*
1,1,$1+$1,$8,$9*
0 Add four rect primitives between the rounded corners*
20,1,$1+$1,$2,$3,$4,$5,0*
20,1,$1+$1,$4,$5,$6,$7,0*
20,1,$1+$1,$6,$7,$8,$9,0*
20,1,$1+$1,$8,$9,$2,$3,0*%
%AMFreePoly0*
4,1,7,1.500000,0.866025,1.500000,-0.866025,0.000000,-1.732051,-1.500000,-0.866025,-1.500000,0.866025,0.000000,1.732051,1.500000,0.866025,1.500000,0.866025,$1*%
G04 Aperture macros list end*
G04 #@! TA.AperFunction,SMDPad,CuDef*
%ADD10RoundRect,0.250000X-0.450000X0.262500X-0.450000X-0.262500X0.450000X-0.262500X0.450000X0.262500X0*%
G04 #@! TD*
G04 #@! TA.AperFunction,ConnectorPad*
%ADD11FreePoly0,90.000000*%
G04 #@! TD*
G04 #@! TA.AperFunction,SMDPad,CuDef*
%ADD12RoundRect,0.243750X0.243750X0.456250X-0.243750X0.456250X-0.243750X-0.456250X0.243750X-0.456250X0*%
G04 #@! TD*
G04 #@! TA.AperFunction,SMDPad,CuDef*
%ADD13RoundRect,0.243750X-0.243750X-0.456250X0.243750X-0.456250X0.243750X0.456250X-0.243750X0.456250X0*%
G04 #@! TD*
G04 #@! TA.AperFunction,SMDPad,CuDef*
%ADD14RoundRect,0.225000X-0.225000X-0.250000X0.225000X-0.250000X0.225000X0.250000X-0.225000X0.250000X0*%
G04 #@! TD*
G04 #@! TA.AperFunction,ComponentPad*
%ADD15R,3.430000X3.780000*%
G04 #@! TD*
G04 #@! TA.AperFunction,SMDPad,CuDef*
%ADD16RoundRect,0.125000X-0.125000X-0.625000X0.125000X-0.625000X0.125000X0.625000X-0.125000X0.625000X0*%
G04 #@! TD*
G04 #@! TA.AperFunction,SMDPad,CuDef*
%ADD17R,3.450000X1.450000*%
G04 #@! TD*
G04 #@! TA.AperFunction,SMDPad,CuDef*
%ADD18R,1.530000X1.180000*%
G04 #@! TD*
G04 #@! TA.AperFunction,SMDPad,CuDef*
%ADD19R,5.630000X7.210000*%
G04 #@! TD*
G04 #@! TA.AperFunction,ComponentPad*
%ADD20R,3.780000X3.430000*%
G04 #@! TD*
G04 #@! TA.AperFunction,ComponentPad*
%ADD21R,1.700000X1.700000*%
G04 #@! TD*
G04 #@! TA.AperFunction,ComponentPad*
%ADD22O,1.700000X1.700000*%
G04 #@! TD*
G04 #@! TA.AperFunction,SMDPad,CuDef*
%ADD23RoundRect,0.250000X-0.475000X0.250000X-0.475000X-0.250000X0.475000X-0.250000X0.475000X0.250000X0*%
G04 #@! TD*
G04 #@! TA.AperFunction,SMDPad,CuDef*
%ADD24RoundRect,0.163043X-1.036957X0.586957X-1.036957X-0.586957X1.036957X-0.586957X1.036957X0.586957X0*%
G04 #@! TD*
G04 #@! TA.AperFunction,SMDPad,CuDef*
%ADD25RoundRect,0.102500X-0.257500X-0.102500X0.257500X-0.102500X0.257500X0.102500X-0.257500X0.102500X0*%
G04 #@! TD*
G04 #@! TA.AperFunction,SMDPad,CuDef*
%ADD26R,0.510000X0.585000*%
G04 #@! TD*
G04 #@! TA.AperFunction,SMDPad,CuDef*
%ADD27R,3.990000X3.960000*%
G04 #@! TD*
G04 #@! TA.AperFunction,SMDPad,CuDef*
%ADD28R,0.410000X0.470000*%
G04 #@! TD*
G04 #@! TA.AperFunction,SMDPad,CuDef*
%ADD29RoundRect,0.163043X1.036957X-0.586957X1.036957X0.586957X-1.036957X0.586957X-1.036957X-0.586957X0*%
G04 #@! TD*
G04 #@! TA.AperFunction,ComponentPad*
%ADD30R,1.200000X1.200000*%
G04 #@! TD*
G04 #@! TA.AperFunction,ComponentPad*
%ADD31C,1.200000*%
G04 #@! TD*
G04 #@! TA.AperFunction,SMDPad,CuDef*
%ADD32RoundRect,0.250000X0.250000X0.475000X-0.250000X0.475000X-0.250000X-0.475000X0.250000X-0.475000X0*%
G04 #@! TD*
G04 #@! TA.AperFunction,ComponentPad*
%ADD33C,1.700000*%
G04 #@! TD*
G04 #@! TA.AperFunction,SMDPad,CuDef*
%ADD34RoundRect,0.150000X0.512500X0.150000X-0.512500X0.150000X-0.512500X-0.150000X0.512500X-0.150000X0*%
G04 #@! TD*
G04 #@! TA.AperFunction,SMDPad,CuDef*
%ADD35R,1.651000X0.431800*%
G04 #@! TD*
G04 #@! TA.AperFunction,ViaPad*
%ADD36C,0.800000*%
G04 #@! TD*
G04 #@! TA.AperFunction,Conductor*
%ADD37C,0.250000*%
G04 #@! TD*
G04 APERTURE END LIST*
D10*
X145300000Y-86675000D03*
X145300000Y-88500000D03*
D11*
X113500000Y-104000000D03*
D12*
X166760000Y-72100000D03*
X164885000Y-72100000D03*
D13*
X111525000Y-72000000D03*
X113400000Y-72000000D03*
D10*
X128925000Y-86687500D03*
X128925000Y-88512500D03*
D11*
X118400000Y-104000000D03*
X153000000Y-104000000D03*
D10*
X120700000Y-87710000D03*
X120700000Y-89535000D03*
D14*
X143325000Y-96750000D03*
X144875000Y-96750000D03*
D15*
X171700000Y-83800000D03*
X168520000Y-83800000D03*
X171700000Y-91290000D03*
X168520000Y-91290000D03*
D11*
X129500000Y-100500000D03*
X170100000Y-73300000D03*
D10*
X147400000Y-86675000D03*
X147400000Y-88500000D03*
D11*
X136000000Y-51000000D03*
X108300000Y-73500000D03*
D16*
X138300000Y-103200000D03*
X139250000Y-103200000D03*
X140200000Y-103200000D03*
X140200000Y-105400000D03*
X139250000Y-105400000D03*
X138300000Y-105400000D03*
D13*
X111525000Y-69800000D03*
X113400000Y-69800000D03*
D10*
X157795000Y-87567500D03*
X157795000Y-89392500D03*
D11*
X160000000Y-104000000D03*
D17*
X142300000Y-77200000D03*
X142300000Y-71400000D03*
D18*
X152900000Y-80700000D03*
X152900000Y-78700000D03*
X152900000Y-76700000D03*
X152900000Y-74700000D03*
D19*
X147650000Y-77700000D03*
D17*
X136200000Y-77200000D03*
X136200000Y-71400000D03*
D20*
X153210000Y-55300000D03*
X153210000Y-58480000D03*
X160700000Y-55300000D03*
X160700000Y-58480000D03*
D18*
X122950000Y-80750000D03*
X122950000Y-78750000D03*
X122950000Y-76750000D03*
X122950000Y-74750000D03*
D19*
X117700000Y-77750000D03*
D11*
X149000000Y-104000000D03*
X125500000Y-104000000D03*
D10*
X158500000Y-96387500D03*
X158500000Y-98212500D03*
D21*
X123700000Y-91300000D03*
D22*
X123700000Y-93840000D03*
X123700000Y-96380000D03*
D11*
X164900000Y-104000000D03*
D23*
X120700000Y-91390000D03*
X120700000Y-93290000D03*
D24*
X117000000Y-85675000D03*
X117000000Y-89975000D03*
D10*
X131012500Y-86687500D03*
X131012500Y-88512500D03*
D11*
X129500000Y-104000000D03*
X142000000Y-50900000D03*
D25*
X144035000Y-64910000D03*
X144035000Y-66180000D03*
X144035000Y-67450000D03*
X144035000Y-68720000D03*
D26*
X146750000Y-64542500D03*
X146750000Y-69087500D03*
D27*
X147830000Y-66815000D03*
D28*
X149620000Y-64600000D03*
X149620000Y-69030000D03*
D12*
X166837500Y-99800000D03*
X164962500Y-99800000D03*
D29*
X161420000Y-89830000D03*
X161420000Y-85530000D03*
D11*
X145000000Y-104000000D03*
D20*
X117500000Y-55320000D03*
X117500000Y-58500000D03*
X124990000Y-55320000D03*
X124990000Y-58500000D03*
D18*
X155450000Y-74700000D03*
X155450000Y-76700000D03*
X155450000Y-78700000D03*
X155450000Y-80700000D03*
D19*
X160700000Y-77700000D03*
D30*
X139000000Y-61500000D03*
D31*
X139000000Y-56500000D03*
D10*
X149500000Y-86675000D03*
X149500000Y-88500000D03*
D18*
X125550000Y-74750000D03*
X125550000Y-76750000D03*
X125550000Y-78750000D03*
X125550000Y-80750000D03*
D19*
X130800000Y-77750000D03*
D32*
X109150000Y-60000000D03*
X107250000Y-60000000D03*
D10*
X133112500Y-86687500D03*
X133112500Y-88512500D03*
D15*
X106820000Y-91300000D03*
X110000000Y-91300000D03*
X106820000Y-83810000D03*
X110000000Y-83810000D03*
D32*
X135050000Y-97000000D03*
X133150000Y-97000000D03*
D33*
X175450000Y-71200000D03*
X175450000Y-68200000D03*
D21*
X154800000Y-91300000D03*
D22*
X154800000Y-93840000D03*
X154800000Y-96380000D03*
D11*
X133500000Y-104000000D03*
D32*
X109150000Y-62300000D03*
X107250000Y-62300000D03*
D34*
X148987500Y-98700000D03*
X148987500Y-96800000D03*
X146712500Y-97750000D03*
D21*
X141700000Y-100000000D03*
D22*
X139160000Y-100000000D03*
X136620000Y-100000000D03*
D12*
X166760000Y-70000000D03*
X164885000Y-70000000D03*
D23*
X157795000Y-91247500D03*
X157795000Y-93147500D03*
D35*
X135585600Y-84149999D03*
X135585600Y-84800000D03*
X135585600Y-85450001D03*
X135585600Y-86100000D03*
X135585600Y-86750001D03*
X135585600Y-87400000D03*
X135585600Y-88050001D03*
X135585600Y-88700000D03*
X135585600Y-89350001D03*
X135585600Y-90000000D03*
X135585600Y-90650001D03*
X135585600Y-91300000D03*
X135585600Y-91950001D03*
X135585600Y-92599999D03*
X135585600Y-93250001D03*
X135585600Y-93899999D03*
X135585600Y-94549998D03*
X135585600Y-95199999D03*
X142850000Y-95199999D03*
X142850000Y-94549998D03*
X142850000Y-93899999D03*
X142850000Y-93249998D03*
X142850000Y-92599999D03*
X142850000Y-91949998D03*
X142850000Y-91300000D03*
X142850000Y-90649998D03*
X142850000Y-90000000D03*
X142850000Y-89349998D03*
X142850000Y-88700000D03*
X142850000Y-88049998D03*
X142850000Y-87400000D03*
X142850000Y-86749999D03*
X142850000Y-86100000D03*
X142850000Y-85449999D03*
X142850000Y-84800000D03*
X142850000Y-84149999D03*
D13*
X111562500Y-99800000D03*
X113437500Y-99800000D03*
D36*
X107200000Y-62300000D03*
X120700000Y-93300000D03*
X113500000Y-104000000D03*
X157800000Y-93200000D03*
X144900000Y-96750000D03*
X158500000Y-98200000D03*
X117000000Y-90000000D03*
X164900000Y-104000000D03*
X142000000Y-50900000D03*
X143800000Y-83200000D03*
X133150000Y-97000000D03*
X147900000Y-98700000D03*
X161400000Y-85500000D03*
X107200000Y-60000000D03*
X131000000Y-61000000D03*
X111000000Y-61000000D03*
X135100000Y-71400000D03*
X103000000Y-57000000D03*
X131000000Y-65000000D03*
X135000000Y-65000000D03*
X143400000Y-71400000D03*
X107000000Y-53000000D03*
X111000000Y-57000000D03*
X142300000Y-71400000D03*
X146100000Y-73200000D03*
X137400000Y-85448000D03*
X103000000Y-65000000D03*
X137300000Y-71400000D03*
X103000000Y-69000000D03*
X107000000Y-69000000D03*
X111000000Y-65000000D03*
X131000000Y-57000000D03*
X115000000Y-69000000D03*
X136200000Y-71400000D03*
X127000000Y-65000000D03*
X127000000Y-69000000D03*
X141000000Y-85448000D03*
X131000000Y-53000000D03*
X139000000Y-53000000D03*
X119000000Y-69000000D03*
X139000000Y-69000000D03*
X111000000Y-53000000D03*
X131000000Y-69000000D03*
X135000000Y-61000000D03*
X107000000Y-65000000D03*
X143000000Y-61000000D03*
X115000000Y-65000000D03*
X135000000Y-57000000D03*
X143000000Y-57000000D03*
X123000000Y-69000000D03*
X103000000Y-61000000D03*
X119000000Y-65000000D03*
X123000000Y-65000000D03*
X135000000Y-69000000D03*
X107000000Y-57000000D03*
X141200000Y-71400000D03*
X137700000Y-82150000D03*
X138100000Y-93900000D03*
X131000000Y-95112500D03*
X138100000Y-95175000D03*
X127050000Y-76750000D03*
X121600000Y-76700000D03*
X121600000Y-74700000D03*
X127050000Y-80750000D03*
X124250000Y-78800000D03*
X123450000Y-76450000D03*
X121600000Y-78700000D03*
X127050000Y-78750000D03*
X122979000Y-80750000D03*
X108300000Y-73500000D03*
X125550000Y-74750000D03*
X155400000Y-74700000D03*
X152950000Y-80700000D03*
X170100000Y-73300000D03*
X151400000Y-78700000D03*
X156900000Y-78700000D03*
X156900000Y-76700000D03*
X154150000Y-78750000D03*
X156900000Y-80700000D03*
X151400000Y-74700000D03*
X155050000Y-76400000D03*
X151400000Y-76700000D03*
X137900000Y-90500000D03*
X140600000Y-90500000D03*
X119500000Y-77000000D03*
X116000000Y-80250000D03*
X118000000Y-96000000D03*
X116000000Y-78500000D03*
X102000000Y-96000000D03*
X110000000Y-88000000D03*
X102000000Y-76000000D03*
X106000000Y-80000000D03*
X117750000Y-75250000D03*
X110000000Y-80000000D03*
X106000000Y-88000000D03*
X114000000Y-96000000D03*
X110000000Y-76000000D03*
X102000000Y-88000000D03*
X102000000Y-80000000D03*
X119500000Y-75250000D03*
X117750000Y-80250000D03*
X106000000Y-76000000D03*
X110000000Y-96000000D03*
X108000000Y-100000000D03*
X108000000Y-103000000D03*
X114000000Y-88000000D03*
X118000000Y-88000000D03*
X106000000Y-96000000D03*
X164488113Y-101121455D03*
X160000000Y-96000000D03*
X176000000Y-88000000D03*
X176000000Y-80000000D03*
X170000000Y-100000000D03*
X168000000Y-76000000D03*
X160750000Y-75250000D03*
X164000000Y-88000000D03*
X162500000Y-80250000D03*
X172000000Y-76000000D03*
X159000000Y-75250000D03*
X168000000Y-88000000D03*
X172000000Y-96000000D03*
X172000000Y-88000000D03*
X162500000Y-78500000D03*
X172000000Y-80000000D03*
X164000000Y-96000000D03*
X176000000Y-96000000D03*
X160750000Y-80250000D03*
X168000000Y-80000000D03*
X160000000Y-88000000D03*
X170000000Y-103000000D03*
X113895216Y-101204784D03*
X168000000Y-96000000D03*
X159000000Y-77000000D03*
X111600000Y-99800000D03*
X166900000Y-99700000D03*
X166700000Y-70000000D03*
X166700000Y-72100000D03*
X111400000Y-72000000D03*
X111400000Y-69800000D03*
X126600000Y-93300000D03*
X151800000Y-93300000D03*
X140400000Y-97000000D03*
X114412515Y-72948000D03*
X127100000Y-86100000D03*
X122311034Y-82288966D03*
X153250000Y-86100000D03*
X157700000Y-82150000D03*
X138100000Y-97000000D03*
X131000000Y-88500000D03*
X133100000Y-88500000D03*
X149500000Y-88500000D03*
X147400000Y-88500000D03*
X138300000Y-105400000D03*
X140200000Y-105400000D03*
X156750000Y-82166842D03*
X151400000Y-86100000D03*
X121300000Y-82300000D03*
X125200000Y-86100000D03*
X128800000Y-93300000D03*
X153000000Y-103100000D03*
X149600000Y-93300000D03*
X131000000Y-93300000D03*
X136296930Y-102274862D03*
X133200000Y-93300000D03*
X133550000Y-103100000D03*
X146350000Y-99950000D03*
X145200000Y-93300000D03*
X128900000Y-88500000D03*
X145300000Y-88500000D03*
X129300000Y-75500000D03*
X135100000Y-77200000D03*
X132400000Y-75500000D03*
X136200000Y-77200000D03*
X132400000Y-80100000D03*
X132400000Y-77900000D03*
X129300000Y-77900000D03*
X137300000Y-77200000D03*
X129300000Y-80100000D03*
X146200000Y-77700000D03*
X146200000Y-75300000D03*
X141200000Y-77200000D03*
X149300000Y-75300000D03*
X149300000Y-77700000D03*
X143400000Y-77200000D03*
X142300000Y-77200000D03*
X146200000Y-79900000D03*
X149300000Y-79900000D03*
X148000000Y-57000000D03*
X168000000Y-57000000D03*
X172000000Y-57000000D03*
X174800000Y-57900000D03*
X160000000Y-65000000D03*
X156000000Y-65000000D03*
X164000000Y-65000000D03*
X148000000Y-53000000D03*
X152000000Y-65000000D03*
X156000000Y-57000000D03*
X156000000Y-61000000D03*
X172000000Y-61000000D03*
X164000000Y-57000000D03*
X172000000Y-69000000D03*
X168000000Y-61000000D03*
X152000000Y-69000000D03*
X173900000Y-58100000D03*
X168000000Y-65000000D03*
X160000000Y-69000000D03*
X148000000Y-61000000D03*
X164000000Y-61000000D03*
X156000000Y-69000000D03*
X164000000Y-53000000D03*
X176000000Y-65000000D03*
X172000000Y-65000000D03*
X156000000Y-53000000D03*
X168000000Y-53000000D03*
X147400000Y-93300000D03*
X149000000Y-103050000D03*
D37*
X139250000Y-103200000D02*
X139250000Y-102450000D01*
X148987500Y-98700000D02*
X147900000Y-98700000D01*
X142850000Y-84800000D02*
X142850000Y-84150000D01*
X142850000Y-84150000D02*
X143800000Y-83200000D01*
X142850001Y-84149999D02*
X143800000Y-83200000D01*
X142850000Y-84149999D02*
X142850001Y-84149999D01*
X139250000Y-102450000D02*
X141700000Y-100000000D01*
X120700000Y-89535000D02*
X120700000Y-91390000D01*
X157795000Y-89392500D02*
X157795000Y-91247500D01*
X135585600Y-85450001D02*
X137397999Y-85450001D01*
X146100000Y-73200000D02*
X163725000Y-73200000D01*
X137397999Y-85450001D02*
X137400000Y-85448000D01*
X135585600Y-84800000D02*
X135585600Y-85450001D01*
X164862500Y-72100000D02*
X164862500Y-70000000D01*
X141000000Y-85448000D02*
X141001999Y-85449999D01*
X141001999Y-85449999D02*
X142850000Y-85449999D01*
X163725000Y-73200000D02*
X164825000Y-72100000D01*
X137700000Y-82150000D02*
X135700001Y-84149999D01*
X135700001Y-84149999D02*
X135585600Y-84149999D01*
X134508100Y-94391900D02*
X135000001Y-93899999D01*
X137474998Y-94549998D02*
X135585600Y-94549998D01*
X137302000Y-104202000D02*
X131000000Y-97900000D01*
X138099999Y-93899999D02*
X135585600Y-93899999D01*
X139250000Y-104950000D02*
X138502000Y-104202000D01*
X135050000Y-97000000D02*
X134508100Y-96458100D01*
X135000001Y-93899999D02*
X135585600Y-93899999D01*
X138100000Y-95175000D02*
X137474998Y-94549998D01*
X138502000Y-104202000D02*
X137302000Y-104202000D01*
X131000000Y-96625020D02*
X131000000Y-95112500D01*
X139250000Y-105400000D02*
X139250000Y-104950000D01*
X129500000Y-100500000D02*
X129500000Y-99400000D01*
X129500000Y-99400000D02*
X131000000Y-97900000D01*
X138100000Y-93900000D02*
X138099999Y-93899999D01*
X134508100Y-96458100D02*
X134508100Y-94391900D01*
X135585600Y-94549998D02*
X135585600Y-93899999D01*
X131000000Y-97900000D02*
X131000000Y-96625020D01*
X127723000Y-82023000D02*
X130589841Y-82023000D01*
X127050000Y-81350000D02*
X127723000Y-82023000D01*
X134690201Y-86750001D02*
X134508100Y-86567900D01*
X127050000Y-80750000D02*
X127050000Y-81350000D01*
X135585600Y-86750001D02*
X134690201Y-86750001D01*
X130589841Y-82023000D02*
X134508100Y-85941259D01*
X134508100Y-86567900D02*
X134508100Y-85941259D01*
X134131100Y-86724059D02*
X134807041Y-87400000D01*
X124629000Y-82400000D02*
X130400000Y-82400000D01*
X130400000Y-82400000D02*
X134131100Y-86131100D01*
X134131100Y-86131100D02*
X134131100Y-86724059D01*
X134807041Y-87400000D02*
X135585600Y-87400000D01*
X122979000Y-80750000D02*
X124629000Y-82400000D01*
X151323001Y-82327000D02*
X152950000Y-80700000D01*
X144348000Y-86977500D02*
X144348000Y-86197638D01*
X152645638Y-80700000D02*
X152950000Y-80700000D01*
X143925500Y-87400000D02*
X144348000Y-86977500D01*
X142850000Y-87400000D02*
X143925500Y-87400000D01*
X148218638Y-82327000D02*
X151323001Y-82327000D01*
X144348000Y-86197638D02*
X148218638Y-82327000D01*
X148062480Y-81950000D02*
X151166842Y-81950000D01*
X143971000Y-86704499D02*
X143971000Y-86041480D01*
X151450000Y-81666842D02*
X151450000Y-78700000D01*
X142850000Y-86749999D02*
X143925500Y-86749999D01*
X151166842Y-81950000D02*
X151450000Y-81666842D01*
X143971000Y-86041480D02*
X148062480Y-81950000D01*
X143925500Y-86749999D02*
X143971000Y-86704499D01*
X143325000Y-95674999D02*
X142850000Y-95199999D01*
X143325000Y-96750000D02*
X143325000Y-95674999D01*
X135585600Y-90650001D02*
X137749999Y-90650001D01*
X137749999Y-90650001D02*
X137900000Y-90500000D01*
X142850000Y-90649998D02*
X140749998Y-90649998D01*
X140749998Y-90649998D02*
X140600000Y-90500000D01*
X133200000Y-86687500D02*
X134562501Y-88050001D01*
X134562501Y-88050001D02*
X135585600Y-88050001D01*
X133112500Y-86687500D02*
X131012500Y-86687500D01*
X127902500Y-87710000D02*
X128925000Y-86687500D01*
X128925000Y-86687500D02*
X131012500Y-86687500D01*
X120700000Y-87710000D02*
X127902500Y-87710000D01*
X147400000Y-86675000D02*
X149500000Y-86675000D01*
X156800000Y-97600000D02*
X158100000Y-96300000D01*
X143825002Y-88049998D02*
X142850000Y-88049998D01*
X150292500Y-87567500D02*
X157795000Y-87567500D01*
X148987500Y-96800000D02*
X149787500Y-97600000D01*
X149787500Y-97600000D02*
X156800000Y-97600000D01*
X113437500Y-100747068D02*
X113437500Y-99800000D01*
X165000000Y-100609568D02*
X165000000Y-99737500D01*
X145300000Y-86675000D02*
X147400000Y-86675000D01*
X113895216Y-101204784D02*
X113437500Y-100747068D01*
X164488113Y-101121455D02*
X165000000Y-100609568D01*
X165000000Y-99737500D02*
X164962500Y-99700000D01*
X149500000Y-86675000D02*
X150392500Y-87567500D01*
X145200000Y-86675000D02*
X143825002Y-88049998D01*
X128600000Y-91300000D02*
X135585600Y-91300000D01*
X126600000Y-93300000D02*
X128600000Y-91300000D01*
X126060000Y-93840000D02*
X126600000Y-93300000D01*
X123700000Y-93840000D02*
X126060000Y-93840000D01*
X152340000Y-93840000D02*
X151800000Y-93300000D01*
X149800000Y-91300000D02*
X142850000Y-91300000D01*
X151800000Y-93300000D02*
X149800000Y-91300000D01*
X154800000Y-93840000D02*
X152340000Y-93840000D01*
X141954601Y-94549998D02*
X142850000Y-94549998D01*
X140400000Y-97000000D02*
X140400000Y-96104599D01*
X140400000Y-96104599D02*
X141954601Y-94549998D01*
X140400000Y-98760000D02*
X139160000Y-100000000D01*
X140400000Y-97000000D02*
X140400000Y-98760000D01*
X127100000Y-86100000D02*
X126122068Y-86100000D01*
X144277000Y-72377000D02*
X144277000Y-68962000D01*
X144277000Y-68962000D02*
X144035000Y-68720000D01*
X126122068Y-86100000D02*
X122311034Y-82288966D01*
X143754000Y-72900000D02*
X144277000Y-72377000D01*
X114460515Y-72900000D02*
X143754000Y-72900000D01*
X114412515Y-72948000D02*
X114460515Y-72900000D01*
X157031158Y-82818842D02*
X157700000Y-82150000D01*
X153250000Y-85683158D02*
X156114316Y-82818842D01*
X156114316Y-82818842D02*
X157031158Y-82818842D01*
X153250000Y-86100000D02*
X153250000Y-85683158D01*
X138100000Y-97000000D02*
X141200001Y-93899999D01*
X142850000Y-93899999D02*
X143925500Y-93899999D01*
X143925500Y-93899999D02*
X146712500Y-96686999D01*
X146712500Y-96686999D02*
X146712500Y-97750000D01*
X141200001Y-93899999D02*
X142850000Y-93899999D01*
X131000000Y-88500000D02*
X131850001Y-89350001D01*
X131850001Y-89350001D02*
X135585600Y-89350001D01*
X131012500Y-88512500D02*
X131000000Y-88500000D01*
X133112500Y-88512500D02*
X133100000Y-88500000D01*
X133300000Y-88700000D02*
X135585600Y-88700000D01*
X133100000Y-88500000D02*
X133300000Y-88700000D01*
X149500000Y-88500000D02*
X148000000Y-90000000D01*
X148000000Y-90000000D02*
X142850000Y-90000000D01*
X146550002Y-89349998D02*
X142850000Y-89349998D01*
X147400000Y-88500000D02*
X146550002Y-89349998D01*
X156750000Y-82166842D02*
X156233158Y-82166842D01*
X152300000Y-86100000D02*
X151400000Y-86100000D01*
X156233158Y-82166842D02*
X152300000Y-86100000D01*
X125100000Y-86100000D02*
X125200000Y-86100000D01*
X121300000Y-82300000D02*
X125100000Y-86100000D01*
X130149999Y-91950001D02*
X135585600Y-91950001D01*
X127100000Y-95000000D02*
X128800000Y-93300000D01*
X128800000Y-93300000D02*
X130149999Y-91950001D01*
X127100000Y-102400000D02*
X127100000Y-95000000D01*
X125500000Y-104000000D02*
X127100000Y-102400000D01*
X149600000Y-93300000D02*
X148249998Y-91949998D01*
X148249998Y-91949998D02*
X142850000Y-91949998D01*
X129700000Y-93300000D02*
X131000000Y-93300000D01*
X127511119Y-102011119D02*
X127511119Y-95488881D01*
X127511119Y-95488881D02*
X129048000Y-93952000D01*
X129500000Y-104000000D02*
X127511119Y-102011119D01*
X131700001Y-92599999D02*
X135585600Y-92599999D01*
X129452000Y-93548000D02*
X129700000Y-93300000D01*
X129070068Y-93952000D02*
X129452000Y-93570068D01*
X129048000Y-93952000D02*
X129070068Y-93952000D01*
X131000000Y-93300000D02*
X131700001Y-92599999D01*
X129452000Y-93570068D02*
X129452000Y-93548000D01*
X134308138Y-104000000D02*
X133500000Y-104000000D01*
X136274862Y-102274862D02*
X134100000Y-100100000D01*
X134100000Y-100100000D02*
X134100000Y-94200000D01*
X134100000Y-94200000D02*
X133200000Y-93300000D01*
X137222068Y-103200000D02*
X138300000Y-103200000D01*
X133200000Y-93300000D02*
X135535601Y-93300000D01*
X135535601Y-93300000D02*
X135585600Y-93250001D01*
X136296930Y-102274862D02*
X137222068Y-103200000D01*
X136296930Y-102274862D02*
X136274862Y-102274862D01*
X141300000Y-102100000D02*
X140200000Y-103200000D01*
X142900002Y-93300000D02*
X142850000Y-93249998D01*
X146350000Y-99950000D02*
X146350000Y-102650000D01*
X145200000Y-93300000D02*
X142900002Y-93300000D01*
X146350000Y-102650000D02*
X145000000Y-104000000D01*
X146350000Y-99950000D02*
X144200000Y-102100000D01*
X144200000Y-102100000D02*
X141300000Y-102100000D01*
X130500000Y-90000000D02*
X135585600Y-90000000D01*
X128900000Y-88400000D02*
X130500000Y-90000000D01*
X129012500Y-88512500D02*
X129000000Y-88500000D01*
X129000000Y-88500000D02*
X128900000Y-88500000D01*
X128900000Y-88500000D02*
X128900000Y-88400000D01*
X145100000Y-88700000D02*
X142850000Y-88700000D01*
X145300000Y-88500000D02*
X145100000Y-88700000D01*
X136200000Y-77200000D02*
X137300000Y-77200000D01*
X137300000Y-77200000D02*
X138150000Y-77200000D01*
X138500000Y-85450000D02*
X137850000Y-86100000D01*
X138150000Y-77200000D02*
X138500000Y-77550000D01*
X137850000Y-86100000D02*
X135585600Y-86100000D01*
X138500000Y-77550000D02*
X138500000Y-85450000D01*
X140638966Y-86100000D02*
X142850000Y-86100000D01*
X142300000Y-77200000D02*
X141200000Y-77200000D01*
X140000000Y-77600000D02*
X140000000Y-85461034D01*
X140000000Y-85461034D02*
X140638966Y-86100000D01*
X141200000Y-77200000D02*
X140400000Y-77200000D01*
X140400000Y-77200000D02*
X140000000Y-77600000D01*
X146699999Y-92599999D02*
X142850000Y-92599999D01*
X147400000Y-93300000D02*
X146699999Y-92599999D01*
G04 #@! TA.AperFunction,Conductor*
G36*
X147833039Y-73949685D02*
G01*
X147878794Y-74002489D01*
X147890000Y-74054000D01*
X147890000Y-81610791D01*
X147870315Y-81677830D01*
X147853681Y-81698472D01*
X147368472Y-82183681D01*
X147307149Y-82217166D01*
X147280791Y-82220000D01*
X140714000Y-82220000D01*
X140646961Y-82200315D01*
X140601206Y-82147511D01*
X140590000Y-82096000D01*
X140590000Y-74054000D01*
X140609685Y-73986961D01*
X140662489Y-73941206D01*
X140714000Y-73930000D01*
X147766000Y-73930000D01*
X147833039Y-73949685D01*
G37*
G04 #@! TD.AperFunction*
G04 #@! TA.AperFunction,Conductor*
G36*
X124493039Y-73319685D02*
G01*
X124538794Y-73372489D01*
X124550000Y-73424000D01*
X124550000Y-75775000D01*
X127520500Y-75775000D01*
X127587539Y-75794685D01*
X127633294Y-75847489D01*
X127644500Y-75899000D01*
X127644500Y-81573507D01*
X127649197Y-81617186D01*
X127660397Y-81668674D01*
X127662342Y-81676633D01*
X127662890Y-81678873D01*
X127685432Y-81721175D01*
X127700000Y-81779489D01*
X127700000Y-81950500D01*
X127680315Y-82017539D01*
X127627511Y-82063294D01*
X127576000Y-82074500D01*
X124815189Y-82074500D01*
X124748150Y-82054815D01*
X124727508Y-82038181D01*
X124286319Y-81596992D01*
X124252834Y-81535669D01*
X124250000Y-81509311D01*
X124250000Y-79750000D01*
X121129500Y-79750000D01*
X121062461Y-79730315D01*
X121016706Y-79677511D01*
X121005500Y-79626000D01*
X121005500Y-73874008D01*
X121005499Y-73873992D01*
X121000803Y-73830316D01*
X120989597Y-73778805D01*
X120987110Y-73768627D01*
X120984345Y-73761382D01*
X120986404Y-73760595D01*
X120975000Y-73714924D01*
X120975000Y-73424000D01*
X120994685Y-73356961D01*
X121047489Y-73311206D01*
X121099000Y-73300000D01*
X124426000Y-73300000D01*
X124493039Y-73319685D01*
G37*
G04 #@! TD.AperFunction*
G04 #@! TA.AperFunction,Conductor*
G36*
X174961585Y-48601006D02*
G01*
X174974377Y-48600840D01*
X174974379Y-48600841D01*
X174998286Y-48600531D01*
X175004347Y-48600601D01*
X175362965Y-48613554D01*
X175375089Y-48614589D01*
X175727708Y-48662224D01*
X175739651Y-48664438D01*
X176085911Y-48746408D01*
X176097576Y-48749782D01*
X176346653Y-48835272D01*
X176434120Y-48865293D01*
X176445422Y-48869803D01*
X176769027Y-49017745D01*
X176779832Y-49023342D01*
X177087363Y-49202282D01*
X177097554Y-49208901D01*
X177386093Y-49417143D01*
X177395581Y-49424727D01*
X177662305Y-49660236D01*
X177671021Y-49668728D01*
X177913367Y-49929235D01*
X177921208Y-49938540D01*
X178136857Y-50221553D01*
X178143748Y-50231582D01*
X178294299Y-50475520D01*
X178330614Y-50534360D01*
X178336490Y-50545017D01*
X178492784Y-50864667D01*
X178497586Y-50875848D01*
X178621791Y-51209262D01*
X178625475Y-51220860D01*
X178716407Y-51564866D01*
X178718935Y-51576769D01*
X178775707Y-51928009D01*
X178777057Y-51940102D01*
X178799261Y-52297329D01*
X178799500Y-52305022D01*
X178799500Y-69500500D01*
X178779815Y-69567539D01*
X178727011Y-69613294D01*
X178675500Y-69624500D01*
X173693992Y-69624500D01*
X173650313Y-69629197D01*
X173598825Y-69640397D01*
X173588627Y-69642890D01*
X173588624Y-69642891D01*
X173507916Y-69685899D01*
X173507913Y-69685901D01*
X173455104Y-69731660D01*
X173437160Y-69749242D01*
X173437154Y-69749249D01*
X173392511Y-69829059D01*
X173392509Y-69829064D01*
X173372826Y-69896096D01*
X173364500Y-69954003D01*
X173364500Y-72926000D01*
X173344815Y-72993039D01*
X173292011Y-73038794D01*
X173240500Y-73050000D01*
X171996595Y-73050000D01*
X171929556Y-73030315D01*
X171889208Y-72988000D01*
X171883152Y-72977511D01*
X171589618Y-72469097D01*
X171587989Y-72466183D01*
X171540787Y-72378960D01*
X171522218Y-72350540D01*
X171522213Y-72350532D01*
X171520736Y-72348464D01*
X171520821Y-72348402D01*
X171520816Y-72348394D01*
X171520900Y-72348339D01*
X171513881Y-72337916D01*
X171501082Y-72315748D01*
X171330363Y-72020052D01*
X171144003Y-71697266D01*
X171143985Y-71697237D01*
X171126693Y-71671875D01*
X171126692Y-71671874D01*
X171055188Y-71614851D01*
X170966029Y-71594500D01*
X170966025Y-71594500D01*
X170175664Y-71594500D01*
X170165424Y-71594076D01*
X170116980Y-71590061D01*
X170116970Y-71590061D01*
X170083030Y-71590061D01*
X170083019Y-71590061D01*
X170034576Y-71594076D01*
X170024336Y-71594500D01*
X169233955Y-71594500D01*
X169203352Y-71596794D01*
X169203343Y-71596796D01*
X169118214Y-71630206D01*
X169056007Y-71697249D01*
X168686114Y-72337921D01*
X168679104Y-72348346D01*
X168679182Y-72348397D01*
X168679179Y-72348400D01*
X168679266Y-72348462D01*
X168677776Y-72350548D01*
X168659216Y-72378955D01*
X168659205Y-72378973D01*
X168612034Y-72466137D01*
X168610367Y-72469119D01*
X168435588Y-72771847D01*
X168316848Y-72977511D01*
X168310792Y-72988000D01*
X168260225Y-73036216D01*
X168203405Y-73050000D01*
X167437116Y-73050000D01*
X167370077Y-73030315D01*
X167324322Y-72977511D01*
X167314378Y-72908353D01*
X167337346Y-72852366D01*
X167391624Y-72778822D01*
X167400955Y-72766179D01*
X167429889Y-72683491D01*
X167445184Y-72639781D01*
X167445184Y-72639778D01*
X167445186Y-72639774D01*
X167448000Y-72609764D01*
X167448000Y-71590236D01*
X167445186Y-71560226D01*
X167445184Y-71560222D01*
X167445184Y-71560218D01*
X167400955Y-71433821D01*
X167400954Y-71433819D01*
X167321430Y-71326069D01*
X167213680Y-71246545D01*
X167213678Y-71246544D01*
X167087281Y-71202315D01*
X167087269Y-71202313D01*
X167057268Y-71199500D01*
X167057264Y-71199500D01*
X166462736Y-71199500D01*
X166462732Y-71199500D01*
X166432730Y-71202313D01*
X166432718Y-71202315D01*
X166306321Y-71246544D01*
X166306319Y-71246545D01*
X166198569Y-71326069D01*
X166119045Y-71433819D01*
X166119044Y-71433821D01*
X166074815Y-71560218D01*
X166074813Y-71560230D01*
X166072000Y-71590231D01*
X166072000Y-72609768D01*
X166074813Y-72639769D01*
X166074815Y-72639781D01*
X166119044Y-72766178D01*
X166119045Y-72766180D01*
X166182654Y-72852366D01*
X166206625Y-72917995D01*
X166191310Y-72986165D01*
X166141570Y-73035234D01*
X166082884Y-73050000D01*
X165562116Y-73050000D01*
X165495077Y-73030315D01*
X165449322Y-72977511D01*
X165439378Y-72908353D01*
X165462346Y-72852366D01*
X165516624Y-72778822D01*
X165525955Y-72766179D01*
X165554889Y-72683491D01*
X165570184Y-72639781D01*
X165570184Y-72639778D01*
X165570186Y-72639774D01*
X165573000Y-72609764D01*
X165573000Y-71590236D01*
X165570186Y-71560226D01*
X165570184Y-71560222D01*
X165570184Y-71560218D01*
X165525955Y-71433821D01*
X165525954Y-71433819D01*
X165446430Y-71326069D01*
X165338680Y-71246545D01*
X165271044Y-71222878D01*
X165214269Y-71182156D01*
X165188522Y-71117203D01*
X165188000Y-71105837D01*
X165188000Y-70994162D01*
X165207685Y-70927123D01*
X165260489Y-70881368D01*
X165271030Y-70877126D01*
X165338679Y-70853455D01*
X165446430Y-70773930D01*
X165525955Y-70666179D01*
X165570186Y-70539774D01*
X165573000Y-70509768D01*
X166072000Y-70509768D01*
X166074813Y-70539769D01*
X166074815Y-70539781D01*
X166119044Y-70666178D01*
X166119045Y-70666180D01*
X166198569Y-70773930D01*
X166306319Y-70853454D01*
X166306321Y-70853455D01*
X166432718Y-70897684D01*
X166432722Y-70897684D01*
X166432726Y-70897686D01*
X166447731Y-70899093D01*
X166462732Y-70900500D01*
X166462736Y-70900500D01*
X167057268Y-70900500D01*
X167070601Y-70899249D01*
X167087274Y-70897686D01*
X167087278Y-70897684D01*
X167087281Y-70897684D01*
X167158345Y-70872816D01*
X167213679Y-70853455D01*
X167321430Y-70773930D01*
X167400955Y-70666179D01*
X167445186Y-70539774D01*
X167448000Y-70509764D01*
X167448000Y-69490236D01*
X167445186Y-69460226D01*
X167445184Y-69460222D01*
X167445184Y-69460218D01*
X167400955Y-69333821D01*
X167400954Y-69333819D01*
X167321430Y-69226069D01*
X167213680Y-69146545D01*
X167213678Y-69146544D01*
X167087281Y-69102315D01*
X167087269Y-69102313D01*
X167057268Y-69099500D01*
X167057264Y-69099500D01*
X166462736Y-69099500D01*
X166462732Y-69099500D01*
X166432730Y-69102313D01*
X166432718Y-69102315D01*
X166306321Y-69146544D01*
X166306319Y-69146545D01*
X166198569Y-69226069D01*
X166119045Y-69333819D01*
X166119044Y-69333821D01*
X166074815Y-69460218D01*
X166074813Y-69460230D01*
X166072000Y-69490231D01*
X166072000Y-70509768D01*
X165573000Y-70509768D01*
X165573000Y-70509764D01*
X165573000Y-69490236D01*
X165570186Y-69460226D01*
X165570184Y-69460222D01*
X165570184Y-69460218D01*
X165525955Y-69333821D01*
X165525954Y-69333819D01*
X165446430Y-69226069D01*
X165338680Y-69146545D01*
X165338678Y-69146544D01*
X165212281Y-69102315D01*
X165212269Y-69102313D01*
X165182268Y-69099500D01*
X165182264Y-69099500D01*
X164587736Y-69099500D01*
X164587732Y-69099500D01*
X164557730Y-69102313D01*
X164557718Y-69102315D01*
X164431321Y-69146544D01*
X164431319Y-69146545D01*
X164323569Y-69226069D01*
X164244045Y-69333819D01*
X164244044Y-69333821D01*
X164199815Y-69460218D01*
X164199813Y-69460230D01*
X164197000Y-69490231D01*
X164197000Y-70509768D01*
X164199813Y-70539769D01*
X164199815Y-70539781D01*
X164244044Y-70666178D01*
X164244045Y-70666180D01*
X164323569Y-70773930D01*
X164377445Y-70813692D01*
X164431321Y-70853455D01*
X164431324Y-70853456D01*
X164453952Y-70861374D01*
X164510729Y-70902094D01*
X164536478Y-70967046D01*
X164537000Y-70978416D01*
X164537000Y-71121583D01*
X164517315Y-71188622D01*
X164464511Y-71234377D01*
X164453958Y-71238623D01*
X164431322Y-71246544D01*
X164431319Y-71246545D01*
X164323569Y-71326069D01*
X164244045Y-71433819D01*
X164244044Y-71433821D01*
X164199815Y-71560218D01*
X164199813Y-71560230D01*
X164197000Y-71590231D01*
X164197000Y-72216311D01*
X164177315Y-72283350D01*
X164160681Y-72303992D01*
X163626492Y-72838181D01*
X163565169Y-72871666D01*
X163538811Y-72874500D01*
X146668299Y-72874500D01*
X146601260Y-72854815D01*
X146569923Y-72825986D01*
X146528283Y-72771719D01*
X146525244Y-72769387D01*
X146402841Y-72675464D01*
X146372436Y-72662870D01*
X146256762Y-72614956D01*
X146256760Y-72614955D01*
X146100001Y-72594318D01*
X146099999Y-72594318D01*
X145943239Y-72614955D01*
X145943237Y-72614956D01*
X145797157Y-72675464D01*
X145709486Y-72742737D01*
X145644317Y-72767931D01*
X145575872Y-72753892D01*
X145525882Y-72705078D01*
X145510000Y-72644361D01*
X145510000Y-68200000D01*
X174394417Y-68200000D01*
X174414699Y-68405932D01*
X174414700Y-68405934D01*
X174474768Y-68603954D01*
X174572315Y-68786450D01*
X174572317Y-68786452D01*
X174703589Y-68946410D01*
X174800209Y-69025702D01*
X174863550Y-69077685D01*
X175046046Y-69175232D01*
X175244066Y-69235300D01*
X175244065Y-69235300D01*
X175262529Y-69237118D01*
X175450000Y-69255583D01*
X175655934Y-69235300D01*
X175853954Y-69175232D01*
X176036450Y-69077685D01*
X176196410Y-68946410D01*
X176327685Y-68786450D01*
X176425232Y-68603954D01*
X176485300Y-68405934D01*
X176505583Y-68200000D01*
X176485300Y-67994066D01*
X176425232Y-67796046D01*
X176327685Y-67613550D01*
X176275702Y-67550209D01*
X176196410Y-67453589D01*
X176036452Y-67322317D01*
X176036453Y-67322317D01*
X176036450Y-67322315D01*
X175853954Y-67224768D01*
X175655934Y-67164700D01*
X175655932Y-67164699D01*
X175655934Y-67164699D01*
X175450000Y-67144417D01*
X175244067Y-67164699D01*
X175046043Y-67224769D01*
X174935898Y-67283643D01*
X174863550Y-67322315D01*
X174863548Y-67322316D01*
X174863547Y-67322317D01*
X174703589Y-67453589D01*
X174572317Y-67613547D01*
X174474769Y-67796043D01*
X174414699Y-67994067D01*
X174394417Y-68200000D01*
X145510000Y-68200000D01*
X145510000Y-65287612D01*
X172600500Y-65287612D01*
X172634681Y-65459450D01*
X172634684Y-65459462D01*
X172701731Y-65621329D01*
X172701738Y-65621342D01*
X172799079Y-65767022D01*
X172799082Y-65767026D01*
X172922973Y-65890917D01*
X172922977Y-65890920D01*
X173068657Y-65988261D01*
X173068670Y-65988268D01*
X173230537Y-66055315D01*
X173230542Y-66055317D01*
X173402387Y-66089499D01*
X173402391Y-66089500D01*
X173402392Y-66089500D01*
X173577609Y-66089500D01*
X173577610Y-66089499D01*
X173749458Y-66055317D01*
X173911336Y-65988265D01*
X174057023Y-65890920D01*
X174180920Y-65767023D01*
X174278265Y-65621336D01*
X174345317Y-65459458D01*
X174379500Y-65287608D01*
X174379500Y-65112392D01*
X174345317Y-64940542D01*
X174345315Y-64940537D01*
X174278268Y-64778670D01*
X174278261Y-64778657D01*
X174180920Y-64632977D01*
X174180917Y-64632973D01*
X174057026Y-64509082D01*
X174057022Y-64509079D01*
X173911342Y-64411738D01*
X173911329Y-64411731D01*
X173749462Y-64344684D01*
X173749450Y-64344681D01*
X173577612Y-64310500D01*
X173577608Y-64310500D01*
X173402392Y-64310500D01*
X173402387Y-64310500D01*
X173230549Y-64344681D01*
X173230537Y-64344684D01*
X173068670Y-64411731D01*
X173068657Y-64411738D01*
X172922977Y-64509079D01*
X172922973Y-64509082D01*
X172799082Y-64632973D01*
X172799079Y-64632977D01*
X172701738Y-64778657D01*
X172701731Y-64778670D01*
X172634684Y-64940537D01*
X172634681Y-64940549D01*
X172600500Y-65112387D01*
X172600500Y-65287612D01*
X145510000Y-65287612D01*
X145510000Y-60214752D01*
X151119500Y-60214752D01*
X151131131Y-60273229D01*
X151131132Y-60273230D01*
X151175447Y-60339552D01*
X151241769Y-60383867D01*
X151241770Y-60383868D01*
X151300247Y-60395499D01*
X151300250Y-60395500D01*
X151300252Y-60395500D01*
X155119750Y-60395500D01*
X155119751Y-60395499D01*
X155134568Y-60392552D01*
X155178229Y-60383868D01*
X155178229Y-60383867D01*
X155178231Y-60383867D01*
X155244552Y-60339552D01*
X155288867Y-60273231D01*
X155288867Y-60273229D01*
X155288868Y-60273229D01*
X155300499Y-60214752D01*
X155300500Y-60214750D01*
X155300500Y-53565249D01*
X155300499Y-53565247D01*
X155288868Y-53506770D01*
X155288867Y-53506769D01*
X155244552Y-53440447D01*
X155178230Y-53396132D01*
X155178229Y-53396131D01*
X155119752Y-53384500D01*
X155119748Y-53384500D01*
X151300252Y-53384500D01*
X151300247Y-53384500D01*
X151241770Y-53396131D01*
X151241769Y-53396132D01*
X151175447Y-53440447D01*
X151131132Y-53506769D01*
X151131131Y-53506770D01*
X151119500Y-53565247D01*
X151119500Y-60214752D01*
X145510000Y-60214752D01*
X145510000Y-52314989D01*
X173545500Y-52314989D01*
X173545501Y-52315005D01*
X173575518Y-52543009D01*
X173575519Y-52543014D01*
X173575520Y-52543020D01*
X173575521Y-52543022D01*
X173635046Y-52765175D01*
X173635049Y-52765185D01*
X173723057Y-52977654D01*
X173723061Y-52977664D01*
X173838055Y-53176839D01*
X173978064Y-53359303D01*
X173978070Y-53359310D01*
X174140689Y-53521929D01*
X174140696Y-53521935D01*
X174323160Y-53661944D01*
X174522335Y-53776938D01*
X174522336Y-53776938D01*
X174522339Y-53776940D01*
X174734824Y-53864954D01*
X174956980Y-53924480D01*
X175185004Y-53954500D01*
X175185011Y-53954500D01*
X175414989Y-53954500D01*
X175414996Y-53954500D01*
X175643020Y-53924480D01*
X175865176Y-53864954D01*
X176077661Y-53776940D01*
X176276840Y-53661944D01*
X176459305Y-53521934D01*
X176621934Y-53359305D01*
X176761944Y-53176840D01*
X176876940Y-52977661D01*
X176964954Y-52765176D01*
X177024480Y-52543020D01*
X177054500Y-52314996D01*
X177054500Y-52085004D01*
X177024480Y-51856980D01*
X176964954Y-51634824D01*
X176962180Y-51628128D01*
X176938413Y-51570748D01*
X176876940Y-51422339D01*
X176761944Y-51223160D01*
X176621934Y-51040695D01*
X176621929Y-51040689D01*
X176459310Y-50878070D01*
X176459303Y-50878064D01*
X176276839Y-50738055D01*
X176077664Y-50623061D01*
X176077654Y-50623057D01*
X175865185Y-50535049D01*
X175865178Y-50535047D01*
X175865176Y-50535046D01*
X175643020Y-50475520D01*
X175643014Y-50475519D01*
X175643009Y-50475518D01*
X175415005Y-50445501D01*
X175415002Y-50445500D01*
X175414996Y-50445500D01*
X175185004Y-50445500D01*
X175184998Y-50445500D01*
X175184994Y-50445501D01*
X174956990Y-50475518D01*
X174956983Y-50475519D01*
X174956980Y-50475520D01*
X174737384Y-50534360D01*
X174734824Y-50535046D01*
X174734814Y-50535049D01*
X174522345Y-50623057D01*
X174522335Y-50623061D01*
X174323160Y-50738055D01*
X174140696Y-50878064D01*
X174140689Y-50878070D01*
X173978070Y-51040689D01*
X173978064Y-51040696D01*
X173838055Y-51223160D01*
X173723061Y-51422335D01*
X173723057Y-51422345D01*
X173635049Y-51634814D01*
X173635046Y-51634824D01*
X173601685Y-51759332D01*
X173575521Y-51856977D01*
X173575518Y-51856990D01*
X173545501Y-52084994D01*
X173545500Y-52085010D01*
X173545500Y-52314989D01*
X145510000Y-52314989D01*
X145510000Y-48724500D01*
X145529685Y-48657461D01*
X145582489Y-48611706D01*
X145634000Y-48600500D01*
X174957535Y-48600500D01*
X174961585Y-48601006D01*
G37*
G04 #@! TD.AperFunction*
G04 #@! TA.AperFunction,Conductor*
G36*
X154343039Y-73545185D02*
G01*
X154388794Y-73597989D01*
X154400000Y-73649500D01*
X154400000Y-75650000D01*
X157245500Y-75650000D01*
X157312539Y-75669685D01*
X157358294Y-75722489D01*
X157369500Y-75774000D01*
X157369500Y-81420325D01*
X157374197Y-81464004D01*
X157385397Y-81515492D01*
X157389731Y-81533222D01*
X157387425Y-81533785D01*
X157392003Y-81591695D01*
X157358978Y-81653267D01*
X157346129Y-81664620D01*
X157289511Y-81708064D01*
X157224342Y-81733258D01*
X157155897Y-81719219D01*
X157138539Y-81708064D01*
X157052842Y-81642306D01*
X156906762Y-81581798D01*
X156906760Y-81581797D01*
X156750001Y-81561160D01*
X156749999Y-81561160D01*
X156593239Y-81581797D01*
X156593237Y-81581798D01*
X156447160Y-81642305D01*
X156321715Y-81738562D01*
X156280022Y-81792898D01*
X156223594Y-81834101D01*
X156197842Y-81840349D01*
X156190308Y-81841341D01*
X156107520Y-81863524D01*
X156107517Y-81863525D01*
X156052859Y-81895082D01*
X156041307Y-81901752D01*
X156037301Y-81904064D01*
X156033295Y-81906377D01*
X156033293Y-81906379D01*
X155950992Y-81988681D01*
X155889669Y-82022166D01*
X155863311Y-82025000D01*
X154224000Y-82025000D01*
X154156961Y-82005315D01*
X154111206Y-81952511D01*
X154100000Y-81901000D01*
X154100000Y-79625000D01*
X150949000Y-79625000D01*
X150881961Y-79605315D01*
X150836206Y-79552511D01*
X150825000Y-79501000D01*
X150825000Y-73649500D01*
X150844685Y-73582461D01*
X150897489Y-73536706D01*
X150949000Y-73525500D01*
X154276000Y-73525500D01*
X154343039Y-73545185D01*
G37*
G04 #@! TD.AperFunction*
G04 #@! TA.AperFunction,Conductor*
G36*
X137793039Y-73919685D02*
G01*
X137838794Y-73972489D01*
X137850000Y-74024000D01*
X137850000Y-81422670D01*
X137830315Y-81489709D01*
X137777511Y-81535464D01*
X137709822Y-81545610D01*
X137700004Y-81544318D01*
X137699998Y-81544318D01*
X137543239Y-81564955D01*
X137543237Y-81564956D01*
X137397160Y-81625463D01*
X137271718Y-81721718D01*
X137175463Y-81847160D01*
X137114956Y-81993237D01*
X137114955Y-81993239D01*
X137103246Y-82082185D01*
X137074980Y-82146082D01*
X137016655Y-82184553D01*
X136980307Y-82190000D01*
X131268530Y-82190000D01*
X131201491Y-82170315D01*
X131180849Y-82153681D01*
X130789705Y-81762537D01*
X130789703Y-81762535D01*
X130752591Y-81741108D01*
X130715481Y-81719682D01*
X130674087Y-81708591D01*
X130632694Y-81697500D01*
X130632693Y-81697500D01*
X127974000Y-81697500D01*
X127906961Y-81677815D01*
X127861206Y-81625011D01*
X127850000Y-81573500D01*
X127850000Y-74024000D01*
X127869685Y-73956961D01*
X127922489Y-73911206D01*
X127974000Y-73900000D01*
X137726000Y-73900000D01*
X137793039Y-73919685D01*
G37*
G04 #@! TD.AperFunction*
G04 #@! TA.AperFunction,Conductor*
G36*
X145183039Y-48620185D02*
G01*
X145228794Y-48672989D01*
X145240000Y-48724500D01*
X145240000Y-73046000D01*
X145220315Y-73113039D01*
X145167511Y-73158794D01*
X145116000Y-73170000D01*
X144243689Y-73170000D01*
X144176650Y-73150315D01*
X144130895Y-73097511D01*
X144120951Y-73028353D01*
X144149976Y-72964797D01*
X144156007Y-72958319D01*
X144166328Y-72947998D01*
X144466655Y-72647669D01*
X144466660Y-72647666D01*
X144476860Y-72637465D01*
X144476862Y-72637465D01*
X144537465Y-72576862D01*
X144576204Y-72509764D01*
X144580318Y-72502639D01*
X144602501Y-72419853D01*
X144602501Y-72334147D01*
X144602501Y-72326552D01*
X144602500Y-72326534D01*
X144602500Y-69014855D01*
X144602501Y-69014842D01*
X144602501Y-68919148D01*
X144602501Y-68919147D01*
X144599469Y-68907834D01*
X144595734Y-68871325D01*
X144595500Y-68871325D01*
X144595500Y-68869034D01*
X144595452Y-68868565D01*
X144595500Y-68867737D01*
X144595500Y-68572259D01*
X144595500Y-68572258D01*
X144592561Y-68546926D01*
X144546805Y-68443297D01*
X144466703Y-68363195D01*
X144466700Y-68363193D01*
X144466699Y-68363193D01*
X144363075Y-68317439D01*
X144337744Y-68314500D01*
X144337742Y-68314500D01*
X143732258Y-68314500D01*
X143732255Y-68314500D01*
X143706925Y-68317439D01*
X143706923Y-68317439D01*
X143603300Y-68363193D01*
X143603295Y-68363196D01*
X143523196Y-68443295D01*
X143523193Y-68443300D01*
X143477439Y-68546923D01*
X143477439Y-68546925D01*
X143474500Y-68572255D01*
X143474500Y-68867744D01*
X143477439Y-68893074D01*
X143477439Y-68893076D01*
X143501048Y-68946545D01*
X143523195Y-68996703D01*
X143603297Y-69076805D01*
X143706926Y-69122561D01*
X143732258Y-69125500D01*
X143827500Y-69125500D01*
X143894539Y-69145185D01*
X143940294Y-69197989D01*
X143951500Y-69249500D01*
X143951500Y-72190811D01*
X143931815Y-72257850D01*
X143915181Y-72278492D01*
X143655492Y-72538181D01*
X143594169Y-72571666D01*
X143567811Y-72574500D01*
X114943983Y-72574500D01*
X114876944Y-72554815D01*
X114845607Y-72525986D01*
X114840799Y-72519721D01*
X114840797Y-72519718D01*
X114715356Y-72423464D01*
X114706638Y-72419853D01*
X114569277Y-72362956D01*
X114569275Y-72362955D01*
X114412516Y-72342318D01*
X114412514Y-72342318D01*
X114255754Y-72362955D01*
X114255752Y-72362956D01*
X114109675Y-72423463D01*
X113984233Y-72519718D01*
X113887978Y-72645160D01*
X113827471Y-72791237D01*
X113827470Y-72791239D01*
X113806833Y-72947998D01*
X113806833Y-72948001D01*
X113817604Y-73029815D01*
X113806838Y-73098850D01*
X113760458Y-73151106D01*
X113694665Y-73170000D01*
X110150407Y-73170000D01*
X110083368Y-73150315D01*
X110043020Y-73108000D01*
X109950644Y-72948000D01*
X109789618Y-72669097D01*
X109787987Y-72666180D01*
X109740787Y-72578960D01*
X109722218Y-72550540D01*
X109722213Y-72550532D01*
X109720736Y-72548464D01*
X109720821Y-72548402D01*
X109720816Y-72548394D01*
X109720900Y-72548339D01*
X109713881Y-72537916D01*
X109706993Y-72525986D01*
X109524548Y-72209980D01*
X109403317Y-72000001D01*
X110794318Y-72000001D01*
X110814956Y-72156764D01*
X110827560Y-72187191D01*
X110837000Y-72234645D01*
X110837000Y-72509766D01*
X110839813Y-72539769D01*
X110839815Y-72539781D01*
X110884044Y-72666178D01*
X110884045Y-72666180D01*
X110963569Y-72773930D01*
X111071319Y-72853454D01*
X111071321Y-72853455D01*
X111197718Y-72897684D01*
X111197722Y-72897684D01*
X111197726Y-72897686D01*
X111212731Y-72899093D01*
X111227732Y-72900500D01*
X111227736Y-72900500D01*
X111822268Y-72900500D01*
X111835601Y-72899249D01*
X111852274Y-72897686D01*
X111852278Y-72897684D01*
X111852281Y-72897684D01*
X111923345Y-72872816D01*
X111978679Y-72853455D01*
X112086430Y-72773930D01*
X112165955Y-72666179D01*
X112197208Y-72576864D01*
X112210184Y-72539781D01*
X112210184Y-72539778D01*
X112210186Y-72539774D01*
X112213000Y-72509764D01*
X112213000Y-71490236D01*
X112210186Y-71460226D01*
X112210184Y-71460222D01*
X112210184Y-71460218D01*
X112165955Y-71333821D01*
X112165954Y-71333819D01*
X112086430Y-71226069D01*
X111978680Y-71146545D01*
X111978678Y-71146544D01*
X111852281Y-71102315D01*
X111852269Y-71102313D01*
X111822268Y-71099500D01*
X111822264Y-71099500D01*
X111227736Y-71099500D01*
X111227732Y-71099500D01*
X111197730Y-71102313D01*
X111197718Y-71102315D01*
X111071321Y-71146544D01*
X111071319Y-71146545D01*
X110963569Y-71226069D01*
X110884045Y-71333819D01*
X110884044Y-71333821D01*
X110839815Y-71460218D01*
X110839813Y-71460230D01*
X110837000Y-71490231D01*
X110837000Y-71765354D01*
X110827561Y-71812806D01*
X110814957Y-71843234D01*
X110814955Y-71843239D01*
X110794318Y-71999998D01*
X110794318Y-72000001D01*
X109403317Y-72000001D01*
X109344003Y-71897266D01*
X109343985Y-71897237D01*
X109326693Y-71871875D01*
X109326692Y-71871874D01*
X109255188Y-71814851D01*
X109166029Y-71794500D01*
X109166025Y-71794500D01*
X108375664Y-71794500D01*
X108365424Y-71794076D01*
X108316980Y-71790061D01*
X108316970Y-71790061D01*
X108283030Y-71790061D01*
X108283019Y-71790061D01*
X108234576Y-71794076D01*
X108224336Y-71794500D01*
X107433955Y-71794500D01*
X107403352Y-71796794D01*
X107403343Y-71796796D01*
X107318214Y-71830206D01*
X107256007Y-71897249D01*
X106886114Y-72537921D01*
X106879104Y-72548346D01*
X106879182Y-72548397D01*
X106879179Y-72548400D01*
X106879266Y-72548462D01*
X106877776Y-72550548D01*
X106859216Y-72578955D01*
X106859205Y-72578973D01*
X106812034Y-72666137D01*
X106810367Y-72669119D01*
X106676780Y-72900500D01*
X106562263Y-73098850D01*
X106556980Y-73108000D01*
X106506413Y-73156215D01*
X106449593Y-73170000D01*
X99724500Y-73170000D01*
X99657461Y-73150315D01*
X99611706Y-73097511D01*
X99600500Y-73046000D01*
X99600500Y-69800001D01*
X110794318Y-69800001D01*
X110814956Y-69956764D01*
X110827560Y-69987191D01*
X110837000Y-70034645D01*
X110837000Y-70309768D01*
X110839813Y-70339769D01*
X110839815Y-70339781D01*
X110884044Y-70466178D01*
X110884045Y-70466180D01*
X110963569Y-70573930D01*
X111071319Y-70653454D01*
X111071321Y-70653455D01*
X111197718Y-70697684D01*
X111197722Y-70697684D01*
X111197726Y-70697686D01*
X111212731Y-70699093D01*
X111227732Y-70700500D01*
X111227736Y-70700500D01*
X111822268Y-70700500D01*
X111835601Y-70699249D01*
X111852274Y-70697686D01*
X111852278Y-70697684D01*
X111852281Y-70697684D01*
X111923345Y-70672816D01*
X111978679Y-70653455D01*
X112086430Y-70573930D01*
X112165955Y-70466179D01*
X112210186Y-70339774D01*
X112213000Y-70309764D01*
X112213000Y-69290236D01*
X112210186Y-69260226D01*
X112210184Y-69260222D01*
X112210184Y-69260218D01*
X112165955Y-69133821D01*
X112165954Y-69133819D01*
X112086430Y-69026069D01*
X111978680Y-68946545D01*
X111978678Y-68946544D01*
X111852281Y-68902315D01*
X111852269Y-68902313D01*
X111822268Y-68899500D01*
X111822264Y-68899500D01*
X111227736Y-68899500D01*
X111227732Y-68899500D01*
X111197730Y-68902313D01*
X111197718Y-68902315D01*
X111071321Y-68946544D01*
X111071319Y-68946545D01*
X110963569Y-69026069D01*
X110884045Y-69133819D01*
X110884044Y-69133821D01*
X110839815Y-69260218D01*
X110839813Y-69260230D01*
X110837000Y-69290231D01*
X110837000Y-69565354D01*
X110827561Y-69612806D01*
X110814957Y-69643234D01*
X110814955Y-69643239D01*
X110794318Y-69799998D01*
X110794318Y-69800001D01*
X99600500Y-69800001D01*
X99600500Y-62829269D01*
X106549500Y-62829269D01*
X106552353Y-62859699D01*
X106552353Y-62859701D01*
X106597206Y-62987880D01*
X106597207Y-62987882D01*
X106677850Y-63097150D01*
X106787118Y-63177793D01*
X106829845Y-63192744D01*
X106915299Y-63222646D01*
X106945730Y-63225500D01*
X106945734Y-63225500D01*
X107554270Y-63225500D01*
X107584699Y-63222646D01*
X107584701Y-63222646D01*
X107648790Y-63200219D01*
X107712882Y-63177793D01*
X107822150Y-63097150D01*
X107902793Y-62987882D01*
X107925219Y-62923790D01*
X107947646Y-62859701D01*
X107947646Y-62859699D01*
X107950500Y-62829269D01*
X107950500Y-61770730D01*
X107947646Y-61740300D01*
X107947646Y-61740298D01*
X107902793Y-61612119D01*
X107902792Y-61612117D01*
X107822150Y-61502850D01*
X107712882Y-61422207D01*
X107712880Y-61422206D01*
X107584700Y-61377353D01*
X107554270Y-61374500D01*
X107554266Y-61374500D01*
X106945734Y-61374500D01*
X106945730Y-61374500D01*
X106915300Y-61377353D01*
X106915298Y-61377353D01*
X106787119Y-61422206D01*
X106787117Y-61422207D01*
X106677850Y-61502850D01*
X106597207Y-61612117D01*
X106597206Y-61612119D01*
X106552353Y-61740298D01*
X106552353Y-61740300D01*
X106549500Y-61770730D01*
X106549500Y-62829269D01*
X99600500Y-62829269D01*
X99600500Y-60529269D01*
X106549500Y-60529269D01*
X106552353Y-60559699D01*
X106552353Y-60559701D01*
X106597206Y-60687880D01*
X106597207Y-60687882D01*
X106677850Y-60797150D01*
X106787118Y-60877793D01*
X106829845Y-60892744D01*
X106915299Y-60922646D01*
X106945730Y-60925500D01*
X106945734Y-60925500D01*
X107554270Y-60925500D01*
X107584699Y-60922646D01*
X107584701Y-60922646D01*
X107648790Y-60900219D01*
X107712882Y-60877793D01*
X107822150Y-60797150D01*
X107902793Y-60687882D01*
X107925219Y-60623790D01*
X107947646Y-60559701D01*
X107947646Y-60559699D01*
X107950500Y-60529269D01*
X107950500Y-60234752D01*
X115409500Y-60234752D01*
X115421131Y-60293229D01*
X115421132Y-60293230D01*
X115465447Y-60359552D01*
X115531769Y-60403867D01*
X115531770Y-60403868D01*
X115590247Y-60415499D01*
X115590250Y-60415500D01*
X115590252Y-60415500D01*
X119409750Y-60415500D01*
X119409751Y-60415499D01*
X119424568Y-60412552D01*
X119468229Y-60403868D01*
X119468229Y-60403867D01*
X119468231Y-60403867D01*
X119534552Y-60359552D01*
X119578867Y-60293231D01*
X119578867Y-60293229D01*
X119578868Y-60293229D01*
X119590499Y-60234752D01*
X119590500Y-60234750D01*
X119590500Y-56500003D01*
X138194435Y-56500003D01*
X138214630Y-56679249D01*
X138214631Y-56679254D01*
X138274211Y-56849523D01*
X138370184Y-57002262D01*
X138497738Y-57129816D01*
X138650478Y-57225789D01*
X138820745Y-57285368D01*
X138820750Y-57285369D01*
X138999996Y-57305565D01*
X139000000Y-57305565D01*
X139000004Y-57305565D01*
X139179249Y-57285369D01*
X139179252Y-57285368D01*
X139179255Y-57285368D01*
X139349522Y-57225789D01*
X139502262Y-57129816D01*
X139629816Y-57002262D01*
X139725789Y-56849522D01*
X139785368Y-56679255D01*
X139805565Y-56500000D01*
X139785368Y-56320745D01*
X139725789Y-56150478D01*
X139629816Y-55997738D01*
X139502262Y-55870184D01*
X139349523Y-55774211D01*
X139179254Y-55714631D01*
X139179249Y-55714630D01*
X139000004Y-55694435D01*
X138999996Y-55694435D01*
X138820750Y-55714630D01*
X138820745Y-55714631D01*
X138650476Y-55774211D01*
X138497737Y-55870184D01*
X138370184Y-55997737D01*
X138274211Y-56150476D01*
X138214631Y-56320745D01*
X138214630Y-56320750D01*
X138194435Y-56499996D01*
X138194435Y-56500003D01*
X119590500Y-56500003D01*
X119590500Y-53585249D01*
X119590499Y-53585247D01*
X119578868Y-53526770D01*
X119578867Y-53526769D01*
X119534552Y-53460447D01*
X119468230Y-53416132D01*
X119468229Y-53416131D01*
X119409752Y-53404500D01*
X119409748Y-53404500D01*
X115590252Y-53404500D01*
X115590247Y-53404500D01*
X115531770Y-53416131D01*
X115531769Y-53416132D01*
X115465447Y-53460447D01*
X115421132Y-53526769D01*
X115421131Y-53526770D01*
X115409500Y-53585247D01*
X115409500Y-60234752D01*
X107950500Y-60234752D01*
X107950500Y-59470730D01*
X107947646Y-59440300D01*
X107947646Y-59440298D01*
X107902793Y-59312119D01*
X107902792Y-59312117D01*
X107822150Y-59202850D01*
X107712882Y-59122207D01*
X107712880Y-59122206D01*
X107584700Y-59077353D01*
X107554270Y-59074500D01*
X107554266Y-59074500D01*
X106945734Y-59074500D01*
X106945730Y-59074500D01*
X106915300Y-59077353D01*
X106915298Y-59077353D01*
X106787119Y-59122206D01*
X106787117Y-59122207D01*
X106677850Y-59202850D01*
X106597207Y-59312117D01*
X106597206Y-59312119D01*
X106552353Y-59440298D01*
X106552353Y-59440300D01*
X106549500Y-59470730D01*
X106549500Y-60529269D01*
X99600500Y-60529269D01*
X99600500Y-52314989D01*
X101445500Y-52314989D01*
X101445501Y-52315005D01*
X101475518Y-52543009D01*
X101475519Y-52543014D01*
X101475520Y-52543020D01*
X101493451Y-52609939D01*
X101535046Y-52765175D01*
X101535049Y-52765185D01*
X101623057Y-52977654D01*
X101623061Y-52977664D01*
X101738055Y-53176839D01*
X101878064Y-53359303D01*
X101878070Y-53359310D01*
X102040689Y-53521929D01*
X102040696Y-53521935D01*
X102223160Y-53661944D01*
X102422335Y-53776938D01*
X102422336Y-53776938D01*
X102422339Y-53776940D01*
X102634824Y-53864954D01*
X102856980Y-53924480D01*
X103085004Y-53954500D01*
X103085011Y-53954500D01*
X103314989Y-53954500D01*
X103314996Y-53954500D01*
X103543020Y-53924480D01*
X103765176Y-53864954D01*
X103977661Y-53776940D01*
X104176840Y-53661944D01*
X104359305Y-53521934D01*
X104521934Y-53359305D01*
X104661944Y-53176840D01*
X104776940Y-52977661D01*
X104864954Y-52765176D01*
X104924480Y-52543020D01*
X104954500Y-52314996D01*
X104954500Y-52085004D01*
X104924480Y-51856980D01*
X104864954Y-51634824D01*
X104776940Y-51422339D01*
X104661944Y-51223160D01*
X104521934Y-51040695D01*
X104521929Y-51040689D01*
X104396596Y-50915356D01*
X140063024Y-50915356D01*
X140089981Y-51002750D01*
X140089982Y-51002752D01*
X140111889Y-51040696D01*
X140417915Y-51570748D01*
X140510367Y-51730878D01*
X140512035Y-51733862D01*
X140559205Y-51821028D01*
X140577788Y-51849469D01*
X140579277Y-51851554D01*
X140579112Y-51851671D01*
X140586117Y-51862083D01*
X140955996Y-52502733D01*
X140956014Y-52502762D01*
X140973306Y-52528124D01*
X140973307Y-52528125D01*
X140973308Y-52528126D01*
X140973309Y-52528127D01*
X141044812Y-52585149D01*
X141120178Y-52602351D01*
X141133970Y-52605499D01*
X141133975Y-52605500D01*
X141924336Y-52605500D01*
X141934575Y-52605923D01*
X141983030Y-52609939D01*
X141983034Y-52609939D01*
X142016966Y-52609939D01*
X142016970Y-52609939D01*
X142065424Y-52605923D01*
X142075664Y-52605500D01*
X142866022Y-52605500D01*
X142866025Y-52605500D01*
X142866029Y-52605499D01*
X142866044Y-52605499D01*
X142880891Y-52604386D01*
X142896653Y-52603205D01*
X142964141Y-52576717D01*
X142981785Y-52569793D01*
X142981785Y-52569792D01*
X142981787Y-52569792D01*
X143043993Y-52502750D01*
X143413881Y-51862082D01*
X143420894Y-51851673D01*
X143420724Y-51851552D01*
X143422202Y-51849479D01*
X143422218Y-51849460D01*
X143440787Y-51821040D01*
X143487979Y-51733833D01*
X143489632Y-51730878D01*
X143910019Y-51002750D01*
X143923346Y-50975077D01*
X143936976Y-50884643D01*
X143910019Y-50797250D01*
X143489618Y-50069097D01*
X143487989Y-50066183D01*
X143440787Y-49978960D01*
X143422218Y-49950540D01*
X143422213Y-49950532D01*
X143420736Y-49948464D01*
X143420821Y-49948402D01*
X143420816Y-49948394D01*
X143420900Y-49948339D01*
X143413881Y-49937916D01*
X143044003Y-49297266D01*
X143043985Y-49297237D01*
X143026693Y-49271875D01*
X143026692Y-49271874D01*
X142955188Y-49214851D01*
X142866029Y-49194500D01*
X142866025Y-49194500D01*
X142075664Y-49194500D01*
X142065424Y-49194076D01*
X142016980Y-49190061D01*
X142016970Y-49190061D01*
X141983030Y-49190061D01*
X141983019Y-49190061D01*
X141934576Y-49194076D01*
X141924336Y-49194500D01*
X141133955Y-49194500D01*
X141103352Y-49196794D01*
X141103343Y-49196796D01*
X141018214Y-49230206D01*
X140956007Y-49297249D01*
X140586114Y-49937921D01*
X140579104Y-49948346D01*
X140579182Y-49948397D01*
X140579179Y-49948400D01*
X140579266Y-49948462D01*
X140577776Y-49950548D01*
X140559216Y-49978955D01*
X140559205Y-49978973D01*
X140512034Y-50066137D01*
X140510367Y-50069119D01*
X140089981Y-50797249D01*
X140076653Y-50824923D01*
X140063024Y-50915356D01*
X104396596Y-50915356D01*
X104359310Y-50878070D01*
X104359303Y-50878064D01*
X104176839Y-50738055D01*
X103977664Y-50623061D01*
X103977654Y-50623057D01*
X103765185Y-50535049D01*
X103765178Y-50535047D01*
X103765176Y-50535046D01*
X103543020Y-50475520D01*
X103543014Y-50475519D01*
X103543009Y-50475518D01*
X103315005Y-50445501D01*
X103315002Y-50445500D01*
X103314996Y-50445500D01*
X103085004Y-50445500D01*
X103084998Y-50445500D01*
X103084994Y-50445501D01*
X102856990Y-50475518D01*
X102856983Y-50475519D01*
X102856980Y-50475520D01*
X102637384Y-50534360D01*
X102634824Y-50535046D01*
X102634814Y-50535049D01*
X102422345Y-50623057D01*
X102422335Y-50623061D01*
X102223160Y-50738055D01*
X102040696Y-50878064D01*
X102040689Y-50878070D01*
X101878070Y-51040689D01*
X101878064Y-51040696D01*
X101738055Y-51223160D01*
X101623061Y-51422335D01*
X101623057Y-51422345D01*
X101535049Y-51634814D01*
X101535046Y-51634824D01*
X101476975Y-51851552D01*
X101475521Y-51856977D01*
X101475518Y-51856990D01*
X101445501Y-52084994D01*
X101445500Y-52085010D01*
X101445500Y-52314989D01*
X99600500Y-52314989D01*
X99600500Y-52305022D01*
X99600739Y-52297330D01*
X99612006Y-52116053D01*
X99622942Y-51940099D01*
X99624292Y-51928009D01*
X99635773Y-51856977D01*
X99681067Y-51576753D01*
X99683588Y-51564881D01*
X99774529Y-51220842D01*
X99778202Y-51209279D01*
X99902416Y-50875838D01*
X99907210Y-50864676D01*
X100063521Y-50544994D01*
X100069372Y-50534382D01*
X100256260Y-50231568D01*
X100263132Y-50221566D01*
X100478801Y-49938527D01*
X100486622Y-49929246D01*
X100728979Y-49668726D01*
X100737694Y-49660236D01*
X101004418Y-49424727D01*
X101013896Y-49417150D01*
X101302454Y-49208894D01*
X101312626Y-49202288D01*
X101620175Y-49023337D01*
X101630964Y-49017749D01*
X101954582Y-48869800D01*
X101965873Y-48865295D01*
X102302428Y-48749780D01*
X102314082Y-48746410D01*
X102660352Y-48664438D01*
X102672287Y-48662224D01*
X103024912Y-48614588D01*
X103037033Y-48613554D01*
X103395652Y-48600601D01*
X103401712Y-48600531D01*
X103425621Y-48600841D01*
X103425622Y-48600840D01*
X103438414Y-48601006D01*
X103442465Y-48600500D01*
X145116000Y-48600500D01*
X145183039Y-48620185D01*
G37*
G04 #@! TD.AperFunction*
G04 #@! TA.AperFunction,Conductor*
G36*
X106470444Y-73769685D02*
G01*
X106510791Y-73811999D01*
X106673788Y-74094318D01*
X106810367Y-74330878D01*
X106812035Y-74333862D01*
X106859205Y-74421028D01*
X106877788Y-74449469D01*
X106879277Y-74451554D01*
X106879112Y-74451671D01*
X106886117Y-74462083D01*
X107255996Y-75102733D01*
X107256014Y-75102762D01*
X107273306Y-75128124D01*
X107273307Y-75128125D01*
X107273308Y-75128126D01*
X107273309Y-75128127D01*
X107344812Y-75185149D01*
X107420178Y-75202351D01*
X107433970Y-75205499D01*
X107433975Y-75205500D01*
X108224336Y-75205500D01*
X108234575Y-75205923D01*
X108283030Y-75209939D01*
X108283034Y-75209939D01*
X108316966Y-75209939D01*
X108316970Y-75209939D01*
X108365424Y-75205923D01*
X108375664Y-75205500D01*
X109166022Y-75205500D01*
X109166025Y-75205500D01*
X109166029Y-75205499D01*
X109166044Y-75205499D01*
X109180891Y-75204386D01*
X109196653Y-75203205D01*
X109264141Y-75176717D01*
X109281785Y-75169793D01*
X109281785Y-75169792D01*
X109281787Y-75169792D01*
X109343993Y-75102750D01*
X109713881Y-74462082D01*
X109720894Y-74451673D01*
X109720724Y-74451552D01*
X109722202Y-74449479D01*
X109722218Y-74449460D01*
X109740787Y-74421040D01*
X109787979Y-74333833D01*
X109789632Y-74330878D01*
X110089208Y-73812000D01*
X110139775Y-73763784D01*
X110196595Y-73750000D01*
X120676000Y-73750000D01*
X120743039Y-73769685D01*
X120788794Y-73822489D01*
X120800000Y-73874000D01*
X120800000Y-81923091D01*
X120780315Y-81990130D01*
X120775878Y-81996440D01*
X120775465Y-81997156D01*
X120714956Y-82143237D01*
X120714955Y-82143239D01*
X120694318Y-82299998D01*
X120694318Y-82300001D01*
X120714955Y-82456760D01*
X120714956Y-82456762D01*
X120775462Y-82602837D01*
X120779526Y-82609875D01*
X120777987Y-82610763D01*
X120799570Y-82666589D01*
X120800000Y-82676908D01*
X120800000Y-88698000D01*
X120780315Y-88765039D01*
X120727511Y-88810794D01*
X120676000Y-88822000D01*
X120195730Y-88822000D01*
X120165300Y-88824853D01*
X120165298Y-88824853D01*
X120037119Y-88869706D01*
X120037117Y-88869707D01*
X119927850Y-88950350D01*
X119847207Y-89059617D01*
X119847206Y-89059619D01*
X119802353Y-89187798D01*
X119802353Y-89187800D01*
X119799500Y-89218230D01*
X119799500Y-89851769D01*
X119802353Y-89882199D01*
X119802353Y-89882201D01*
X119847206Y-90010380D01*
X119847207Y-90010382D01*
X119927850Y-90119650D01*
X120037118Y-90200293D01*
X120079845Y-90215244D01*
X120165299Y-90245146D01*
X120195730Y-90248000D01*
X120195734Y-90248000D01*
X120250500Y-90248000D01*
X120317539Y-90267685D01*
X120363294Y-90320489D01*
X120374500Y-90372000D01*
X120374500Y-90565500D01*
X120354815Y-90632539D01*
X120302011Y-90678294D01*
X120250500Y-90689500D01*
X120170730Y-90689500D01*
X120140300Y-90692353D01*
X120140298Y-90692353D01*
X120012119Y-90737206D01*
X120012117Y-90737207D01*
X119902850Y-90817850D01*
X119822207Y-90927117D01*
X119822206Y-90927119D01*
X119777353Y-91055298D01*
X119777353Y-91055300D01*
X119774500Y-91085730D01*
X119774500Y-91694269D01*
X119777353Y-91724699D01*
X119777353Y-91724701D01*
X119822206Y-91852880D01*
X119822207Y-91852882D01*
X119902850Y-91962150D01*
X120012118Y-92042793D01*
X120054845Y-92057744D01*
X120140299Y-92087646D01*
X120170730Y-92090500D01*
X120676000Y-92090500D01*
X120743039Y-92110185D01*
X120788794Y-92162989D01*
X120800000Y-92214500D01*
X120800000Y-92465500D01*
X120780315Y-92532539D01*
X120727511Y-92578294D01*
X120676000Y-92589500D01*
X120170730Y-92589500D01*
X120140300Y-92592353D01*
X120140298Y-92592353D01*
X120012119Y-92637206D01*
X120012117Y-92637207D01*
X119902850Y-92717850D01*
X119822207Y-92827117D01*
X119822206Y-92827119D01*
X119777353Y-92955298D01*
X119777353Y-92955300D01*
X119774500Y-92985730D01*
X119774500Y-93594269D01*
X119777353Y-93624699D01*
X119777353Y-93624701D01*
X119822206Y-93752880D01*
X119822207Y-93752882D01*
X119902850Y-93862150D01*
X120012118Y-93942793D01*
X120054845Y-93957744D01*
X120140299Y-93987646D01*
X120170730Y-93990500D01*
X120676000Y-93990500D01*
X120743039Y-94010185D01*
X120788794Y-94062989D01*
X120800000Y-94114500D01*
X120800000Y-106575500D01*
X120780315Y-106642539D01*
X120727511Y-106688294D01*
X120676000Y-106699500D01*
X103441748Y-106699500D01*
X103433915Y-106698573D01*
X103400423Y-106699454D01*
X103394340Y-106699465D01*
X103040358Y-106691401D01*
X103028221Y-106690527D01*
X102679791Y-106648177D01*
X102667797Y-106646118D01*
X102496494Y-106607968D01*
X102325190Y-106569818D01*
X102313457Y-106566594D01*
X101979977Y-106457079D01*
X101968620Y-106452721D01*
X101647478Y-106311046D01*
X101636613Y-106305601D01*
X101330898Y-106133128D01*
X101320617Y-106126643D01*
X101033280Y-105925036D01*
X101023674Y-105917566D01*
X100757496Y-105688779D01*
X100748667Y-105680403D01*
X100674473Y-105602750D01*
X100506189Y-105426619D01*
X100498225Y-105417419D01*
X100281794Y-105141095D01*
X100274770Y-105131159D01*
X100086463Y-104834949D01*
X100080446Y-104824371D01*
X99973045Y-104611937D01*
X99922075Y-104511119D01*
X99917136Y-104500031D01*
X99790225Y-104172751D01*
X99786396Y-104161231D01*
X99692175Y-103823081D01*
X99689495Y-103811243D01*
X99628874Y-103465504D01*
X99627364Y-103453430D01*
X99613129Y-103264982D01*
X101445500Y-103264982D01*
X101445501Y-103264998D01*
X101475518Y-103493002D01*
X101475519Y-103493007D01*
X101475520Y-103493013D01*
X101475521Y-103493015D01*
X101535046Y-103715168D01*
X101535049Y-103715178D01*
X101623057Y-103927647D01*
X101623061Y-103927657D01*
X101738055Y-104126832D01*
X101878064Y-104309296D01*
X101878070Y-104309303D01*
X102040689Y-104471922D01*
X102040696Y-104471928D01*
X102223160Y-104611937D01*
X102422335Y-104726931D01*
X102422336Y-104726931D01*
X102422339Y-104726933D01*
X102634824Y-104814947D01*
X102856980Y-104874473D01*
X103085004Y-104904493D01*
X103085011Y-104904493D01*
X103314989Y-104904493D01*
X103314996Y-104904493D01*
X103543020Y-104874473D01*
X103765176Y-104814947D01*
X103977661Y-104726933D01*
X104176840Y-104611937D01*
X104359305Y-104471927D01*
X104521934Y-104309298D01*
X104661944Y-104126833D01*
X104726305Y-104015357D01*
X111563024Y-104015357D01*
X111589981Y-104102750D01*
X112009749Y-104829809D01*
X112010367Y-104830878D01*
X112012035Y-104833862D01*
X112059205Y-104921028D01*
X112077788Y-104949469D01*
X112079277Y-104951554D01*
X112079112Y-104951671D01*
X112086117Y-104962083D01*
X112455996Y-105602733D01*
X112456014Y-105602762D01*
X112473306Y-105628124D01*
X112473307Y-105628125D01*
X112473308Y-105628126D01*
X112473309Y-105628127D01*
X112544812Y-105685149D01*
X112620178Y-105702351D01*
X112633970Y-105705499D01*
X112633975Y-105705500D01*
X113424336Y-105705500D01*
X113434575Y-105705923D01*
X113483030Y-105709939D01*
X113483034Y-105709939D01*
X113516966Y-105709939D01*
X113516970Y-105709939D01*
X113565424Y-105705923D01*
X113575664Y-105705500D01*
X114366022Y-105705500D01*
X114366025Y-105705500D01*
X114366029Y-105705499D01*
X114366044Y-105705499D01*
X114380891Y-105704386D01*
X114396653Y-105703205D01*
X114464141Y-105676717D01*
X114481785Y-105669793D01*
X114481785Y-105669792D01*
X114481787Y-105669792D01*
X114543993Y-105602750D01*
X114913881Y-104962082D01*
X114920894Y-104951673D01*
X114920724Y-104951552D01*
X114922202Y-104949479D01*
X114922218Y-104949460D01*
X114940787Y-104921040D01*
X114987979Y-104833833D01*
X114989632Y-104830878D01*
X115410019Y-104102750D01*
X115423346Y-104075077D01*
X115436976Y-103984643D01*
X115410019Y-103897250D01*
X114989618Y-103169097D01*
X114987989Y-103166183D01*
X114940787Y-103078960D01*
X114922218Y-103050540D01*
X114922213Y-103050532D01*
X114920736Y-103048464D01*
X114920821Y-103048402D01*
X114920816Y-103048394D01*
X114920900Y-103048339D01*
X114913881Y-103037916D01*
X114912199Y-103035003D01*
X114652279Y-102584807D01*
X114544003Y-102397266D01*
X114543985Y-102397237D01*
X114526693Y-102371875D01*
X114526692Y-102371874D01*
X114455188Y-102314851D01*
X114366029Y-102294500D01*
X114366025Y-102294500D01*
X113575664Y-102294500D01*
X113565424Y-102294076D01*
X113516980Y-102290061D01*
X113516970Y-102290061D01*
X113483030Y-102290061D01*
X113483019Y-102290061D01*
X113434576Y-102294076D01*
X113424336Y-102294500D01*
X112633955Y-102294500D01*
X112603352Y-102296794D01*
X112603343Y-102296796D01*
X112518214Y-102330206D01*
X112456007Y-102397249D01*
X112086114Y-103037921D01*
X112079104Y-103048346D01*
X112079182Y-103048397D01*
X112079179Y-103048400D01*
X112079266Y-103048462D01*
X112077776Y-103050548D01*
X112059216Y-103078955D01*
X112059205Y-103078973D01*
X112012034Y-103166137D01*
X112010367Y-103169119D01*
X111589981Y-103897249D01*
X111576653Y-103924923D01*
X111567653Y-103984643D01*
X111563024Y-104015357D01*
X104726305Y-104015357D01*
X104776940Y-103927654D01*
X104864954Y-103715169D01*
X104924480Y-103493013D01*
X104954500Y-103264989D01*
X104954500Y-103034997D01*
X104924480Y-102806973D01*
X104864954Y-102584817D01*
X104776940Y-102372332D01*
X104743753Y-102314851D01*
X104661944Y-102173153D01*
X104521935Y-101990689D01*
X104521929Y-101990682D01*
X104359310Y-101828063D01*
X104359303Y-101828057D01*
X104176839Y-101688048D01*
X103977664Y-101573054D01*
X103977654Y-101573050D01*
X103765185Y-101485042D01*
X103765178Y-101485040D01*
X103765176Y-101485039D01*
X103543020Y-101425513D01*
X103543014Y-101425512D01*
X103543009Y-101425511D01*
X103315005Y-101395494D01*
X103315002Y-101395493D01*
X103314996Y-101395493D01*
X103085004Y-101395493D01*
X103084998Y-101395493D01*
X103084994Y-101395494D01*
X102856990Y-101425511D01*
X102856983Y-101425512D01*
X102856980Y-101425513D01*
X102634824Y-101485039D01*
X102634814Y-101485042D01*
X102422345Y-101573050D01*
X102422335Y-101573054D01*
X102223160Y-101688048D01*
X102040696Y-101828057D01*
X102040689Y-101828063D01*
X101878070Y-101990682D01*
X101878064Y-101990689D01*
X101738055Y-102173153D01*
X101623061Y-102372328D01*
X101623057Y-102372338D01*
X101535049Y-102584807D01*
X101535046Y-102584817D01*
X101475521Y-102806970D01*
X101475518Y-102806983D01*
X101445501Y-103034987D01*
X101445500Y-103035003D01*
X101445500Y-103264982D01*
X99613129Y-103264982D01*
X99600852Y-103102465D01*
X99600500Y-103093125D01*
X99600500Y-100309768D01*
X110874500Y-100309768D01*
X110877313Y-100339769D01*
X110877315Y-100339781D01*
X110921544Y-100466178D01*
X110921545Y-100466180D01*
X111001069Y-100573930D01*
X111108819Y-100653454D01*
X111108821Y-100653455D01*
X111235218Y-100697684D01*
X111235222Y-100697684D01*
X111235226Y-100697686D01*
X111250231Y-100699093D01*
X111265232Y-100700500D01*
X111265236Y-100700500D01*
X111859768Y-100700500D01*
X111873101Y-100699249D01*
X111889774Y-100697686D01*
X111889778Y-100697684D01*
X111889781Y-100697684D01*
X111971048Y-100669247D01*
X112016179Y-100653455D01*
X112123930Y-100573930D01*
X112203455Y-100466179D01*
X112247686Y-100339774D01*
X112250500Y-100309768D01*
X112749500Y-100309768D01*
X112752313Y-100339769D01*
X112752315Y-100339781D01*
X112796544Y-100466178D01*
X112796545Y-100466180D01*
X112876069Y-100573930D01*
X112938139Y-100619740D01*
X112983821Y-100653455D01*
X113028955Y-100669248D01*
X113085730Y-100709969D01*
X113111478Y-100774921D01*
X113112000Y-100786289D01*
X113112000Y-100789920D01*
X113134182Y-100872708D01*
X113151062Y-100901944D01*
X113177035Y-100946930D01*
X113177037Y-100946932D01*
X113263204Y-101033099D01*
X113296689Y-101094422D01*
X113298462Y-101136965D01*
X113289534Y-101204782D01*
X113289534Y-101204785D01*
X113310171Y-101361544D01*
X113310172Y-101361546D01*
X113361324Y-101485039D01*
X113370680Y-101507625D01*
X113466934Y-101633066D01*
X113592375Y-101729320D01*
X113738454Y-101789828D01*
X113816835Y-101800147D01*
X113895215Y-101810466D01*
X113895216Y-101810466D01*
X113895217Y-101810466D01*
X113947470Y-101803586D01*
X114051978Y-101789828D01*
X114198057Y-101729320D01*
X114323498Y-101633066D01*
X114419752Y-101507625D01*
X114480260Y-101361546D01*
X114500898Y-101204784D01*
X114480260Y-101048022D01*
X114419752Y-100901943D01*
X114323498Y-100776502D01*
X114198057Y-100680248D01*
X114131899Y-100652844D01*
X114077497Y-100609004D01*
X114055432Y-100542710D01*
X114072711Y-100475011D01*
X114078007Y-100467025D01*
X114078454Y-100466180D01*
X114078455Y-100466179D01*
X114122686Y-100339774D01*
X114125500Y-100309764D01*
X114125500Y-99290236D01*
X114122686Y-99260226D01*
X114122684Y-99260222D01*
X114122684Y-99260218D01*
X114078455Y-99133821D01*
X114078454Y-99133819D01*
X113998930Y-99026069D01*
X113891180Y-98946545D01*
X113891178Y-98946544D01*
X113764781Y-98902315D01*
X113764769Y-98902313D01*
X113734768Y-98899500D01*
X113734764Y-98899500D01*
X113140236Y-98899500D01*
X113140232Y-98899500D01*
X113110230Y-98902313D01*
X113110218Y-98902315D01*
X112983821Y-98946544D01*
X112983819Y-98946545D01*
X112876069Y-99026069D01*
X112796545Y-99133819D01*
X112796544Y-99133821D01*
X112752315Y-99260218D01*
X112752313Y-99260230D01*
X112749500Y-99290231D01*
X112749500Y-100309768D01*
X112250500Y-100309768D01*
X112250500Y-100309764D01*
X112250500Y-99290236D01*
X112247686Y-99260226D01*
X112247684Y-99260222D01*
X112247684Y-99260218D01*
X112203455Y-99133821D01*
X112203454Y-99133819D01*
X112123930Y-99026069D01*
X112016180Y-98946545D01*
X112016178Y-98946544D01*
X111889781Y-98902315D01*
X111889769Y-98902313D01*
X111859768Y-98899500D01*
X111859764Y-98899500D01*
X111265236Y-98899500D01*
X111265232Y-98899500D01*
X111235230Y-98902313D01*
X111235218Y-98902315D01*
X111108821Y-98946544D01*
X111108819Y-98946545D01*
X111001069Y-99026069D01*
X110921545Y-99133819D01*
X110921544Y-99133821D01*
X110877315Y-99260218D01*
X110877313Y-99260230D01*
X110874500Y-99290231D01*
X110874500Y-100309768D01*
X99600500Y-100309768D01*
X99600500Y-93209752D01*
X104904500Y-93209752D01*
X104916131Y-93268229D01*
X104916132Y-93268230D01*
X104960447Y-93334552D01*
X105026769Y-93378867D01*
X105026770Y-93378868D01*
X105085247Y-93390499D01*
X105085250Y-93390500D01*
X105085252Y-93390500D01*
X111734750Y-93390500D01*
X111734751Y-93390499D01*
X111749568Y-93387552D01*
X111793229Y-93378868D01*
X111793229Y-93378867D01*
X111793231Y-93378867D01*
X111859552Y-93334552D01*
X111903867Y-93268231D01*
X111903867Y-93268229D01*
X111903868Y-93268229D01*
X111915499Y-93209752D01*
X111915500Y-93209750D01*
X111915500Y-90596459D01*
X115599500Y-90596459D01*
X115604757Y-90632539D01*
X115609795Y-90667123D01*
X115609796Y-90667125D01*
X115663082Y-90776124D01*
X115748875Y-90861917D01*
X115857874Y-90915204D01*
X115857875Y-90915204D01*
X115857877Y-90915205D01*
X115928539Y-90925500D01*
X118071460Y-90925499D01*
X118142123Y-90915205D01*
X118251124Y-90861917D01*
X118336917Y-90776124D01*
X118390205Y-90667123D01*
X118400500Y-90596461D01*
X118400499Y-89353540D01*
X118390205Y-89282877D01*
X118336917Y-89173876D01*
X118336917Y-89173875D01*
X118251124Y-89088082D01*
X118142125Y-89034795D01*
X118124457Y-89032221D01*
X118071461Y-89024500D01*
X118071455Y-89024500D01*
X115928540Y-89024500D01*
X115883327Y-89031087D01*
X115857877Y-89034795D01*
X115857875Y-89034795D01*
X115857874Y-89034796D01*
X115748875Y-89088082D01*
X115663082Y-89173875D01*
X115609795Y-89282874D01*
X115609795Y-89282877D01*
X115599500Y-89353539D01*
X115599500Y-89353543D01*
X115599500Y-89353544D01*
X115599500Y-90596459D01*
X111915500Y-90596459D01*
X111915500Y-89390249D01*
X111915499Y-89390247D01*
X111903868Y-89331770D01*
X111903867Y-89331769D01*
X111859552Y-89265447D01*
X111793230Y-89221132D01*
X111793229Y-89221131D01*
X111734752Y-89209500D01*
X111734748Y-89209500D01*
X108554748Y-89209500D01*
X105085252Y-89209500D01*
X105085247Y-89209500D01*
X105026770Y-89221131D01*
X105026769Y-89221132D01*
X104960447Y-89265447D01*
X104916132Y-89331769D01*
X104916131Y-89331770D01*
X104904500Y-89390247D01*
X104904500Y-93209752D01*
X99600500Y-93209752D01*
X99600500Y-73874000D01*
X99620185Y-73806961D01*
X99672989Y-73761206D01*
X99724500Y-73750000D01*
X106403405Y-73750000D01*
X106470444Y-73769685D01*
G37*
G04 #@! TD.AperFunction*
G04 #@! TA.AperFunction,Conductor*
G36*
X178742539Y-69849685D02*
G01*
X178788294Y-69902489D01*
X178799500Y-69954000D01*
X178799500Y-103093125D01*
X178799148Y-103102466D01*
X178772635Y-103453431D01*
X178771124Y-103465505D01*
X178710507Y-103811228D01*
X178707820Y-103823096D01*
X178613607Y-104161217D01*
X178609769Y-104172765D01*
X178482869Y-104500017D01*
X178477918Y-104511133D01*
X178319553Y-104824371D01*
X178313536Y-104834949D01*
X178125229Y-105131159D01*
X178118205Y-105141095D01*
X177901774Y-105417419D01*
X177893810Y-105426619D01*
X177651332Y-105680403D01*
X177642503Y-105688779D01*
X177376325Y-105917566D01*
X177366719Y-105925036D01*
X177079382Y-106126643D01*
X177069090Y-106133135D01*
X176763393Y-106305598D01*
X176752514Y-106311050D01*
X176431383Y-106452720D01*
X176420022Y-106457079D01*
X176086542Y-106566594D01*
X176074808Y-106569819D01*
X175732202Y-106646118D01*
X175720208Y-106648177D01*
X175371778Y-106690527D01*
X175359641Y-106691401D01*
X175005659Y-106699465D01*
X174999576Y-106699454D01*
X174966084Y-106698573D01*
X174958252Y-106699500D01*
X157699000Y-106699500D01*
X157631961Y-106679815D01*
X157586206Y-106627011D01*
X157575000Y-106575500D01*
X157575000Y-104015357D01*
X162963024Y-104015357D01*
X162989981Y-104102750D01*
X163409749Y-104829809D01*
X163410367Y-104830878D01*
X163412035Y-104833862D01*
X163459205Y-104921028D01*
X163477788Y-104949469D01*
X163479277Y-104951554D01*
X163479112Y-104951671D01*
X163486117Y-104962083D01*
X163855996Y-105602733D01*
X163856014Y-105602762D01*
X163873306Y-105628124D01*
X163873307Y-105628125D01*
X163873308Y-105628126D01*
X163873309Y-105628127D01*
X163944812Y-105685149D01*
X164020178Y-105702351D01*
X164033970Y-105705499D01*
X164033975Y-105705500D01*
X164824336Y-105705500D01*
X164834575Y-105705923D01*
X164883030Y-105709939D01*
X164883034Y-105709939D01*
X164916966Y-105709939D01*
X164916970Y-105709939D01*
X164965424Y-105705923D01*
X164975664Y-105705500D01*
X165766022Y-105705500D01*
X165766025Y-105705500D01*
X165766029Y-105705499D01*
X165766044Y-105705499D01*
X165780891Y-105704386D01*
X165796653Y-105703205D01*
X165864141Y-105676717D01*
X165881785Y-105669793D01*
X165881785Y-105669792D01*
X165881787Y-105669792D01*
X165943993Y-105602750D01*
X166313881Y-104962082D01*
X166320894Y-104951673D01*
X166320724Y-104951552D01*
X166322202Y-104949479D01*
X166322218Y-104949460D01*
X166340787Y-104921040D01*
X166387979Y-104833833D01*
X166389632Y-104830878D01*
X166810019Y-104102750D01*
X166823346Y-104075077D01*
X166836976Y-103984643D01*
X166810019Y-103897250D01*
X166444977Y-103264982D01*
X173545500Y-103264982D01*
X173545501Y-103264998D01*
X173575518Y-103493002D01*
X173575519Y-103493007D01*
X173575520Y-103493013D01*
X173575521Y-103493015D01*
X173635046Y-103715168D01*
X173635049Y-103715178D01*
X173723057Y-103927647D01*
X173723061Y-103927657D01*
X173838055Y-104126832D01*
X173978064Y-104309296D01*
X173978070Y-104309303D01*
X174140689Y-104471922D01*
X174140696Y-104471928D01*
X174323160Y-104611937D01*
X174522335Y-104726931D01*
X174522336Y-104726931D01*
X174522339Y-104726933D01*
X174734824Y-104814947D01*
X174956980Y-104874473D01*
X175185004Y-104904493D01*
X175185011Y-104904493D01*
X175414989Y-104904493D01*
X175414996Y-104904493D01*
X175643020Y-104874473D01*
X175865176Y-104814947D01*
X176077661Y-104726933D01*
X176276840Y-104611937D01*
X176459305Y-104471927D01*
X176621934Y-104309298D01*
X176761944Y-104126833D01*
X176876940Y-103927654D01*
X176964954Y-103715169D01*
X177024480Y-103493013D01*
X177054500Y-103264989D01*
X177054500Y-103034997D01*
X177024480Y-102806973D01*
X176964954Y-102584817D01*
X176876940Y-102372332D01*
X176843753Y-102314851D01*
X176761944Y-102173153D01*
X176621935Y-101990689D01*
X176621929Y-101990682D01*
X176459310Y-101828063D01*
X176459303Y-101828057D01*
X176276839Y-101688048D01*
X176077664Y-101573054D01*
X176077654Y-101573050D01*
X175865185Y-101485042D01*
X175865178Y-101485040D01*
X175865176Y-101485039D01*
X175643020Y-101425513D01*
X175643014Y-101425512D01*
X175643009Y-101425511D01*
X175415005Y-101395494D01*
X175415002Y-101395493D01*
X175414996Y-101395493D01*
X175185004Y-101395493D01*
X175184998Y-101395493D01*
X175184994Y-101395494D01*
X174956990Y-101425511D01*
X174956983Y-101425512D01*
X174956980Y-101425513D01*
X174734824Y-101485039D01*
X174734814Y-101485042D01*
X174522345Y-101573050D01*
X174522335Y-101573054D01*
X174323160Y-101688048D01*
X174140696Y-101828057D01*
X174140689Y-101828063D01*
X173978070Y-101990682D01*
X173978064Y-101990689D01*
X173838055Y-102173153D01*
X173723061Y-102372328D01*
X173723057Y-102372338D01*
X173635049Y-102584807D01*
X173635046Y-102584817D01*
X173575521Y-102806970D01*
X173575518Y-102806983D01*
X173545501Y-103034987D01*
X173545500Y-103035003D01*
X173545500Y-103264982D01*
X166444977Y-103264982D01*
X166389618Y-103169097D01*
X166387989Y-103166183D01*
X166340787Y-103078960D01*
X166322218Y-103050540D01*
X166322213Y-103050532D01*
X166320736Y-103048464D01*
X166320821Y-103048402D01*
X166320816Y-103048394D01*
X166320900Y-103048339D01*
X166313881Y-103037916D01*
X166312199Y-103035003D01*
X166052279Y-102584807D01*
X165944003Y-102397266D01*
X165943985Y-102397237D01*
X165926693Y-102371875D01*
X165926692Y-102371874D01*
X165855188Y-102314851D01*
X165766029Y-102294500D01*
X165766025Y-102294500D01*
X164975664Y-102294500D01*
X164965424Y-102294076D01*
X164916980Y-102290061D01*
X164916970Y-102290061D01*
X164883030Y-102290061D01*
X164883019Y-102290061D01*
X164834576Y-102294076D01*
X164824336Y-102294500D01*
X164033955Y-102294500D01*
X164003352Y-102296794D01*
X164003343Y-102296796D01*
X163918214Y-102330206D01*
X163856007Y-102397249D01*
X163486114Y-103037921D01*
X163479104Y-103048346D01*
X163479182Y-103048397D01*
X163479179Y-103048400D01*
X163479266Y-103048462D01*
X163477776Y-103050548D01*
X163459216Y-103078955D01*
X163459205Y-103078973D01*
X163412034Y-103166137D01*
X163410367Y-103169119D01*
X162989981Y-103897249D01*
X162976653Y-103924923D01*
X162967653Y-103984643D01*
X162963024Y-104015357D01*
X157575000Y-104015357D01*
X157575000Y-100309768D01*
X166149500Y-100309768D01*
X166152313Y-100339769D01*
X166152315Y-100339781D01*
X166196544Y-100466178D01*
X166196545Y-100466180D01*
X166276069Y-100573930D01*
X166383819Y-100653454D01*
X166383821Y-100653455D01*
X166510218Y-100697684D01*
X166510222Y-100697684D01*
X166510226Y-100697686D01*
X166525231Y-100699093D01*
X166540232Y-100700500D01*
X166540236Y-100700500D01*
X167134768Y-100700500D01*
X167148101Y-100699249D01*
X167164774Y-100697686D01*
X167164778Y-100697684D01*
X167164781Y-100697684D01*
X167235845Y-100672816D01*
X167291179Y-100653455D01*
X167398930Y-100573930D01*
X167478455Y-100466179D01*
X167522686Y-100339774D01*
X167525500Y-100309764D01*
X167525500Y-99290236D01*
X167522686Y-99260226D01*
X167522684Y-99260222D01*
X167522684Y-99260218D01*
X167478455Y-99133821D01*
X167478454Y-99133819D01*
X167398930Y-99026069D01*
X167291180Y-98946545D01*
X167291178Y-98946544D01*
X167164781Y-98902315D01*
X167164769Y-98902313D01*
X167134768Y-98899500D01*
X167134764Y-98899500D01*
X166540236Y-98899500D01*
X166540232Y-98899500D01*
X166510230Y-98902313D01*
X166510218Y-98902315D01*
X166383821Y-98946544D01*
X166383819Y-98946545D01*
X166276069Y-99026069D01*
X166196545Y-99133819D01*
X166196544Y-99133821D01*
X166152315Y-99260218D01*
X166152313Y-99260230D01*
X166149500Y-99290231D01*
X166149500Y-100309768D01*
X157575000Y-100309768D01*
X157575000Y-98929971D01*
X157594685Y-98862932D01*
X157647489Y-98817177D01*
X157716647Y-98807233D01*
X157772631Y-98830199D01*
X157837118Y-98877793D01*
X157879845Y-98892744D01*
X157965299Y-98922646D01*
X157995730Y-98925500D01*
X157995734Y-98925500D01*
X159004270Y-98925500D01*
X159034699Y-98922646D01*
X159034701Y-98922646D01*
X159100847Y-98899500D01*
X159162882Y-98877793D01*
X159272150Y-98797150D01*
X159352793Y-98687882D01*
X159375219Y-98623790D01*
X159397646Y-98559701D01*
X159397646Y-98559699D01*
X159400500Y-98529269D01*
X159400500Y-97895730D01*
X159397646Y-97865300D01*
X159397646Y-97865298D01*
X159352793Y-97737119D01*
X159352792Y-97737117D01*
X159272150Y-97627850D01*
X159162882Y-97547207D01*
X159162880Y-97547206D01*
X159034700Y-97502353D01*
X159004270Y-97499500D01*
X159004266Y-97499500D01*
X157995734Y-97499500D01*
X157995730Y-97499500D01*
X157965300Y-97502353D01*
X157965298Y-97502353D01*
X157837119Y-97547206D01*
X157837118Y-97547207D01*
X157772633Y-97594799D01*
X157707004Y-97618769D01*
X157638834Y-97603453D01*
X157589766Y-97553713D01*
X157575000Y-97495028D01*
X157575000Y-93972000D01*
X157594685Y-93904961D01*
X157647489Y-93859206D01*
X157699000Y-93848000D01*
X158324270Y-93848000D01*
X158354699Y-93845146D01*
X158354701Y-93845146D01*
X158418790Y-93822719D01*
X158482882Y-93800293D01*
X158592150Y-93719650D01*
X158672793Y-93610382D01*
X158695219Y-93546290D01*
X158717646Y-93482201D01*
X158717646Y-93482199D01*
X158720500Y-93451769D01*
X158720500Y-92843230D01*
X158717646Y-92812800D01*
X158717646Y-92812798D01*
X158672793Y-92684619D01*
X158672792Y-92684617D01*
X158592150Y-92575350D01*
X158482882Y-92494707D01*
X158482880Y-92494706D01*
X158354700Y-92449853D01*
X158324270Y-92447000D01*
X158324266Y-92447000D01*
X157699000Y-92447000D01*
X157631961Y-92427315D01*
X157586206Y-92374511D01*
X157575000Y-92323000D01*
X157575000Y-92072000D01*
X157594685Y-92004961D01*
X157647489Y-91959206D01*
X157699000Y-91948000D01*
X158324270Y-91948000D01*
X158354699Y-91945146D01*
X158354701Y-91945146D01*
X158418790Y-91922719D01*
X158482882Y-91900293D01*
X158592150Y-91819650D01*
X158672793Y-91710382D01*
X158695219Y-91646290D01*
X158717646Y-91582201D01*
X158717646Y-91582199D01*
X158720500Y-91551769D01*
X158720500Y-90943230D01*
X158717646Y-90912800D01*
X158717646Y-90912798D01*
X158672793Y-90784619D01*
X158672792Y-90784617D01*
X158592150Y-90675350D01*
X158482882Y-90594707D01*
X158482880Y-90594706D01*
X158354700Y-90549853D01*
X158324270Y-90547000D01*
X158324266Y-90547000D01*
X158244500Y-90547000D01*
X158177461Y-90527315D01*
X158131706Y-90474511D01*
X158120500Y-90423000D01*
X158120500Y-90229500D01*
X158140185Y-90162461D01*
X158192989Y-90116706D01*
X158244500Y-90105500D01*
X158299270Y-90105500D01*
X158329699Y-90102646D01*
X158329701Y-90102646D01*
X158393790Y-90080219D01*
X158457882Y-90057793D01*
X158567150Y-89977150D01*
X158647793Y-89867882D01*
X158670219Y-89803790D01*
X158692646Y-89739701D01*
X158692646Y-89739699D01*
X158695500Y-89709269D01*
X158695500Y-89075730D01*
X158692646Y-89045300D01*
X158692646Y-89045298D01*
X158647793Y-88917119D01*
X158647792Y-88917117D01*
X158567150Y-88807850D01*
X158457882Y-88727207D01*
X158457880Y-88727206D01*
X158329700Y-88682353D01*
X158299270Y-88679500D01*
X158299266Y-88679500D01*
X157699000Y-88679500D01*
X157631961Y-88659815D01*
X157586206Y-88607011D01*
X157575000Y-88555500D01*
X157575000Y-86151459D01*
X160019500Y-86151459D01*
X160025127Y-86190085D01*
X160029795Y-86222123D01*
X160029796Y-86222125D01*
X160083082Y-86331124D01*
X160168875Y-86416917D01*
X160277874Y-86470204D01*
X160277875Y-86470204D01*
X160277877Y-86470205D01*
X160348539Y-86480500D01*
X162491460Y-86480499D01*
X162562123Y-86470205D01*
X162671124Y-86416917D01*
X162756917Y-86331124D01*
X162810205Y-86222123D01*
X162820500Y-86151461D01*
X162820500Y-85709752D01*
X166604500Y-85709752D01*
X166616131Y-85768229D01*
X166616132Y-85768230D01*
X166660447Y-85834552D01*
X166726769Y-85878867D01*
X166726770Y-85878868D01*
X166785247Y-85890499D01*
X166785250Y-85890500D01*
X166785252Y-85890500D01*
X173434750Y-85890500D01*
X173434751Y-85890499D01*
X173449568Y-85887552D01*
X173493229Y-85878868D01*
X173493229Y-85878867D01*
X173493231Y-85878867D01*
X173559552Y-85834552D01*
X173603867Y-85768231D01*
X173603867Y-85768229D01*
X173603868Y-85768229D01*
X173615499Y-85709752D01*
X173615500Y-85709750D01*
X173615500Y-81890249D01*
X173615499Y-81890247D01*
X173603868Y-81831770D01*
X173603867Y-81831769D01*
X173559552Y-81765447D01*
X173493230Y-81721132D01*
X173493229Y-81721131D01*
X173434752Y-81709500D01*
X173434748Y-81709500D01*
X170254748Y-81709500D01*
X166785252Y-81709500D01*
X166785247Y-81709500D01*
X166726770Y-81721131D01*
X166726769Y-81721132D01*
X166660447Y-81765447D01*
X166616132Y-81831769D01*
X166616131Y-81831770D01*
X166604500Y-81890247D01*
X166604500Y-85709752D01*
X162820500Y-85709752D01*
X162820499Y-84908540D01*
X162810205Y-84837877D01*
X162756917Y-84728876D01*
X162756917Y-84728875D01*
X162671124Y-84643082D01*
X162562125Y-84589795D01*
X162544457Y-84587221D01*
X162491461Y-84579500D01*
X162491455Y-84579500D01*
X160348540Y-84579500D01*
X160303327Y-84586087D01*
X160277877Y-84589795D01*
X160277875Y-84589795D01*
X160277874Y-84589796D01*
X160168875Y-84643082D01*
X160083082Y-84728875D01*
X160029795Y-84837874D01*
X160029795Y-84837877D01*
X160019500Y-84908539D01*
X160019500Y-84908543D01*
X160019500Y-84908544D01*
X160019500Y-86151459D01*
X157575000Y-86151459D01*
X157575000Y-82879682D01*
X157594685Y-82812643D01*
X157647489Y-82766888D01*
X157692002Y-82757204D01*
X157691942Y-82756743D01*
X157697465Y-82756015D01*
X157699000Y-82755682D01*
X157700001Y-82755682D01*
X157752254Y-82748802D01*
X157856762Y-82735044D01*
X158002841Y-82674536D01*
X158128282Y-82578282D01*
X158224536Y-82452841D01*
X158285044Y-82306762D01*
X158305682Y-82150000D01*
X158285044Y-81993238D01*
X158224536Y-81847159D01*
X158128282Y-81721718D01*
X158002841Y-81625464D01*
X157856762Y-81564956D01*
X157856760Y-81564955D01*
X157700001Y-81544318D01*
X157699000Y-81544318D01*
X157698186Y-81544079D01*
X157691942Y-81543257D01*
X157692070Y-81542283D01*
X157631961Y-81524633D01*
X157586206Y-81471829D01*
X157575000Y-81420318D01*
X157575000Y-73749000D01*
X157594685Y-73681961D01*
X157647489Y-73636206D01*
X157699000Y-73625000D01*
X168246706Y-73625000D01*
X168313745Y-73644685D01*
X168354093Y-73687000D01*
X168610367Y-74130878D01*
X168612035Y-74133862D01*
X168659205Y-74221028D01*
X168677788Y-74249469D01*
X168679277Y-74251554D01*
X168679112Y-74251671D01*
X168686117Y-74262083D01*
X169055996Y-74902733D01*
X169056014Y-74902762D01*
X169073306Y-74928124D01*
X169073307Y-74928125D01*
X169073308Y-74928126D01*
X169073309Y-74928127D01*
X169144812Y-74985149D01*
X169220178Y-75002351D01*
X169233970Y-75005499D01*
X169233975Y-75005500D01*
X170024336Y-75005500D01*
X170034575Y-75005923D01*
X170083030Y-75009939D01*
X170083034Y-75009939D01*
X170116966Y-75009939D01*
X170116970Y-75009939D01*
X170165424Y-75005923D01*
X170175664Y-75005500D01*
X170966022Y-75005500D01*
X170966025Y-75005500D01*
X170966029Y-75005499D01*
X170966044Y-75005499D01*
X170980891Y-75004386D01*
X170996653Y-75003205D01*
X171064141Y-74976717D01*
X171081785Y-74969793D01*
X171081785Y-74969792D01*
X171081787Y-74969792D01*
X171143993Y-74902750D01*
X171513881Y-74262082D01*
X171520894Y-74251673D01*
X171520724Y-74251552D01*
X171522202Y-74249479D01*
X171522218Y-74249460D01*
X171540787Y-74221040D01*
X171587979Y-74133833D01*
X171589632Y-74130878D01*
X171845907Y-73686998D01*
X171896473Y-73638784D01*
X171953293Y-73625000D01*
X172579805Y-73625000D01*
X172646844Y-73644685D01*
X172692599Y-73697489D01*
X172702543Y-73766647D01*
X172694366Y-73796452D01*
X172634684Y-73940537D01*
X172634681Y-73940549D01*
X172600500Y-74112387D01*
X172600500Y-74287612D01*
X172634681Y-74459450D01*
X172634684Y-74459462D01*
X172701731Y-74621329D01*
X172701738Y-74621342D01*
X172799079Y-74767022D01*
X172799082Y-74767026D01*
X172922973Y-74890917D01*
X172922977Y-74890920D01*
X173068657Y-74988261D01*
X173068670Y-74988268D01*
X173230537Y-75055315D01*
X173230542Y-75055317D01*
X173402387Y-75089499D01*
X173402391Y-75089500D01*
X173402392Y-75089500D01*
X173577609Y-75089500D01*
X173577610Y-75089499D01*
X173749458Y-75055317D01*
X173911336Y-74988265D01*
X174057023Y-74890920D01*
X174180920Y-74767023D01*
X174278265Y-74621336D01*
X174345317Y-74459458D01*
X174379500Y-74287608D01*
X174379500Y-74112392D01*
X174345317Y-73940542D01*
X174285633Y-73796452D01*
X174278268Y-73778670D01*
X174278261Y-73778657D01*
X174180920Y-73632977D01*
X174180917Y-73632973D01*
X174057026Y-73509082D01*
X174057022Y-73509079D01*
X173911342Y-73411738D01*
X173911329Y-73411731D01*
X173749462Y-73344684D01*
X173749452Y-73344681D01*
X173669808Y-73328839D01*
X173607897Y-73296454D01*
X173573323Y-73235738D01*
X173570000Y-73207222D01*
X173570000Y-69954000D01*
X173589685Y-69886961D01*
X173642489Y-69841206D01*
X173694000Y-69830000D01*
X178675500Y-69830000D01*
X178742539Y-69849685D01*
G37*
G04 #@! TD.AperFunction*
M02*
