M48
; DRILL file {KiCad (5.1.5)-3} date 1/10/2021 10:28:39 PM
; FORMAT={-:-/ absolute / inch / decimal}
; #@! TF.CreationDate,2021-01-10T22:28:39-06:00
; #@! TF.GenerationSoftware,Kicad,Pcbnew,(5.1.5)-3
FMAT,2
INCH
T1C0.0157
T2C0.0299
T3C0.0315
T4C0.0320
T5C0.0354
T6C0.0394
T7C0.0472
T8C0.0630
T9C0.0701
T10C0.0394
T11C0.1181
%
G90
G05
T1
X3.435Y-4.2224
X5.8268Y-5.6102
T2
X3.937Y-2.0228
X3.937Y-2.3228
X3.937Y-4.5917
X3.937Y-4.8917
X3.937Y-2.889
X3.937Y-3.189
T3
X4.8969Y-2.6181
X5.2969Y-2.6181
X2.1213Y-4.5079
X2.5213Y-4.5079
X2.1213Y-3.7992
X2.5213Y-3.7992
X2.5591Y-2.6134
X2.5591Y-3.0134
X4.8969Y-3.4843
X5.2969Y-3.4843
X4.8969Y-4.3701
X5.2969Y-4.3701
X4.8969Y-5.2362
X5.2969Y-5.2362
T4
X2.2591Y-2.2409
X2.2591Y-2.4409
X2.5591Y-2.2409
X2.5591Y-2.4409
X4.4094Y-5.2362
X4.4094Y-5.4362
X4.7094Y-5.2362
X4.7094Y-5.4362
X4.4047Y-3.9535
X4.4047Y-4.1535
X4.7047Y-3.9535
X4.7047Y-4.1535
T5
X2.2228Y-4.7835
X2.3228Y-4.7835
X5.1969Y-3.2071
X5.1969Y-3.3071
X5.1969Y-4.0732
X5.1969Y-4.1732
X5.1969Y-4.9394
X5.1969Y-5.0394
X2.2228Y-4.0748
X2.3228Y-4.0748
X2.2228Y-2.7953
X2.3228Y-2.7953
X5.1969Y-2.3409
X5.1969Y-2.4409
T6
X4.337Y-2.3228
X4.537Y-2.0228
X4.637Y-2.3228
X1.6929Y-5.315
X1.6929Y-5.4331
X5.748Y-3.1496
X5.748Y-3.2677
X4.337Y-4.8917
X4.537Y-4.5917
X4.637Y-4.8917
X5.748Y-4.0157
X5.748Y-4.1339
X1.6929Y-3.8976
X1.6929Y-4.0157
X4.337Y-3.189
X4.537Y-2.889
X4.637Y-3.189
X1.6929Y-4.6063
X1.6929Y-4.7244
X5.748Y-4.8819
X5.748Y-5.0
X1.6929Y-6.0236
X1.6929Y-6.1417
X5.748Y-2.2835
X5.748Y-2.4016
T7
X3.6417Y-4.5917
X3.6417Y-5.0917
X3.6417Y-2.0228
X3.6417Y-2.5228
X3.6417Y-2.889
X3.6417Y-3.389
T8
X3.2976Y-5.6299
X3.8976Y-5.6299
X3.2976Y-5.2756
X3.8976Y-5.2756
X3.2976Y-5.9843
X3.8976Y-5.9843
T9
X2.8937Y-4.685
X2.8937Y-4.8189
X3.2843Y-4.685
X3.2843Y-4.8189
X1.7Y-2.2051
X1.7Y-2.5
X1.8252Y-2.2051
X1.8252Y-2.5
X2.8937Y-3.8189
X2.8937Y-3.9528
X3.2843Y-3.8189
X3.2843Y-3.9528
X2.8937Y-2.9528
X2.8937Y-3.0906
X3.2843Y-2.9567
X3.2843Y-3.0906
X2.8937Y-2.0866
X2.8937Y-2.2205
X3.2843Y-2.0866
X3.2843Y-2.2205
T10
X5.6709Y-3.8976
X5.6709Y-4.252
X1.7701Y-3.7795
X1.7701Y-4.1339
X1.7701Y-4.4882
X1.7701Y-4.8425
X5.6709Y-4.7638
X5.6709Y-5.1181
X1.7701Y-5.9055
X1.7701Y-6.2598
X5.6709Y-2.1654
X5.6709Y-2.5197
X1.7701Y-5.1969
X1.7701Y-5.5512
X5.6709Y-3.0315
X5.6709Y-3.3858
T11
X5.9646Y-6.5748
X5.9646Y-1.6929
X1.4764Y-1.6929
X1.4764Y-6.5748
T0
M30
