M48
; DRILL file {KiCad 7.0.2} date Wed Sep 20 10:40:36 2023
; FORMAT={-:-/ absolute / metric / decimal}
; #@! TF.CreationDate,2023-09-20T10:40:36-05:00
; #@! TF.GenerationSoftware,Kicad,Pcbnew,7.0.2
; #@! TF.FileFunction,Plated,1,2,PTH
FMAT,2
METRIC
; #@! TA.AperFunction,Plated,PTH,ViaDrill
T1C0.400
; #@! TA.AperFunction,Plated,PTH,ComponentDrill
T2C1.020
; #@! TA.AperFunction,Plated,PTH,ComponentDrill
T3C1.390
; #@! TA.AperFunction,Plated,PTH,ComponentDrill
T4C1.780
%
G90
G05
T1
X90.0Y-55.0
X90.0Y-70.0
X90.0Y-85.0
X90.0Y-100.0
X100.0Y-45.0
X100.0Y-105.0
X115.0Y-45.0
X115.0Y-60.0
X115.0Y-75.0
X115.0Y-85.0
X115.0Y-105.0
X122.0Y-64.0
X130.0Y-45.0
X130.0Y-64.5
X130.0Y-105.0
X132.25Y-62.0
X145.0Y-45.0
X145.0Y-75.0
X145.0Y-105.0
X146.75Y-61.75
X160.0Y-45.0
X160.0Y-75.0
X160.0Y-105.0
X165.0Y-55.0
X165.0Y-70.0
X165.0Y-85.0
X165.0Y-100.0
T2
X117.0Y-101.165
X120.0Y-101.165
X127.549Y-52.973
X130.549Y-52.973
X139.0Y-101.165
X142.0Y-101.165
T3
X120.54Y-67.485
X120.54Y-73.2
X123.08Y-67.485
X123.08Y-73.2
X125.62Y-67.485
X125.62Y-73.2
X132.605Y-67.525
X132.605Y-73.2
X135.145Y-67.525
X135.145Y-73.2
X137.685Y-67.525
X137.685Y-73.2
T4
X99.58Y-59.995
X99.58Y-67.485
X99.58Y-84.06
X99.58Y-91.55
X102.76Y-59.995
X102.76Y-67.485
X102.76Y-84.06
X102.76Y-91.55
X124.59Y-81.23
X124.59Y-84.63
X134.51Y-81.23
X134.51Y-84.63
X155.465Y-59.995
X155.465Y-67.485
X155.465Y-84.06
X155.465Y-91.55
X158.645Y-59.995
X158.645Y-67.485
X158.645Y-84.06
X158.645Y-91.55
T0
M30
