G04 #@! TF.GenerationSoftware,KiCad,Pcbnew,(6.0.7)*
G04 #@! TF.CreationDate,2023-01-21T15:41:39-06:00*
G04 #@! TF.ProjectId,Power-Secondary,506f7765-722d-4536-9563-6f6e64617279,rev?*
G04 #@! TF.SameCoordinates,Original*
G04 #@! TF.FileFunction,Copper,L1,Top*
G04 #@! TF.FilePolarity,Positive*
%FSLAX46Y46*%
G04 Gerber Fmt 4.6, Leading zero omitted, Abs format (unit mm)*
G04 Created by KiCad (PCBNEW (6.0.7)) date 2023-01-21 15:41:39*
%MOMM*%
%LPD*%
G01*
G04 APERTURE LIST*
G04 Aperture macros list*
%AMRoundRect*
0 Rectangle with rounded corners*
0 $1 Rounding radius*
0 $2 $3 $4 $5 $6 $7 $8 $9 X,Y pos of 4 corners*
0 Add a 4 corners polygon primitive as box body*
4,1,4,$2,$3,$4,$5,$6,$7,$8,$9,$2,$3,0*
0 Add four circle primitives for the rounded corners*
1,1,$1+$1,$2,$3*
1,1,$1+$1,$4,$5*
1,1,$1+$1,$6,$7*
1,1,$1+$1,$8,$9*
0 Add four rect primitives between the rounded corners*
20,1,$1+$1,$2,$3,$4,$5,0*
20,1,$1+$1,$4,$5,$6,$7,0*
20,1,$1+$1,$6,$7,$8,$9,0*
20,1,$1+$1,$8,$9,$2,$3,0*%
G04 Aperture macros list end*
G04 #@! TA.AperFunction,ComponentPad*
%ADD10R,3.430000X3.780000*%
G04 #@! TD*
G04 #@! TA.AperFunction,SMDPad,CuDef*
%ADD11RoundRect,0.250000X-0.262500X-0.450000X0.262500X-0.450000X0.262500X0.450000X-0.262500X0.450000X0*%
G04 #@! TD*
G04 #@! TA.AperFunction,SMDPad,CuDef*
%ADD12RoundRect,0.250000X0.262500X0.450000X-0.262500X0.450000X-0.262500X-0.450000X0.262500X-0.450000X0*%
G04 #@! TD*
G04 #@! TA.AperFunction,SMDPad,CuDef*
%ADD13RoundRect,0.243750X-0.243750X-0.456250X0.243750X-0.456250X0.243750X0.456250X-0.243750X0.456250X0*%
G04 #@! TD*
G04 #@! TA.AperFunction,SMDPad,CuDef*
%ADD14R,2.000000X2.000000*%
G04 #@! TD*
G04 #@! TA.AperFunction,ComponentPad*
%ADD15C,2.780000*%
G04 #@! TD*
G04 #@! TA.AperFunction,SMDPad,CuDef*
%ADD16RoundRect,0.243750X0.243750X0.456250X-0.243750X0.456250X-0.243750X-0.456250X0.243750X-0.456250X0*%
G04 #@! TD*
G04 #@! TA.AperFunction,ComponentPad*
%ADD17C,2.085000*%
G04 #@! TD*
G04 #@! TA.AperFunction,ComponentPad*
%ADD18R,2.085000X2.085000*%
G04 #@! TD*
G04 #@! TA.AperFunction,SMDPad,CuDef*
%ADD19RoundRect,0.250000X-0.475000X0.250000X-0.475000X-0.250000X0.475000X-0.250000X0.475000X0.250000X0*%
G04 #@! TD*
G04 #@! TA.AperFunction,SMDPad,CuDef*
%ADD20RoundRect,0.250000X-0.450000X0.262500X-0.450000X-0.262500X0.450000X-0.262500X0.450000X0.262500X0*%
G04 #@! TD*
G04 #@! TA.AperFunction,ComponentPad*
%ADD21R,1.130000X1.130000*%
G04 #@! TD*
G04 #@! TA.AperFunction,ComponentPad*
%ADD22C,1.130000*%
G04 #@! TD*
G04 #@! TA.AperFunction,ViaPad*
%ADD23C,0.800000*%
G04 #@! TD*
G04 #@! TA.AperFunction,Conductor*
%ADD24C,0.500000*%
G04 #@! TD*
G04 #@! TA.AperFunction,Conductor*
%ADD25C,2.000000*%
G04 #@! TD*
G04 #@! TA.AperFunction,Conductor*
%ADD26C,4.000000*%
G04 #@! TD*
G04 #@! TA.AperFunction,Conductor*
%ADD27C,0.250000*%
G04 #@! TD*
G04 APERTURE END LIST*
D10*
X172910000Y-80195000D03*
X176090000Y-80195000D03*
X176090000Y-87685000D03*
X172910000Y-87685000D03*
D11*
X151520000Y-123960000D03*
X153345000Y-123960000D03*
D12*
X123645000Y-123960000D03*
X121820000Y-123960000D03*
D10*
X119460000Y-111980000D03*
X122640000Y-111980000D03*
X122640000Y-104490000D03*
X119460000Y-104490000D03*
X176050000Y-104470000D03*
X172870000Y-104470000D03*
X172870000Y-111960000D03*
X176050000Y-111960000D03*
D13*
X155995000Y-74960000D03*
X157870000Y-74960000D03*
D14*
X148095000Y-123960000D03*
D11*
X132957500Y-94960000D03*
X134782500Y-94960000D03*
D15*
X150700000Y-92040000D03*
X147300000Y-92040000D03*
X150700000Y-101960000D03*
X147300000Y-101960000D03*
D13*
X117795000Y-123960000D03*
X119670000Y-123960000D03*
D16*
X173070000Y-124021250D03*
X171195000Y-124021250D03*
D17*
X135790000Y-113640000D03*
X138330000Y-113640000D03*
D18*
X140870000Y-113640000D03*
D14*
X178870000Y-123960000D03*
X126870000Y-123960000D03*
D16*
X157370000Y-123960000D03*
X155495000Y-123960000D03*
D14*
X165870000Y-74960000D03*
D17*
X162220000Y-114310000D03*
X159680000Y-114310000D03*
D18*
X157140000Y-114310000D03*
D13*
X132182500Y-123960000D03*
X134057500Y-123960000D03*
D12*
X138032500Y-123960000D03*
X136207500Y-123960000D03*
D19*
X165500000Y-81550000D03*
X165500000Y-83450000D03*
D20*
X167000000Y-111087500D03*
X167000000Y-112912500D03*
D10*
X122680000Y-87960000D03*
X119500000Y-87960000D03*
X119500000Y-80470000D03*
X122680000Y-80470000D03*
D12*
X162345000Y-74960000D03*
X160520000Y-74960000D03*
D14*
X163895000Y-123898750D03*
X141370000Y-123960000D03*
D11*
X167220000Y-124021250D03*
X169045000Y-124021250D03*
D21*
X140300000Y-106545000D03*
D22*
X140300000Y-104005000D03*
X140300000Y-101465000D03*
X140300000Y-98925000D03*
X132360000Y-98925000D03*
X132360000Y-101465000D03*
X132360000Y-104005000D03*
X132360000Y-106545000D03*
D11*
X137457500Y-94960000D03*
X139282500Y-94960000D03*
D23*
X165500000Y-85000000D03*
X168000000Y-117500000D03*
X140800000Y-118090000D03*
X152870000Y-121460000D03*
D24*
X164500000Y-107500000D02*
X164500000Y-106500000D01*
X164500000Y-106500000D02*
X153710000Y-95710000D01*
X153710000Y-95710000D02*
X146055000Y-95710000D01*
X146055000Y-95710000D02*
X140300000Y-101465000D01*
D25*
X149125000Y-113715000D02*
X149125000Y-103625000D01*
X150700000Y-113700000D02*
X150700000Y-101960000D01*
X147300000Y-111890000D02*
X147300000Y-101960000D01*
X149125000Y-103625000D02*
X147460000Y-101960000D01*
D26*
X150700000Y-101960000D02*
X147460000Y-101960000D01*
X147460000Y-101960000D02*
X147300000Y-101960000D01*
D25*
X149125000Y-113715000D02*
X147300000Y-111890000D01*
X144830000Y-112735000D02*
X153595000Y-112735000D01*
X149125000Y-113715000D02*
X144850000Y-113715000D01*
X150715000Y-113715000D02*
X150700000Y-113700000D01*
X152180000Y-113715000D02*
X150715000Y-113715000D01*
X150715000Y-113715000D02*
X149125000Y-113715000D01*
X153292500Y-114827500D02*
X144237500Y-114827500D01*
X152180000Y-113715000D02*
X153647500Y-115182500D01*
X155180000Y-111215000D02*
X153180000Y-113215000D01*
X153180000Y-113215000D02*
X153180000Y-114215000D01*
X153595000Y-112735000D02*
X153595000Y-112800000D01*
X158384000Y-111215000D02*
X155180000Y-111215000D01*
X159680000Y-112511000D02*
X158384000Y-111215000D01*
X153647500Y-115182500D02*
X155680000Y-117215000D01*
X159680000Y-116109000D02*
X159680000Y-114310000D01*
X153595000Y-112800000D02*
X153180000Y-113215000D01*
X153647500Y-115182500D02*
X153292500Y-114827500D01*
X155680000Y-117215000D02*
X158574000Y-117215000D01*
X158574000Y-117215000D02*
X159680000Y-116109000D01*
X159680000Y-114310000D02*
X159680000Y-112511000D01*
X138330000Y-113640000D02*
X138330000Y-111841000D01*
X142830000Y-116235000D02*
X139126000Y-116235000D01*
X144830000Y-112735000D02*
X144830000Y-113735000D01*
X138330000Y-115439000D02*
X138330000Y-113640000D01*
X145330000Y-113735000D02*
X144237500Y-114827500D01*
X142830000Y-110735000D02*
X144830000Y-112735000D01*
X138330000Y-111841000D02*
X139436000Y-110735000D01*
X144237500Y-114827500D02*
X142830000Y-116235000D01*
X139436000Y-110735000D02*
X142830000Y-110735000D01*
X139126000Y-116235000D02*
X138330000Y-115439000D01*
X144850000Y-113715000D02*
X144830000Y-113735000D01*
D24*
X162345000Y-74960000D02*
X165870000Y-74960000D01*
D26*
X148960000Y-92040000D02*
X147300000Y-92040000D01*
X149040000Y-92040000D02*
X149000000Y-92000000D01*
X165695000Y-80195000D02*
X152805000Y-80195000D01*
X150700000Y-92040000D02*
X149040000Y-92040000D01*
D24*
X165870000Y-74960000D02*
X165870000Y-80020000D01*
D26*
X149000000Y-84000000D02*
X149000000Y-92000000D01*
X172910000Y-80195000D02*
X165695000Y-80195000D01*
X149000000Y-92000000D02*
X148960000Y-92040000D01*
D24*
X165870000Y-80020000D02*
X165695000Y-80195000D01*
D26*
X152805000Y-80195000D02*
X149000000Y-84000000D01*
D27*
X167000000Y-112912500D02*
X169587500Y-112912500D01*
D24*
X165500000Y-83450000D02*
X165500000Y-85000000D01*
D27*
X169587500Y-112912500D02*
X170540000Y-111960000D01*
D24*
X172995000Y-123946250D02*
X173070000Y-124021250D01*
D27*
X170540000Y-111960000D02*
X172870000Y-111960000D01*
D24*
X171195000Y-124021250D02*
X169045000Y-124021250D01*
X121820000Y-123960000D02*
X119670000Y-123960000D01*
X136207500Y-123960000D02*
X134057500Y-123960000D01*
X153345000Y-123960000D02*
X155495000Y-123960000D01*
X160520000Y-74960000D02*
X157870000Y-74960000D01*
D26*
X119460000Y-111980000D02*
X117890000Y-111980000D01*
X117890000Y-111980000D02*
X114870000Y-108960000D01*
D24*
X129870000Y-104055000D02*
X129870000Y-96960000D01*
D26*
X114870000Y-108960000D02*
X114870000Y-92590000D01*
D24*
X132360000Y-110839500D02*
X133500500Y-111980000D01*
D26*
X124850000Y-111980000D02*
X133500500Y-111980000D01*
X133500500Y-111980000D02*
X135160500Y-113640000D01*
D24*
X123645000Y-123960000D02*
X123645000Y-113185000D01*
X123645000Y-123960000D02*
X126870000Y-123960000D01*
D26*
X122640000Y-111980000D02*
X124850000Y-111980000D01*
D24*
X132360000Y-106545000D02*
X132360000Y-110839500D01*
X123645000Y-113185000D02*
X124850000Y-111980000D01*
D26*
X114870000Y-92590000D02*
X119500000Y-87960000D01*
D24*
X129870000Y-96960000D02*
X131870000Y-94960000D01*
X131870000Y-94960000D02*
X132957500Y-94960000D01*
X132360000Y-106545000D02*
X129870000Y-104055000D01*
D27*
X167000000Y-111087500D02*
X167000000Y-107000000D01*
D26*
X166000000Y-106000000D02*
X164500000Y-107500000D01*
D24*
X167220000Y-118280000D02*
X167220000Y-124021250D01*
D26*
X162870000Y-109130000D02*
X162870000Y-114289500D01*
X167500000Y-104500000D02*
X172840000Y-104500000D01*
D24*
X162695000Y-113835000D02*
X162220000Y-114310000D01*
D27*
X167000000Y-107000000D02*
X166000000Y-106000000D01*
D26*
X167500000Y-104500000D02*
X166000000Y-106000000D01*
X172840000Y-104500000D02*
X172870000Y-104470000D01*
D24*
X132360000Y-101465000D02*
X140300000Y-101465000D01*
X167220000Y-124021250D02*
X164017500Y-124021250D01*
X168000000Y-117500000D02*
X167220000Y-118280000D01*
D26*
X164500000Y-107500000D02*
X162870000Y-109130000D01*
D24*
X141370000Y-123960000D02*
X141370000Y-118660000D01*
X141370000Y-118660000D02*
X140800000Y-118090000D01*
X138032500Y-123960000D02*
X141370000Y-123960000D01*
X151520000Y-123960000D02*
X151520000Y-122810000D01*
X151520000Y-122810000D02*
X152870000Y-121460000D01*
X148095000Y-123960000D02*
X151520000Y-123960000D01*
X134782500Y-94960000D02*
X137457500Y-94960000D01*
X132360000Y-98925000D02*
X134325000Y-96960000D01*
X134782500Y-96547500D02*
X134782500Y-94960000D01*
X134325000Y-96960000D02*
X134370000Y-96960000D01*
X134370000Y-96960000D02*
X134782500Y-96547500D01*
G04 #@! TA.AperFunction,Conductor*
G36*
X185840018Y-67970000D02*
G01*
X185854851Y-67972310D01*
X185854855Y-67972310D01*
X185863724Y-67973691D01*
X185882436Y-67971244D01*
X185905366Y-67970353D01*
X186176103Y-67984542D01*
X186189209Y-67985919D01*
X186404134Y-68019960D01*
X186485445Y-68032838D01*
X186498345Y-68035580D01*
X186643196Y-68074393D01*
X186788052Y-68113207D01*
X186800586Y-68117279D01*
X187080587Y-68224762D01*
X187092635Y-68230126D01*
X187359870Y-68366289D01*
X187371286Y-68372880D01*
X187622832Y-68536236D01*
X187633495Y-68543984D01*
X187866573Y-68732727D01*
X187876374Y-68741552D01*
X188088448Y-68953626D01*
X188097273Y-68963427D01*
X188226277Y-69122733D01*
X188286016Y-69196505D01*
X188293764Y-69207168D01*
X188457117Y-69458709D01*
X188463711Y-69470130D01*
X188599874Y-69737365D01*
X188605237Y-69749412D01*
X188685020Y-69957250D01*
X188712719Y-70029409D01*
X188716795Y-70041953D01*
X188794420Y-70331655D01*
X188797162Y-70344555D01*
X188839264Y-70610376D01*
X188844080Y-70640785D01*
X188845458Y-70653902D01*
X188859262Y-70917299D01*
X188857935Y-70943276D01*
X188857691Y-70944846D01*
X188857691Y-70944850D01*
X188856309Y-70953724D01*
X188857473Y-70962626D01*
X188857473Y-70962628D01*
X188860436Y-70985283D01*
X188861500Y-71001621D01*
X188861500Y-123910633D01*
X188860000Y-123930018D01*
X188857690Y-123944851D01*
X188857690Y-123944855D01*
X188856309Y-123953724D01*
X188858135Y-123967683D01*
X188858756Y-123972433D01*
X188859647Y-123995366D01*
X188848189Y-124214000D01*
X188845458Y-124266099D01*
X188844081Y-124279209D01*
X188817492Y-124447087D01*
X188797162Y-124575445D01*
X188794420Y-124588345D01*
X188760688Y-124714235D01*
X188717725Y-124874578D01*
X188716795Y-124878047D01*
X188712721Y-124890586D01*
X188606039Y-125168500D01*
X188605238Y-125170587D01*
X188599874Y-125182635D01*
X188582524Y-125216686D01*
X188463711Y-125449870D01*
X188457120Y-125461286D01*
X188293764Y-125712832D01*
X188286018Y-125723492D01*
X188224600Y-125799337D01*
X188097273Y-125956573D01*
X188088448Y-125966374D01*
X187876374Y-126178448D01*
X187866573Y-126187273D01*
X187633495Y-126376016D01*
X187622832Y-126383764D01*
X187371286Y-126547120D01*
X187359870Y-126553711D01*
X187092635Y-126689874D01*
X187080588Y-126695237D01*
X186800586Y-126802721D01*
X186788052Y-126806793D01*
X186643196Y-126845607D01*
X186498345Y-126884420D01*
X186485445Y-126887162D01*
X186404134Y-126900040D01*
X186189209Y-126934081D01*
X186176101Y-126935458D01*
X186100937Y-126939397D01*
X185912701Y-126949262D01*
X185886724Y-126947935D01*
X185885154Y-126947691D01*
X185885150Y-126947691D01*
X185876276Y-126946309D01*
X185867374Y-126947473D01*
X185867372Y-126947473D01*
X185852323Y-126949441D01*
X185844714Y-126950436D01*
X185828379Y-126951500D01*
X109919367Y-126951500D01*
X109899982Y-126950000D01*
X109885149Y-126947690D01*
X109885145Y-126947690D01*
X109876276Y-126946309D01*
X109857564Y-126948756D01*
X109834634Y-126949647D01*
X109563897Y-126935458D01*
X109550791Y-126934081D01*
X109335866Y-126900040D01*
X109254555Y-126887162D01*
X109241655Y-126884420D01*
X109096804Y-126845607D01*
X108951948Y-126806793D01*
X108939414Y-126802721D01*
X108659412Y-126695237D01*
X108647365Y-126689874D01*
X108380130Y-126553711D01*
X108368714Y-126547120D01*
X108117168Y-126383764D01*
X108106505Y-126376016D01*
X107873427Y-126187273D01*
X107863626Y-126178448D01*
X107651552Y-125966374D01*
X107642727Y-125956573D01*
X107515400Y-125799337D01*
X107453982Y-125723492D01*
X107446236Y-125712832D01*
X107282880Y-125461286D01*
X107276289Y-125449870D01*
X107157476Y-125216686D01*
X107140126Y-125182635D01*
X107134762Y-125170587D01*
X107133961Y-125168500D01*
X107027279Y-124890586D01*
X107023205Y-124878047D01*
X107022276Y-124874578D01*
X106979312Y-124714235D01*
X106945580Y-124588345D01*
X106942838Y-124575445D01*
X106922508Y-124447087D01*
X106895919Y-124279209D01*
X106894542Y-124266098D01*
X106880932Y-124006410D01*
X106882505Y-123978915D01*
X106883576Y-123972552D01*
X106883729Y-123960000D01*
X106879773Y-123932376D01*
X106878500Y-123914514D01*
X106878500Y-123889733D01*
X107857822Y-123889733D01*
X107857975Y-123894121D01*
X107857975Y-123894127D01*
X107861511Y-123995368D01*
X107867625Y-124170458D01*
X107868387Y-124174781D01*
X107868388Y-124174788D01*
X107892164Y-124309624D01*
X107916402Y-124447087D01*
X108003203Y-124714235D01*
X108005131Y-124718188D01*
X108005133Y-124718193D01*
X108044913Y-124799752D01*
X108126340Y-124966702D01*
X108128795Y-124970341D01*
X108128798Y-124970347D01*
X108196721Y-125071047D01*
X108283415Y-125199576D01*
X108286360Y-125202847D01*
X108286361Y-125202848D01*
X108310280Y-125229413D01*
X108471371Y-125408322D01*
X108686550Y-125588879D01*
X108924764Y-125737731D01*
X109181375Y-125851982D01*
X109451390Y-125929407D01*
X109455740Y-125930018D01*
X109455743Y-125930019D01*
X109558690Y-125944487D01*
X109729552Y-125968500D01*
X109940146Y-125968500D01*
X109942332Y-125968347D01*
X109942336Y-125968347D01*
X110145827Y-125954118D01*
X110145832Y-125954117D01*
X110150212Y-125953811D01*
X110424970Y-125895409D01*
X110429099Y-125893906D01*
X110429103Y-125893905D01*
X110684781Y-125800846D01*
X110684785Y-125800844D01*
X110688926Y-125799337D01*
X110936942Y-125667464D01*
X111041896Y-125591211D01*
X111160629Y-125504947D01*
X111160632Y-125504944D01*
X111164192Y-125502358D01*
X111218531Y-125449884D01*
X111349652Y-125323261D01*
X111366252Y-125307231D01*
X111526079Y-125102661D01*
X111536481Y-125089347D01*
X111536482Y-125089346D01*
X111539188Y-125085882D01*
X111541384Y-125082078D01*
X111541389Y-125082071D01*
X111677435Y-124846431D01*
X111679636Y-124842619D01*
X111784862Y-124582176D01*
X111787939Y-124569835D01*
X111814593Y-124462933D01*
X116799501Y-124462933D01*
X116799838Y-124469452D01*
X116809666Y-124564170D01*
X116812558Y-124577564D01*
X116863536Y-124730365D01*
X116869710Y-124743543D01*
X116954244Y-124880149D01*
X116963280Y-124891550D01*
X117076979Y-125005051D01*
X117088390Y-125014063D01*
X117225154Y-125098365D01*
X117238332Y-125104509D01*
X117391240Y-125155227D01*
X117404606Y-125158093D01*
X117498101Y-125167672D01*
X117504516Y-125168000D01*
X117522885Y-125168000D01*
X117538124Y-125163525D01*
X117539329Y-125162135D01*
X117541000Y-125154452D01*
X117541000Y-124232115D01*
X117536525Y-124216876D01*
X117535135Y-124215671D01*
X117527452Y-124214000D01*
X116817616Y-124214000D01*
X116802377Y-124218475D01*
X116801172Y-124219865D01*
X116799501Y-124227548D01*
X116799501Y-124462933D01*
X111814593Y-124462933D01*
X111851753Y-124313893D01*
X111851754Y-124313888D01*
X111852817Y-124309624D01*
X111855814Y-124281115D01*
X111881719Y-124034636D01*
X111881719Y-124034633D01*
X111882178Y-124030267D01*
X111881345Y-124006410D01*
X111872529Y-123753939D01*
X111872528Y-123753933D01*
X111872375Y-123749542D01*
X111864698Y-123706000D01*
X111861504Y-123687885D01*
X116799500Y-123687885D01*
X116803975Y-123703124D01*
X116805365Y-123704329D01*
X116813048Y-123706000D01*
X117522885Y-123706000D01*
X117538124Y-123701525D01*
X117539329Y-123700135D01*
X117541000Y-123692452D01*
X117541000Y-122770116D01*
X117536525Y-122754877D01*
X117535135Y-122753672D01*
X117527452Y-122752001D01*
X117504567Y-122752001D01*
X117498048Y-122752338D01*
X117403330Y-122762166D01*
X117389936Y-122765058D01*
X117237135Y-122816036D01*
X117223957Y-122822210D01*
X117087351Y-122906744D01*
X117075950Y-122915780D01*
X116962449Y-123029479D01*
X116953437Y-123040890D01*
X116869135Y-123177654D01*
X116862991Y-123190832D01*
X116812273Y-123343740D01*
X116809407Y-123357106D01*
X116799828Y-123450601D01*
X116799500Y-123457016D01*
X116799500Y-123687885D01*
X111861504Y-123687885D01*
X111831604Y-123518317D01*
X111823598Y-123472913D01*
X111736797Y-123205765D01*
X111729164Y-123190114D01*
X111658592Y-123045422D01*
X111613660Y-122953298D01*
X111611205Y-122949659D01*
X111611202Y-122949653D01*
X111527480Y-122825531D01*
X111456585Y-122720424D01*
X111452251Y-122715610D01*
X111291690Y-122537290D01*
X111268629Y-122511678D01*
X111053450Y-122331121D01*
X110815236Y-122182269D01*
X110558625Y-122068018D01*
X110288610Y-121990593D01*
X110284260Y-121989982D01*
X110284257Y-121989981D01*
X110181310Y-121975513D01*
X110010448Y-121951500D01*
X109799854Y-121951500D01*
X109797668Y-121951653D01*
X109797664Y-121951653D01*
X109594173Y-121965882D01*
X109594168Y-121965883D01*
X109589788Y-121966189D01*
X109315030Y-122024591D01*
X109310901Y-122026094D01*
X109310897Y-122026095D01*
X109055219Y-122119154D01*
X109055215Y-122119156D01*
X109051074Y-122120663D01*
X108803058Y-122252536D01*
X108799499Y-122255122D01*
X108799497Y-122255123D01*
X108588094Y-122408716D01*
X108575808Y-122417642D01*
X108572644Y-122420698D01*
X108572641Y-122420700D01*
X108516595Y-122474823D01*
X108373748Y-122612769D01*
X108255153Y-122764564D01*
X108209555Y-122822928D01*
X108200812Y-122834118D01*
X108198616Y-122837922D01*
X108198611Y-122837929D01*
X108118252Y-122977116D01*
X108060364Y-123077381D01*
X107955138Y-123337824D01*
X107954073Y-123342097D01*
X107954072Y-123342099D01*
X107920379Y-123477236D01*
X107887183Y-123610376D01*
X107886724Y-123614744D01*
X107886723Y-123614749D01*
X107870997Y-123764374D01*
X107857822Y-123889733D01*
X106878500Y-123889733D01*
X106878500Y-109038949D01*
X112357780Y-109038949D01*
X112368743Y-109154915D01*
X112369048Y-109158807D01*
X112376359Y-109275020D01*
X112377101Y-109278909D01*
X112377102Y-109278918D01*
X112382652Y-109308010D01*
X112384325Y-109319762D01*
X112387485Y-109353192D01*
X112412894Y-109466864D01*
X112413685Y-109470688D01*
X112416816Y-109487102D01*
X112435505Y-109585072D01*
X112436729Y-109588839D01*
X112436730Y-109588843D01*
X112445881Y-109617007D01*
X112449014Y-109628456D01*
X112456340Y-109661233D01*
X112495803Y-109770845D01*
X112497056Y-109774507D01*
X112533044Y-109885266D01*
X112534726Y-109888841D01*
X112534729Y-109888848D01*
X112547344Y-109915657D01*
X112551885Y-109926621D01*
X112561920Y-109954493D01*
X112561924Y-109954501D01*
X112563261Y-109958216D01*
X112565050Y-109961727D01*
X112565053Y-109961734D01*
X112616126Y-110061969D01*
X112617863Y-110065515D01*
X112667438Y-110170869D01*
X112669559Y-110174211D01*
X112669560Y-110174213D01*
X112685434Y-110199226D01*
X112691312Y-110209531D01*
X112697281Y-110221245D01*
X112702610Y-110231704D01*
X112706559Y-110239455D01*
X112708786Y-110242732D01*
X112708789Y-110242737D01*
X112772003Y-110335753D01*
X112774171Y-110339053D01*
X112836568Y-110437375D01*
X112839096Y-110440430D01*
X112839099Y-110440435D01*
X112857980Y-110463259D01*
X112865103Y-110472746D01*
X112883977Y-110500518D01*
X112886596Y-110503489D01*
X112886601Y-110503495D01*
X112960972Y-110587850D01*
X112963532Y-110590847D01*
X113037767Y-110680582D01*
X113040654Y-110683293D01*
X113122675Y-110760316D01*
X113125517Y-110763071D01*
X116086929Y-113724483D01*
X116089683Y-113727324D01*
X116169418Y-113812233D01*
X116172469Y-113814757D01*
X116259139Y-113886456D01*
X116262136Y-113889016D01*
X116276280Y-113901486D01*
X116346505Y-113963399D01*
X116346511Y-113963404D01*
X116349482Y-113966023D01*
X116377254Y-113984897D01*
X116386741Y-113992020D01*
X116409565Y-114010901D01*
X116409570Y-114010904D01*
X116412625Y-114013432D01*
X116510939Y-114075824D01*
X116514247Y-114077997D01*
X116607263Y-114141211D01*
X116607268Y-114141214D01*
X116610545Y-114143441D01*
X116614071Y-114145237D01*
X116614075Y-114145240D01*
X116624968Y-114150790D01*
X116640469Y-114158688D01*
X116650770Y-114164564D01*
X116679131Y-114182562D01*
X116682715Y-114184249D01*
X116682716Y-114184249D01*
X116784476Y-114232133D01*
X116788031Y-114233874D01*
X116888266Y-114284947D01*
X116888273Y-114284950D01*
X116891784Y-114286739D01*
X116895499Y-114288076D01*
X116895507Y-114288080D01*
X116923379Y-114298115D01*
X116934343Y-114302656D01*
X116961152Y-114315271D01*
X116961159Y-114315274D01*
X116964734Y-114316956D01*
X117075493Y-114352944D01*
X117079155Y-114354197D01*
X117188767Y-114393660D01*
X117221543Y-114400986D01*
X117232993Y-114404119D01*
X117261157Y-114413270D01*
X117261161Y-114413271D01*
X117264928Y-114414495D01*
X117355468Y-114431766D01*
X117379312Y-114436315D01*
X117383136Y-114437106D01*
X117496808Y-114462515D01*
X117529044Y-114465562D01*
X117530238Y-114465675D01*
X117541990Y-114467348D01*
X117571082Y-114472898D01*
X117571091Y-114472899D01*
X117574980Y-114473641D01*
X117691193Y-114480952D01*
X117695085Y-114481257D01*
X117811051Y-114492220D01*
X117815002Y-114492096D01*
X117815008Y-114492096D01*
X117927445Y-114488562D01*
X117931403Y-114488500D01*
X119538838Y-114488500D01*
X119775020Y-114473641D01*
X120085072Y-114414495D01*
X120176873Y-114384667D01*
X120215809Y-114378500D01*
X121884191Y-114378500D01*
X121923127Y-114384667D01*
X122014928Y-114414495D01*
X122324980Y-114473641D01*
X122561162Y-114488500D01*
X122760500Y-114488500D01*
X122828621Y-114508502D01*
X122875114Y-114562158D01*
X122886500Y-114614500D01*
X122886500Y-122881085D01*
X122866498Y-122949206D01*
X122849673Y-122970102D01*
X122821716Y-122998108D01*
X122759434Y-123032188D01*
X122688614Y-123027185D01*
X122643525Y-122998264D01*
X122560983Y-122915866D01*
X122555803Y-122910695D01*
X122549572Y-122906854D01*
X122411468Y-122821725D01*
X122411466Y-122821724D01*
X122405238Y-122817885D01*
X122325495Y-122791436D01*
X122243889Y-122764368D01*
X122243887Y-122764368D01*
X122237361Y-122762203D01*
X122230525Y-122761503D01*
X122230522Y-122761502D01*
X122187469Y-122757091D01*
X122132900Y-122751500D01*
X121507100Y-122751500D01*
X121503854Y-122751837D01*
X121503850Y-122751837D01*
X121408192Y-122761762D01*
X121408188Y-122761763D01*
X121401334Y-122762474D01*
X121394798Y-122764655D01*
X121394796Y-122764655D01*
X121299975Y-122796290D01*
X121233554Y-122818450D01*
X121083152Y-122911522D01*
X120958195Y-123036697D01*
X120920301Y-123098173D01*
X120893522Y-123141616D01*
X120840750Y-123189109D01*
X120786262Y-123201500D01*
X120681578Y-123201500D01*
X120613457Y-123181498D01*
X120574434Y-123141803D01*
X120511151Y-123039539D01*
X120507297Y-123033311D01*
X120383153Y-122909383D01*
X120233829Y-122817339D01*
X120124377Y-122781035D01*
X120073866Y-122764281D01*
X120073864Y-122764281D01*
X120067335Y-122762115D01*
X119963731Y-122751500D01*
X119672266Y-122751500D01*
X119376270Y-122751501D01*
X119271371Y-122762384D01*
X119264840Y-122764563D01*
X119264835Y-122764564D01*
X119120405Y-122812750D01*
X119104974Y-122817898D01*
X118955811Y-122910203D01*
X118831883Y-123034347D01*
X118829886Y-123037587D01*
X118773148Y-123077814D01*
X118702225Y-123081047D01*
X118640813Y-123045422D01*
X118633434Y-123036922D01*
X118626718Y-123028448D01*
X118513021Y-122914949D01*
X118501610Y-122905937D01*
X118364846Y-122821635D01*
X118351668Y-122815491D01*
X118198760Y-122764773D01*
X118185394Y-122761907D01*
X118091899Y-122752328D01*
X118085484Y-122752000D01*
X118067115Y-122752000D01*
X118051876Y-122756475D01*
X118050671Y-122757865D01*
X118049000Y-122765548D01*
X118049000Y-125149884D01*
X118053475Y-125165123D01*
X118054865Y-125166328D01*
X118062548Y-125167999D01*
X118085433Y-125167999D01*
X118091952Y-125167662D01*
X118186670Y-125157834D01*
X118200064Y-125154942D01*
X118352865Y-125103964D01*
X118366043Y-125097790D01*
X118502649Y-125013256D01*
X118514050Y-125004220D01*
X118627551Y-124890521D01*
X118633294Y-124883249D01*
X118691211Y-124842186D01*
X118762134Y-124838954D01*
X118823546Y-124874579D01*
X118829340Y-124881254D01*
X118832703Y-124886689D01*
X118956847Y-125010617D01*
X119106171Y-125102661D01*
X119113119Y-125104966D01*
X119113120Y-125104966D01*
X119266134Y-125155719D01*
X119266136Y-125155719D01*
X119272665Y-125157885D01*
X119376269Y-125168500D01*
X119667734Y-125168500D01*
X119963730Y-125168499D01*
X120068629Y-125157616D01*
X120075160Y-125155437D01*
X120075165Y-125155436D01*
X120228078Y-125104420D01*
X120235026Y-125102102D01*
X120384189Y-125009797D01*
X120508117Y-124885653D01*
X120512806Y-124878047D01*
X120574238Y-124778384D01*
X120627010Y-124730891D01*
X120681498Y-124718500D01*
X120786189Y-124718500D01*
X120854310Y-124738502D01*
X120893333Y-124778196D01*
X120959022Y-124884348D01*
X121084197Y-125009305D01*
X121090427Y-125013145D01*
X121090428Y-125013146D01*
X121227746Y-125097790D01*
X121234762Y-125102115D01*
X121241980Y-125104509D01*
X121396111Y-125155632D01*
X121396113Y-125155632D01*
X121402639Y-125157797D01*
X121409475Y-125158497D01*
X121409478Y-125158498D01*
X121451468Y-125162800D01*
X121507100Y-125168500D01*
X122132900Y-125168500D01*
X122136146Y-125168163D01*
X122136150Y-125168163D01*
X122231808Y-125158238D01*
X122231812Y-125158237D01*
X122238666Y-125157526D01*
X122245202Y-125155345D01*
X122245204Y-125155345D01*
X122397577Y-125104509D01*
X122406446Y-125101550D01*
X122556848Y-125008478D01*
X122643284Y-124921891D01*
X122705566Y-124887812D01*
X122776386Y-124892815D01*
X122821475Y-124921736D01*
X122862561Y-124962750D01*
X122909197Y-125009305D01*
X122915427Y-125013145D01*
X122915428Y-125013146D01*
X123052746Y-125097790D01*
X123059762Y-125102115D01*
X123066980Y-125104509D01*
X123221111Y-125155632D01*
X123221113Y-125155632D01*
X123227639Y-125157797D01*
X123234475Y-125158497D01*
X123234478Y-125158498D01*
X123276468Y-125162800D01*
X123332100Y-125168500D01*
X123957900Y-125168500D01*
X123961146Y-125168163D01*
X123961150Y-125168163D01*
X124056808Y-125158238D01*
X124056812Y-125158237D01*
X124063666Y-125157526D01*
X124070202Y-125155345D01*
X124070204Y-125155345D01*
X124222577Y-125104509D01*
X124231446Y-125101550D01*
X124381848Y-125008478D01*
X124439455Y-124950771D01*
X124501634Y-124888483D01*
X124506805Y-124883303D01*
X124571479Y-124778383D01*
X124624250Y-124730891D01*
X124678738Y-124718500D01*
X125235500Y-124718500D01*
X125303621Y-124738502D01*
X125350114Y-124792158D01*
X125361500Y-124844500D01*
X125361500Y-125008134D01*
X125368255Y-125070316D01*
X125419385Y-125206705D01*
X125506739Y-125323261D01*
X125623295Y-125410615D01*
X125759684Y-125461745D01*
X125821866Y-125468500D01*
X127918134Y-125468500D01*
X127980316Y-125461745D01*
X128116705Y-125410615D01*
X128233261Y-125323261D01*
X128320615Y-125206705D01*
X128371745Y-125070316D01*
X128378500Y-125008134D01*
X128378500Y-124462933D01*
X131187001Y-124462933D01*
X131187338Y-124469452D01*
X131197166Y-124564170D01*
X131200058Y-124577564D01*
X131251036Y-124730365D01*
X131257210Y-124743543D01*
X131341744Y-124880149D01*
X131350780Y-124891550D01*
X131464479Y-125005051D01*
X131475890Y-125014063D01*
X131612654Y-125098365D01*
X131625832Y-125104509D01*
X131778740Y-125155227D01*
X131792106Y-125158093D01*
X131885601Y-125167672D01*
X131892016Y-125168000D01*
X131910385Y-125168000D01*
X131925624Y-125163525D01*
X131926829Y-125162135D01*
X131928500Y-125154452D01*
X131928500Y-124232115D01*
X131924025Y-124216876D01*
X131922635Y-124215671D01*
X131914952Y-124214000D01*
X131205116Y-124214000D01*
X131189877Y-124218475D01*
X131188672Y-124219865D01*
X131187001Y-124227548D01*
X131187001Y-124462933D01*
X128378500Y-124462933D01*
X128378500Y-123687885D01*
X131187000Y-123687885D01*
X131191475Y-123703124D01*
X131192865Y-123704329D01*
X131200548Y-123706000D01*
X131910385Y-123706000D01*
X131925624Y-123701525D01*
X131926829Y-123700135D01*
X131928500Y-123692452D01*
X131928500Y-122770116D01*
X131924025Y-122754877D01*
X131922635Y-122753672D01*
X131914952Y-122752001D01*
X131892067Y-122752001D01*
X131885548Y-122752338D01*
X131790830Y-122762166D01*
X131777436Y-122765058D01*
X131624635Y-122816036D01*
X131611457Y-122822210D01*
X131474851Y-122906744D01*
X131463450Y-122915780D01*
X131349949Y-123029479D01*
X131340937Y-123040890D01*
X131256635Y-123177654D01*
X131250491Y-123190832D01*
X131199773Y-123343740D01*
X131196907Y-123357106D01*
X131187328Y-123450601D01*
X131187000Y-123457016D01*
X131187000Y-123687885D01*
X128378500Y-123687885D01*
X128378500Y-122911866D01*
X128371745Y-122849684D01*
X128320615Y-122713295D01*
X128233261Y-122596739D01*
X128116705Y-122509385D01*
X127980316Y-122458255D01*
X127918134Y-122451500D01*
X125821866Y-122451500D01*
X125759684Y-122458255D01*
X125623295Y-122509385D01*
X125506739Y-122596739D01*
X125419385Y-122713295D01*
X125368255Y-122849684D01*
X125361500Y-122911866D01*
X125361500Y-123075500D01*
X125341498Y-123143621D01*
X125287842Y-123190114D01*
X125235500Y-123201500D01*
X124678811Y-123201500D01*
X124610690Y-123181498D01*
X124571667Y-123141804D01*
X124505978Y-123035652D01*
X124440482Y-122970269D01*
X124406403Y-122907987D01*
X124403500Y-122881097D01*
X124403500Y-114614500D01*
X124423502Y-114546379D01*
X124477158Y-114499886D01*
X124529500Y-114488500D01*
X132409256Y-114488500D01*
X132477377Y-114508502D01*
X132498347Y-114525401D01*
X133442470Y-115469525D01*
X133619983Y-115626024D01*
X133754279Y-115717291D01*
X133877763Y-115801211D01*
X133877768Y-115801214D01*
X133881045Y-115803441D01*
X134162285Y-115946740D01*
X134166009Y-115948081D01*
X134166012Y-115948082D01*
X134345764Y-116012797D01*
X134459267Y-116053661D01*
X134767309Y-116122516D01*
X135081551Y-116152220D01*
X135085503Y-116152096D01*
X135085509Y-116152096D01*
X135253227Y-116146825D01*
X135397037Y-116142306D01*
X135400944Y-116141687D01*
X135400946Y-116141687D01*
X135704888Y-116093547D01*
X135704893Y-116093546D01*
X135708794Y-116092928D01*
X135718715Y-116090046D01*
X136008103Y-116005972D01*
X136008109Y-116005970D01*
X136011905Y-116004867D01*
X136190119Y-115927747D01*
X136297949Y-115881085D01*
X136297952Y-115881083D01*
X136301588Y-115879510D01*
X136546361Y-115734751D01*
X136615177Y-115717291D01*
X136682508Y-115739808D01*
X136726977Y-115795152D01*
X136736500Y-115843204D01*
X136736500Y-118374000D01*
X136748234Y-118483149D01*
X136748952Y-118486449D01*
X136748952Y-118486450D01*
X136755961Y-118518669D01*
X136759620Y-118535491D01*
X136794290Y-118639657D01*
X136873308Y-118762612D01*
X136919801Y-118816268D01*
X136923194Y-118819208D01*
X137023450Y-118906081D01*
X137023453Y-118906083D01*
X137030261Y-118911982D01*
X137038459Y-118915726D01*
X137064547Y-118927640D01*
X137163210Y-118972698D01*
X137183750Y-118978729D01*
X137227008Y-118991431D01*
X137227012Y-118991432D01*
X137231331Y-118992700D01*
X137235780Y-118993340D01*
X137235786Y-118993341D01*
X137371553Y-119012861D01*
X137371558Y-119012861D01*
X137376000Y-119013500D01*
X139804540Y-119013500D01*
X139848473Y-119011617D01*
X139869959Y-119009772D01*
X139885714Y-119007736D01*
X139907787Y-119004884D01*
X139907792Y-119004883D01*
X139913595Y-119004133D01*
X140006435Y-118973966D01*
X140048327Y-118960354D01*
X140048329Y-118960353D01*
X140052598Y-118958966D01*
X140116310Y-118927640D01*
X140120027Y-118925098D01*
X140120031Y-118925096D01*
X140192884Y-118875280D01*
X140260406Y-118853340D01*
X140329070Y-118871389D01*
X140337795Y-118877173D01*
X140337908Y-118877238D01*
X140343248Y-118881118D01*
X140349275Y-118883801D01*
X140349276Y-118883802D01*
X140511685Y-118956111D01*
X140511688Y-118956112D01*
X140517712Y-118958794D01*
X140524162Y-118960165D01*
X140524439Y-118960255D01*
X140583044Y-119000330D01*
X140610679Y-119065727D01*
X140611500Y-119080087D01*
X140611500Y-122325500D01*
X140591498Y-122393621D01*
X140537842Y-122440114D01*
X140485500Y-122451500D01*
X140321866Y-122451500D01*
X140259684Y-122458255D01*
X140123295Y-122509385D01*
X140006739Y-122596739D01*
X139919385Y-122713295D01*
X139868255Y-122849684D01*
X139861500Y-122911866D01*
X139861500Y-123075500D01*
X139841498Y-123143621D01*
X139787842Y-123190114D01*
X139735500Y-123201500D01*
X139066311Y-123201500D01*
X138998190Y-123181498D01*
X138959167Y-123141804D01*
X138893478Y-123035652D01*
X138768303Y-122910695D01*
X138762072Y-122906854D01*
X138623968Y-122821725D01*
X138623966Y-122821724D01*
X138617738Y-122817885D01*
X138537995Y-122791436D01*
X138456389Y-122764368D01*
X138456387Y-122764368D01*
X138449861Y-122762203D01*
X138443025Y-122761503D01*
X138443022Y-122761502D01*
X138399969Y-122757091D01*
X138345400Y-122751500D01*
X137719600Y-122751500D01*
X137716354Y-122751837D01*
X137716350Y-122751837D01*
X137620692Y-122761762D01*
X137620688Y-122761763D01*
X137613834Y-122762474D01*
X137607298Y-122764655D01*
X137607296Y-122764655D01*
X137512475Y-122796290D01*
X137446054Y-122818450D01*
X137295652Y-122911522D01*
X137212857Y-122994462D01*
X137209216Y-122998109D01*
X137146934Y-123032188D01*
X137076114Y-123027185D01*
X137031025Y-122998264D01*
X136948483Y-122915866D01*
X136943303Y-122910695D01*
X136937072Y-122906854D01*
X136798968Y-122821725D01*
X136798966Y-122821724D01*
X136792738Y-122817885D01*
X136712995Y-122791436D01*
X136631389Y-122764368D01*
X136631387Y-122764368D01*
X136624861Y-122762203D01*
X136618025Y-122761503D01*
X136618022Y-122761502D01*
X136574969Y-122757091D01*
X136520400Y-122751500D01*
X135894600Y-122751500D01*
X135891354Y-122751837D01*
X135891350Y-122751837D01*
X135795692Y-122761762D01*
X135795688Y-122761763D01*
X135788834Y-122762474D01*
X135782298Y-122764655D01*
X135782296Y-122764655D01*
X135687475Y-122796290D01*
X135621054Y-122818450D01*
X135470652Y-122911522D01*
X135345695Y-123036697D01*
X135307801Y-123098173D01*
X135281022Y-123141616D01*
X135228250Y-123189109D01*
X135173762Y-123201500D01*
X135069078Y-123201500D01*
X135000957Y-123181498D01*
X134961934Y-123141803D01*
X134898651Y-123039539D01*
X134894797Y-123033311D01*
X134770653Y-122909383D01*
X134621329Y-122817339D01*
X134511877Y-122781035D01*
X134461366Y-122764281D01*
X134461364Y-122764281D01*
X134454835Y-122762115D01*
X134351231Y-122751500D01*
X134059766Y-122751500D01*
X133763770Y-122751501D01*
X133658871Y-122762384D01*
X133652340Y-122764563D01*
X133652335Y-122764564D01*
X133507905Y-122812750D01*
X133492474Y-122817898D01*
X133343311Y-122910203D01*
X133219383Y-123034347D01*
X133217386Y-123037587D01*
X133160648Y-123077814D01*
X133089725Y-123081047D01*
X133028313Y-123045422D01*
X133020934Y-123036922D01*
X133014218Y-123028448D01*
X132900521Y-122914949D01*
X132889110Y-122905937D01*
X132752346Y-122821635D01*
X132739168Y-122815491D01*
X132586260Y-122764773D01*
X132572894Y-122761907D01*
X132479399Y-122752328D01*
X132472984Y-122752000D01*
X132454615Y-122752000D01*
X132439376Y-122756475D01*
X132438171Y-122757865D01*
X132436500Y-122765548D01*
X132436500Y-125149884D01*
X132440975Y-125165123D01*
X132442365Y-125166328D01*
X132450048Y-125167999D01*
X132472933Y-125167999D01*
X132479452Y-125167662D01*
X132574170Y-125157834D01*
X132587564Y-125154942D01*
X132740365Y-125103964D01*
X132753543Y-125097790D01*
X132890149Y-125013256D01*
X132901550Y-125004220D01*
X133015051Y-124890521D01*
X133020794Y-124883249D01*
X133078711Y-124842186D01*
X133149634Y-124838954D01*
X133211046Y-124874579D01*
X133216840Y-124881254D01*
X133220203Y-124886689D01*
X133344347Y-125010617D01*
X133493671Y-125102661D01*
X133500619Y-125104966D01*
X133500620Y-125104966D01*
X133653634Y-125155719D01*
X133653636Y-125155719D01*
X133660165Y-125157885D01*
X133763769Y-125168500D01*
X134055234Y-125168500D01*
X134351230Y-125168499D01*
X134456129Y-125157616D01*
X134462660Y-125155437D01*
X134462665Y-125155436D01*
X134615578Y-125104420D01*
X134622526Y-125102102D01*
X134771689Y-125009797D01*
X134895617Y-124885653D01*
X134900306Y-124878047D01*
X134961738Y-124778384D01*
X135014510Y-124730891D01*
X135068998Y-124718500D01*
X135173689Y-124718500D01*
X135241810Y-124738502D01*
X135280833Y-124778196D01*
X135346522Y-124884348D01*
X135471697Y-125009305D01*
X135477927Y-125013145D01*
X135477928Y-125013146D01*
X135615246Y-125097790D01*
X135622262Y-125102115D01*
X135629480Y-125104509D01*
X135783611Y-125155632D01*
X135783613Y-125155632D01*
X135790139Y-125157797D01*
X135796975Y-125158497D01*
X135796978Y-125158498D01*
X135838968Y-125162800D01*
X135894600Y-125168500D01*
X136520400Y-125168500D01*
X136523646Y-125168163D01*
X136523650Y-125168163D01*
X136619308Y-125158238D01*
X136619312Y-125158237D01*
X136626166Y-125157526D01*
X136632702Y-125155345D01*
X136632704Y-125155345D01*
X136785077Y-125104509D01*
X136793946Y-125101550D01*
X136944348Y-125008478D01*
X137030784Y-124921891D01*
X137093066Y-124887812D01*
X137163886Y-124892815D01*
X137208975Y-124921736D01*
X137250061Y-124962750D01*
X137296697Y-125009305D01*
X137302927Y-125013145D01*
X137302928Y-125013146D01*
X137440246Y-125097790D01*
X137447262Y-125102115D01*
X137454480Y-125104509D01*
X137608611Y-125155632D01*
X137608613Y-125155632D01*
X137615139Y-125157797D01*
X137621975Y-125158497D01*
X137621978Y-125158498D01*
X137663968Y-125162800D01*
X137719600Y-125168500D01*
X138345400Y-125168500D01*
X138348646Y-125168163D01*
X138348650Y-125168163D01*
X138444308Y-125158238D01*
X138444312Y-125158237D01*
X138451166Y-125157526D01*
X138457702Y-125155345D01*
X138457704Y-125155345D01*
X138610077Y-125104509D01*
X138618946Y-125101550D01*
X138769348Y-125008478D01*
X138826955Y-124950771D01*
X138889134Y-124888483D01*
X138894305Y-124883303D01*
X138958979Y-124778383D01*
X139011750Y-124730891D01*
X139066238Y-124718500D01*
X139735500Y-124718500D01*
X139803621Y-124738502D01*
X139850114Y-124792158D01*
X139861500Y-124844500D01*
X139861500Y-125008134D01*
X139868255Y-125070316D01*
X139919385Y-125206705D01*
X140006739Y-125323261D01*
X140123295Y-125410615D01*
X140259684Y-125461745D01*
X140321866Y-125468500D01*
X142418134Y-125468500D01*
X142480316Y-125461745D01*
X142616705Y-125410615D01*
X142733261Y-125323261D01*
X142820615Y-125206705D01*
X142871745Y-125070316D01*
X142878500Y-125008134D01*
X146586500Y-125008134D01*
X146593255Y-125070316D01*
X146644385Y-125206705D01*
X146731739Y-125323261D01*
X146848295Y-125410615D01*
X146984684Y-125461745D01*
X147046866Y-125468500D01*
X149143134Y-125468500D01*
X149205316Y-125461745D01*
X149341705Y-125410615D01*
X149458261Y-125323261D01*
X149545615Y-125206705D01*
X149596745Y-125070316D01*
X149603500Y-125008134D01*
X149603500Y-124844500D01*
X149623502Y-124776379D01*
X149677158Y-124729886D01*
X149729500Y-124718500D01*
X150486189Y-124718500D01*
X150554310Y-124738502D01*
X150593333Y-124778196D01*
X150659022Y-124884348D01*
X150784197Y-125009305D01*
X150790427Y-125013145D01*
X150790428Y-125013146D01*
X150927746Y-125097790D01*
X150934762Y-125102115D01*
X150941980Y-125104509D01*
X151096111Y-125155632D01*
X151096113Y-125155632D01*
X151102639Y-125157797D01*
X151109475Y-125158497D01*
X151109478Y-125158498D01*
X151151468Y-125162800D01*
X151207100Y-125168500D01*
X151832900Y-125168500D01*
X151836146Y-125168163D01*
X151836150Y-125168163D01*
X151931808Y-125158238D01*
X151931812Y-125158237D01*
X151938666Y-125157526D01*
X151945202Y-125155345D01*
X151945204Y-125155345D01*
X152097577Y-125104509D01*
X152106446Y-125101550D01*
X152256848Y-125008478D01*
X152343284Y-124921891D01*
X152405566Y-124887812D01*
X152476386Y-124892815D01*
X152521475Y-124921736D01*
X152562561Y-124962750D01*
X152609197Y-125009305D01*
X152615427Y-125013145D01*
X152615428Y-125013146D01*
X152752746Y-125097790D01*
X152759762Y-125102115D01*
X152766980Y-125104509D01*
X152921111Y-125155632D01*
X152921113Y-125155632D01*
X152927639Y-125157797D01*
X152934475Y-125158497D01*
X152934478Y-125158498D01*
X152976468Y-125162800D01*
X153032100Y-125168500D01*
X153657900Y-125168500D01*
X153661146Y-125168163D01*
X153661150Y-125168163D01*
X153756808Y-125158238D01*
X153756812Y-125158237D01*
X153763666Y-125157526D01*
X153770202Y-125155345D01*
X153770204Y-125155345D01*
X153922577Y-125104509D01*
X153931446Y-125101550D01*
X154081848Y-125008478D01*
X154139455Y-124950771D01*
X154201634Y-124888483D01*
X154206805Y-124883303D01*
X154271479Y-124778383D01*
X154324250Y-124730891D01*
X154378738Y-124718500D01*
X154483422Y-124718500D01*
X154551543Y-124738502D01*
X154590565Y-124778196D01*
X154657703Y-124886689D01*
X154781847Y-125010617D01*
X154931171Y-125102661D01*
X154938119Y-125104966D01*
X154938120Y-125104966D01*
X155091134Y-125155719D01*
X155091136Y-125155719D01*
X155097665Y-125157885D01*
X155201269Y-125168500D01*
X155492734Y-125168500D01*
X155788730Y-125168499D01*
X155893629Y-125157616D01*
X155900160Y-125155437D01*
X155900165Y-125155436D01*
X156053078Y-125104420D01*
X156060026Y-125102102D01*
X156209189Y-125009797D01*
X156333117Y-124885653D01*
X156335114Y-124882413D01*
X156391852Y-124842186D01*
X156462775Y-124838953D01*
X156524187Y-124874578D01*
X156531566Y-124883078D01*
X156538282Y-124891552D01*
X156651979Y-125005051D01*
X156663390Y-125014063D01*
X156800154Y-125098365D01*
X156813332Y-125104509D01*
X156966240Y-125155227D01*
X156979606Y-125158093D01*
X157073101Y-125167672D01*
X157079516Y-125168000D01*
X157097885Y-125168000D01*
X157113124Y-125163525D01*
X157114329Y-125162135D01*
X157116000Y-125154452D01*
X157116000Y-125149884D01*
X157624000Y-125149884D01*
X157628475Y-125165123D01*
X157629865Y-125166328D01*
X157637548Y-125167999D01*
X157660433Y-125167999D01*
X157666952Y-125167662D01*
X157761670Y-125157834D01*
X157775064Y-125154942D01*
X157927865Y-125103964D01*
X157941043Y-125097790D01*
X158077649Y-125013256D01*
X158089050Y-125004220D01*
X158146286Y-124946884D01*
X162386500Y-124946884D01*
X162393255Y-125009066D01*
X162444385Y-125145455D01*
X162531739Y-125262011D01*
X162648295Y-125349365D01*
X162784684Y-125400495D01*
X162846866Y-125407250D01*
X164943134Y-125407250D01*
X165005316Y-125400495D01*
X165141705Y-125349365D01*
X165258261Y-125262011D01*
X165345615Y-125145455D01*
X165396745Y-125009066D01*
X165403500Y-124946884D01*
X165403500Y-124905750D01*
X165423502Y-124837629D01*
X165477158Y-124791136D01*
X165529500Y-124779750D01*
X166186189Y-124779750D01*
X166254310Y-124799752D01*
X166293333Y-124839446D01*
X166359022Y-124945598D01*
X166484197Y-125070555D01*
X166490427Y-125074395D01*
X166490428Y-125074396D01*
X166627746Y-125159040D01*
X166634762Y-125163365D01*
X166649222Y-125168161D01*
X166796111Y-125216882D01*
X166796113Y-125216882D01*
X166802639Y-125219047D01*
X166809475Y-125219747D01*
X166809478Y-125219748D01*
X166852531Y-125224159D01*
X166907100Y-125229750D01*
X167532900Y-125229750D01*
X167536146Y-125229413D01*
X167536150Y-125229413D01*
X167631808Y-125219488D01*
X167631812Y-125219487D01*
X167638666Y-125218776D01*
X167645202Y-125216595D01*
X167645204Y-125216595D01*
X167797577Y-125165759D01*
X167806446Y-125162800D01*
X167956848Y-125069728D01*
X168043284Y-124983141D01*
X168105566Y-124949062D01*
X168176386Y-124954065D01*
X168221475Y-124982986D01*
X168242660Y-125004134D01*
X168309197Y-125070555D01*
X168315427Y-125074395D01*
X168315428Y-125074396D01*
X168452746Y-125159040D01*
X168459762Y-125163365D01*
X168474222Y-125168161D01*
X168621111Y-125216882D01*
X168621113Y-125216882D01*
X168627639Y-125219047D01*
X168634475Y-125219747D01*
X168634478Y-125219748D01*
X168677531Y-125224159D01*
X168732100Y-125229750D01*
X169357900Y-125229750D01*
X169361146Y-125229413D01*
X169361150Y-125229413D01*
X169456808Y-125219488D01*
X169456812Y-125219487D01*
X169463666Y-125218776D01*
X169470202Y-125216595D01*
X169470204Y-125216595D01*
X169622577Y-125165759D01*
X169631446Y-125162800D01*
X169781848Y-125069728D01*
X169906805Y-124944553D01*
X169971479Y-124839633D01*
X170024250Y-124792141D01*
X170078738Y-124779750D01*
X170183422Y-124779750D01*
X170251543Y-124799752D01*
X170290565Y-124839446D01*
X170357703Y-124947939D01*
X170481847Y-125071867D01*
X170631171Y-125163911D01*
X170638119Y-125166216D01*
X170638120Y-125166216D01*
X170791134Y-125216969D01*
X170791136Y-125216969D01*
X170797665Y-125219135D01*
X170901269Y-125229750D01*
X171192734Y-125229750D01*
X171488730Y-125229749D01*
X171593629Y-125218866D01*
X171600160Y-125216687D01*
X171600165Y-125216686D01*
X171753078Y-125165670D01*
X171760026Y-125163352D01*
X171909189Y-125071047D01*
X172033117Y-124946903D01*
X172035114Y-124943663D01*
X172091852Y-124903436D01*
X172162775Y-124900203D01*
X172224187Y-124935828D01*
X172231566Y-124944328D01*
X172238282Y-124952802D01*
X172351979Y-125066301D01*
X172363390Y-125075313D01*
X172500154Y-125159615D01*
X172513332Y-125165759D01*
X172666240Y-125216477D01*
X172679606Y-125219343D01*
X172773101Y-125228922D01*
X172779516Y-125229250D01*
X172797885Y-125229250D01*
X172813124Y-125224775D01*
X172814329Y-125223385D01*
X172816000Y-125215702D01*
X172816000Y-125211134D01*
X173324000Y-125211134D01*
X173328475Y-125226373D01*
X173329865Y-125227578D01*
X173337548Y-125229249D01*
X173360433Y-125229249D01*
X173366952Y-125228912D01*
X173461670Y-125219084D01*
X173475064Y-125216192D01*
X173627865Y-125165214D01*
X173641043Y-125159040D01*
X173777649Y-125074506D01*
X173789050Y-125065470D01*
X173849745Y-125004669D01*
X177362001Y-125004669D01*
X177362371Y-125011490D01*
X177367895Y-125062352D01*
X177371521Y-125077604D01*
X177416676Y-125198054D01*
X177425214Y-125213649D01*
X177501715Y-125315724D01*
X177514276Y-125328285D01*
X177616351Y-125404786D01*
X177631946Y-125413324D01*
X177752394Y-125458478D01*
X177767649Y-125462105D01*
X177818514Y-125467631D01*
X177825328Y-125468000D01*
X178597885Y-125468000D01*
X178613124Y-125463525D01*
X178614329Y-125462135D01*
X178616000Y-125454452D01*
X178616000Y-125449884D01*
X179124000Y-125449884D01*
X179128475Y-125465123D01*
X179129865Y-125466328D01*
X179137548Y-125467999D01*
X179914669Y-125467999D01*
X179921490Y-125467629D01*
X179972352Y-125462105D01*
X179987604Y-125458479D01*
X180108054Y-125413324D01*
X180123649Y-125404786D01*
X180225724Y-125328285D01*
X180238285Y-125315724D01*
X180314786Y-125213649D01*
X180323324Y-125198054D01*
X180368478Y-125077606D01*
X180372105Y-125062351D01*
X180377631Y-125011486D01*
X180378000Y-125004672D01*
X180378000Y-124232115D01*
X180373525Y-124216876D01*
X180372135Y-124215671D01*
X180364452Y-124214000D01*
X179142115Y-124214000D01*
X179126876Y-124218475D01*
X179125671Y-124219865D01*
X179124000Y-124227548D01*
X179124000Y-125449884D01*
X178616000Y-125449884D01*
X178616000Y-124232115D01*
X178611525Y-124216876D01*
X178610135Y-124215671D01*
X178602452Y-124214000D01*
X177380116Y-124214000D01*
X177364877Y-124218475D01*
X177363672Y-124219865D01*
X177362001Y-124227548D01*
X177362001Y-125004669D01*
X173849745Y-125004669D01*
X173902553Y-124951769D01*
X173911563Y-124940360D01*
X173995865Y-124803596D01*
X174002009Y-124790418D01*
X174052727Y-124637510D01*
X174055593Y-124624144D01*
X174065172Y-124530649D01*
X174065500Y-124524234D01*
X174065500Y-124293365D01*
X174061025Y-124278126D01*
X174059635Y-124276921D01*
X174051952Y-124275250D01*
X173342115Y-124275250D01*
X173326876Y-124279725D01*
X173325671Y-124281115D01*
X173324000Y-124288798D01*
X173324000Y-125211134D01*
X172816000Y-125211134D01*
X172816000Y-123889733D01*
X183857822Y-123889733D01*
X183857975Y-123894121D01*
X183857975Y-123894127D01*
X183861511Y-123995368D01*
X183867625Y-124170458D01*
X183868387Y-124174781D01*
X183868388Y-124174788D01*
X183892164Y-124309624D01*
X183916402Y-124447087D01*
X184003203Y-124714235D01*
X184005131Y-124718188D01*
X184005133Y-124718193D01*
X184044913Y-124799752D01*
X184126340Y-124966702D01*
X184128795Y-124970341D01*
X184128798Y-124970347D01*
X184196721Y-125071047D01*
X184283415Y-125199576D01*
X184286360Y-125202847D01*
X184286361Y-125202848D01*
X184310280Y-125229413D01*
X184471371Y-125408322D01*
X184686550Y-125588879D01*
X184924764Y-125737731D01*
X185181375Y-125851982D01*
X185451390Y-125929407D01*
X185455740Y-125930018D01*
X185455743Y-125930019D01*
X185558690Y-125944487D01*
X185729552Y-125968500D01*
X185940146Y-125968500D01*
X185942332Y-125968347D01*
X185942336Y-125968347D01*
X186145827Y-125954118D01*
X186145832Y-125954117D01*
X186150212Y-125953811D01*
X186424970Y-125895409D01*
X186429099Y-125893906D01*
X186429103Y-125893905D01*
X186684781Y-125800846D01*
X186684785Y-125800844D01*
X186688926Y-125799337D01*
X186936942Y-125667464D01*
X187041896Y-125591211D01*
X187160629Y-125504947D01*
X187160632Y-125504944D01*
X187164192Y-125502358D01*
X187218531Y-125449884D01*
X187349652Y-125323261D01*
X187366252Y-125307231D01*
X187526079Y-125102661D01*
X187536481Y-125089347D01*
X187536482Y-125089346D01*
X187539188Y-125085882D01*
X187541384Y-125082078D01*
X187541389Y-125082071D01*
X187677435Y-124846431D01*
X187679636Y-124842619D01*
X187784862Y-124582176D01*
X187787939Y-124569835D01*
X187851753Y-124313893D01*
X187851754Y-124313888D01*
X187852817Y-124309624D01*
X187855814Y-124281115D01*
X187881719Y-124034636D01*
X187881719Y-124034633D01*
X187882178Y-124030267D01*
X187881345Y-124006410D01*
X187872529Y-123753939D01*
X187872528Y-123753933D01*
X187872375Y-123749542D01*
X187864698Y-123706000D01*
X187831604Y-123518317D01*
X187823598Y-123472913D01*
X187736797Y-123205765D01*
X187729164Y-123190114D01*
X187658592Y-123045422D01*
X187613660Y-122953298D01*
X187611205Y-122949659D01*
X187611202Y-122949653D01*
X187527480Y-122825531D01*
X187456585Y-122720424D01*
X187452251Y-122715610D01*
X187291690Y-122537290D01*
X187268629Y-122511678D01*
X187053450Y-122331121D01*
X186815236Y-122182269D01*
X186558625Y-122068018D01*
X186288610Y-121990593D01*
X186284260Y-121989982D01*
X186284257Y-121989981D01*
X186181310Y-121975513D01*
X186010448Y-121951500D01*
X185799854Y-121951500D01*
X185797668Y-121951653D01*
X185797664Y-121951653D01*
X185594173Y-121965882D01*
X185594168Y-121965883D01*
X185589788Y-121966189D01*
X185315030Y-122024591D01*
X185310901Y-122026094D01*
X185310897Y-122026095D01*
X185055219Y-122119154D01*
X185055215Y-122119156D01*
X185051074Y-122120663D01*
X184803058Y-122252536D01*
X184799499Y-122255122D01*
X184799497Y-122255123D01*
X184588094Y-122408716D01*
X184575808Y-122417642D01*
X184572644Y-122420698D01*
X184572641Y-122420700D01*
X184516595Y-122474823D01*
X184373748Y-122612769D01*
X184255153Y-122764564D01*
X184209555Y-122822928D01*
X184200812Y-122834118D01*
X184198616Y-122837922D01*
X184198611Y-122837929D01*
X184118252Y-122977116D01*
X184060364Y-123077381D01*
X183955138Y-123337824D01*
X183954073Y-123342097D01*
X183954072Y-123342099D01*
X183920379Y-123477236D01*
X183887183Y-123610376D01*
X183886724Y-123614744D01*
X183886723Y-123614749D01*
X183870997Y-123764374D01*
X183857822Y-123889733D01*
X172816000Y-123889733D01*
X172816000Y-123749135D01*
X173324000Y-123749135D01*
X173328475Y-123764374D01*
X173329865Y-123765579D01*
X173337548Y-123767250D01*
X174047384Y-123767250D01*
X174062623Y-123762775D01*
X174063828Y-123761385D01*
X174065499Y-123753702D01*
X174065499Y-123687885D01*
X177362000Y-123687885D01*
X177366475Y-123703124D01*
X177367865Y-123704329D01*
X177375548Y-123706000D01*
X178597885Y-123706000D01*
X178613124Y-123701525D01*
X178614329Y-123700135D01*
X178616000Y-123692452D01*
X178616000Y-123687885D01*
X179124000Y-123687885D01*
X179128475Y-123703124D01*
X179129865Y-123704329D01*
X179137548Y-123706000D01*
X180359884Y-123706000D01*
X180375123Y-123701525D01*
X180376328Y-123700135D01*
X180377999Y-123692452D01*
X180377999Y-122915331D01*
X180377629Y-122908510D01*
X180372105Y-122857648D01*
X180368479Y-122842396D01*
X180323324Y-122721946D01*
X180314786Y-122706351D01*
X180238285Y-122604276D01*
X180225724Y-122591715D01*
X180123649Y-122515214D01*
X180108054Y-122506676D01*
X179987606Y-122461522D01*
X179972351Y-122457895D01*
X179921486Y-122452369D01*
X179914672Y-122452000D01*
X179142115Y-122452000D01*
X179126876Y-122456475D01*
X179125671Y-122457865D01*
X179124000Y-122465548D01*
X179124000Y-123687885D01*
X178616000Y-123687885D01*
X178616000Y-122470116D01*
X178611525Y-122454877D01*
X178610135Y-122453672D01*
X178602452Y-122452001D01*
X177825331Y-122452001D01*
X177818510Y-122452371D01*
X177767648Y-122457895D01*
X177752396Y-122461521D01*
X177631946Y-122506676D01*
X177616351Y-122515214D01*
X177514276Y-122591715D01*
X177501715Y-122604276D01*
X177425214Y-122706351D01*
X177416676Y-122721946D01*
X177371522Y-122842394D01*
X177367895Y-122857649D01*
X177362369Y-122908514D01*
X177362000Y-122915328D01*
X177362000Y-123687885D01*
X174065499Y-123687885D01*
X174065499Y-123518317D01*
X174065162Y-123511798D01*
X174055334Y-123417080D01*
X174052442Y-123403686D01*
X174001464Y-123250885D01*
X173995290Y-123237707D01*
X173910756Y-123101101D01*
X173901720Y-123089700D01*
X173788021Y-122976199D01*
X173776610Y-122967187D01*
X173639846Y-122882885D01*
X173626668Y-122876741D01*
X173473760Y-122826023D01*
X173460394Y-122823157D01*
X173366899Y-122813578D01*
X173360484Y-122813250D01*
X173342115Y-122813250D01*
X173326876Y-122817725D01*
X173325671Y-122819115D01*
X173324000Y-122826798D01*
X173324000Y-123749135D01*
X172816000Y-123749135D01*
X172816000Y-122831366D01*
X172811525Y-122816127D01*
X172810135Y-122814922D01*
X172802452Y-122813251D01*
X172779567Y-122813251D01*
X172773048Y-122813588D01*
X172678330Y-122823416D01*
X172664936Y-122826308D01*
X172512135Y-122877286D01*
X172498957Y-122883460D01*
X172362351Y-122967994D01*
X172350950Y-122977030D01*
X172237449Y-123090729D01*
X172231706Y-123098001D01*
X172173789Y-123139064D01*
X172102866Y-123142296D01*
X172041454Y-123106671D01*
X172035660Y-123099996D01*
X172032297Y-123094561D01*
X171908153Y-122970633D01*
X171758829Y-122878589D01*
X171751880Y-122876284D01*
X171598866Y-122825531D01*
X171598864Y-122825531D01*
X171592335Y-122823365D01*
X171488731Y-122812750D01*
X171197266Y-122812750D01*
X170901270Y-122812751D01*
X170796371Y-122823634D01*
X170789840Y-122825813D01*
X170789835Y-122825814D01*
X170641689Y-122875240D01*
X170629974Y-122879148D01*
X170480811Y-122971453D01*
X170356883Y-123095597D01*
X170353043Y-123101827D01*
X170353042Y-123101828D01*
X170290762Y-123202866D01*
X170237990Y-123250359D01*
X170183502Y-123262750D01*
X170078811Y-123262750D01*
X170010690Y-123242748D01*
X169971667Y-123203054D01*
X169964104Y-123190832D01*
X169905978Y-123096902D01*
X169780803Y-122971945D01*
X169774572Y-122968104D01*
X169636468Y-122882975D01*
X169636466Y-122882974D01*
X169630238Y-122879135D01*
X169544255Y-122850616D01*
X169468889Y-122825618D01*
X169468887Y-122825618D01*
X169462361Y-122823453D01*
X169455525Y-122822753D01*
X169455522Y-122822752D01*
X169408017Y-122817885D01*
X169357900Y-122812750D01*
X168732100Y-122812750D01*
X168728854Y-122813087D01*
X168728850Y-122813087D01*
X168633192Y-122823012D01*
X168633188Y-122823013D01*
X168626334Y-122823724D01*
X168619798Y-122825905D01*
X168619796Y-122825905D01*
X168487694Y-122869978D01*
X168458554Y-122879700D01*
X168308152Y-122972772D01*
X168239168Y-123041877D01*
X168221716Y-123059359D01*
X168159434Y-123093438D01*
X168088614Y-123088435D01*
X168043525Y-123059514D01*
X168025857Y-123041877D01*
X168015482Y-123031519D01*
X167981403Y-122969238D01*
X167978500Y-122942347D01*
X167978500Y-118646371D01*
X167998502Y-118578250D01*
X168015405Y-118557276D01*
X168156331Y-118416350D01*
X168219228Y-118382199D01*
X168275824Y-118370169D01*
X168275833Y-118370166D01*
X168282288Y-118368794D01*
X168288319Y-118366109D01*
X168450722Y-118293803D01*
X168450724Y-118293802D01*
X168456752Y-118291118D01*
X168611253Y-118178866D01*
X168615675Y-118173955D01*
X168734621Y-118041852D01*
X168734622Y-118041851D01*
X168739040Y-118036944D01*
X168834527Y-117871556D01*
X168893542Y-117689928D01*
X168913504Y-117500000D01*
X168893542Y-117310072D01*
X168834527Y-117128444D01*
X168739040Y-116963056D01*
X168611253Y-116821134D01*
X168456752Y-116708882D01*
X168450724Y-116706198D01*
X168450722Y-116706197D01*
X168288319Y-116633891D01*
X168288318Y-116633891D01*
X168282288Y-116631206D01*
X168188887Y-116611353D01*
X168101944Y-116592872D01*
X168101939Y-116592872D01*
X168095487Y-116591500D01*
X167904513Y-116591500D01*
X167898061Y-116592872D01*
X167898056Y-116592872D01*
X167811113Y-116611353D01*
X167717712Y-116631206D01*
X167711682Y-116633891D01*
X167711681Y-116633891D01*
X167549278Y-116706197D01*
X167549276Y-116706198D01*
X167543248Y-116708882D01*
X167388747Y-116821134D01*
X167260960Y-116963056D01*
X167165473Y-117128444D01*
X167163431Y-117134729D01*
X167110613Y-117297285D01*
X167079875Y-117347444D01*
X166731089Y-117696230D01*
X166716677Y-117708616D01*
X166705082Y-117717149D01*
X166705077Y-117717154D01*
X166699182Y-117721492D01*
X166694443Y-117727070D01*
X166694440Y-117727073D01*
X166664965Y-117761768D01*
X166658035Y-117769284D01*
X166652340Y-117774979D01*
X166650060Y-117777861D01*
X166634719Y-117797251D01*
X166631928Y-117800655D01*
X166589409Y-117850703D01*
X166584667Y-117856285D01*
X166581339Y-117862801D01*
X166577972Y-117867850D01*
X166574805Y-117872979D01*
X166570266Y-117878716D01*
X166539345Y-117944875D01*
X166537442Y-117948769D01*
X166504231Y-118013808D01*
X166502492Y-118020916D01*
X166500393Y-118026559D01*
X166498476Y-118032322D01*
X166495378Y-118038950D01*
X166493888Y-118046112D01*
X166493888Y-118046113D01*
X166480514Y-118110412D01*
X166479544Y-118114696D01*
X166462192Y-118185610D01*
X166461500Y-118196764D01*
X166461464Y-118196762D01*
X166461225Y-118200755D01*
X166460851Y-118204947D01*
X166459360Y-118212115D01*
X166459558Y-118219432D01*
X166461454Y-118289521D01*
X166461500Y-118292928D01*
X166461500Y-122942335D01*
X166441498Y-123010456D01*
X166424673Y-123031353D01*
X166419114Y-123036922D01*
X166358195Y-123097947D01*
X166294175Y-123201807D01*
X166293522Y-123202866D01*
X166240750Y-123250359D01*
X166186262Y-123262750D01*
X165529500Y-123262750D01*
X165461379Y-123242748D01*
X165414886Y-123189092D01*
X165403500Y-123136750D01*
X165403500Y-122850616D01*
X165396745Y-122788434D01*
X165345615Y-122652045D01*
X165258261Y-122535489D01*
X165141705Y-122448135D01*
X165005316Y-122397005D01*
X164943134Y-122390250D01*
X162846866Y-122390250D01*
X162784684Y-122397005D01*
X162648295Y-122448135D01*
X162531739Y-122535489D01*
X162444385Y-122652045D01*
X162393255Y-122788434D01*
X162386500Y-122850616D01*
X162386500Y-124946884D01*
X158146286Y-124946884D01*
X158202551Y-124890521D01*
X158211563Y-124879110D01*
X158295865Y-124742346D01*
X158302009Y-124729168D01*
X158352727Y-124576260D01*
X158355593Y-124562894D01*
X158365172Y-124469399D01*
X158365500Y-124462984D01*
X158365500Y-124232115D01*
X158361025Y-124216876D01*
X158359635Y-124215671D01*
X158351952Y-124214000D01*
X157642115Y-124214000D01*
X157626876Y-124218475D01*
X157625671Y-124219865D01*
X157624000Y-124227548D01*
X157624000Y-125149884D01*
X157116000Y-125149884D01*
X157116000Y-123687885D01*
X157624000Y-123687885D01*
X157628475Y-123703124D01*
X157629865Y-123704329D01*
X157637548Y-123706000D01*
X158347384Y-123706000D01*
X158362623Y-123701525D01*
X158363828Y-123700135D01*
X158365499Y-123692452D01*
X158365499Y-123457067D01*
X158365162Y-123450548D01*
X158355334Y-123355830D01*
X158352442Y-123342436D01*
X158301464Y-123189635D01*
X158295290Y-123176457D01*
X158210756Y-123039851D01*
X158201720Y-123028450D01*
X158088021Y-122914949D01*
X158076610Y-122905937D01*
X157939846Y-122821635D01*
X157926668Y-122815491D01*
X157773760Y-122764773D01*
X157760394Y-122761907D01*
X157666899Y-122752328D01*
X157660484Y-122752000D01*
X157642115Y-122752000D01*
X157626876Y-122756475D01*
X157625671Y-122757865D01*
X157624000Y-122765548D01*
X157624000Y-123687885D01*
X157116000Y-123687885D01*
X157116000Y-122770116D01*
X157111525Y-122754877D01*
X157110135Y-122753672D01*
X157102452Y-122752001D01*
X157079567Y-122752001D01*
X157073048Y-122752338D01*
X156978330Y-122762166D01*
X156964936Y-122765058D01*
X156812135Y-122816036D01*
X156798957Y-122822210D01*
X156662351Y-122906744D01*
X156650950Y-122915780D01*
X156537449Y-123029479D01*
X156531706Y-123036751D01*
X156473789Y-123077814D01*
X156402866Y-123081046D01*
X156341454Y-123045421D01*
X156335660Y-123038746D01*
X156332297Y-123033311D01*
X156208153Y-122909383D01*
X156058829Y-122817339D01*
X155949377Y-122781035D01*
X155898866Y-122764281D01*
X155898864Y-122764281D01*
X155892335Y-122762115D01*
X155788731Y-122751500D01*
X155497266Y-122751500D01*
X155201270Y-122751501D01*
X155096371Y-122762384D01*
X155089840Y-122764563D01*
X155089835Y-122764564D01*
X154945405Y-122812750D01*
X154929974Y-122817898D01*
X154780811Y-122910203D01*
X154656883Y-123034347D01*
X154653043Y-123040577D01*
X154653042Y-123040578D01*
X154590762Y-123141616D01*
X154537990Y-123189109D01*
X154483502Y-123201500D01*
X154378811Y-123201500D01*
X154310690Y-123181498D01*
X154271667Y-123141804D01*
X154205978Y-123035652D01*
X154080803Y-122910695D01*
X154074572Y-122906854D01*
X153936468Y-122821725D01*
X153936466Y-122821724D01*
X153930238Y-122817885D01*
X153850495Y-122791436D01*
X153768889Y-122764368D01*
X153768887Y-122764368D01*
X153762361Y-122762203D01*
X153755525Y-122761503D01*
X153755522Y-122761502D01*
X153712469Y-122757091D01*
X153657900Y-122751500D01*
X153032100Y-122751500D01*
X153028856Y-122751837D01*
X153028848Y-122751837D01*
X152960246Y-122758955D01*
X152890425Y-122746090D01*
X152838643Y-122697519D01*
X152821341Y-122628663D01*
X152844012Y-122561383D01*
X152858148Y-122544533D01*
X153026331Y-122376350D01*
X153089228Y-122342199D01*
X153145824Y-122330169D01*
X153145833Y-122330166D01*
X153152288Y-122328794D01*
X153158319Y-122326109D01*
X153320722Y-122253803D01*
X153320724Y-122253802D01*
X153326752Y-122251118D01*
X153343960Y-122238616D01*
X153423971Y-122180484D01*
X153481253Y-122138866D01*
X153546136Y-122066806D01*
X153604621Y-122001852D01*
X153604622Y-122001851D01*
X153609040Y-121996944D01*
X153704527Y-121831556D01*
X153763542Y-121649928D01*
X153783504Y-121460000D01*
X153763542Y-121270072D01*
X153704527Y-121088444D01*
X153609040Y-120923056D01*
X153481253Y-120781134D01*
X153326752Y-120668882D01*
X153320724Y-120666198D01*
X153320722Y-120666197D01*
X153158319Y-120593891D01*
X153158318Y-120593891D01*
X153152288Y-120591206D01*
X153058887Y-120571353D01*
X152971944Y-120552872D01*
X152971939Y-120552872D01*
X152965487Y-120551500D01*
X152774513Y-120551500D01*
X152768061Y-120552872D01*
X152768056Y-120552872D01*
X152681113Y-120571353D01*
X152587712Y-120591206D01*
X152581682Y-120593891D01*
X152581681Y-120593891D01*
X152419278Y-120666197D01*
X152419276Y-120666198D01*
X152413248Y-120668882D01*
X152258747Y-120781134D01*
X152130960Y-120923056D01*
X152035473Y-121088444D01*
X152033431Y-121094729D01*
X151980613Y-121257285D01*
X151949875Y-121307444D01*
X151031089Y-122226230D01*
X151016677Y-122238616D01*
X151005082Y-122247149D01*
X151005077Y-122247154D01*
X150999182Y-122251492D01*
X150994443Y-122257070D01*
X150994440Y-122257073D01*
X150964965Y-122291768D01*
X150958035Y-122299284D01*
X150952340Y-122304979D01*
X150950060Y-122307861D01*
X150934719Y-122327251D01*
X150931928Y-122330655D01*
X150929130Y-122333949D01*
X150884667Y-122386285D01*
X150881339Y-122392801D01*
X150877972Y-122397850D01*
X150874805Y-122402979D01*
X150870266Y-122408716D01*
X150839345Y-122474875D01*
X150837442Y-122478769D01*
X150804231Y-122543808D01*
X150802492Y-122550916D01*
X150800393Y-122556559D01*
X150798476Y-122562322D01*
X150795378Y-122568950D01*
X150793888Y-122576112D01*
X150793888Y-122576113D01*
X150780514Y-122640412D01*
X150779544Y-122644696D01*
X150762192Y-122715610D01*
X150761500Y-122726764D01*
X150761464Y-122726762D01*
X150761225Y-122730755D01*
X150760851Y-122734947D01*
X150759360Y-122742115D01*
X150760413Y-122781035D01*
X150761454Y-122819521D01*
X150761500Y-122822928D01*
X150761500Y-122881085D01*
X150741498Y-122949206D01*
X150724673Y-122970103D01*
X150700217Y-122994602D01*
X150658195Y-123036697D01*
X150620301Y-123098173D01*
X150593522Y-123141616D01*
X150540750Y-123189109D01*
X150486262Y-123201500D01*
X149729500Y-123201500D01*
X149661379Y-123181498D01*
X149614886Y-123127842D01*
X149603500Y-123075500D01*
X149603500Y-122911866D01*
X149596745Y-122849684D01*
X149545615Y-122713295D01*
X149458261Y-122596739D01*
X149341705Y-122509385D01*
X149205316Y-122458255D01*
X149143134Y-122451500D01*
X147046866Y-122451500D01*
X146984684Y-122458255D01*
X146848295Y-122509385D01*
X146731739Y-122596739D01*
X146644385Y-122713295D01*
X146593255Y-122849684D01*
X146586500Y-122911866D01*
X146586500Y-125008134D01*
X142878500Y-125008134D01*
X142878500Y-122911866D01*
X142871745Y-122849684D01*
X142820615Y-122713295D01*
X142733261Y-122596739D01*
X142616705Y-122509385D01*
X142480316Y-122458255D01*
X142418134Y-122451500D01*
X142254500Y-122451500D01*
X142186379Y-122431498D01*
X142139886Y-122377842D01*
X142128500Y-122325500D01*
X142128500Y-119139500D01*
X142148502Y-119071379D01*
X142202158Y-119024886D01*
X142254500Y-119013500D01*
X160624000Y-119013500D01*
X160627346Y-119013140D01*
X160627351Y-119013140D01*
X160729785Y-119002128D01*
X160729792Y-119002127D01*
X160733149Y-119001766D01*
X160736450Y-119001048D01*
X160782210Y-118991094D01*
X160782215Y-118991093D01*
X160785491Y-118990380D01*
X160876002Y-118960255D01*
X160882182Y-118958198D01*
X160889657Y-118955710D01*
X161012612Y-118876692D01*
X161066268Y-118830199D01*
X161121888Y-118766010D01*
X161156081Y-118726550D01*
X161156083Y-118726547D01*
X161161982Y-118719739D01*
X161222698Y-118586790D01*
X161242700Y-118518669D01*
X161247333Y-118486450D01*
X161262861Y-118378447D01*
X161262861Y-118378442D01*
X161263500Y-118374000D01*
X161263500Y-116470275D01*
X161283502Y-116402154D01*
X161337158Y-116355661D01*
X161407432Y-116345557D01*
X161463560Y-116368338D01*
X161523221Y-116411684D01*
X161799821Y-116563747D01*
X161803490Y-116565200D01*
X161803495Y-116565202D01*
X161976984Y-116633891D01*
X162093298Y-116679943D01*
X162399025Y-116758440D01*
X162712179Y-116798000D01*
X163027821Y-116798000D01*
X163340975Y-116758440D01*
X163646702Y-116679943D01*
X163763016Y-116633891D01*
X163936505Y-116565202D01*
X163936510Y-116565200D01*
X163940179Y-116563747D01*
X164216779Y-116411684D01*
X164472140Y-116226154D01*
X164702233Y-116010082D01*
X164903432Y-115766875D01*
X165072562Y-115500369D01*
X165074246Y-115496790D01*
X165074250Y-115496783D01*
X165205267Y-115218356D01*
X165205269Y-115218352D01*
X165206956Y-115214766D01*
X165304495Y-114914572D01*
X165363641Y-114604520D01*
X165378500Y-114368338D01*
X165378500Y-113222095D01*
X165792001Y-113222095D01*
X165792338Y-113228614D01*
X165802257Y-113324206D01*
X165805149Y-113337600D01*
X165856588Y-113491784D01*
X165862761Y-113504962D01*
X165948063Y-113642807D01*
X165957099Y-113654208D01*
X166071829Y-113768739D01*
X166083240Y-113777751D01*
X166221243Y-113862816D01*
X166234424Y-113868963D01*
X166388710Y-113920138D01*
X166402086Y-113923005D01*
X166496438Y-113932672D01*
X166502854Y-113933000D01*
X166727885Y-113933000D01*
X166743124Y-113928525D01*
X166744329Y-113927135D01*
X166746000Y-113919452D01*
X166746000Y-113914884D01*
X167254000Y-113914884D01*
X167258475Y-113930123D01*
X167259865Y-113931328D01*
X167267548Y-113932999D01*
X167497095Y-113932999D01*
X167503614Y-113932662D01*
X167599206Y-113922743D01*
X167612600Y-113919851D01*
X167688081Y-113894669D01*
X170647001Y-113894669D01*
X170647371Y-113901490D01*
X170652895Y-113952352D01*
X170656521Y-113967604D01*
X170701676Y-114088054D01*
X170710214Y-114103649D01*
X170786715Y-114205724D01*
X170799276Y-114218285D01*
X170901351Y-114294786D01*
X170916946Y-114303324D01*
X171037394Y-114348478D01*
X171052649Y-114352105D01*
X171103514Y-114357631D01*
X171110328Y-114358000D01*
X172597885Y-114358000D01*
X172613124Y-114353525D01*
X172614329Y-114352135D01*
X172616000Y-114344452D01*
X172616000Y-114339884D01*
X173124000Y-114339884D01*
X173128475Y-114355123D01*
X173129865Y-114356328D01*
X173137548Y-114357999D01*
X174286895Y-114357999D01*
X174286927Y-114358000D01*
X175777885Y-114358000D01*
X175793124Y-114353525D01*
X175794329Y-114352135D01*
X175796000Y-114344452D01*
X175796000Y-114339884D01*
X176304000Y-114339884D01*
X176308475Y-114355123D01*
X176309865Y-114356328D01*
X176317548Y-114357999D01*
X177809669Y-114357999D01*
X177816490Y-114357629D01*
X177867352Y-114352105D01*
X177882604Y-114348479D01*
X178003054Y-114303324D01*
X178018649Y-114294786D01*
X178120724Y-114218285D01*
X178133285Y-114205724D01*
X178209786Y-114103649D01*
X178218324Y-114088054D01*
X178263478Y-113967606D01*
X178267105Y-113952351D01*
X178272631Y-113901486D01*
X178273000Y-113894672D01*
X178273000Y-112232115D01*
X178268525Y-112216876D01*
X178267135Y-112215671D01*
X178259452Y-112214000D01*
X176322115Y-112214000D01*
X176306876Y-112218475D01*
X176305671Y-112219865D01*
X176304000Y-112227548D01*
X176304000Y-114339884D01*
X175796000Y-114339884D01*
X175796000Y-112232115D01*
X175791525Y-112216876D01*
X175790135Y-112215671D01*
X175782452Y-112214000D01*
X173142115Y-112214000D01*
X173126876Y-112218475D01*
X173125671Y-112219865D01*
X173124000Y-112227548D01*
X173124000Y-114339884D01*
X172616000Y-114339884D01*
X172616000Y-112232115D01*
X172611525Y-112216876D01*
X172610135Y-112215671D01*
X172602452Y-112214000D01*
X170665116Y-112214000D01*
X170649877Y-112218475D01*
X170648672Y-112219865D01*
X170647001Y-112227548D01*
X170647001Y-113894669D01*
X167688081Y-113894669D01*
X167766784Y-113868412D01*
X167779962Y-113862239D01*
X167917807Y-113776937D01*
X167929208Y-113767901D01*
X168043739Y-113653171D01*
X168052751Y-113641760D01*
X168137816Y-113503757D01*
X168143963Y-113490576D01*
X168195138Y-113336290D01*
X168198005Y-113322914D01*
X168207672Y-113228562D01*
X168208000Y-113222146D01*
X168208000Y-113184615D01*
X168203525Y-113169376D01*
X168202135Y-113168171D01*
X168194452Y-113166500D01*
X167272115Y-113166500D01*
X167256876Y-113170975D01*
X167255671Y-113172365D01*
X167254000Y-113180048D01*
X167254000Y-113914884D01*
X166746000Y-113914884D01*
X166746000Y-113184615D01*
X166741525Y-113169376D01*
X166740135Y-113168171D01*
X166732452Y-113166500D01*
X165810116Y-113166500D01*
X165794877Y-113170975D01*
X165793672Y-113172365D01*
X165792001Y-113180048D01*
X165792001Y-113222095D01*
X165378500Y-113222095D01*
X165378500Y-110221245D01*
X165398502Y-110153124D01*
X165415405Y-110132149D01*
X166151405Y-109396150D01*
X166213717Y-109362125D01*
X166284533Y-109367190D01*
X166341368Y-109409737D01*
X166366179Y-109476257D01*
X166366500Y-109485246D01*
X166366500Y-109995803D01*
X166346498Y-110063924D01*
X166292842Y-110110417D01*
X166280377Y-110115326D01*
X166232998Y-110131133D01*
X166232996Y-110131134D01*
X166226054Y-110133450D01*
X166075652Y-110226522D01*
X165950695Y-110351697D01*
X165946855Y-110357927D01*
X165946854Y-110357928D01*
X165879111Y-110467828D01*
X165857885Y-110502262D01*
X165802203Y-110670139D01*
X165801503Y-110676975D01*
X165801502Y-110676978D01*
X165801133Y-110680582D01*
X165791500Y-110774600D01*
X165791500Y-111400400D01*
X165791837Y-111403646D01*
X165791837Y-111403650D01*
X165799642Y-111478869D01*
X165802474Y-111506166D01*
X165858450Y-111673946D01*
X165951522Y-111824348D01*
X165956704Y-111829521D01*
X166038463Y-111911138D01*
X166072542Y-111973421D01*
X166067539Y-112044241D01*
X166038618Y-112089329D01*
X165956261Y-112171829D01*
X165947249Y-112183240D01*
X165862184Y-112321243D01*
X165856037Y-112334424D01*
X165804862Y-112488710D01*
X165801995Y-112502086D01*
X165792328Y-112596438D01*
X165792000Y-112602855D01*
X165792000Y-112640385D01*
X165796475Y-112655624D01*
X165797865Y-112656829D01*
X165805548Y-112658500D01*
X168189884Y-112658500D01*
X168205123Y-112654025D01*
X168206328Y-112652635D01*
X168207999Y-112644952D01*
X168207999Y-112602905D01*
X168207662Y-112596386D01*
X168197743Y-112500794D01*
X168194851Y-112487400D01*
X168143412Y-112333216D01*
X168137239Y-112320038D01*
X168051937Y-112182193D01*
X168042901Y-112170792D01*
X167961538Y-112089570D01*
X167927459Y-112027287D01*
X167932462Y-111956467D01*
X167961383Y-111911380D01*
X168044130Y-111828488D01*
X168044134Y-111828483D01*
X168049305Y-111823303D01*
X168123385Y-111703124D01*
X168132778Y-111687885D01*
X170647000Y-111687885D01*
X170651475Y-111703124D01*
X170652865Y-111704329D01*
X170660548Y-111706000D01*
X172597885Y-111706000D01*
X172613124Y-111701525D01*
X172614329Y-111700135D01*
X172616000Y-111692452D01*
X172616000Y-111687885D01*
X173124000Y-111687885D01*
X173128475Y-111703124D01*
X173129865Y-111704329D01*
X173137548Y-111706000D01*
X175777885Y-111706000D01*
X175793124Y-111701525D01*
X175794329Y-111700135D01*
X175796000Y-111692452D01*
X175796000Y-111687885D01*
X176304000Y-111687885D01*
X176308475Y-111703124D01*
X176309865Y-111704329D01*
X176317548Y-111706000D01*
X178254884Y-111706000D01*
X178270123Y-111701525D01*
X178271328Y-111700135D01*
X178272999Y-111692452D01*
X178272999Y-110025331D01*
X178272629Y-110018510D01*
X178267105Y-109967648D01*
X178263479Y-109952396D01*
X178218324Y-109831946D01*
X178209786Y-109816351D01*
X178133285Y-109714276D01*
X178120724Y-109701715D01*
X178018649Y-109625214D01*
X178003054Y-109616676D01*
X177882606Y-109571522D01*
X177867351Y-109567895D01*
X177816486Y-109562369D01*
X177809672Y-109562000D01*
X176322115Y-109562000D01*
X176306876Y-109566475D01*
X176305671Y-109567865D01*
X176304000Y-109575548D01*
X176304000Y-111687885D01*
X175796000Y-111687885D01*
X175796000Y-109580116D01*
X175791525Y-109564877D01*
X175790135Y-109563672D01*
X175782452Y-109562001D01*
X174633105Y-109562001D01*
X174633073Y-109562000D01*
X173142115Y-109562000D01*
X173126876Y-109566475D01*
X173125671Y-109567865D01*
X173124000Y-109575548D01*
X173124000Y-111687885D01*
X172616000Y-111687885D01*
X172616000Y-109580116D01*
X172611525Y-109564877D01*
X172610135Y-109563672D01*
X172602452Y-109562001D01*
X171110331Y-109562001D01*
X171103510Y-109562371D01*
X171052648Y-109567895D01*
X171037396Y-109571521D01*
X170916946Y-109616676D01*
X170901351Y-109625214D01*
X170799276Y-109701715D01*
X170786715Y-109714276D01*
X170710214Y-109816351D01*
X170701676Y-109831946D01*
X170656522Y-109952394D01*
X170652895Y-109967649D01*
X170647369Y-110018514D01*
X170647000Y-110025328D01*
X170647000Y-111687885D01*
X168132778Y-111687885D01*
X168138275Y-111678968D01*
X168138276Y-111678966D01*
X168142115Y-111672738D01*
X168197797Y-111504861D01*
X168208500Y-111400400D01*
X168208500Y-110774600D01*
X168207018Y-110760316D01*
X168198238Y-110675692D01*
X168198237Y-110675688D01*
X168197526Y-110668834D01*
X168141550Y-110501054D01*
X168048478Y-110350652D01*
X167923303Y-110225695D01*
X167831415Y-110169054D01*
X167778968Y-110136725D01*
X167778966Y-110136724D01*
X167772738Y-110132885D01*
X167719832Y-110115337D01*
X167661473Y-110074906D01*
X167634236Y-110009342D01*
X167633500Y-109995744D01*
X167633500Y-107966245D01*
X167653502Y-107898124D01*
X167670405Y-107877150D01*
X168502151Y-107045404D01*
X168564463Y-107011379D01*
X168591246Y-107008500D01*
X172798597Y-107008500D01*
X172802555Y-107008562D01*
X172914992Y-107012096D01*
X172914998Y-107012096D01*
X172918949Y-107012220D01*
X173034915Y-107001257D01*
X173038807Y-107000952D01*
X173155020Y-106993641D01*
X173158909Y-106992899D01*
X173158918Y-106992898D01*
X173188010Y-106987348D01*
X173199762Y-106985675D01*
X173200956Y-106985562D01*
X173233192Y-106982515D01*
X173346864Y-106957106D01*
X173350688Y-106956315D01*
X173374532Y-106951766D01*
X173465072Y-106934495D01*
X173468839Y-106933271D01*
X173468843Y-106933270D01*
X173497007Y-106924119D01*
X173508457Y-106920986D01*
X173541233Y-106913660D01*
X173645979Y-106875949D01*
X173688660Y-106868500D01*
X177813134Y-106868500D01*
X177875316Y-106861745D01*
X178011705Y-106810615D01*
X178128261Y-106723261D01*
X178215615Y-106606705D01*
X178266745Y-106470316D01*
X178273500Y-106408134D01*
X178273500Y-102531866D01*
X178266745Y-102469684D01*
X178215615Y-102333295D01*
X178128261Y-102216739D01*
X178011705Y-102129385D01*
X177875316Y-102078255D01*
X177813134Y-102071500D01*
X173623566Y-102071500D01*
X173588413Y-102066497D01*
X173509894Y-102043685D01*
X173418294Y-102017073D01*
X173414393Y-102016455D01*
X173414388Y-102016454D01*
X173110446Y-101968314D01*
X173110444Y-101968314D01*
X173106537Y-101967695D01*
X172962727Y-101963176D01*
X172795009Y-101957905D01*
X172795003Y-101957905D01*
X172791051Y-101957781D01*
X172633929Y-101972633D01*
X172480750Y-101987112D01*
X172480744Y-101987113D01*
X172476808Y-101987485D01*
X172472422Y-101988465D01*
X172471720Y-101988543D01*
X172469037Y-101988968D01*
X172469017Y-101988841D01*
X172444938Y-101991500D01*
X167541383Y-101991500D01*
X167537425Y-101991438D01*
X167425009Y-101987905D01*
X167425003Y-101987905D01*
X167421051Y-101987781D01*
X167351348Y-101994370D01*
X167305141Y-101998737D01*
X167301196Y-101999047D01*
X167258927Y-102001707D01*
X167184980Y-102006359D01*
X167181087Y-102007102D01*
X167181084Y-102007102D01*
X167172367Y-102008765D01*
X167151984Y-102012653D01*
X167140242Y-102014325D01*
X167106808Y-102017485D01*
X166993136Y-102042894D01*
X166989312Y-102043685D01*
X166965468Y-102048234D01*
X166874928Y-102065505D01*
X166871161Y-102066729D01*
X166871157Y-102066730D01*
X166842993Y-102075881D01*
X166831544Y-102079014D01*
X166798767Y-102086340D01*
X166689155Y-102125803D01*
X166685493Y-102127056D01*
X166574734Y-102163044D01*
X166571159Y-102164726D01*
X166571152Y-102164729D01*
X166544343Y-102177344D01*
X166533379Y-102181885D01*
X166505512Y-102191918D01*
X166505501Y-102191923D01*
X166501784Y-102193261D01*
X166398010Y-102246136D01*
X166394508Y-102247851D01*
X166384361Y-102252626D01*
X166292717Y-102295750D01*
X166292710Y-102295754D01*
X166289131Y-102297438D01*
X166285785Y-102299562D01*
X166285784Y-102299562D01*
X166260777Y-102315432D01*
X166250468Y-102321313D01*
X166220544Y-102336560D01*
X166217265Y-102338788D01*
X166217264Y-102338789D01*
X166124236Y-102402010D01*
X166120928Y-102404183D01*
X166104306Y-102414732D01*
X166022625Y-102466568D01*
X166019570Y-102469096D01*
X166019565Y-102469099D01*
X165996741Y-102487980D01*
X165987254Y-102495103D01*
X165959482Y-102513977D01*
X165928125Y-102541622D01*
X165872136Y-102590983D01*
X165869166Y-102593521D01*
X165779418Y-102667767D01*
X165776707Y-102670654D01*
X165699698Y-102752660D01*
X165696943Y-102755502D01*
X164281977Y-104170469D01*
X164281969Y-104170476D01*
X163851658Y-104600787D01*
X163789346Y-104634813D01*
X163718531Y-104629748D01*
X163673468Y-104600787D01*
X154293770Y-95221089D01*
X154281384Y-95206677D01*
X154272851Y-95195082D01*
X154272846Y-95195077D01*
X154268508Y-95189182D01*
X154262930Y-95184443D01*
X154262927Y-95184440D01*
X154228232Y-95154965D01*
X154220716Y-95148035D01*
X154215021Y-95142340D01*
X154198736Y-95129456D01*
X154192749Y-95124719D01*
X154189345Y-95121928D01*
X154139297Y-95079409D01*
X154139295Y-95079408D01*
X154133715Y-95074667D01*
X154127199Y-95071339D01*
X154122150Y-95067972D01*
X154117021Y-95064805D01*
X154111284Y-95060266D01*
X154045125Y-95029345D01*
X154041225Y-95027439D01*
X153976192Y-94994231D01*
X153969084Y-94992492D01*
X153963441Y-94990393D01*
X153957678Y-94988476D01*
X153951050Y-94985378D01*
X153879583Y-94970513D01*
X153875299Y-94969543D01*
X153840958Y-94961140D01*
X153804390Y-94952192D01*
X153798788Y-94951844D01*
X153798785Y-94951844D01*
X153793236Y-94951500D01*
X153793238Y-94951464D01*
X153789245Y-94951225D01*
X153785053Y-94950851D01*
X153777885Y-94949360D01*
X153714120Y-94951085D01*
X153700479Y-94951454D01*
X153697072Y-94951500D01*
X146122070Y-94951500D01*
X146103120Y-94950067D01*
X146088885Y-94947901D01*
X146088881Y-94947901D01*
X146081651Y-94946801D01*
X146074359Y-94947394D01*
X146074356Y-94947394D01*
X146028982Y-94951085D01*
X146018767Y-94951500D01*
X146010707Y-94951500D01*
X145997417Y-94953049D01*
X145982493Y-94954789D01*
X145978118Y-94955222D01*
X145912661Y-94960546D01*
X145912658Y-94960547D01*
X145905363Y-94961140D01*
X145898399Y-94963396D01*
X145892440Y-94964587D01*
X145886585Y-94965971D01*
X145879319Y-94966818D01*
X145810673Y-94991735D01*
X145806545Y-94993152D01*
X145744064Y-95013393D01*
X145744062Y-95013394D01*
X145737101Y-95015649D01*
X145730846Y-95019445D01*
X145725372Y-95021951D01*
X145719942Y-95024670D01*
X145713063Y-95027167D01*
X145706943Y-95031180D01*
X145706942Y-95031180D01*
X145652024Y-95067186D01*
X145648320Y-95069523D01*
X145585893Y-95107405D01*
X145577516Y-95114803D01*
X145577492Y-95114776D01*
X145574500Y-95117429D01*
X145571267Y-95120132D01*
X145565148Y-95124144D01*
X145535951Y-95154965D01*
X145511872Y-95180383D01*
X145509494Y-95182825D01*
X141587565Y-99104754D01*
X141525253Y-99138780D01*
X141454438Y-99133715D01*
X141397602Y-99091168D01*
X141372791Y-99024648D01*
X141373774Y-98997581D01*
X141375587Y-98985077D01*
X141376217Y-98977689D01*
X141377500Y-98928704D01*
X141377257Y-98921305D01*
X141360082Y-98734378D01*
X141357985Y-98723064D01*
X141307591Y-98544383D01*
X141303469Y-98533644D01*
X141227954Y-98380515D01*
X141218407Y-98370138D01*
X141211974Y-98372236D01*
X139754498Y-99829712D01*
X139748302Y-99841059D01*
X139758184Y-99853548D01*
X139781009Y-99868799D01*
X139791123Y-99874291D01*
X139961697Y-99947576D01*
X139972640Y-99951131D01*
X140153708Y-99992103D01*
X140165118Y-99993605D01*
X140350629Y-100000893D01*
X140362115Y-100000291D01*
X140372581Y-99998774D01*
X140442867Y-100008795D01*
X140496577Y-100055225D01*
X140516659Y-100123322D01*
X140496737Y-100191466D01*
X140479754Y-100212565D01*
X140338565Y-100353754D01*
X140276253Y-100387780D01*
X140247822Y-100390648D01*
X140236528Y-100390500D01*
X140215413Y-100390224D01*
X140209716Y-100391203D01*
X140209715Y-100391203D01*
X140193822Y-100393934D01*
X140020967Y-100423636D01*
X139835866Y-100491924D01*
X139666309Y-100592800D01*
X139572313Y-100675233D01*
X139507911Y-100705109D01*
X139489237Y-100706500D01*
X133170353Y-100706500D01*
X133102232Y-100686498D01*
X133084824Y-100673025D01*
X133020546Y-100613607D01*
X133020544Y-100613605D01*
X133016305Y-100609687D01*
X132849447Y-100504407D01*
X132666197Y-100431297D01*
X132660529Y-100430170D01*
X132660527Y-100430169D01*
X132478360Y-100393934D01*
X132478356Y-100393934D01*
X132472692Y-100392807D01*
X132466917Y-100392731D01*
X132466913Y-100392731D01*
X132368267Y-100391440D01*
X132275413Y-100390224D01*
X132269716Y-100391203D01*
X132269715Y-100391203D01*
X132253822Y-100393934D01*
X132080967Y-100423636D01*
X131895866Y-100491924D01*
X131890905Y-100494876D01*
X131890904Y-100494876D01*
X131731277Y-100589844D01*
X131731274Y-100589846D01*
X131726309Y-100592800D01*
X131721969Y-100596606D01*
X131721965Y-100596609D01*
X131582316Y-100719079D01*
X131577975Y-100722886D01*
X131455830Y-100877825D01*
X131363966Y-101052429D01*
X131305460Y-101240851D01*
X131282270Y-101436779D01*
X131295174Y-101633652D01*
X131343739Y-101824877D01*
X131426339Y-102004049D01*
X131540207Y-102165169D01*
X131567666Y-102191918D01*
X131636779Y-102259245D01*
X131681530Y-102302840D01*
X131686326Y-102306045D01*
X131686329Y-102306047D01*
X131751809Y-102349799D01*
X131845576Y-102412452D01*
X131850879Y-102414730D01*
X131850882Y-102414732D01*
X131978787Y-102469684D01*
X132026849Y-102490333D01*
X132120185Y-102511453D01*
X132213644Y-102532601D01*
X132213647Y-102532601D01*
X132219280Y-102533876D01*
X132225051Y-102534103D01*
X132225053Y-102534103D01*
X132284054Y-102536421D01*
X132416423Y-102541622D01*
X132531789Y-102524894D01*
X132605955Y-102514141D01*
X132605959Y-102514140D01*
X132611677Y-102513311D01*
X132617149Y-102511453D01*
X132617151Y-102511453D01*
X132793038Y-102451747D01*
X132793040Y-102451746D01*
X132798502Y-102449892D01*
X132970642Y-102353490D01*
X133091917Y-102252626D01*
X133157081Y-102224445D01*
X133172487Y-102223500D01*
X139488858Y-102223500D01*
X139556979Y-102243502D01*
X139576776Y-102259242D01*
X139621530Y-102302840D01*
X139626330Y-102306047D01*
X139626334Y-102306050D01*
X139667109Y-102333295D01*
X139785576Y-102412452D01*
X139790879Y-102414730D01*
X139790882Y-102414732D01*
X139918787Y-102469684D01*
X139966849Y-102490333D01*
X140060185Y-102511453D01*
X140153644Y-102532601D01*
X140153647Y-102532601D01*
X140159280Y-102533876D01*
X140165051Y-102534103D01*
X140165053Y-102534103D01*
X140224054Y-102536421D01*
X140356423Y-102541622D01*
X140471789Y-102524894D01*
X140545955Y-102514141D01*
X140545959Y-102514140D01*
X140551677Y-102513311D01*
X140557149Y-102511453D01*
X140557151Y-102511453D01*
X140733038Y-102451747D01*
X140733040Y-102451746D01*
X140738502Y-102449892D01*
X140910642Y-102353490D01*
X140933158Y-102334764D01*
X141057899Y-102231017D01*
X141062331Y-102227331D01*
X141188490Y-102075642D01*
X141193612Y-102066497D01*
X141221290Y-102017073D01*
X141284892Y-101903502D01*
X141348311Y-101716677D01*
X141376622Y-101521423D01*
X141376929Y-101509690D01*
X141398706Y-101442115D01*
X141413791Y-101423890D01*
X146332276Y-96505405D01*
X146394588Y-96471379D01*
X146421371Y-96468500D01*
X153343629Y-96468500D01*
X153411750Y-96488502D01*
X153432724Y-96505405D01*
X162600787Y-105673468D01*
X162634813Y-105735780D01*
X162629748Y-105806595D01*
X162600787Y-105851658D01*
X161125516Y-107326930D01*
X161122675Y-107329684D01*
X161037767Y-107409418D01*
X160990892Y-107466081D01*
X160963544Y-107499139D01*
X160960984Y-107502136D01*
X160938192Y-107527988D01*
X160886601Y-107586505D01*
X160886596Y-107586511D01*
X160883977Y-107589482D01*
X160868847Y-107611745D01*
X160865107Y-107617249D01*
X160857980Y-107626741D01*
X160839099Y-107649565D01*
X160836568Y-107652625D01*
X160775437Y-107748952D01*
X160774176Y-107750939D01*
X160772008Y-107754239D01*
X160768352Y-107759620D01*
X160768253Y-107759765D01*
X160713421Y-107804864D01*
X160642910Y-107813159D01*
X160611698Y-107803556D01*
X160558308Y-107779173D01*
X160558302Y-107779171D01*
X160554210Y-107777302D01*
X160530456Y-107770327D01*
X160490412Y-107758569D01*
X160490408Y-107758568D01*
X160486089Y-107757300D01*
X160481640Y-107756660D01*
X160481634Y-107756659D01*
X160345867Y-107737139D01*
X160345862Y-107737139D01*
X160341420Y-107736500D01*
X153639500Y-107736500D01*
X153571379Y-107716498D01*
X153524886Y-107662842D01*
X153513500Y-107610500D01*
X153513500Y-99876000D01*
X153513022Y-99871553D01*
X153502128Y-99770215D01*
X153502127Y-99770208D01*
X153501766Y-99766851D01*
X153501048Y-99763550D01*
X153491094Y-99717790D01*
X153491093Y-99717785D01*
X153490380Y-99714509D01*
X153455710Y-99610343D01*
X153376692Y-99487388D01*
X153361314Y-99469640D01*
X153333139Y-99437125D01*
X153330199Y-99433732D01*
X153320933Y-99425703D01*
X153226550Y-99343919D01*
X153226547Y-99343917D01*
X153219739Y-99338018D01*
X153086790Y-99277302D01*
X153063036Y-99270327D01*
X153022992Y-99258569D01*
X153022988Y-99258568D01*
X153018669Y-99257300D01*
X153014220Y-99256660D01*
X153014214Y-99256659D01*
X152878447Y-99237139D01*
X152878442Y-99237139D01*
X152874000Y-99236500D01*
X145126000Y-99236500D01*
X145122654Y-99236860D01*
X145122649Y-99236860D01*
X145020215Y-99247872D01*
X145020208Y-99247873D01*
X145016851Y-99248234D01*
X145013551Y-99248952D01*
X145013550Y-99248952D01*
X144967790Y-99258906D01*
X144967785Y-99258907D01*
X144964509Y-99259620D01*
X144905768Y-99279171D01*
X144873365Y-99289956D01*
X144860343Y-99294290D01*
X144737388Y-99373308D01*
X144683732Y-99419801D01*
X144680792Y-99423194D01*
X144593919Y-99523450D01*
X144593917Y-99523453D01*
X144588018Y-99530261D01*
X144527302Y-99663210D01*
X144507300Y-99731331D01*
X144506660Y-99735780D01*
X144506659Y-99735786D01*
X144487139Y-99871553D01*
X144486500Y-99876000D01*
X144486500Y-107610500D01*
X144466498Y-107678621D01*
X144412842Y-107725114D01*
X144360500Y-107736500D01*
X141255240Y-107736500D01*
X141187119Y-107716498D01*
X141140626Y-107662842D01*
X141130522Y-107592568D01*
X141160016Y-107527988D01*
X141179675Y-107509674D01*
X141189715Y-107502150D01*
X141228261Y-107473261D01*
X141315615Y-107356705D01*
X141366745Y-107220316D01*
X141373500Y-107158134D01*
X141373500Y-105931866D01*
X141366745Y-105869684D01*
X141315615Y-105733295D01*
X141228261Y-105616739D01*
X141111705Y-105529385D01*
X140975316Y-105478255D01*
X140919440Y-105472185D01*
X140916531Y-105471869D01*
X140913134Y-105471500D01*
X139686866Y-105471500D01*
X139683469Y-105471869D01*
X139680560Y-105472185D01*
X139624684Y-105478255D01*
X139488295Y-105529385D01*
X139371739Y-105616739D01*
X139284385Y-105733295D01*
X139233255Y-105869684D01*
X139226500Y-105931866D01*
X139226500Y-107158134D01*
X139233255Y-107220316D01*
X139284385Y-107356705D01*
X139371739Y-107473261D01*
X139410286Y-107502150D01*
X139420325Y-107509674D01*
X139462840Y-107566533D01*
X139467866Y-107637351D01*
X139433806Y-107699645D01*
X139371475Y-107733635D01*
X139344760Y-107736500D01*
X137376000Y-107736500D01*
X137372654Y-107736860D01*
X137372649Y-107736860D01*
X137270215Y-107747872D01*
X137270208Y-107747873D01*
X137266851Y-107748234D01*
X137263551Y-107748952D01*
X137263550Y-107748952D01*
X137217790Y-107758906D01*
X137217785Y-107758907D01*
X137214509Y-107759620D01*
X137110343Y-107794290D01*
X136987388Y-107873308D01*
X136933732Y-107919801D01*
X136930792Y-107923194D01*
X136843919Y-108023450D01*
X136843917Y-108023453D01*
X136838018Y-108030261D01*
X136777302Y-108163210D01*
X136757300Y-108231331D01*
X136736500Y-108376000D01*
X136736500Y-111364255D01*
X136716498Y-111432376D01*
X136662842Y-111478869D01*
X136592568Y-111488973D01*
X136527988Y-111459479D01*
X136521405Y-111453350D01*
X135303570Y-110235516D01*
X135300815Y-110232674D01*
X135239410Y-110167284D01*
X135221082Y-110147767D01*
X135131347Y-110073532D01*
X135128350Y-110070972D01*
X135120123Y-110063718D01*
X135076578Y-110025328D01*
X135043995Y-109996601D01*
X135043989Y-109996596D01*
X135041018Y-109993977D01*
X135013246Y-109975103D01*
X135003759Y-109967980D01*
X134980935Y-109949099D01*
X134980930Y-109949096D01*
X134977875Y-109946568D01*
X134879553Y-109884171D01*
X134876253Y-109882003D01*
X134783237Y-109818789D01*
X134783232Y-109818786D01*
X134779955Y-109816559D01*
X134776429Y-109814763D01*
X134776425Y-109814760D01*
X134765532Y-109809210D01*
X134750031Y-109801312D01*
X134739726Y-109795434D01*
X134714713Y-109779560D01*
X134714711Y-109779559D01*
X134711369Y-109777438D01*
X134606015Y-109727863D01*
X134602469Y-109726126D01*
X134502234Y-109675053D01*
X134502227Y-109675050D01*
X134498716Y-109673261D01*
X134495001Y-109671924D01*
X134494993Y-109671920D01*
X134467121Y-109661885D01*
X134456157Y-109657344D01*
X134429348Y-109644729D01*
X134429341Y-109644726D01*
X134425766Y-109643044D01*
X134315007Y-109607056D01*
X134311345Y-109605803D01*
X134201733Y-109566340D01*
X134168956Y-109559014D01*
X134157507Y-109555881D01*
X134129343Y-109546730D01*
X134129339Y-109546729D01*
X134125572Y-109545505D01*
X134035032Y-109528234D01*
X134011188Y-109523685D01*
X134007364Y-109522894D01*
X133893692Y-109497485D01*
X133860262Y-109494325D01*
X133848510Y-109492652D01*
X133819418Y-109487102D01*
X133819409Y-109487101D01*
X133815520Y-109486359D01*
X133699307Y-109479048D01*
X133695415Y-109478743D01*
X133579449Y-109467780D01*
X133575498Y-109467904D01*
X133575492Y-109467904D01*
X133463055Y-109471438D01*
X133459097Y-109471500D01*
X133244500Y-109471500D01*
X133176379Y-109451498D01*
X133129886Y-109397842D01*
X133118500Y-109345500D01*
X133118500Y-107357487D01*
X133138502Y-107289366D01*
X133147626Y-107276917D01*
X133170677Y-107249202D01*
X133248490Y-107155642D01*
X133344892Y-106983502D01*
X133366114Y-106920986D01*
X133406453Y-106802151D01*
X133406453Y-106802149D01*
X133408311Y-106796677D01*
X133436622Y-106601423D01*
X133438099Y-106545000D01*
X133420046Y-106348532D01*
X133366492Y-106158644D01*
X133279231Y-105981695D01*
X133244574Y-105935283D01*
X133164637Y-105828235D01*
X133164636Y-105828234D01*
X133161184Y-105823611D01*
X133142776Y-105806595D01*
X133020546Y-105693607D01*
X133020544Y-105693605D01*
X133016305Y-105689687D01*
X132849447Y-105584407D01*
X132666197Y-105511297D01*
X132660529Y-105510170D01*
X132660527Y-105510169D01*
X132478360Y-105473934D01*
X132478356Y-105473934D01*
X132472692Y-105472807D01*
X132466916Y-105472731D01*
X132466913Y-105472731D01*
X132429520Y-105472242D01*
X132410220Y-105471989D01*
X132342368Y-105451097D01*
X132322776Y-105435095D01*
X132178654Y-105290973D01*
X132144628Y-105228661D01*
X132149693Y-105157846D01*
X132192240Y-105101010D01*
X132258760Y-105076199D01*
X132272696Y-105075975D01*
X132323908Y-105077987D01*
X132416423Y-105081622D01*
X132531789Y-105064894D01*
X132605955Y-105054141D01*
X132605959Y-105054140D01*
X132611677Y-105053311D01*
X132617149Y-105051453D01*
X132617151Y-105051453D01*
X132793038Y-104991747D01*
X132793040Y-104991746D01*
X132798502Y-104989892D01*
X132970642Y-104893490D01*
X133122331Y-104767331D01*
X133248490Y-104615642D01*
X133256967Y-104600506D01*
X133285316Y-104549884D01*
X133344892Y-104443502D01*
X133393143Y-104301362D01*
X133406453Y-104262151D01*
X133406453Y-104262149D01*
X133408311Y-104256677D01*
X133411552Y-104234329D01*
X133427040Y-104127507D01*
X133436622Y-104061423D01*
X133438099Y-104005000D01*
X133435506Y-103976779D01*
X139222270Y-103976779D01*
X139235174Y-104173652D01*
X139283739Y-104364877D01*
X139366339Y-104544049D01*
X139480207Y-104705169D01*
X139621530Y-104842840D01*
X139626326Y-104846045D01*
X139626329Y-104846047D01*
X139691809Y-104889799D01*
X139785576Y-104952452D01*
X139790879Y-104954730D01*
X139790882Y-104954732D01*
X139961542Y-105028053D01*
X139966849Y-105030333D01*
X140060185Y-105051453D01*
X140153644Y-105072601D01*
X140153647Y-105072601D01*
X140159280Y-105073876D01*
X140165051Y-105074103D01*
X140165053Y-105074103D01*
X140224054Y-105076421D01*
X140356423Y-105081622D01*
X140471789Y-105064894D01*
X140545955Y-105054141D01*
X140545959Y-105054140D01*
X140551677Y-105053311D01*
X140557149Y-105051453D01*
X140557151Y-105051453D01*
X140733038Y-104991747D01*
X140733040Y-104991746D01*
X140738502Y-104989892D01*
X140910642Y-104893490D01*
X141062331Y-104767331D01*
X141188490Y-104615642D01*
X141196967Y-104600506D01*
X141225316Y-104549884D01*
X141284892Y-104443502D01*
X141333143Y-104301362D01*
X141346453Y-104262151D01*
X141346453Y-104262149D01*
X141348311Y-104256677D01*
X141351552Y-104234329D01*
X141367040Y-104127507D01*
X141376622Y-104061423D01*
X141378099Y-104005000D01*
X141360046Y-103808532D01*
X141351358Y-103777724D01*
X141308060Y-103624203D01*
X141308059Y-103624201D01*
X141306492Y-103618644D01*
X141296286Y-103597947D01*
X141221786Y-103446876D01*
X141219231Y-103441695D01*
X141201407Y-103417825D01*
X141104637Y-103288235D01*
X141104636Y-103288234D01*
X141101184Y-103283611D01*
X141078764Y-103262886D01*
X140960546Y-103153607D01*
X140960544Y-103153605D01*
X140956305Y-103149687D01*
X140789447Y-103044407D01*
X140606197Y-102971297D01*
X140600529Y-102970170D01*
X140600527Y-102970169D01*
X140418360Y-102933934D01*
X140418356Y-102933934D01*
X140412692Y-102932807D01*
X140406917Y-102932731D01*
X140406913Y-102932731D01*
X140308267Y-102931440D01*
X140215413Y-102930224D01*
X140209716Y-102931203D01*
X140209715Y-102931203D01*
X140193822Y-102933934D01*
X140020967Y-102963636D01*
X139835866Y-103031924D01*
X139830905Y-103034876D01*
X139830904Y-103034876D01*
X139671277Y-103129844D01*
X139671274Y-103129846D01*
X139666309Y-103132800D01*
X139661969Y-103136606D01*
X139661965Y-103136609D01*
X139650566Y-103146606D01*
X139517975Y-103262886D01*
X139395830Y-103417825D01*
X139393141Y-103422936D01*
X139393139Y-103422939D01*
X139383271Y-103441695D01*
X139303966Y-103592429D01*
X139245460Y-103780851D01*
X139222270Y-103976779D01*
X133435506Y-103976779D01*
X133420046Y-103808532D01*
X133411358Y-103777724D01*
X133368060Y-103624203D01*
X133368059Y-103624201D01*
X133366492Y-103618644D01*
X133356286Y-103597947D01*
X133281786Y-103446876D01*
X133279231Y-103441695D01*
X133261407Y-103417825D01*
X133164637Y-103288235D01*
X133164636Y-103288234D01*
X133161184Y-103283611D01*
X133138764Y-103262886D01*
X133020546Y-103153607D01*
X133020544Y-103153605D01*
X133016305Y-103149687D01*
X132849447Y-103044407D01*
X132666197Y-102971297D01*
X132660529Y-102970170D01*
X132660527Y-102970169D01*
X132478360Y-102933934D01*
X132478356Y-102933934D01*
X132472692Y-102932807D01*
X132466917Y-102932731D01*
X132466913Y-102932731D01*
X132368267Y-102931440D01*
X132275413Y-102930224D01*
X132269716Y-102931203D01*
X132269715Y-102931203D01*
X132253822Y-102933934D01*
X132080967Y-102963636D01*
X131895866Y-103031924D01*
X131890905Y-103034876D01*
X131890904Y-103034876D01*
X131731277Y-103129844D01*
X131731274Y-103129846D01*
X131726309Y-103132800D01*
X131721969Y-103136606D01*
X131721965Y-103136609D01*
X131710566Y-103146606D01*
X131577975Y-103262886D01*
X131455830Y-103417825D01*
X131453141Y-103422936D01*
X131453139Y-103422939D01*
X131443271Y-103441695D01*
X131363966Y-103592429D01*
X131305460Y-103780851D01*
X131282270Y-103976779D01*
X131282648Y-103982545D01*
X131282648Y-103982546D01*
X131289680Y-104089839D01*
X131274176Y-104159122D01*
X131223676Y-104209024D01*
X131154213Y-104223702D01*
X131087842Y-104198496D01*
X131074855Y-104187174D01*
X130665405Y-103777724D01*
X130631379Y-103715412D01*
X130628500Y-103688629D01*
X130628500Y-97326371D01*
X130648502Y-97258250D01*
X130665405Y-97237276D01*
X131968376Y-95934305D01*
X132030688Y-95900279D01*
X132101503Y-95905344D01*
X132146489Y-95934228D01*
X132216512Y-96004130D01*
X132216517Y-96004134D01*
X132221697Y-96009305D01*
X132227927Y-96013145D01*
X132227928Y-96013146D01*
X132365288Y-96097816D01*
X132372262Y-96102115D01*
X132452005Y-96128564D01*
X132533611Y-96155632D01*
X132533613Y-96155632D01*
X132540139Y-96157797D01*
X132546975Y-96158497D01*
X132546978Y-96158498D01*
X132590031Y-96162909D01*
X132644600Y-96168500D01*
X133270400Y-96168500D01*
X133273646Y-96168163D01*
X133273650Y-96168163D01*
X133369308Y-96158238D01*
X133369312Y-96158237D01*
X133376166Y-96157526D01*
X133382702Y-96155345D01*
X133382704Y-96155345D01*
X133514806Y-96111272D01*
X133543946Y-96101550D01*
X133694348Y-96008478D01*
X133780784Y-95921891D01*
X133843066Y-95887812D01*
X133913886Y-95892815D01*
X133958975Y-95921736D01*
X133987018Y-95949730D01*
X134021097Y-96012012D01*
X134024000Y-96038903D01*
X134024000Y-96181129D01*
X134003998Y-96249250D01*
X133987095Y-96270224D01*
X133983780Y-96273539D01*
X133963771Y-96289815D01*
X133922047Y-96317171D01*
X133918327Y-96319519D01*
X133860686Y-96354496D01*
X133860682Y-96354499D01*
X133855893Y-96357405D01*
X133851694Y-96361114D01*
X133851689Y-96361117D01*
X133847516Y-96364803D01*
X133847492Y-96364776D01*
X133844500Y-96367429D01*
X133841267Y-96370132D01*
X133835148Y-96374144D01*
X133813355Y-96397149D01*
X133781872Y-96430383D01*
X133779494Y-96432825D01*
X132398565Y-97813754D01*
X132336253Y-97847780D01*
X132307822Y-97850648D01*
X132296528Y-97850500D01*
X132275413Y-97850224D01*
X132269716Y-97851203D01*
X132269715Y-97851203D01*
X132257919Y-97853230D01*
X132080967Y-97883636D01*
X131895866Y-97951924D01*
X131890905Y-97954876D01*
X131890904Y-97954876D01*
X131731277Y-98049844D01*
X131731274Y-98049846D01*
X131726309Y-98052800D01*
X131721969Y-98056606D01*
X131721965Y-98056609D01*
X131582316Y-98179079D01*
X131577975Y-98182886D01*
X131455830Y-98337825D01*
X131453141Y-98342936D01*
X131453139Y-98342939D01*
X131406732Y-98431144D01*
X131363966Y-98512429D01*
X131305460Y-98700851D01*
X131282270Y-98896779D01*
X131295174Y-99093652D01*
X131343739Y-99284877D01*
X131426339Y-99464049D01*
X131540207Y-99625169D01*
X131681530Y-99762840D01*
X131686326Y-99766045D01*
X131686329Y-99766047D01*
X131692567Y-99770215D01*
X131845576Y-99872452D01*
X131850879Y-99874730D01*
X131850882Y-99874732D01*
X132020432Y-99947576D01*
X132026849Y-99950333D01*
X132120185Y-99971453D01*
X132213644Y-99992601D01*
X132213647Y-99992601D01*
X132219280Y-99993876D01*
X132225051Y-99994103D01*
X132225053Y-99994103D01*
X132284054Y-99996421D01*
X132416423Y-100001622D01*
X132531789Y-99984894D01*
X132605955Y-99974141D01*
X132605959Y-99974140D01*
X132611677Y-99973311D01*
X132617149Y-99971453D01*
X132617151Y-99971453D01*
X132793038Y-99911747D01*
X132793040Y-99911746D01*
X132798502Y-99909892D01*
X132917578Y-99843207D01*
X132965605Y-99816311D01*
X132965606Y-99816310D01*
X132970642Y-99813490D01*
X133122331Y-99687331D01*
X133248490Y-99535642D01*
X133251504Y-99530261D01*
X133284691Y-99470999D01*
X133344892Y-99363502D01*
X133368387Y-99294290D01*
X133406453Y-99182151D01*
X133406453Y-99182149D01*
X133408311Y-99176677D01*
X133436622Y-98981423D01*
X133436929Y-98969690D01*
X133458563Y-98902558D01*
X139223150Y-98902558D01*
X139235292Y-99087805D01*
X139237093Y-99099175D01*
X139282789Y-99279107D01*
X139286631Y-99289956D01*
X139364358Y-99458557D01*
X139370105Y-99468511D01*
X139370902Y-99469640D01*
X139381490Y-99478027D01*
X139394791Y-99470999D01*
X139927978Y-98937812D01*
X139935592Y-98923868D01*
X139935461Y-98922035D01*
X139931210Y-98915420D01*
X139394459Y-98378669D01*
X139382079Y-98371909D01*
X139376113Y-98376375D01*
X139307122Y-98507505D01*
X139302717Y-98518139D01*
X139247664Y-98695438D01*
X139245272Y-98706692D01*
X139223451Y-98891057D01*
X139223150Y-98902558D01*
X133458563Y-98902558D01*
X133458706Y-98902115D01*
X133473791Y-98883890D01*
X134348470Y-98009211D01*
X139748323Y-98009211D01*
X139751810Y-98017600D01*
X140287188Y-98552978D01*
X140301132Y-98560592D01*
X140302965Y-98560461D01*
X140309580Y-98556210D01*
X140844905Y-98020885D01*
X140851665Y-98008505D01*
X140845635Y-98000450D01*
X140794102Y-97967935D01*
X140783855Y-97962714D01*
X140611423Y-97893921D01*
X140600386Y-97890652D01*
X140418306Y-97854433D01*
X140406861Y-97853230D01*
X140221235Y-97850801D01*
X140209755Y-97851704D01*
X140026794Y-97883142D01*
X140015674Y-97886122D01*
X139841498Y-97950379D01*
X139831124Y-97955327D01*
X139757921Y-97998878D01*
X139748323Y-98009211D01*
X134348470Y-98009211D01*
X134711220Y-97646461D01*
X134731230Y-97630184D01*
X134772976Y-97602814D01*
X134776680Y-97600477D01*
X134839107Y-97562595D01*
X134847484Y-97555197D01*
X134847508Y-97555224D01*
X134850500Y-97552571D01*
X134853733Y-97549868D01*
X134859852Y-97545856D01*
X134913128Y-97489617D01*
X134915506Y-97487175D01*
X135271411Y-97131270D01*
X135285823Y-97118884D01*
X135297418Y-97110351D01*
X135297423Y-97110346D01*
X135303318Y-97106008D01*
X135308057Y-97100430D01*
X135308060Y-97100427D01*
X135337535Y-97065732D01*
X135344465Y-97058216D01*
X135350160Y-97052521D01*
X135367781Y-97030249D01*
X135370572Y-97026845D01*
X135413091Y-96976797D01*
X135413092Y-96976795D01*
X135417833Y-96971215D01*
X135421161Y-96964699D01*
X135424528Y-96959650D01*
X135427695Y-96954521D01*
X135432234Y-96948784D01*
X135463155Y-96882625D01*
X135465061Y-96878725D01*
X135466062Y-96876764D01*
X135498269Y-96813692D01*
X135500008Y-96806584D01*
X135502107Y-96800941D01*
X135504024Y-96795178D01*
X135507122Y-96788550D01*
X135521987Y-96717083D01*
X135522957Y-96712799D01*
X135538973Y-96647345D01*
X135540308Y-96641890D01*
X135541000Y-96630736D01*
X135541036Y-96630738D01*
X135541275Y-96626745D01*
X135541649Y-96622553D01*
X135543140Y-96615385D01*
X135541046Y-96537979D01*
X135541000Y-96534572D01*
X135541000Y-96038915D01*
X135561002Y-95970794D01*
X135577827Y-95949897D01*
X135639134Y-95888483D01*
X135644305Y-95883303D01*
X135708979Y-95778383D01*
X135761750Y-95730891D01*
X135816238Y-95718500D01*
X136423689Y-95718500D01*
X136491810Y-95738502D01*
X136530833Y-95778196D01*
X136596522Y-95884348D01*
X136721697Y-96009305D01*
X136727927Y-96013145D01*
X136727928Y-96013146D01*
X136865288Y-96097816D01*
X136872262Y-96102115D01*
X136952005Y-96128564D01*
X137033611Y-96155632D01*
X137033613Y-96155632D01*
X137040139Y-96157797D01*
X137046975Y-96158497D01*
X137046978Y-96158498D01*
X137090031Y-96162909D01*
X137144600Y-96168500D01*
X137770400Y-96168500D01*
X137773646Y-96168163D01*
X137773650Y-96168163D01*
X137869308Y-96158238D01*
X137869312Y-96158237D01*
X137876166Y-96157526D01*
X137882702Y-96155345D01*
X137882704Y-96155345D01*
X138014806Y-96111272D01*
X138043946Y-96101550D01*
X138194348Y-96008478D01*
X138216140Y-95986648D01*
X138281138Y-95921537D01*
X138343421Y-95887458D01*
X138414241Y-95892461D01*
X138459329Y-95921382D01*
X138541829Y-96003739D01*
X138553240Y-96012751D01*
X138691243Y-96097816D01*
X138704424Y-96103963D01*
X138858710Y-96155138D01*
X138872086Y-96158005D01*
X138966438Y-96167672D01*
X138972854Y-96168000D01*
X139010385Y-96168000D01*
X139025624Y-96163525D01*
X139026829Y-96162135D01*
X139028500Y-96154452D01*
X139028500Y-96149884D01*
X139536500Y-96149884D01*
X139540975Y-96165123D01*
X139542365Y-96166328D01*
X139550048Y-96167999D01*
X139592095Y-96167999D01*
X139598614Y-96167662D01*
X139694206Y-96157743D01*
X139707600Y-96154851D01*
X139861784Y-96103412D01*
X139874962Y-96097239D01*
X140012807Y-96011937D01*
X140024208Y-96002901D01*
X140138739Y-95888171D01*
X140147751Y-95876760D01*
X140232816Y-95738757D01*
X140238963Y-95725576D01*
X140290138Y-95571290D01*
X140293005Y-95557914D01*
X140302672Y-95463562D01*
X140303000Y-95457146D01*
X140303000Y-95232115D01*
X140298525Y-95216876D01*
X140297135Y-95215671D01*
X140289452Y-95214000D01*
X139554615Y-95214000D01*
X139539376Y-95218475D01*
X139538171Y-95219865D01*
X139536500Y-95227548D01*
X139536500Y-96149884D01*
X139028500Y-96149884D01*
X139028500Y-94687885D01*
X139536500Y-94687885D01*
X139540975Y-94703124D01*
X139542365Y-94704329D01*
X139550048Y-94706000D01*
X140284884Y-94706000D01*
X140300123Y-94701525D01*
X140301328Y-94700135D01*
X140302999Y-94692452D01*
X140302999Y-94462905D01*
X140302662Y-94456386D01*
X140292743Y-94360794D01*
X140289851Y-94347400D01*
X140238412Y-94193216D01*
X140232239Y-94180038D01*
X140146937Y-94042193D01*
X140137901Y-94030792D01*
X140023171Y-93916261D01*
X140011760Y-93907249D01*
X139873757Y-93822184D01*
X139860576Y-93816037D01*
X139706290Y-93764862D01*
X139692914Y-93761995D01*
X139598562Y-93752328D01*
X139592145Y-93752000D01*
X139554615Y-93752000D01*
X139539376Y-93756475D01*
X139538171Y-93757865D01*
X139536500Y-93765548D01*
X139536500Y-94687885D01*
X139028500Y-94687885D01*
X139028500Y-93770116D01*
X139024025Y-93754877D01*
X139022635Y-93753672D01*
X139014952Y-93752001D01*
X138972905Y-93752001D01*
X138966386Y-93752338D01*
X138870794Y-93762257D01*
X138857400Y-93765149D01*
X138703216Y-93816588D01*
X138690038Y-93822761D01*
X138552193Y-93908063D01*
X138540792Y-93917099D01*
X138459570Y-93998462D01*
X138397287Y-94032541D01*
X138326467Y-94027538D01*
X138281380Y-93998617D01*
X138198488Y-93915870D01*
X138198483Y-93915866D01*
X138193303Y-93910695D01*
X138135003Y-93874758D01*
X138048968Y-93821725D01*
X138048966Y-93821724D01*
X138042738Y-93817885D01*
X137962995Y-93791436D01*
X137881389Y-93764368D01*
X137881387Y-93764368D01*
X137874861Y-93762203D01*
X137868025Y-93761503D01*
X137868022Y-93761502D01*
X137824969Y-93757091D01*
X137770400Y-93751500D01*
X137144600Y-93751500D01*
X137141354Y-93751837D01*
X137141350Y-93751837D01*
X137045692Y-93761762D01*
X137045688Y-93761763D01*
X137038834Y-93762474D01*
X137032298Y-93764655D01*
X137032296Y-93764655D01*
X137015928Y-93770116D01*
X136871054Y-93818450D01*
X136720652Y-93911522D01*
X136595695Y-94036697D01*
X136591855Y-94042927D01*
X136591854Y-94042928D01*
X136531022Y-94141616D01*
X136478250Y-94189109D01*
X136423762Y-94201500D01*
X135816311Y-94201500D01*
X135748190Y-94181498D01*
X135709167Y-94141804D01*
X135695009Y-94118925D01*
X135643478Y-94035652D01*
X135518303Y-93910695D01*
X135460003Y-93874758D01*
X135373968Y-93821725D01*
X135373966Y-93821724D01*
X135367738Y-93817885D01*
X135287995Y-93791436D01*
X135206389Y-93764368D01*
X135206387Y-93764368D01*
X135199861Y-93762203D01*
X135193025Y-93761503D01*
X135193022Y-93761502D01*
X135149969Y-93757091D01*
X135095400Y-93751500D01*
X134469600Y-93751500D01*
X134466354Y-93751837D01*
X134466350Y-93751837D01*
X134370692Y-93761762D01*
X134370688Y-93761763D01*
X134363834Y-93762474D01*
X134357298Y-93764655D01*
X134357296Y-93764655D01*
X134340928Y-93770116D01*
X134196054Y-93818450D01*
X134045652Y-93911522D01*
X134040479Y-93916704D01*
X133959216Y-93998109D01*
X133896934Y-94032188D01*
X133826114Y-94027185D01*
X133781025Y-93998264D01*
X133698483Y-93915866D01*
X133693303Y-93910695D01*
X133635003Y-93874758D01*
X133548968Y-93821725D01*
X133548966Y-93821724D01*
X133542738Y-93817885D01*
X133462995Y-93791436D01*
X133381389Y-93764368D01*
X133381387Y-93764368D01*
X133374861Y-93762203D01*
X133368025Y-93761503D01*
X133368022Y-93761502D01*
X133324969Y-93757091D01*
X133270400Y-93751500D01*
X132644600Y-93751500D01*
X132641354Y-93751837D01*
X132641350Y-93751837D01*
X132545692Y-93761762D01*
X132545688Y-93761763D01*
X132538834Y-93762474D01*
X132532298Y-93764655D01*
X132532296Y-93764655D01*
X132515928Y-93770116D01*
X132371054Y-93818450D01*
X132220652Y-93911522D01*
X132095695Y-94036697D01*
X132091855Y-94042927D01*
X132091854Y-94042928D01*
X132032163Y-94139765D01*
X131979391Y-94187258D01*
X131911231Y-94197429D01*
X131911206Y-94198157D01*
X131907270Y-94198020D01*
X131905954Y-94198216D01*
X131904664Y-94198020D01*
X131896651Y-94196801D01*
X131889359Y-94197394D01*
X131889356Y-94197394D01*
X131843982Y-94201085D01*
X131833767Y-94201500D01*
X131825707Y-94201500D01*
X131812417Y-94203049D01*
X131797493Y-94204789D01*
X131793118Y-94205222D01*
X131727661Y-94210546D01*
X131727658Y-94210547D01*
X131720363Y-94211140D01*
X131713399Y-94213396D01*
X131707440Y-94214587D01*
X131701585Y-94215971D01*
X131694319Y-94216818D01*
X131625673Y-94241735D01*
X131621545Y-94243152D01*
X131559064Y-94263393D01*
X131559062Y-94263394D01*
X131552101Y-94265649D01*
X131545846Y-94269445D01*
X131540372Y-94271951D01*
X131534942Y-94274670D01*
X131528063Y-94277167D01*
X131521943Y-94281180D01*
X131521942Y-94281180D01*
X131467024Y-94317186D01*
X131463320Y-94319523D01*
X131400893Y-94357405D01*
X131392516Y-94364803D01*
X131392492Y-94364776D01*
X131389500Y-94367429D01*
X131386267Y-94370132D01*
X131380148Y-94374144D01*
X131375116Y-94379456D01*
X131326872Y-94430383D01*
X131324494Y-94432825D01*
X129381089Y-96376230D01*
X129366677Y-96388616D01*
X129355082Y-96397149D01*
X129355077Y-96397154D01*
X129349182Y-96401492D01*
X129344443Y-96407070D01*
X129344440Y-96407073D01*
X129314965Y-96441768D01*
X129308035Y-96449284D01*
X129302340Y-96454979D01*
X129300060Y-96457861D01*
X129284719Y-96477251D01*
X129281928Y-96480655D01*
X129239409Y-96530703D01*
X129234667Y-96536285D01*
X129231339Y-96542801D01*
X129227972Y-96547850D01*
X129224805Y-96552979D01*
X129220266Y-96558716D01*
X129189345Y-96624875D01*
X129187442Y-96628769D01*
X129154231Y-96693808D01*
X129152492Y-96700916D01*
X129150393Y-96706559D01*
X129148476Y-96712322D01*
X129145378Y-96718950D01*
X129143888Y-96726112D01*
X129143888Y-96726113D01*
X129130514Y-96790412D01*
X129129544Y-96794696D01*
X129112192Y-96865610D01*
X129111500Y-96876764D01*
X129111464Y-96876762D01*
X129111225Y-96880755D01*
X129110851Y-96884947D01*
X129109360Y-96892115D01*
X129109558Y-96899432D01*
X129111454Y-96969515D01*
X129111500Y-96972923D01*
X129111500Y-103987930D01*
X129110067Y-104006880D01*
X129109790Y-104008704D01*
X129106801Y-104028349D01*
X129107394Y-104035641D01*
X129107394Y-104035644D01*
X129111085Y-104081018D01*
X129111500Y-104091233D01*
X129111500Y-104099293D01*
X129111925Y-104102937D01*
X129114789Y-104127507D01*
X129115222Y-104131882D01*
X129119720Y-104187174D01*
X129121140Y-104204637D01*
X129123396Y-104211601D01*
X129124587Y-104217560D01*
X129125971Y-104223415D01*
X129126818Y-104230681D01*
X129151735Y-104299327D01*
X129153152Y-104303455D01*
X129175649Y-104372899D01*
X129179445Y-104379154D01*
X129181951Y-104384628D01*
X129184670Y-104390058D01*
X129187167Y-104396937D01*
X129191180Y-104403057D01*
X129191180Y-104403058D01*
X129227186Y-104457976D01*
X129229523Y-104461680D01*
X129267405Y-104524107D01*
X129271121Y-104528315D01*
X129271122Y-104528316D01*
X129274803Y-104532484D01*
X129274776Y-104532508D01*
X129277429Y-104535500D01*
X129280132Y-104538733D01*
X129284144Y-104544852D01*
X129289456Y-104549884D01*
X129340383Y-104598128D01*
X129342825Y-104600506D01*
X131250362Y-106508043D01*
X131284388Y-106570355D01*
X131286996Y-106588893D01*
X131295174Y-106713652D01*
X131343739Y-106904877D01*
X131426339Y-107084049D01*
X131540207Y-107245169D01*
X131544341Y-107249196D01*
X131544346Y-107249202D01*
X131563421Y-107267784D01*
X131598259Y-107329645D01*
X131601500Y-107358038D01*
X131601500Y-109345500D01*
X131581498Y-109413621D01*
X131527842Y-109460114D01*
X131475500Y-109471500D01*
X122561162Y-109471500D01*
X122324980Y-109486359D01*
X122014928Y-109545505D01*
X121973352Y-109559014D01*
X121923127Y-109575333D01*
X121884191Y-109581500D01*
X120215809Y-109581500D01*
X120176873Y-109575333D01*
X120126648Y-109559014D01*
X120085072Y-109545505D01*
X119775020Y-109486359D01*
X119538838Y-109471500D01*
X118981244Y-109471500D01*
X118913123Y-109451498D01*
X118892149Y-109434595D01*
X117415405Y-107957851D01*
X117381379Y-107895539D01*
X117378500Y-107868756D01*
X117378500Y-106966970D01*
X117398502Y-106898849D01*
X117452158Y-106852356D01*
X117522432Y-106842252D01*
X117548730Y-106848988D01*
X117627394Y-106878478D01*
X117642649Y-106882105D01*
X117693514Y-106887631D01*
X117700328Y-106888000D01*
X119187885Y-106888000D01*
X119203124Y-106883525D01*
X119204329Y-106882135D01*
X119206000Y-106874452D01*
X119206000Y-106869884D01*
X119714000Y-106869884D01*
X119718475Y-106885123D01*
X119719865Y-106886328D01*
X119727548Y-106887999D01*
X120876895Y-106887999D01*
X120876927Y-106888000D01*
X122367885Y-106888000D01*
X122383124Y-106883525D01*
X122384329Y-106882135D01*
X122386000Y-106874452D01*
X122386000Y-106869884D01*
X122894000Y-106869884D01*
X122898475Y-106885123D01*
X122899865Y-106886328D01*
X122907548Y-106887999D01*
X124399669Y-106887999D01*
X124406490Y-106887629D01*
X124457352Y-106882105D01*
X124472604Y-106878479D01*
X124593054Y-106833324D01*
X124608649Y-106824786D01*
X124710724Y-106748285D01*
X124723285Y-106735724D01*
X124799786Y-106633649D01*
X124808324Y-106618054D01*
X124853478Y-106497606D01*
X124857105Y-106482351D01*
X124862631Y-106431486D01*
X124863000Y-106424672D01*
X124863000Y-104762115D01*
X124858525Y-104746876D01*
X124857135Y-104745671D01*
X124849452Y-104744000D01*
X122912115Y-104744000D01*
X122896876Y-104748475D01*
X122895671Y-104749865D01*
X122894000Y-104757548D01*
X122894000Y-106869884D01*
X122386000Y-106869884D01*
X122386000Y-104762115D01*
X122381525Y-104746876D01*
X122380135Y-104745671D01*
X122372452Y-104744000D01*
X119732115Y-104744000D01*
X119716876Y-104748475D01*
X119715671Y-104749865D01*
X119714000Y-104757548D01*
X119714000Y-106869884D01*
X119206000Y-106869884D01*
X119206000Y-104217885D01*
X119714000Y-104217885D01*
X119718475Y-104233124D01*
X119719865Y-104234329D01*
X119727548Y-104236000D01*
X122367885Y-104236000D01*
X122383124Y-104231525D01*
X122384329Y-104230135D01*
X122386000Y-104222452D01*
X122386000Y-104217885D01*
X122894000Y-104217885D01*
X122898475Y-104233124D01*
X122899865Y-104234329D01*
X122907548Y-104236000D01*
X124844884Y-104236000D01*
X124860123Y-104231525D01*
X124861328Y-104230135D01*
X124862999Y-104222452D01*
X124862999Y-102555331D01*
X124862629Y-102548510D01*
X124857105Y-102497648D01*
X124853479Y-102482396D01*
X124808324Y-102361946D01*
X124799786Y-102346351D01*
X124723285Y-102244276D01*
X124710724Y-102231715D01*
X124608649Y-102155214D01*
X124593054Y-102146676D01*
X124472606Y-102101522D01*
X124457351Y-102097895D01*
X124406486Y-102092369D01*
X124399672Y-102092000D01*
X122912115Y-102092000D01*
X122896876Y-102096475D01*
X122895671Y-102097865D01*
X122894000Y-102105548D01*
X122894000Y-104217885D01*
X122386000Y-104217885D01*
X122386000Y-102110116D01*
X122381525Y-102094877D01*
X122380135Y-102093672D01*
X122372452Y-102092001D01*
X121223105Y-102092001D01*
X121223073Y-102092000D01*
X119732115Y-102092000D01*
X119716876Y-102096475D01*
X119715671Y-102097865D01*
X119714000Y-102105548D01*
X119714000Y-104217885D01*
X119206000Y-104217885D01*
X119206000Y-102110116D01*
X119201525Y-102094877D01*
X119200135Y-102093672D01*
X119192452Y-102092001D01*
X117700331Y-102092001D01*
X117693510Y-102092371D01*
X117642648Y-102097895D01*
X117627397Y-102101521D01*
X117548730Y-102131012D01*
X117477923Y-102136195D01*
X117415554Y-102102274D01*
X117381424Y-102040019D01*
X117378500Y-102013030D01*
X117378500Y-93681244D01*
X117398502Y-93613123D01*
X117415405Y-93592149D01*
X118809733Y-92197821D01*
X144791500Y-92197821D01*
X144831060Y-92510975D01*
X144909557Y-92816702D01*
X145025753Y-93110179D01*
X145177816Y-93386779D01*
X145363346Y-93642140D01*
X145579418Y-93872233D01*
X145582469Y-93874757D01*
X145582470Y-93874758D01*
X145633174Y-93916704D01*
X145822625Y-94073432D01*
X146089131Y-94242562D01*
X146092710Y-94244246D01*
X146092717Y-94244250D01*
X146371144Y-94375267D01*
X146371148Y-94375269D01*
X146374734Y-94376956D01*
X146674928Y-94474495D01*
X146984980Y-94533641D01*
X147221162Y-94548500D01*
X148915756Y-94548500D01*
X148927615Y-94549059D01*
X148961051Y-94552220D01*
X148965002Y-94552096D01*
X148965006Y-94552096D01*
X148977146Y-94551714D01*
X148996056Y-94551120D01*
X149003948Y-94551120D01*
X149020839Y-94551651D01*
X149034993Y-94552096D01*
X149034998Y-94552096D01*
X149038949Y-94552220D01*
X149072388Y-94549059D01*
X149084246Y-94548500D01*
X150778838Y-94548500D01*
X151015020Y-94533641D01*
X151325072Y-94474495D01*
X151625266Y-94376956D01*
X151628852Y-94375269D01*
X151628856Y-94375267D01*
X151907283Y-94244250D01*
X151907290Y-94244246D01*
X151910869Y-94242562D01*
X152177375Y-94073432D01*
X152366826Y-93916704D01*
X152417530Y-93874758D01*
X152417531Y-93874757D01*
X152420582Y-93872233D01*
X152636654Y-93642140D01*
X152822184Y-93386779D01*
X152974247Y-93110179D01*
X153090443Y-92816702D01*
X153168940Y-92510975D01*
X153208500Y-92197821D01*
X153208500Y-91882179D01*
X153168940Y-91569025D01*
X153090443Y-91263298D01*
X153005787Y-91049482D01*
X152975702Y-90973495D01*
X152975700Y-90973490D01*
X152974247Y-90969821D01*
X152969210Y-90960658D01*
X152824093Y-90696693D01*
X152824091Y-90696690D01*
X152822184Y-90693221D01*
X152636654Y-90437860D01*
X152420582Y-90207767D01*
X152177375Y-90006568D01*
X151910869Y-89837438D01*
X151907290Y-89835754D01*
X151907283Y-89835750D01*
X151731299Y-89752939D01*
X151625266Y-89703044D01*
X151621513Y-89701825D01*
X151621504Y-89701821D01*
X151595564Y-89693393D01*
X151536958Y-89653320D01*
X151522737Y-89619669D01*
X170687001Y-89619669D01*
X170687371Y-89626490D01*
X170692895Y-89677352D01*
X170696521Y-89692604D01*
X170741676Y-89813054D01*
X170750214Y-89828649D01*
X170826715Y-89930724D01*
X170839276Y-89943285D01*
X170941351Y-90019786D01*
X170956946Y-90028324D01*
X171077394Y-90073478D01*
X171092649Y-90077105D01*
X171143514Y-90082631D01*
X171150328Y-90083000D01*
X172637885Y-90083000D01*
X172653124Y-90078525D01*
X172654329Y-90077135D01*
X172656000Y-90069452D01*
X172656000Y-90064884D01*
X173164000Y-90064884D01*
X173168475Y-90080123D01*
X173169865Y-90081328D01*
X173177548Y-90082999D01*
X174326895Y-90082999D01*
X174326927Y-90083000D01*
X175817885Y-90083000D01*
X175833124Y-90078525D01*
X175834329Y-90077135D01*
X175836000Y-90069452D01*
X175836000Y-90064884D01*
X176344000Y-90064884D01*
X176348475Y-90080123D01*
X176349865Y-90081328D01*
X176357548Y-90082999D01*
X177849669Y-90082999D01*
X177856490Y-90082629D01*
X177907352Y-90077105D01*
X177922604Y-90073479D01*
X178043054Y-90028324D01*
X178058649Y-90019786D01*
X178160724Y-89943285D01*
X178173285Y-89930724D01*
X178249786Y-89828649D01*
X178258324Y-89813054D01*
X178303478Y-89692606D01*
X178307105Y-89677351D01*
X178312631Y-89626486D01*
X178313000Y-89619672D01*
X178313000Y-87957115D01*
X178308525Y-87941876D01*
X178307135Y-87940671D01*
X178299452Y-87939000D01*
X176362115Y-87939000D01*
X176346876Y-87943475D01*
X176345671Y-87944865D01*
X176344000Y-87952548D01*
X176344000Y-90064884D01*
X175836000Y-90064884D01*
X175836000Y-87957115D01*
X175831525Y-87941876D01*
X175830135Y-87940671D01*
X175822452Y-87939000D01*
X173182115Y-87939000D01*
X173166876Y-87943475D01*
X173165671Y-87944865D01*
X173164000Y-87952548D01*
X173164000Y-90064884D01*
X172656000Y-90064884D01*
X172656000Y-87957115D01*
X172651525Y-87941876D01*
X172650135Y-87940671D01*
X172642452Y-87939000D01*
X170705116Y-87939000D01*
X170689877Y-87943475D01*
X170688672Y-87944865D01*
X170687001Y-87952548D01*
X170687001Y-89619669D01*
X151522737Y-89619669D01*
X151509321Y-89587923D01*
X151508500Y-89573560D01*
X151508500Y-87412885D01*
X170687000Y-87412885D01*
X170691475Y-87428124D01*
X170692865Y-87429329D01*
X170700548Y-87431000D01*
X172637885Y-87431000D01*
X172653124Y-87426525D01*
X172654329Y-87425135D01*
X172656000Y-87417452D01*
X172656000Y-87412885D01*
X173164000Y-87412885D01*
X173168475Y-87428124D01*
X173169865Y-87429329D01*
X173177548Y-87431000D01*
X175817885Y-87431000D01*
X175833124Y-87426525D01*
X175834329Y-87425135D01*
X175836000Y-87417452D01*
X175836000Y-87412885D01*
X176344000Y-87412885D01*
X176348475Y-87428124D01*
X176349865Y-87429329D01*
X176357548Y-87431000D01*
X178294884Y-87431000D01*
X178310123Y-87426525D01*
X178311328Y-87425135D01*
X178312999Y-87417452D01*
X178312999Y-85750331D01*
X178312629Y-85743510D01*
X178307105Y-85692648D01*
X178303479Y-85677396D01*
X178258324Y-85556946D01*
X178249786Y-85541351D01*
X178173285Y-85439276D01*
X178160724Y-85426715D01*
X178058649Y-85350214D01*
X178043054Y-85341676D01*
X177922606Y-85296522D01*
X177907351Y-85292895D01*
X177856486Y-85287369D01*
X177849672Y-85287000D01*
X176362115Y-85287000D01*
X176346876Y-85291475D01*
X176345671Y-85292865D01*
X176344000Y-85300548D01*
X176344000Y-87412885D01*
X175836000Y-87412885D01*
X175836000Y-85305116D01*
X175831525Y-85289877D01*
X175830135Y-85288672D01*
X175822452Y-85287001D01*
X174673105Y-85287001D01*
X174673073Y-85287000D01*
X173182115Y-85287000D01*
X173166876Y-85291475D01*
X173165671Y-85292865D01*
X173164000Y-85300548D01*
X173164000Y-87412885D01*
X172656000Y-87412885D01*
X172656000Y-85305116D01*
X172651525Y-85289877D01*
X172650135Y-85288672D01*
X172642452Y-85287001D01*
X171150331Y-85287001D01*
X171143510Y-85287371D01*
X171092648Y-85292895D01*
X171077396Y-85296521D01*
X170956946Y-85341676D01*
X170941351Y-85350214D01*
X170839276Y-85426715D01*
X170826715Y-85439276D01*
X170750214Y-85541351D01*
X170741676Y-85556946D01*
X170696522Y-85677394D01*
X170692895Y-85692649D01*
X170687369Y-85743514D01*
X170687000Y-85750328D01*
X170687000Y-87412885D01*
X151508500Y-87412885D01*
X151508500Y-85091244D01*
X151528502Y-85023123D01*
X151545405Y-85002149D01*
X152800460Y-83747095D01*
X164267001Y-83747095D01*
X164267338Y-83753614D01*
X164277257Y-83849206D01*
X164280149Y-83862600D01*
X164331588Y-84016784D01*
X164337761Y-84029962D01*
X164423063Y-84167807D01*
X164432099Y-84179208D01*
X164546829Y-84293739D01*
X164558240Y-84302751D01*
X164696243Y-84387816D01*
X164709424Y-84393963D01*
X164863710Y-84445138D01*
X164877086Y-84448005D01*
X164971438Y-84457672D01*
X164977854Y-84458000D01*
X165227885Y-84458000D01*
X165243124Y-84453525D01*
X165244329Y-84452135D01*
X165246000Y-84444452D01*
X165246000Y-84439884D01*
X165754000Y-84439884D01*
X165758475Y-84455123D01*
X165759865Y-84456328D01*
X165767548Y-84457999D01*
X166022095Y-84457999D01*
X166028614Y-84457662D01*
X166124206Y-84447743D01*
X166137600Y-84444851D01*
X166291784Y-84393412D01*
X166304962Y-84387239D01*
X166442807Y-84301937D01*
X166454208Y-84292901D01*
X166568739Y-84178171D01*
X166577751Y-84166760D01*
X166662816Y-84028757D01*
X166668963Y-84015576D01*
X166720138Y-83861290D01*
X166723005Y-83847914D01*
X166732672Y-83753562D01*
X166733000Y-83747146D01*
X166733000Y-83722115D01*
X166728525Y-83706876D01*
X166727135Y-83705671D01*
X166719452Y-83704000D01*
X165772115Y-83704000D01*
X165756876Y-83708475D01*
X165755671Y-83709865D01*
X165754000Y-83717548D01*
X165754000Y-84439884D01*
X165246000Y-84439884D01*
X165246000Y-83722115D01*
X165241525Y-83706876D01*
X165240135Y-83705671D01*
X165232452Y-83704000D01*
X164285116Y-83704000D01*
X164269877Y-83708475D01*
X164268672Y-83709865D01*
X164267001Y-83717548D01*
X164267001Y-83747095D01*
X152800460Y-83747095D01*
X153807150Y-82740405D01*
X153869462Y-82706379D01*
X153896245Y-82703500D01*
X164217623Y-82703500D01*
X164285744Y-82723502D01*
X164332237Y-82777158D01*
X164342341Y-82847432D01*
X164331816Y-82882754D01*
X164331037Y-82884425D01*
X164279862Y-83038710D01*
X164276995Y-83052086D01*
X164267328Y-83146438D01*
X164267000Y-83152855D01*
X164267000Y-83177885D01*
X164271475Y-83193124D01*
X164272865Y-83194329D01*
X164280548Y-83196000D01*
X166714884Y-83196000D01*
X166730123Y-83191525D01*
X166731328Y-83190135D01*
X166732999Y-83182452D01*
X166732999Y-83152905D01*
X166732662Y-83146386D01*
X166722743Y-83050794D01*
X166719851Y-83037400D01*
X166668411Y-82883213D01*
X166668291Y-82882957D01*
X166668261Y-82882765D01*
X166666094Y-82876268D01*
X166667206Y-82875897D01*
X166657503Y-82812784D01*
X166686365Y-82747919D01*
X166745714Y-82708956D01*
X166782389Y-82703500D01*
X172988838Y-82703500D01*
X173225020Y-82688641D01*
X173535072Y-82629495D01*
X173626873Y-82599667D01*
X173665809Y-82593500D01*
X177853134Y-82593500D01*
X177915316Y-82586745D01*
X178051705Y-82535615D01*
X178168261Y-82448261D01*
X178255615Y-82331705D01*
X178306745Y-82195316D01*
X178313500Y-82133134D01*
X178313500Y-78256866D01*
X178306745Y-78194684D01*
X178255615Y-78058295D01*
X178168261Y-77941739D01*
X178051705Y-77854385D01*
X177915316Y-77803255D01*
X177853134Y-77796500D01*
X173665809Y-77796500D01*
X173626873Y-77790333D01*
X173576651Y-77774015D01*
X173535072Y-77760505D01*
X173225020Y-77701359D01*
X172988838Y-77686500D01*
X166754500Y-77686500D01*
X166686379Y-77666498D01*
X166639886Y-77612842D01*
X166628500Y-77560500D01*
X166628500Y-76594500D01*
X166648502Y-76526379D01*
X166702158Y-76479886D01*
X166754500Y-76468500D01*
X166918134Y-76468500D01*
X166980316Y-76461745D01*
X167116705Y-76410615D01*
X167233261Y-76323261D01*
X167320615Y-76206705D01*
X167371745Y-76070316D01*
X167378500Y-76008134D01*
X167378500Y-73911866D01*
X167371745Y-73849684D01*
X167320615Y-73713295D01*
X167233261Y-73596739D01*
X167116705Y-73509385D01*
X166980316Y-73458255D01*
X166918134Y-73451500D01*
X164821866Y-73451500D01*
X164759684Y-73458255D01*
X164623295Y-73509385D01*
X164506739Y-73596739D01*
X164419385Y-73713295D01*
X164368255Y-73849684D01*
X164361500Y-73911866D01*
X164361500Y-74075500D01*
X164341498Y-74143621D01*
X164287842Y-74190114D01*
X164235500Y-74201500D01*
X163378811Y-74201500D01*
X163310690Y-74181498D01*
X163271667Y-74141804D01*
X163205978Y-74035652D01*
X163080803Y-73910695D01*
X163074572Y-73906854D01*
X162936468Y-73821725D01*
X162936466Y-73821724D01*
X162930238Y-73817885D01*
X162850495Y-73791436D01*
X162768889Y-73764368D01*
X162768887Y-73764368D01*
X162762361Y-73762203D01*
X162755525Y-73761503D01*
X162755522Y-73761502D01*
X162712469Y-73757091D01*
X162657900Y-73751500D01*
X162032100Y-73751500D01*
X162028854Y-73751837D01*
X162028850Y-73751837D01*
X161933192Y-73761762D01*
X161933188Y-73761763D01*
X161926334Y-73762474D01*
X161919798Y-73764655D01*
X161919796Y-73764655D01*
X161903428Y-73770116D01*
X161758554Y-73818450D01*
X161608152Y-73911522D01*
X161602979Y-73916704D01*
X161521716Y-73998109D01*
X161459434Y-74032188D01*
X161388614Y-74027185D01*
X161343525Y-73998264D01*
X161260983Y-73915866D01*
X161255803Y-73910695D01*
X161249572Y-73906854D01*
X161111468Y-73821725D01*
X161111466Y-73821724D01*
X161105238Y-73817885D01*
X161025495Y-73791436D01*
X160943889Y-73764368D01*
X160943887Y-73764368D01*
X160937361Y-73762203D01*
X160930525Y-73761503D01*
X160930522Y-73761502D01*
X160887469Y-73757091D01*
X160832900Y-73751500D01*
X160207100Y-73751500D01*
X160203854Y-73751837D01*
X160203850Y-73751837D01*
X160108192Y-73761762D01*
X160108188Y-73761763D01*
X160101334Y-73762474D01*
X160094798Y-73764655D01*
X160094796Y-73764655D01*
X160078428Y-73770116D01*
X159933554Y-73818450D01*
X159783152Y-73911522D01*
X159658195Y-74036697D01*
X159654355Y-74042927D01*
X159654354Y-74042928D01*
X159593522Y-74141616D01*
X159540750Y-74189109D01*
X159486262Y-74201500D01*
X158881578Y-74201500D01*
X158813457Y-74181498D01*
X158774434Y-74141803D01*
X158711151Y-74039539D01*
X158707297Y-74033311D01*
X158583153Y-73909383D01*
X158433829Y-73817339D01*
X158426880Y-73815034D01*
X158273866Y-73764281D01*
X158273864Y-73764281D01*
X158267335Y-73762115D01*
X158163731Y-73751500D01*
X157872266Y-73751500D01*
X157576270Y-73751501D01*
X157471371Y-73762384D01*
X157464840Y-73764563D01*
X157464835Y-73764564D01*
X157316689Y-73813990D01*
X157304974Y-73817898D01*
X157155811Y-73910203D01*
X157031883Y-74034347D01*
X157029886Y-74037587D01*
X156973148Y-74077814D01*
X156902225Y-74081047D01*
X156840813Y-74045422D01*
X156833434Y-74036922D01*
X156826718Y-74028448D01*
X156713021Y-73914949D01*
X156701610Y-73905937D01*
X156564846Y-73821635D01*
X156551668Y-73815491D01*
X156398760Y-73764773D01*
X156385394Y-73761907D01*
X156291899Y-73752328D01*
X156285484Y-73752000D01*
X156267115Y-73752000D01*
X156251876Y-73756475D01*
X156250671Y-73757865D01*
X156249000Y-73765548D01*
X156249000Y-76149884D01*
X156253475Y-76165123D01*
X156254865Y-76166328D01*
X156262548Y-76167999D01*
X156285433Y-76167999D01*
X156291952Y-76167662D01*
X156386670Y-76157834D01*
X156400064Y-76154942D01*
X156552865Y-76103964D01*
X156566043Y-76097790D01*
X156702649Y-76013256D01*
X156714050Y-76004220D01*
X156827551Y-75890521D01*
X156833294Y-75883249D01*
X156891211Y-75842186D01*
X156962134Y-75838954D01*
X157023546Y-75874579D01*
X157029340Y-75881254D01*
X157032703Y-75886689D01*
X157156847Y-76010617D01*
X157306171Y-76102661D01*
X157313119Y-76104966D01*
X157313120Y-76104966D01*
X157466134Y-76155719D01*
X157466136Y-76155719D01*
X157472665Y-76157885D01*
X157576269Y-76168500D01*
X157867734Y-76168500D01*
X158163730Y-76168499D01*
X158268629Y-76157616D01*
X158275160Y-76155437D01*
X158275165Y-76155436D01*
X158428078Y-76104420D01*
X158435026Y-76102102D01*
X158584189Y-76009797D01*
X158708117Y-75885653D01*
X158713407Y-75877072D01*
X158774238Y-75778384D01*
X158827010Y-75730891D01*
X158881498Y-75718500D01*
X159486189Y-75718500D01*
X159554310Y-75738502D01*
X159593333Y-75778196D01*
X159659022Y-75884348D01*
X159784197Y-76009305D01*
X159790427Y-76013145D01*
X159790428Y-76013146D01*
X159927746Y-76097790D01*
X159934762Y-76102115D01*
X159941980Y-76104509D01*
X160096111Y-76155632D01*
X160096113Y-76155632D01*
X160102639Y-76157797D01*
X160109475Y-76158497D01*
X160109478Y-76158498D01*
X160152531Y-76162909D01*
X160207100Y-76168500D01*
X160832900Y-76168500D01*
X160836146Y-76168163D01*
X160836150Y-76168163D01*
X160931808Y-76158238D01*
X160931812Y-76158237D01*
X160938666Y-76157526D01*
X160945202Y-76155345D01*
X160945204Y-76155345D01*
X161097577Y-76104509D01*
X161106446Y-76101550D01*
X161256848Y-76008478D01*
X161343284Y-75921891D01*
X161405566Y-75887812D01*
X161476386Y-75892815D01*
X161521476Y-75921736D01*
X161609197Y-76009305D01*
X161615427Y-76013145D01*
X161615428Y-76013146D01*
X161752746Y-76097790D01*
X161759762Y-76102115D01*
X161766980Y-76104509D01*
X161921111Y-76155632D01*
X161921113Y-76155632D01*
X161927639Y-76157797D01*
X161934475Y-76158497D01*
X161934478Y-76158498D01*
X161977531Y-76162909D01*
X162032100Y-76168500D01*
X162657900Y-76168500D01*
X162661146Y-76168163D01*
X162661150Y-76168163D01*
X162756808Y-76158238D01*
X162756812Y-76158237D01*
X162763666Y-76157526D01*
X162770202Y-76155345D01*
X162770204Y-76155345D01*
X162922577Y-76104509D01*
X162931446Y-76101550D01*
X163081848Y-76008478D01*
X163206805Y-75883303D01*
X163271479Y-75778383D01*
X163324250Y-75730891D01*
X163378738Y-75718500D01*
X164235500Y-75718500D01*
X164303621Y-75738502D01*
X164350114Y-75792158D01*
X164361500Y-75844500D01*
X164361500Y-76008134D01*
X164368255Y-76070316D01*
X164419385Y-76206705D01*
X164506739Y-76323261D01*
X164623295Y-76410615D01*
X164759684Y-76461745D01*
X164821866Y-76468500D01*
X164985500Y-76468500D01*
X165053621Y-76488502D01*
X165100114Y-76542158D01*
X165111500Y-76594500D01*
X165111500Y-77560500D01*
X165091498Y-77628621D01*
X165037842Y-77675114D01*
X164985500Y-77686500D01*
X152846415Y-77686500D01*
X152842457Y-77686438D01*
X152730009Y-77682904D01*
X152730003Y-77682904D01*
X152726051Y-77682780D01*
X152656394Y-77689364D01*
X152610110Y-77693739D01*
X152606165Y-77694049D01*
X152563885Y-77696709D01*
X152489980Y-77701359D01*
X152456998Y-77707651D01*
X152445252Y-77709323D01*
X152438644Y-77709947D01*
X152415750Y-77712111D01*
X152415743Y-77712112D01*
X152411809Y-77712484D01*
X152407940Y-77713349D01*
X152407939Y-77713349D01*
X152298167Y-77737886D01*
X152294291Y-77738689D01*
X152193850Y-77757849D01*
X152179928Y-77760505D01*
X152176161Y-77761729D01*
X152176153Y-77761731D01*
X152147984Y-77770883D01*
X152136539Y-77774014D01*
X152103767Y-77781340D01*
X152100040Y-77782682D01*
X152100029Y-77782685D01*
X151994207Y-77820783D01*
X151990464Y-77822065D01*
X151883491Y-77856823D01*
X151883487Y-77856824D01*
X151879734Y-77858044D01*
X151860804Y-77866952D01*
X151849351Y-77872341D01*
X151838387Y-77876883D01*
X151806785Y-77888260D01*
X151702997Y-77941142D01*
X151699495Y-77942857D01*
X151686613Y-77948919D01*
X151597713Y-77990752D01*
X151597708Y-77990755D01*
X151594131Y-77992438D01*
X151590792Y-77994557D01*
X151565773Y-78010435D01*
X151555469Y-78016313D01*
X151525545Y-78031559D01*
X151439381Y-78090116D01*
X151429244Y-78097005D01*
X151425944Y-78099173D01*
X151327625Y-78161568D01*
X151301753Y-78182971D01*
X151292262Y-78190097D01*
X151264483Y-78208976D01*
X151261517Y-78211591D01*
X151261504Y-78211601D01*
X151177120Y-78285996D01*
X151174111Y-78288566D01*
X151128437Y-78326351D01*
X151084418Y-78362767D01*
X151081707Y-78365654D01*
X151004699Y-78447659D01*
X151001944Y-78450501D01*
X147255517Y-82196929D01*
X147252676Y-82199683D01*
X147167767Y-82279418D01*
X147165243Y-82282469D01*
X147093544Y-82369139D01*
X147090972Y-82372150D01*
X147016601Y-82456505D01*
X147016596Y-82456511D01*
X147013977Y-82459482D01*
X147001660Y-82477606D01*
X146995107Y-82487249D01*
X146987980Y-82496741D01*
X146969099Y-82519565D01*
X146966568Y-82522625D01*
X146908802Y-82613649D01*
X146904176Y-82620939D01*
X146902003Y-82624247D01*
X146844435Y-82708956D01*
X146836559Y-82720545D01*
X146821312Y-82750469D01*
X146815436Y-82760770D01*
X146797438Y-82789131D01*
X146752597Y-82884425D01*
X146747867Y-82894476D01*
X146746126Y-82898031D01*
X146695053Y-82998266D01*
X146695050Y-82998273D01*
X146693261Y-83001784D01*
X146691924Y-83005499D01*
X146691920Y-83005507D01*
X146681885Y-83033379D01*
X146677344Y-83044343D01*
X146664729Y-83071152D01*
X146664726Y-83071159D01*
X146663044Y-83074734D01*
X146627056Y-83185493D01*
X146625803Y-83189155D01*
X146586340Y-83298767D01*
X146579014Y-83331543D01*
X146575881Y-83342993D01*
X146566730Y-83371157D01*
X146565505Y-83374928D01*
X146564763Y-83378820D01*
X146543685Y-83489312D01*
X146542894Y-83493136D01*
X146517485Y-83606808D01*
X146514438Y-83639044D01*
X146514325Y-83640238D01*
X146512652Y-83651990D01*
X146507102Y-83681082D01*
X146507101Y-83681091D01*
X146506359Y-83684980D01*
X146502042Y-83753614D01*
X146499050Y-83801169D01*
X146498743Y-83805085D01*
X146487780Y-83921051D01*
X146487904Y-83925002D01*
X146487904Y-83925008D01*
X146491438Y-84037445D01*
X146491500Y-84041403D01*
X146491500Y-89573560D01*
X146471498Y-89641681D01*
X146417842Y-89688174D01*
X146404436Y-89693393D01*
X146378496Y-89701821D01*
X146378487Y-89701825D01*
X146374734Y-89703044D01*
X146268701Y-89752939D01*
X146092717Y-89835750D01*
X146092710Y-89835754D01*
X146089131Y-89837438D01*
X145822625Y-90006568D01*
X145579418Y-90207767D01*
X145363346Y-90437860D01*
X145177816Y-90693221D01*
X145175909Y-90696690D01*
X145175907Y-90696693D01*
X145030790Y-90960658D01*
X145025753Y-90969821D01*
X145024300Y-90973490D01*
X145024298Y-90973495D01*
X144994213Y-91049482D01*
X144909557Y-91263298D01*
X144831060Y-91569025D01*
X144791500Y-91882179D01*
X144791500Y-92197821D01*
X118809733Y-92197821D01*
X120612149Y-90395405D01*
X120674461Y-90361379D01*
X120701244Y-90358500D01*
X124443134Y-90358500D01*
X124505316Y-90351745D01*
X124641705Y-90300615D01*
X124758261Y-90213261D01*
X124845615Y-90096705D01*
X124896745Y-89960316D01*
X124903500Y-89898134D01*
X124903500Y-86021866D01*
X124896745Y-85959684D01*
X124845615Y-85823295D01*
X124758261Y-85706739D01*
X124641705Y-85619385D01*
X124505316Y-85568255D01*
X124443134Y-85561500D01*
X120253567Y-85561500D01*
X120218414Y-85556497D01*
X120052094Y-85508177D01*
X120048294Y-85507073D01*
X120044393Y-85506455D01*
X120044388Y-85506454D01*
X119740446Y-85458314D01*
X119740444Y-85458314D01*
X119736537Y-85457695D01*
X119592242Y-85453160D01*
X119425009Y-85447904D01*
X119425003Y-85447904D01*
X119421051Y-85447780D01*
X119263930Y-85462632D01*
X119110750Y-85477111D01*
X119110744Y-85477112D01*
X119106808Y-85477484D01*
X119012876Y-85498480D01*
X118802635Y-85545475D01*
X118802629Y-85545477D01*
X118798767Y-85546340D01*
X118795043Y-85547681D01*
X118795042Y-85547681D01*
X118777349Y-85554051D01*
X118734668Y-85561500D01*
X117736866Y-85561500D01*
X117674684Y-85568255D01*
X117538295Y-85619385D01*
X117421739Y-85706739D01*
X117334385Y-85823295D01*
X117283255Y-85959684D01*
X117276500Y-86021866D01*
X117276500Y-86583756D01*
X117256498Y-86651877D01*
X117239595Y-86672851D01*
X113125517Y-90786929D01*
X113122676Y-90789683D01*
X113037767Y-90869418D01*
X113035243Y-90872469D01*
X112963544Y-90959139D01*
X112960972Y-90962150D01*
X112886601Y-91046505D01*
X112886596Y-91046511D01*
X112883977Y-91049482D01*
X112881751Y-91052758D01*
X112865107Y-91077249D01*
X112857980Y-91086741D01*
X112839099Y-91109565D01*
X112836568Y-91112625D01*
X112774176Y-91210939D01*
X112772008Y-91214239D01*
X112706559Y-91310545D01*
X112691312Y-91340469D01*
X112685436Y-91350770D01*
X112667438Y-91379131D01*
X112665751Y-91382715D01*
X112665751Y-91382716D01*
X112617867Y-91484476D01*
X112616126Y-91488031D01*
X112565053Y-91588266D01*
X112565050Y-91588273D01*
X112563261Y-91591784D01*
X112561924Y-91595499D01*
X112561920Y-91595507D01*
X112551885Y-91623379D01*
X112547344Y-91634343D01*
X112534729Y-91661152D01*
X112534726Y-91661159D01*
X112533044Y-91664734D01*
X112497056Y-91775493D01*
X112495803Y-91779155D01*
X112456340Y-91888767D01*
X112449014Y-91921543D01*
X112445881Y-91932993D01*
X112436730Y-91961157D01*
X112435505Y-91964928D01*
X112434763Y-91968820D01*
X112413685Y-92079312D01*
X112412894Y-92083136D01*
X112387485Y-92196808D01*
X112387018Y-92201753D01*
X112384325Y-92230238D01*
X112382652Y-92241990D01*
X112377102Y-92271082D01*
X112377101Y-92271091D01*
X112376359Y-92274980D01*
X112376110Y-92278941D01*
X112369050Y-92391169D01*
X112368743Y-92395085D01*
X112357780Y-92511051D01*
X112357904Y-92515002D01*
X112357904Y-92515008D01*
X112361438Y-92627445D01*
X112361500Y-92631403D01*
X112361500Y-108918597D01*
X112361438Y-108922555D01*
X112357780Y-109038949D01*
X106878500Y-109038949D01*
X106878500Y-82404669D01*
X117277001Y-82404669D01*
X117277371Y-82411490D01*
X117282895Y-82462352D01*
X117286521Y-82477604D01*
X117331676Y-82598054D01*
X117340214Y-82613649D01*
X117416715Y-82715724D01*
X117429276Y-82728285D01*
X117531351Y-82804786D01*
X117546946Y-82813324D01*
X117667394Y-82858478D01*
X117682649Y-82862105D01*
X117733514Y-82867631D01*
X117740328Y-82868000D01*
X119227885Y-82868000D01*
X119243124Y-82863525D01*
X119244329Y-82862135D01*
X119246000Y-82854452D01*
X119246000Y-82849884D01*
X119754000Y-82849884D01*
X119758475Y-82865123D01*
X119759865Y-82866328D01*
X119767548Y-82867999D01*
X120916895Y-82867999D01*
X120916927Y-82868000D01*
X122407885Y-82868000D01*
X122423124Y-82863525D01*
X122424329Y-82862135D01*
X122426000Y-82854452D01*
X122426000Y-82849884D01*
X122934000Y-82849884D01*
X122938475Y-82865123D01*
X122939865Y-82866328D01*
X122947548Y-82867999D01*
X124439669Y-82867999D01*
X124446490Y-82867629D01*
X124497352Y-82862105D01*
X124512604Y-82858479D01*
X124633054Y-82813324D01*
X124648649Y-82804786D01*
X124750724Y-82728285D01*
X124763285Y-82715724D01*
X124839786Y-82613649D01*
X124848324Y-82598054D01*
X124893478Y-82477606D01*
X124897105Y-82462351D01*
X124902631Y-82411486D01*
X124903000Y-82404672D01*
X124903000Y-80742115D01*
X124898525Y-80726876D01*
X124897135Y-80725671D01*
X124889452Y-80724000D01*
X122952115Y-80724000D01*
X122936876Y-80728475D01*
X122935671Y-80729865D01*
X122934000Y-80737548D01*
X122934000Y-82849884D01*
X122426000Y-82849884D01*
X122426000Y-80742115D01*
X122421525Y-80726876D01*
X122420135Y-80725671D01*
X122412452Y-80724000D01*
X119772115Y-80724000D01*
X119756876Y-80728475D01*
X119755671Y-80729865D01*
X119754000Y-80737548D01*
X119754000Y-82849884D01*
X119246000Y-82849884D01*
X119246000Y-80742115D01*
X119241525Y-80726876D01*
X119240135Y-80725671D01*
X119232452Y-80724000D01*
X117295116Y-80724000D01*
X117279877Y-80728475D01*
X117278672Y-80729865D01*
X117277001Y-80737548D01*
X117277001Y-82404669D01*
X106878500Y-82404669D01*
X106878500Y-80197885D01*
X117277000Y-80197885D01*
X117281475Y-80213124D01*
X117282865Y-80214329D01*
X117290548Y-80216000D01*
X119227885Y-80216000D01*
X119243124Y-80211525D01*
X119244329Y-80210135D01*
X119246000Y-80202452D01*
X119246000Y-80197885D01*
X119754000Y-80197885D01*
X119758475Y-80213124D01*
X119759865Y-80214329D01*
X119767548Y-80216000D01*
X122407885Y-80216000D01*
X122423124Y-80211525D01*
X122424329Y-80210135D01*
X122426000Y-80202452D01*
X122426000Y-80197885D01*
X122934000Y-80197885D01*
X122938475Y-80213124D01*
X122939865Y-80214329D01*
X122947548Y-80216000D01*
X124884884Y-80216000D01*
X124900123Y-80211525D01*
X124901328Y-80210135D01*
X124902999Y-80202452D01*
X124902999Y-78535331D01*
X124902629Y-78528510D01*
X124897105Y-78477648D01*
X124893479Y-78462396D01*
X124848324Y-78341946D01*
X124839786Y-78326351D01*
X124763285Y-78224276D01*
X124750724Y-78211715D01*
X124648649Y-78135214D01*
X124633054Y-78126676D01*
X124512606Y-78081522D01*
X124497351Y-78077895D01*
X124446486Y-78072369D01*
X124439672Y-78072000D01*
X122952115Y-78072000D01*
X122936876Y-78076475D01*
X122935671Y-78077865D01*
X122934000Y-78085548D01*
X122934000Y-80197885D01*
X122426000Y-80197885D01*
X122426000Y-78090116D01*
X122421525Y-78074877D01*
X122420135Y-78073672D01*
X122412452Y-78072001D01*
X121263105Y-78072001D01*
X121263073Y-78072000D01*
X119772115Y-78072000D01*
X119756876Y-78076475D01*
X119755671Y-78077865D01*
X119754000Y-78085548D01*
X119754000Y-80197885D01*
X119246000Y-80197885D01*
X119246000Y-78090116D01*
X119241525Y-78074877D01*
X119240135Y-78073672D01*
X119232452Y-78072001D01*
X117740331Y-78072001D01*
X117733510Y-78072371D01*
X117682648Y-78077895D01*
X117667396Y-78081521D01*
X117546946Y-78126676D01*
X117531351Y-78135214D01*
X117429276Y-78211715D01*
X117416715Y-78224276D01*
X117340214Y-78326351D01*
X117331676Y-78341946D01*
X117286522Y-78462394D01*
X117282895Y-78477649D01*
X117277369Y-78528514D01*
X117277000Y-78535328D01*
X117277000Y-80197885D01*
X106878500Y-80197885D01*
X106878500Y-75462933D01*
X154999501Y-75462933D01*
X154999838Y-75469452D01*
X155009666Y-75564170D01*
X155012558Y-75577564D01*
X155063536Y-75730365D01*
X155069710Y-75743543D01*
X155154244Y-75880149D01*
X155163280Y-75891550D01*
X155276979Y-76005051D01*
X155288390Y-76014063D01*
X155425154Y-76098365D01*
X155438332Y-76104509D01*
X155591240Y-76155227D01*
X155604606Y-76158093D01*
X155698101Y-76167672D01*
X155704516Y-76168000D01*
X155722885Y-76168000D01*
X155738124Y-76163525D01*
X155739329Y-76162135D01*
X155741000Y-76154452D01*
X155741000Y-75232115D01*
X155736525Y-75216876D01*
X155735135Y-75215671D01*
X155727452Y-75214000D01*
X155017616Y-75214000D01*
X155002377Y-75218475D01*
X155001172Y-75219865D01*
X154999501Y-75227548D01*
X154999501Y-75462933D01*
X106878500Y-75462933D01*
X106878500Y-74687885D01*
X154999500Y-74687885D01*
X155003975Y-74703124D01*
X155005365Y-74704329D01*
X155013048Y-74706000D01*
X155722885Y-74706000D01*
X155738124Y-74701525D01*
X155739329Y-74700135D01*
X155741000Y-74692452D01*
X155741000Y-73770116D01*
X155736525Y-73754877D01*
X155735135Y-73753672D01*
X155727452Y-73752001D01*
X155704567Y-73752001D01*
X155698048Y-73752338D01*
X155603330Y-73762166D01*
X155589936Y-73765058D01*
X155437135Y-73816036D01*
X155423957Y-73822210D01*
X155287351Y-73906744D01*
X155275950Y-73915780D01*
X155162449Y-74029479D01*
X155153437Y-74040890D01*
X155069135Y-74177654D01*
X155062991Y-74190832D01*
X155012273Y-74343740D01*
X155009407Y-74357106D01*
X154999828Y-74450601D01*
X154999500Y-74457016D01*
X154999500Y-74687885D01*
X106878500Y-74687885D01*
X106878500Y-71013250D01*
X106880246Y-70992345D01*
X106882770Y-70977344D01*
X106882770Y-70977341D01*
X106883576Y-70972552D01*
X106883729Y-70960000D01*
X106883039Y-70955180D01*
X106881644Y-70945437D01*
X106880545Y-70920983D01*
X106882183Y-70889733D01*
X107857822Y-70889733D01*
X107857975Y-70894121D01*
X107857975Y-70894127D01*
X107861768Y-71002723D01*
X107867625Y-71170458D01*
X107868387Y-71174781D01*
X107868388Y-71174788D01*
X107892164Y-71309624D01*
X107916402Y-71447087D01*
X108003203Y-71714235D01*
X108126340Y-71966702D01*
X108128795Y-71970341D01*
X108128798Y-71970347D01*
X108201890Y-72078710D01*
X108283415Y-72199576D01*
X108471371Y-72408322D01*
X108686550Y-72588879D01*
X108924764Y-72737731D01*
X109181375Y-72851982D01*
X109451390Y-72929407D01*
X109455740Y-72930018D01*
X109455743Y-72930019D01*
X109558690Y-72944487D01*
X109729552Y-72968500D01*
X109940146Y-72968500D01*
X109942332Y-72968347D01*
X109942336Y-72968347D01*
X110145827Y-72954118D01*
X110145832Y-72954117D01*
X110150212Y-72953811D01*
X110424970Y-72895409D01*
X110429099Y-72893906D01*
X110429103Y-72893905D01*
X110684781Y-72800846D01*
X110684785Y-72800844D01*
X110688926Y-72799337D01*
X110936942Y-72667464D01*
X111041896Y-72591211D01*
X111160629Y-72504947D01*
X111160632Y-72504944D01*
X111164192Y-72502358D01*
X111366252Y-72307231D01*
X111539188Y-72085882D01*
X111541384Y-72082078D01*
X111541389Y-72082071D01*
X111677435Y-71846431D01*
X111679636Y-71842619D01*
X111784862Y-71582176D01*
X111818544Y-71447087D01*
X111851753Y-71313893D01*
X111851754Y-71313888D01*
X111852817Y-71309624D01*
X111882178Y-71030267D01*
X111881584Y-71013250D01*
X111877271Y-70889733D01*
X183857822Y-70889733D01*
X183857975Y-70894121D01*
X183857975Y-70894127D01*
X183861768Y-71002723D01*
X183867625Y-71170458D01*
X183868387Y-71174781D01*
X183868388Y-71174788D01*
X183892164Y-71309624D01*
X183916402Y-71447087D01*
X184003203Y-71714235D01*
X184126340Y-71966702D01*
X184128795Y-71970341D01*
X184128798Y-71970347D01*
X184201890Y-72078710D01*
X184283415Y-72199576D01*
X184471371Y-72408322D01*
X184686550Y-72588879D01*
X184924764Y-72737731D01*
X185181375Y-72851982D01*
X185451390Y-72929407D01*
X185455740Y-72930018D01*
X185455743Y-72930019D01*
X185558690Y-72944487D01*
X185729552Y-72968500D01*
X185940146Y-72968500D01*
X185942332Y-72968347D01*
X185942336Y-72968347D01*
X186145827Y-72954118D01*
X186145832Y-72954117D01*
X186150212Y-72953811D01*
X186424970Y-72895409D01*
X186429099Y-72893906D01*
X186429103Y-72893905D01*
X186684781Y-72800846D01*
X186684785Y-72800844D01*
X186688926Y-72799337D01*
X186936942Y-72667464D01*
X187041896Y-72591211D01*
X187160629Y-72504947D01*
X187160632Y-72504944D01*
X187164192Y-72502358D01*
X187366252Y-72307231D01*
X187539188Y-72085882D01*
X187541384Y-72082078D01*
X187541389Y-72082071D01*
X187677435Y-71846431D01*
X187679636Y-71842619D01*
X187784862Y-71582176D01*
X187818544Y-71447087D01*
X187851753Y-71313893D01*
X187851754Y-71313888D01*
X187852817Y-71309624D01*
X187882178Y-71030267D01*
X187881584Y-71013250D01*
X187872529Y-70753939D01*
X187872528Y-70753933D01*
X187872375Y-70749542D01*
X187848608Y-70614749D01*
X187824360Y-70477236D01*
X187823598Y-70472913D01*
X187736797Y-70205765D01*
X187613660Y-69953298D01*
X187611205Y-69949659D01*
X187611202Y-69949653D01*
X187471979Y-69743247D01*
X187456585Y-69720424D01*
X187268629Y-69511678D01*
X187053450Y-69331121D01*
X186815236Y-69182269D01*
X186558625Y-69068018D01*
X186288610Y-68990593D01*
X186284260Y-68989982D01*
X186284257Y-68989981D01*
X186181310Y-68975513D01*
X186010448Y-68951500D01*
X185799854Y-68951500D01*
X185797668Y-68951653D01*
X185797664Y-68951653D01*
X185594173Y-68965882D01*
X185594168Y-68965883D01*
X185589788Y-68966189D01*
X185315030Y-69024591D01*
X185310901Y-69026094D01*
X185310897Y-69026095D01*
X185055219Y-69119154D01*
X185055215Y-69119156D01*
X185051074Y-69120663D01*
X184803058Y-69252536D01*
X184799499Y-69255122D01*
X184799497Y-69255123D01*
X184694895Y-69331121D01*
X184575808Y-69417642D01*
X184373748Y-69612769D01*
X184200812Y-69834118D01*
X184198616Y-69837922D01*
X184198611Y-69837929D01*
X184088061Y-70029409D01*
X184060364Y-70077381D01*
X183955138Y-70337824D01*
X183954073Y-70342097D01*
X183954072Y-70342099D01*
X183920379Y-70477236D01*
X183887183Y-70610376D01*
X183857822Y-70889733D01*
X111877271Y-70889733D01*
X111872529Y-70753939D01*
X111872528Y-70753933D01*
X111872375Y-70749542D01*
X111848608Y-70614749D01*
X111824360Y-70477236D01*
X111823598Y-70472913D01*
X111736797Y-70205765D01*
X111613660Y-69953298D01*
X111611205Y-69949659D01*
X111611202Y-69949653D01*
X111471979Y-69743247D01*
X111456585Y-69720424D01*
X111268629Y-69511678D01*
X111053450Y-69331121D01*
X110815236Y-69182269D01*
X110558625Y-69068018D01*
X110288610Y-68990593D01*
X110284260Y-68989982D01*
X110284257Y-68989981D01*
X110181310Y-68975513D01*
X110010448Y-68951500D01*
X109799854Y-68951500D01*
X109797668Y-68951653D01*
X109797664Y-68951653D01*
X109594173Y-68965882D01*
X109594168Y-68965883D01*
X109589788Y-68966189D01*
X109315030Y-69024591D01*
X109310901Y-69026094D01*
X109310897Y-69026095D01*
X109055219Y-69119154D01*
X109055215Y-69119156D01*
X109051074Y-69120663D01*
X108803058Y-69252536D01*
X108799499Y-69255122D01*
X108799497Y-69255123D01*
X108694895Y-69331121D01*
X108575808Y-69417642D01*
X108373748Y-69612769D01*
X108200812Y-69834118D01*
X108198616Y-69837922D01*
X108198611Y-69837929D01*
X108088061Y-70029409D01*
X108060364Y-70077381D01*
X107955138Y-70337824D01*
X107954073Y-70342097D01*
X107954072Y-70342099D01*
X107920379Y-70477236D01*
X107887183Y-70610376D01*
X107857822Y-70889733D01*
X106882183Y-70889733D01*
X106894542Y-70653902D01*
X106895920Y-70640785D01*
X106900737Y-70610376D01*
X106942838Y-70344555D01*
X106945580Y-70331655D01*
X107023205Y-70041953D01*
X107027281Y-70029409D01*
X107054981Y-69957250D01*
X107134763Y-69749412D01*
X107140126Y-69737365D01*
X107276289Y-69470130D01*
X107282883Y-69458709D01*
X107446236Y-69207168D01*
X107453984Y-69196505D01*
X107513724Y-69122733D01*
X107642727Y-68963427D01*
X107651552Y-68953626D01*
X107863626Y-68741552D01*
X107873427Y-68732727D01*
X108106505Y-68543984D01*
X108117168Y-68536236D01*
X108368714Y-68372880D01*
X108380130Y-68366289D01*
X108647365Y-68230126D01*
X108659413Y-68224762D01*
X108939414Y-68117279D01*
X108951948Y-68113207D01*
X109096804Y-68074393D01*
X109241655Y-68035580D01*
X109254555Y-68032838D01*
X109335866Y-68019960D01*
X109550791Y-67985919D01*
X109563899Y-67984542D01*
X109639063Y-67980603D01*
X109827299Y-67970738D01*
X109853276Y-67972065D01*
X109854846Y-67972309D01*
X109854850Y-67972309D01*
X109863724Y-67973691D01*
X109872626Y-67972527D01*
X109872628Y-67972527D01*
X109887677Y-67970559D01*
X109895286Y-67969564D01*
X109911621Y-67968500D01*
X185820633Y-67968500D01*
X185840018Y-67970000D01*
G37*
G04 #@! TD.AperFunction*
G04 #@! TA.AperFunction,Conductor*
G36*
X152942121Y-99770002D02*
G01*
X152988614Y-99823658D01*
X153000000Y-99876000D01*
X153000000Y-108250000D01*
X160341420Y-108250000D01*
X160409541Y-108270002D01*
X160456034Y-108323658D01*
X160466138Y-108393932D01*
X160459972Y-108418678D01*
X160456340Y-108428767D01*
X160449014Y-108461543D01*
X160445881Y-108472993D01*
X160437686Y-108498216D01*
X160435505Y-108504928D01*
X160434763Y-108508820D01*
X160413685Y-108619312D01*
X160412894Y-108623136D01*
X160387485Y-108736808D01*
X160384438Y-108769044D01*
X160384325Y-108770238D01*
X160382652Y-108781990D01*
X160377102Y-108811082D01*
X160377101Y-108811091D01*
X160376359Y-108814980D01*
X160376110Y-108818941D01*
X160369050Y-108931169D01*
X160368743Y-108935085D01*
X160357780Y-109051051D01*
X160357904Y-109055002D01*
X160357904Y-109055008D01*
X160361438Y-109167445D01*
X160361500Y-109171403D01*
X160361500Y-112725466D01*
X160341498Y-112793587D01*
X160287842Y-112840080D01*
X160217568Y-112850184D01*
X160187282Y-112841875D01*
X160165181Y-112832720D01*
X160155807Y-112829674D01*
X159928111Y-112775009D01*
X159918371Y-112773466D01*
X159684930Y-112755094D01*
X159675070Y-112755094D01*
X159441629Y-112773466D01*
X159431889Y-112775009D01*
X159204193Y-112829674D01*
X159194819Y-112832720D01*
X158978485Y-112922328D01*
X158969691Y-112926809D01*
X158788616Y-113037772D01*
X158720082Y-113056310D01*
X158652406Y-113034854D01*
X158621955Y-113005904D01*
X158551143Y-112911420D01*
X158551142Y-112911419D01*
X158545761Y-112904239D01*
X158429205Y-112816885D01*
X158292816Y-112765755D01*
X158230634Y-112759000D01*
X156049366Y-112759000D01*
X155987184Y-112765755D01*
X155850795Y-112816885D01*
X155734239Y-112904239D01*
X155646885Y-113020795D01*
X155595755Y-113157184D01*
X155589000Y-113219366D01*
X155589000Y-115400634D01*
X155595755Y-115462816D01*
X155646885Y-115599205D01*
X155734239Y-115715761D01*
X155850795Y-115803115D01*
X155987184Y-115854245D01*
X156049366Y-115861000D01*
X158230634Y-115861000D01*
X158292816Y-115854245D01*
X158429205Y-115803115D01*
X158545761Y-115715761D01*
X158621955Y-115614096D01*
X158678814Y-115571581D01*
X158749633Y-115566555D01*
X158788616Y-115582228D01*
X158969691Y-115693191D01*
X158978485Y-115697672D01*
X159194819Y-115787280D01*
X159204193Y-115790326D01*
X159431889Y-115844991D01*
X159441629Y-115846534D01*
X159675070Y-115864906D01*
X159684930Y-115864906D01*
X159918371Y-115846534D01*
X159928111Y-115844991D01*
X160155807Y-115790326D01*
X160165181Y-115787280D01*
X160381515Y-115697672D01*
X160390319Y-115693186D01*
X160558165Y-115590329D01*
X160626698Y-115571790D01*
X160694375Y-115593246D01*
X160739708Y-115647885D01*
X160750000Y-115697761D01*
X160750000Y-118374000D01*
X160729998Y-118442121D01*
X160676342Y-118488614D01*
X160624000Y-118500000D01*
X142207182Y-118500000D01*
X142139061Y-118479998D01*
X142092568Y-118426342D01*
X142088747Y-118417001D01*
X142088279Y-118415712D01*
X142086847Y-118411542D01*
X142066607Y-118349064D01*
X142066606Y-118349062D01*
X142064351Y-118342101D01*
X142060555Y-118335846D01*
X142058049Y-118330372D01*
X142055330Y-118324942D01*
X142052833Y-118318063D01*
X142048820Y-118311942D01*
X142012814Y-118257024D01*
X142010467Y-118253305D01*
X141972595Y-118190893D01*
X141965197Y-118182516D01*
X141965224Y-118182492D01*
X141962571Y-118179500D01*
X141959868Y-118176267D01*
X141955856Y-118170148D01*
X141899617Y-118116872D01*
X141897175Y-118114494D01*
X141720125Y-117937444D01*
X141689387Y-117887285D01*
X141636569Y-117724729D01*
X141634527Y-117718444D01*
X141539040Y-117553056D01*
X141411253Y-117411134D01*
X141256752Y-117298882D01*
X141250724Y-117296198D01*
X141250722Y-117296197D01*
X141088319Y-117223891D01*
X141088318Y-117223891D01*
X141082288Y-117221206D01*
X140988887Y-117201353D01*
X140901944Y-117182872D01*
X140901939Y-117182872D01*
X140895487Y-117181500D01*
X140704513Y-117181500D01*
X140698061Y-117182872D01*
X140698056Y-117182872D01*
X140611113Y-117201353D01*
X140517712Y-117221206D01*
X140511682Y-117223891D01*
X140511681Y-117223891D01*
X140349278Y-117296197D01*
X140349276Y-117296198D01*
X140343248Y-117298882D01*
X140188747Y-117411134D01*
X140060960Y-117553056D01*
X139965473Y-117718444D01*
X139906458Y-117900072D01*
X139886496Y-118090000D01*
X139906458Y-118279928D01*
X139922849Y-118330372D01*
X139924373Y-118335063D01*
X139926401Y-118406031D01*
X139889738Y-118466829D01*
X139826026Y-118498155D01*
X139804540Y-118500000D01*
X137376000Y-118500000D01*
X137307879Y-118479998D01*
X137261386Y-118426342D01*
X137250000Y-118374000D01*
X137250000Y-115069209D01*
X137267547Y-115005069D01*
X137288199Y-114970149D01*
X137340092Y-114921697D01*
X137409943Y-114908992D01*
X137462487Y-114926856D01*
X137619691Y-115023191D01*
X137628485Y-115027672D01*
X137844819Y-115117280D01*
X137854193Y-115120326D01*
X138081889Y-115174991D01*
X138091629Y-115176534D01*
X138325070Y-115194906D01*
X138334930Y-115194906D01*
X138568371Y-115176534D01*
X138578111Y-115174991D01*
X138805807Y-115120326D01*
X138815181Y-115117280D01*
X139031515Y-115027672D01*
X139040309Y-115023191D01*
X139221384Y-114912228D01*
X139289918Y-114893690D01*
X139357594Y-114915146D01*
X139388045Y-114944096D01*
X139464239Y-115045761D01*
X139580795Y-115133115D01*
X139717184Y-115184245D01*
X139779366Y-115191000D01*
X141960634Y-115191000D01*
X142022816Y-115184245D01*
X142159205Y-115133115D01*
X142275761Y-115045761D01*
X142363115Y-114929205D01*
X142414245Y-114792816D01*
X142421000Y-114730634D01*
X142421000Y-112549366D01*
X142414245Y-112487184D01*
X142363115Y-112350795D01*
X142275761Y-112234239D01*
X142159205Y-112146885D01*
X142022816Y-112095755D01*
X141960634Y-112089000D01*
X139779366Y-112089000D01*
X139717184Y-112095755D01*
X139580795Y-112146885D01*
X139464239Y-112234239D01*
X139458858Y-112241419D01*
X139458857Y-112241420D01*
X139388045Y-112335904D01*
X139331186Y-112378419D01*
X139260367Y-112383445D01*
X139221384Y-112367772D01*
X139040309Y-112256809D01*
X139031515Y-112252328D01*
X138815181Y-112162720D01*
X138805807Y-112159674D01*
X138578111Y-112105009D01*
X138568371Y-112103466D01*
X138334930Y-112085094D01*
X138325070Y-112085094D01*
X138091629Y-112103466D01*
X138081889Y-112105009D01*
X137854193Y-112159674D01*
X137844819Y-112162720D01*
X137628485Y-112252328D01*
X137619691Y-112256809D01*
X137463610Y-112352456D01*
X137395077Y-112370994D01*
X137327400Y-112349538D01*
X137293563Y-112315845D01*
X137271788Y-112283804D01*
X137250000Y-112212982D01*
X137250000Y-108376000D01*
X137270002Y-108307879D01*
X137323658Y-108261386D01*
X137376000Y-108250000D01*
X145000000Y-108250000D01*
X145000000Y-103470697D01*
X146154470Y-103470697D01*
X146161860Y-103480999D01*
X146202394Y-103514000D01*
X146209669Y-103519113D01*
X146432309Y-103653153D01*
X146440233Y-103657189D01*
X146679531Y-103758520D01*
X146687936Y-103761398D01*
X146939140Y-103828002D01*
X146947861Y-103829666D01*
X147205948Y-103860213D01*
X147214813Y-103860631D01*
X147474617Y-103854508D01*
X147483472Y-103853671D01*
X147739821Y-103811003D01*
X147748455Y-103808930D01*
X147996239Y-103730566D01*
X148004501Y-103727295D01*
X148238765Y-103614804D01*
X148246489Y-103610398D01*
X148438058Y-103482396D01*
X148446346Y-103472478D01*
X148445434Y-103470697D01*
X149554470Y-103470697D01*
X149561860Y-103480999D01*
X149602394Y-103514000D01*
X149609669Y-103519113D01*
X149832309Y-103653153D01*
X149840233Y-103657189D01*
X150079531Y-103758520D01*
X150087936Y-103761398D01*
X150339140Y-103828002D01*
X150347861Y-103829666D01*
X150605948Y-103860213D01*
X150614813Y-103860631D01*
X150874617Y-103854508D01*
X150883472Y-103853671D01*
X151139821Y-103811003D01*
X151148455Y-103808930D01*
X151396239Y-103730566D01*
X151404501Y-103727295D01*
X151638765Y-103614804D01*
X151646489Y-103610398D01*
X151838058Y-103482396D01*
X151846346Y-103472478D01*
X151839089Y-103458299D01*
X150712812Y-102332022D01*
X150698868Y-102324408D01*
X150697035Y-102324539D01*
X150690420Y-102328790D01*
X149561636Y-103457574D01*
X149554470Y-103470697D01*
X148445434Y-103470697D01*
X148439089Y-103458299D01*
X147312812Y-102332022D01*
X147298868Y-102324408D01*
X147297035Y-102324539D01*
X147290420Y-102328790D01*
X146161636Y-103457574D01*
X146154470Y-103470697D01*
X145000000Y-103470697D01*
X145000000Y-101904682D01*
X145398266Y-101904682D01*
X145408468Y-102164359D01*
X145409443Y-102173188D01*
X145456133Y-102428838D01*
X145458344Y-102437449D01*
X145540586Y-102683956D01*
X145543990Y-102692174D01*
X145660150Y-102924648D01*
X145664668Y-102932287D01*
X145778541Y-103097049D01*
X145788859Y-103105400D01*
X145802514Y-103098276D01*
X146927978Y-101972812D01*
X146934356Y-101961132D01*
X147664408Y-101961132D01*
X147664539Y-101962965D01*
X147668790Y-101969580D01*
X148798418Y-103099208D01*
X148811819Y-103106526D01*
X148821721Y-103099540D01*
X148836570Y-103081875D01*
X148841794Y-103074685D01*
X148892689Y-102993078D01*
X148945709Y-102945862D01*
X149015839Y-102934806D01*
X149080814Y-102963420D01*
X149103254Y-102988117D01*
X149178540Y-103097048D01*
X149188859Y-103105400D01*
X149202514Y-103098276D01*
X150327978Y-101972812D01*
X150334356Y-101961132D01*
X151064408Y-101961132D01*
X151064539Y-101962965D01*
X151068790Y-101969580D01*
X152198418Y-103099208D01*
X152211819Y-103106526D01*
X152221721Y-103099540D01*
X152236570Y-103081875D01*
X152241794Y-103074685D01*
X152379318Y-102854173D01*
X152383470Y-102846333D01*
X152488553Y-102608638D01*
X152491563Y-102600277D01*
X152562101Y-102350166D01*
X152563905Y-102341458D01*
X152598666Y-102082663D01*
X152599194Y-102076270D01*
X152602747Y-101963222D01*
X152602620Y-101956779D01*
X152584180Y-101696335D01*
X152582927Y-101687531D01*
X152528230Y-101433474D01*
X152525751Y-101424941D01*
X152435803Y-101181128D01*
X152432148Y-101173033D01*
X152308741Y-100944319D01*
X152303982Y-100936821D01*
X152220608Y-100823941D01*
X152209480Y-100815499D01*
X152196887Y-100822323D01*
X151072022Y-101947188D01*
X151064408Y-101961132D01*
X150334356Y-101961132D01*
X150335592Y-101958868D01*
X150335461Y-101957035D01*
X150331210Y-101950420D01*
X149202940Y-100822150D01*
X149190099Y-100815138D01*
X149179410Y-100822933D01*
X149128947Y-100886945D01*
X149123957Y-100894288D01*
X149109635Y-100918946D01*
X149058125Y-100967805D01*
X148988377Y-100981060D01*
X148922535Y-100954502D01*
X148899329Y-100930521D01*
X148820608Y-100823941D01*
X148809480Y-100815499D01*
X148796887Y-100822323D01*
X147672022Y-101947188D01*
X147664408Y-101961132D01*
X146934356Y-101961132D01*
X146935592Y-101958868D01*
X146935461Y-101957035D01*
X146931210Y-101950420D01*
X145802940Y-100822150D01*
X145790099Y-100815138D01*
X145779410Y-100822933D01*
X145728947Y-100886945D01*
X145723954Y-100894293D01*
X145593424Y-101119016D01*
X145589520Y-101126986D01*
X145491957Y-101367856D01*
X145489210Y-101376313D01*
X145426562Y-101628518D01*
X145425033Y-101637279D01*
X145398545Y-101895799D01*
X145398266Y-101904682D01*
X145000000Y-101904682D01*
X145000000Y-100449857D01*
X146155214Y-100449857D01*
X146162194Y-100462984D01*
X147287188Y-101587978D01*
X147301132Y-101595592D01*
X147302965Y-101595461D01*
X147309580Y-101591210D01*
X148437668Y-100463122D01*
X148444522Y-100450570D01*
X148443993Y-100449857D01*
X149555214Y-100449857D01*
X149562194Y-100462984D01*
X150687188Y-101587978D01*
X150701132Y-101595592D01*
X150702965Y-101595461D01*
X150709580Y-101591210D01*
X151837668Y-100463122D01*
X151844522Y-100450570D01*
X151836315Y-100439499D01*
X151748247Y-100372288D01*
X151740822Y-100367411D01*
X151514082Y-100240430D01*
X151506030Y-100236641D01*
X151263669Y-100142878D01*
X151255179Y-100140266D01*
X151002010Y-100081585D01*
X150993232Y-100080195D01*
X150734321Y-100057771D01*
X150725450Y-100057631D01*
X150465953Y-100071912D01*
X150457143Y-100073026D01*
X150202262Y-100123724D01*
X150193686Y-100126070D01*
X149948495Y-100212174D01*
X149940329Y-100215708D01*
X149709716Y-100335503D01*
X149702144Y-100340142D01*
X149563616Y-100439136D01*
X149555214Y-100449857D01*
X148443993Y-100449857D01*
X148436315Y-100439499D01*
X148348247Y-100372288D01*
X148340822Y-100367411D01*
X148114082Y-100240430D01*
X148106030Y-100236641D01*
X147863669Y-100142878D01*
X147855179Y-100140266D01*
X147602010Y-100081585D01*
X147593232Y-100080195D01*
X147334321Y-100057771D01*
X147325450Y-100057631D01*
X147065953Y-100071912D01*
X147057143Y-100073026D01*
X146802262Y-100123724D01*
X146793686Y-100126070D01*
X146548495Y-100212174D01*
X146540329Y-100215708D01*
X146309716Y-100335503D01*
X146302144Y-100340142D01*
X146163616Y-100439136D01*
X146155214Y-100449857D01*
X145000000Y-100449857D01*
X145000000Y-99876000D01*
X145020002Y-99807879D01*
X145073658Y-99761386D01*
X145126000Y-99750000D01*
X152874000Y-99750000D01*
X152942121Y-99770002D01*
G37*
G04 #@! TD.AperFunction*
M02*
