G04 #@! TF.GenerationSoftware,KiCad,Pcbnew,(6.0.7)*
G04 #@! TF.CreationDate,2023-01-21T15:41:39-06:00*
G04 #@! TF.ProjectId,Power-Secondary,506f7765-722d-4536-9563-6f6e64617279,rev?*
G04 #@! TF.SameCoordinates,Original*
G04 #@! TF.FileFunction,Copper,L2,Bot*
G04 #@! TF.FilePolarity,Positive*
%FSLAX46Y46*%
G04 Gerber Fmt 4.6, Leading zero omitted, Abs format (unit mm)*
G04 Created by KiCad (PCBNEW (6.0.7)) date 2023-01-21 15:41:39*
%MOMM*%
%LPD*%
G01*
G04 APERTURE LIST*
G04 #@! TA.AperFunction,ComponentPad*
%ADD10R,3.430000X3.780000*%
G04 #@! TD*
G04 #@! TA.AperFunction,ComponentPad*
%ADD11C,2.780000*%
G04 #@! TD*
G04 #@! TA.AperFunction,ComponentPad*
%ADD12C,2.085000*%
G04 #@! TD*
G04 #@! TA.AperFunction,ComponentPad*
%ADD13R,2.085000X2.085000*%
G04 #@! TD*
G04 #@! TA.AperFunction,ComponentPad*
%ADD14R,1.130000X1.130000*%
G04 #@! TD*
G04 #@! TA.AperFunction,ComponentPad*
%ADD15C,1.130000*%
G04 #@! TD*
G04 #@! TA.AperFunction,ViaPad*
%ADD16C,0.800000*%
G04 #@! TD*
G04 #@! TA.AperFunction,Conductor*
%ADD17C,0.500000*%
G04 #@! TD*
G04 #@! TA.AperFunction,Conductor*
%ADD18C,4.000000*%
G04 #@! TD*
G04 APERTURE END LIST*
D10*
X172910000Y-80195000D03*
X176090000Y-80195000D03*
X176090000Y-87685000D03*
X172910000Y-87685000D03*
X119460000Y-111980000D03*
X122640000Y-111980000D03*
X122640000Y-104490000D03*
X119460000Y-104490000D03*
X176050000Y-104470000D03*
X172870000Y-104470000D03*
X172870000Y-111960000D03*
X176050000Y-111960000D03*
D11*
X150700000Y-92040000D03*
X147300000Y-92040000D03*
X150700000Y-101960000D03*
X147300000Y-101960000D03*
D12*
X135790000Y-113640000D03*
X138330000Y-113640000D03*
D13*
X140870000Y-113640000D03*
D12*
X162220000Y-114310000D03*
X159680000Y-114310000D03*
D13*
X157140000Y-114310000D03*
D10*
X122680000Y-87960000D03*
X119500000Y-87960000D03*
X119500000Y-80470000D03*
X122680000Y-80470000D03*
D14*
X140300000Y-106545000D03*
D15*
X140300000Y-104005000D03*
X140300000Y-101465000D03*
X140300000Y-98925000D03*
X132360000Y-98925000D03*
X132360000Y-101465000D03*
X132360000Y-104005000D03*
X132360000Y-106545000D03*
D16*
X165500000Y-85000000D03*
X168000000Y-117500000D03*
X140800000Y-118090000D03*
X152870000Y-121460000D03*
D17*
X157140000Y-110230000D02*
X157140000Y-114310000D01*
X140800000Y-113710000D02*
X140870000Y-113640000D01*
D18*
X122840000Y-104490000D02*
X122640000Y-104490000D01*
X128370000Y-84460000D02*
X128370000Y-87960000D01*
X181870000Y-90960000D02*
X181870000Y-108960000D01*
D17*
X139370000Y-88960000D02*
X138095000Y-87685000D01*
D18*
X181870000Y-108960000D02*
X178870000Y-111960000D01*
D17*
X165500000Y-85000000D02*
X165500000Y-86330000D01*
X165500000Y-86330000D02*
X164145000Y-87685000D01*
D18*
X128370000Y-98960000D02*
X122840000Y-104490000D01*
X124380000Y-80470000D02*
X128370000Y-84460000D01*
X164145000Y-87685000D02*
X138095000Y-87685000D01*
X122680000Y-80470000D02*
X124380000Y-80470000D01*
X135145000Y-87685000D02*
X128645000Y-87685000D01*
X128645000Y-87685000D02*
X128370000Y-87960000D01*
X138095000Y-87685000D02*
X135145000Y-87685000D01*
X176090000Y-87685000D02*
X178595000Y-87685000D01*
X128370000Y-87960000D02*
X128370000Y-98960000D01*
X172910000Y-87685000D02*
X164145000Y-87685000D01*
D17*
X136370000Y-86460000D02*
X135145000Y-87685000D01*
D18*
X178595000Y-87685000D02*
X181870000Y-90960000D01*
X178870000Y-111960000D02*
X176050000Y-111960000D01*
D17*
X169870000Y-107470000D02*
X172870000Y-104470000D01*
X169870000Y-115630000D02*
X169870000Y-107470000D01*
X168000000Y-117500000D02*
X169870000Y-115630000D01*
X140800000Y-118090000D02*
X140800000Y-113710000D01*
X140870000Y-108660000D02*
X140870000Y-113640000D01*
X140300000Y-106545000D02*
X140300000Y-108090000D01*
X140300000Y-108090000D02*
X140870000Y-108660000D01*
X152100000Y-105190000D02*
X157140000Y-110230000D01*
X152870000Y-121460000D02*
X154940000Y-121460000D01*
X154940000Y-121460000D02*
X157140000Y-119260000D01*
X157140000Y-114310000D02*
X157140000Y-119260000D01*
X132360000Y-104005000D02*
X133545000Y-105190000D01*
X133545000Y-105190000D02*
X152100000Y-105190000D01*
X132360000Y-98925000D02*
X135220000Y-98925000D01*
X135220000Y-98925000D02*
X140300000Y-104005000D01*
G04 #@! TA.AperFunction,Conductor*
G36*
X185840018Y-67970000D02*
G01*
X185854851Y-67972310D01*
X185854855Y-67972310D01*
X185863724Y-67973691D01*
X185882436Y-67971244D01*
X185905366Y-67970353D01*
X186176103Y-67984542D01*
X186189209Y-67985919D01*
X186404134Y-68019960D01*
X186485445Y-68032838D01*
X186498345Y-68035580D01*
X186643196Y-68074393D01*
X186788052Y-68113207D01*
X186800586Y-68117279D01*
X187080587Y-68224762D01*
X187092635Y-68230126D01*
X187359870Y-68366289D01*
X187371286Y-68372880D01*
X187622832Y-68536236D01*
X187633495Y-68543984D01*
X187866573Y-68732727D01*
X187876374Y-68741552D01*
X188088448Y-68953626D01*
X188097273Y-68963427D01*
X188226277Y-69122733D01*
X188286016Y-69196505D01*
X188293764Y-69207168D01*
X188457117Y-69458709D01*
X188463711Y-69470130D01*
X188599874Y-69737365D01*
X188605237Y-69749412D01*
X188685020Y-69957250D01*
X188712719Y-70029409D01*
X188716795Y-70041953D01*
X188794420Y-70331655D01*
X188797162Y-70344555D01*
X188839264Y-70610376D01*
X188844080Y-70640785D01*
X188845458Y-70653902D01*
X188859262Y-70917299D01*
X188857935Y-70943276D01*
X188857691Y-70944846D01*
X188857691Y-70944850D01*
X188856309Y-70953724D01*
X188857473Y-70962626D01*
X188857473Y-70962628D01*
X188860436Y-70985283D01*
X188861500Y-71001621D01*
X188861500Y-123910633D01*
X188860000Y-123930018D01*
X188857690Y-123944851D01*
X188857690Y-123944855D01*
X188856309Y-123953724D01*
X188858135Y-123967683D01*
X188858756Y-123972433D01*
X188859647Y-123995366D01*
X188850244Y-124174788D01*
X188845458Y-124266099D01*
X188844081Y-124279209D01*
X188817492Y-124447087D01*
X188797162Y-124575445D01*
X188794420Y-124588345D01*
X188716795Y-124878047D01*
X188712721Y-124890586D01*
X188682103Y-124970347D01*
X188605238Y-125170587D01*
X188599874Y-125182635D01*
X188463711Y-125449870D01*
X188457120Y-125461286D01*
X188293764Y-125712832D01*
X188286018Y-125723492D01*
X188224600Y-125799337D01*
X188097273Y-125956573D01*
X188088448Y-125966374D01*
X187876374Y-126178448D01*
X187866573Y-126187273D01*
X187633495Y-126376016D01*
X187622832Y-126383764D01*
X187371286Y-126547120D01*
X187359870Y-126553711D01*
X187092635Y-126689874D01*
X187080588Y-126695237D01*
X186800586Y-126802721D01*
X186788052Y-126806793D01*
X186643196Y-126845607D01*
X186498345Y-126884420D01*
X186485445Y-126887162D01*
X186404134Y-126900040D01*
X186189209Y-126934081D01*
X186176101Y-126935458D01*
X186100937Y-126939397D01*
X185912701Y-126949262D01*
X185886724Y-126947935D01*
X185885154Y-126947691D01*
X185885150Y-126947691D01*
X185876276Y-126946309D01*
X185867374Y-126947473D01*
X185867372Y-126947473D01*
X185852323Y-126949441D01*
X185844714Y-126950436D01*
X185828379Y-126951500D01*
X109919367Y-126951500D01*
X109899982Y-126950000D01*
X109885149Y-126947690D01*
X109885145Y-126947690D01*
X109876276Y-126946309D01*
X109857564Y-126948756D01*
X109834634Y-126949647D01*
X109563897Y-126935458D01*
X109550791Y-126934081D01*
X109335866Y-126900040D01*
X109254555Y-126887162D01*
X109241655Y-126884420D01*
X109096804Y-126845607D01*
X108951948Y-126806793D01*
X108939414Y-126802721D01*
X108659412Y-126695237D01*
X108647365Y-126689874D01*
X108380130Y-126553711D01*
X108368714Y-126547120D01*
X108117168Y-126383764D01*
X108106505Y-126376016D01*
X107873427Y-126187273D01*
X107863626Y-126178448D01*
X107651552Y-125966374D01*
X107642727Y-125956573D01*
X107515400Y-125799337D01*
X107453982Y-125723492D01*
X107446236Y-125712832D01*
X107282880Y-125461286D01*
X107276289Y-125449870D01*
X107140126Y-125182635D01*
X107134762Y-125170587D01*
X107057897Y-124970347D01*
X107027279Y-124890586D01*
X107023205Y-124878047D01*
X106945580Y-124588345D01*
X106942838Y-124575445D01*
X106922508Y-124447087D01*
X106895919Y-124279209D01*
X106894542Y-124266098D01*
X106880932Y-124006410D01*
X106882505Y-123978915D01*
X106883576Y-123972552D01*
X106883729Y-123960000D01*
X106879773Y-123932376D01*
X106878500Y-123914514D01*
X106878500Y-123889733D01*
X107857822Y-123889733D01*
X107857975Y-123894121D01*
X107857975Y-123894127D01*
X107861511Y-123995368D01*
X107867625Y-124170458D01*
X107868387Y-124174781D01*
X107868388Y-124174788D01*
X107892164Y-124309624D01*
X107916402Y-124447087D01*
X108003203Y-124714235D01*
X108126340Y-124966702D01*
X108128795Y-124970341D01*
X108128798Y-124970347D01*
X108188022Y-125058150D01*
X108283415Y-125199576D01*
X108471371Y-125408322D01*
X108686550Y-125588879D01*
X108924764Y-125737731D01*
X109181375Y-125851982D01*
X109451390Y-125929407D01*
X109455740Y-125930018D01*
X109455743Y-125930019D01*
X109558690Y-125944487D01*
X109729552Y-125968500D01*
X109940146Y-125968500D01*
X109942332Y-125968347D01*
X109942336Y-125968347D01*
X110145827Y-125954118D01*
X110145832Y-125954117D01*
X110150212Y-125953811D01*
X110424970Y-125895409D01*
X110429099Y-125893906D01*
X110429103Y-125893905D01*
X110684781Y-125800846D01*
X110684785Y-125800844D01*
X110688926Y-125799337D01*
X110936942Y-125667464D01*
X111041896Y-125591211D01*
X111160629Y-125504947D01*
X111160632Y-125504944D01*
X111164192Y-125502358D01*
X111366252Y-125307231D01*
X111539188Y-125085882D01*
X111541384Y-125082078D01*
X111541389Y-125082071D01*
X111677435Y-124846431D01*
X111679636Y-124842619D01*
X111784862Y-124582176D01*
X111818544Y-124447087D01*
X111851753Y-124313893D01*
X111851754Y-124313888D01*
X111852817Y-124309624D01*
X111882178Y-124030267D01*
X111881345Y-124006410D01*
X111877271Y-123889733D01*
X183857822Y-123889733D01*
X183857975Y-123894121D01*
X183857975Y-123894127D01*
X183861511Y-123995368D01*
X183867625Y-124170458D01*
X183868387Y-124174781D01*
X183868388Y-124174788D01*
X183892164Y-124309624D01*
X183916402Y-124447087D01*
X184003203Y-124714235D01*
X184126340Y-124966702D01*
X184128795Y-124970341D01*
X184128798Y-124970347D01*
X184188022Y-125058150D01*
X184283415Y-125199576D01*
X184471371Y-125408322D01*
X184686550Y-125588879D01*
X184924764Y-125737731D01*
X185181375Y-125851982D01*
X185451390Y-125929407D01*
X185455740Y-125930018D01*
X185455743Y-125930019D01*
X185558690Y-125944487D01*
X185729552Y-125968500D01*
X185940146Y-125968500D01*
X185942332Y-125968347D01*
X185942336Y-125968347D01*
X186145827Y-125954118D01*
X186145832Y-125954117D01*
X186150212Y-125953811D01*
X186424970Y-125895409D01*
X186429099Y-125893906D01*
X186429103Y-125893905D01*
X186684781Y-125800846D01*
X186684785Y-125800844D01*
X186688926Y-125799337D01*
X186936942Y-125667464D01*
X187041896Y-125591211D01*
X187160629Y-125504947D01*
X187160632Y-125504944D01*
X187164192Y-125502358D01*
X187366252Y-125307231D01*
X187539188Y-125085882D01*
X187541384Y-125082078D01*
X187541389Y-125082071D01*
X187677435Y-124846431D01*
X187679636Y-124842619D01*
X187784862Y-124582176D01*
X187818544Y-124447087D01*
X187851753Y-124313893D01*
X187851754Y-124313888D01*
X187852817Y-124309624D01*
X187882178Y-124030267D01*
X187881345Y-124006410D01*
X187872529Y-123753939D01*
X187872528Y-123753933D01*
X187872375Y-123749542D01*
X187848608Y-123614749D01*
X187824360Y-123477236D01*
X187823598Y-123472913D01*
X187736797Y-123205765D01*
X187613660Y-122953298D01*
X187611205Y-122949659D01*
X187611202Y-122949653D01*
X187530935Y-122830653D01*
X187456585Y-122720424D01*
X187268629Y-122511678D01*
X187053450Y-122331121D01*
X186815236Y-122182269D01*
X186558625Y-122068018D01*
X186288610Y-121990593D01*
X186284260Y-121989982D01*
X186284257Y-121989981D01*
X186181310Y-121975513D01*
X186010448Y-121951500D01*
X185799854Y-121951500D01*
X185797668Y-121951653D01*
X185797664Y-121951653D01*
X185594173Y-121965882D01*
X185594168Y-121965883D01*
X185589788Y-121966189D01*
X185315030Y-122024591D01*
X185310901Y-122026094D01*
X185310897Y-122026095D01*
X185055219Y-122119154D01*
X185055215Y-122119156D01*
X185051074Y-122120663D01*
X184803058Y-122252536D01*
X184799499Y-122255122D01*
X184799497Y-122255123D01*
X184645335Y-122367128D01*
X184575808Y-122417642D01*
X184373748Y-122612769D01*
X184200812Y-122834118D01*
X184198616Y-122837922D01*
X184198611Y-122837929D01*
X184084794Y-123035067D01*
X184060364Y-123077381D01*
X183955138Y-123337824D01*
X183954073Y-123342097D01*
X183954072Y-123342099D01*
X183920379Y-123477236D01*
X183887183Y-123610376D01*
X183857822Y-123889733D01*
X111877271Y-123889733D01*
X111872529Y-123753939D01*
X111872528Y-123753933D01*
X111872375Y-123749542D01*
X111848608Y-123614749D01*
X111824360Y-123477236D01*
X111823598Y-123472913D01*
X111736797Y-123205765D01*
X111613660Y-122953298D01*
X111611205Y-122949659D01*
X111611202Y-122949653D01*
X111530935Y-122830653D01*
X111456585Y-122720424D01*
X111268629Y-122511678D01*
X111053450Y-122331121D01*
X110815236Y-122182269D01*
X110558625Y-122068018D01*
X110288610Y-121990593D01*
X110284260Y-121989982D01*
X110284257Y-121989981D01*
X110181310Y-121975513D01*
X110010448Y-121951500D01*
X109799854Y-121951500D01*
X109797668Y-121951653D01*
X109797664Y-121951653D01*
X109594173Y-121965882D01*
X109594168Y-121965883D01*
X109589788Y-121966189D01*
X109315030Y-122024591D01*
X109310901Y-122026094D01*
X109310897Y-122026095D01*
X109055219Y-122119154D01*
X109055215Y-122119156D01*
X109051074Y-122120663D01*
X108803058Y-122252536D01*
X108799499Y-122255122D01*
X108799497Y-122255123D01*
X108645335Y-122367128D01*
X108575808Y-122417642D01*
X108373748Y-122612769D01*
X108200812Y-122834118D01*
X108198616Y-122837922D01*
X108198611Y-122837929D01*
X108084794Y-123035067D01*
X108060364Y-123077381D01*
X107955138Y-123337824D01*
X107954073Y-123342097D01*
X107954072Y-123342099D01*
X107920379Y-123477236D01*
X107887183Y-123610376D01*
X107857822Y-123889733D01*
X106878500Y-123889733D01*
X106878500Y-113918134D01*
X117236500Y-113918134D01*
X117243255Y-113980316D01*
X117294385Y-114116705D01*
X117381739Y-114233261D01*
X117498295Y-114320615D01*
X117634684Y-114371745D01*
X117696866Y-114378500D01*
X124403134Y-114378500D01*
X124465316Y-114371745D01*
X124601705Y-114320615D01*
X124718261Y-114233261D01*
X124805615Y-114116705D01*
X124856745Y-113980316D01*
X124863500Y-113918134D01*
X124863500Y-110041866D01*
X124856745Y-109979684D01*
X124805615Y-109843295D01*
X124718261Y-109726739D01*
X124601705Y-109639385D01*
X124465316Y-109588255D01*
X124403134Y-109581500D01*
X117696866Y-109581500D01*
X117634684Y-109588255D01*
X117498295Y-109639385D01*
X117381739Y-109726739D01*
X117294385Y-109843295D01*
X117243255Y-109979684D01*
X117236500Y-110041866D01*
X117236500Y-113918134D01*
X106878500Y-113918134D01*
X106878500Y-106424669D01*
X117237001Y-106424669D01*
X117237371Y-106431490D01*
X117242895Y-106482352D01*
X117246521Y-106497604D01*
X117291676Y-106618054D01*
X117300214Y-106633649D01*
X117376715Y-106735724D01*
X117389276Y-106748285D01*
X117491351Y-106824786D01*
X117506946Y-106833324D01*
X117627394Y-106878478D01*
X117642649Y-106882105D01*
X117693514Y-106887631D01*
X117700328Y-106888000D01*
X119187885Y-106888000D01*
X119203124Y-106883525D01*
X119204329Y-106882135D01*
X119206000Y-106874452D01*
X119206000Y-106869884D01*
X119714000Y-106869884D01*
X119718475Y-106885123D01*
X119719865Y-106886328D01*
X119727548Y-106887999D01*
X120876895Y-106887999D01*
X120876927Y-106888000D01*
X122367885Y-106888000D01*
X122383124Y-106883525D01*
X122384329Y-106882135D01*
X122386000Y-106874452D01*
X122386000Y-106869884D01*
X122894000Y-106869884D01*
X122898475Y-106885123D01*
X122899865Y-106886328D01*
X122907548Y-106887999D01*
X124399669Y-106887999D01*
X124406490Y-106887629D01*
X124457352Y-106882105D01*
X124472604Y-106878479D01*
X124593054Y-106833324D01*
X124608649Y-106824786D01*
X124710724Y-106748285D01*
X124723285Y-106735724D01*
X124799786Y-106633649D01*
X124808324Y-106618054D01*
X124846290Y-106516779D01*
X131282270Y-106516779D01*
X131295174Y-106713652D01*
X131343739Y-106904877D01*
X131426339Y-107084049D01*
X131540207Y-107245169D01*
X131544341Y-107249196D01*
X131668509Y-107370155D01*
X131681530Y-107382840D01*
X131686326Y-107386045D01*
X131686329Y-107386047D01*
X131751809Y-107429799D01*
X131845576Y-107492452D01*
X131850879Y-107494730D01*
X131850882Y-107494732D01*
X132004230Y-107560615D01*
X132026849Y-107570333D01*
X132120185Y-107591453D01*
X132213644Y-107612601D01*
X132213647Y-107612601D01*
X132219280Y-107613876D01*
X132225051Y-107614103D01*
X132225053Y-107614103D01*
X132284054Y-107616421D01*
X132416423Y-107621622D01*
X132531789Y-107604894D01*
X132605955Y-107594141D01*
X132605959Y-107594140D01*
X132611677Y-107593311D01*
X132617149Y-107591453D01*
X132617151Y-107591453D01*
X132793038Y-107531747D01*
X132793040Y-107531746D01*
X132798502Y-107529892D01*
X132970642Y-107433490D01*
X132999569Y-107409432D01*
X133117899Y-107311017D01*
X133122331Y-107307331D01*
X133248490Y-107155642D01*
X133344892Y-106983502D01*
X133350202Y-106967861D01*
X133406453Y-106802151D01*
X133406453Y-106802149D01*
X133408311Y-106796677D01*
X133436622Y-106601423D01*
X133438099Y-106545000D01*
X133420046Y-106348532D01*
X133410684Y-106315334D01*
X133368060Y-106164203D01*
X133368059Y-106164201D01*
X133366492Y-106158644D01*
X133356286Y-106137947D01*
X133352867Y-106131015D01*
X133340677Y-106061073D01*
X133368237Y-105995643D01*
X133426795Y-105955500D01*
X133474444Y-105950084D01*
X133477115Y-105950640D01*
X133554520Y-105948546D01*
X133557928Y-105948500D01*
X139100500Y-105948500D01*
X139168621Y-105968502D01*
X139215114Y-106022158D01*
X139226500Y-106074500D01*
X139226500Y-107158134D01*
X139233255Y-107220316D01*
X139284385Y-107356705D01*
X139371739Y-107473261D01*
X139449777Y-107531747D01*
X139488295Y-107560615D01*
X139486526Y-107562975D01*
X139526162Y-107602710D01*
X139541500Y-107662958D01*
X139541500Y-108022930D01*
X139540067Y-108041880D01*
X139536801Y-108063349D01*
X139537394Y-108070641D01*
X139537394Y-108070644D01*
X139541085Y-108116018D01*
X139541500Y-108126233D01*
X139541500Y-108134293D01*
X139541925Y-108137937D01*
X139544789Y-108162507D01*
X139545222Y-108166882D01*
X139551140Y-108239637D01*
X139553396Y-108246601D01*
X139554587Y-108252560D01*
X139555971Y-108258415D01*
X139556818Y-108265681D01*
X139581735Y-108334327D01*
X139583152Y-108338455D01*
X139605649Y-108407899D01*
X139609445Y-108414154D01*
X139611951Y-108419628D01*
X139614670Y-108425058D01*
X139617167Y-108431937D01*
X139621180Y-108438057D01*
X139621180Y-108438058D01*
X139657186Y-108492976D01*
X139659523Y-108496680D01*
X139697405Y-108559107D01*
X139701121Y-108563315D01*
X139701122Y-108563316D01*
X139704803Y-108567484D01*
X139704776Y-108567508D01*
X139707429Y-108570500D01*
X139710132Y-108573733D01*
X139714144Y-108579852D01*
X139722214Y-108587497D01*
X139770383Y-108633128D01*
X139772825Y-108635506D01*
X140074595Y-108937276D01*
X140108621Y-108999588D01*
X140111500Y-109026371D01*
X140111500Y-111963000D01*
X140091498Y-112031121D01*
X140037842Y-112077614D01*
X139985500Y-112089000D01*
X139779366Y-112089000D01*
X139717184Y-112095755D01*
X139580795Y-112146885D01*
X139464239Y-112234239D01*
X139458858Y-112241419D01*
X139458857Y-112241420D01*
X139388346Y-112335502D01*
X139331486Y-112378017D01*
X139260668Y-112383042D01*
X139221685Y-112367370D01*
X139040537Y-112256362D01*
X139036317Y-112253776D01*
X139031747Y-112251883D01*
X139031743Y-112251881D01*
X138815340Y-112162244D01*
X138815338Y-112162243D01*
X138810767Y-112160350D01*
X138727342Y-112140321D01*
X138578193Y-112104513D01*
X138578187Y-112104512D01*
X138573380Y-112103358D01*
X138330000Y-112084204D01*
X138086620Y-112103358D01*
X138081813Y-112104512D01*
X138081807Y-112104513D01*
X137932658Y-112140321D01*
X137849233Y-112160350D01*
X137844662Y-112162243D01*
X137844660Y-112162244D01*
X137628257Y-112251881D01*
X137628253Y-112251883D01*
X137623683Y-112253776D01*
X137415526Y-112381335D01*
X137229886Y-112539886D01*
X137226673Y-112543648D01*
X137155811Y-112626617D01*
X137096361Y-112665427D01*
X137025366Y-112665934D01*
X136964189Y-112626617D01*
X136893327Y-112543648D01*
X136890114Y-112539886D01*
X136704474Y-112381335D01*
X136496317Y-112253776D01*
X136491747Y-112251883D01*
X136491743Y-112251881D01*
X136275340Y-112162244D01*
X136275338Y-112162243D01*
X136270767Y-112160350D01*
X136187342Y-112140321D01*
X136038193Y-112104513D01*
X136038187Y-112104512D01*
X136033380Y-112103358D01*
X135790000Y-112084204D01*
X135546620Y-112103358D01*
X135541813Y-112104512D01*
X135541807Y-112104513D01*
X135392658Y-112140321D01*
X135309233Y-112160350D01*
X135304662Y-112162243D01*
X135304660Y-112162244D01*
X135088257Y-112251881D01*
X135088253Y-112251883D01*
X135083683Y-112253776D01*
X134875526Y-112381335D01*
X134689886Y-112539886D01*
X134531335Y-112725526D01*
X134403776Y-112933683D01*
X134401883Y-112938253D01*
X134401881Y-112938257D01*
X134314263Y-113149785D01*
X134310350Y-113159233D01*
X134309195Y-113164045D01*
X134254513Y-113391807D01*
X134254512Y-113391813D01*
X134253358Y-113396620D01*
X134234204Y-113640000D01*
X134253358Y-113883380D01*
X134254512Y-113888187D01*
X134254513Y-113888193D01*
X134273579Y-113967606D01*
X134310350Y-114120767D01*
X134312243Y-114125338D01*
X134312244Y-114125340D01*
X134385968Y-114303324D01*
X134403776Y-114346317D01*
X134531335Y-114554474D01*
X134689886Y-114740114D01*
X134875526Y-114898665D01*
X135083683Y-115026224D01*
X135088253Y-115028117D01*
X135088257Y-115028119D01*
X135304660Y-115117756D01*
X135309233Y-115119650D01*
X135378447Y-115136267D01*
X135541807Y-115175487D01*
X135541813Y-115175488D01*
X135546620Y-115176642D01*
X135790000Y-115195796D01*
X136033380Y-115176642D01*
X136038187Y-115175488D01*
X136038193Y-115175487D01*
X136201553Y-115136267D01*
X136270767Y-115119650D01*
X136275340Y-115117756D01*
X136491743Y-115028119D01*
X136491747Y-115028117D01*
X136496317Y-115026224D01*
X136704474Y-114898665D01*
X136890114Y-114740114D01*
X136964189Y-114653383D01*
X137023639Y-114614573D01*
X137094634Y-114614066D01*
X137155811Y-114653383D01*
X137229886Y-114740114D01*
X137415526Y-114898665D01*
X137623683Y-115026224D01*
X137628253Y-115028117D01*
X137628257Y-115028119D01*
X137844660Y-115117756D01*
X137849233Y-115119650D01*
X137918447Y-115136267D01*
X138081807Y-115175487D01*
X138081813Y-115175488D01*
X138086620Y-115176642D01*
X138330000Y-115195796D01*
X138573380Y-115176642D01*
X138578187Y-115175488D01*
X138578193Y-115175487D01*
X138741553Y-115136267D01*
X138810767Y-115119650D01*
X138815340Y-115117756D01*
X139031743Y-115028119D01*
X139031747Y-115028117D01*
X139036317Y-115026224D01*
X139221685Y-114912630D01*
X139290219Y-114894092D01*
X139357895Y-114915548D01*
X139388346Y-114944498D01*
X139447659Y-115023638D01*
X139464239Y-115045761D01*
X139580795Y-115133115D01*
X139717184Y-115184245D01*
X139779366Y-115191000D01*
X139915500Y-115191000D01*
X139983621Y-115211002D01*
X140030114Y-115264658D01*
X140041500Y-115317000D01*
X140041500Y-117553001D01*
X140024619Y-117616000D01*
X139965473Y-117718444D01*
X139906458Y-117900072D01*
X139886496Y-118090000D01*
X139906458Y-118279928D01*
X139965473Y-118461556D01*
X140060960Y-118626944D01*
X140188747Y-118768866D01*
X140343248Y-118881118D01*
X140349276Y-118883802D01*
X140349278Y-118883803D01*
X140511681Y-118956109D01*
X140517712Y-118958794D01*
X140611112Y-118978647D01*
X140698056Y-118997128D01*
X140698061Y-118997128D01*
X140704513Y-118998500D01*
X140895487Y-118998500D01*
X140901939Y-118997128D01*
X140901944Y-118997128D01*
X140988888Y-118978647D01*
X141082288Y-118958794D01*
X141088319Y-118956109D01*
X141250722Y-118883803D01*
X141250724Y-118883802D01*
X141256752Y-118881118D01*
X141411253Y-118768866D01*
X141539040Y-118626944D01*
X141634527Y-118461556D01*
X141693542Y-118279928D01*
X141713504Y-118090000D01*
X141693542Y-117900072D01*
X141634527Y-117718444D01*
X141575381Y-117616000D01*
X141558500Y-117553001D01*
X141558500Y-115317000D01*
X141578502Y-115248879D01*
X141632158Y-115202386D01*
X141684500Y-115191000D01*
X141960634Y-115191000D01*
X142022816Y-115184245D01*
X142159205Y-115133115D01*
X142275761Y-115045761D01*
X142363115Y-114929205D01*
X142414245Y-114792816D01*
X142421000Y-114730634D01*
X142421000Y-112549366D01*
X142414245Y-112487184D01*
X142363115Y-112350795D01*
X142275761Y-112234239D01*
X142159205Y-112146885D01*
X142022816Y-112095755D01*
X141960634Y-112089000D01*
X141754500Y-112089000D01*
X141686379Y-112068998D01*
X141639886Y-112015342D01*
X141628500Y-111963000D01*
X141628500Y-108727070D01*
X141629933Y-108708120D01*
X141632099Y-108693885D01*
X141632099Y-108693881D01*
X141633199Y-108686651D01*
X141628915Y-108633982D01*
X141628500Y-108623767D01*
X141628500Y-108615707D01*
X141625209Y-108587480D01*
X141624778Y-108583121D01*
X141623797Y-108571062D01*
X141618860Y-108510364D01*
X141616605Y-108503403D01*
X141615418Y-108497463D01*
X141614029Y-108491588D01*
X141613182Y-108484319D01*
X141588264Y-108415670D01*
X141586847Y-108411542D01*
X141566607Y-108349064D01*
X141566606Y-108349062D01*
X141564351Y-108342101D01*
X141560555Y-108335846D01*
X141558049Y-108330372D01*
X141555330Y-108324942D01*
X141552833Y-108318063D01*
X141512814Y-108257024D01*
X141510467Y-108253305D01*
X141510015Y-108252560D01*
X141472595Y-108190893D01*
X141465197Y-108182516D01*
X141465224Y-108182492D01*
X141462571Y-108179500D01*
X141459868Y-108176267D01*
X141455856Y-108170148D01*
X141399617Y-108116872D01*
X141397175Y-108114494D01*
X141095405Y-107812724D01*
X141061379Y-107750412D01*
X141058500Y-107723629D01*
X141058500Y-107662958D01*
X141078502Y-107594837D01*
X141113148Y-107562540D01*
X141111705Y-107560615D01*
X141150223Y-107531747D01*
X141228261Y-107473261D01*
X141315615Y-107356705D01*
X141366745Y-107220316D01*
X141373500Y-107158134D01*
X141373500Y-106074500D01*
X141393502Y-106006379D01*
X141447158Y-105959886D01*
X141499500Y-105948500D01*
X151733629Y-105948500D01*
X151801750Y-105968502D01*
X151822724Y-105985405D01*
X156344595Y-110507276D01*
X156378621Y-110569588D01*
X156381500Y-110596371D01*
X156381500Y-112633000D01*
X156361498Y-112701121D01*
X156307842Y-112747614D01*
X156255500Y-112759000D01*
X156049366Y-112759000D01*
X155987184Y-112765755D01*
X155850795Y-112816885D01*
X155734239Y-112904239D01*
X155646885Y-113020795D01*
X155595755Y-113157184D01*
X155589000Y-113219366D01*
X155589000Y-115400634D01*
X155595755Y-115462816D01*
X155646885Y-115599205D01*
X155734239Y-115715761D01*
X155850795Y-115803115D01*
X155987184Y-115854245D01*
X156049366Y-115861000D01*
X156255500Y-115861000D01*
X156323621Y-115881002D01*
X156370114Y-115934658D01*
X156381500Y-115987000D01*
X156381500Y-118893629D01*
X156361498Y-118961750D01*
X156344595Y-118982724D01*
X154662724Y-120664595D01*
X154600412Y-120698621D01*
X154573629Y-120701500D01*
X153412587Y-120701500D01*
X153338528Y-120677437D01*
X153332098Y-120672765D01*
X153332091Y-120672761D01*
X153326752Y-120668882D01*
X153320724Y-120666198D01*
X153320722Y-120666197D01*
X153158319Y-120593891D01*
X153158318Y-120593891D01*
X153152288Y-120591206D01*
X153058887Y-120571353D01*
X152971944Y-120552872D01*
X152971939Y-120552872D01*
X152965487Y-120551500D01*
X152774513Y-120551500D01*
X152768061Y-120552872D01*
X152768056Y-120552872D01*
X152681113Y-120571353D01*
X152587712Y-120591206D01*
X152581682Y-120593891D01*
X152581681Y-120593891D01*
X152419278Y-120666197D01*
X152419276Y-120666198D01*
X152413248Y-120668882D01*
X152407907Y-120672762D01*
X152407906Y-120672763D01*
X152401473Y-120677437D01*
X152258747Y-120781134D01*
X152130960Y-120923056D01*
X152035473Y-121088444D01*
X151976458Y-121270072D01*
X151956496Y-121460000D01*
X151976458Y-121649928D01*
X152035473Y-121831556D01*
X152130960Y-121996944D01*
X152135378Y-122001851D01*
X152135379Y-122001852D01*
X152226286Y-122102814D01*
X152258747Y-122138866D01*
X152311025Y-122176848D01*
X152407904Y-122247235D01*
X152413248Y-122251118D01*
X152419276Y-122253802D01*
X152419278Y-122253803D01*
X152422243Y-122255123D01*
X152587712Y-122328794D01*
X152681112Y-122348647D01*
X152768056Y-122367128D01*
X152768061Y-122367128D01*
X152774513Y-122368500D01*
X152965487Y-122368500D01*
X152971939Y-122367128D01*
X152971944Y-122367128D01*
X153058888Y-122348647D01*
X153152288Y-122328794D01*
X153317757Y-122255123D01*
X153320722Y-122253803D01*
X153320724Y-122253802D01*
X153326752Y-122251118D01*
X153332091Y-122247239D01*
X153332098Y-122247235D01*
X153338528Y-122242563D01*
X153412587Y-122218500D01*
X154872930Y-122218500D01*
X154891880Y-122219933D01*
X154906115Y-122222099D01*
X154906119Y-122222099D01*
X154913349Y-122223199D01*
X154920641Y-122222606D01*
X154920644Y-122222606D01*
X154966018Y-122218915D01*
X154976233Y-122218500D01*
X154984293Y-122218500D01*
X154997583Y-122216951D01*
X155012507Y-122215211D01*
X155016882Y-122214778D01*
X155082339Y-122209454D01*
X155082342Y-122209453D01*
X155089637Y-122208860D01*
X155096601Y-122206604D01*
X155102560Y-122205413D01*
X155108415Y-122204029D01*
X155115681Y-122203182D01*
X155184327Y-122178265D01*
X155188455Y-122176848D01*
X155250936Y-122156607D01*
X155250938Y-122156606D01*
X155257899Y-122154351D01*
X155264154Y-122150555D01*
X155269628Y-122148049D01*
X155275058Y-122145330D01*
X155281937Y-122142833D01*
X155295478Y-122133955D01*
X155342976Y-122102814D01*
X155346680Y-122100477D01*
X155409107Y-122062595D01*
X155417484Y-122055197D01*
X155417508Y-122055224D01*
X155420500Y-122052571D01*
X155423733Y-122049868D01*
X155429852Y-122045856D01*
X155483128Y-121989617D01*
X155485506Y-121987175D01*
X157628907Y-119843773D01*
X157643319Y-119831387D01*
X157654917Y-119822851D01*
X157654919Y-119822850D01*
X157660818Y-119818508D01*
X157665557Y-119812930D01*
X157665560Y-119812927D01*
X157695041Y-119778225D01*
X157701971Y-119770709D01*
X157707660Y-119765020D01*
X157709918Y-119762166D01*
X157709927Y-119762156D01*
X157725274Y-119742758D01*
X157728062Y-119739358D01*
X157770595Y-119689293D01*
X157770598Y-119689289D01*
X157775333Y-119683715D01*
X157778660Y-119677200D01*
X157782019Y-119672163D01*
X157785192Y-119667025D01*
X157789734Y-119661284D01*
X157820655Y-119595125D01*
X157822561Y-119591225D01*
X157855769Y-119526192D01*
X157857508Y-119519083D01*
X157859604Y-119513449D01*
X157861523Y-119507679D01*
X157864622Y-119501050D01*
X157879491Y-119429565D01*
X157880461Y-119425282D01*
X157896473Y-119359844D01*
X157897808Y-119354390D01*
X157898500Y-119343236D01*
X157898535Y-119343238D01*
X157898775Y-119339266D01*
X157899152Y-119335045D01*
X157900641Y-119327885D01*
X157898546Y-119250458D01*
X157898500Y-119247050D01*
X157898500Y-117500000D01*
X167086496Y-117500000D01*
X167106458Y-117689928D01*
X167165473Y-117871556D01*
X167260960Y-118036944D01*
X167265378Y-118041851D01*
X167265379Y-118041852D01*
X167308732Y-118090000D01*
X167388747Y-118178866D01*
X167543248Y-118291118D01*
X167549276Y-118293802D01*
X167549278Y-118293803D01*
X167711681Y-118366109D01*
X167717712Y-118368794D01*
X167811113Y-118388647D01*
X167898056Y-118407128D01*
X167898061Y-118407128D01*
X167904513Y-118408500D01*
X168095487Y-118408500D01*
X168101939Y-118407128D01*
X168101944Y-118407128D01*
X168188887Y-118388647D01*
X168282288Y-118368794D01*
X168288319Y-118366109D01*
X168450722Y-118293803D01*
X168450724Y-118293802D01*
X168456752Y-118291118D01*
X168611253Y-118178866D01*
X168691268Y-118090000D01*
X168734621Y-118041852D01*
X168734622Y-118041851D01*
X168739040Y-118036944D01*
X168834527Y-117871556D01*
X168889387Y-117702714D01*
X168920125Y-117652556D01*
X170358911Y-116213770D01*
X170373323Y-116201384D01*
X170384918Y-116192851D01*
X170384923Y-116192846D01*
X170390818Y-116188508D01*
X170395557Y-116182930D01*
X170395560Y-116182927D01*
X170425035Y-116148232D01*
X170431965Y-116140716D01*
X170437660Y-116135021D01*
X170455281Y-116112749D01*
X170458072Y-116109345D01*
X170500591Y-116059297D01*
X170500592Y-116059295D01*
X170505333Y-116053715D01*
X170508661Y-116047199D01*
X170512028Y-116042150D01*
X170515195Y-116037021D01*
X170519734Y-116031284D01*
X170550655Y-115965125D01*
X170552561Y-115961225D01*
X170574184Y-115918879D01*
X170585769Y-115896192D01*
X170587508Y-115889084D01*
X170589607Y-115883441D01*
X170591524Y-115877678D01*
X170594622Y-115871050D01*
X170598118Y-115854245D01*
X170609486Y-115799588D01*
X170610457Y-115795299D01*
X170626473Y-115729845D01*
X170627808Y-115724390D01*
X170628500Y-115713236D01*
X170628536Y-115713238D01*
X170628775Y-115709245D01*
X170629149Y-115705053D01*
X170630640Y-115697885D01*
X170628546Y-115620479D01*
X170628500Y-115617072D01*
X170628500Y-114342186D01*
X170648502Y-114274065D01*
X170702158Y-114227572D01*
X170772432Y-114217468D01*
X170830065Y-114241360D01*
X170901351Y-114294786D01*
X170916946Y-114303324D01*
X171037394Y-114348478D01*
X171052649Y-114352105D01*
X171103514Y-114357631D01*
X171110328Y-114358000D01*
X172597885Y-114358000D01*
X172613124Y-114353525D01*
X172614329Y-114352135D01*
X172616000Y-114344452D01*
X172616000Y-114339884D01*
X173124000Y-114339884D01*
X173128475Y-114355123D01*
X173129865Y-114356328D01*
X173137548Y-114357999D01*
X174286895Y-114357999D01*
X174286927Y-114358000D01*
X175777885Y-114358000D01*
X175793124Y-114353525D01*
X175794329Y-114352135D01*
X175796000Y-114344452D01*
X175796000Y-114339884D01*
X176304000Y-114339884D01*
X176308475Y-114355123D01*
X176309865Y-114356328D01*
X176317548Y-114357999D01*
X177809669Y-114357999D01*
X177816490Y-114357629D01*
X177867352Y-114352105D01*
X177882604Y-114348479D01*
X178003054Y-114303324D01*
X178018649Y-114294786D01*
X178120724Y-114218285D01*
X178133285Y-114205724D01*
X178209786Y-114103649D01*
X178218324Y-114088054D01*
X178263478Y-113967606D01*
X178267105Y-113952351D01*
X178272631Y-113901486D01*
X178273000Y-113894672D01*
X178273000Y-112232115D01*
X178268525Y-112216876D01*
X178267135Y-112215671D01*
X178259452Y-112214000D01*
X176322115Y-112214000D01*
X176306876Y-112218475D01*
X176305671Y-112219865D01*
X176304000Y-112227548D01*
X176304000Y-114339884D01*
X175796000Y-114339884D01*
X175796000Y-112232115D01*
X175791525Y-112216876D01*
X175790135Y-112215671D01*
X175782452Y-112214000D01*
X173142115Y-112214000D01*
X173126876Y-112218475D01*
X173125671Y-112219865D01*
X173124000Y-112227548D01*
X173124000Y-114339884D01*
X172616000Y-114339884D01*
X172616000Y-111687885D01*
X173124000Y-111687885D01*
X173128475Y-111703124D01*
X173129865Y-111704329D01*
X173137548Y-111706000D01*
X175777885Y-111706000D01*
X175793124Y-111701525D01*
X175794329Y-111700135D01*
X175796000Y-111692452D01*
X175796000Y-111687885D01*
X176304000Y-111687885D01*
X176308475Y-111703124D01*
X176309865Y-111704329D01*
X176317548Y-111706000D01*
X178254884Y-111706000D01*
X178270123Y-111701525D01*
X178271328Y-111700135D01*
X178272999Y-111692452D01*
X178272999Y-110025331D01*
X178272629Y-110018510D01*
X178267105Y-109967648D01*
X178263479Y-109952396D01*
X178218324Y-109831946D01*
X178209786Y-109816351D01*
X178133285Y-109714276D01*
X178120724Y-109701715D01*
X178018649Y-109625214D01*
X178003054Y-109616676D01*
X177882606Y-109571522D01*
X177867351Y-109567895D01*
X177816486Y-109562369D01*
X177809672Y-109562000D01*
X176322115Y-109562000D01*
X176306876Y-109566475D01*
X176305671Y-109567865D01*
X176304000Y-109575548D01*
X176304000Y-111687885D01*
X175796000Y-111687885D01*
X175796000Y-109580116D01*
X175791525Y-109564877D01*
X175790135Y-109563672D01*
X175782452Y-109562001D01*
X174633105Y-109562001D01*
X174633073Y-109562000D01*
X173142115Y-109562000D01*
X173126876Y-109566475D01*
X173125671Y-109567865D01*
X173124000Y-109575548D01*
X173124000Y-111687885D01*
X172616000Y-111687885D01*
X172616000Y-109580116D01*
X172611525Y-109564877D01*
X172610135Y-109563672D01*
X172602452Y-109562001D01*
X171110331Y-109562001D01*
X171103510Y-109562371D01*
X171052648Y-109567895D01*
X171037396Y-109571521D01*
X170916946Y-109616676D01*
X170901351Y-109625214D01*
X170830065Y-109678640D01*
X170763558Y-109703488D01*
X170694176Y-109688435D01*
X170643946Y-109638261D01*
X170628500Y-109577814D01*
X170628500Y-107836371D01*
X170648502Y-107768250D01*
X170665405Y-107747276D01*
X171507276Y-106905405D01*
X171569588Y-106871379D01*
X171596371Y-106868500D01*
X177813134Y-106868500D01*
X177875316Y-106861745D01*
X178011705Y-106810615D01*
X178128261Y-106723261D01*
X178215615Y-106606705D01*
X178266745Y-106470316D01*
X178273500Y-106408134D01*
X178273500Y-102531866D01*
X178266745Y-102469684D01*
X178215615Y-102333295D01*
X178128261Y-102216739D01*
X178011705Y-102129385D01*
X177875316Y-102078255D01*
X177813134Y-102071500D01*
X171106866Y-102071500D01*
X171044684Y-102078255D01*
X170908295Y-102129385D01*
X170791739Y-102216739D01*
X170704385Y-102333295D01*
X170653255Y-102469684D01*
X170646500Y-102531866D01*
X170646500Y-105568629D01*
X170626498Y-105636750D01*
X170609595Y-105657724D01*
X169381089Y-106886230D01*
X169366677Y-106898616D01*
X169355082Y-106907149D01*
X169355077Y-106907154D01*
X169349182Y-106911492D01*
X169344443Y-106917070D01*
X169344440Y-106917073D01*
X169314965Y-106951768D01*
X169308035Y-106959284D01*
X169302340Y-106964979D01*
X169300060Y-106967861D01*
X169284719Y-106987251D01*
X169281928Y-106990655D01*
X169239409Y-107040703D01*
X169234667Y-107046285D01*
X169231339Y-107052801D01*
X169227972Y-107057850D01*
X169224805Y-107062979D01*
X169220266Y-107068716D01*
X169189345Y-107134875D01*
X169187442Y-107138769D01*
X169154231Y-107203808D01*
X169152492Y-107210916D01*
X169150393Y-107216559D01*
X169148476Y-107222322D01*
X169145378Y-107228950D01*
X169143888Y-107236112D01*
X169143888Y-107236113D01*
X169130514Y-107300412D01*
X169129544Y-107304696D01*
X169112192Y-107375610D01*
X169111500Y-107386764D01*
X169111464Y-107386762D01*
X169111225Y-107390755D01*
X169110851Y-107394947D01*
X169109360Y-107402115D01*
X169109558Y-107409432D01*
X169111454Y-107479521D01*
X169111500Y-107482928D01*
X169111500Y-115263629D01*
X169091498Y-115331750D01*
X169074595Y-115352724D01*
X167843669Y-116583650D01*
X167780772Y-116617801D01*
X167724176Y-116629831D01*
X167724167Y-116629834D01*
X167717712Y-116631206D01*
X167711682Y-116633891D01*
X167711681Y-116633891D01*
X167549278Y-116706197D01*
X167549276Y-116706198D01*
X167543248Y-116708882D01*
X167388747Y-116821134D01*
X167260960Y-116963056D01*
X167165473Y-117128444D01*
X167106458Y-117310072D01*
X167086496Y-117500000D01*
X157898500Y-117500000D01*
X157898500Y-115987000D01*
X157918502Y-115918879D01*
X157972158Y-115872386D01*
X158024500Y-115861000D01*
X158230634Y-115861000D01*
X158292816Y-115854245D01*
X158429205Y-115803115D01*
X158545761Y-115715761D01*
X158558983Y-115698119D01*
X158621654Y-115614498D01*
X158678514Y-115571983D01*
X158749332Y-115566958D01*
X158788314Y-115582630D01*
X158973683Y-115696224D01*
X158978253Y-115698117D01*
X158978257Y-115698119D01*
X159194660Y-115787756D01*
X159199233Y-115789650D01*
X159268447Y-115806267D01*
X159431807Y-115845487D01*
X159431813Y-115845488D01*
X159436620Y-115846642D01*
X159680000Y-115865796D01*
X159923380Y-115846642D01*
X159928187Y-115845488D01*
X159928193Y-115845487D01*
X160091553Y-115806267D01*
X160160767Y-115789650D01*
X160165340Y-115787756D01*
X160381743Y-115698119D01*
X160381747Y-115698117D01*
X160386317Y-115696224D01*
X160594474Y-115568665D01*
X160780114Y-115410114D01*
X160854189Y-115323383D01*
X160913639Y-115284573D01*
X160984634Y-115284066D01*
X161045811Y-115323383D01*
X161119886Y-115410114D01*
X161305526Y-115568665D01*
X161513683Y-115696224D01*
X161518253Y-115698117D01*
X161518257Y-115698119D01*
X161734660Y-115787756D01*
X161739233Y-115789650D01*
X161808447Y-115806267D01*
X161971807Y-115845487D01*
X161971813Y-115845488D01*
X161976620Y-115846642D01*
X162220000Y-115865796D01*
X162463380Y-115846642D01*
X162468187Y-115845488D01*
X162468193Y-115845487D01*
X162631553Y-115806267D01*
X162700767Y-115789650D01*
X162705340Y-115787756D01*
X162921743Y-115698119D01*
X162921747Y-115698117D01*
X162926317Y-115696224D01*
X163134474Y-115568665D01*
X163320114Y-115410114D01*
X163478665Y-115224474D01*
X163606224Y-115016317D01*
X163635973Y-114944498D01*
X163697756Y-114795340D01*
X163697757Y-114795338D01*
X163699650Y-114790767D01*
X163741951Y-114614573D01*
X163755487Y-114558193D01*
X163755488Y-114558187D01*
X163756642Y-114553380D01*
X163775796Y-114310000D01*
X163756642Y-114066620D01*
X163755488Y-114061813D01*
X163755487Y-114061807D01*
X163700805Y-113834045D01*
X163699650Y-113829233D01*
X163606224Y-113603683D01*
X163478665Y-113395526D01*
X163320114Y-113209886D01*
X163134474Y-113051335D01*
X162926317Y-112923776D01*
X162921747Y-112921883D01*
X162921743Y-112921881D01*
X162705340Y-112832244D01*
X162705338Y-112832243D01*
X162700767Y-112830350D01*
X162617342Y-112810321D01*
X162468193Y-112774513D01*
X162468187Y-112774512D01*
X162463380Y-112773358D01*
X162220000Y-112754204D01*
X161976620Y-112773358D01*
X161971813Y-112774512D01*
X161971807Y-112774513D01*
X161822658Y-112810321D01*
X161739233Y-112830350D01*
X161734662Y-112832243D01*
X161734660Y-112832244D01*
X161518257Y-112921881D01*
X161518253Y-112921883D01*
X161513683Y-112923776D01*
X161305526Y-113051335D01*
X161119886Y-113209886D01*
X161116673Y-113213648D01*
X161045811Y-113296617D01*
X160986361Y-113335427D01*
X160915366Y-113335934D01*
X160854189Y-113296617D01*
X160783327Y-113213648D01*
X160780114Y-113209886D01*
X160594474Y-113051335D01*
X160386317Y-112923776D01*
X160381747Y-112921883D01*
X160381743Y-112921881D01*
X160165340Y-112832244D01*
X160165338Y-112832243D01*
X160160767Y-112830350D01*
X160077342Y-112810321D01*
X159928193Y-112774513D01*
X159928187Y-112774512D01*
X159923380Y-112773358D01*
X159680000Y-112754204D01*
X159436620Y-112773358D01*
X159431813Y-112774512D01*
X159431807Y-112774513D01*
X159282658Y-112810321D01*
X159199233Y-112830350D01*
X159194662Y-112832243D01*
X159194660Y-112832244D01*
X158978257Y-112921881D01*
X158978253Y-112921883D01*
X158973683Y-112923776D01*
X158969463Y-112926362D01*
X158788315Y-113037370D01*
X158719781Y-113055908D01*
X158652105Y-113034452D01*
X158621654Y-113005502D01*
X158551143Y-112911420D01*
X158551142Y-112911419D01*
X158545761Y-112904239D01*
X158429205Y-112816885D01*
X158292816Y-112765755D01*
X158230634Y-112759000D01*
X158024500Y-112759000D01*
X157956379Y-112738998D01*
X157909886Y-112685342D01*
X157898500Y-112633000D01*
X157898500Y-110297063D01*
X157899933Y-110278114D01*
X157902097Y-110263886D01*
X157903198Y-110256651D01*
X157898915Y-110203990D01*
X157898500Y-110193777D01*
X157898500Y-110185707D01*
X157898078Y-110182087D01*
X157898077Y-110182069D01*
X157895208Y-110157461D01*
X157894775Y-110153086D01*
X157889454Y-110087661D01*
X157889453Y-110087658D01*
X157888860Y-110080363D01*
X157886604Y-110073399D01*
X157885413Y-110067440D01*
X157884029Y-110061585D01*
X157883182Y-110054319D01*
X157858265Y-109985673D01*
X157856848Y-109981545D01*
X157836607Y-109919064D01*
X157836606Y-109919062D01*
X157834351Y-109912101D01*
X157830555Y-109905846D01*
X157828049Y-109900372D01*
X157825330Y-109894942D01*
X157822833Y-109888063D01*
X157782809Y-109827016D01*
X157780472Y-109823312D01*
X157745509Y-109765693D01*
X157745505Y-109765688D01*
X157742595Y-109760892D01*
X157735197Y-109752516D01*
X157735223Y-109752493D01*
X157732574Y-109749503D01*
X157729866Y-109746264D01*
X157725856Y-109740148D01*
X157720549Y-109735121D01*
X157720546Y-109735117D01*
X157669617Y-109686872D01*
X157667175Y-109684494D01*
X152683770Y-104701089D01*
X152671384Y-104686677D01*
X152662851Y-104675082D01*
X152662846Y-104675077D01*
X152658508Y-104669182D01*
X152652930Y-104664443D01*
X152652927Y-104664440D01*
X152618232Y-104634965D01*
X152610716Y-104628035D01*
X152605021Y-104622340D01*
X152598880Y-104617482D01*
X152582749Y-104604719D01*
X152579345Y-104601928D01*
X152529297Y-104559409D01*
X152529295Y-104559408D01*
X152523715Y-104554667D01*
X152517199Y-104551339D01*
X152512150Y-104547972D01*
X152507021Y-104544805D01*
X152501284Y-104540266D01*
X152435125Y-104509345D01*
X152431225Y-104507439D01*
X152366192Y-104474231D01*
X152359084Y-104472492D01*
X152353441Y-104470393D01*
X152347678Y-104468476D01*
X152341050Y-104465378D01*
X152269583Y-104450513D01*
X152265299Y-104449543D01*
X152194390Y-104432192D01*
X152188788Y-104431844D01*
X152188785Y-104431844D01*
X152183236Y-104431500D01*
X152183238Y-104431464D01*
X152179245Y-104431225D01*
X152175053Y-104430851D01*
X152167885Y-104429360D01*
X152114877Y-104430794D01*
X152090479Y-104431454D01*
X152087072Y-104431500D01*
X141464799Y-104431500D01*
X141396678Y-104411498D01*
X141350185Y-104357842D01*
X141340081Y-104287568D01*
X141345488Y-104264993D01*
X141346453Y-104262152D01*
X141346454Y-104262147D01*
X141348311Y-104256677D01*
X141351552Y-104234329D01*
X141376089Y-104065096D01*
X141376622Y-104061423D01*
X141378099Y-104005000D01*
X141361985Y-103829636D01*
X141360575Y-103814286D01*
X141360574Y-103814283D01*
X141360046Y-103808532D01*
X141350684Y-103775334D01*
X141308060Y-103624203D01*
X141308059Y-103624201D01*
X141306492Y-103618644D01*
X141296286Y-103597947D01*
X141221786Y-103446876D01*
X141219231Y-103441695D01*
X141201407Y-103417825D01*
X141104637Y-103288235D01*
X141104636Y-103288234D01*
X141101184Y-103283611D01*
X141078764Y-103262886D01*
X140960546Y-103153607D01*
X140960544Y-103153605D01*
X140956305Y-103149687D01*
X140789447Y-103044407D01*
X140606197Y-102971297D01*
X140600529Y-102970170D01*
X140600527Y-102970169D01*
X140418360Y-102933934D01*
X140418356Y-102933934D01*
X140412692Y-102932807D01*
X140406916Y-102932731D01*
X140406913Y-102932731D01*
X140369520Y-102932242D01*
X140350220Y-102931989D01*
X140282368Y-102911097D01*
X140262776Y-102895095D01*
X140118654Y-102750973D01*
X140084628Y-102688661D01*
X140089693Y-102617846D01*
X140132240Y-102561010D01*
X140198760Y-102536199D01*
X140212696Y-102535975D01*
X140263908Y-102537987D01*
X140356423Y-102541622D01*
X140471789Y-102524894D01*
X140545955Y-102514141D01*
X140545959Y-102514140D01*
X140551677Y-102513311D01*
X140557149Y-102511453D01*
X140557151Y-102511453D01*
X140733038Y-102451747D01*
X140733040Y-102451746D01*
X140738502Y-102449892D01*
X140910642Y-102353490D01*
X141062331Y-102227331D01*
X141188490Y-102075642D01*
X141284892Y-101903502D01*
X141286008Y-101900214D01*
X145397589Y-101900214D01*
X145397764Y-101904666D01*
X145407814Y-102160454D01*
X145408144Y-102168863D01*
X145456447Y-102433344D01*
X145541534Y-102688381D01*
X145543527Y-102692369D01*
X145644824Y-102895095D01*
X145661707Y-102928884D01*
X145814568Y-103150056D01*
X145817590Y-103153325D01*
X145942300Y-103288235D01*
X145997067Y-103347482D01*
X146000521Y-103350294D01*
X146202107Y-103514411D01*
X146202111Y-103514414D01*
X146205564Y-103517225D01*
X146209386Y-103519526D01*
X146383254Y-103624203D01*
X146435897Y-103655897D01*
X146531777Y-103696497D01*
X146679369Y-103758995D01*
X146679374Y-103758997D01*
X146683472Y-103760732D01*
X146687769Y-103761871D01*
X146687774Y-103761873D01*
X146813410Y-103795184D01*
X146943348Y-103829636D01*
X147210340Y-103861237D01*
X147479121Y-103854903D01*
X147630923Y-103829636D01*
X147739938Y-103811491D01*
X147739942Y-103811490D01*
X147744328Y-103810760D01*
X147748569Y-103809419D01*
X147748572Y-103809418D01*
X147996424Y-103731033D01*
X147996426Y-103731032D01*
X148000670Y-103729690D01*
X148004681Y-103727764D01*
X148004686Y-103727762D01*
X148239012Y-103615240D01*
X148239013Y-103615239D01*
X148243031Y-103613310D01*
X148246737Y-103610834D01*
X148462869Y-103466420D01*
X148462873Y-103466417D01*
X148466577Y-103463942D01*
X148469894Y-103460971D01*
X148469898Y-103460968D01*
X148663528Y-103287538D01*
X148663529Y-103287537D01*
X148666846Y-103284566D01*
X148839842Y-103078761D01*
X148892710Y-102993990D01*
X148945730Y-102946774D01*
X149015860Y-102935718D01*
X149080835Y-102964332D01*
X149103275Y-102989028D01*
X149214568Y-103150056D01*
X149217590Y-103153325D01*
X149342300Y-103288235D01*
X149397067Y-103347482D01*
X149400521Y-103350294D01*
X149602107Y-103514411D01*
X149602111Y-103514414D01*
X149605564Y-103517225D01*
X149609386Y-103519526D01*
X149783254Y-103624203D01*
X149835897Y-103655897D01*
X149931777Y-103696497D01*
X150079369Y-103758995D01*
X150079374Y-103758997D01*
X150083472Y-103760732D01*
X150087769Y-103761871D01*
X150087774Y-103761873D01*
X150213410Y-103795184D01*
X150343348Y-103829636D01*
X150610340Y-103861237D01*
X150879121Y-103854903D01*
X151030923Y-103829636D01*
X151139938Y-103811491D01*
X151139942Y-103811490D01*
X151144328Y-103810760D01*
X151148569Y-103809419D01*
X151148572Y-103809418D01*
X151396424Y-103731033D01*
X151396426Y-103731032D01*
X151400670Y-103729690D01*
X151404681Y-103727764D01*
X151404686Y-103727762D01*
X151639012Y-103615240D01*
X151639013Y-103615239D01*
X151643031Y-103613310D01*
X151646737Y-103610834D01*
X151862869Y-103466420D01*
X151862873Y-103466417D01*
X151866577Y-103463942D01*
X151869894Y-103460971D01*
X151869898Y-103460968D01*
X152063528Y-103287538D01*
X152063529Y-103287537D01*
X152066846Y-103284566D01*
X152239842Y-103078761D01*
X152382115Y-102850634D01*
X152490825Y-102604737D01*
X152503158Y-102561010D01*
X152522731Y-102491608D01*
X152563804Y-102345975D01*
X152580335Y-102222899D01*
X152599167Y-102082694D01*
X152599168Y-102082686D01*
X152599594Y-102079512D01*
X152599874Y-102070605D01*
X152603249Y-101963222D01*
X152603249Y-101963217D01*
X152603350Y-101960000D01*
X152584362Y-101691816D01*
X152527775Y-101428982D01*
X152505170Y-101367707D01*
X152436260Y-101180921D01*
X152434719Y-101176744D01*
X152381787Y-101078644D01*
X152309165Y-100944050D01*
X152309165Y-100944049D01*
X152307052Y-100940134D01*
X152147319Y-100723873D01*
X152106610Y-100682519D01*
X152038771Y-100613607D01*
X151958708Y-100532276D01*
X151955169Y-100529575D01*
X151955162Y-100529569D01*
X151775960Y-100392807D01*
X151744983Y-100369166D01*
X151510407Y-100237797D01*
X151506262Y-100236193D01*
X151506259Y-100236192D01*
X151263805Y-100142394D01*
X151259662Y-100140791D01*
X151255337Y-100139788D01*
X151255332Y-100139787D01*
X151111456Y-100106439D01*
X150997750Y-100080083D01*
X150729897Y-100056885D01*
X150725462Y-100057129D01*
X150725458Y-100057129D01*
X150607232Y-100063635D01*
X150461447Y-100071658D01*
X150276969Y-100108354D01*
X150202125Y-100123241D01*
X150202123Y-100123242D01*
X150197757Y-100124110D01*
X149944089Y-100213192D01*
X149705502Y-100337127D01*
X149701875Y-100339719D01*
X149701870Y-100339722D01*
X149570727Y-100433439D01*
X149486759Y-100493444D01*
X149292223Y-100679022D01*
X149289467Y-100682517D01*
X149289466Y-100682519D01*
X149244392Y-100739695D01*
X149125776Y-100890159D01*
X149123540Y-100894008D01*
X149123539Y-100894010D01*
X149109584Y-100918036D01*
X149058074Y-100966895D01*
X148988325Y-100980149D01*
X148922484Y-100953590D01*
X148899279Y-100929610D01*
X148749972Y-100727465D01*
X148747319Y-100723873D01*
X148706610Y-100682519D01*
X148638771Y-100613607D01*
X148558708Y-100532276D01*
X148555169Y-100529575D01*
X148555162Y-100529569D01*
X148375960Y-100392807D01*
X148344983Y-100369166D01*
X148110407Y-100237797D01*
X148106262Y-100236193D01*
X148106259Y-100236192D01*
X147863805Y-100142394D01*
X147859662Y-100140791D01*
X147855337Y-100139788D01*
X147855332Y-100139787D01*
X147711456Y-100106439D01*
X147597750Y-100080083D01*
X147329897Y-100056885D01*
X147325462Y-100057129D01*
X147325458Y-100057129D01*
X147207232Y-100063635D01*
X147061447Y-100071658D01*
X146876969Y-100108354D01*
X146802125Y-100123241D01*
X146802123Y-100123242D01*
X146797757Y-100124110D01*
X146544089Y-100213192D01*
X146305502Y-100337127D01*
X146301875Y-100339719D01*
X146301870Y-100339722D01*
X146170727Y-100433439D01*
X146086759Y-100493444D01*
X145892223Y-100679022D01*
X145889467Y-100682517D01*
X145889466Y-100682519D01*
X145854034Y-100727465D01*
X145725776Y-100890159D01*
X145681204Y-100966895D01*
X145592977Y-101118788D01*
X145592974Y-101118794D01*
X145590739Y-101122642D01*
X145489807Y-101371833D01*
X145488736Y-101376146D01*
X145488734Y-101376151D01*
X145467582Y-101461305D01*
X145424992Y-101632759D01*
X145397589Y-101900214D01*
X141286008Y-101900214D01*
X141348311Y-101716677D01*
X141355221Y-101669024D01*
X141362456Y-101619122D01*
X141376622Y-101521423D01*
X141378099Y-101465000D01*
X141360046Y-101268532D01*
X141350684Y-101235334D01*
X141308060Y-101084203D01*
X141308059Y-101084201D01*
X141306492Y-101078644D01*
X141296286Y-101057947D01*
X141221786Y-100906876D01*
X141219231Y-100901695D01*
X141201407Y-100877825D01*
X141104637Y-100748235D01*
X141104636Y-100748234D01*
X141101184Y-100743611D01*
X141096948Y-100739695D01*
X140960546Y-100613607D01*
X140960544Y-100613605D01*
X140956305Y-100609687D01*
X140789447Y-100504407D01*
X140606197Y-100431297D01*
X140600529Y-100430170D01*
X140600527Y-100430169D01*
X140418360Y-100393934D01*
X140418356Y-100393934D01*
X140412692Y-100392807D01*
X140406917Y-100392731D01*
X140406913Y-100392731D01*
X140308267Y-100391440D01*
X140215413Y-100390224D01*
X140209716Y-100391203D01*
X140209715Y-100391203D01*
X140193822Y-100393934D01*
X140020967Y-100423636D01*
X139835866Y-100491924D01*
X139830905Y-100494876D01*
X139830904Y-100494876D01*
X139671277Y-100589844D01*
X139671274Y-100589846D01*
X139666309Y-100592800D01*
X139661969Y-100596606D01*
X139661965Y-100596609D01*
X139522316Y-100719079D01*
X139517975Y-100722886D01*
X139395830Y-100877825D01*
X139393141Y-100882936D01*
X139393139Y-100882939D01*
X139360987Y-100944050D01*
X139303966Y-101052429D01*
X139245460Y-101240851D01*
X139222270Y-101436779D01*
X139222648Y-101442545D01*
X139222648Y-101442546D01*
X139229680Y-101549839D01*
X139214176Y-101619122D01*
X139163676Y-101669024D01*
X139094213Y-101683702D01*
X139027842Y-101658496D01*
X139014855Y-101647174D01*
X137208740Y-99841059D01*
X139748302Y-99841059D01*
X139758184Y-99853548D01*
X139781009Y-99868799D01*
X139791123Y-99874291D01*
X139961697Y-99947576D01*
X139972640Y-99951131D01*
X140153708Y-99992103D01*
X140165118Y-99993605D01*
X140350629Y-100000893D01*
X140362111Y-100000291D01*
X140545846Y-99973652D01*
X140557029Y-99970967D01*
X140732826Y-99911292D01*
X140743339Y-99906611D01*
X140842313Y-99851182D01*
X140852178Y-99841104D01*
X140849222Y-99833432D01*
X140312812Y-99297022D01*
X140298868Y-99289408D01*
X140297035Y-99289539D01*
X140290420Y-99293790D01*
X139754498Y-99829712D01*
X139748302Y-99841059D01*
X137208740Y-99841059D01*
X136270239Y-98902558D01*
X139223150Y-98902558D01*
X139235292Y-99087805D01*
X139237093Y-99099175D01*
X139282789Y-99279107D01*
X139286631Y-99289956D01*
X139364358Y-99458557D01*
X139370105Y-99468511D01*
X139370902Y-99469640D01*
X139381490Y-99478027D01*
X139394791Y-99470999D01*
X139927978Y-98937812D01*
X139934356Y-98926132D01*
X140664408Y-98926132D01*
X140664539Y-98927965D01*
X140668790Y-98934580D01*
X141204518Y-99470308D01*
X141216898Y-99477068D01*
X141223478Y-99472142D01*
X141281611Y-99368339D01*
X141286292Y-99357826D01*
X141345967Y-99182029D01*
X141348652Y-99170846D01*
X141375587Y-98985071D01*
X141376217Y-98977689D01*
X141377500Y-98928704D01*
X141377257Y-98921305D01*
X141360082Y-98734378D01*
X141357985Y-98723064D01*
X141307591Y-98544383D01*
X141303469Y-98533644D01*
X141227954Y-98380515D01*
X141218407Y-98370138D01*
X141211974Y-98372236D01*
X140672022Y-98912188D01*
X140664408Y-98926132D01*
X139934356Y-98926132D01*
X139935592Y-98923868D01*
X139935461Y-98922035D01*
X139931210Y-98915420D01*
X139394459Y-98378669D01*
X139382079Y-98371909D01*
X139376113Y-98376375D01*
X139307122Y-98507505D01*
X139302717Y-98518139D01*
X139247664Y-98695438D01*
X139245272Y-98706692D01*
X139223451Y-98891057D01*
X139223150Y-98902558D01*
X136270239Y-98902558D01*
X135803770Y-98436089D01*
X135791384Y-98421677D01*
X135782851Y-98410082D01*
X135782846Y-98410077D01*
X135778508Y-98404182D01*
X135772930Y-98399443D01*
X135772927Y-98399440D01*
X135738232Y-98369965D01*
X135730716Y-98363035D01*
X135725021Y-98357340D01*
X135718880Y-98352482D01*
X135702749Y-98339719D01*
X135699345Y-98336928D01*
X135649297Y-98294409D01*
X135649295Y-98294408D01*
X135643715Y-98289667D01*
X135637199Y-98286339D01*
X135632150Y-98282972D01*
X135627021Y-98279805D01*
X135621284Y-98275266D01*
X135555125Y-98244345D01*
X135551225Y-98242439D01*
X135486192Y-98209231D01*
X135479084Y-98207492D01*
X135473441Y-98205393D01*
X135467678Y-98203476D01*
X135461050Y-98200378D01*
X135389583Y-98185513D01*
X135385299Y-98184543D01*
X135314390Y-98167192D01*
X135308788Y-98166844D01*
X135308785Y-98166844D01*
X135303236Y-98166500D01*
X135303238Y-98166464D01*
X135299245Y-98166225D01*
X135295053Y-98165851D01*
X135287885Y-98164360D01*
X135221675Y-98166151D01*
X135210479Y-98166454D01*
X135207072Y-98166500D01*
X133170353Y-98166500D01*
X133102232Y-98146498D01*
X133084824Y-98133025D01*
X133020546Y-98073607D01*
X133020544Y-98073605D01*
X133016305Y-98069687D01*
X132920457Y-98009211D01*
X139748323Y-98009211D01*
X139751810Y-98017600D01*
X140287188Y-98552978D01*
X140301132Y-98560592D01*
X140302965Y-98560461D01*
X140309580Y-98556210D01*
X140844905Y-98020885D01*
X140851665Y-98008505D01*
X140845635Y-98000450D01*
X140794102Y-97967935D01*
X140783855Y-97962714D01*
X140611423Y-97893921D01*
X140600386Y-97890652D01*
X140418306Y-97854433D01*
X140406861Y-97853230D01*
X140221235Y-97850801D01*
X140209755Y-97851704D01*
X140026794Y-97883142D01*
X140015674Y-97886122D01*
X139841498Y-97950379D01*
X139831124Y-97955327D01*
X139757921Y-97998878D01*
X139748323Y-98009211D01*
X132920457Y-98009211D01*
X132849447Y-97964407D01*
X132666197Y-97891297D01*
X132660529Y-97890170D01*
X132660527Y-97890169D01*
X132478360Y-97853934D01*
X132478356Y-97853934D01*
X132472692Y-97852807D01*
X132466917Y-97852731D01*
X132466913Y-97852731D01*
X132368267Y-97851440D01*
X132275413Y-97850224D01*
X132269716Y-97851203D01*
X132269715Y-97851203D01*
X132257919Y-97853230D01*
X132080967Y-97883636D01*
X131895866Y-97951924D01*
X131890905Y-97954876D01*
X131890904Y-97954876D01*
X131731277Y-98049844D01*
X131731274Y-98049846D01*
X131726309Y-98052800D01*
X131721969Y-98056606D01*
X131721965Y-98056609D01*
X131596267Y-98166844D01*
X131577975Y-98182886D01*
X131455830Y-98337825D01*
X131453141Y-98342936D01*
X131453139Y-98342939D01*
X131411713Y-98421677D01*
X131363966Y-98512429D01*
X131305460Y-98700851D01*
X131282270Y-98896779D01*
X131295174Y-99093652D01*
X131343739Y-99284877D01*
X131426339Y-99464049D01*
X131540207Y-99625169D01*
X131681530Y-99762840D01*
X131686326Y-99766045D01*
X131686329Y-99766047D01*
X131751809Y-99809799D01*
X131845576Y-99872452D01*
X131850879Y-99874730D01*
X131850882Y-99874732D01*
X132020432Y-99947576D01*
X132026849Y-99950333D01*
X132118038Y-99970967D01*
X132213644Y-99992601D01*
X132213647Y-99992601D01*
X132219280Y-99993876D01*
X132225051Y-99994103D01*
X132225053Y-99994103D01*
X132284054Y-99996421D01*
X132416423Y-100001622D01*
X132531789Y-99984894D01*
X132605955Y-99974141D01*
X132605959Y-99974140D01*
X132611677Y-99973311D01*
X132617149Y-99971453D01*
X132617151Y-99971453D01*
X132793038Y-99911747D01*
X132793040Y-99911746D01*
X132798502Y-99909892D01*
X132921333Y-99841104D01*
X132965605Y-99816311D01*
X132965606Y-99816310D01*
X132970642Y-99813490D01*
X133091917Y-99712626D01*
X133157081Y-99684445D01*
X133172487Y-99683500D01*
X134853629Y-99683500D01*
X134921750Y-99703502D01*
X134942724Y-99720405D01*
X139190362Y-103968043D01*
X139224388Y-104030355D01*
X139226996Y-104048893D01*
X139235174Y-104173652D01*
X139236597Y-104179254D01*
X139260782Y-104274485D01*
X139258164Y-104345433D01*
X139217603Y-104403703D01*
X139151978Y-104430794D01*
X139138659Y-104431500D01*
X133911371Y-104431500D01*
X133843250Y-104411498D01*
X133822276Y-104394595D01*
X133470855Y-104043174D01*
X133436829Y-103980862D01*
X133434479Y-103965608D01*
X133420575Y-103814286D01*
X133420574Y-103814283D01*
X133420046Y-103808532D01*
X133410684Y-103775334D01*
X133368060Y-103624203D01*
X133368059Y-103624201D01*
X133366492Y-103618644D01*
X133356286Y-103597947D01*
X133281786Y-103446876D01*
X133279231Y-103441695D01*
X133261407Y-103417825D01*
X133164637Y-103288235D01*
X133164636Y-103288234D01*
X133161184Y-103283611D01*
X133138764Y-103262886D01*
X133020546Y-103153607D01*
X133020544Y-103153605D01*
X133016305Y-103149687D01*
X132849447Y-103044407D01*
X132666197Y-102971297D01*
X132660529Y-102970170D01*
X132660527Y-102970169D01*
X132478360Y-102933934D01*
X132478356Y-102933934D01*
X132472692Y-102932807D01*
X132466917Y-102932731D01*
X132466913Y-102932731D01*
X132368267Y-102931440D01*
X132275413Y-102930224D01*
X132269716Y-102931203D01*
X132269715Y-102931203D01*
X132086664Y-102962657D01*
X132080967Y-102963636D01*
X131895866Y-103031924D01*
X131890905Y-103034876D01*
X131890904Y-103034876D01*
X131731277Y-103129844D01*
X131731274Y-103129846D01*
X131726309Y-103132800D01*
X131721969Y-103136606D01*
X131721965Y-103136609D01*
X131702583Y-103153607D01*
X131577975Y-103262886D01*
X131455830Y-103417825D01*
X131453141Y-103422936D01*
X131453139Y-103422939D01*
X131430263Y-103466420D01*
X131363966Y-103592429D01*
X131305460Y-103780851D01*
X131282270Y-103976779D01*
X131295174Y-104173652D01*
X131343739Y-104364877D01*
X131426339Y-104544049D01*
X131540207Y-104705169D01*
X131681530Y-104842840D01*
X131686326Y-104846045D01*
X131686329Y-104846047D01*
X131818113Y-104934102D01*
X131845576Y-104952452D01*
X131850879Y-104954730D01*
X131850882Y-104954732D01*
X132021542Y-105028053D01*
X132026849Y-105030333D01*
X132123065Y-105052105D01*
X132213644Y-105072601D01*
X132213647Y-105072601D01*
X132219280Y-105073876D01*
X132225051Y-105074103D01*
X132225053Y-105074103D01*
X132312520Y-105077540D01*
X132379802Y-105100202D01*
X132396667Y-105114348D01*
X132539732Y-105257413D01*
X132573758Y-105319725D01*
X132568693Y-105390540D01*
X132526146Y-105447376D01*
X132459626Y-105472187D01*
X132448996Y-105472497D01*
X132275413Y-105470224D01*
X132269716Y-105471203D01*
X132269715Y-105471203D01*
X132086664Y-105502657D01*
X132080967Y-105503636D01*
X131895866Y-105571924D01*
X131890905Y-105574876D01*
X131890904Y-105574876D01*
X131731277Y-105669844D01*
X131731274Y-105669846D01*
X131726309Y-105672800D01*
X131721969Y-105676606D01*
X131721965Y-105676609D01*
X131582316Y-105799079D01*
X131577975Y-105802886D01*
X131455830Y-105957825D01*
X131453141Y-105962936D01*
X131453139Y-105962939D01*
X131443271Y-105981695D01*
X131363966Y-106132429D01*
X131305460Y-106320851D01*
X131282270Y-106516779D01*
X124846290Y-106516779D01*
X124853478Y-106497606D01*
X124857105Y-106482351D01*
X124862631Y-106431486D01*
X124863000Y-106424672D01*
X124863000Y-104762115D01*
X124858525Y-104746876D01*
X124857135Y-104745671D01*
X124849452Y-104744000D01*
X122912115Y-104744000D01*
X122896876Y-104748475D01*
X122895671Y-104749865D01*
X122894000Y-104757548D01*
X122894000Y-106869884D01*
X122386000Y-106869884D01*
X122386000Y-104762115D01*
X122381525Y-104746876D01*
X122380135Y-104745671D01*
X122372452Y-104744000D01*
X119732115Y-104744000D01*
X119716876Y-104748475D01*
X119715671Y-104749865D01*
X119714000Y-104757548D01*
X119714000Y-106869884D01*
X119206000Y-106869884D01*
X119206000Y-104762115D01*
X119201525Y-104746876D01*
X119200135Y-104745671D01*
X119192452Y-104744000D01*
X117255116Y-104744000D01*
X117239877Y-104748475D01*
X117238672Y-104749865D01*
X117237001Y-104757548D01*
X117237001Y-106424669D01*
X106878500Y-106424669D01*
X106878500Y-104217885D01*
X117237000Y-104217885D01*
X117241475Y-104233124D01*
X117242865Y-104234329D01*
X117250548Y-104236000D01*
X119187885Y-104236000D01*
X119203124Y-104231525D01*
X119204329Y-104230135D01*
X119206000Y-104222452D01*
X119206000Y-104217885D01*
X119714000Y-104217885D01*
X119718475Y-104233124D01*
X119719865Y-104234329D01*
X119727548Y-104236000D01*
X122367885Y-104236000D01*
X122383124Y-104231525D01*
X122384329Y-104230135D01*
X122386000Y-104222452D01*
X122386000Y-104217885D01*
X122894000Y-104217885D01*
X122898475Y-104233124D01*
X122899865Y-104234329D01*
X122907548Y-104236000D01*
X124844884Y-104236000D01*
X124860123Y-104231525D01*
X124861328Y-104230135D01*
X124862999Y-104222452D01*
X124862999Y-102555331D01*
X124862629Y-102548510D01*
X124857105Y-102497648D01*
X124853479Y-102482396D01*
X124808324Y-102361946D01*
X124799786Y-102346351D01*
X124723285Y-102244276D01*
X124710724Y-102231715D01*
X124608649Y-102155214D01*
X124593054Y-102146676D01*
X124472606Y-102101522D01*
X124457351Y-102097895D01*
X124406486Y-102092369D01*
X124399672Y-102092000D01*
X122912115Y-102092000D01*
X122896876Y-102096475D01*
X122895671Y-102097865D01*
X122894000Y-102105548D01*
X122894000Y-104217885D01*
X122386000Y-104217885D01*
X122386000Y-102110116D01*
X122381525Y-102094877D01*
X122380135Y-102093672D01*
X122372452Y-102092001D01*
X121223105Y-102092001D01*
X121223073Y-102092000D01*
X119732115Y-102092000D01*
X119716876Y-102096475D01*
X119715671Y-102097865D01*
X119714000Y-102105548D01*
X119714000Y-104217885D01*
X119206000Y-104217885D01*
X119206000Y-102110116D01*
X119201525Y-102094877D01*
X119200135Y-102093672D01*
X119192452Y-102092001D01*
X117700331Y-102092001D01*
X117693510Y-102092371D01*
X117642648Y-102097895D01*
X117627396Y-102101521D01*
X117506946Y-102146676D01*
X117491351Y-102155214D01*
X117389276Y-102231715D01*
X117376715Y-102244276D01*
X117300214Y-102346351D01*
X117291676Y-102361946D01*
X117246522Y-102482394D01*
X117242895Y-102497649D01*
X117237369Y-102548514D01*
X117237000Y-102555328D01*
X117237000Y-104217885D01*
X106878500Y-104217885D01*
X106878500Y-101436779D01*
X131282270Y-101436779D01*
X131295174Y-101633652D01*
X131343739Y-101824877D01*
X131426339Y-102004049D01*
X131540207Y-102165169D01*
X131681530Y-102302840D01*
X131686326Y-102306045D01*
X131686329Y-102306047D01*
X131751809Y-102349799D01*
X131845576Y-102412452D01*
X131850879Y-102414730D01*
X131850882Y-102414732D01*
X131961565Y-102462285D01*
X132026849Y-102490333D01*
X132120185Y-102511453D01*
X132213644Y-102532601D01*
X132213647Y-102532601D01*
X132219280Y-102533876D01*
X132225051Y-102534103D01*
X132225053Y-102534103D01*
X132284054Y-102536421D01*
X132416423Y-102541622D01*
X132531789Y-102524894D01*
X132605955Y-102514141D01*
X132605959Y-102514140D01*
X132611677Y-102513311D01*
X132617149Y-102511453D01*
X132617151Y-102511453D01*
X132793038Y-102451747D01*
X132793040Y-102451746D01*
X132798502Y-102449892D01*
X132970642Y-102353490D01*
X133122331Y-102227331D01*
X133248490Y-102075642D01*
X133344892Y-101903502D01*
X133408311Y-101716677D01*
X133415221Y-101669024D01*
X133422456Y-101619122D01*
X133436622Y-101521423D01*
X133438099Y-101465000D01*
X133420046Y-101268532D01*
X133410684Y-101235334D01*
X133368060Y-101084203D01*
X133368059Y-101084201D01*
X133366492Y-101078644D01*
X133356286Y-101057947D01*
X133281786Y-100906876D01*
X133279231Y-100901695D01*
X133261407Y-100877825D01*
X133164637Y-100748235D01*
X133164636Y-100748234D01*
X133161184Y-100743611D01*
X133156948Y-100739695D01*
X133020546Y-100613607D01*
X133020544Y-100613605D01*
X133016305Y-100609687D01*
X132849447Y-100504407D01*
X132666197Y-100431297D01*
X132660529Y-100430170D01*
X132660527Y-100430169D01*
X132478360Y-100393934D01*
X132478356Y-100393934D01*
X132472692Y-100392807D01*
X132466917Y-100392731D01*
X132466913Y-100392731D01*
X132368267Y-100391440D01*
X132275413Y-100390224D01*
X132269716Y-100391203D01*
X132269715Y-100391203D01*
X132253822Y-100393934D01*
X132080967Y-100423636D01*
X131895866Y-100491924D01*
X131890905Y-100494876D01*
X131890904Y-100494876D01*
X131731277Y-100589844D01*
X131731274Y-100589846D01*
X131726309Y-100592800D01*
X131721969Y-100596606D01*
X131721965Y-100596609D01*
X131582316Y-100719079D01*
X131577975Y-100722886D01*
X131455830Y-100877825D01*
X131453141Y-100882936D01*
X131453139Y-100882939D01*
X131420987Y-100944050D01*
X131363966Y-101052429D01*
X131305460Y-101240851D01*
X131282270Y-101436779D01*
X106878500Y-101436779D01*
X106878500Y-91980214D01*
X145397589Y-91980214D01*
X145408144Y-92248863D01*
X145456447Y-92513344D01*
X145541534Y-92768381D01*
X145543527Y-92772369D01*
X145622608Y-92930634D01*
X145661707Y-93008884D01*
X145814568Y-93230056D01*
X145997067Y-93427482D01*
X146000521Y-93430294D01*
X146202107Y-93594411D01*
X146202111Y-93594414D01*
X146205564Y-93597225D01*
X146435897Y-93735897D01*
X146531777Y-93776497D01*
X146679369Y-93838995D01*
X146679374Y-93838997D01*
X146683472Y-93840732D01*
X146687769Y-93841871D01*
X146687774Y-93841873D01*
X146813410Y-93875184D01*
X146943348Y-93909636D01*
X147210340Y-93941237D01*
X147479121Y-93934903D01*
X147630923Y-93909636D01*
X147739938Y-93891491D01*
X147739942Y-93891490D01*
X147744328Y-93890760D01*
X147748569Y-93889419D01*
X147748572Y-93889418D01*
X147996424Y-93811033D01*
X147996426Y-93811032D01*
X148000670Y-93809690D01*
X148004681Y-93807764D01*
X148004686Y-93807762D01*
X148239012Y-93695240D01*
X148239013Y-93695239D01*
X148243031Y-93693310D01*
X148246737Y-93690834D01*
X148462869Y-93546420D01*
X148462873Y-93546417D01*
X148466577Y-93543942D01*
X148469894Y-93540971D01*
X148469898Y-93540968D01*
X148663528Y-93367538D01*
X148663529Y-93367537D01*
X148666846Y-93364566D01*
X148839842Y-93158761D01*
X148892710Y-93073990D01*
X148945730Y-93026774D01*
X149015860Y-93015718D01*
X149080835Y-93044332D01*
X149103275Y-93069028D01*
X149214568Y-93230056D01*
X149397067Y-93427482D01*
X149400521Y-93430294D01*
X149602107Y-93594411D01*
X149602111Y-93594414D01*
X149605564Y-93597225D01*
X149835897Y-93735897D01*
X149931777Y-93776497D01*
X150079369Y-93838995D01*
X150079374Y-93838997D01*
X150083472Y-93840732D01*
X150087769Y-93841871D01*
X150087774Y-93841873D01*
X150213410Y-93875184D01*
X150343348Y-93909636D01*
X150610340Y-93941237D01*
X150879121Y-93934903D01*
X151030923Y-93909636D01*
X151139938Y-93891491D01*
X151139942Y-93891490D01*
X151144328Y-93890760D01*
X151148569Y-93889419D01*
X151148572Y-93889418D01*
X151396424Y-93811033D01*
X151396426Y-93811032D01*
X151400670Y-93809690D01*
X151404681Y-93807764D01*
X151404686Y-93807762D01*
X151639012Y-93695240D01*
X151639013Y-93695239D01*
X151643031Y-93693310D01*
X151646737Y-93690834D01*
X151862869Y-93546420D01*
X151862873Y-93546417D01*
X151866577Y-93543942D01*
X151869894Y-93540971D01*
X151869898Y-93540968D01*
X152063528Y-93367538D01*
X152063529Y-93367537D01*
X152066846Y-93364566D01*
X152239842Y-93158761D01*
X152382115Y-92930634D01*
X152490825Y-92684737D01*
X152563804Y-92425975D01*
X152587593Y-92248863D01*
X152599167Y-92162694D01*
X152599168Y-92162686D01*
X152599594Y-92159512D01*
X152603350Y-92040000D01*
X152584362Y-91771816D01*
X152527775Y-91508982D01*
X152505170Y-91447707D01*
X152436260Y-91260921D01*
X152434719Y-91256744D01*
X152307052Y-91020134D01*
X152147319Y-90803873D01*
X152106610Y-90762519D01*
X151961839Y-90615457D01*
X151958708Y-90612276D01*
X151955169Y-90609575D01*
X151955162Y-90609569D01*
X151748523Y-90451868D01*
X151744983Y-90449166D01*
X151684100Y-90415070D01*
X151514293Y-90319973D01*
X151514290Y-90319972D01*
X151510407Y-90317797D01*
X151506262Y-90316193D01*
X151506259Y-90316192D01*
X151263805Y-90222394D01*
X151259662Y-90220791D01*
X151255337Y-90219788D01*
X151255332Y-90219787D01*
X151111456Y-90186439D01*
X150997750Y-90160083D01*
X150729897Y-90136885D01*
X150725462Y-90137129D01*
X150725458Y-90137129D01*
X150607232Y-90143635D01*
X150461447Y-90151658D01*
X150276969Y-90188354D01*
X150202125Y-90203241D01*
X150202123Y-90203242D01*
X150197757Y-90204110D01*
X149944089Y-90293192D01*
X149705502Y-90417127D01*
X149701875Y-90419719D01*
X149701870Y-90419722D01*
X149490386Y-90570852D01*
X149486759Y-90573444D01*
X149292223Y-90759022D01*
X149289467Y-90762517D01*
X149289466Y-90762519D01*
X149128532Y-90966663D01*
X149125776Y-90970159D01*
X149123540Y-90974008D01*
X149123539Y-90974010D01*
X149109584Y-90998036D01*
X149058074Y-91046895D01*
X148988325Y-91060149D01*
X148922484Y-91033590D01*
X148899279Y-91009610D01*
X148749972Y-90807465D01*
X148747319Y-90803873D01*
X148706610Y-90762519D01*
X148561839Y-90615457D01*
X148558708Y-90612276D01*
X148555169Y-90609575D01*
X148555162Y-90609569D01*
X148348523Y-90451868D01*
X148344983Y-90449166D01*
X148284100Y-90415070D01*
X148114293Y-90319973D01*
X148114290Y-90319972D01*
X148110407Y-90317797D01*
X148106262Y-90316193D01*
X148106259Y-90316192D01*
X147863805Y-90222394D01*
X147859662Y-90220791D01*
X147855337Y-90219788D01*
X147855332Y-90219787D01*
X147711456Y-90186439D01*
X147597750Y-90160083D01*
X147329897Y-90136885D01*
X147325462Y-90137129D01*
X147325458Y-90137129D01*
X147207232Y-90143635D01*
X147061447Y-90151658D01*
X146876969Y-90188354D01*
X146802125Y-90203241D01*
X146802123Y-90203242D01*
X146797757Y-90204110D01*
X146544089Y-90293192D01*
X146305502Y-90417127D01*
X146301875Y-90419719D01*
X146301870Y-90419722D01*
X146090386Y-90570852D01*
X146086759Y-90573444D01*
X145892223Y-90759022D01*
X145889467Y-90762517D01*
X145889466Y-90762519D01*
X145854034Y-90807465D01*
X145725776Y-90970159D01*
X145681204Y-91046895D01*
X145592977Y-91198788D01*
X145592974Y-91198794D01*
X145590739Y-91202642D01*
X145489807Y-91451833D01*
X145488736Y-91456146D01*
X145488734Y-91456151D01*
X145475611Y-91508982D01*
X145424992Y-91712759D01*
X145397589Y-91980214D01*
X106878500Y-91980214D01*
X106878500Y-89898134D01*
X117276500Y-89898134D01*
X117283255Y-89960316D01*
X117334385Y-90096705D01*
X117421739Y-90213261D01*
X117538295Y-90300615D01*
X117674684Y-90351745D01*
X117736866Y-90358500D01*
X124443134Y-90358500D01*
X124505316Y-90351745D01*
X124641705Y-90300615D01*
X124758261Y-90213261D01*
X124845615Y-90096705D01*
X124896745Y-89960316D01*
X124903500Y-89898134D01*
X124903500Y-89619669D01*
X170687001Y-89619669D01*
X170687371Y-89626490D01*
X170692895Y-89677352D01*
X170696521Y-89692604D01*
X170741676Y-89813054D01*
X170750214Y-89828649D01*
X170826715Y-89930724D01*
X170839276Y-89943285D01*
X170941351Y-90019786D01*
X170956946Y-90028324D01*
X171077394Y-90073478D01*
X171092649Y-90077105D01*
X171143514Y-90082631D01*
X171150328Y-90083000D01*
X172637885Y-90083000D01*
X172653124Y-90078525D01*
X172654329Y-90077135D01*
X172656000Y-90069452D01*
X172656000Y-90064884D01*
X173164000Y-90064884D01*
X173168475Y-90080123D01*
X173169865Y-90081328D01*
X173177548Y-90082999D01*
X174326895Y-90082999D01*
X174326927Y-90083000D01*
X175817885Y-90083000D01*
X175833124Y-90078525D01*
X175834329Y-90077135D01*
X175836000Y-90069452D01*
X175836000Y-90064884D01*
X176344000Y-90064884D01*
X176348475Y-90080123D01*
X176349865Y-90081328D01*
X176357548Y-90082999D01*
X177849669Y-90082999D01*
X177856490Y-90082629D01*
X177907352Y-90077105D01*
X177922604Y-90073479D01*
X178043054Y-90028324D01*
X178058649Y-90019786D01*
X178160724Y-89943285D01*
X178173285Y-89930724D01*
X178249786Y-89828649D01*
X178258324Y-89813054D01*
X178303478Y-89692606D01*
X178307105Y-89677351D01*
X178312631Y-89626486D01*
X178313000Y-89619672D01*
X178313000Y-87957115D01*
X178308525Y-87941876D01*
X178307135Y-87940671D01*
X178299452Y-87939000D01*
X176362115Y-87939000D01*
X176346876Y-87943475D01*
X176345671Y-87944865D01*
X176344000Y-87952548D01*
X176344000Y-90064884D01*
X175836000Y-90064884D01*
X175836000Y-87957115D01*
X175831525Y-87941876D01*
X175830135Y-87940671D01*
X175822452Y-87939000D01*
X173182115Y-87939000D01*
X173166876Y-87943475D01*
X173165671Y-87944865D01*
X173164000Y-87952548D01*
X173164000Y-90064884D01*
X172656000Y-90064884D01*
X172656000Y-87957115D01*
X172651525Y-87941876D01*
X172650135Y-87940671D01*
X172642452Y-87939000D01*
X170705116Y-87939000D01*
X170689877Y-87943475D01*
X170688672Y-87944865D01*
X170687001Y-87952548D01*
X170687001Y-89619669D01*
X124903500Y-89619669D01*
X124903500Y-87412885D01*
X170687000Y-87412885D01*
X170691475Y-87428124D01*
X170692865Y-87429329D01*
X170700548Y-87431000D01*
X172637885Y-87431000D01*
X172653124Y-87426525D01*
X172654329Y-87425135D01*
X172656000Y-87417452D01*
X172656000Y-87412885D01*
X173164000Y-87412885D01*
X173168475Y-87428124D01*
X173169865Y-87429329D01*
X173177548Y-87431000D01*
X175817885Y-87431000D01*
X175833124Y-87426525D01*
X175834329Y-87425135D01*
X175836000Y-87417452D01*
X175836000Y-87412885D01*
X176344000Y-87412885D01*
X176348475Y-87428124D01*
X176349865Y-87429329D01*
X176357548Y-87431000D01*
X178294884Y-87431000D01*
X178310123Y-87426525D01*
X178311328Y-87425135D01*
X178312999Y-87417452D01*
X178312999Y-85750331D01*
X178312629Y-85743510D01*
X178307105Y-85692648D01*
X178303479Y-85677396D01*
X178258324Y-85556946D01*
X178249786Y-85541351D01*
X178173285Y-85439276D01*
X178160724Y-85426715D01*
X178058649Y-85350214D01*
X178043054Y-85341676D01*
X177922606Y-85296522D01*
X177907351Y-85292895D01*
X177856486Y-85287369D01*
X177849672Y-85287000D01*
X176362115Y-85287000D01*
X176346876Y-85291475D01*
X176345671Y-85292865D01*
X176344000Y-85300548D01*
X176344000Y-87412885D01*
X175836000Y-87412885D01*
X175836000Y-85305116D01*
X175831525Y-85289877D01*
X175830135Y-85288672D01*
X175822452Y-85287001D01*
X174673105Y-85287001D01*
X174673073Y-85287000D01*
X173182115Y-85287000D01*
X173166876Y-85291475D01*
X173165671Y-85292865D01*
X173164000Y-85300548D01*
X173164000Y-87412885D01*
X172656000Y-87412885D01*
X172656000Y-85305116D01*
X172651525Y-85289877D01*
X172650135Y-85288672D01*
X172642452Y-85287001D01*
X171150331Y-85287001D01*
X171143510Y-85287371D01*
X171092648Y-85292895D01*
X171077396Y-85296521D01*
X170956946Y-85341676D01*
X170941351Y-85350214D01*
X170839276Y-85426715D01*
X170826715Y-85439276D01*
X170750214Y-85541351D01*
X170741676Y-85556946D01*
X170696522Y-85677394D01*
X170692895Y-85692649D01*
X170687369Y-85743514D01*
X170687000Y-85750328D01*
X170687000Y-87412885D01*
X124903500Y-87412885D01*
X124903500Y-86021866D01*
X124896745Y-85959684D01*
X124845615Y-85823295D01*
X124758261Y-85706739D01*
X124641705Y-85619385D01*
X124505316Y-85568255D01*
X124443134Y-85561500D01*
X117736866Y-85561500D01*
X117674684Y-85568255D01*
X117538295Y-85619385D01*
X117421739Y-85706739D01*
X117334385Y-85823295D01*
X117283255Y-85959684D01*
X117276500Y-86021866D01*
X117276500Y-89898134D01*
X106878500Y-89898134D01*
X106878500Y-82404669D01*
X117277001Y-82404669D01*
X117277371Y-82411490D01*
X117282895Y-82462352D01*
X117286521Y-82477604D01*
X117331676Y-82598054D01*
X117340214Y-82613649D01*
X117416715Y-82715724D01*
X117429276Y-82728285D01*
X117531351Y-82804786D01*
X117546946Y-82813324D01*
X117667394Y-82858478D01*
X117682649Y-82862105D01*
X117733514Y-82867631D01*
X117740328Y-82868000D01*
X119227885Y-82868000D01*
X119243124Y-82863525D01*
X119244329Y-82862135D01*
X119246000Y-82854452D01*
X119246000Y-82849884D01*
X119754000Y-82849884D01*
X119758475Y-82865123D01*
X119759865Y-82866328D01*
X119767548Y-82867999D01*
X120916895Y-82867999D01*
X120916927Y-82868000D01*
X122407885Y-82868000D01*
X122423124Y-82863525D01*
X122424329Y-82862135D01*
X122426000Y-82854452D01*
X122426000Y-82849884D01*
X122934000Y-82849884D01*
X122938475Y-82865123D01*
X122939865Y-82866328D01*
X122947548Y-82867999D01*
X124439669Y-82867999D01*
X124446490Y-82867629D01*
X124497352Y-82862105D01*
X124512604Y-82858479D01*
X124633054Y-82813324D01*
X124648649Y-82804786D01*
X124750724Y-82728285D01*
X124763285Y-82715724D01*
X124839786Y-82613649D01*
X124848324Y-82598054D01*
X124893478Y-82477606D01*
X124897105Y-82462351D01*
X124902631Y-82411486D01*
X124903000Y-82404672D01*
X124903000Y-82133134D01*
X170686500Y-82133134D01*
X170693255Y-82195316D01*
X170744385Y-82331705D01*
X170831739Y-82448261D01*
X170948295Y-82535615D01*
X171084684Y-82586745D01*
X171146866Y-82593500D01*
X177853134Y-82593500D01*
X177915316Y-82586745D01*
X178051705Y-82535615D01*
X178168261Y-82448261D01*
X178255615Y-82331705D01*
X178306745Y-82195316D01*
X178313500Y-82133134D01*
X178313500Y-78256866D01*
X178306745Y-78194684D01*
X178255615Y-78058295D01*
X178168261Y-77941739D01*
X178051705Y-77854385D01*
X177915316Y-77803255D01*
X177853134Y-77796500D01*
X171146866Y-77796500D01*
X171084684Y-77803255D01*
X170948295Y-77854385D01*
X170831739Y-77941739D01*
X170744385Y-78058295D01*
X170693255Y-78194684D01*
X170686500Y-78256866D01*
X170686500Y-82133134D01*
X124903000Y-82133134D01*
X124903000Y-80742115D01*
X124898525Y-80726876D01*
X124897135Y-80725671D01*
X124889452Y-80724000D01*
X122952115Y-80724000D01*
X122936876Y-80728475D01*
X122935671Y-80729865D01*
X122934000Y-80737548D01*
X122934000Y-82849884D01*
X122426000Y-82849884D01*
X122426000Y-80742115D01*
X122421525Y-80726876D01*
X122420135Y-80725671D01*
X122412452Y-80724000D01*
X119772115Y-80724000D01*
X119756876Y-80728475D01*
X119755671Y-80729865D01*
X119754000Y-80737548D01*
X119754000Y-82849884D01*
X119246000Y-82849884D01*
X119246000Y-80742115D01*
X119241525Y-80726876D01*
X119240135Y-80725671D01*
X119232452Y-80724000D01*
X117295116Y-80724000D01*
X117279877Y-80728475D01*
X117278672Y-80729865D01*
X117277001Y-80737548D01*
X117277001Y-82404669D01*
X106878500Y-82404669D01*
X106878500Y-80197885D01*
X117277000Y-80197885D01*
X117281475Y-80213124D01*
X117282865Y-80214329D01*
X117290548Y-80216000D01*
X119227885Y-80216000D01*
X119243124Y-80211525D01*
X119244329Y-80210135D01*
X119246000Y-80202452D01*
X119246000Y-80197885D01*
X119754000Y-80197885D01*
X119758475Y-80213124D01*
X119759865Y-80214329D01*
X119767548Y-80216000D01*
X122407885Y-80216000D01*
X122423124Y-80211525D01*
X122424329Y-80210135D01*
X122426000Y-80202452D01*
X122426000Y-80197885D01*
X122934000Y-80197885D01*
X122938475Y-80213124D01*
X122939865Y-80214329D01*
X122947548Y-80216000D01*
X124884884Y-80216000D01*
X124900123Y-80211525D01*
X124901328Y-80210135D01*
X124902999Y-80202452D01*
X124902999Y-78535331D01*
X124902629Y-78528510D01*
X124897105Y-78477648D01*
X124893479Y-78462396D01*
X124848324Y-78341946D01*
X124839786Y-78326351D01*
X124763285Y-78224276D01*
X124750724Y-78211715D01*
X124648649Y-78135214D01*
X124633054Y-78126676D01*
X124512606Y-78081522D01*
X124497351Y-78077895D01*
X124446486Y-78072369D01*
X124439672Y-78072000D01*
X122952115Y-78072000D01*
X122936876Y-78076475D01*
X122935671Y-78077865D01*
X122934000Y-78085548D01*
X122934000Y-80197885D01*
X122426000Y-80197885D01*
X122426000Y-78090116D01*
X122421525Y-78074877D01*
X122420135Y-78073672D01*
X122412452Y-78072001D01*
X121263105Y-78072001D01*
X121263073Y-78072000D01*
X119772115Y-78072000D01*
X119756876Y-78076475D01*
X119755671Y-78077865D01*
X119754000Y-78085548D01*
X119754000Y-80197885D01*
X119246000Y-80197885D01*
X119246000Y-78090116D01*
X119241525Y-78074877D01*
X119240135Y-78073672D01*
X119232452Y-78072001D01*
X117740331Y-78072001D01*
X117733510Y-78072371D01*
X117682648Y-78077895D01*
X117667396Y-78081521D01*
X117546946Y-78126676D01*
X117531351Y-78135214D01*
X117429276Y-78211715D01*
X117416715Y-78224276D01*
X117340214Y-78326351D01*
X117331676Y-78341946D01*
X117286522Y-78462394D01*
X117282895Y-78477649D01*
X117277369Y-78528514D01*
X117277000Y-78535328D01*
X117277000Y-80197885D01*
X106878500Y-80197885D01*
X106878500Y-71013250D01*
X106880246Y-70992345D01*
X106882770Y-70977344D01*
X106882770Y-70977341D01*
X106883576Y-70972552D01*
X106883729Y-70960000D01*
X106883039Y-70955180D01*
X106881644Y-70945437D01*
X106880545Y-70920983D01*
X106882183Y-70889733D01*
X107857822Y-70889733D01*
X107857975Y-70894121D01*
X107857975Y-70894127D01*
X107861768Y-71002723D01*
X107867625Y-71170458D01*
X107868387Y-71174781D01*
X107868388Y-71174788D01*
X107892164Y-71309624D01*
X107916402Y-71447087D01*
X108003203Y-71714235D01*
X108126340Y-71966702D01*
X108128795Y-71970341D01*
X108128798Y-71970347D01*
X108201890Y-72078710D01*
X108283415Y-72199576D01*
X108471371Y-72408322D01*
X108686550Y-72588879D01*
X108924764Y-72737731D01*
X109181375Y-72851982D01*
X109451390Y-72929407D01*
X109455740Y-72930018D01*
X109455743Y-72930019D01*
X109558690Y-72944487D01*
X109729552Y-72968500D01*
X109940146Y-72968500D01*
X109942332Y-72968347D01*
X109942336Y-72968347D01*
X110145827Y-72954118D01*
X110145832Y-72954117D01*
X110150212Y-72953811D01*
X110424970Y-72895409D01*
X110429099Y-72893906D01*
X110429103Y-72893905D01*
X110684781Y-72800846D01*
X110684785Y-72800844D01*
X110688926Y-72799337D01*
X110936942Y-72667464D01*
X111041896Y-72591211D01*
X111160629Y-72504947D01*
X111160632Y-72504944D01*
X111164192Y-72502358D01*
X111366252Y-72307231D01*
X111539188Y-72085882D01*
X111541384Y-72082078D01*
X111541389Y-72082071D01*
X111677435Y-71846431D01*
X111679636Y-71842619D01*
X111784862Y-71582176D01*
X111818544Y-71447087D01*
X111851753Y-71313893D01*
X111851754Y-71313888D01*
X111852817Y-71309624D01*
X111882178Y-71030267D01*
X111881584Y-71013250D01*
X111877271Y-70889733D01*
X183857822Y-70889733D01*
X183857975Y-70894121D01*
X183857975Y-70894127D01*
X183861768Y-71002723D01*
X183867625Y-71170458D01*
X183868387Y-71174781D01*
X183868388Y-71174788D01*
X183892164Y-71309624D01*
X183916402Y-71447087D01*
X184003203Y-71714235D01*
X184126340Y-71966702D01*
X184128795Y-71970341D01*
X184128798Y-71970347D01*
X184201890Y-72078710D01*
X184283415Y-72199576D01*
X184471371Y-72408322D01*
X184686550Y-72588879D01*
X184924764Y-72737731D01*
X185181375Y-72851982D01*
X185451390Y-72929407D01*
X185455740Y-72930018D01*
X185455743Y-72930019D01*
X185558690Y-72944487D01*
X185729552Y-72968500D01*
X185940146Y-72968500D01*
X185942332Y-72968347D01*
X185942336Y-72968347D01*
X186145827Y-72954118D01*
X186145832Y-72954117D01*
X186150212Y-72953811D01*
X186424970Y-72895409D01*
X186429099Y-72893906D01*
X186429103Y-72893905D01*
X186684781Y-72800846D01*
X186684785Y-72800844D01*
X186688926Y-72799337D01*
X186936942Y-72667464D01*
X187041896Y-72591211D01*
X187160629Y-72504947D01*
X187160632Y-72504944D01*
X187164192Y-72502358D01*
X187366252Y-72307231D01*
X187539188Y-72085882D01*
X187541384Y-72082078D01*
X187541389Y-72082071D01*
X187677435Y-71846431D01*
X187679636Y-71842619D01*
X187784862Y-71582176D01*
X187818544Y-71447087D01*
X187851753Y-71313893D01*
X187851754Y-71313888D01*
X187852817Y-71309624D01*
X187882178Y-71030267D01*
X187881584Y-71013250D01*
X187872529Y-70753939D01*
X187872528Y-70753933D01*
X187872375Y-70749542D01*
X187848608Y-70614749D01*
X187824360Y-70477236D01*
X187823598Y-70472913D01*
X187736797Y-70205765D01*
X187613660Y-69953298D01*
X187611205Y-69949659D01*
X187611202Y-69949653D01*
X187471979Y-69743247D01*
X187456585Y-69720424D01*
X187268629Y-69511678D01*
X187053450Y-69331121D01*
X186815236Y-69182269D01*
X186558625Y-69068018D01*
X186288610Y-68990593D01*
X186284260Y-68989982D01*
X186284257Y-68989981D01*
X186181310Y-68975513D01*
X186010448Y-68951500D01*
X185799854Y-68951500D01*
X185797668Y-68951653D01*
X185797664Y-68951653D01*
X185594173Y-68965882D01*
X185594168Y-68965883D01*
X185589788Y-68966189D01*
X185315030Y-69024591D01*
X185310901Y-69026094D01*
X185310897Y-69026095D01*
X185055219Y-69119154D01*
X185055215Y-69119156D01*
X185051074Y-69120663D01*
X184803058Y-69252536D01*
X184799499Y-69255122D01*
X184799497Y-69255123D01*
X184694895Y-69331121D01*
X184575808Y-69417642D01*
X184373748Y-69612769D01*
X184200812Y-69834118D01*
X184198616Y-69837922D01*
X184198611Y-69837929D01*
X184088061Y-70029409D01*
X184060364Y-70077381D01*
X183955138Y-70337824D01*
X183954073Y-70342097D01*
X183954072Y-70342099D01*
X183920379Y-70477236D01*
X183887183Y-70610376D01*
X183857822Y-70889733D01*
X111877271Y-70889733D01*
X111872529Y-70753939D01*
X111872528Y-70753933D01*
X111872375Y-70749542D01*
X111848608Y-70614749D01*
X111824360Y-70477236D01*
X111823598Y-70472913D01*
X111736797Y-70205765D01*
X111613660Y-69953298D01*
X111611205Y-69949659D01*
X111611202Y-69949653D01*
X111471979Y-69743247D01*
X111456585Y-69720424D01*
X111268629Y-69511678D01*
X111053450Y-69331121D01*
X110815236Y-69182269D01*
X110558625Y-69068018D01*
X110288610Y-68990593D01*
X110284260Y-68989982D01*
X110284257Y-68989981D01*
X110181310Y-68975513D01*
X110010448Y-68951500D01*
X109799854Y-68951500D01*
X109797668Y-68951653D01*
X109797664Y-68951653D01*
X109594173Y-68965882D01*
X109594168Y-68965883D01*
X109589788Y-68966189D01*
X109315030Y-69024591D01*
X109310901Y-69026094D01*
X109310897Y-69026095D01*
X109055219Y-69119154D01*
X109055215Y-69119156D01*
X109051074Y-69120663D01*
X108803058Y-69252536D01*
X108799499Y-69255122D01*
X108799497Y-69255123D01*
X108694895Y-69331121D01*
X108575808Y-69417642D01*
X108373748Y-69612769D01*
X108200812Y-69834118D01*
X108198616Y-69837922D01*
X108198611Y-69837929D01*
X108088061Y-70029409D01*
X108060364Y-70077381D01*
X107955138Y-70337824D01*
X107954073Y-70342097D01*
X107954072Y-70342099D01*
X107920379Y-70477236D01*
X107887183Y-70610376D01*
X107857822Y-70889733D01*
X106882183Y-70889733D01*
X106894542Y-70653902D01*
X106895920Y-70640785D01*
X106900737Y-70610376D01*
X106942838Y-70344555D01*
X106945580Y-70331655D01*
X107023205Y-70041953D01*
X107027281Y-70029409D01*
X107054981Y-69957250D01*
X107134763Y-69749412D01*
X107140126Y-69737365D01*
X107276289Y-69470130D01*
X107282883Y-69458709D01*
X107446236Y-69207168D01*
X107453984Y-69196505D01*
X107513724Y-69122733D01*
X107642727Y-68963427D01*
X107651552Y-68953626D01*
X107863626Y-68741552D01*
X107873427Y-68732727D01*
X108106505Y-68543984D01*
X108117168Y-68536236D01*
X108368714Y-68372880D01*
X108380130Y-68366289D01*
X108647365Y-68230126D01*
X108659413Y-68224762D01*
X108939414Y-68117279D01*
X108951948Y-68113207D01*
X109096804Y-68074393D01*
X109241655Y-68035580D01*
X109254555Y-68032838D01*
X109335866Y-68019960D01*
X109550791Y-67985919D01*
X109563899Y-67984542D01*
X109639063Y-67980603D01*
X109827299Y-67970738D01*
X109853276Y-67972065D01*
X109854846Y-67972309D01*
X109854850Y-67972309D01*
X109863724Y-67973691D01*
X109872626Y-67972527D01*
X109872628Y-67972527D01*
X109887677Y-67970559D01*
X109895286Y-67969564D01*
X109911621Y-67968500D01*
X185820633Y-67968500D01*
X185840018Y-67970000D01*
G37*
G04 #@! TD.AperFunction*
M02*
