G04 #@! TF.GenerationSoftware,KiCad,Pcbnew,7.0.2*
G04 #@! TF.CreationDate,2023-06-05T15:00:20-05:00*
G04 #@! TF.ProjectId,Power-Secondary,506f7765-722d-4536-9563-6f6e64617279,rev?*
G04 #@! TF.SameCoordinates,Original*
G04 #@! TF.FileFunction,Legend,Top*
G04 #@! TF.FilePolarity,Positive*
%FSLAX46Y46*%
G04 Gerber Fmt 4.6, Leading zero omitted, Abs format (unit mm)*
G04 Created by KiCad (PCBNEW 7.0.2) date 2023-06-05 15:00:20*
%MOMM*%
%LPD*%
G01*
G04 APERTURE LIST*
G04 Aperture macros list*
%AMRoundRect*
0 Rectangle with rounded corners*
0 $1 Rounding radius*
0 $2 $3 $4 $5 $6 $7 $8 $9 X,Y pos of 4 corners*
0 Add a 4 corners polygon primitive as box body*
4,1,4,$2,$3,$4,$5,$6,$7,$8,$9,$2,$3,0*
0 Add four circle primitives for the rounded corners*
1,1,$1+$1,$2,$3*
1,1,$1+$1,$4,$5*
1,1,$1+$1,$6,$7*
1,1,$1+$1,$8,$9*
0 Add four rect primitives between the rounded corners*
20,1,$1+$1,$2,$3,$4,$5,0*
20,1,$1+$1,$4,$5,$6,$7,0*
20,1,$1+$1,$6,$7,$8,$9,0*
20,1,$1+$1,$8,$9,$2,$3,0*%
G04 Aperture macros list end*
%ADD10C,0.300000*%
%ADD11C,0.150000*%
%ADD12C,0.250000*%
%ADD13C,0.254000*%
%ADD14C,0.120000*%
%ADD15C,0.200000*%
%ADD16R,3.430000X3.780000*%
%ADD17RoundRect,0.250000X0.262500X0.450000X-0.262500X0.450000X-0.262500X-0.450000X0.262500X-0.450000X0*%
%ADD18RoundRect,0.200000X-0.275000X0.200000X-0.275000X-0.200000X0.275000X-0.200000X0.275000X0.200000X0*%
%ADD19C,2.780000*%
%ADD20C,3.000000*%
%ADD21R,2.000000X2.000000*%
%ADD22R,2.085000X2.085000*%
%ADD23C,2.085000*%
%ADD24R,0.750000X0.400000*%
%ADD25C,1.270000*%
%ADD26RoundRect,0.250001X-0.499999X-0.759999X0.499999X-0.759999X0.499999X0.759999X-0.499999X0.759999X0*%
%ADD27O,1.500000X2.020000*%
%ADD28RoundRect,0.243750X-0.243750X-0.456250X0.243750X-0.456250X0.243750X0.456250X-0.243750X0.456250X0*%
%ADD29RoundRect,0.200000X0.275000X-0.200000X0.275000X0.200000X-0.275000X0.200000X-0.275000X-0.200000X0*%
G04 APERTURE END LIST*
D10*
X89344571Y-83942500D02*
X90487429Y-83942500D01*
X89916000Y-84513928D02*
X89916000Y-83371071D01*
D11*
X145034095Y-100094238D02*
X144938857Y-100046619D01*
X144938857Y-100046619D02*
X144796000Y-100046619D01*
X144796000Y-100046619D02*
X144653143Y-100094238D01*
X144653143Y-100094238D02*
X144557905Y-100189476D01*
X144557905Y-100189476D02*
X144510286Y-100284714D01*
X144510286Y-100284714D02*
X144462667Y-100475190D01*
X144462667Y-100475190D02*
X144462667Y-100618047D01*
X144462667Y-100618047D02*
X144510286Y-100808523D01*
X144510286Y-100808523D02*
X144557905Y-100903761D01*
X144557905Y-100903761D02*
X144653143Y-100999000D01*
X144653143Y-100999000D02*
X144796000Y-101046619D01*
X144796000Y-101046619D02*
X144891238Y-101046619D01*
X144891238Y-101046619D02*
X145034095Y-100999000D01*
X145034095Y-100999000D02*
X145081714Y-100951380D01*
X145081714Y-100951380D02*
X145081714Y-100618047D01*
X145081714Y-100618047D02*
X144891238Y-100618047D01*
X145510286Y-101046619D02*
X145510286Y-100046619D01*
X145510286Y-100046619D02*
X146081714Y-101046619D01*
X146081714Y-101046619D02*
X146081714Y-100046619D01*
X146557905Y-101046619D02*
X146557905Y-100046619D01*
X146557905Y-100046619D02*
X146796000Y-100046619D01*
X146796000Y-100046619D02*
X146938857Y-100094238D01*
X146938857Y-100094238D02*
X147034095Y-100189476D01*
X147034095Y-100189476D02*
X147081714Y-100284714D01*
X147081714Y-100284714D02*
X147129333Y-100475190D01*
X147129333Y-100475190D02*
X147129333Y-100618047D01*
X147129333Y-100618047D02*
X147081714Y-100808523D01*
X147081714Y-100808523D02*
X147034095Y-100903761D01*
X147034095Y-100903761D02*
X146938857Y-100999000D01*
X146938857Y-100999000D02*
X146796000Y-101046619D01*
X146796000Y-101046619D02*
X146557905Y-101046619D01*
X118850000Y-55402619D02*
X118850000Y-54402619D01*
X118850000Y-54402619D02*
X119064286Y-54402619D01*
X119064286Y-54402619D02*
X119192857Y-54450238D01*
X119192857Y-54450238D02*
X119278572Y-54545476D01*
X119278572Y-54545476D02*
X119321429Y-54640714D01*
X119321429Y-54640714D02*
X119364286Y-54831190D01*
X119364286Y-54831190D02*
X119364286Y-54974047D01*
X119364286Y-54974047D02*
X119321429Y-55164523D01*
X119321429Y-55164523D02*
X119278572Y-55259761D01*
X119278572Y-55259761D02*
X119192857Y-55355000D01*
X119192857Y-55355000D02*
X119064286Y-55402619D01*
X119064286Y-55402619D02*
X118850000Y-55402619D01*
X120135715Y-55402619D02*
X120135715Y-54878809D01*
X120135715Y-54878809D02*
X120092857Y-54783571D01*
X120092857Y-54783571D02*
X120007143Y-54735952D01*
X120007143Y-54735952D02*
X119835715Y-54735952D01*
X119835715Y-54735952D02*
X119750000Y-54783571D01*
X120135715Y-55355000D02*
X120050000Y-55402619D01*
X120050000Y-55402619D02*
X119835715Y-55402619D01*
X119835715Y-55402619D02*
X119750000Y-55355000D01*
X119750000Y-55355000D02*
X119707143Y-55259761D01*
X119707143Y-55259761D02*
X119707143Y-55164523D01*
X119707143Y-55164523D02*
X119750000Y-55069285D01*
X119750000Y-55069285D02*
X119835715Y-55021666D01*
X119835715Y-55021666D02*
X120050000Y-55021666D01*
X120050000Y-55021666D02*
X120135715Y-54974047D01*
X121421429Y-54402619D02*
X121592857Y-54402619D01*
X121592857Y-54402619D02*
X121678572Y-54450238D01*
X121678572Y-54450238D02*
X121764286Y-54545476D01*
X121764286Y-54545476D02*
X121807143Y-54735952D01*
X121807143Y-54735952D02*
X121807143Y-55069285D01*
X121807143Y-55069285D02*
X121764286Y-55259761D01*
X121764286Y-55259761D02*
X121678572Y-55355000D01*
X121678572Y-55355000D02*
X121592857Y-55402619D01*
X121592857Y-55402619D02*
X121421429Y-55402619D01*
X121421429Y-55402619D02*
X121335715Y-55355000D01*
X121335715Y-55355000D02*
X121250000Y-55259761D01*
X121250000Y-55259761D02*
X121207143Y-55069285D01*
X121207143Y-55069285D02*
X121207143Y-54735952D01*
X121207143Y-54735952D02*
X121250000Y-54545476D01*
X121250000Y-54545476D02*
X121335715Y-54450238D01*
X121335715Y-54450238D02*
X121421429Y-54402619D01*
X122664286Y-54450238D02*
X122578572Y-54402619D01*
X122578572Y-54402619D02*
X122450000Y-54402619D01*
X122450000Y-54402619D02*
X122321429Y-54450238D01*
X122321429Y-54450238D02*
X122235714Y-54545476D01*
X122235714Y-54545476D02*
X122192857Y-54640714D01*
X122192857Y-54640714D02*
X122150000Y-54831190D01*
X122150000Y-54831190D02*
X122150000Y-54974047D01*
X122150000Y-54974047D02*
X122192857Y-55164523D01*
X122192857Y-55164523D02*
X122235714Y-55259761D01*
X122235714Y-55259761D02*
X122321429Y-55355000D01*
X122321429Y-55355000D02*
X122450000Y-55402619D01*
X122450000Y-55402619D02*
X122535714Y-55402619D01*
X122535714Y-55402619D02*
X122664286Y-55355000D01*
X122664286Y-55355000D02*
X122707143Y-55307380D01*
X122707143Y-55307380D02*
X122707143Y-54974047D01*
X122707143Y-54974047D02*
X122535714Y-54974047D01*
X118185714Y-56355952D02*
X118357143Y-57022619D01*
X118357143Y-57022619D02*
X118528571Y-56546428D01*
X118528571Y-56546428D02*
X118700000Y-57022619D01*
X118700000Y-57022619D02*
X118871428Y-56355952D01*
X119600000Y-56355952D02*
X119600000Y-57022619D01*
X119214285Y-56355952D02*
X119214285Y-56879761D01*
X119214285Y-56879761D02*
X119257142Y-56975000D01*
X119257142Y-56975000D02*
X119342857Y-57022619D01*
X119342857Y-57022619D02*
X119471428Y-57022619D01*
X119471428Y-57022619D02*
X119557142Y-56975000D01*
X119557142Y-56975000D02*
X119600000Y-56927380D01*
X119942857Y-56355952D02*
X120414286Y-56355952D01*
X120414286Y-56355952D02*
X119942857Y-57022619D01*
X119942857Y-57022619D02*
X120414286Y-57022619D01*
X121442856Y-57022619D02*
X121442856Y-56022619D01*
X121828571Y-57022619D02*
X121828571Y-56498809D01*
X121828571Y-56498809D02*
X121785713Y-56403571D01*
X121785713Y-56403571D02*
X121699999Y-56355952D01*
X121699999Y-56355952D02*
X121571428Y-56355952D01*
X121571428Y-56355952D02*
X121485713Y-56403571D01*
X121485713Y-56403571D02*
X121442856Y-56451190D01*
X122599999Y-56975000D02*
X122514285Y-57022619D01*
X122514285Y-57022619D02*
X122342857Y-57022619D01*
X122342857Y-57022619D02*
X122257142Y-56975000D01*
X122257142Y-56975000D02*
X122214285Y-56879761D01*
X122214285Y-56879761D02*
X122214285Y-56498809D01*
X122214285Y-56498809D02*
X122257142Y-56403571D01*
X122257142Y-56403571D02*
X122342857Y-56355952D01*
X122342857Y-56355952D02*
X122514285Y-56355952D01*
X122514285Y-56355952D02*
X122599999Y-56403571D01*
X122599999Y-56403571D02*
X122642857Y-56498809D01*
X122642857Y-56498809D02*
X122642857Y-56594047D01*
X122642857Y-56594047D02*
X122214285Y-56689285D01*
X123028571Y-57022619D02*
X123028571Y-56355952D01*
X123028571Y-56546428D02*
X123071428Y-56451190D01*
X123071428Y-56451190D02*
X123114286Y-56403571D01*
X123114286Y-56403571D02*
X123200000Y-56355952D01*
X123200000Y-56355952D02*
X123285714Y-56355952D01*
X123928571Y-56975000D02*
X123842857Y-57022619D01*
X123842857Y-57022619D02*
X123671429Y-57022619D01*
X123671429Y-57022619D02*
X123585714Y-56975000D01*
X123585714Y-56975000D02*
X123542857Y-56879761D01*
X123542857Y-56879761D02*
X123542857Y-56498809D01*
X123542857Y-56498809D02*
X123585714Y-56403571D01*
X123585714Y-56403571D02*
X123671429Y-56355952D01*
X123671429Y-56355952D02*
X123842857Y-56355952D01*
X123842857Y-56355952D02*
X123928571Y-56403571D01*
X123928571Y-56403571D02*
X123971429Y-56498809D01*
X123971429Y-56498809D02*
X123971429Y-56594047D01*
X123971429Y-56594047D02*
X123542857Y-56689285D01*
D10*
X87622500Y-62928570D02*
X87693928Y-62714285D01*
X87693928Y-62714285D02*
X87693928Y-62357142D01*
X87693928Y-62357142D02*
X87622500Y-62214285D01*
X87622500Y-62214285D02*
X87551071Y-62142856D01*
X87551071Y-62142856D02*
X87408214Y-62071427D01*
X87408214Y-62071427D02*
X87265357Y-62071427D01*
X87265357Y-62071427D02*
X87122500Y-62142856D01*
X87122500Y-62142856D02*
X87051071Y-62214285D01*
X87051071Y-62214285D02*
X86979642Y-62357142D01*
X86979642Y-62357142D02*
X86908214Y-62642856D01*
X86908214Y-62642856D02*
X86836785Y-62785713D01*
X86836785Y-62785713D02*
X86765357Y-62857142D01*
X86765357Y-62857142D02*
X86622500Y-62928570D01*
X86622500Y-62928570D02*
X86479642Y-62928570D01*
X86479642Y-62928570D02*
X86336785Y-62857142D01*
X86336785Y-62857142D02*
X86265357Y-62785713D01*
X86265357Y-62785713D02*
X86193928Y-62642856D01*
X86193928Y-62642856D02*
X86193928Y-62285713D01*
X86193928Y-62285713D02*
X86265357Y-62071427D01*
X86193928Y-61428571D02*
X87408214Y-61428571D01*
X87408214Y-61428571D02*
X87551071Y-61357142D01*
X87551071Y-61357142D02*
X87622500Y-61285714D01*
X87622500Y-61285714D02*
X87693928Y-61142856D01*
X87693928Y-61142856D02*
X87693928Y-60857142D01*
X87693928Y-60857142D02*
X87622500Y-60714285D01*
X87622500Y-60714285D02*
X87551071Y-60642856D01*
X87551071Y-60642856D02*
X87408214Y-60571428D01*
X87408214Y-60571428D02*
X86193928Y-60571428D01*
X87693928Y-59857142D02*
X86193928Y-59857142D01*
X86193928Y-59857142D02*
X86193928Y-59285713D01*
X86193928Y-59285713D02*
X86265357Y-59142856D01*
X86265357Y-59142856D02*
X86336785Y-59071427D01*
X86336785Y-59071427D02*
X86479642Y-58999999D01*
X86479642Y-58999999D02*
X86693928Y-58999999D01*
X86693928Y-58999999D02*
X86836785Y-59071427D01*
X86836785Y-59071427D02*
X86908214Y-59142856D01*
X86908214Y-59142856D02*
X86979642Y-59285713D01*
X86979642Y-59285713D02*
X86979642Y-59857142D01*
X87693928Y-58357142D02*
X86193928Y-58357142D01*
X86193928Y-58357142D02*
X86193928Y-57785713D01*
X86193928Y-57785713D02*
X86265357Y-57642856D01*
X86265357Y-57642856D02*
X86336785Y-57571427D01*
X86336785Y-57571427D02*
X86479642Y-57499999D01*
X86479642Y-57499999D02*
X86693928Y-57499999D01*
X86693928Y-57499999D02*
X86836785Y-57571427D01*
X86836785Y-57571427D02*
X86908214Y-57642856D01*
X86908214Y-57642856D02*
X86979642Y-57785713D01*
X86979642Y-57785713D02*
X86979642Y-58357142D01*
X87693928Y-55714285D02*
X86193928Y-55714285D01*
X86193928Y-55714285D02*
X86193928Y-55142856D01*
X86193928Y-55142856D02*
X86265357Y-54999999D01*
X86265357Y-54999999D02*
X86336785Y-54928570D01*
X86336785Y-54928570D02*
X86479642Y-54857142D01*
X86479642Y-54857142D02*
X86693928Y-54857142D01*
X86693928Y-54857142D02*
X86836785Y-54928570D01*
X86836785Y-54928570D02*
X86908214Y-54999999D01*
X86908214Y-54999999D02*
X86979642Y-55142856D01*
X86979642Y-55142856D02*
X86979642Y-55714285D01*
X86193928Y-54357142D02*
X87693928Y-53999999D01*
X87693928Y-53999999D02*
X86622500Y-53714285D01*
X86622500Y-53714285D02*
X87693928Y-53428570D01*
X87693928Y-53428570D02*
X86193928Y-53071428D01*
X87693928Y-51642856D02*
X86979642Y-52142856D01*
X87693928Y-52499999D02*
X86193928Y-52499999D01*
X86193928Y-52499999D02*
X86193928Y-51928570D01*
X86193928Y-51928570D02*
X86265357Y-51785713D01*
X86265357Y-51785713D02*
X86336785Y-51714284D01*
X86336785Y-51714284D02*
X86479642Y-51642856D01*
X86479642Y-51642856D02*
X86693928Y-51642856D01*
X86693928Y-51642856D02*
X86836785Y-51714284D01*
X86836785Y-51714284D02*
X86908214Y-51785713D01*
X86908214Y-51785713D02*
X86979642Y-51928570D01*
X86979642Y-51928570D02*
X86979642Y-52499999D01*
X86336785Y-49928570D02*
X86265357Y-49857142D01*
X86265357Y-49857142D02*
X86193928Y-49714285D01*
X86193928Y-49714285D02*
X86193928Y-49357142D01*
X86193928Y-49357142D02*
X86265357Y-49214285D01*
X86265357Y-49214285D02*
X86336785Y-49142856D01*
X86336785Y-49142856D02*
X86479642Y-49071427D01*
X86479642Y-49071427D02*
X86622500Y-49071427D01*
X86622500Y-49071427D02*
X86836785Y-49142856D01*
X86836785Y-49142856D02*
X87693928Y-49999999D01*
X87693928Y-49999999D02*
X87693928Y-49071427D01*
X154368571Y-76322500D02*
X155511429Y-76322500D01*
X154940000Y-76893928D02*
X154940000Y-75751071D01*
X107124571Y-52446500D02*
X108267429Y-52446500D01*
X107696000Y-53017928D02*
X107696000Y-51875071D01*
D12*
X116547619Y-40615000D02*
X116690476Y-40662619D01*
X116690476Y-40662619D02*
X116928571Y-40662619D01*
X116928571Y-40662619D02*
X117023809Y-40615000D01*
X117023809Y-40615000D02*
X117071428Y-40567380D01*
X117071428Y-40567380D02*
X117119047Y-40472142D01*
X117119047Y-40472142D02*
X117119047Y-40376904D01*
X117119047Y-40376904D02*
X117071428Y-40281666D01*
X117071428Y-40281666D02*
X117023809Y-40234047D01*
X117023809Y-40234047D02*
X116928571Y-40186428D01*
X116928571Y-40186428D02*
X116738095Y-40138809D01*
X116738095Y-40138809D02*
X116642857Y-40091190D01*
X116642857Y-40091190D02*
X116595238Y-40043571D01*
X116595238Y-40043571D02*
X116547619Y-39948333D01*
X116547619Y-39948333D02*
X116547619Y-39853095D01*
X116547619Y-39853095D02*
X116595238Y-39757857D01*
X116595238Y-39757857D02*
X116642857Y-39710238D01*
X116642857Y-39710238D02*
X116738095Y-39662619D01*
X116738095Y-39662619D02*
X116976190Y-39662619D01*
X116976190Y-39662619D02*
X117119047Y-39710238D01*
X117547619Y-39662619D02*
X117547619Y-40472142D01*
X117547619Y-40472142D02*
X117595238Y-40567380D01*
X117595238Y-40567380D02*
X117642857Y-40615000D01*
X117642857Y-40615000D02*
X117738095Y-40662619D01*
X117738095Y-40662619D02*
X117928571Y-40662619D01*
X117928571Y-40662619D02*
X118023809Y-40615000D01*
X118023809Y-40615000D02*
X118071428Y-40567380D01*
X118071428Y-40567380D02*
X118119047Y-40472142D01*
X118119047Y-40472142D02*
X118119047Y-39662619D01*
X118595238Y-40662619D02*
X118595238Y-39662619D01*
X118595238Y-39662619D02*
X118976190Y-39662619D01*
X118976190Y-39662619D02*
X119071428Y-39710238D01*
X119071428Y-39710238D02*
X119119047Y-39757857D01*
X119119047Y-39757857D02*
X119166666Y-39853095D01*
X119166666Y-39853095D02*
X119166666Y-39995952D01*
X119166666Y-39995952D02*
X119119047Y-40091190D01*
X119119047Y-40091190D02*
X119071428Y-40138809D01*
X119071428Y-40138809D02*
X118976190Y-40186428D01*
X118976190Y-40186428D02*
X118595238Y-40186428D01*
X119595238Y-40662619D02*
X119595238Y-39662619D01*
X119595238Y-39662619D02*
X119976190Y-39662619D01*
X119976190Y-39662619D02*
X120071428Y-39710238D01*
X120071428Y-39710238D02*
X120119047Y-39757857D01*
X120119047Y-39757857D02*
X120166666Y-39853095D01*
X120166666Y-39853095D02*
X120166666Y-39995952D01*
X120166666Y-39995952D02*
X120119047Y-40091190D01*
X120119047Y-40091190D02*
X120071428Y-40138809D01*
X120071428Y-40138809D02*
X119976190Y-40186428D01*
X119976190Y-40186428D02*
X119595238Y-40186428D01*
X121357143Y-40662619D02*
X121357143Y-39662619D01*
X121357143Y-39662619D02*
X121690476Y-40376904D01*
X121690476Y-40376904D02*
X122023809Y-39662619D01*
X122023809Y-39662619D02*
X122023809Y-40662619D01*
X122690476Y-39662619D02*
X122880952Y-39662619D01*
X122880952Y-39662619D02*
X122976190Y-39710238D01*
X122976190Y-39710238D02*
X123071428Y-39805476D01*
X123071428Y-39805476D02*
X123119047Y-39995952D01*
X123119047Y-39995952D02*
X123119047Y-40329285D01*
X123119047Y-40329285D02*
X123071428Y-40519761D01*
X123071428Y-40519761D02*
X122976190Y-40615000D01*
X122976190Y-40615000D02*
X122880952Y-40662619D01*
X122880952Y-40662619D02*
X122690476Y-40662619D01*
X122690476Y-40662619D02*
X122595238Y-40615000D01*
X122595238Y-40615000D02*
X122500000Y-40519761D01*
X122500000Y-40519761D02*
X122452381Y-40329285D01*
X122452381Y-40329285D02*
X122452381Y-39995952D01*
X122452381Y-39995952D02*
X122500000Y-39805476D01*
X122500000Y-39805476D02*
X122595238Y-39710238D01*
X122595238Y-39710238D02*
X122690476Y-39662619D01*
X123547619Y-40662619D02*
X123547619Y-39662619D01*
X123547619Y-39662619D02*
X124119047Y-40662619D01*
X124119047Y-40662619D02*
X124119047Y-39662619D01*
X124595238Y-40662619D02*
X124595238Y-39662619D01*
X124928571Y-39662619D02*
X125499999Y-39662619D01*
X125214285Y-40662619D02*
X125214285Y-39662619D01*
X126023809Y-39662619D02*
X126214285Y-39662619D01*
X126214285Y-39662619D02*
X126309523Y-39710238D01*
X126309523Y-39710238D02*
X126404761Y-39805476D01*
X126404761Y-39805476D02*
X126452380Y-39995952D01*
X126452380Y-39995952D02*
X126452380Y-40329285D01*
X126452380Y-40329285D02*
X126404761Y-40519761D01*
X126404761Y-40519761D02*
X126309523Y-40615000D01*
X126309523Y-40615000D02*
X126214285Y-40662619D01*
X126214285Y-40662619D02*
X126023809Y-40662619D01*
X126023809Y-40662619D02*
X125928571Y-40615000D01*
X125928571Y-40615000D02*
X125833333Y-40519761D01*
X125833333Y-40519761D02*
X125785714Y-40329285D01*
X125785714Y-40329285D02*
X125785714Y-39995952D01*
X125785714Y-39995952D02*
X125833333Y-39805476D01*
X125833333Y-39805476D02*
X125928571Y-39710238D01*
X125928571Y-39710238D02*
X126023809Y-39662619D01*
X127452380Y-40662619D02*
X127119047Y-40186428D01*
X126880952Y-40662619D02*
X126880952Y-39662619D01*
X126880952Y-39662619D02*
X127261904Y-39662619D01*
X127261904Y-39662619D02*
X127357142Y-39710238D01*
X127357142Y-39710238D02*
X127404761Y-39757857D01*
X127404761Y-39757857D02*
X127452380Y-39853095D01*
X127452380Y-39853095D02*
X127452380Y-39995952D01*
X127452380Y-39995952D02*
X127404761Y-40091190D01*
X127404761Y-40091190D02*
X127357142Y-40138809D01*
X127357142Y-40138809D02*
X127261904Y-40186428D01*
X127261904Y-40186428D02*
X126880952Y-40186428D01*
D11*
X93904762Y-42462619D02*
X93904762Y-41462619D01*
X93904762Y-41462619D02*
X94285714Y-41462619D01*
X94285714Y-41462619D02*
X94380952Y-41510238D01*
X94380952Y-41510238D02*
X94428571Y-41557857D01*
X94428571Y-41557857D02*
X94476190Y-41653095D01*
X94476190Y-41653095D02*
X94476190Y-41795952D01*
X94476190Y-41795952D02*
X94428571Y-41891190D01*
X94428571Y-41891190D02*
X94380952Y-41938809D01*
X94380952Y-41938809D02*
X94285714Y-41986428D01*
X94285714Y-41986428D02*
X93904762Y-41986428D01*
X95095238Y-41462619D02*
X95285714Y-41462619D01*
X95285714Y-41462619D02*
X95380952Y-41510238D01*
X95380952Y-41510238D02*
X95476190Y-41605476D01*
X95476190Y-41605476D02*
X95523809Y-41795952D01*
X95523809Y-41795952D02*
X95523809Y-42129285D01*
X95523809Y-42129285D02*
X95476190Y-42319761D01*
X95476190Y-42319761D02*
X95380952Y-42415000D01*
X95380952Y-42415000D02*
X95285714Y-42462619D01*
X95285714Y-42462619D02*
X95095238Y-42462619D01*
X95095238Y-42462619D02*
X95000000Y-42415000D01*
X95000000Y-42415000D02*
X94904762Y-42319761D01*
X94904762Y-42319761D02*
X94857143Y-42129285D01*
X94857143Y-42129285D02*
X94857143Y-41795952D01*
X94857143Y-41795952D02*
X94904762Y-41605476D01*
X94904762Y-41605476D02*
X95000000Y-41510238D01*
X95000000Y-41510238D02*
X95095238Y-41462619D01*
X95857143Y-41462619D02*
X96095238Y-42462619D01*
X96095238Y-42462619D02*
X96285714Y-41748333D01*
X96285714Y-41748333D02*
X96476190Y-42462619D01*
X96476190Y-42462619D02*
X96714286Y-41462619D01*
X97095238Y-41938809D02*
X97428571Y-41938809D01*
X97571428Y-42462619D02*
X97095238Y-42462619D01*
X97095238Y-42462619D02*
X97095238Y-41462619D01*
X97095238Y-41462619D02*
X97571428Y-41462619D01*
X98571428Y-42462619D02*
X98238095Y-41986428D01*
X98000000Y-42462619D02*
X98000000Y-41462619D01*
X98000000Y-41462619D02*
X98380952Y-41462619D01*
X98380952Y-41462619D02*
X98476190Y-41510238D01*
X98476190Y-41510238D02*
X98523809Y-41557857D01*
X98523809Y-41557857D02*
X98571428Y-41653095D01*
X98571428Y-41653095D02*
X98571428Y-41795952D01*
X98571428Y-41795952D02*
X98523809Y-41891190D01*
X98523809Y-41891190D02*
X98476190Y-41938809D01*
X98476190Y-41938809D02*
X98380952Y-41986428D01*
X98380952Y-41986428D02*
X98000000Y-41986428D01*
X100095238Y-41938809D02*
X100238095Y-41986428D01*
X100238095Y-41986428D02*
X100285714Y-42034047D01*
X100285714Y-42034047D02*
X100333333Y-42129285D01*
X100333333Y-42129285D02*
X100333333Y-42272142D01*
X100333333Y-42272142D02*
X100285714Y-42367380D01*
X100285714Y-42367380D02*
X100238095Y-42415000D01*
X100238095Y-42415000D02*
X100142857Y-42462619D01*
X100142857Y-42462619D02*
X99761905Y-42462619D01*
X99761905Y-42462619D02*
X99761905Y-41462619D01*
X99761905Y-41462619D02*
X100095238Y-41462619D01*
X100095238Y-41462619D02*
X100190476Y-41510238D01*
X100190476Y-41510238D02*
X100238095Y-41557857D01*
X100238095Y-41557857D02*
X100285714Y-41653095D01*
X100285714Y-41653095D02*
X100285714Y-41748333D01*
X100285714Y-41748333D02*
X100238095Y-41843571D01*
X100238095Y-41843571D02*
X100190476Y-41891190D01*
X100190476Y-41891190D02*
X100095238Y-41938809D01*
X100095238Y-41938809D02*
X99761905Y-41938809D01*
X100952381Y-41462619D02*
X101142857Y-41462619D01*
X101142857Y-41462619D02*
X101238095Y-41510238D01*
X101238095Y-41510238D02*
X101333333Y-41605476D01*
X101333333Y-41605476D02*
X101380952Y-41795952D01*
X101380952Y-41795952D02*
X101380952Y-42129285D01*
X101380952Y-42129285D02*
X101333333Y-42319761D01*
X101333333Y-42319761D02*
X101238095Y-42415000D01*
X101238095Y-42415000D02*
X101142857Y-42462619D01*
X101142857Y-42462619D02*
X100952381Y-42462619D01*
X100952381Y-42462619D02*
X100857143Y-42415000D01*
X100857143Y-42415000D02*
X100761905Y-42319761D01*
X100761905Y-42319761D02*
X100714286Y-42129285D01*
X100714286Y-42129285D02*
X100714286Y-41795952D01*
X100714286Y-41795952D02*
X100761905Y-41605476D01*
X100761905Y-41605476D02*
X100857143Y-41510238D01*
X100857143Y-41510238D02*
X100952381Y-41462619D01*
X101761905Y-42176904D02*
X102238095Y-42176904D01*
X101666667Y-42462619D02*
X102000000Y-41462619D01*
X102000000Y-41462619D02*
X102333333Y-42462619D01*
X103238095Y-42462619D02*
X102904762Y-41986428D01*
X102666667Y-42462619D02*
X102666667Y-41462619D01*
X102666667Y-41462619D02*
X103047619Y-41462619D01*
X103047619Y-41462619D02*
X103142857Y-41510238D01*
X103142857Y-41510238D02*
X103190476Y-41557857D01*
X103190476Y-41557857D02*
X103238095Y-41653095D01*
X103238095Y-41653095D02*
X103238095Y-41795952D01*
X103238095Y-41795952D02*
X103190476Y-41891190D01*
X103190476Y-41891190D02*
X103142857Y-41938809D01*
X103142857Y-41938809D02*
X103047619Y-41986428D01*
X103047619Y-41986428D02*
X102666667Y-41986428D01*
X103666667Y-42462619D02*
X103666667Y-41462619D01*
X103666667Y-41462619D02*
X103904762Y-41462619D01*
X103904762Y-41462619D02*
X104047619Y-41510238D01*
X104047619Y-41510238D02*
X104142857Y-41605476D01*
X104142857Y-41605476D02*
X104190476Y-41700714D01*
X104190476Y-41700714D02*
X104238095Y-41891190D01*
X104238095Y-41891190D02*
X104238095Y-42034047D01*
X104238095Y-42034047D02*
X104190476Y-42224523D01*
X104190476Y-42224523D02*
X104142857Y-42319761D01*
X104142857Y-42319761D02*
X104047619Y-42415000D01*
X104047619Y-42415000D02*
X103904762Y-42462619D01*
X103904762Y-42462619D02*
X103666667Y-42462619D01*
X105333334Y-41795952D02*
X105571429Y-42462619D01*
X105571429Y-42462619D02*
X105809524Y-41795952D01*
X106619048Y-41795952D02*
X106619048Y-42462619D01*
X106380953Y-41415000D02*
X106142858Y-42129285D01*
X106142858Y-42129285D02*
X106761905Y-42129285D01*
X107142858Y-42367380D02*
X107190477Y-42415000D01*
X107190477Y-42415000D02*
X107142858Y-42462619D01*
X107142858Y-42462619D02*
X107095239Y-42415000D01*
X107095239Y-42415000D02*
X107142858Y-42367380D01*
X107142858Y-42367380D02*
X107142858Y-42462619D01*
X108142857Y-42462619D02*
X107571429Y-42462619D01*
X107857143Y-42462619D02*
X107857143Y-41462619D01*
X107857143Y-41462619D02*
X107761905Y-41605476D01*
X107761905Y-41605476D02*
X107666667Y-41700714D01*
X107666667Y-41700714D02*
X107571429Y-41748333D01*
D10*
X90038500Y-76771428D02*
X90038500Y-75628571D01*
X159189928Y-85327428D02*
X157689928Y-85327428D01*
X157689928Y-85327428D02*
X157689928Y-84970285D01*
X157689928Y-84970285D02*
X157761357Y-84755999D01*
X157761357Y-84755999D02*
X157904214Y-84613142D01*
X157904214Y-84613142D02*
X158047071Y-84541713D01*
X158047071Y-84541713D02*
X158332785Y-84470285D01*
X158332785Y-84470285D02*
X158547071Y-84470285D01*
X158547071Y-84470285D02*
X158832785Y-84541713D01*
X158832785Y-84541713D02*
X158975642Y-84613142D01*
X158975642Y-84613142D02*
X159118500Y-84755999D01*
X159118500Y-84755999D02*
X159189928Y-84970285D01*
X159189928Y-84970285D02*
X159189928Y-85327428D01*
X159047071Y-82970285D02*
X159118500Y-83041713D01*
X159118500Y-83041713D02*
X159189928Y-83255999D01*
X159189928Y-83255999D02*
X159189928Y-83398856D01*
X159189928Y-83398856D02*
X159118500Y-83613142D01*
X159118500Y-83613142D02*
X158975642Y-83755999D01*
X158975642Y-83755999D02*
X158832785Y-83827428D01*
X158832785Y-83827428D02*
X158547071Y-83898856D01*
X158547071Y-83898856D02*
X158332785Y-83898856D01*
X158332785Y-83898856D02*
X158047071Y-83827428D01*
X158047071Y-83827428D02*
X157904214Y-83755999D01*
X157904214Y-83755999D02*
X157761357Y-83613142D01*
X157761357Y-83613142D02*
X157689928Y-83398856D01*
X157689928Y-83398856D02*
X157689928Y-83255999D01*
X157689928Y-83255999D02*
X157761357Y-83041713D01*
X157761357Y-83041713D02*
X157832785Y-82970285D01*
X159189928Y-82327428D02*
X157689928Y-82327428D01*
X157689928Y-82327428D02*
X157689928Y-81970285D01*
X157689928Y-81970285D02*
X157761357Y-81755999D01*
X157761357Y-81755999D02*
X157904214Y-81613142D01*
X157904214Y-81613142D02*
X158047071Y-81541713D01*
X158047071Y-81541713D02*
X158332785Y-81470285D01*
X158332785Y-81470285D02*
X158547071Y-81470285D01*
X158547071Y-81470285D02*
X158832785Y-81541713D01*
X158832785Y-81541713D02*
X158975642Y-81613142D01*
X158975642Y-81613142D02*
X159118500Y-81755999D01*
X159118500Y-81755999D02*
X159189928Y-81970285D01*
X159189928Y-81970285D02*
X159189928Y-82327428D01*
X159047071Y-79970285D02*
X159118500Y-80041713D01*
X159118500Y-80041713D02*
X159189928Y-80255999D01*
X159189928Y-80255999D02*
X159189928Y-80398856D01*
X159189928Y-80398856D02*
X159118500Y-80613142D01*
X159118500Y-80613142D02*
X158975642Y-80755999D01*
X158975642Y-80755999D02*
X158832785Y-80827428D01*
X158832785Y-80827428D02*
X158547071Y-80898856D01*
X158547071Y-80898856D02*
X158332785Y-80898856D01*
X158332785Y-80898856D02*
X158047071Y-80827428D01*
X158047071Y-80827428D02*
X157904214Y-80755999D01*
X157904214Y-80755999D02*
X157761357Y-80613142D01*
X157761357Y-80613142D02*
X157689928Y-80398856D01*
X157689928Y-80398856D02*
X157689928Y-80255999D01*
X157689928Y-80255999D02*
X157761357Y-80041713D01*
X157761357Y-80041713D02*
X157832785Y-79970285D01*
X159189928Y-78184571D02*
X157689928Y-78184571D01*
X157689928Y-78184571D02*
X157689928Y-77613142D01*
X157689928Y-77613142D02*
X157761357Y-77470285D01*
X157761357Y-77470285D02*
X157832785Y-77398856D01*
X157832785Y-77398856D02*
X157975642Y-77327428D01*
X157975642Y-77327428D02*
X158189928Y-77327428D01*
X158189928Y-77327428D02*
X158332785Y-77398856D01*
X158332785Y-77398856D02*
X158404214Y-77470285D01*
X158404214Y-77470285D02*
X158475642Y-77613142D01*
X158475642Y-77613142D02*
X158475642Y-78184571D01*
X157689928Y-76827428D02*
X159189928Y-76470285D01*
X159189928Y-76470285D02*
X158118500Y-76184571D01*
X158118500Y-76184571D02*
X159189928Y-75898856D01*
X159189928Y-75898856D02*
X157689928Y-75541714D01*
X159189928Y-74113142D02*
X158475642Y-74613142D01*
X159189928Y-74970285D02*
X157689928Y-74970285D01*
X157689928Y-74970285D02*
X157689928Y-74398856D01*
X157689928Y-74398856D02*
X157761357Y-74255999D01*
X157761357Y-74255999D02*
X157832785Y-74184570D01*
X157832785Y-74184570D02*
X157975642Y-74113142D01*
X157975642Y-74113142D02*
X158189928Y-74113142D01*
X158189928Y-74113142D02*
X158332785Y-74184570D01*
X158332785Y-74184570D02*
X158404214Y-74255999D01*
X158404214Y-74255999D02*
X158475642Y-74398856D01*
X158475642Y-74398856D02*
X158475642Y-74970285D01*
X90038500Y-52387428D02*
X90038500Y-51244571D01*
X87622500Y-86928570D02*
X87693928Y-86714285D01*
X87693928Y-86714285D02*
X87693928Y-86357142D01*
X87693928Y-86357142D02*
X87622500Y-86214285D01*
X87622500Y-86214285D02*
X87551071Y-86142856D01*
X87551071Y-86142856D02*
X87408214Y-86071427D01*
X87408214Y-86071427D02*
X87265357Y-86071427D01*
X87265357Y-86071427D02*
X87122500Y-86142856D01*
X87122500Y-86142856D02*
X87051071Y-86214285D01*
X87051071Y-86214285D02*
X86979642Y-86357142D01*
X86979642Y-86357142D02*
X86908214Y-86642856D01*
X86908214Y-86642856D02*
X86836785Y-86785713D01*
X86836785Y-86785713D02*
X86765357Y-86857142D01*
X86765357Y-86857142D02*
X86622500Y-86928570D01*
X86622500Y-86928570D02*
X86479642Y-86928570D01*
X86479642Y-86928570D02*
X86336785Y-86857142D01*
X86336785Y-86857142D02*
X86265357Y-86785713D01*
X86265357Y-86785713D02*
X86193928Y-86642856D01*
X86193928Y-86642856D02*
X86193928Y-86285713D01*
X86193928Y-86285713D02*
X86265357Y-86071427D01*
X86193928Y-85428571D02*
X87408214Y-85428571D01*
X87408214Y-85428571D02*
X87551071Y-85357142D01*
X87551071Y-85357142D02*
X87622500Y-85285714D01*
X87622500Y-85285714D02*
X87693928Y-85142856D01*
X87693928Y-85142856D02*
X87693928Y-84857142D01*
X87693928Y-84857142D02*
X87622500Y-84714285D01*
X87622500Y-84714285D02*
X87551071Y-84642856D01*
X87551071Y-84642856D02*
X87408214Y-84571428D01*
X87408214Y-84571428D02*
X86193928Y-84571428D01*
X87693928Y-83857142D02*
X86193928Y-83857142D01*
X86193928Y-83857142D02*
X86193928Y-83285713D01*
X86193928Y-83285713D02*
X86265357Y-83142856D01*
X86265357Y-83142856D02*
X86336785Y-83071427D01*
X86336785Y-83071427D02*
X86479642Y-82999999D01*
X86479642Y-82999999D02*
X86693928Y-82999999D01*
X86693928Y-82999999D02*
X86836785Y-83071427D01*
X86836785Y-83071427D02*
X86908214Y-83142856D01*
X86908214Y-83142856D02*
X86979642Y-83285713D01*
X86979642Y-83285713D02*
X86979642Y-83857142D01*
X87693928Y-82357142D02*
X86193928Y-82357142D01*
X86193928Y-82357142D02*
X86193928Y-81785713D01*
X86193928Y-81785713D02*
X86265357Y-81642856D01*
X86265357Y-81642856D02*
X86336785Y-81571427D01*
X86336785Y-81571427D02*
X86479642Y-81499999D01*
X86479642Y-81499999D02*
X86693928Y-81499999D01*
X86693928Y-81499999D02*
X86836785Y-81571427D01*
X86836785Y-81571427D02*
X86908214Y-81642856D01*
X86908214Y-81642856D02*
X86979642Y-81785713D01*
X86979642Y-81785713D02*
X86979642Y-82357142D01*
X87693928Y-79714285D02*
X86193928Y-79714285D01*
X86193928Y-79714285D02*
X86193928Y-79142856D01*
X86193928Y-79142856D02*
X86265357Y-78999999D01*
X86265357Y-78999999D02*
X86336785Y-78928570D01*
X86336785Y-78928570D02*
X86479642Y-78857142D01*
X86479642Y-78857142D02*
X86693928Y-78857142D01*
X86693928Y-78857142D02*
X86836785Y-78928570D01*
X86836785Y-78928570D02*
X86908214Y-78999999D01*
X86908214Y-78999999D02*
X86979642Y-79142856D01*
X86979642Y-79142856D02*
X86979642Y-79714285D01*
X86193928Y-78357142D02*
X87693928Y-77999999D01*
X87693928Y-77999999D02*
X86622500Y-77714285D01*
X86622500Y-77714285D02*
X87693928Y-77428570D01*
X87693928Y-77428570D02*
X86193928Y-77071428D01*
X87693928Y-75642856D02*
X86979642Y-76142856D01*
X87693928Y-76499999D02*
X86193928Y-76499999D01*
X86193928Y-76499999D02*
X86193928Y-75928570D01*
X86193928Y-75928570D02*
X86265357Y-75785713D01*
X86265357Y-75785713D02*
X86336785Y-75714284D01*
X86336785Y-75714284D02*
X86479642Y-75642856D01*
X86479642Y-75642856D02*
X86693928Y-75642856D01*
X86693928Y-75642856D02*
X86836785Y-75714284D01*
X86836785Y-75714284D02*
X86908214Y-75785713D01*
X86908214Y-75785713D02*
X86979642Y-75928570D01*
X86979642Y-75928570D02*
X86979642Y-76499999D01*
X87693928Y-73071427D02*
X87693928Y-73928570D01*
X87693928Y-73499999D02*
X86193928Y-73499999D01*
X86193928Y-73499999D02*
X86408214Y-73642856D01*
X86408214Y-73642856D02*
X86551071Y-73785713D01*
X86551071Y-73785713D02*
X86622500Y-73928570D01*
X155062500Y-60007428D02*
X155062500Y-58864571D01*
D11*
X95942595Y-101015000D02*
X96085452Y-101062619D01*
X96085452Y-101062619D02*
X96323547Y-101062619D01*
X96323547Y-101062619D02*
X96418785Y-101015000D01*
X96418785Y-101015000D02*
X96466404Y-100967380D01*
X96466404Y-100967380D02*
X96514023Y-100872142D01*
X96514023Y-100872142D02*
X96514023Y-100776904D01*
X96514023Y-100776904D02*
X96466404Y-100681666D01*
X96466404Y-100681666D02*
X96418785Y-100634047D01*
X96418785Y-100634047D02*
X96323547Y-100586428D01*
X96323547Y-100586428D02*
X96133071Y-100538809D01*
X96133071Y-100538809D02*
X96037833Y-100491190D01*
X96037833Y-100491190D02*
X95990214Y-100443571D01*
X95990214Y-100443571D02*
X95942595Y-100348333D01*
X95942595Y-100348333D02*
X95942595Y-100253095D01*
X95942595Y-100253095D02*
X95990214Y-100157857D01*
X95990214Y-100157857D02*
X96037833Y-100110238D01*
X96037833Y-100110238D02*
X96133071Y-100062619D01*
X96133071Y-100062619D02*
X96371166Y-100062619D01*
X96371166Y-100062619D02*
X96514023Y-100110238D01*
X96942595Y-100062619D02*
X96942595Y-100872142D01*
X96942595Y-100872142D02*
X96990214Y-100967380D01*
X96990214Y-100967380D02*
X97037833Y-101015000D01*
X97037833Y-101015000D02*
X97133071Y-101062619D01*
X97133071Y-101062619D02*
X97323547Y-101062619D01*
X97323547Y-101062619D02*
X97418785Y-101015000D01*
X97418785Y-101015000D02*
X97466404Y-100967380D01*
X97466404Y-100967380D02*
X97514023Y-100872142D01*
X97514023Y-100872142D02*
X97514023Y-100062619D01*
X97990214Y-101062619D02*
X97990214Y-100062619D01*
X97990214Y-100062619D02*
X98371166Y-100062619D01*
X98371166Y-100062619D02*
X98466404Y-100110238D01*
X98466404Y-100110238D02*
X98514023Y-100157857D01*
X98514023Y-100157857D02*
X98561642Y-100253095D01*
X98561642Y-100253095D02*
X98561642Y-100395952D01*
X98561642Y-100395952D02*
X98514023Y-100491190D01*
X98514023Y-100491190D02*
X98466404Y-100538809D01*
X98466404Y-100538809D02*
X98371166Y-100586428D01*
X98371166Y-100586428D02*
X97990214Y-100586428D01*
X98990214Y-101062619D02*
X98990214Y-100062619D01*
X98990214Y-100062619D02*
X99371166Y-100062619D01*
X99371166Y-100062619D02*
X99466404Y-100110238D01*
X99466404Y-100110238D02*
X99514023Y-100157857D01*
X99514023Y-100157857D02*
X99561642Y-100253095D01*
X99561642Y-100253095D02*
X99561642Y-100395952D01*
X99561642Y-100395952D02*
X99514023Y-100491190D01*
X99514023Y-100491190D02*
X99466404Y-100538809D01*
X99466404Y-100538809D02*
X99371166Y-100586428D01*
X99371166Y-100586428D02*
X98990214Y-100586428D01*
X100752119Y-101062619D02*
X100752119Y-100062619D01*
X100752119Y-100062619D02*
X101133071Y-100062619D01*
X101133071Y-100062619D02*
X101228309Y-100110238D01*
X101228309Y-100110238D02*
X101275928Y-100157857D01*
X101275928Y-100157857D02*
X101323547Y-100253095D01*
X101323547Y-100253095D02*
X101323547Y-100395952D01*
X101323547Y-100395952D02*
X101275928Y-100491190D01*
X101275928Y-100491190D02*
X101228309Y-100538809D01*
X101228309Y-100538809D02*
X101133071Y-100586428D01*
X101133071Y-100586428D02*
X100752119Y-100586428D01*
X101656881Y-100062619D02*
X101894976Y-101062619D01*
X101894976Y-101062619D02*
X102085452Y-100348333D01*
X102085452Y-100348333D02*
X102275928Y-101062619D01*
X102275928Y-101062619D02*
X102514024Y-100062619D01*
X103466404Y-101062619D02*
X103133071Y-100586428D01*
X102894976Y-101062619D02*
X102894976Y-100062619D01*
X102894976Y-100062619D02*
X103275928Y-100062619D01*
X103275928Y-100062619D02*
X103371166Y-100110238D01*
X103371166Y-100110238D02*
X103418785Y-100157857D01*
X103418785Y-100157857D02*
X103466404Y-100253095D01*
X103466404Y-100253095D02*
X103466404Y-100395952D01*
X103466404Y-100395952D02*
X103418785Y-100491190D01*
X103418785Y-100491190D02*
X103371166Y-100538809D01*
X103371166Y-100538809D02*
X103275928Y-100586428D01*
X103275928Y-100586428D02*
X102894976Y-100586428D01*
D10*
X112442857Y-83543928D02*
X112442857Y-84615357D01*
X112442857Y-84615357D02*
X112371428Y-84829642D01*
X112371428Y-84829642D02*
X112228571Y-84972500D01*
X112228571Y-84972500D02*
X112014285Y-85043928D01*
X112014285Y-85043928D02*
X111871428Y-85043928D01*
X113800000Y-85043928D02*
X113800000Y-84258214D01*
X113800000Y-84258214D02*
X113728571Y-84115357D01*
X113728571Y-84115357D02*
X113585714Y-84043928D01*
X113585714Y-84043928D02*
X113300000Y-84043928D01*
X113300000Y-84043928D02*
X113157142Y-84115357D01*
X113800000Y-84972500D02*
X113657142Y-85043928D01*
X113657142Y-85043928D02*
X113300000Y-85043928D01*
X113300000Y-85043928D02*
X113157142Y-84972500D01*
X113157142Y-84972500D02*
X113085714Y-84829642D01*
X113085714Y-84829642D02*
X113085714Y-84686785D01*
X113085714Y-84686785D02*
X113157142Y-84543928D01*
X113157142Y-84543928D02*
X113300000Y-84472500D01*
X113300000Y-84472500D02*
X113657142Y-84472500D01*
X113657142Y-84472500D02*
X113800000Y-84401071D01*
X114442857Y-84972500D02*
X114585714Y-85043928D01*
X114585714Y-85043928D02*
X114871428Y-85043928D01*
X114871428Y-85043928D02*
X115014285Y-84972500D01*
X115014285Y-84972500D02*
X115085714Y-84829642D01*
X115085714Y-84829642D02*
X115085714Y-84758214D01*
X115085714Y-84758214D02*
X115014285Y-84615357D01*
X115014285Y-84615357D02*
X114871428Y-84543928D01*
X114871428Y-84543928D02*
X114657143Y-84543928D01*
X114657143Y-84543928D02*
X114514285Y-84472500D01*
X114514285Y-84472500D02*
X114442857Y-84329642D01*
X114442857Y-84329642D02*
X114442857Y-84258214D01*
X114442857Y-84258214D02*
X114514285Y-84115357D01*
X114514285Y-84115357D02*
X114657143Y-84043928D01*
X114657143Y-84043928D02*
X114871428Y-84043928D01*
X114871428Y-84043928D02*
X115014285Y-84115357D01*
X115942857Y-85043928D02*
X115800000Y-84972500D01*
X115800000Y-84972500D02*
X115728571Y-84901071D01*
X115728571Y-84901071D02*
X115657143Y-84758214D01*
X115657143Y-84758214D02*
X115657143Y-84329642D01*
X115657143Y-84329642D02*
X115728571Y-84186785D01*
X115728571Y-84186785D02*
X115800000Y-84115357D01*
X115800000Y-84115357D02*
X115942857Y-84043928D01*
X115942857Y-84043928D02*
X116157143Y-84043928D01*
X116157143Y-84043928D02*
X116300000Y-84115357D01*
X116300000Y-84115357D02*
X116371429Y-84186785D01*
X116371429Y-84186785D02*
X116442857Y-84329642D01*
X116442857Y-84329642D02*
X116442857Y-84758214D01*
X116442857Y-84758214D02*
X116371429Y-84901071D01*
X116371429Y-84901071D02*
X116300000Y-84972500D01*
X116300000Y-84972500D02*
X116157143Y-85043928D01*
X116157143Y-85043928D02*
X115942857Y-85043928D01*
X117085714Y-84043928D02*
X117085714Y-85043928D01*
X117085714Y-84186785D02*
X117157143Y-84115357D01*
X117157143Y-84115357D02*
X117300000Y-84043928D01*
X117300000Y-84043928D02*
X117514286Y-84043928D01*
X117514286Y-84043928D02*
X117657143Y-84115357D01*
X117657143Y-84115357D02*
X117728572Y-84258214D01*
X117728572Y-84258214D02*
X117728572Y-85043928D01*
X120800000Y-85043928D02*
X120728572Y-85043928D01*
X120728572Y-85043928D02*
X120585714Y-84972500D01*
X120585714Y-84972500D02*
X120371429Y-84758214D01*
X120371429Y-84758214D02*
X120014286Y-84329642D01*
X120014286Y-84329642D02*
X119871429Y-84115357D01*
X119871429Y-84115357D02*
X119800000Y-83901071D01*
X119800000Y-83901071D02*
X119800000Y-83758214D01*
X119800000Y-83758214D02*
X119871429Y-83615357D01*
X119871429Y-83615357D02*
X120014286Y-83543928D01*
X120014286Y-83543928D02*
X120085714Y-83543928D01*
X120085714Y-83543928D02*
X120228572Y-83615357D01*
X120228572Y-83615357D02*
X120300000Y-83758214D01*
X120300000Y-83758214D02*
X120300000Y-83829642D01*
X120300000Y-83829642D02*
X120228572Y-83972500D01*
X120228572Y-83972500D02*
X120157143Y-84043928D01*
X120157143Y-84043928D02*
X119728572Y-84329642D01*
X119728572Y-84329642D02*
X119657143Y-84401071D01*
X119657143Y-84401071D02*
X119585714Y-84543928D01*
X119585714Y-84543928D02*
X119585714Y-84758214D01*
X119585714Y-84758214D02*
X119657143Y-84901071D01*
X119657143Y-84901071D02*
X119728572Y-84972500D01*
X119728572Y-84972500D02*
X119871429Y-85043928D01*
X119871429Y-85043928D02*
X120085714Y-85043928D01*
X120085714Y-85043928D02*
X120228572Y-84972500D01*
X120228572Y-84972500D02*
X120300000Y-84901071D01*
X120300000Y-84901071D02*
X120514286Y-84615357D01*
X120514286Y-84615357D02*
X120585714Y-84401071D01*
X120585714Y-84401071D02*
X120585714Y-84258214D01*
X122585714Y-85043928D02*
X122585714Y-83543928D01*
X122585714Y-83543928D02*
X123157143Y-83543928D01*
X123157143Y-83543928D02*
X123300000Y-83615357D01*
X123300000Y-83615357D02*
X123371429Y-83686785D01*
X123371429Y-83686785D02*
X123442857Y-83829642D01*
X123442857Y-83829642D02*
X123442857Y-84043928D01*
X123442857Y-84043928D02*
X123371429Y-84186785D01*
X123371429Y-84186785D02*
X123300000Y-84258214D01*
X123300000Y-84258214D02*
X123157143Y-84329642D01*
X123157143Y-84329642D02*
X122585714Y-84329642D01*
X124085714Y-85043928D02*
X124085714Y-84043928D01*
X124085714Y-84329642D02*
X124157143Y-84186785D01*
X124157143Y-84186785D02*
X124228572Y-84115357D01*
X124228572Y-84115357D02*
X124371429Y-84043928D01*
X124371429Y-84043928D02*
X124514286Y-84043928D01*
X125657143Y-85043928D02*
X125657143Y-84258214D01*
X125657143Y-84258214D02*
X125585714Y-84115357D01*
X125585714Y-84115357D02*
X125442857Y-84043928D01*
X125442857Y-84043928D02*
X125157143Y-84043928D01*
X125157143Y-84043928D02*
X125014285Y-84115357D01*
X125657143Y-84972500D02*
X125514285Y-85043928D01*
X125514285Y-85043928D02*
X125157143Y-85043928D01*
X125157143Y-85043928D02*
X125014285Y-84972500D01*
X125014285Y-84972500D02*
X124942857Y-84829642D01*
X124942857Y-84829642D02*
X124942857Y-84686785D01*
X124942857Y-84686785D02*
X125014285Y-84543928D01*
X125014285Y-84543928D02*
X125157143Y-84472500D01*
X125157143Y-84472500D02*
X125514285Y-84472500D01*
X125514285Y-84472500D02*
X125657143Y-84401071D01*
X126157143Y-84043928D02*
X126728571Y-84043928D01*
X126371428Y-83543928D02*
X126371428Y-84829642D01*
X126371428Y-84829642D02*
X126442857Y-84972500D01*
X126442857Y-84972500D02*
X126585714Y-85043928D01*
X126585714Y-85043928D02*
X126728571Y-85043928D01*
X127085714Y-84043928D02*
X127442857Y-85043928D01*
X127800000Y-84043928D02*
X127442857Y-85043928D01*
X127442857Y-85043928D02*
X127300000Y-85401071D01*
X127300000Y-85401071D02*
X127228571Y-85472500D01*
X127228571Y-85472500D02*
X127085714Y-85543928D01*
X129014286Y-84043928D02*
X129014286Y-85043928D01*
X128371428Y-84043928D02*
X128371428Y-84829642D01*
X128371428Y-84829642D02*
X128442857Y-84972500D01*
X128442857Y-84972500D02*
X128585714Y-85043928D01*
X128585714Y-85043928D02*
X128800000Y-85043928D01*
X128800000Y-85043928D02*
X128942857Y-84972500D01*
X128942857Y-84972500D02*
X129014286Y-84901071D01*
X129657143Y-84972500D02*
X129800000Y-85043928D01*
X129800000Y-85043928D02*
X130085714Y-85043928D01*
X130085714Y-85043928D02*
X130228571Y-84972500D01*
X130228571Y-84972500D02*
X130300000Y-84829642D01*
X130300000Y-84829642D02*
X130300000Y-84758214D01*
X130300000Y-84758214D02*
X130228571Y-84615357D01*
X130228571Y-84615357D02*
X130085714Y-84543928D01*
X130085714Y-84543928D02*
X129871429Y-84543928D01*
X129871429Y-84543928D02*
X129728571Y-84472500D01*
X129728571Y-84472500D02*
X129657143Y-84329642D01*
X129657143Y-84329642D02*
X129657143Y-84258214D01*
X129657143Y-84258214D02*
X129728571Y-84115357D01*
X129728571Y-84115357D02*
X129871429Y-84043928D01*
X129871429Y-84043928D02*
X130085714Y-84043928D01*
X130085714Y-84043928D02*
X130228571Y-84115357D01*
X130942857Y-85043928D02*
X130942857Y-83543928D01*
X131585715Y-85043928D02*
X131585715Y-84258214D01*
X131585715Y-84258214D02*
X131514286Y-84115357D01*
X131514286Y-84115357D02*
X131371429Y-84043928D01*
X131371429Y-84043928D02*
X131157143Y-84043928D01*
X131157143Y-84043928D02*
X131014286Y-84115357D01*
X131014286Y-84115357D02*
X130942857Y-84186785D01*
X154368571Y-51938500D02*
X155511429Y-51938500D01*
X154940000Y-52509928D02*
X154940000Y-51367071D01*
X107818500Y-49847428D02*
X107818500Y-48704571D01*
X89344571Y-59558500D02*
X90487429Y-59558500D01*
X89916000Y-60129928D02*
X89916000Y-58987071D01*
X155062500Y-84391428D02*
X155062500Y-83248571D01*
D11*
X119971214Y-101012619D02*
X119971214Y-100012619D01*
X119971214Y-100012619D02*
X120209309Y-100012619D01*
X120209309Y-100012619D02*
X120352166Y-100060238D01*
X120352166Y-100060238D02*
X120447404Y-100155476D01*
X120447404Y-100155476D02*
X120495023Y-100250714D01*
X120495023Y-100250714D02*
X120542642Y-100441190D01*
X120542642Y-100441190D02*
X120542642Y-100584047D01*
X120542642Y-100584047D02*
X120495023Y-100774523D01*
X120495023Y-100774523D02*
X120447404Y-100869761D01*
X120447404Y-100869761D02*
X120352166Y-100965000D01*
X120352166Y-100965000D02*
X120209309Y-101012619D01*
X120209309Y-101012619D02*
X119971214Y-101012619D01*
X121542642Y-100917380D02*
X121495023Y-100965000D01*
X121495023Y-100965000D02*
X121352166Y-101012619D01*
X121352166Y-101012619D02*
X121256928Y-101012619D01*
X121256928Y-101012619D02*
X121114071Y-100965000D01*
X121114071Y-100965000D02*
X121018833Y-100869761D01*
X121018833Y-100869761D02*
X120971214Y-100774523D01*
X120971214Y-100774523D02*
X120923595Y-100584047D01*
X120923595Y-100584047D02*
X120923595Y-100441190D01*
X120923595Y-100441190D02*
X120971214Y-100250714D01*
X120971214Y-100250714D02*
X121018833Y-100155476D01*
X121018833Y-100155476D02*
X121114071Y-100060238D01*
X121114071Y-100060238D02*
X121256928Y-100012619D01*
X121256928Y-100012619D02*
X121352166Y-100012619D01*
X121352166Y-100012619D02*
X121495023Y-100060238D01*
X121495023Y-100060238D02*
X121542642Y-100107857D01*
X121971214Y-101012619D02*
X121971214Y-100012619D01*
X121971214Y-100012619D02*
X122209309Y-100012619D01*
X122209309Y-100012619D02*
X122352166Y-100060238D01*
X122352166Y-100060238D02*
X122447404Y-100155476D01*
X122447404Y-100155476D02*
X122495023Y-100250714D01*
X122495023Y-100250714D02*
X122542642Y-100441190D01*
X122542642Y-100441190D02*
X122542642Y-100584047D01*
X122542642Y-100584047D02*
X122495023Y-100774523D01*
X122495023Y-100774523D02*
X122447404Y-100869761D01*
X122447404Y-100869761D02*
X122352166Y-100965000D01*
X122352166Y-100965000D02*
X122209309Y-101012619D01*
X122209309Y-101012619D02*
X121971214Y-101012619D01*
X123542642Y-100917380D02*
X123495023Y-100965000D01*
X123495023Y-100965000D02*
X123352166Y-101012619D01*
X123352166Y-101012619D02*
X123256928Y-101012619D01*
X123256928Y-101012619D02*
X123114071Y-100965000D01*
X123114071Y-100965000D02*
X123018833Y-100869761D01*
X123018833Y-100869761D02*
X122971214Y-100774523D01*
X122971214Y-100774523D02*
X122923595Y-100584047D01*
X122923595Y-100584047D02*
X122923595Y-100441190D01*
X122923595Y-100441190D02*
X122971214Y-100250714D01*
X122971214Y-100250714D02*
X123018833Y-100155476D01*
X123018833Y-100155476D02*
X123114071Y-100060238D01*
X123114071Y-100060238D02*
X123256928Y-100012619D01*
X123256928Y-100012619D02*
X123352166Y-100012619D01*
X123352166Y-100012619D02*
X123495023Y-100060238D01*
X123495023Y-100060238D02*
X123542642Y-100107857D01*
X124733119Y-101012619D02*
X124733119Y-100012619D01*
X124733119Y-100012619D02*
X125114071Y-100012619D01*
X125114071Y-100012619D02*
X125209309Y-100060238D01*
X125209309Y-100060238D02*
X125256928Y-100107857D01*
X125256928Y-100107857D02*
X125304547Y-100203095D01*
X125304547Y-100203095D02*
X125304547Y-100345952D01*
X125304547Y-100345952D02*
X125256928Y-100441190D01*
X125256928Y-100441190D02*
X125209309Y-100488809D01*
X125209309Y-100488809D02*
X125114071Y-100536428D01*
X125114071Y-100536428D02*
X124733119Y-100536428D01*
X125637881Y-100012619D02*
X125875976Y-101012619D01*
X125875976Y-101012619D02*
X126066452Y-100298333D01*
X126066452Y-100298333D02*
X126256928Y-101012619D01*
X126256928Y-101012619D02*
X126495024Y-100012619D01*
X127447404Y-101012619D02*
X127114071Y-100536428D01*
X126875976Y-101012619D02*
X126875976Y-100012619D01*
X126875976Y-100012619D02*
X127256928Y-100012619D01*
X127256928Y-100012619D02*
X127352166Y-100060238D01*
X127352166Y-100060238D02*
X127399785Y-100107857D01*
X127399785Y-100107857D02*
X127447404Y-100203095D01*
X127447404Y-100203095D02*
X127447404Y-100345952D01*
X127447404Y-100345952D02*
X127399785Y-100441190D01*
X127399785Y-100441190D02*
X127352166Y-100488809D01*
X127352166Y-100488809D02*
X127256928Y-100536428D01*
X127256928Y-100536428D02*
X126875976Y-100536428D01*
D10*
X158404214Y-63487143D02*
X158404214Y-63987143D01*
X159189928Y-63987143D02*
X157689928Y-63987143D01*
X157689928Y-63987143D02*
X157689928Y-63272857D01*
X157689928Y-62701429D02*
X158904214Y-62701429D01*
X158904214Y-62701429D02*
X159047071Y-62630000D01*
X159047071Y-62630000D02*
X159118500Y-62558572D01*
X159118500Y-62558572D02*
X159189928Y-62415714D01*
X159189928Y-62415714D02*
X159189928Y-62130000D01*
X159189928Y-62130000D02*
X159118500Y-61987143D01*
X159118500Y-61987143D02*
X159047071Y-61915714D01*
X159047071Y-61915714D02*
X158904214Y-61844286D01*
X158904214Y-61844286D02*
X157689928Y-61844286D01*
X159118500Y-61201428D02*
X159189928Y-60987143D01*
X159189928Y-60987143D02*
X159189928Y-60630000D01*
X159189928Y-60630000D02*
X159118500Y-60487143D01*
X159118500Y-60487143D02*
X159047071Y-60415714D01*
X159047071Y-60415714D02*
X158904214Y-60344285D01*
X158904214Y-60344285D02*
X158761357Y-60344285D01*
X158761357Y-60344285D02*
X158618500Y-60415714D01*
X158618500Y-60415714D02*
X158547071Y-60487143D01*
X158547071Y-60487143D02*
X158475642Y-60630000D01*
X158475642Y-60630000D02*
X158404214Y-60915714D01*
X158404214Y-60915714D02*
X158332785Y-61058571D01*
X158332785Y-61058571D02*
X158261357Y-61130000D01*
X158261357Y-61130000D02*
X158118500Y-61201428D01*
X158118500Y-61201428D02*
X157975642Y-61201428D01*
X157975642Y-61201428D02*
X157832785Y-61130000D01*
X157832785Y-61130000D02*
X157761357Y-61058571D01*
X157761357Y-61058571D02*
X157689928Y-60915714D01*
X157689928Y-60915714D02*
X157689928Y-60558571D01*
X157689928Y-60558571D02*
X157761357Y-60344285D01*
X158404214Y-59701429D02*
X158404214Y-59201429D01*
X159189928Y-58987143D02*
X159189928Y-59701429D01*
X159189928Y-59701429D02*
X157689928Y-59701429D01*
X157689928Y-59701429D02*
X157689928Y-58987143D01*
X159189928Y-57201429D02*
X157689928Y-57201429D01*
X157689928Y-57201429D02*
X157689928Y-56630000D01*
X157689928Y-56630000D02*
X157761357Y-56487143D01*
X157761357Y-56487143D02*
X157832785Y-56415714D01*
X157832785Y-56415714D02*
X157975642Y-56344286D01*
X157975642Y-56344286D02*
X158189928Y-56344286D01*
X158189928Y-56344286D02*
X158332785Y-56415714D01*
X158332785Y-56415714D02*
X158404214Y-56487143D01*
X158404214Y-56487143D02*
X158475642Y-56630000D01*
X158475642Y-56630000D02*
X158475642Y-57201429D01*
X157689928Y-55844286D02*
X159189928Y-55487143D01*
X159189928Y-55487143D02*
X158118500Y-55201429D01*
X158118500Y-55201429D02*
X159189928Y-54915714D01*
X159189928Y-54915714D02*
X157689928Y-54558572D01*
X159189928Y-53130000D02*
X158475642Y-53630000D01*
X159189928Y-53987143D02*
X157689928Y-53987143D01*
X157689928Y-53987143D02*
X157689928Y-53415714D01*
X157689928Y-53415714D02*
X157761357Y-53272857D01*
X157761357Y-53272857D02*
X157832785Y-53201428D01*
X157832785Y-53201428D02*
X157975642Y-53130000D01*
X157975642Y-53130000D02*
X158189928Y-53130000D01*
X158189928Y-53130000D02*
X158332785Y-53201428D01*
X158332785Y-53201428D02*
X158404214Y-53272857D01*
X158404214Y-53272857D02*
X158475642Y-53415714D01*
X158475642Y-53415714D02*
X158475642Y-53987143D01*
X157689928Y-51058571D02*
X157689928Y-50772857D01*
X157689928Y-50772857D02*
X157761357Y-50630000D01*
X157761357Y-50630000D02*
X157904214Y-50487143D01*
X157904214Y-50487143D02*
X158189928Y-50415714D01*
X158189928Y-50415714D02*
X158689928Y-50415714D01*
X158689928Y-50415714D02*
X158975642Y-50487143D01*
X158975642Y-50487143D02*
X159118500Y-50630000D01*
X159118500Y-50630000D02*
X159189928Y-50772857D01*
X159189928Y-50772857D02*
X159189928Y-51058571D01*
X159189928Y-51058571D02*
X159118500Y-51201429D01*
X159118500Y-51201429D02*
X158975642Y-51344286D01*
X158975642Y-51344286D02*
X158689928Y-51415714D01*
X158689928Y-51415714D02*
X158189928Y-51415714D01*
X158189928Y-51415714D02*
X157904214Y-51344286D01*
X157904214Y-51344286D02*
X157761357Y-51201429D01*
X157761357Y-51201429D02*
X157689928Y-51058571D01*
X157689928Y-49772857D02*
X158904214Y-49772857D01*
X158904214Y-49772857D02*
X159047071Y-49701428D01*
X159047071Y-49701428D02*
X159118500Y-49630000D01*
X159118500Y-49630000D02*
X159189928Y-49487142D01*
X159189928Y-49487142D02*
X159189928Y-49201428D01*
X159189928Y-49201428D02*
X159118500Y-49058571D01*
X159118500Y-49058571D02*
X159047071Y-48987142D01*
X159047071Y-48987142D02*
X158904214Y-48915714D01*
X158904214Y-48915714D02*
X157689928Y-48915714D01*
X157689928Y-48415713D02*
X157689928Y-47558571D01*
X159189928Y-47987142D02*
X157689928Y-47987142D01*
D11*
X154317019Y-80348333D02*
X155031304Y-80348333D01*
X155031304Y-80348333D02*
X155174161Y-80395952D01*
X155174161Y-80395952D02*
X155269400Y-80491190D01*
X155269400Y-80491190D02*
X155317019Y-80634047D01*
X155317019Y-80634047D02*
X155317019Y-80729285D01*
X154650352Y-79443571D02*
X155317019Y-79443571D01*
X154269400Y-79681666D02*
X154983685Y-79919761D01*
X154983685Y-79919761D02*
X154983685Y-79300714D01*
X123900397Y-96507619D02*
X123567064Y-96031428D01*
X123328969Y-96507619D02*
X123328969Y-95507619D01*
X123328969Y-95507619D02*
X123709921Y-95507619D01*
X123709921Y-95507619D02*
X123805159Y-95555238D01*
X123805159Y-95555238D02*
X123852778Y-95602857D01*
X123852778Y-95602857D02*
X123900397Y-95698095D01*
X123900397Y-95698095D02*
X123900397Y-95840952D01*
X123900397Y-95840952D02*
X123852778Y-95936190D01*
X123852778Y-95936190D02*
X123805159Y-95983809D01*
X123805159Y-95983809D02*
X123709921Y-96031428D01*
X123709921Y-96031428D02*
X123328969Y-96031428D01*
X124757540Y-95840952D02*
X124757540Y-96507619D01*
X124519445Y-95460000D02*
X124281350Y-96174285D01*
X124281350Y-96174285D02*
X124900397Y-96174285D01*
X122083333Y-81312619D02*
X121750000Y-80836428D01*
X121511905Y-81312619D02*
X121511905Y-80312619D01*
X121511905Y-80312619D02*
X121892857Y-80312619D01*
X121892857Y-80312619D02*
X121988095Y-80360238D01*
X121988095Y-80360238D02*
X122035714Y-80407857D01*
X122035714Y-80407857D02*
X122083333Y-80503095D01*
X122083333Y-80503095D02*
X122083333Y-80645952D01*
X122083333Y-80645952D02*
X122035714Y-80741190D01*
X122035714Y-80741190D02*
X121988095Y-80788809D01*
X121988095Y-80788809D02*
X121892857Y-80836428D01*
X121892857Y-80836428D02*
X121511905Y-80836428D01*
X122416667Y-80312619D02*
X123083333Y-80312619D01*
X123083333Y-80312619D02*
X122654762Y-81312619D01*
X154317019Y-56167533D02*
X155031304Y-56167533D01*
X155031304Y-56167533D02*
X155174161Y-56215152D01*
X155174161Y-56215152D02*
X155269400Y-56310390D01*
X155269400Y-56310390D02*
X155317019Y-56453247D01*
X155317019Y-56453247D02*
X155317019Y-56548485D01*
X154317019Y-55215152D02*
X154317019Y-55691342D01*
X154317019Y-55691342D02*
X154793209Y-55738961D01*
X154793209Y-55738961D02*
X154745590Y-55691342D01*
X154745590Y-55691342D02*
X154697971Y-55596104D01*
X154697971Y-55596104D02*
X154697971Y-55358009D01*
X154697971Y-55358009D02*
X154745590Y-55262771D01*
X154745590Y-55262771D02*
X154793209Y-55215152D01*
X154793209Y-55215152D02*
X154888447Y-55167533D01*
X154888447Y-55167533D02*
X155126542Y-55167533D01*
X155126542Y-55167533D02*
X155221780Y-55215152D01*
X155221780Y-55215152D02*
X155269400Y-55262771D01*
X155269400Y-55262771D02*
X155317019Y-55358009D01*
X155317019Y-55358009D02*
X155317019Y-55596104D01*
X155317019Y-55596104D02*
X155269400Y-55691342D01*
X155269400Y-55691342D02*
X155221780Y-55738961D01*
X120666666Y-60108809D02*
X120333333Y-60108809D01*
X120333333Y-60632619D02*
X120333333Y-59632619D01*
X120333333Y-59632619D02*
X120809523Y-59632619D01*
X121714285Y-60632619D02*
X121142857Y-60632619D01*
X121428571Y-60632619D02*
X121428571Y-59632619D01*
X121428571Y-59632619D02*
X121333333Y-59775476D01*
X121333333Y-59775476D02*
X121238095Y-59870714D01*
X121238095Y-59870714D02*
X121142857Y-59918333D01*
X89997619Y-80338333D02*
X90711904Y-80338333D01*
X90711904Y-80338333D02*
X90854761Y-80385952D01*
X90854761Y-80385952D02*
X90950000Y-80481190D01*
X90950000Y-80481190D02*
X90997619Y-80624047D01*
X90997619Y-80624047D02*
X90997619Y-80719285D01*
X90092857Y-79909761D02*
X90045238Y-79862142D01*
X90045238Y-79862142D02*
X89997619Y-79766904D01*
X89997619Y-79766904D02*
X89997619Y-79528809D01*
X89997619Y-79528809D02*
X90045238Y-79433571D01*
X90045238Y-79433571D02*
X90092857Y-79385952D01*
X90092857Y-79385952D02*
X90188095Y-79338333D01*
X90188095Y-79338333D02*
X90283333Y-79338333D01*
X90283333Y-79338333D02*
X90426190Y-79385952D01*
X90426190Y-79385952D02*
X90997619Y-79957380D01*
X90997619Y-79957380D02*
X90997619Y-79338333D01*
X134009524Y-101012619D02*
X134009524Y-100012619D01*
X134009524Y-100012619D02*
X134247619Y-100012619D01*
X134247619Y-100012619D02*
X134390476Y-100060238D01*
X134390476Y-100060238D02*
X134485714Y-100155476D01*
X134485714Y-100155476D02*
X134533333Y-100250714D01*
X134533333Y-100250714D02*
X134580952Y-100441190D01*
X134580952Y-100441190D02*
X134580952Y-100584047D01*
X134580952Y-100584047D02*
X134533333Y-100774523D01*
X134533333Y-100774523D02*
X134485714Y-100869761D01*
X134485714Y-100869761D02*
X134390476Y-100965000D01*
X134390476Y-100965000D02*
X134247619Y-101012619D01*
X134247619Y-101012619D02*
X134009524Y-101012619D01*
X135580952Y-100917380D02*
X135533333Y-100965000D01*
X135533333Y-100965000D02*
X135390476Y-101012619D01*
X135390476Y-101012619D02*
X135295238Y-101012619D01*
X135295238Y-101012619D02*
X135152381Y-100965000D01*
X135152381Y-100965000D02*
X135057143Y-100869761D01*
X135057143Y-100869761D02*
X135009524Y-100774523D01*
X135009524Y-100774523D02*
X134961905Y-100584047D01*
X134961905Y-100584047D02*
X134961905Y-100441190D01*
X134961905Y-100441190D02*
X135009524Y-100250714D01*
X135009524Y-100250714D02*
X135057143Y-100155476D01*
X135057143Y-100155476D02*
X135152381Y-100060238D01*
X135152381Y-100060238D02*
X135295238Y-100012619D01*
X135295238Y-100012619D02*
X135390476Y-100012619D01*
X135390476Y-100012619D02*
X135533333Y-100060238D01*
X135533333Y-100060238D02*
X135580952Y-100107857D01*
X135771429Y-101107857D02*
X136533333Y-101107857D01*
X136961905Y-100012619D02*
X137152381Y-100012619D01*
X137152381Y-100012619D02*
X137247619Y-100060238D01*
X137247619Y-100060238D02*
X137342857Y-100155476D01*
X137342857Y-100155476D02*
X137390476Y-100345952D01*
X137390476Y-100345952D02*
X137390476Y-100679285D01*
X137390476Y-100679285D02*
X137342857Y-100869761D01*
X137342857Y-100869761D02*
X137247619Y-100965000D01*
X137247619Y-100965000D02*
X137152381Y-101012619D01*
X137152381Y-101012619D02*
X136961905Y-101012619D01*
X136961905Y-101012619D02*
X136866667Y-100965000D01*
X136866667Y-100965000D02*
X136771429Y-100869761D01*
X136771429Y-100869761D02*
X136723810Y-100679285D01*
X136723810Y-100679285D02*
X136723810Y-100345952D01*
X136723810Y-100345952D02*
X136771429Y-100155476D01*
X136771429Y-100155476D02*
X136866667Y-100060238D01*
X136866667Y-100060238D02*
X136961905Y-100012619D01*
X137819048Y-101012619D02*
X137819048Y-100012619D01*
X137819048Y-100012619D02*
X138390476Y-101012619D01*
X138390476Y-101012619D02*
X138390476Y-100012619D01*
D13*
X138708478Y-72019999D02*
X138648002Y-72140951D01*
X138648002Y-72140951D02*
X138527050Y-72261904D01*
X138527050Y-72261904D02*
X138345621Y-72443332D01*
X138345621Y-72443332D02*
X138285145Y-72564285D01*
X138285145Y-72564285D02*
X138285145Y-72685237D01*
X138587526Y-72624761D02*
X138527050Y-72745713D01*
X138527050Y-72745713D02*
X138406097Y-72866666D01*
X138406097Y-72866666D02*
X138164192Y-72927142D01*
X138164192Y-72927142D02*
X137740859Y-72927142D01*
X137740859Y-72927142D02*
X137498954Y-72866666D01*
X137498954Y-72866666D02*
X137378002Y-72745713D01*
X137378002Y-72745713D02*
X137317526Y-72624761D01*
X137317526Y-72624761D02*
X137317526Y-72382856D01*
X137317526Y-72382856D02*
X137378002Y-72261904D01*
X137378002Y-72261904D02*
X137498954Y-72140951D01*
X137498954Y-72140951D02*
X137740859Y-72080475D01*
X137740859Y-72080475D02*
X138164192Y-72080475D01*
X138164192Y-72080475D02*
X138406097Y-72140951D01*
X138406097Y-72140951D02*
X138527050Y-72261904D01*
X138527050Y-72261904D02*
X138587526Y-72382856D01*
X138587526Y-72382856D02*
X138587526Y-72624761D01*
X138587526Y-70870951D02*
X138587526Y-71596666D01*
X138587526Y-71233809D02*
X137317526Y-71233809D01*
X137317526Y-71233809D02*
X137498954Y-71354761D01*
X137498954Y-71354761D02*
X137619907Y-71475713D01*
X137619907Y-71475713D02*
X137680383Y-71596666D01*
X138224669Y-70387142D02*
X138224669Y-69782380D01*
X138587526Y-70508094D02*
X137317526Y-70084761D01*
X137317526Y-70084761D02*
X138587526Y-69661427D01*
X137740859Y-68693809D02*
X138587526Y-68693809D01*
X137257050Y-68996190D02*
X138164192Y-69298571D01*
X138164192Y-69298571D02*
X138164192Y-68512380D01*
X113129047Y-78358478D02*
X113008095Y-78298002D01*
X113008095Y-78298002D02*
X112887142Y-78177050D01*
X112887142Y-78177050D02*
X112705714Y-77995621D01*
X112705714Y-77995621D02*
X112584761Y-77935145D01*
X112584761Y-77935145D02*
X112463809Y-77935145D01*
X112524285Y-78237526D02*
X112403333Y-78177050D01*
X112403333Y-78177050D02*
X112282380Y-78056097D01*
X112282380Y-78056097D02*
X112221904Y-77814192D01*
X112221904Y-77814192D02*
X112221904Y-77390859D01*
X112221904Y-77390859D02*
X112282380Y-77148954D01*
X112282380Y-77148954D02*
X112403333Y-77028002D01*
X112403333Y-77028002D02*
X112524285Y-76967526D01*
X112524285Y-76967526D02*
X112766190Y-76967526D01*
X112766190Y-76967526D02*
X112887142Y-77028002D01*
X112887142Y-77028002D02*
X113008095Y-77148954D01*
X113008095Y-77148954D02*
X113068571Y-77390859D01*
X113068571Y-77390859D02*
X113068571Y-77814192D01*
X113068571Y-77814192D02*
X113008095Y-78056097D01*
X113008095Y-78056097D02*
X112887142Y-78177050D01*
X112887142Y-78177050D02*
X112766190Y-78237526D01*
X112766190Y-78237526D02*
X112524285Y-78237526D01*
X114278095Y-78237526D02*
X113552380Y-78237526D01*
X113915237Y-78237526D02*
X113915237Y-76967526D01*
X113915237Y-76967526D02*
X113794285Y-77148954D01*
X113794285Y-77148954D02*
X113673333Y-77269907D01*
X113673333Y-77269907D02*
X113552380Y-77330383D01*
X124208478Y-72019999D02*
X124148002Y-72140951D01*
X124148002Y-72140951D02*
X124027050Y-72261904D01*
X124027050Y-72261904D02*
X123845621Y-72443332D01*
X123845621Y-72443332D02*
X123785145Y-72564285D01*
X123785145Y-72564285D02*
X123785145Y-72685237D01*
X124087526Y-72624761D02*
X124027050Y-72745713D01*
X124027050Y-72745713D02*
X123906097Y-72866666D01*
X123906097Y-72866666D02*
X123664192Y-72927142D01*
X123664192Y-72927142D02*
X123240859Y-72927142D01*
X123240859Y-72927142D02*
X122998954Y-72866666D01*
X122998954Y-72866666D02*
X122878002Y-72745713D01*
X122878002Y-72745713D02*
X122817526Y-72624761D01*
X122817526Y-72624761D02*
X122817526Y-72382856D01*
X122817526Y-72382856D02*
X122878002Y-72261904D01*
X122878002Y-72261904D02*
X122998954Y-72140951D01*
X122998954Y-72140951D02*
X123240859Y-72080475D01*
X123240859Y-72080475D02*
X123664192Y-72080475D01*
X123664192Y-72080475D02*
X123906097Y-72140951D01*
X123906097Y-72140951D02*
X124027050Y-72261904D01*
X124027050Y-72261904D02*
X124087526Y-72382856D01*
X124087526Y-72382856D02*
X124087526Y-72624761D01*
X124087526Y-70870951D02*
X124087526Y-71596666D01*
X124087526Y-71233809D02*
X122817526Y-71233809D01*
X122817526Y-71233809D02*
X122998954Y-71354761D01*
X122998954Y-71354761D02*
X123119907Y-71475713D01*
X123119907Y-71475713D02*
X123180383Y-71596666D01*
X123724669Y-70387142D02*
X123724669Y-69782380D01*
X124087526Y-70508094D02*
X122817526Y-70084761D01*
X122817526Y-70084761D02*
X124087526Y-69661427D01*
X124087526Y-68572856D02*
X124087526Y-69298571D01*
X124087526Y-68935714D02*
X122817526Y-68935714D01*
X122817526Y-68935714D02*
X122998954Y-69056666D01*
X122998954Y-69056666D02*
X123119907Y-69177618D01*
X123119907Y-69177618D02*
X123180383Y-69298571D01*
D11*
X121266666Y-41372619D02*
X121266666Y-42086904D01*
X121266666Y-42086904D02*
X121219047Y-42229761D01*
X121219047Y-42229761D02*
X121123809Y-42325000D01*
X121123809Y-42325000D02*
X120980952Y-42372619D01*
X120980952Y-42372619D02*
X120885714Y-42372619D01*
X122266666Y-42372619D02*
X121695238Y-42372619D01*
X121980952Y-42372619D02*
X121980952Y-41372619D01*
X121980952Y-41372619D02*
X121885714Y-41515476D01*
X121885714Y-41515476D02*
X121790476Y-41610714D01*
X121790476Y-41610714D02*
X121695238Y-41658333D01*
X135033333Y-79962619D02*
X134700000Y-79486428D01*
X134461905Y-79962619D02*
X134461905Y-78962619D01*
X134461905Y-78962619D02*
X134842857Y-78962619D01*
X134842857Y-78962619D02*
X134938095Y-79010238D01*
X134938095Y-79010238D02*
X134985714Y-79057857D01*
X134985714Y-79057857D02*
X135033333Y-79153095D01*
X135033333Y-79153095D02*
X135033333Y-79295952D01*
X135033333Y-79295952D02*
X134985714Y-79391190D01*
X134985714Y-79391190D02*
X134938095Y-79438809D01*
X134938095Y-79438809D02*
X134842857Y-79486428D01*
X134842857Y-79486428D02*
X134461905Y-79486428D01*
X135366667Y-78962619D02*
X135985714Y-78962619D01*
X135985714Y-78962619D02*
X135652381Y-79343571D01*
X135652381Y-79343571D02*
X135795238Y-79343571D01*
X135795238Y-79343571D02*
X135890476Y-79391190D01*
X135890476Y-79391190D02*
X135938095Y-79438809D01*
X135938095Y-79438809D02*
X135985714Y-79534047D01*
X135985714Y-79534047D02*
X135985714Y-79772142D01*
X135985714Y-79772142D02*
X135938095Y-79867380D01*
X135938095Y-79867380D02*
X135890476Y-79915000D01*
X135890476Y-79915000D02*
X135795238Y-79962619D01*
X135795238Y-79962619D02*
X135509524Y-79962619D01*
X135509524Y-79962619D02*
X135414286Y-79915000D01*
X135414286Y-79915000D02*
X135366667Y-79867380D01*
D13*
X125629047Y-77758478D02*
X125508095Y-77698002D01*
X125508095Y-77698002D02*
X125387142Y-77577050D01*
X125387142Y-77577050D02*
X125205714Y-77395621D01*
X125205714Y-77395621D02*
X125084761Y-77335145D01*
X125084761Y-77335145D02*
X124963809Y-77335145D01*
X125024285Y-77637526D02*
X124903333Y-77577050D01*
X124903333Y-77577050D02*
X124782380Y-77456097D01*
X124782380Y-77456097D02*
X124721904Y-77214192D01*
X124721904Y-77214192D02*
X124721904Y-76790859D01*
X124721904Y-76790859D02*
X124782380Y-76548954D01*
X124782380Y-76548954D02*
X124903333Y-76428002D01*
X124903333Y-76428002D02*
X125024285Y-76367526D01*
X125024285Y-76367526D02*
X125266190Y-76367526D01*
X125266190Y-76367526D02*
X125387142Y-76428002D01*
X125387142Y-76428002D02*
X125508095Y-76548954D01*
X125508095Y-76548954D02*
X125568571Y-76790859D01*
X125568571Y-76790859D02*
X125568571Y-77214192D01*
X125568571Y-77214192D02*
X125508095Y-77456097D01*
X125508095Y-77456097D02*
X125387142Y-77577050D01*
X125387142Y-77577050D02*
X125266190Y-77637526D01*
X125266190Y-77637526D02*
X125024285Y-77637526D01*
X125991904Y-76367526D02*
X126778095Y-76367526D01*
X126778095Y-76367526D02*
X126354761Y-76851335D01*
X126354761Y-76851335D02*
X126536190Y-76851335D01*
X126536190Y-76851335D02*
X126657142Y-76911811D01*
X126657142Y-76911811D02*
X126717618Y-76972288D01*
X126717618Y-76972288D02*
X126778095Y-77093240D01*
X126778095Y-77093240D02*
X126778095Y-77395621D01*
X126778095Y-77395621D02*
X126717618Y-77516573D01*
X126717618Y-77516573D02*
X126657142Y-77577050D01*
X126657142Y-77577050D02*
X126536190Y-77637526D01*
X126536190Y-77637526D02*
X126173333Y-77637526D01*
X126173333Y-77637526D02*
X126052380Y-77577050D01*
X126052380Y-77577050D02*
X125991904Y-77516573D01*
D11*
X118180714Y-96507619D02*
X118180714Y-95507619D01*
X118180714Y-95507619D02*
X118418809Y-95507619D01*
X118418809Y-95507619D02*
X118561666Y-95555238D01*
X118561666Y-95555238D02*
X118656904Y-95650476D01*
X118656904Y-95650476D02*
X118704523Y-95745714D01*
X118704523Y-95745714D02*
X118752142Y-95936190D01*
X118752142Y-95936190D02*
X118752142Y-96079047D01*
X118752142Y-96079047D02*
X118704523Y-96269523D01*
X118704523Y-96269523D02*
X118656904Y-96364761D01*
X118656904Y-96364761D02*
X118561666Y-96460000D01*
X118561666Y-96460000D02*
X118418809Y-96507619D01*
X118418809Y-96507619D02*
X118180714Y-96507619D01*
X119133095Y-96460000D02*
X119275952Y-96507619D01*
X119275952Y-96507619D02*
X119514047Y-96507619D01*
X119514047Y-96507619D02*
X119609285Y-96460000D01*
X119609285Y-96460000D02*
X119656904Y-96412380D01*
X119656904Y-96412380D02*
X119704523Y-96317142D01*
X119704523Y-96317142D02*
X119704523Y-96221904D01*
X119704523Y-96221904D02*
X119656904Y-96126666D01*
X119656904Y-96126666D02*
X119609285Y-96079047D01*
X119609285Y-96079047D02*
X119514047Y-96031428D01*
X119514047Y-96031428D02*
X119323571Y-95983809D01*
X119323571Y-95983809D02*
X119228333Y-95936190D01*
X119228333Y-95936190D02*
X119180714Y-95888571D01*
X119180714Y-95888571D02*
X119133095Y-95793333D01*
X119133095Y-95793333D02*
X119133095Y-95698095D01*
X119133095Y-95698095D02*
X119180714Y-95602857D01*
X119180714Y-95602857D02*
X119228333Y-95555238D01*
X119228333Y-95555238D02*
X119323571Y-95507619D01*
X119323571Y-95507619D02*
X119561666Y-95507619D01*
X119561666Y-95507619D02*
X119704523Y-95555238D01*
X120085476Y-95602857D02*
X120133095Y-95555238D01*
X120133095Y-95555238D02*
X120228333Y-95507619D01*
X120228333Y-95507619D02*
X120466428Y-95507619D01*
X120466428Y-95507619D02*
X120561666Y-95555238D01*
X120561666Y-95555238D02*
X120609285Y-95602857D01*
X120609285Y-95602857D02*
X120656904Y-95698095D01*
X120656904Y-95698095D02*
X120656904Y-95793333D01*
X120656904Y-95793333D02*
X120609285Y-95936190D01*
X120609285Y-95936190D02*
X120037857Y-96507619D01*
X120037857Y-96507619D02*
X120656904Y-96507619D01*
X109095238Y-100962619D02*
X109095238Y-99962619D01*
X109095238Y-99962619D02*
X109333333Y-99962619D01*
X109333333Y-99962619D02*
X109476190Y-100010238D01*
X109476190Y-100010238D02*
X109571428Y-100105476D01*
X109571428Y-100105476D02*
X109619047Y-100200714D01*
X109619047Y-100200714D02*
X109666666Y-100391190D01*
X109666666Y-100391190D02*
X109666666Y-100534047D01*
X109666666Y-100534047D02*
X109619047Y-100724523D01*
X109619047Y-100724523D02*
X109571428Y-100819761D01*
X109571428Y-100819761D02*
X109476190Y-100915000D01*
X109476190Y-100915000D02*
X109333333Y-100962619D01*
X109333333Y-100962619D02*
X109095238Y-100962619D01*
X110666666Y-100867380D02*
X110619047Y-100915000D01*
X110619047Y-100915000D02*
X110476190Y-100962619D01*
X110476190Y-100962619D02*
X110380952Y-100962619D01*
X110380952Y-100962619D02*
X110238095Y-100915000D01*
X110238095Y-100915000D02*
X110142857Y-100819761D01*
X110142857Y-100819761D02*
X110095238Y-100724523D01*
X110095238Y-100724523D02*
X110047619Y-100534047D01*
X110047619Y-100534047D02*
X110047619Y-100391190D01*
X110047619Y-100391190D02*
X110095238Y-100200714D01*
X110095238Y-100200714D02*
X110142857Y-100105476D01*
X110142857Y-100105476D02*
X110238095Y-100010238D01*
X110238095Y-100010238D02*
X110380952Y-99962619D01*
X110380952Y-99962619D02*
X110476190Y-99962619D01*
X110476190Y-99962619D02*
X110619047Y-100010238D01*
X110619047Y-100010238D02*
X110666666Y-100057857D01*
X110857143Y-101057857D02*
X111619047Y-101057857D01*
X112380952Y-100010238D02*
X112285714Y-99962619D01*
X112285714Y-99962619D02*
X112142857Y-99962619D01*
X112142857Y-99962619D02*
X112000000Y-100010238D01*
X112000000Y-100010238D02*
X111904762Y-100105476D01*
X111904762Y-100105476D02*
X111857143Y-100200714D01*
X111857143Y-100200714D02*
X111809524Y-100391190D01*
X111809524Y-100391190D02*
X111809524Y-100534047D01*
X111809524Y-100534047D02*
X111857143Y-100724523D01*
X111857143Y-100724523D02*
X111904762Y-100819761D01*
X111904762Y-100819761D02*
X112000000Y-100915000D01*
X112000000Y-100915000D02*
X112142857Y-100962619D01*
X112142857Y-100962619D02*
X112238095Y-100962619D01*
X112238095Y-100962619D02*
X112380952Y-100915000D01*
X112380952Y-100915000D02*
X112428571Y-100867380D01*
X112428571Y-100867380D02*
X112428571Y-100534047D01*
X112428571Y-100534047D02*
X112238095Y-100534047D01*
X112809524Y-100676904D02*
X113285714Y-100676904D01*
X112714286Y-100962619D02*
X113047619Y-99962619D01*
X113047619Y-99962619D02*
X113380952Y-100962619D01*
X113571429Y-99962619D02*
X114142857Y-99962619D01*
X113857143Y-100962619D02*
X113857143Y-99962619D01*
X114476191Y-100438809D02*
X114809524Y-100438809D01*
X114952381Y-100962619D02*
X114476191Y-100962619D01*
X114476191Y-100962619D02*
X114476191Y-99962619D01*
X114476191Y-99962619D02*
X114952381Y-99962619D01*
X132733333Y-79962619D02*
X132400000Y-79486428D01*
X132161905Y-79962619D02*
X132161905Y-78962619D01*
X132161905Y-78962619D02*
X132542857Y-78962619D01*
X132542857Y-78962619D02*
X132638095Y-79010238D01*
X132638095Y-79010238D02*
X132685714Y-79057857D01*
X132685714Y-79057857D02*
X132733333Y-79153095D01*
X132733333Y-79153095D02*
X132733333Y-79295952D01*
X132733333Y-79295952D02*
X132685714Y-79391190D01*
X132685714Y-79391190D02*
X132638095Y-79438809D01*
X132638095Y-79438809D02*
X132542857Y-79486428D01*
X132542857Y-79486428D02*
X132161905Y-79486428D01*
X133638095Y-78962619D02*
X133161905Y-78962619D01*
X133161905Y-78962619D02*
X133114286Y-79438809D01*
X133114286Y-79438809D02*
X133161905Y-79391190D01*
X133161905Y-79391190D02*
X133257143Y-79343571D01*
X133257143Y-79343571D02*
X133495238Y-79343571D01*
X133495238Y-79343571D02*
X133590476Y-79391190D01*
X133590476Y-79391190D02*
X133638095Y-79438809D01*
X133638095Y-79438809D02*
X133685714Y-79534047D01*
X133685714Y-79534047D02*
X133685714Y-79772142D01*
X133685714Y-79772142D02*
X133638095Y-79867380D01*
X133638095Y-79867380D02*
X133590476Y-79915000D01*
X133590476Y-79915000D02*
X133495238Y-79962619D01*
X133495238Y-79962619D02*
X133257143Y-79962619D01*
X133257143Y-79962619D02*
X133161905Y-79915000D01*
X133161905Y-79915000D02*
X133114286Y-79867380D01*
X99898333Y-96607619D02*
X99565000Y-96131428D01*
X99326905Y-96607619D02*
X99326905Y-95607619D01*
X99326905Y-95607619D02*
X99707857Y-95607619D01*
X99707857Y-95607619D02*
X99803095Y-95655238D01*
X99803095Y-95655238D02*
X99850714Y-95702857D01*
X99850714Y-95702857D02*
X99898333Y-95798095D01*
X99898333Y-95798095D02*
X99898333Y-95940952D01*
X99898333Y-95940952D02*
X99850714Y-96036190D01*
X99850714Y-96036190D02*
X99803095Y-96083809D01*
X99803095Y-96083809D02*
X99707857Y-96131428D01*
X99707857Y-96131428D02*
X99326905Y-96131428D01*
X100850714Y-96607619D02*
X100279286Y-96607619D01*
X100565000Y-96607619D02*
X100565000Y-95607619D01*
X100565000Y-95607619D02*
X100469762Y-95750476D01*
X100469762Y-95750476D02*
X100374524Y-95845714D01*
X100374524Y-95845714D02*
X100279286Y-95893333D01*
X89997619Y-56157533D02*
X90711904Y-56157533D01*
X90711904Y-56157533D02*
X90854761Y-56205152D01*
X90854761Y-56205152D02*
X90950000Y-56300390D01*
X90950000Y-56300390D02*
X90997619Y-56443247D01*
X90997619Y-56443247D02*
X90997619Y-56538485D01*
X89997619Y-55776580D02*
X89997619Y-55157533D01*
X89997619Y-55157533D02*
X90378571Y-55490866D01*
X90378571Y-55490866D02*
X90378571Y-55348009D01*
X90378571Y-55348009D02*
X90426190Y-55252771D01*
X90426190Y-55252771D02*
X90473809Y-55205152D01*
X90473809Y-55205152D02*
X90569047Y-55157533D01*
X90569047Y-55157533D02*
X90807142Y-55157533D01*
X90807142Y-55157533D02*
X90902380Y-55205152D01*
X90902380Y-55205152D02*
X90950000Y-55252771D01*
X90950000Y-55252771D02*
X90997619Y-55348009D01*
X90997619Y-55348009D02*
X90997619Y-55633723D01*
X90997619Y-55633723D02*
X90950000Y-55728961D01*
X90950000Y-55728961D02*
X90902380Y-55776580D01*
D13*
X124208478Y-66269999D02*
X124148002Y-66390951D01*
X124148002Y-66390951D02*
X124027050Y-66511904D01*
X124027050Y-66511904D02*
X123845621Y-66693332D01*
X123845621Y-66693332D02*
X123785145Y-66814285D01*
X123785145Y-66814285D02*
X123785145Y-66935237D01*
X124087526Y-66874761D02*
X124027050Y-66995713D01*
X124027050Y-66995713D02*
X123906097Y-67116666D01*
X123906097Y-67116666D02*
X123664192Y-67177142D01*
X123664192Y-67177142D02*
X123240859Y-67177142D01*
X123240859Y-67177142D02*
X122998954Y-67116666D01*
X122998954Y-67116666D02*
X122878002Y-66995713D01*
X122878002Y-66995713D02*
X122817526Y-66874761D01*
X122817526Y-66874761D02*
X122817526Y-66632856D01*
X122817526Y-66632856D02*
X122878002Y-66511904D01*
X122878002Y-66511904D02*
X122998954Y-66390951D01*
X122998954Y-66390951D02*
X123240859Y-66330475D01*
X123240859Y-66330475D02*
X123664192Y-66330475D01*
X123664192Y-66330475D02*
X123906097Y-66390951D01*
X123906097Y-66390951D02*
X124027050Y-66511904D01*
X124027050Y-66511904D02*
X124087526Y-66632856D01*
X124087526Y-66632856D02*
X124087526Y-66874761D01*
X124087526Y-65120951D02*
X124087526Y-65846666D01*
X124087526Y-65483809D02*
X122817526Y-65483809D01*
X122817526Y-65483809D02*
X122998954Y-65604761D01*
X122998954Y-65604761D02*
X123119907Y-65725713D01*
X123119907Y-65725713D02*
X123180383Y-65846666D01*
X123724669Y-64637142D02*
X123724669Y-64032380D01*
X124087526Y-64758094D02*
X122817526Y-64334761D01*
X122817526Y-64334761D02*
X124087526Y-63911427D01*
X122817526Y-63609047D02*
X122817526Y-62822856D01*
X122817526Y-62822856D02*
X123301335Y-63246190D01*
X123301335Y-63246190D02*
X123301335Y-63064761D01*
X123301335Y-63064761D02*
X123361811Y-62943809D01*
X123361811Y-62943809D02*
X123422288Y-62883333D01*
X123422288Y-62883333D02*
X123543240Y-62822856D01*
X123543240Y-62822856D02*
X123845621Y-62822856D01*
X123845621Y-62822856D02*
X123966573Y-62883333D01*
X123966573Y-62883333D02*
X124027050Y-62943809D01*
X124027050Y-62943809D02*
X124087526Y-63064761D01*
X124087526Y-63064761D02*
X124087526Y-63427618D01*
X124087526Y-63427618D02*
X124027050Y-63548571D01*
X124027050Y-63548571D02*
X123966573Y-63609047D01*
X138708478Y-66269999D02*
X138648002Y-66390951D01*
X138648002Y-66390951D02*
X138527050Y-66511904D01*
X138527050Y-66511904D02*
X138345621Y-66693332D01*
X138345621Y-66693332D02*
X138285145Y-66814285D01*
X138285145Y-66814285D02*
X138285145Y-66935237D01*
X138587526Y-66874761D02*
X138527050Y-66995713D01*
X138527050Y-66995713D02*
X138406097Y-67116666D01*
X138406097Y-67116666D02*
X138164192Y-67177142D01*
X138164192Y-67177142D02*
X137740859Y-67177142D01*
X137740859Y-67177142D02*
X137498954Y-67116666D01*
X137498954Y-67116666D02*
X137378002Y-66995713D01*
X137378002Y-66995713D02*
X137317526Y-66874761D01*
X137317526Y-66874761D02*
X137317526Y-66632856D01*
X137317526Y-66632856D02*
X137378002Y-66511904D01*
X137378002Y-66511904D02*
X137498954Y-66390951D01*
X137498954Y-66390951D02*
X137740859Y-66330475D01*
X137740859Y-66330475D02*
X138164192Y-66330475D01*
X138164192Y-66330475D02*
X138406097Y-66390951D01*
X138406097Y-66390951D02*
X138527050Y-66511904D01*
X138527050Y-66511904D02*
X138587526Y-66632856D01*
X138587526Y-66632856D02*
X138587526Y-66874761D01*
X138587526Y-65120951D02*
X138587526Y-65846666D01*
X138587526Y-65483809D02*
X137317526Y-65483809D01*
X137317526Y-65483809D02*
X137498954Y-65604761D01*
X137498954Y-65604761D02*
X137619907Y-65725713D01*
X137619907Y-65725713D02*
X137680383Y-65846666D01*
X138224669Y-64637142D02*
X138224669Y-64032380D01*
X138587526Y-64758094D02*
X137317526Y-64334761D01*
X137317526Y-64334761D02*
X138587526Y-63911427D01*
X137438478Y-63548571D02*
X137378002Y-63488095D01*
X137378002Y-63488095D02*
X137317526Y-63367142D01*
X137317526Y-63367142D02*
X137317526Y-63064761D01*
X137317526Y-63064761D02*
X137378002Y-62943809D01*
X137378002Y-62943809D02*
X137438478Y-62883333D01*
X137438478Y-62883333D02*
X137559430Y-62822856D01*
X137559430Y-62822856D02*
X137680383Y-62822856D01*
X137680383Y-62822856D02*
X137861811Y-62883333D01*
X137861811Y-62883333D02*
X138587526Y-63609047D01*
X138587526Y-63609047D02*
X138587526Y-62822856D01*
D11*
X94580714Y-96607619D02*
X94580714Y-95607619D01*
X94580714Y-95607619D02*
X94818809Y-95607619D01*
X94818809Y-95607619D02*
X94961666Y-95655238D01*
X94961666Y-95655238D02*
X95056904Y-95750476D01*
X95056904Y-95750476D02*
X95104523Y-95845714D01*
X95104523Y-95845714D02*
X95152142Y-96036190D01*
X95152142Y-96036190D02*
X95152142Y-96179047D01*
X95152142Y-96179047D02*
X95104523Y-96369523D01*
X95104523Y-96369523D02*
X95056904Y-96464761D01*
X95056904Y-96464761D02*
X94961666Y-96560000D01*
X94961666Y-96560000D02*
X94818809Y-96607619D01*
X94818809Y-96607619D02*
X94580714Y-96607619D01*
X95533095Y-96560000D02*
X95675952Y-96607619D01*
X95675952Y-96607619D02*
X95914047Y-96607619D01*
X95914047Y-96607619D02*
X96009285Y-96560000D01*
X96009285Y-96560000D02*
X96056904Y-96512380D01*
X96056904Y-96512380D02*
X96104523Y-96417142D01*
X96104523Y-96417142D02*
X96104523Y-96321904D01*
X96104523Y-96321904D02*
X96056904Y-96226666D01*
X96056904Y-96226666D02*
X96009285Y-96179047D01*
X96009285Y-96179047D02*
X95914047Y-96131428D01*
X95914047Y-96131428D02*
X95723571Y-96083809D01*
X95723571Y-96083809D02*
X95628333Y-96036190D01*
X95628333Y-96036190D02*
X95580714Y-95988571D01*
X95580714Y-95988571D02*
X95533095Y-95893333D01*
X95533095Y-95893333D02*
X95533095Y-95798095D01*
X95533095Y-95798095D02*
X95580714Y-95702857D01*
X95580714Y-95702857D02*
X95628333Y-95655238D01*
X95628333Y-95655238D02*
X95723571Y-95607619D01*
X95723571Y-95607619D02*
X95961666Y-95607619D01*
X95961666Y-95607619D02*
X96104523Y-95655238D01*
X97056904Y-96607619D02*
X96485476Y-96607619D01*
X96771190Y-96607619D02*
X96771190Y-95607619D01*
X96771190Y-95607619D02*
X96675952Y-95750476D01*
X96675952Y-95750476D02*
X96580714Y-95845714D01*
X96580714Y-95845714D02*
X96485476Y-95893333D01*
D13*
X113029047Y-81908478D02*
X112908095Y-81848002D01*
X112908095Y-81848002D02*
X112787142Y-81727050D01*
X112787142Y-81727050D02*
X112605714Y-81545621D01*
X112605714Y-81545621D02*
X112484761Y-81485145D01*
X112484761Y-81485145D02*
X112363809Y-81485145D01*
X112424285Y-81787526D02*
X112303333Y-81727050D01*
X112303333Y-81727050D02*
X112182380Y-81606097D01*
X112182380Y-81606097D02*
X112121904Y-81364192D01*
X112121904Y-81364192D02*
X112121904Y-80940859D01*
X112121904Y-80940859D02*
X112182380Y-80698954D01*
X112182380Y-80698954D02*
X112303333Y-80578002D01*
X112303333Y-80578002D02*
X112424285Y-80517526D01*
X112424285Y-80517526D02*
X112666190Y-80517526D01*
X112666190Y-80517526D02*
X112787142Y-80578002D01*
X112787142Y-80578002D02*
X112908095Y-80698954D01*
X112908095Y-80698954D02*
X112968571Y-80940859D01*
X112968571Y-80940859D02*
X112968571Y-81364192D01*
X112968571Y-81364192D02*
X112908095Y-81606097D01*
X112908095Y-81606097D02*
X112787142Y-81727050D01*
X112787142Y-81727050D02*
X112666190Y-81787526D01*
X112666190Y-81787526D02*
X112424285Y-81787526D01*
X113452380Y-80638478D02*
X113512856Y-80578002D01*
X113512856Y-80578002D02*
X113633809Y-80517526D01*
X113633809Y-80517526D02*
X113936190Y-80517526D01*
X113936190Y-80517526D02*
X114057142Y-80578002D01*
X114057142Y-80578002D02*
X114117618Y-80638478D01*
X114117618Y-80638478D02*
X114178095Y-80759430D01*
X114178095Y-80759430D02*
X114178095Y-80880383D01*
X114178095Y-80880383D02*
X114117618Y-81061811D01*
X114117618Y-81061811D02*
X113391904Y-81787526D01*
X113391904Y-81787526D02*
X114178095Y-81787526D01*
D14*
X151914400Y-69365000D02*
X140164400Y-69365000D01*
X140164400Y-69365000D02*
X140164400Y-90655000D01*
X152780085Y-75865000D02*
X152214400Y-76265000D01*
X152214400Y-76265000D02*
X152780085Y-76665000D01*
X152780085Y-76665000D02*
X152780085Y-75865000D01*
X153764400Y-78375000D02*
X153764400Y-81645000D01*
X151914400Y-78375000D02*
X153764400Y-78375000D01*
X153764400Y-81645000D02*
X151914400Y-81645000D01*
X151914400Y-90655000D02*
X151914400Y-69365000D01*
X140164400Y-90655000D02*
X151914400Y-90655000D01*
X124067064Y-98685000D02*
X123612936Y-98685000D01*
X124067064Y-97215000D02*
X123612936Y-97215000D01*
X122772500Y-78212742D02*
X122772500Y-78687258D01*
X121727500Y-78212742D02*
X121727500Y-78687258D01*
X151914400Y-45184200D02*
X140164400Y-45184200D01*
X140164400Y-45184200D02*
X140164400Y-66474200D01*
X152780085Y-51684200D02*
X152214400Y-52084200D01*
X152214400Y-52084200D02*
X152780085Y-52484200D01*
X152780085Y-52484200D02*
X152780085Y-51684200D01*
X153764400Y-54194200D02*
X153764400Y-57464200D01*
X151914400Y-54194200D02*
X153764400Y-54194200D01*
X153764400Y-57464200D02*
X151914400Y-57464200D01*
X151914400Y-66474200D02*
X151914400Y-45184200D01*
X140164400Y-66474200D02*
X151914400Y-66474200D01*
X129100000Y-59270000D02*
X129100000Y-52330000D01*
X129100000Y-52330000D02*
X112900000Y-52330000D01*
X122600000Y-57800000D02*
X119400000Y-57800000D01*
X121750000Y-55800000D02*
X120250000Y-55800000D01*
X119400000Y-53800000D02*
X122600000Y-53800000D01*
X112900000Y-59270000D02*
X129100000Y-59270000D01*
X112900000Y-52330000D02*
X112900000Y-59270000D01*
X93475000Y-90655000D02*
X105225000Y-90655000D01*
X105225000Y-90655000D02*
X105225000Y-69365000D01*
X92609315Y-84155000D02*
X93175000Y-83755000D01*
X93175000Y-83755000D02*
X92609315Y-83355000D01*
X92609315Y-83355000D02*
X92609315Y-84155000D01*
X91625000Y-81645000D02*
X91625000Y-78375000D01*
X93475000Y-81645000D02*
X91625000Y-81645000D01*
X91625000Y-78375000D02*
X93475000Y-78375000D01*
X93475000Y-69365000D02*
X93475000Y-90655000D01*
X105225000Y-69365000D02*
X93475000Y-69365000D01*
X135000000Y-96800000D02*
X137400000Y-96800000D01*
X135000000Y-99200000D02*
X135000000Y-96800000D01*
X137400000Y-96800000D02*
X137400000Y-99200000D01*
X137400000Y-99200000D02*
X135000000Y-99200000D01*
D15*
X136515000Y-73520000D02*
X136515000Y-70600000D01*
X126005000Y-73520000D02*
X136515000Y-73520000D01*
X126005000Y-68870000D02*
X126005000Y-73520000D01*
X114925000Y-76450000D02*
X115675000Y-76450000D01*
X116025000Y-76650000D02*
X116775000Y-76650000D01*
X116025000Y-78650000D02*
X116025000Y-76650000D01*
X116775000Y-76650000D02*
X116775000Y-78650000D01*
X116775000Y-78650000D02*
X116025000Y-78650000D01*
X122115000Y-73320000D02*
X122115000Y-70400000D01*
X111605000Y-73320000D02*
X122115000Y-73320000D01*
X111605000Y-68670000D02*
X111605000Y-73320000D01*
D14*
X116665000Y-44120000D02*
X116665000Y-47195000D01*
X116665000Y-47195000D02*
X126535000Y-47195000D01*
X118085000Y-42605000D02*
X118085000Y-43105000D01*
X118085000Y-43105000D02*
X125115000Y-43105000D01*
X118105000Y-42605000D02*
X118085000Y-42605000D01*
X125115000Y-42605000D02*
X125095000Y-42605000D01*
X125115000Y-43105000D02*
X125115000Y-42605000D01*
X126535000Y-47195000D02*
X126535000Y-44120000D01*
X126450000Y-96750000D02*
X128850000Y-96750000D01*
X126450000Y-99150000D02*
X126450000Y-96750000D01*
X128850000Y-96750000D02*
X128850000Y-99150000D01*
X128850000Y-99150000D02*
X126450000Y-99150000D01*
X135722500Y-76862742D02*
X135722500Y-77337258D01*
X134677500Y-76862742D02*
X134677500Y-77337258D01*
X102850000Y-96850000D02*
X105250000Y-96850000D01*
X102850000Y-99250000D02*
X102850000Y-96850000D01*
X105250000Y-96850000D02*
X105250000Y-99250000D01*
X105250000Y-99250000D02*
X102850000Y-99250000D01*
D15*
X130375000Y-78150000D02*
X129625000Y-78150000D01*
X129275000Y-77950000D02*
X128525000Y-77950000D01*
X129275000Y-75950000D02*
X129275000Y-77950000D01*
X128525000Y-77950000D02*
X128525000Y-75950000D01*
X128525000Y-75950000D02*
X129275000Y-75950000D01*
D14*
X144702500Y-96595000D02*
X147102500Y-96595000D01*
X144702500Y-98995000D02*
X144702500Y-96595000D01*
X147102500Y-96595000D02*
X147102500Y-98995000D01*
X147102500Y-98995000D02*
X144702500Y-98995000D01*
X117710000Y-96990000D02*
X117710000Y-98910000D01*
X117710000Y-98910000D02*
X120395000Y-98910000D01*
X120395000Y-96990000D02*
X117710000Y-96990000D01*
X110850000Y-96850000D02*
X113250000Y-96850000D01*
X110850000Y-99250000D02*
X110850000Y-96850000D01*
X113250000Y-96850000D02*
X113250000Y-99250000D01*
X113250000Y-99250000D02*
X110850000Y-99250000D01*
X132327500Y-77337258D02*
X132327500Y-76862742D01*
X133372500Y-77337258D02*
X133372500Y-76862742D01*
X100467064Y-98785000D02*
X100012936Y-98785000D01*
X100467064Y-97315000D02*
X100012936Y-97315000D01*
X93475000Y-66474200D02*
X105225000Y-66474200D01*
X105225000Y-66474200D02*
X105225000Y-45184200D01*
X92609315Y-59974200D02*
X93175000Y-59574200D01*
X93175000Y-59574200D02*
X92609315Y-59174200D01*
X92609315Y-59174200D02*
X92609315Y-59974200D01*
X91625000Y-57464200D02*
X91625000Y-54194200D01*
X93475000Y-57464200D02*
X91625000Y-57464200D01*
X91625000Y-54194200D02*
X93475000Y-54194200D01*
X93475000Y-45184200D02*
X93475000Y-66474200D01*
X105225000Y-45184200D02*
X93475000Y-45184200D01*
D15*
X122115000Y-67320000D02*
X122115000Y-64400000D01*
X111605000Y-67320000D02*
X122115000Y-67320000D01*
X111605000Y-62670000D02*
X111605000Y-67320000D01*
X136515000Y-67320000D02*
X136515000Y-64400000D01*
X126005000Y-67320000D02*
X136515000Y-67320000D01*
X126005000Y-62670000D02*
X126005000Y-67320000D01*
D14*
X94110000Y-97090000D02*
X94110000Y-99010000D01*
X94110000Y-99010000D02*
X96795000Y-99010000D01*
X96795000Y-97090000D02*
X94110000Y-97090000D01*
D15*
X114925000Y-80000000D02*
X115675000Y-80000000D01*
X116025000Y-80200000D02*
X116775000Y-80200000D01*
X116025000Y-82200000D02*
X116025000Y-80200000D01*
X116775000Y-80200000D02*
X116775000Y-82200000D01*
X116775000Y-82200000D02*
X116025000Y-82200000D01*
%LPC*%
D16*
X147334400Y-76265000D03*
X144154400Y-76265000D03*
X147334400Y-83755000D03*
X144154400Y-83755000D03*
D17*
X124752500Y-97950000D03*
X122927500Y-97950000D03*
D18*
X122250000Y-77625000D03*
X122250000Y-79275000D03*
D16*
X147334400Y-52084200D03*
X144154400Y-52084200D03*
X147334400Y-59574200D03*
X144154400Y-59574200D03*
D19*
X125960000Y-57500000D03*
X125960000Y-54100000D03*
X116040000Y-57500000D03*
X116040000Y-54100000D03*
D16*
X98055000Y-83755000D03*
X101235000Y-83755000D03*
X98055000Y-76265000D03*
X101235000Y-76265000D03*
D20*
X157000000Y-43000000D03*
D21*
X136200000Y-98000000D03*
D22*
X133800000Y-70600000D03*
D23*
X131260000Y-70600000D03*
X128720000Y-70600000D03*
D24*
X115300000Y-77000000D03*
X115300000Y-77650000D03*
X115300000Y-78300000D03*
X117500000Y-78300000D03*
X117500000Y-77650000D03*
X117500000Y-77000000D03*
D22*
X119400000Y-70400000D03*
D23*
X116860000Y-70400000D03*
X114320000Y-70400000D03*
D20*
X88000000Y-43000000D03*
D25*
X117100000Y-43225000D03*
X126100000Y-43225000D03*
D26*
X120100000Y-45185000D03*
D27*
X123100000Y-45185000D03*
D21*
X127650000Y-97950000D03*
D18*
X135200000Y-76275000D03*
X135200000Y-77925000D03*
D21*
X104050000Y-98050000D03*
D24*
X130000000Y-77600000D03*
X130000000Y-76950000D03*
X130000000Y-76300000D03*
X127800000Y-76300000D03*
X127800000Y-76950000D03*
X127800000Y-77600000D03*
D21*
X145902500Y-97795000D03*
D28*
X118457500Y-97950000D03*
X120332500Y-97950000D03*
D21*
X112050000Y-98050000D03*
D29*
X132850000Y-77925000D03*
X132850000Y-76275000D03*
D20*
X87852500Y-97750000D03*
D17*
X101152500Y-98050000D03*
X99327500Y-98050000D03*
D16*
X98055000Y-59574200D03*
X101235000Y-59574200D03*
X98055000Y-52084200D03*
X101235000Y-52084200D03*
D22*
X119400000Y-64400000D03*
D23*
X116860000Y-64400000D03*
X114320000Y-64400000D03*
D22*
X133800000Y-64400000D03*
D23*
X131260000Y-64400000D03*
X128720000Y-64400000D03*
D20*
X156852500Y-97750000D03*
D28*
X94857500Y-98050000D03*
X96732500Y-98050000D03*
D24*
X115300000Y-80550000D03*
X115300000Y-81200000D03*
X115300000Y-81850000D03*
X117500000Y-81850000D03*
X117500000Y-81200000D03*
X117500000Y-80550000D03*
%LPD*%
M02*
