G04 #@! TF.GenerationSoftware,KiCad,Pcbnew,(6.0.7)*
G04 #@! TF.CreationDate,2023-01-21T15:41:39-06:00*
G04 #@! TF.ProjectId,Power-Secondary,506f7765-722d-4536-9563-6f6e64617279,rev?*
G04 #@! TF.SameCoordinates,Original*
G04 #@! TF.FileFunction,Legend,Top*
G04 #@! TF.FilePolarity,Positive*
%FSLAX46Y46*%
G04 Gerber Fmt 4.6, Leading zero omitted, Abs format (unit mm)*
G04 Created by KiCad (PCBNEW (6.0.7)) date 2023-01-21 15:41:39*
%MOMM*%
%LPD*%
G01*
G04 APERTURE LIST*
G04 Aperture macros list*
%AMRoundRect*
0 Rectangle with rounded corners*
0 $1 Rounding radius*
0 $2 $3 $4 $5 $6 $7 $8 $9 X,Y pos of 4 corners*
0 Add a 4 corners polygon primitive as box body*
4,1,4,$2,$3,$4,$5,$6,$7,$8,$9,$2,$3,0*
0 Add four circle primitives for the rounded corners*
1,1,$1+$1,$2,$3*
1,1,$1+$1,$4,$5*
1,1,$1+$1,$6,$7*
1,1,$1+$1,$8,$9*
0 Add four rect primitives between the rounded corners*
20,1,$1+$1,$2,$3,$4,$5,0*
20,1,$1+$1,$4,$5,$6,$7,0*
20,1,$1+$1,$6,$7,$8,$9,0*
20,1,$1+$1,$8,$9,$2,$3,0*%
G04 Aperture macros list end*
%ADD10C,0.300000*%
%ADD11C,0.150000*%
%ADD12C,0.254000*%
%ADD13C,0.120000*%
%ADD14C,0.200000*%
%ADD15C,0.010000*%
%ADD16R,3.430000X3.780000*%
%ADD17RoundRect,0.250000X-0.262500X-0.450000X0.262500X-0.450000X0.262500X0.450000X-0.262500X0.450000X0*%
%ADD18RoundRect,0.250000X0.262500X0.450000X-0.262500X0.450000X-0.262500X-0.450000X0.262500X-0.450000X0*%
%ADD19RoundRect,0.243750X-0.243750X-0.456250X0.243750X-0.456250X0.243750X0.456250X-0.243750X0.456250X0*%
%ADD20R,2.000000X2.000000*%
%ADD21C,2.780000*%
%ADD22C,3.000000*%
%ADD23RoundRect,0.243750X0.243750X0.456250X-0.243750X0.456250X-0.243750X-0.456250X0.243750X-0.456250X0*%
%ADD24C,2.085000*%
%ADD25R,2.085000X2.085000*%
%ADD26RoundRect,0.250000X-0.475000X0.250000X-0.475000X-0.250000X0.475000X-0.250000X0.475000X0.250000X0*%
%ADD27RoundRect,0.250000X-0.450000X0.262500X-0.450000X-0.262500X0.450000X-0.262500X0.450000X0.262500X0*%
%ADD28R,1.130000X1.130000*%
%ADD29C,1.130000*%
G04 APERTURE END LIST*
D10*
X110477142Y-91388571D02*
X110548571Y-91174285D01*
X110548571Y-90817142D01*
X110477142Y-90674285D01*
X110405714Y-90602857D01*
X110262857Y-90531428D01*
X110120000Y-90531428D01*
X109977142Y-90602857D01*
X109905714Y-90674285D01*
X109834285Y-90817142D01*
X109762857Y-91102857D01*
X109691428Y-91245714D01*
X109620000Y-91317142D01*
X109477142Y-91388571D01*
X109334285Y-91388571D01*
X109191428Y-91317142D01*
X109120000Y-91245714D01*
X109048571Y-91102857D01*
X109048571Y-90745714D01*
X109120000Y-90531428D01*
X109048571Y-89888571D02*
X110262857Y-89888571D01*
X110405714Y-89817142D01*
X110477142Y-89745714D01*
X110548571Y-89602857D01*
X110548571Y-89317142D01*
X110477142Y-89174285D01*
X110405714Y-89102857D01*
X110262857Y-89031428D01*
X109048571Y-89031428D01*
X110548571Y-88317142D02*
X109048571Y-88317142D01*
X109048571Y-87745714D01*
X109120000Y-87602857D01*
X109191428Y-87531428D01*
X109334285Y-87460000D01*
X109548571Y-87460000D01*
X109691428Y-87531428D01*
X109762857Y-87602857D01*
X109834285Y-87745714D01*
X109834285Y-88317142D01*
X110548571Y-86817142D02*
X109048571Y-86817142D01*
X109048571Y-86245714D01*
X109120000Y-86102857D01*
X109191428Y-86031428D01*
X109334285Y-85960000D01*
X109548571Y-85960000D01*
X109691428Y-86031428D01*
X109762857Y-86102857D01*
X109834285Y-86245714D01*
X109834285Y-86817142D01*
X110548571Y-84174285D02*
X109048571Y-84174285D01*
X109048571Y-83602857D01*
X109120000Y-83460000D01*
X109191428Y-83388571D01*
X109334285Y-83317142D01*
X109548571Y-83317142D01*
X109691428Y-83388571D01*
X109762857Y-83460000D01*
X109834285Y-83602857D01*
X109834285Y-84174285D01*
X109048571Y-82817142D02*
X110548571Y-82460000D01*
X109477142Y-82174285D01*
X110548571Y-81888571D01*
X109048571Y-81531428D01*
X110548571Y-80102857D02*
X109834285Y-80602857D01*
X110548571Y-80960000D02*
X109048571Y-80960000D01*
X109048571Y-80388571D01*
X109120000Y-80245714D01*
X109191428Y-80174285D01*
X109334285Y-80102857D01*
X109548571Y-80102857D01*
X109691428Y-80174285D01*
X109762857Y-80245714D01*
X109834285Y-80388571D01*
X109834285Y-80960000D01*
X109191428Y-78388571D02*
X109120000Y-78317142D01*
X109048571Y-78174285D01*
X109048571Y-77817142D01*
X109120000Y-77674285D01*
X109191428Y-77602857D01*
X109334285Y-77531428D01*
X109477142Y-77531428D01*
X109691428Y-77602857D01*
X110548571Y-78460000D01*
X110548571Y-77531428D01*
X110807142Y-114968571D02*
X110878571Y-114754285D01*
X110878571Y-114397142D01*
X110807142Y-114254285D01*
X110735714Y-114182857D01*
X110592857Y-114111428D01*
X110450000Y-114111428D01*
X110307142Y-114182857D01*
X110235714Y-114254285D01*
X110164285Y-114397142D01*
X110092857Y-114682857D01*
X110021428Y-114825714D01*
X109950000Y-114897142D01*
X109807142Y-114968571D01*
X109664285Y-114968571D01*
X109521428Y-114897142D01*
X109450000Y-114825714D01*
X109378571Y-114682857D01*
X109378571Y-114325714D01*
X109450000Y-114111428D01*
X109378571Y-113468571D02*
X110592857Y-113468571D01*
X110735714Y-113397142D01*
X110807142Y-113325714D01*
X110878571Y-113182857D01*
X110878571Y-112897142D01*
X110807142Y-112754285D01*
X110735714Y-112682857D01*
X110592857Y-112611428D01*
X109378571Y-112611428D01*
X110878571Y-111897142D02*
X109378571Y-111897142D01*
X109378571Y-111325714D01*
X109450000Y-111182857D01*
X109521428Y-111111428D01*
X109664285Y-111040000D01*
X109878571Y-111040000D01*
X110021428Y-111111428D01*
X110092857Y-111182857D01*
X110164285Y-111325714D01*
X110164285Y-111897142D01*
X110878571Y-110397142D02*
X109378571Y-110397142D01*
X109378571Y-109825714D01*
X109450000Y-109682857D01*
X109521428Y-109611428D01*
X109664285Y-109540000D01*
X109878571Y-109540000D01*
X110021428Y-109611428D01*
X110092857Y-109682857D01*
X110164285Y-109825714D01*
X110164285Y-110397142D01*
X110878571Y-107754285D02*
X109378571Y-107754285D01*
X109378571Y-107182857D01*
X109450000Y-107040000D01*
X109521428Y-106968571D01*
X109664285Y-106897142D01*
X109878571Y-106897142D01*
X110021428Y-106968571D01*
X110092857Y-107040000D01*
X110164285Y-107182857D01*
X110164285Y-107754285D01*
X109378571Y-106397142D02*
X110878571Y-106040000D01*
X109807142Y-105754285D01*
X110878571Y-105468571D01*
X109378571Y-105111428D01*
X110878571Y-103682857D02*
X110164285Y-104182857D01*
X110878571Y-104540000D02*
X109378571Y-104540000D01*
X109378571Y-103968571D01*
X109450000Y-103825714D01*
X109521428Y-103754285D01*
X109664285Y-103682857D01*
X109878571Y-103682857D01*
X110021428Y-103754285D01*
X110092857Y-103825714D01*
X110164285Y-103968571D01*
X110164285Y-104540000D01*
X110878571Y-101111428D02*
X110878571Y-101968571D01*
X110878571Y-101540000D02*
X109378571Y-101540000D01*
X109592857Y-101682857D01*
X109735714Y-101825714D01*
X109807142Y-101968571D01*
D11*
X128227142Y-69559761D02*
X128370000Y-69607380D01*
X128608095Y-69607380D01*
X128703333Y-69559761D01*
X128750952Y-69512142D01*
X128798571Y-69416904D01*
X128798571Y-69321666D01*
X128750952Y-69226428D01*
X128703333Y-69178809D01*
X128608095Y-69131190D01*
X128417619Y-69083571D01*
X128322380Y-69035952D01*
X128274761Y-68988333D01*
X128227142Y-68893095D01*
X128227142Y-68797857D01*
X128274761Y-68702619D01*
X128322380Y-68655000D01*
X128417619Y-68607380D01*
X128655714Y-68607380D01*
X128798571Y-68655000D01*
X129227142Y-68607380D02*
X129227142Y-69416904D01*
X129274761Y-69512142D01*
X129322380Y-69559761D01*
X129417619Y-69607380D01*
X129608095Y-69607380D01*
X129703333Y-69559761D01*
X129750952Y-69512142D01*
X129798571Y-69416904D01*
X129798571Y-68607380D01*
X130274761Y-69607380D02*
X130274761Y-68607380D01*
X130655714Y-68607380D01*
X130750952Y-68655000D01*
X130798571Y-68702619D01*
X130846190Y-68797857D01*
X130846190Y-68940714D01*
X130798571Y-69035952D01*
X130750952Y-69083571D01*
X130655714Y-69131190D01*
X130274761Y-69131190D01*
X131274761Y-69607380D02*
X131274761Y-68607380D01*
X131655714Y-68607380D01*
X131750952Y-68655000D01*
X131798571Y-68702619D01*
X131846190Y-68797857D01*
X131846190Y-68940714D01*
X131798571Y-69035952D01*
X131750952Y-69083571D01*
X131655714Y-69131190D01*
X131274761Y-69131190D01*
X132750952Y-69607380D02*
X132274761Y-69607380D01*
X132274761Y-68607380D01*
X133084285Y-69083571D02*
X133417619Y-69083571D01*
X133560476Y-69607380D02*
X133084285Y-69607380D01*
X133084285Y-68607380D01*
X133560476Y-68607380D01*
X133989047Y-69607380D02*
X133989047Y-68607380D01*
X134322380Y-69321666D01*
X134655714Y-68607380D01*
X134655714Y-69607380D01*
X135131904Y-69083571D02*
X135465238Y-69083571D01*
X135608095Y-69607380D02*
X135131904Y-69607380D01*
X135131904Y-68607380D01*
X135608095Y-68607380D01*
X136036666Y-69607380D02*
X136036666Y-68607380D01*
X136608095Y-69607380D01*
X136608095Y-68607380D01*
X136941428Y-68607380D02*
X137512857Y-68607380D01*
X137227142Y-69607380D02*
X137227142Y-68607380D01*
X137798571Y-69321666D02*
X138274761Y-69321666D01*
X137703333Y-69607380D02*
X138036666Y-68607380D01*
X138370000Y-69607380D01*
X139179523Y-69607380D02*
X138703333Y-69607380D01*
X138703333Y-68607380D01*
X140274761Y-69607380D02*
X140274761Y-68607380D01*
X140655714Y-68607380D01*
X140750952Y-68655000D01*
X140798571Y-68702619D01*
X140846190Y-68797857D01*
X140846190Y-68940714D01*
X140798571Y-69035952D01*
X140750952Y-69083571D01*
X140655714Y-69131190D01*
X140274761Y-69131190D01*
X141465238Y-68607380D02*
X141655714Y-68607380D01*
X141750952Y-68655000D01*
X141846190Y-68750238D01*
X141893809Y-68940714D01*
X141893809Y-69274047D01*
X141846190Y-69464523D01*
X141750952Y-69559761D01*
X141655714Y-69607380D01*
X141465238Y-69607380D01*
X141370000Y-69559761D01*
X141274761Y-69464523D01*
X141227142Y-69274047D01*
X141227142Y-68940714D01*
X141274761Y-68750238D01*
X141370000Y-68655000D01*
X141465238Y-68607380D01*
X142227142Y-68607380D02*
X142465238Y-69607380D01*
X142655714Y-68893095D01*
X142846190Y-69607380D01*
X143084285Y-68607380D01*
X143465238Y-69083571D02*
X143798571Y-69083571D01*
X143941428Y-69607380D02*
X143465238Y-69607380D01*
X143465238Y-68607380D01*
X143941428Y-68607380D01*
X144941428Y-69607380D02*
X144608095Y-69131190D01*
X144370000Y-69607380D02*
X144370000Y-68607380D01*
X144750952Y-68607380D01*
X144846190Y-68655000D01*
X144893809Y-68702619D01*
X144941428Y-68797857D01*
X144941428Y-68940714D01*
X144893809Y-69035952D01*
X144846190Y-69083571D01*
X144750952Y-69131190D01*
X144370000Y-69131190D01*
X146465238Y-69083571D02*
X146608095Y-69131190D01*
X146655714Y-69178809D01*
X146703333Y-69274047D01*
X146703333Y-69416904D01*
X146655714Y-69512142D01*
X146608095Y-69559761D01*
X146512857Y-69607380D01*
X146131904Y-69607380D01*
X146131904Y-68607380D01*
X146465238Y-68607380D01*
X146560476Y-68655000D01*
X146608095Y-68702619D01*
X146655714Y-68797857D01*
X146655714Y-68893095D01*
X146608095Y-68988333D01*
X146560476Y-69035952D01*
X146465238Y-69083571D01*
X146131904Y-69083571D01*
X147322380Y-68607380D02*
X147512857Y-68607380D01*
X147608095Y-68655000D01*
X147703333Y-68750238D01*
X147750952Y-68940714D01*
X147750952Y-69274047D01*
X147703333Y-69464523D01*
X147608095Y-69559761D01*
X147512857Y-69607380D01*
X147322380Y-69607380D01*
X147227142Y-69559761D01*
X147131904Y-69464523D01*
X147084285Y-69274047D01*
X147084285Y-68940714D01*
X147131904Y-68750238D01*
X147227142Y-68655000D01*
X147322380Y-68607380D01*
X148131904Y-69321666D02*
X148608095Y-69321666D01*
X148036666Y-69607380D02*
X148370000Y-68607380D01*
X148703333Y-69607380D01*
X149608095Y-69607380D02*
X149274761Y-69131190D01*
X149036666Y-69607380D02*
X149036666Y-68607380D01*
X149417619Y-68607380D01*
X149512857Y-68655000D01*
X149560476Y-68702619D01*
X149608095Y-68797857D01*
X149608095Y-68940714D01*
X149560476Y-69035952D01*
X149512857Y-69083571D01*
X149417619Y-69131190D01*
X149036666Y-69131190D01*
X150036666Y-69607380D02*
X150036666Y-68607380D01*
X150274761Y-68607380D01*
X150417619Y-68655000D01*
X150512857Y-68750238D01*
X150560476Y-68845476D01*
X150608095Y-69035952D01*
X150608095Y-69178809D01*
X150560476Y-69369285D01*
X150512857Y-69464523D01*
X150417619Y-69559761D01*
X150274761Y-69607380D01*
X150036666Y-69607380D01*
X151703333Y-68940714D02*
X151941428Y-69607380D01*
X152179523Y-68940714D01*
X152465238Y-68607380D02*
X153084285Y-68607380D01*
X152750952Y-68988333D01*
X152893809Y-68988333D01*
X152989047Y-69035952D01*
X153036666Y-69083571D01*
X153084285Y-69178809D01*
X153084285Y-69416904D01*
X153036666Y-69512142D01*
X152989047Y-69559761D01*
X152893809Y-69607380D01*
X152608095Y-69607380D01*
X152512857Y-69559761D01*
X152465238Y-69512142D01*
X153512857Y-69512142D02*
X153560476Y-69559761D01*
X153512857Y-69607380D01*
X153465238Y-69559761D01*
X153512857Y-69512142D01*
X153512857Y-69607380D01*
X154179523Y-68607380D02*
X154274761Y-68607380D01*
X154370000Y-68655000D01*
X154417619Y-68702619D01*
X154465238Y-68797857D01*
X154512857Y-68988333D01*
X154512857Y-69226428D01*
X154465238Y-69416904D01*
X154417619Y-69512142D01*
X154370000Y-69559761D01*
X154274761Y-69607380D01*
X154179523Y-69607380D01*
X154084285Y-69559761D01*
X154036666Y-69512142D01*
X153989047Y-69416904D01*
X153941428Y-69226428D01*
X153941428Y-68988333D01*
X153989047Y-68797857D01*
X154036666Y-68702619D01*
X154084285Y-68655000D01*
X154179523Y-68607380D01*
X133584285Y-70217380D02*
X133584285Y-70931666D01*
X133536666Y-71074523D01*
X133441428Y-71169761D01*
X133298571Y-71217380D01*
X133203333Y-71217380D01*
X134012857Y-70931666D02*
X134489047Y-70931666D01*
X133917619Y-71217380D02*
X134250952Y-70217380D01*
X134584285Y-71217380D01*
X134870000Y-71169761D02*
X135012857Y-71217380D01*
X135250952Y-71217380D01*
X135346190Y-71169761D01*
X135393809Y-71122142D01*
X135441428Y-71026904D01*
X135441428Y-70931666D01*
X135393809Y-70836428D01*
X135346190Y-70788809D01*
X135250952Y-70741190D01*
X135060476Y-70693571D01*
X134965238Y-70645952D01*
X134917619Y-70598333D01*
X134870000Y-70503095D01*
X134870000Y-70407857D01*
X134917619Y-70312619D01*
X134965238Y-70265000D01*
X135060476Y-70217380D01*
X135298571Y-70217380D01*
X135441428Y-70265000D01*
X136060476Y-70217380D02*
X136250952Y-70217380D01*
X136346190Y-70265000D01*
X136441428Y-70360238D01*
X136489047Y-70550714D01*
X136489047Y-70884047D01*
X136441428Y-71074523D01*
X136346190Y-71169761D01*
X136250952Y-71217380D01*
X136060476Y-71217380D01*
X135965238Y-71169761D01*
X135870000Y-71074523D01*
X135822380Y-70884047D01*
X135822380Y-70550714D01*
X135870000Y-70360238D01*
X135965238Y-70265000D01*
X136060476Y-70217380D01*
X136917619Y-71217380D02*
X136917619Y-70217380D01*
X137489047Y-71217380D01*
X137489047Y-70217380D01*
X138679523Y-70931666D02*
X139155714Y-70931666D01*
X138584285Y-71217380D02*
X138917619Y-70217380D01*
X139250952Y-71217380D01*
X139584285Y-71217380D02*
X139584285Y-70217380D01*
X140155714Y-71217380D01*
X140155714Y-70217380D01*
X140631904Y-71217380D02*
X140631904Y-70217380D01*
X140870000Y-70217380D01*
X141012857Y-70265000D01*
X141108095Y-70360238D01*
X141155714Y-70455476D01*
X141203333Y-70645952D01*
X141203333Y-70788809D01*
X141155714Y-70979285D01*
X141108095Y-71074523D01*
X141012857Y-71169761D01*
X140870000Y-71217380D01*
X140631904Y-71217380D01*
X142393809Y-71217380D02*
X142393809Y-70217380D01*
X142774761Y-70217380D01*
X142870000Y-70265000D01*
X142917619Y-70312619D01*
X142965238Y-70407857D01*
X142965238Y-70550714D01*
X142917619Y-70645952D01*
X142870000Y-70693571D01*
X142774761Y-70741190D01*
X142393809Y-70741190D01*
X143965238Y-71217380D02*
X143631904Y-70741190D01*
X143393809Y-71217380D02*
X143393809Y-70217380D01*
X143774761Y-70217380D01*
X143870000Y-70265000D01*
X143917619Y-70312619D01*
X143965238Y-70407857D01*
X143965238Y-70550714D01*
X143917619Y-70645952D01*
X143870000Y-70693571D01*
X143774761Y-70741190D01*
X143393809Y-70741190D01*
X144346190Y-70931666D02*
X144822380Y-70931666D01*
X144250952Y-71217380D02*
X144584285Y-70217380D01*
X144917619Y-71217380D01*
X145108095Y-70217380D02*
X145679523Y-70217380D01*
X145393809Y-71217380D02*
X145393809Y-70217380D01*
X146203333Y-70741190D02*
X146203333Y-71217380D01*
X145870000Y-70217380D02*
X146203333Y-70741190D01*
X146536666Y-70217380D01*
X146870000Y-70217380D02*
X146870000Y-71026904D01*
X146917619Y-71122142D01*
X146965238Y-71169761D01*
X147060476Y-71217380D01*
X147250952Y-71217380D01*
X147346190Y-71169761D01*
X147393809Y-71122142D01*
X147441428Y-71026904D01*
X147441428Y-70217380D01*
X147870000Y-71169761D02*
X148012857Y-71217380D01*
X148250952Y-71217380D01*
X148346190Y-71169761D01*
X148393809Y-71122142D01*
X148441428Y-71026904D01*
X148441428Y-70931666D01*
X148393809Y-70836428D01*
X148346190Y-70788809D01*
X148250952Y-70741190D01*
X148060476Y-70693571D01*
X147965238Y-70645952D01*
X147917619Y-70598333D01*
X147870000Y-70503095D01*
X147870000Y-70407857D01*
X147917619Y-70312619D01*
X147965238Y-70265000D01*
X148060476Y-70217380D01*
X148298571Y-70217380D01*
X148441428Y-70265000D01*
X148870000Y-71217380D02*
X148870000Y-70217380D01*
X148870000Y-70693571D02*
X149441428Y-70693571D01*
X149441428Y-71217380D02*
X149441428Y-70217380D01*
X164155714Y-126912380D02*
X164155714Y-125912380D01*
X164393809Y-125912380D01*
X164536666Y-125960000D01*
X164631904Y-126055238D01*
X164679523Y-126150476D01*
X164727142Y-126340952D01*
X164727142Y-126483809D01*
X164679523Y-126674285D01*
X164631904Y-126769523D01*
X164536666Y-126864761D01*
X164393809Y-126912380D01*
X164155714Y-126912380D01*
X165727142Y-126817142D02*
X165679523Y-126864761D01*
X165536666Y-126912380D01*
X165441428Y-126912380D01*
X165298571Y-126864761D01*
X165203333Y-126769523D01*
X165155714Y-126674285D01*
X165108095Y-126483809D01*
X165108095Y-126340952D01*
X165155714Y-126150476D01*
X165203333Y-126055238D01*
X165298571Y-125960000D01*
X165441428Y-125912380D01*
X165536666Y-125912380D01*
X165679523Y-125960000D01*
X165727142Y-126007619D01*
X166155714Y-126912380D02*
X166155714Y-125912380D01*
X166393809Y-125912380D01*
X166536666Y-125960000D01*
X166631904Y-126055238D01*
X166679523Y-126150476D01*
X166727142Y-126340952D01*
X166727142Y-126483809D01*
X166679523Y-126674285D01*
X166631904Y-126769523D01*
X166536666Y-126864761D01*
X166393809Y-126912380D01*
X166155714Y-126912380D01*
X167727142Y-126817142D02*
X167679523Y-126864761D01*
X167536666Y-126912380D01*
X167441428Y-126912380D01*
X167298571Y-126864761D01*
X167203333Y-126769523D01*
X167155714Y-126674285D01*
X167108095Y-126483809D01*
X167108095Y-126340952D01*
X167155714Y-126150476D01*
X167203333Y-126055238D01*
X167298571Y-125960000D01*
X167441428Y-125912380D01*
X167536666Y-125912380D01*
X167679523Y-125960000D01*
X167727142Y-126007619D01*
X168917619Y-126912380D02*
X168917619Y-125912380D01*
X169298571Y-125912380D01*
X169393809Y-125960000D01*
X169441428Y-126007619D01*
X169489047Y-126102857D01*
X169489047Y-126245714D01*
X169441428Y-126340952D01*
X169393809Y-126388571D01*
X169298571Y-126436190D01*
X168917619Y-126436190D01*
X169822380Y-125912380D02*
X170060476Y-126912380D01*
X170250952Y-126198095D01*
X170441428Y-126912380D01*
X170679523Y-125912380D01*
X171631904Y-126912380D02*
X171298571Y-126436190D01*
X171060476Y-126912380D02*
X171060476Y-125912380D01*
X171441428Y-125912380D01*
X171536666Y-125960000D01*
X171584285Y-126007619D01*
X171631904Y-126102857D01*
X171631904Y-126245714D01*
X171584285Y-126340952D01*
X171536666Y-126388571D01*
X171441428Y-126436190D01*
X171060476Y-126436190D01*
D10*
X186228571Y-113841428D02*
X184728571Y-113841428D01*
X184728571Y-113484285D01*
X184800000Y-113270000D01*
X184942857Y-113127142D01*
X185085714Y-113055714D01*
X185371428Y-112984285D01*
X185585714Y-112984285D01*
X185871428Y-113055714D01*
X186014285Y-113127142D01*
X186157142Y-113270000D01*
X186228571Y-113484285D01*
X186228571Y-113841428D01*
X186085714Y-111484285D02*
X186157142Y-111555714D01*
X186228571Y-111770000D01*
X186228571Y-111912857D01*
X186157142Y-112127142D01*
X186014285Y-112270000D01*
X185871428Y-112341428D01*
X185585714Y-112412857D01*
X185371428Y-112412857D01*
X185085714Y-112341428D01*
X184942857Y-112270000D01*
X184800000Y-112127142D01*
X184728571Y-111912857D01*
X184728571Y-111770000D01*
X184800000Y-111555714D01*
X184871428Y-111484285D01*
X186228571Y-110841428D02*
X184728571Y-110841428D01*
X184728571Y-110484285D01*
X184800000Y-110270000D01*
X184942857Y-110127142D01*
X185085714Y-110055714D01*
X185371428Y-109984285D01*
X185585714Y-109984285D01*
X185871428Y-110055714D01*
X186014285Y-110127142D01*
X186157142Y-110270000D01*
X186228571Y-110484285D01*
X186228571Y-110841428D01*
X186085714Y-108484285D02*
X186157142Y-108555714D01*
X186228571Y-108770000D01*
X186228571Y-108912857D01*
X186157142Y-109127142D01*
X186014285Y-109270000D01*
X185871428Y-109341428D01*
X185585714Y-109412857D01*
X185371428Y-109412857D01*
X185085714Y-109341428D01*
X184942857Y-109270000D01*
X184800000Y-109127142D01*
X184728571Y-108912857D01*
X184728571Y-108770000D01*
X184800000Y-108555714D01*
X184871428Y-108484285D01*
X186228571Y-106698571D02*
X184728571Y-106698571D01*
X184728571Y-106127142D01*
X184800000Y-105984285D01*
X184871428Y-105912857D01*
X185014285Y-105841428D01*
X185228571Y-105841428D01*
X185371428Y-105912857D01*
X185442857Y-105984285D01*
X185514285Y-106127142D01*
X185514285Y-106698571D01*
X184728571Y-105341428D02*
X186228571Y-104984285D01*
X185157142Y-104698571D01*
X186228571Y-104412857D01*
X184728571Y-104055714D01*
X186228571Y-102627142D02*
X185514285Y-103127142D01*
X186228571Y-103484285D02*
X184728571Y-103484285D01*
X184728571Y-102912857D01*
X184800000Y-102770000D01*
X184871428Y-102698571D01*
X185014285Y-102627142D01*
X185228571Y-102627142D01*
X185371428Y-102698571D01*
X185442857Y-102770000D01*
X185514285Y-102912857D01*
X185514285Y-103484285D01*
D11*
X156250952Y-76888571D02*
X155917619Y-76888571D01*
X155917619Y-77412380D02*
X155917619Y-76412380D01*
X156393809Y-76412380D01*
X156774761Y-76412380D02*
X156774761Y-77221904D01*
X156822380Y-77317142D01*
X156870000Y-77364761D01*
X156965238Y-77412380D01*
X157155714Y-77412380D01*
X157250952Y-77364761D01*
X157298571Y-77317142D01*
X157346190Y-77221904D01*
X157346190Y-76412380D01*
X157774761Y-77364761D02*
X157917619Y-77412380D01*
X158155714Y-77412380D01*
X158250952Y-77364761D01*
X158298571Y-77317142D01*
X158346190Y-77221904D01*
X158346190Y-77126666D01*
X158298571Y-77031428D01*
X158250952Y-76983809D01*
X158155714Y-76936190D01*
X157965238Y-76888571D01*
X157870000Y-76840952D01*
X157822380Y-76793333D01*
X157774761Y-76698095D01*
X157774761Y-76602857D01*
X157822380Y-76507619D01*
X157870000Y-76460000D01*
X157965238Y-76412380D01*
X158203333Y-76412380D01*
X158346190Y-76460000D01*
X158774761Y-76888571D02*
X159108095Y-76888571D01*
X159250952Y-77412380D02*
X158774761Y-77412380D01*
X158774761Y-76412380D01*
X159250952Y-76412380D01*
X160631904Y-76412380D02*
X160822380Y-76412380D01*
X160917619Y-76460000D01*
X161012857Y-76555238D01*
X161060476Y-76745714D01*
X161060476Y-77079047D01*
X161012857Y-77269523D01*
X160917619Y-77364761D01*
X160822380Y-77412380D01*
X160631904Y-77412380D01*
X160536666Y-77364761D01*
X160441428Y-77269523D01*
X160393809Y-77079047D01*
X160393809Y-76745714D01*
X160441428Y-76555238D01*
X160536666Y-76460000D01*
X160631904Y-76412380D01*
X161489047Y-76412380D02*
X161489047Y-77221904D01*
X161536666Y-77317142D01*
X161584285Y-77364761D01*
X161679523Y-77412380D01*
X161870000Y-77412380D01*
X161965238Y-77364761D01*
X162012857Y-77317142D01*
X162060476Y-77221904D01*
X162060476Y-76412380D01*
X162393809Y-76412380D02*
X162965238Y-76412380D01*
X162679523Y-77412380D02*
X162679523Y-76412380D01*
X132917619Y-126864761D02*
X133060476Y-126912380D01*
X133298571Y-126912380D01*
X133393809Y-126864761D01*
X133441428Y-126817142D01*
X133489047Y-126721904D01*
X133489047Y-126626666D01*
X133441428Y-126531428D01*
X133393809Y-126483809D01*
X133298571Y-126436190D01*
X133108095Y-126388571D01*
X133012857Y-126340952D01*
X132965238Y-126293333D01*
X132917619Y-126198095D01*
X132917619Y-126102857D01*
X132965238Y-126007619D01*
X133012857Y-125960000D01*
X133108095Y-125912380D01*
X133346190Y-125912380D01*
X133489047Y-125960000D01*
X133917619Y-125912380D02*
X133917619Y-126721904D01*
X133965238Y-126817142D01*
X134012857Y-126864761D01*
X134108095Y-126912380D01*
X134298571Y-126912380D01*
X134393809Y-126864761D01*
X134441428Y-126817142D01*
X134489047Y-126721904D01*
X134489047Y-125912380D01*
X134965238Y-126912380D02*
X134965238Y-125912380D01*
X135346190Y-125912380D01*
X135441428Y-125960000D01*
X135489047Y-126007619D01*
X135536666Y-126102857D01*
X135536666Y-126245714D01*
X135489047Y-126340952D01*
X135441428Y-126388571D01*
X135346190Y-126436190D01*
X134965238Y-126436190D01*
X135965238Y-126912380D02*
X135965238Y-125912380D01*
X136346190Y-125912380D01*
X136441428Y-125960000D01*
X136489047Y-126007619D01*
X136536666Y-126102857D01*
X136536666Y-126245714D01*
X136489047Y-126340952D01*
X136441428Y-126388571D01*
X136346190Y-126436190D01*
X135965238Y-126436190D01*
X138250952Y-125960000D02*
X138155714Y-125912380D01*
X138012857Y-125912380D01*
X137870000Y-125960000D01*
X137774761Y-126055238D01*
X137727142Y-126150476D01*
X137679523Y-126340952D01*
X137679523Y-126483809D01*
X137727142Y-126674285D01*
X137774761Y-126769523D01*
X137870000Y-126864761D01*
X138012857Y-126912380D01*
X138108095Y-126912380D01*
X138250952Y-126864761D01*
X138298571Y-126817142D01*
X138298571Y-126483809D01*
X138108095Y-126483809D01*
X138679523Y-126626666D02*
X139155714Y-126626666D01*
X138584285Y-126912380D02*
X138917619Y-125912380D01*
X139250952Y-126912380D01*
X139441428Y-125912380D02*
X140012857Y-125912380D01*
X139727142Y-126912380D02*
X139727142Y-125912380D01*
X140346190Y-126388571D02*
X140679523Y-126388571D01*
X140822380Y-126912380D02*
X140346190Y-126912380D01*
X140346190Y-125912380D01*
X140822380Y-125912380D01*
X148465238Y-126912380D02*
X148465238Y-125912380D01*
X148703333Y-125912380D01*
X148846190Y-125960000D01*
X148941428Y-126055238D01*
X148989047Y-126150476D01*
X149036666Y-126340952D01*
X149036666Y-126483809D01*
X148989047Y-126674285D01*
X148941428Y-126769523D01*
X148846190Y-126864761D01*
X148703333Y-126912380D01*
X148465238Y-126912380D01*
X150036666Y-126817142D02*
X149989047Y-126864761D01*
X149846190Y-126912380D01*
X149750952Y-126912380D01*
X149608095Y-126864761D01*
X149512857Y-126769523D01*
X149465238Y-126674285D01*
X149417619Y-126483809D01*
X149417619Y-126340952D01*
X149465238Y-126150476D01*
X149512857Y-126055238D01*
X149608095Y-125960000D01*
X149750952Y-125912380D01*
X149846190Y-125912380D01*
X149989047Y-125960000D01*
X150036666Y-126007619D01*
X150465238Y-126912380D02*
X150465238Y-125912380D01*
X150703333Y-125912380D01*
X150846190Y-125960000D01*
X150941428Y-126055238D01*
X150989047Y-126150476D01*
X151036666Y-126340952D01*
X151036666Y-126483809D01*
X150989047Y-126674285D01*
X150941428Y-126769523D01*
X150846190Y-126864761D01*
X150703333Y-126912380D01*
X150465238Y-126912380D01*
X152036666Y-126817142D02*
X151989047Y-126864761D01*
X151846190Y-126912380D01*
X151750952Y-126912380D01*
X151608095Y-126864761D01*
X151512857Y-126769523D01*
X151465238Y-126674285D01*
X151417619Y-126483809D01*
X151417619Y-126340952D01*
X151465238Y-126150476D01*
X151512857Y-126055238D01*
X151608095Y-125960000D01*
X151750952Y-125912380D01*
X151846190Y-125912380D01*
X151989047Y-125960000D01*
X152036666Y-126007619D01*
X153750952Y-125960000D02*
X153655714Y-125912380D01*
X153512857Y-125912380D01*
X153370000Y-125960000D01*
X153274761Y-126055238D01*
X153227142Y-126150476D01*
X153179523Y-126340952D01*
X153179523Y-126483809D01*
X153227142Y-126674285D01*
X153274761Y-126769523D01*
X153370000Y-126864761D01*
X153512857Y-126912380D01*
X153608095Y-126912380D01*
X153750952Y-126864761D01*
X153798571Y-126817142D01*
X153798571Y-126483809D01*
X153608095Y-126483809D01*
X154179523Y-126626666D02*
X154655714Y-126626666D01*
X154084285Y-126912380D02*
X154417619Y-125912380D01*
X154750952Y-126912380D01*
X154941428Y-125912380D02*
X155512857Y-125912380D01*
X155227142Y-126912380D02*
X155227142Y-125912380D01*
X155846190Y-126388571D02*
X156179523Y-126388571D01*
X156322380Y-126912380D02*
X155846190Y-126912380D01*
X155846190Y-125912380D01*
X156322380Y-125912380D01*
D10*
X186112857Y-89332857D02*
X186112857Y-89832857D01*
X186898571Y-89832857D02*
X185398571Y-89832857D01*
X185398571Y-89118571D01*
X185398571Y-88547142D02*
X186612857Y-88547142D01*
X186755714Y-88475714D01*
X186827142Y-88404285D01*
X186898571Y-88261428D01*
X186898571Y-87975714D01*
X186827142Y-87832857D01*
X186755714Y-87761428D01*
X186612857Y-87690000D01*
X185398571Y-87690000D01*
X186827142Y-87047142D02*
X186898571Y-86832857D01*
X186898571Y-86475714D01*
X186827142Y-86332857D01*
X186755714Y-86261428D01*
X186612857Y-86190000D01*
X186470000Y-86190000D01*
X186327142Y-86261428D01*
X186255714Y-86332857D01*
X186184285Y-86475714D01*
X186112857Y-86761428D01*
X186041428Y-86904285D01*
X185970000Y-86975714D01*
X185827142Y-87047142D01*
X185684285Y-87047142D01*
X185541428Y-86975714D01*
X185470000Y-86904285D01*
X185398571Y-86761428D01*
X185398571Y-86404285D01*
X185470000Y-86190000D01*
X186112857Y-85547142D02*
X186112857Y-85047142D01*
X186898571Y-84832857D02*
X186898571Y-85547142D01*
X185398571Y-85547142D01*
X185398571Y-84832857D01*
X186898571Y-83047142D02*
X185398571Y-83047142D01*
X185398571Y-82475714D01*
X185470000Y-82332857D01*
X185541428Y-82261428D01*
X185684285Y-82190000D01*
X185898571Y-82190000D01*
X186041428Y-82261428D01*
X186112857Y-82332857D01*
X186184285Y-82475714D01*
X186184285Y-83047142D01*
X185398571Y-81690000D02*
X186898571Y-81332857D01*
X185827142Y-81047142D01*
X186898571Y-80761428D01*
X185398571Y-80404285D01*
X186898571Y-78975714D02*
X186184285Y-79475714D01*
X186898571Y-79832857D02*
X185398571Y-79832857D01*
X185398571Y-79261428D01*
X185470000Y-79118571D01*
X185541428Y-79047142D01*
X185684285Y-78975714D01*
X185898571Y-78975714D01*
X186041428Y-79047142D01*
X186112857Y-79118571D01*
X186184285Y-79261428D01*
X186184285Y-79832857D01*
D11*
X178108095Y-125660000D02*
X178012857Y-125612380D01*
X177870000Y-125612380D01*
X177727142Y-125660000D01*
X177631904Y-125755238D01*
X177584285Y-125850476D01*
X177536666Y-126040952D01*
X177536666Y-126183809D01*
X177584285Y-126374285D01*
X177631904Y-126469523D01*
X177727142Y-126564761D01*
X177870000Y-126612380D01*
X177965238Y-126612380D01*
X178108095Y-126564761D01*
X178155714Y-126517142D01*
X178155714Y-126183809D01*
X177965238Y-126183809D01*
X178584285Y-126612380D02*
X178584285Y-125612380D01*
X179155714Y-126612380D01*
X179155714Y-125612380D01*
X179631904Y-126612380D02*
X179631904Y-125612380D01*
X179870000Y-125612380D01*
X180012857Y-125660000D01*
X180108095Y-125755238D01*
X180155714Y-125850476D01*
X180203333Y-126040952D01*
X180203333Y-126183809D01*
X180155714Y-126374285D01*
X180108095Y-126469523D01*
X180012857Y-126564761D01*
X179870000Y-126612380D01*
X179631904Y-126612380D01*
X117908095Y-126864761D02*
X118050952Y-126912380D01*
X118289047Y-126912380D01*
X118384285Y-126864761D01*
X118431904Y-126817142D01*
X118479523Y-126721904D01*
X118479523Y-126626666D01*
X118431904Y-126531428D01*
X118384285Y-126483809D01*
X118289047Y-126436190D01*
X118098571Y-126388571D01*
X118003333Y-126340952D01*
X117955714Y-126293333D01*
X117908095Y-126198095D01*
X117908095Y-126102857D01*
X117955714Y-126007619D01*
X118003333Y-125960000D01*
X118098571Y-125912380D01*
X118336666Y-125912380D01*
X118479523Y-125960000D01*
X118908095Y-125912380D02*
X118908095Y-126721904D01*
X118955714Y-126817142D01*
X119003333Y-126864761D01*
X119098571Y-126912380D01*
X119289047Y-126912380D01*
X119384285Y-126864761D01*
X119431904Y-126817142D01*
X119479523Y-126721904D01*
X119479523Y-125912380D01*
X119955714Y-126912380D02*
X119955714Y-125912380D01*
X120336666Y-125912380D01*
X120431904Y-125960000D01*
X120479523Y-126007619D01*
X120527142Y-126102857D01*
X120527142Y-126245714D01*
X120479523Y-126340952D01*
X120431904Y-126388571D01*
X120336666Y-126436190D01*
X119955714Y-126436190D01*
X120955714Y-126912380D02*
X120955714Y-125912380D01*
X121336666Y-125912380D01*
X121431904Y-125960000D01*
X121479523Y-126007619D01*
X121527142Y-126102857D01*
X121527142Y-126245714D01*
X121479523Y-126340952D01*
X121431904Y-126388571D01*
X121336666Y-126436190D01*
X120955714Y-126436190D01*
X122717619Y-126912380D02*
X122717619Y-125912380D01*
X123098571Y-125912380D01*
X123193809Y-125960000D01*
X123241428Y-126007619D01*
X123289047Y-126102857D01*
X123289047Y-126245714D01*
X123241428Y-126340952D01*
X123193809Y-126388571D01*
X123098571Y-126436190D01*
X122717619Y-126436190D01*
X123622380Y-125912380D02*
X123860476Y-126912380D01*
X124050952Y-126198095D01*
X124241428Y-126912380D01*
X124479523Y-125912380D01*
X125431904Y-126912380D02*
X125098571Y-126436190D01*
X124860476Y-126912380D02*
X124860476Y-125912380D01*
X125241428Y-125912380D01*
X125336666Y-125960000D01*
X125384285Y-126007619D01*
X125431904Y-126102857D01*
X125431904Y-126245714D01*
X125384285Y-126340952D01*
X125336666Y-126388571D01*
X125241428Y-126436190D01*
X124860476Y-126436190D01*
X183062380Y-84278333D02*
X183776666Y-84278333D01*
X183919523Y-84325952D01*
X184014761Y-84421190D01*
X184062380Y-84564047D01*
X184062380Y-84659285D01*
X183395714Y-83373571D02*
X184062380Y-83373571D01*
X183014761Y-83611666D02*
X183729047Y-83849761D01*
X183729047Y-83230714D01*
X152265833Y-122762380D02*
X151932500Y-122286190D01*
X151694404Y-122762380D02*
X151694404Y-121762380D01*
X152075357Y-121762380D01*
X152170595Y-121810000D01*
X152218214Y-121857619D01*
X152265833Y-121952857D01*
X152265833Y-122095714D01*
X152218214Y-122190952D01*
X152170595Y-122238571D01*
X152075357Y-122286190D01*
X151694404Y-122286190D01*
X152599166Y-121762380D02*
X153265833Y-121762380D01*
X152837261Y-122762380D01*
X122565833Y-122762380D02*
X122232500Y-122286190D01*
X121994404Y-122762380D02*
X121994404Y-121762380D01*
X122375357Y-121762380D01*
X122470595Y-121810000D01*
X122518214Y-121857619D01*
X122565833Y-121952857D01*
X122565833Y-122095714D01*
X122518214Y-122190952D01*
X122470595Y-122238571D01*
X122375357Y-122286190D01*
X121994404Y-122286190D01*
X123518214Y-122762380D02*
X122946785Y-122762380D01*
X123232500Y-122762380D02*
X123232500Y-121762380D01*
X123137261Y-121905238D01*
X123042023Y-122000476D01*
X122946785Y-122048095D01*
X111392380Y-108563333D02*
X112106666Y-108563333D01*
X112249523Y-108610952D01*
X112344761Y-108706190D01*
X112392380Y-108849047D01*
X112392380Y-108944285D01*
X112392380Y-107563333D02*
X112392380Y-108134761D01*
X112392380Y-107849047D02*
X111392380Y-107849047D01*
X111535238Y-107944285D01*
X111630476Y-108039523D01*
X111678095Y-108134761D01*
X183022380Y-108553333D02*
X183736666Y-108553333D01*
X183879523Y-108600952D01*
X183974761Y-108696190D01*
X184022380Y-108839047D01*
X184022380Y-108934285D01*
X183022380Y-108172380D02*
X183022380Y-107553333D01*
X183403333Y-107886666D01*
X183403333Y-107743809D01*
X183450952Y-107648571D01*
X183498571Y-107600952D01*
X183593809Y-107553333D01*
X183831904Y-107553333D01*
X183927142Y-107600952D01*
X183974761Y-107648571D01*
X184022380Y-107743809D01*
X184022380Y-108029523D01*
X183974761Y-108124761D01*
X183927142Y-108172380D01*
X155718214Y-73762380D02*
X155718214Y-72762380D01*
X155956309Y-72762380D01*
X156099166Y-72810000D01*
X156194404Y-72905238D01*
X156242023Y-73000476D01*
X156289642Y-73190952D01*
X156289642Y-73333809D01*
X156242023Y-73524285D01*
X156194404Y-73619523D01*
X156099166Y-73714761D01*
X155956309Y-73762380D01*
X155718214Y-73762380D01*
X156670595Y-73714761D02*
X156813452Y-73762380D01*
X157051547Y-73762380D01*
X157146785Y-73714761D01*
X157194404Y-73667142D01*
X157242023Y-73571904D01*
X157242023Y-73476666D01*
X157194404Y-73381428D01*
X157146785Y-73333809D01*
X157051547Y-73286190D01*
X156861071Y-73238571D01*
X156765833Y-73190952D01*
X156718214Y-73143333D01*
X156670595Y-73048095D01*
X156670595Y-72952857D01*
X156718214Y-72857619D01*
X156765833Y-72810000D01*
X156861071Y-72762380D01*
X157099166Y-72762380D01*
X157242023Y-72810000D01*
X158146785Y-72762380D02*
X157670595Y-72762380D01*
X157622976Y-73238571D01*
X157670595Y-73190952D01*
X157765833Y-73143333D01*
X158003928Y-73143333D01*
X158099166Y-73190952D01*
X158146785Y-73238571D01*
X158194404Y-73333809D01*
X158194404Y-73571904D01*
X158146785Y-73667142D01*
X158099166Y-73714761D01*
X158003928Y-73762380D01*
X157765833Y-73762380D01*
X157670595Y-73714761D01*
X157622976Y-73667142D01*
X133703333Y-93762380D02*
X133370000Y-93286190D01*
X133131904Y-93762380D02*
X133131904Y-92762380D01*
X133512857Y-92762380D01*
X133608095Y-92810000D01*
X133655714Y-92857619D01*
X133703333Y-92952857D01*
X133703333Y-93095714D01*
X133655714Y-93190952D01*
X133608095Y-93238571D01*
X133512857Y-93286190D01*
X133131904Y-93286190D01*
X134084285Y-92857619D02*
X134131904Y-92810000D01*
X134227142Y-92762380D01*
X134465238Y-92762380D01*
X134560476Y-92810000D01*
X134608095Y-92857619D01*
X134655714Y-92952857D01*
X134655714Y-93048095D01*
X134608095Y-93190952D01*
X134036666Y-93762380D01*
X134655714Y-93762380D01*
X153298571Y-97333333D02*
X153298571Y-97666666D01*
X153822380Y-97666666D02*
X152822380Y-97666666D01*
X152822380Y-97190476D01*
X153822380Y-96285714D02*
X153822380Y-96857142D01*
X153822380Y-96571428D02*
X152822380Y-96571428D01*
X152965238Y-96666666D01*
X153060476Y-96761904D01*
X153108095Y-96857142D01*
X117518214Y-122762380D02*
X117518214Y-121762380D01*
X117756309Y-121762380D01*
X117899166Y-121810000D01*
X117994404Y-121905238D01*
X118042023Y-122000476D01*
X118089642Y-122190952D01*
X118089642Y-122333809D01*
X118042023Y-122524285D01*
X117994404Y-122619523D01*
X117899166Y-122714761D01*
X117756309Y-122762380D01*
X117518214Y-122762380D01*
X118470595Y-122714761D02*
X118613452Y-122762380D01*
X118851547Y-122762380D01*
X118946785Y-122714761D01*
X118994404Y-122667142D01*
X119042023Y-122571904D01*
X119042023Y-122476666D01*
X118994404Y-122381428D01*
X118946785Y-122333809D01*
X118851547Y-122286190D01*
X118661071Y-122238571D01*
X118565833Y-122190952D01*
X118518214Y-122143333D01*
X118470595Y-122048095D01*
X118470595Y-121952857D01*
X118518214Y-121857619D01*
X118565833Y-121810000D01*
X118661071Y-121762380D01*
X118899166Y-121762380D01*
X119042023Y-121810000D01*
X119994404Y-122762380D02*
X119422976Y-122762380D01*
X119708690Y-122762380D02*
X119708690Y-121762380D01*
X119613452Y-121905238D01*
X119518214Y-122000476D01*
X119422976Y-122048095D01*
X171260714Y-122596130D02*
X171260714Y-121596130D01*
X171498809Y-121596130D01*
X171641666Y-121643750D01*
X171736904Y-121738988D01*
X171784523Y-121834226D01*
X171832142Y-122024702D01*
X171832142Y-122167559D01*
X171784523Y-122358035D01*
X171736904Y-122453273D01*
X171641666Y-122548511D01*
X171498809Y-122596130D01*
X171260714Y-122596130D01*
X172213095Y-122548511D02*
X172355952Y-122596130D01*
X172594047Y-122596130D01*
X172689285Y-122548511D01*
X172736904Y-122500892D01*
X172784523Y-122405654D01*
X172784523Y-122310416D01*
X172736904Y-122215178D01*
X172689285Y-122167559D01*
X172594047Y-122119940D01*
X172403571Y-122072321D01*
X172308333Y-122024702D01*
X172260714Y-121977083D01*
X172213095Y-121881845D01*
X172213095Y-121786607D01*
X172260714Y-121691369D01*
X172308333Y-121643750D01*
X172403571Y-121596130D01*
X172641666Y-121596130D01*
X172784523Y-121643750D01*
X173165476Y-121691369D02*
X173213095Y-121643750D01*
X173308333Y-121596130D01*
X173546428Y-121596130D01*
X173641666Y-121643750D01*
X173689285Y-121691369D01*
X173736904Y-121786607D01*
X173736904Y-121881845D01*
X173689285Y-122024702D01*
X173117857Y-122596130D01*
X173736904Y-122596130D01*
D12*
X136430000Y-118485476D02*
X136309047Y-118425000D01*
X136188095Y-118304047D01*
X136006666Y-118122619D01*
X135885714Y-118062142D01*
X135764761Y-118062142D01*
X135825238Y-118364523D02*
X135704285Y-118304047D01*
X135583333Y-118183095D01*
X135522857Y-117941190D01*
X135522857Y-117517857D01*
X135583333Y-117275952D01*
X135704285Y-117155000D01*
X135825238Y-117094523D01*
X136067142Y-117094523D01*
X136188095Y-117155000D01*
X136309047Y-117275952D01*
X136369523Y-117517857D01*
X136369523Y-117941190D01*
X136309047Y-118183095D01*
X136188095Y-118304047D01*
X136067142Y-118364523D01*
X135825238Y-118364523D01*
X137579047Y-118364523D02*
X136853333Y-118364523D01*
X137216190Y-118364523D02*
X137216190Y-117094523D01*
X137095238Y-117275952D01*
X136974285Y-117396904D01*
X136853333Y-117457380D01*
X138062857Y-118001666D02*
X138667619Y-118001666D01*
X137941904Y-118364523D02*
X138365238Y-117094523D01*
X138788571Y-118364523D01*
X139877142Y-118364523D02*
X139151428Y-118364523D01*
X139514285Y-118364523D02*
X139514285Y-117094523D01*
X139393333Y-117275952D01*
X139272380Y-117396904D01*
X139151428Y-117457380D01*
D11*
X155218214Y-122762380D02*
X155218214Y-121762380D01*
X155456309Y-121762380D01*
X155599166Y-121810000D01*
X155694404Y-121905238D01*
X155742023Y-122000476D01*
X155789642Y-122190952D01*
X155789642Y-122333809D01*
X155742023Y-122524285D01*
X155694404Y-122619523D01*
X155599166Y-122714761D01*
X155456309Y-122762380D01*
X155218214Y-122762380D01*
X156170595Y-122714761D02*
X156313452Y-122762380D01*
X156551547Y-122762380D01*
X156646785Y-122714761D01*
X156694404Y-122667142D01*
X156742023Y-122571904D01*
X156742023Y-122476666D01*
X156694404Y-122381428D01*
X156646785Y-122333809D01*
X156551547Y-122286190D01*
X156361071Y-122238571D01*
X156265833Y-122190952D01*
X156218214Y-122143333D01*
X156170595Y-122048095D01*
X156170595Y-121952857D01*
X156218214Y-121857619D01*
X156265833Y-121810000D01*
X156361071Y-121762380D01*
X156599166Y-121762380D01*
X156742023Y-121810000D01*
X157599166Y-122095714D02*
X157599166Y-122762380D01*
X157361071Y-121714761D02*
X157122976Y-122429047D01*
X157742023Y-122429047D01*
D12*
X158689285Y-110965476D02*
X158568333Y-110905000D01*
X158447380Y-110784047D01*
X158265952Y-110602619D01*
X158145000Y-110542142D01*
X158024047Y-110542142D01*
X158084523Y-110844523D02*
X157963571Y-110784047D01*
X157842619Y-110663095D01*
X157782142Y-110421190D01*
X157782142Y-109997857D01*
X157842619Y-109755952D01*
X157963571Y-109635000D01*
X158084523Y-109574523D01*
X158326428Y-109574523D01*
X158447380Y-109635000D01*
X158568333Y-109755952D01*
X158628809Y-109997857D01*
X158628809Y-110421190D01*
X158568333Y-110663095D01*
X158447380Y-110784047D01*
X158326428Y-110844523D01*
X158084523Y-110844523D01*
X159112619Y-109695476D02*
X159173095Y-109635000D01*
X159294047Y-109574523D01*
X159596428Y-109574523D01*
X159717380Y-109635000D01*
X159777857Y-109695476D01*
X159838333Y-109816428D01*
X159838333Y-109937380D01*
X159777857Y-110118809D01*
X159052142Y-110844523D01*
X159838333Y-110844523D01*
X160805952Y-110179285D02*
X160987380Y-110239761D01*
X161047857Y-110300238D01*
X161108333Y-110421190D01*
X161108333Y-110602619D01*
X161047857Y-110723571D01*
X160987380Y-110784047D01*
X160866428Y-110844523D01*
X160382619Y-110844523D01*
X160382619Y-109574523D01*
X160805952Y-109574523D01*
X160926904Y-109635000D01*
X160987380Y-109695476D01*
X161047857Y-109816428D01*
X161047857Y-109937380D01*
X160987380Y-110058333D01*
X160926904Y-110118809D01*
X160805952Y-110179285D01*
X160382619Y-110179285D01*
X162317857Y-110844523D02*
X161592142Y-110844523D01*
X161955000Y-110844523D02*
X161955000Y-109574523D01*
X161834047Y-109755952D01*
X161713095Y-109876904D01*
X161592142Y-109937380D01*
D11*
X131905714Y-122762380D02*
X131905714Y-121762380D01*
X132143809Y-121762380D01*
X132286666Y-121810000D01*
X132381904Y-121905238D01*
X132429523Y-122000476D01*
X132477142Y-122190952D01*
X132477142Y-122333809D01*
X132429523Y-122524285D01*
X132381904Y-122619523D01*
X132286666Y-122714761D01*
X132143809Y-122762380D01*
X131905714Y-122762380D01*
X132858095Y-122714761D02*
X133000952Y-122762380D01*
X133239047Y-122762380D01*
X133334285Y-122714761D01*
X133381904Y-122667142D01*
X133429523Y-122571904D01*
X133429523Y-122476666D01*
X133381904Y-122381428D01*
X133334285Y-122333809D01*
X133239047Y-122286190D01*
X133048571Y-122238571D01*
X132953333Y-122190952D01*
X132905714Y-122143333D01*
X132858095Y-122048095D01*
X132858095Y-121952857D01*
X132905714Y-121857619D01*
X132953333Y-121810000D01*
X133048571Y-121762380D01*
X133286666Y-121762380D01*
X133429523Y-121810000D01*
X133762857Y-121762380D02*
X134381904Y-121762380D01*
X134048571Y-122143333D01*
X134191428Y-122143333D01*
X134286666Y-122190952D01*
X134334285Y-122238571D01*
X134381904Y-122333809D01*
X134381904Y-122571904D01*
X134334285Y-122667142D01*
X134286666Y-122714761D01*
X134191428Y-122762380D01*
X133905714Y-122762380D01*
X133810476Y-122714761D01*
X133762857Y-122667142D01*
X136903333Y-122762380D02*
X136570000Y-122286190D01*
X136331904Y-122762380D02*
X136331904Y-121762380D01*
X136712857Y-121762380D01*
X136808095Y-121810000D01*
X136855714Y-121857619D01*
X136903333Y-121952857D01*
X136903333Y-122095714D01*
X136855714Y-122190952D01*
X136808095Y-122238571D01*
X136712857Y-122286190D01*
X136331904Y-122286190D01*
X137760476Y-121762380D02*
X137570000Y-121762380D01*
X137474761Y-121810000D01*
X137427142Y-121857619D01*
X137331904Y-122000476D01*
X137284285Y-122190952D01*
X137284285Y-122571904D01*
X137331904Y-122667142D01*
X137379523Y-122714761D01*
X137474761Y-122762380D01*
X137665238Y-122762380D01*
X137760476Y-122714761D01*
X137808095Y-122667142D01*
X137855714Y-122571904D01*
X137855714Y-122333809D01*
X137808095Y-122238571D01*
X137760476Y-122190952D01*
X137665238Y-122143333D01*
X137474761Y-122143333D01*
X137379523Y-122190952D01*
X137331904Y-122238571D01*
X137284285Y-122333809D01*
X163857142Y-82666666D02*
X163904761Y-82714285D01*
X163952380Y-82857142D01*
X163952380Y-82952380D01*
X163904761Y-83095238D01*
X163809523Y-83190476D01*
X163714285Y-83238095D01*
X163523809Y-83285714D01*
X163380952Y-83285714D01*
X163190476Y-83238095D01*
X163095238Y-83190476D01*
X163000000Y-83095238D01*
X162952380Y-82952380D01*
X162952380Y-82857142D01*
X163000000Y-82714285D01*
X163047619Y-82666666D01*
X163952380Y-81714285D02*
X163952380Y-82285714D01*
X163952380Y-82000000D02*
X162952380Y-82000000D01*
X163095238Y-82095238D01*
X163190476Y-82190476D01*
X163238095Y-82285714D01*
X167452380Y-109254166D02*
X166976190Y-109587500D01*
X167452380Y-109825595D02*
X166452380Y-109825595D01*
X166452380Y-109444642D01*
X166500000Y-109349404D01*
X166547619Y-109301785D01*
X166642857Y-109254166D01*
X166785714Y-109254166D01*
X166880952Y-109301785D01*
X166928571Y-109349404D01*
X166976190Y-109444642D01*
X166976190Y-109825595D01*
X166452380Y-108349404D02*
X166452380Y-108825595D01*
X166928571Y-108873214D01*
X166880952Y-108825595D01*
X166833333Y-108730357D01*
X166833333Y-108492261D01*
X166880952Y-108397023D01*
X166928571Y-108349404D01*
X167023809Y-108301785D01*
X167261904Y-108301785D01*
X167357142Y-108349404D01*
X167404761Y-108397023D01*
X167452380Y-108492261D01*
X167452380Y-108730357D01*
X167404761Y-108825595D01*
X167357142Y-108873214D01*
X111432380Y-84543333D02*
X112146666Y-84543333D01*
X112289523Y-84590952D01*
X112384761Y-84686190D01*
X112432380Y-84829047D01*
X112432380Y-84924285D01*
X111527619Y-84114761D02*
X111480000Y-84067142D01*
X111432380Y-83971904D01*
X111432380Y-83733809D01*
X111480000Y-83638571D01*
X111527619Y-83590952D01*
X111622857Y-83543333D01*
X111718095Y-83543333D01*
X111860952Y-83590952D01*
X112432380Y-84162380D01*
X112432380Y-83543333D01*
X161265833Y-73762380D02*
X160932500Y-73286190D01*
X160694404Y-73762380D02*
X160694404Y-72762380D01*
X161075357Y-72762380D01*
X161170595Y-72810000D01*
X161218214Y-72857619D01*
X161265833Y-72952857D01*
X161265833Y-73095714D01*
X161218214Y-73190952D01*
X161170595Y-73238571D01*
X161075357Y-73286190D01*
X160694404Y-73286190D01*
X161837261Y-73190952D02*
X161742023Y-73143333D01*
X161694404Y-73095714D01*
X161646785Y-73000476D01*
X161646785Y-72952857D01*
X161694404Y-72857619D01*
X161742023Y-72810000D01*
X161837261Y-72762380D01*
X162027738Y-72762380D01*
X162122976Y-72810000D01*
X162170595Y-72857619D01*
X162218214Y-72952857D01*
X162218214Y-73000476D01*
X162170595Y-73095714D01*
X162122976Y-73143333D01*
X162027738Y-73190952D01*
X161837261Y-73190952D01*
X161742023Y-73238571D01*
X161694404Y-73286190D01*
X161646785Y-73381428D01*
X161646785Y-73571904D01*
X161694404Y-73667142D01*
X161742023Y-73714761D01*
X161837261Y-73762380D01*
X162027738Y-73762380D01*
X162122976Y-73714761D01*
X162170595Y-73667142D01*
X162218214Y-73571904D01*
X162218214Y-73381428D01*
X162170595Y-73286190D01*
X162122976Y-73238571D01*
X162027738Y-73190952D01*
X167965833Y-122596130D02*
X167632500Y-122119940D01*
X167394404Y-122596130D02*
X167394404Y-121596130D01*
X167775357Y-121596130D01*
X167870595Y-121643750D01*
X167918214Y-121691369D01*
X167965833Y-121786607D01*
X167965833Y-121929464D01*
X167918214Y-122024702D01*
X167870595Y-122072321D01*
X167775357Y-122119940D01*
X167394404Y-122119940D01*
X168822976Y-121929464D02*
X168822976Y-122596130D01*
X168584880Y-121548511D02*
X168346785Y-122262797D01*
X168965833Y-122262797D01*
D12*
X135362380Y-102039523D02*
X135362380Y-103067619D01*
X135422857Y-103188571D01*
X135483333Y-103249047D01*
X135604285Y-103309523D01*
X135846190Y-103309523D01*
X135967142Y-103249047D01*
X136027619Y-103188571D01*
X136088095Y-103067619D01*
X136088095Y-102039523D01*
X137358095Y-103309523D02*
X136632380Y-103309523D01*
X136995238Y-103309523D02*
X136995238Y-102039523D01*
X136874285Y-102220952D01*
X136753333Y-102341904D01*
X136632380Y-102402380D01*
D11*
X138203333Y-93762380D02*
X137870000Y-93286190D01*
X137631904Y-93762380D02*
X137631904Y-92762380D01*
X138012857Y-92762380D01*
X138108095Y-92810000D01*
X138155714Y-92857619D01*
X138203333Y-92952857D01*
X138203333Y-93095714D01*
X138155714Y-93190952D01*
X138108095Y-93238571D01*
X138012857Y-93286190D01*
X137631904Y-93286190D01*
X138536666Y-92762380D02*
X139155714Y-92762380D01*
X138822380Y-93143333D01*
X138965238Y-93143333D01*
X139060476Y-93190952D01*
X139108095Y-93238571D01*
X139155714Y-93333809D01*
X139155714Y-93571904D01*
X139108095Y-93667142D01*
X139060476Y-93714761D01*
X138965238Y-93762380D01*
X138679523Y-93762380D01*
X138584285Y-93714761D01*
X138536666Y-93667142D01*
D13*
X182520000Y-82305000D02*
X182520000Y-85575000D01*
X168920000Y-73295000D02*
X168920000Y-94585000D01*
X180670000Y-82305000D02*
X182520000Y-82305000D01*
X180670000Y-94585000D02*
X180670000Y-73295000D01*
X182520000Y-85575000D02*
X180670000Y-85575000D01*
X168920000Y-94585000D02*
X180670000Y-94585000D01*
X181535685Y-80595000D02*
X181535685Y-79795000D01*
X180670000Y-73295000D02*
X168920000Y-73295000D01*
X181535685Y-79795000D02*
X180970000Y-80195000D01*
X180970000Y-80195000D02*
X181535685Y-80595000D01*
X152205436Y-123225000D02*
X152659564Y-123225000D01*
X152205436Y-124695000D02*
X152659564Y-124695000D01*
X122959564Y-123225000D02*
X122505436Y-123225000D01*
X122959564Y-124695000D02*
X122505436Y-124695000D01*
X113030000Y-109870000D02*
X113030000Y-106600000D01*
X114014315Y-111580000D02*
X114014315Y-112380000D01*
X114580000Y-111980000D02*
X114014315Y-111580000D01*
X113030000Y-106600000D02*
X114880000Y-106600000D01*
X114014315Y-112380000D02*
X114580000Y-111980000D01*
X114880000Y-118880000D02*
X126630000Y-118880000D01*
X114880000Y-97590000D02*
X114880000Y-118880000D01*
X126630000Y-118880000D02*
X126630000Y-97590000D01*
X126630000Y-97590000D02*
X114880000Y-97590000D01*
X114880000Y-109870000D02*
X113030000Y-109870000D01*
X180630000Y-97570000D02*
X168880000Y-97570000D01*
X168880000Y-118860000D02*
X180630000Y-118860000D01*
X180930000Y-104470000D02*
X181495685Y-104870000D01*
X181495685Y-104870000D02*
X181495685Y-104070000D01*
X182480000Y-106580000D02*
X182480000Y-109850000D01*
X180630000Y-106580000D02*
X182480000Y-106580000D01*
X180630000Y-118860000D02*
X180630000Y-97570000D01*
X182480000Y-109850000D02*
X180630000Y-109850000D01*
X168880000Y-97570000D02*
X168880000Y-118860000D01*
X181495685Y-104070000D02*
X180930000Y-104470000D01*
X155247500Y-74000000D02*
X155247500Y-75920000D01*
X155247500Y-75920000D02*
X157932500Y-75920000D01*
X157932500Y-74000000D02*
X155247500Y-74000000D01*
X146895000Y-125160000D02*
X146895000Y-122760000D01*
X149295000Y-125160000D02*
X146895000Y-125160000D01*
X149295000Y-122760000D02*
X149295000Y-125160000D01*
X146895000Y-122760000D02*
X149295000Y-122760000D01*
X133642936Y-95695000D02*
X134097064Y-95695000D01*
X133642936Y-94225000D02*
X134097064Y-94225000D01*
X145530000Y-105100000D02*
X152470000Y-105100000D01*
X152470000Y-105100000D02*
X152470000Y-88900000D01*
X151000000Y-95400000D02*
X151000000Y-98600000D01*
X145530000Y-88900000D02*
X145530000Y-105100000D01*
X149000000Y-96250000D02*
X149000000Y-97750000D01*
X147000000Y-98600000D02*
X147000000Y-95400000D01*
X152470000Y-88900000D02*
X145530000Y-88900000D01*
X117047500Y-124920000D02*
X119732500Y-124920000D01*
X119732500Y-123000000D02*
X117047500Y-123000000D01*
X117047500Y-123000000D02*
X117047500Y-124920000D01*
X171132500Y-124981250D02*
X173817500Y-124981250D01*
X173817500Y-123061250D02*
X171132500Y-123061250D01*
X173817500Y-124981250D02*
X173817500Y-123061250D01*
D14*
X133075000Y-116560000D02*
X143585000Y-116560000D01*
X143585000Y-116560000D02*
X143585000Y-113640000D01*
X133075000Y-111910000D02*
X133075000Y-116560000D01*
D13*
X177670000Y-122760000D02*
X180070000Y-122760000D01*
X180070000Y-122760000D02*
X180070000Y-125160000D01*
X180070000Y-125160000D02*
X177670000Y-125160000D01*
X177670000Y-125160000D02*
X177670000Y-122760000D01*
X128070000Y-125160000D02*
X125670000Y-125160000D01*
X125670000Y-125160000D02*
X125670000Y-122760000D01*
X128070000Y-122760000D02*
X128070000Y-125160000D01*
X125670000Y-122760000D02*
X128070000Y-122760000D01*
X158117500Y-124920000D02*
X158117500Y-123000000D01*
X158117500Y-123000000D02*
X155432500Y-123000000D01*
X155432500Y-124920000D02*
X158117500Y-124920000D01*
X164670000Y-76160000D02*
X164670000Y-73760000D01*
X167070000Y-73760000D02*
X167070000Y-76160000D01*
X164670000Y-73760000D02*
X167070000Y-73760000D01*
X167070000Y-76160000D02*
X164670000Y-76160000D01*
D14*
X164935000Y-116040000D02*
X164935000Y-111390000D01*
X164935000Y-111390000D02*
X154425000Y-111390000D01*
X154425000Y-111390000D02*
X154425000Y-114310000D01*
D13*
X131435000Y-123000000D02*
X131435000Y-124920000D01*
X131435000Y-124920000D02*
X134120000Y-124920000D01*
X134120000Y-123000000D02*
X131435000Y-123000000D01*
G36*
X136948617Y-75529315D02*
G01*
X136965314Y-75608167D01*
X136941556Y-75822794D01*
X136886406Y-76082471D01*
X136817108Y-76320123D01*
X136750907Y-76468676D01*
X136741082Y-76480361D01*
X136551009Y-76575001D01*
X136302331Y-76603677D01*
X136099500Y-76555932D01*
X136000859Y-76420585D01*
X135950401Y-76196812D01*
X135945347Y-75936811D01*
X135982919Y-75692782D01*
X136060335Y-75516923D01*
X136157858Y-75460000D01*
X136217526Y-75518109D01*
X136234710Y-75706093D01*
X136222373Y-75933009D01*
X136204174Y-76200789D01*
X136216265Y-76338448D01*
X136272683Y-76384415D01*
X136384740Y-76377509D01*
X136508993Y-76335283D01*
X136587221Y-76223762D01*
X136644798Y-75999613D01*
X136661741Y-75904500D01*
X136731395Y-75618155D01*
X136815765Y-75473690D01*
X136852241Y-75460000D01*
X136948617Y-75529315D01*
G37*
D15*
X136948617Y-75529315D02*
X136965314Y-75608167D01*
X136941556Y-75822794D01*
X136886406Y-76082471D01*
X136817108Y-76320123D01*
X136750907Y-76468676D01*
X136741082Y-76480361D01*
X136551009Y-76575001D01*
X136302331Y-76603677D01*
X136099500Y-76555932D01*
X136000859Y-76420585D01*
X135950401Y-76196812D01*
X135945347Y-75936811D01*
X135982919Y-75692782D01*
X136060335Y-75516923D01*
X136157858Y-75460000D01*
X136217526Y-75518109D01*
X136234710Y-75706093D01*
X136222373Y-75933009D01*
X136204174Y-76200789D01*
X136216265Y-76338448D01*
X136272683Y-76384415D01*
X136384740Y-76377509D01*
X136508993Y-76335283D01*
X136587221Y-76223762D01*
X136644798Y-75999613D01*
X136661741Y-75904500D01*
X136731395Y-75618155D01*
X136815765Y-75473690D01*
X136852241Y-75460000D01*
X136948617Y-75529315D01*
G36*
X140373943Y-74215662D02*
G01*
X141988301Y-74269837D01*
X143756221Y-74355813D01*
X145676529Y-74473673D01*
X145942000Y-74491663D01*
X146594946Y-74537680D01*
X147285556Y-74588602D01*
X147963333Y-74640553D01*
X148577778Y-74689655D01*
X149078393Y-74732030D01*
X149117000Y-74735458D01*
X150387000Y-74848801D01*
X148482000Y-74794567D01*
X147665080Y-74774732D01*
X146779053Y-74759324D01*
X145843882Y-74748234D01*
X144879527Y-74741357D01*
X143905950Y-74738585D01*
X142943113Y-74739811D01*
X142010978Y-74744927D01*
X141129507Y-74753828D01*
X140318660Y-74766404D01*
X139598401Y-74782551D01*
X138988690Y-74802159D01*
X138509489Y-74825123D01*
X138195000Y-74849767D01*
X137220440Y-74969425D01*
X136407746Y-75102204D01*
X135749780Y-75250644D01*
X135239406Y-75417283D01*
X134869487Y-75604661D01*
X134632886Y-75815318D01*
X134522467Y-76051793D01*
X134512000Y-76160189D01*
X134561925Y-76402824D01*
X134682500Y-76646887D01*
X134687099Y-76653430D01*
X134785263Y-76805554D01*
X134795725Y-76873634D01*
X134705276Y-76855003D01*
X134500705Y-76746997D01*
X134173334Y-76549745D01*
X133744626Y-76259938D01*
X133380792Y-75965182D01*
X133108285Y-75689932D01*
X132953559Y-75458643D01*
X132934892Y-75404878D01*
X132948979Y-75145570D01*
X133128382Y-74917240D01*
X133471926Y-74719968D01*
X133978435Y-74553839D01*
X134646734Y-74418934D01*
X135475647Y-74315336D01*
X136464000Y-74243127D01*
X137610618Y-74202390D01*
X138914323Y-74193208D01*
X140373943Y-74215662D01*
G37*
X140373943Y-74215662D02*
X141988301Y-74269837D01*
X143756221Y-74355813D01*
X145676529Y-74473673D01*
X145942000Y-74491663D01*
X146594946Y-74537680D01*
X147285556Y-74588602D01*
X147963333Y-74640553D01*
X148577778Y-74689655D01*
X149078393Y-74732030D01*
X149117000Y-74735458D01*
X150387000Y-74848801D01*
X148482000Y-74794567D01*
X147665080Y-74774732D01*
X146779053Y-74759324D01*
X145843882Y-74748234D01*
X144879527Y-74741357D01*
X143905950Y-74738585D01*
X142943113Y-74739811D01*
X142010978Y-74744927D01*
X141129507Y-74753828D01*
X140318660Y-74766404D01*
X139598401Y-74782551D01*
X138988690Y-74802159D01*
X138509489Y-74825123D01*
X138195000Y-74849767D01*
X137220440Y-74969425D01*
X136407746Y-75102204D01*
X135749780Y-75250644D01*
X135239406Y-75417283D01*
X134869487Y-75604661D01*
X134632886Y-75815318D01*
X134522467Y-76051793D01*
X134512000Y-76160189D01*
X134561925Y-76402824D01*
X134682500Y-76646887D01*
X134687099Y-76653430D01*
X134785263Y-76805554D01*
X134795725Y-76873634D01*
X134705276Y-76855003D01*
X134500705Y-76746997D01*
X134173334Y-76549745D01*
X133744626Y-76259938D01*
X133380792Y-75965182D01*
X133108285Y-75689932D01*
X132953559Y-75458643D01*
X132934892Y-75404878D01*
X132948979Y-75145570D01*
X133128382Y-74917240D01*
X133471926Y-74719968D01*
X133978435Y-74553839D01*
X134646734Y-74418934D01*
X135475647Y-74315336D01*
X136464000Y-74243127D01*
X137610618Y-74202390D01*
X138914323Y-74193208D01*
X140373943Y-74215662D01*
G36*
X144645022Y-72077039D02*
G01*
X144952668Y-72159318D01*
X145579242Y-72433482D01*
X146183510Y-72853275D01*
X146732345Y-73395341D01*
X146771770Y-73441975D01*
X146984432Y-73707321D01*
X147154812Y-73939225D01*
X147262543Y-74107853D01*
X147287260Y-74183370D01*
X147278479Y-74184302D01*
X147207298Y-74130987D01*
X147038916Y-73994039D01*
X146805169Y-73799479D01*
X146719559Y-73727442D01*
X146007133Y-73198873D01*
X145289895Y-72818433D01*
X144553426Y-72584838D01*
X143783309Y-72496807D01*
X142965127Y-72553057D01*
X142084463Y-72752308D01*
X141126897Y-73093276D01*
X140860314Y-73206400D01*
X140491517Y-73361373D01*
X140266415Y-73442557D01*
X140178855Y-73455023D01*
X140222683Y-73403842D01*
X140391746Y-73294085D01*
X140679890Y-73130824D01*
X141080962Y-72919130D01*
X141412334Y-72751458D01*
X142191464Y-72394603D01*
X142877658Y-72153189D01*
X143497555Y-72022760D01*
X144077797Y-71998863D01*
X144645022Y-72077039D01*
G37*
X144645022Y-72077039D02*
X144952668Y-72159318D01*
X145579242Y-72433482D01*
X146183510Y-72853275D01*
X146732345Y-73395341D01*
X146771770Y-73441975D01*
X146984432Y-73707321D01*
X147154812Y-73939225D01*
X147262543Y-74107853D01*
X147287260Y-74183370D01*
X147278479Y-74184302D01*
X147207298Y-74130987D01*
X147038916Y-73994039D01*
X146805169Y-73799479D01*
X146719559Y-73727442D01*
X146007133Y-73198873D01*
X145289895Y-72818433D01*
X144553426Y-72584838D01*
X143783309Y-72496807D01*
X142965127Y-72553057D01*
X142084463Y-72752308D01*
X141126897Y-73093276D01*
X140860314Y-73206400D01*
X140491517Y-73361373D01*
X140266415Y-73442557D01*
X140178855Y-73455023D01*
X140222683Y-73403842D01*
X140391746Y-73294085D01*
X140679890Y-73130824D01*
X141080962Y-72919130D01*
X141412334Y-72751458D01*
X142191464Y-72394603D01*
X142877658Y-72153189D01*
X143497555Y-72022760D01*
X144077797Y-71998863D01*
X144645022Y-72077039D01*
G36*
X138787135Y-75503696D02*
G01*
X138808412Y-75565834D01*
X138705971Y-75648619D01*
X138576000Y-75671667D01*
X138393919Y-75711982D01*
X138359271Y-75808427D01*
X138477901Y-75924247D01*
X138531474Y-75951596D01*
X138705609Y-76099319D01*
X138730343Y-76288490D01*
X138603769Y-76477372D01*
X138557161Y-76513533D01*
X138346083Y-76627544D01*
X138174919Y-76619270D01*
X138078320Y-76568836D01*
X137997683Y-76467447D01*
X138052926Y-76387410D01*
X138210992Y-76361665D01*
X138277646Y-76370225D01*
X138445718Y-76360631D01*
X138491882Y-76275169D01*
X138412230Y-76159420D01*
X138301328Y-76093910D01*
X138125049Y-75944940D01*
X138082433Y-75744311D01*
X138156042Y-75582933D01*
X138284838Y-75504772D01*
X138471927Y-75464491D01*
X138658847Y-75463621D01*
X138787135Y-75503696D01*
G37*
X138787135Y-75503696D02*
X138808412Y-75565834D01*
X138705971Y-75648619D01*
X138576000Y-75671667D01*
X138393919Y-75711982D01*
X138359271Y-75808427D01*
X138477901Y-75924247D01*
X138531474Y-75951596D01*
X138705609Y-76099319D01*
X138730343Y-76288490D01*
X138603769Y-76477372D01*
X138557161Y-76513533D01*
X138346083Y-76627544D01*
X138174919Y-76619270D01*
X138078320Y-76568836D01*
X137997683Y-76467447D01*
X138052926Y-76387410D01*
X138210992Y-76361665D01*
X138277646Y-76370225D01*
X138445718Y-76360631D01*
X138491882Y-76275169D01*
X138412230Y-76159420D01*
X138301328Y-76093910D01*
X138125049Y-75944940D01*
X138082433Y-75744311D01*
X138156042Y-75582933D01*
X138284838Y-75504772D01*
X138471927Y-75464491D01*
X138658847Y-75463621D01*
X138787135Y-75503696D01*
G36*
X140758000Y-75468171D02*
G01*
X140948544Y-75495224D01*
X141012975Y-75544973D01*
X141010591Y-75565834D01*
X140907889Y-75661847D01*
X140791868Y-75698722D01*
X140648364Y-75770816D01*
X140606844Y-75952722D01*
X140577513Y-76267587D01*
X140501073Y-76481292D01*
X140389432Y-76560663D01*
X140388575Y-76560667D01*
X140328213Y-76535620D01*
X140306959Y-76440418D01*
X140325037Y-76244973D01*
X140382673Y-75919193D01*
X140393775Y-75862167D01*
X140361544Y-75737742D01*
X140268463Y-75714000D01*
X140122358Y-75668815D01*
X140082284Y-75618517D01*
X140031169Y-75638527D01*
X139926145Y-75780276D01*
X139788902Y-76013984D01*
X139773930Y-76041851D01*
X139620318Y-76300806D01*
X139480268Y-76486760D01*
X139383380Y-76560593D01*
X139381376Y-76560667D01*
X139291830Y-76483915D01*
X139191428Y-76279296D01*
X139132341Y-76103136D01*
X139043659Y-75780851D01*
X139008360Y-75587502D01*
X139026067Y-75491449D01*
X139096406Y-75461054D01*
X139124720Y-75460000D01*
X139231642Y-75532943D01*
X139301125Y-75692834D01*
X139367921Y-75962998D01*
X139427097Y-76074036D01*
X139498480Y-76033914D01*
X139601897Y-75850599D01*
X139617167Y-75819834D01*
X139794694Y-75460000D01*
X140420069Y-75460000D01*
X140758000Y-75468171D01*
G37*
X140758000Y-75468171D02*
X140948544Y-75495224D01*
X141012975Y-75544973D01*
X141010591Y-75565834D01*
X140907889Y-75661847D01*
X140791868Y-75698722D01*
X140648364Y-75770816D01*
X140606844Y-75952722D01*
X140577513Y-76267587D01*
X140501073Y-76481292D01*
X140389432Y-76560663D01*
X140388575Y-76560667D01*
X140328213Y-76535620D01*
X140306959Y-76440418D01*
X140325037Y-76244973D01*
X140382673Y-75919193D01*
X140393775Y-75862167D01*
X140361544Y-75737742D01*
X140268463Y-75714000D01*
X140122358Y-75668815D01*
X140082284Y-75618517D01*
X140031169Y-75638527D01*
X139926145Y-75780276D01*
X139788902Y-76013984D01*
X139773930Y-76041851D01*
X139620318Y-76300806D01*
X139480268Y-76486760D01*
X139383380Y-76560593D01*
X139381376Y-76560667D01*
X139291830Y-76483915D01*
X139191428Y-76279296D01*
X139132341Y-76103136D01*
X139043659Y-75780851D01*
X139008360Y-75587502D01*
X139026067Y-75491449D01*
X139096406Y-75461054D01*
X139124720Y-75460000D01*
X139231642Y-75532943D01*
X139301125Y-75692834D01*
X139367921Y-75962998D01*
X139427097Y-76074036D01*
X139498480Y-76033914D01*
X139601897Y-75850599D01*
X139617167Y-75819834D01*
X139794694Y-75460000D01*
X140420069Y-75460000D01*
X140758000Y-75468171D01*
G36*
X142318417Y-76419313D02*
G01*
X142134990Y-76553627D01*
X141864708Y-76738048D01*
X141536558Y-76953760D01*
X141179526Y-77181948D01*
X140822599Y-77403795D01*
X140494765Y-77600486D01*
X140257621Y-77735489D01*
X139510408Y-78102640D01*
X138780966Y-78381038D01*
X138092950Y-78565144D01*
X137470012Y-78649424D01*
X136935807Y-78628339D01*
X136690343Y-78570469D01*
X136206869Y-78324277D01*
X135805459Y-77932205D01*
X135519551Y-77460429D01*
X135404503Y-77193420D01*
X135321827Y-76957845D01*
X135275925Y-76778973D01*
X135271199Y-76682074D01*
X135312050Y-76692418D01*
X135402879Y-76835274D01*
X135414449Y-76857000D01*
X135747640Y-77320842D01*
X136196388Y-77694930D01*
X136332334Y-77774921D01*
X136505425Y-77856448D01*
X136690015Y-77909418D01*
X136927005Y-77939376D01*
X137257296Y-77951869D01*
X137644667Y-77952887D01*
X138106913Y-77945070D01*
X138462277Y-77920514D01*
X138773059Y-77869661D01*
X139101558Y-77782955D01*
X139422667Y-77680125D01*
X139815692Y-77534784D01*
X140297735Y-77334941D01*
X140808793Y-77106511D01*
X141288863Y-76875408D01*
X141306500Y-76866512D01*
X141690340Y-76674671D01*
X142014034Y-76517028D01*
X142250927Y-76406240D01*
X142374364Y-76354964D01*
X142386000Y-76353923D01*
X142318417Y-76419313D01*
G37*
X142318417Y-76419313D02*
X142134990Y-76553627D01*
X141864708Y-76738048D01*
X141536558Y-76953760D01*
X141179526Y-77181948D01*
X140822599Y-77403795D01*
X140494765Y-77600486D01*
X140257621Y-77735489D01*
X139510408Y-78102640D01*
X138780966Y-78381038D01*
X138092950Y-78565144D01*
X137470012Y-78649424D01*
X136935807Y-78628339D01*
X136690343Y-78570469D01*
X136206869Y-78324277D01*
X135805459Y-77932205D01*
X135519551Y-77460429D01*
X135404503Y-77193420D01*
X135321827Y-76957845D01*
X135275925Y-76778973D01*
X135271199Y-76682074D01*
X135312050Y-76692418D01*
X135402879Y-76835274D01*
X135414449Y-76857000D01*
X135747640Y-77320842D01*
X136196388Y-77694930D01*
X136332334Y-77774921D01*
X136505425Y-77856448D01*
X136690015Y-77909418D01*
X136927005Y-77939376D01*
X137257296Y-77951869D01*
X137644667Y-77952887D01*
X138106913Y-77945070D01*
X138462277Y-77920514D01*
X138773059Y-77869661D01*
X139101558Y-77782955D01*
X139422667Y-77680125D01*
X139815692Y-77534784D01*
X140297735Y-77334941D01*
X140808793Y-77106511D01*
X141288863Y-76875408D01*
X141306500Y-76866512D01*
X141690340Y-76674671D01*
X142014034Y-76517028D01*
X142250927Y-76406240D01*
X142374364Y-76354964D01*
X142386000Y-76353923D01*
X142318417Y-76419313D01*
G36*
X137826219Y-75473596D02*
G01*
X137956244Y-75520668D01*
X137983334Y-75587000D01*
X137913050Y-75690509D01*
X137816916Y-75714000D01*
X137711195Y-75745175D01*
X137644996Y-75864676D01*
X137597834Y-76111465D01*
X137594342Y-76137334D01*
X137534866Y-76423175D01*
X137451182Y-76551210D01*
X137414148Y-76560667D01*
X137343253Y-76528698D01*
X137322093Y-76408218D01*
X137344936Y-76162366D01*
X137348334Y-76137334D01*
X137374950Y-75883201D01*
X137359181Y-75755507D01*
X137293926Y-75715076D01*
X137271612Y-75714000D01*
X137154343Y-75649644D01*
X137136667Y-75587000D01*
X137181986Y-75507135D01*
X137338894Y-75468127D01*
X137560000Y-75460000D01*
X137826219Y-75473596D01*
G37*
X137826219Y-75473596D02*
X137956244Y-75520668D01*
X137983334Y-75587000D01*
X137913050Y-75690509D01*
X137816916Y-75714000D01*
X137711195Y-75745175D01*
X137644996Y-75864676D01*
X137597834Y-76111465D01*
X137594342Y-76137334D01*
X137534866Y-76423175D01*
X137451182Y-76551210D01*
X137414148Y-76560667D01*
X137343253Y-76528698D01*
X137322093Y-76408218D01*
X137344936Y-76162366D01*
X137348334Y-76137334D01*
X137374950Y-75883201D01*
X137359181Y-75755507D01*
X137293926Y-75715076D01*
X137271612Y-75714000D01*
X137154343Y-75649644D01*
X137136667Y-75587000D01*
X137181986Y-75507135D01*
X137338894Y-75468127D01*
X137560000Y-75460000D01*
X137826219Y-75473596D01*
G36*
X145596616Y-75054884D02*
G01*
X146363095Y-75136699D01*
X147034321Y-75281139D01*
X147169667Y-75322989D01*
X147806279Y-75579973D01*
X148301666Y-75877975D01*
X148651375Y-76208364D01*
X148850952Y-76562511D01*
X148895944Y-76931786D01*
X148781897Y-77307560D01*
X148504357Y-77681203D01*
X148426059Y-77757501D01*
X147966706Y-78079800D01*
X147384328Y-78321745D01*
X146708434Y-78476518D01*
X145968531Y-78537305D01*
X145213722Y-78499577D01*
X144821259Y-78435619D01*
X144415114Y-78340150D01*
X144143042Y-78254726D01*
X143774244Y-78090908D01*
X143372742Y-77871585D01*
X142989164Y-77628294D01*
X142674138Y-77392570D01*
X142513000Y-77239358D01*
X142343667Y-77045501D01*
X142597667Y-77174686D01*
X143252755Y-77437412D01*
X143996130Y-77617303D01*
X144785448Y-77712579D01*
X145578366Y-77721459D01*
X146332542Y-77642163D01*
X147005632Y-77472909D01*
X147262139Y-77370870D01*
X147688518Y-77128059D01*
X147950214Y-76868225D01*
X148050009Y-76599425D01*
X147990686Y-76329717D01*
X147775027Y-76067160D01*
X147405815Y-75819810D01*
X146885831Y-75595726D01*
X146619334Y-75509350D01*
X145803203Y-75335229D01*
X144900398Y-75262743D01*
X143958694Y-75290587D01*
X143025866Y-75417453D01*
X142184889Y-75630601D01*
X141852610Y-75733953D01*
X141587131Y-75809913D01*
X141424974Y-75848382D01*
X141392758Y-75849647D01*
X141435005Y-75795450D01*
X141608575Y-75708737D01*
X141881235Y-75600844D01*
X142220752Y-75483111D01*
X142594894Y-75366876D01*
X142971428Y-75263478D01*
X143236657Y-75201034D01*
X143982297Y-75085467D01*
X144785983Y-75037279D01*
X145596616Y-75054884D01*
G37*
X145596616Y-75054884D02*
X146363095Y-75136699D01*
X147034321Y-75281139D01*
X147169667Y-75322989D01*
X147806279Y-75579973D01*
X148301666Y-75877975D01*
X148651375Y-76208364D01*
X148850952Y-76562511D01*
X148895944Y-76931786D01*
X148781897Y-77307560D01*
X148504357Y-77681203D01*
X148426059Y-77757501D01*
X147966706Y-78079800D01*
X147384328Y-78321745D01*
X146708434Y-78476518D01*
X145968531Y-78537305D01*
X145213722Y-78499577D01*
X144821259Y-78435619D01*
X144415114Y-78340150D01*
X144143042Y-78254726D01*
X143774244Y-78090908D01*
X143372742Y-77871585D01*
X142989164Y-77628294D01*
X142674138Y-77392570D01*
X142513000Y-77239358D01*
X142343667Y-77045501D01*
X142597667Y-77174686D01*
X143252755Y-77437412D01*
X143996130Y-77617303D01*
X144785448Y-77712579D01*
X145578366Y-77721459D01*
X146332542Y-77642163D01*
X147005632Y-77472909D01*
X147262139Y-77370870D01*
X147688518Y-77128059D01*
X147950214Y-76868225D01*
X148050009Y-76599425D01*
X147990686Y-76329717D01*
X147775027Y-76067160D01*
X147405815Y-75819810D01*
X146885831Y-75595726D01*
X146619334Y-75509350D01*
X145803203Y-75335229D01*
X144900398Y-75262743D01*
X143958694Y-75290587D01*
X143025866Y-75417453D01*
X142184889Y-75630601D01*
X141852610Y-75733953D01*
X141587131Y-75809913D01*
X141424974Y-75848382D01*
X141392758Y-75849647D01*
X141435005Y-75795450D01*
X141608575Y-75708737D01*
X141881235Y-75600844D01*
X142220752Y-75483111D01*
X142594894Y-75366876D01*
X142971428Y-75263478D01*
X143236657Y-75201034D01*
X143982297Y-75085467D01*
X144785983Y-75037279D01*
X145596616Y-75054884D01*
D13*
X137347064Y-123225000D02*
X136892936Y-123225000D01*
X137347064Y-124695000D02*
X136892936Y-124695000D01*
X166235000Y-82238748D02*
X166235000Y-82761252D01*
X164765000Y-82238748D02*
X164765000Y-82761252D01*
X166265000Y-111772936D02*
X166265000Y-112227064D01*
X167735000Y-111772936D02*
X167735000Y-112227064D01*
X113070000Y-85850000D02*
X113070000Y-82580000D01*
X126670000Y-94860000D02*
X126670000Y-73570000D01*
X114054315Y-88360000D02*
X114620000Y-87960000D01*
X114920000Y-85850000D02*
X113070000Y-85850000D01*
X126670000Y-73570000D02*
X114920000Y-73570000D01*
X114920000Y-73570000D02*
X114920000Y-94860000D01*
X114920000Y-94860000D02*
X126670000Y-94860000D01*
X114620000Y-87960000D02*
X114054315Y-87560000D01*
X113070000Y-82580000D02*
X114920000Y-82580000D01*
X114054315Y-87560000D02*
X114054315Y-88360000D01*
X161659564Y-75695000D02*
X161205436Y-75695000D01*
X161659564Y-74225000D02*
X161205436Y-74225000D01*
X162695000Y-122698750D02*
X165095000Y-122698750D01*
X165095000Y-122698750D02*
X165095000Y-125098750D01*
X165095000Y-125098750D02*
X162695000Y-125098750D01*
X162695000Y-125098750D02*
X162695000Y-122698750D01*
X142570000Y-125160000D02*
X140170000Y-125160000D01*
X140170000Y-122760000D02*
X142570000Y-122760000D01*
X140170000Y-125160000D02*
X140170000Y-122760000D01*
X142570000Y-122760000D02*
X142570000Y-125160000D01*
X167905436Y-123286250D02*
X168359564Y-123286250D01*
X167905436Y-124756250D02*
X168359564Y-124756250D01*
D14*
X140865000Y-107815000D02*
X133030000Y-107815000D01*
X139630000Y-97655000D02*
X133030000Y-97655000D01*
D13*
X138142936Y-94225000D02*
X138597064Y-94225000D01*
X138142936Y-95695000D02*
X138597064Y-95695000D01*
%LPC*%
D16*
X172910000Y-80195000D03*
X176090000Y-80195000D03*
X176090000Y-87685000D03*
X172910000Y-87685000D03*
D17*
X151520000Y-123960000D03*
X153345000Y-123960000D03*
D18*
X123645000Y-123960000D03*
X121820000Y-123960000D03*
D16*
X119460000Y-111980000D03*
X122640000Y-111980000D03*
X122640000Y-104490000D03*
X119460000Y-104490000D03*
X176050000Y-104470000D03*
X172870000Y-104470000D03*
X172870000Y-111960000D03*
X176050000Y-111960000D03*
D19*
X155995000Y-74960000D03*
X157870000Y-74960000D03*
D20*
X148095000Y-123960000D03*
D17*
X132957500Y-94960000D03*
X134782500Y-94960000D03*
D21*
X150700000Y-92040000D03*
X147300000Y-92040000D03*
X150700000Y-101960000D03*
X147300000Y-101960000D03*
D22*
X109870000Y-70960000D03*
D19*
X117795000Y-123960000D03*
X119670000Y-123960000D03*
D23*
X173070000Y-124021250D03*
X171195000Y-124021250D03*
D24*
X135790000Y-113640000D03*
X138330000Y-113640000D03*
D25*
X140870000Y-113640000D03*
D20*
X178870000Y-123960000D03*
X126870000Y-123960000D03*
D23*
X157370000Y-123960000D03*
X155495000Y-123960000D03*
D20*
X165870000Y-74960000D03*
D22*
X185870000Y-123960000D03*
D24*
X162220000Y-114310000D03*
X159680000Y-114310000D03*
D25*
X157140000Y-114310000D03*
D19*
X132182500Y-123960000D03*
X134057500Y-123960000D03*
D18*
X138032500Y-123960000D03*
X136207500Y-123960000D03*
D22*
X185870000Y-70960000D03*
X109870000Y-123960000D03*
D26*
X165500000Y-81550000D03*
X165500000Y-83450000D03*
D27*
X167000000Y-111087500D03*
X167000000Y-112912500D03*
D16*
X122680000Y-87960000D03*
X119500000Y-87960000D03*
X119500000Y-80470000D03*
X122680000Y-80470000D03*
D18*
X162345000Y-74960000D03*
X160520000Y-74960000D03*
D20*
X163895000Y-123898750D03*
X141370000Y-123960000D03*
D17*
X167220000Y-124021250D03*
X169045000Y-124021250D03*
D28*
X140300000Y-106545000D03*
D29*
X140300000Y-104005000D03*
X140300000Y-101465000D03*
X140300000Y-98925000D03*
X132360000Y-98925000D03*
X132360000Y-101465000D03*
X132360000Y-104005000D03*
X132360000Y-106545000D03*
D17*
X137457500Y-94960000D03*
X139282500Y-94960000D03*
M02*
