G04 #@! TF.GenerationSoftware,KiCad,Pcbnew,(5.1.5)-3*
G04 #@! TF.CreationDate,2021-01-10T22:28:37-06:00*
G04 #@! TF.ProjectId,Power-Secondary,506f7765-722d-4536-9563-6f6e64617279,rev?*
G04 #@! TF.SameCoordinates,Original*
G04 #@! TF.FileFunction,Soldermask,Top*
G04 #@! TF.FilePolarity,Negative*
%FSLAX46Y46*%
G04 Gerber Fmt 4.6, Leading zero omitted, Abs format (unit mm)*
G04 Created by KiCad (PCBNEW (5.1.5)-3) date 2021-01-10 22:28:37*
%MOMM*%
%LPD*%
G04 APERTURE LIST*
%ADD10C,1.797000*%
%ADD11C,1.920000*%
%ADD12C,2.400000*%
%ADD13R,1.920000X1.920000*%
%ADD14O,2.400000X1.900000*%
%ADD15R,2.400000X1.900000*%
%ADD16C,1.400000*%
%ADD17R,2.400000X2.400000*%
%ADD18R,3.830000X4.180000*%
%ADD19C,2.200000*%
%ADD20R,2.200000X2.200000*%
%ADD21C,3.180000*%
%ADD22R,2.800000X2.800000*%
%ADD23O,2.800000X2.800000*%
%ADD24R,3.600000X3.600000*%
%ADD25O,3.600000X3.600000*%
%ADD26C,2.000000*%
%ADD27O,2.000000X2.000000*%
%ADD28C,3.400000*%
G04 APERTURE END LIST*
D10*
X57380000Y-62000000D03*
X57380000Y-56920000D03*
X65000000Y-62000000D03*
X65000000Y-56920000D03*
X119620000Y-133000000D03*
X119620000Y-138080000D03*
X112000000Y-133000000D03*
X112000000Y-138080000D03*
D11*
X100000000Y-116630000D03*
D12*
X115240000Y-116630000D03*
X117780000Y-124250000D03*
X110160000Y-124250000D03*
D13*
X100000000Y-124250000D03*
D14*
X43000000Y-138000000D03*
D15*
X43000000Y-135000000D03*
D16*
X44960000Y-141000000D03*
X44960000Y-132000000D03*
D17*
X132000000Y-97000000D03*
X132000000Y-119000000D03*
X43000000Y-92500000D03*
X49000000Y-46250000D03*
X43000000Y-110500000D03*
X132000000Y-53500000D03*
X132000000Y-75500000D03*
D10*
X119500000Y-100420000D03*
X119500000Y-105500000D03*
X111880000Y-100420000D03*
X111880000Y-105500000D03*
D11*
X100000000Y-73380000D03*
D12*
X115240000Y-73380000D03*
X117780000Y-81000000D03*
X110160000Y-81000000D03*
D13*
X100000000Y-81000000D03*
X100000000Y-59000000D03*
D12*
X110160000Y-59000000D03*
X117780000Y-59000000D03*
X115240000Y-51380000D03*
D11*
X100000000Y-51380000D03*
D18*
X43180000Y-56010000D03*
X43180000Y-63500000D03*
X46360000Y-56010000D03*
X46360000Y-63500000D03*
D19*
X132000000Y-84000000D03*
D20*
X132000000Y-81460000D03*
D19*
X59000000Y-71000000D03*
D20*
X56460000Y-71000000D03*
D19*
X59000000Y-103500000D03*
D20*
X56460000Y-103500000D03*
D19*
X59000000Y-121500000D03*
D20*
X56460000Y-121500000D03*
D19*
X132000000Y-62000000D03*
D20*
X132000000Y-59460000D03*
D19*
X132000000Y-106000000D03*
D20*
X132000000Y-103460000D03*
D19*
X132000000Y-128000000D03*
D20*
X132000000Y-125460000D03*
D21*
X83420000Y-56400000D03*
X83420000Y-53000000D03*
X73500000Y-56400000D03*
X73500000Y-53000000D03*
X83420000Y-78500000D03*
X83420000Y-75100000D03*
X73500000Y-78500000D03*
X73500000Y-75000000D03*
X83420000Y-100400000D03*
X83420000Y-97000000D03*
X73500000Y-100400000D03*
X73500000Y-97000000D03*
X83420000Y-122400000D03*
X83420000Y-119000000D03*
X73500000Y-122400000D03*
X73500000Y-119000000D03*
D14*
X43000000Y-102000000D03*
D15*
X43000000Y-99000000D03*
D16*
X44960000Y-105000000D03*
X44960000Y-96000000D03*
D14*
X43000000Y-120000000D03*
D15*
X43000000Y-117000000D03*
D16*
X44960000Y-123000000D03*
X44960000Y-114000000D03*
D14*
X43000000Y-156000000D03*
D15*
X43000000Y-153000000D03*
D16*
X44960000Y-159000000D03*
X44960000Y-150000000D03*
D14*
X146000000Y-58000000D03*
D15*
X146000000Y-61000000D03*
D16*
X144040000Y-55000000D03*
X144040000Y-64000000D03*
D14*
X146000000Y-80000000D03*
D15*
X146000000Y-83000000D03*
D16*
X144040000Y-77000000D03*
X144040000Y-86000000D03*
D14*
X146000000Y-102000000D03*
D15*
X146000000Y-105000000D03*
D16*
X144040000Y-99000000D03*
X144040000Y-108000000D03*
D14*
X146000000Y-124000000D03*
D15*
X146000000Y-127000000D03*
D16*
X144040000Y-121000000D03*
X144040000Y-130000000D03*
D22*
X92500000Y-51380000D03*
D23*
X92500000Y-64080000D03*
X92500000Y-86080000D03*
D22*
X92500000Y-73380000D03*
X92500000Y-116630000D03*
D23*
X92500000Y-129330000D03*
D24*
X99000000Y-134000000D03*
D25*
X83760000Y-134000000D03*
X83760000Y-143000000D03*
D24*
X99000000Y-143000000D03*
X99000000Y-152000000D03*
D25*
X83760000Y-152000000D03*
D26*
X65000000Y-66380000D03*
D27*
X65000000Y-76540000D03*
D26*
X53880000Y-96500000D03*
D27*
X64040000Y-96500000D03*
X64040000Y-114500000D03*
D26*
X53880000Y-114500000D03*
D27*
X134540000Y-66500000D03*
D26*
X124380000Y-66500000D03*
D27*
X134540000Y-88500000D03*
D26*
X124380000Y-88500000D03*
D27*
X134540000Y-111000000D03*
D26*
X124380000Y-111000000D03*
X124380000Y-133000000D03*
D27*
X134540000Y-133000000D03*
D17*
X148000000Y-142500000D03*
D28*
X37500000Y-43000000D03*
X151500000Y-167000000D03*
X151500000Y-43000000D03*
X37500000Y-167000000D03*
M02*
