G04 #@! TF.GenerationSoftware,KiCad,Pcbnew,(6.0.7)*
G04 #@! TF.CreationDate,2023-01-28T15:55:42-06:00*
G04 #@! TF.ProjectId,Power-Secondary,506f7765-722d-4536-9563-6f6e64617279,rev?*
G04 #@! TF.SameCoordinates,Original*
G04 #@! TF.FileFunction,Legend,Top*
G04 #@! TF.FilePolarity,Positive*
%FSLAX46Y46*%
G04 Gerber Fmt 4.6, Leading zero omitted, Abs format (unit mm)*
G04 Created by KiCad (PCBNEW (6.0.7)) date 2023-01-28 15:55:42*
%MOMM*%
%LPD*%
G01*
G04 APERTURE LIST*
%ADD10C,0.300000*%
%ADD11C,0.150000*%
%ADD12C,0.254000*%
%ADD13C,0.120000*%
%ADD14C,0.200000*%
%ADD15C,0.010000*%
G04 APERTURE END LIST*
D10*
X136892857Y-79928571D02*
X136892857Y-81071428D01*
X136321428Y-80500000D02*
X137464285Y-80500000D01*
X139428571Y-80607142D02*
X140571428Y-80607142D01*
X183392857Y-86928571D02*
X183392857Y-88071428D01*
X184071428Y-79892857D02*
X182928571Y-79892857D01*
X183500000Y-79321428D02*
X183500000Y-80464285D01*
X183392857Y-111428571D02*
X183392857Y-112571428D01*
X184071428Y-104392857D02*
X182928571Y-104392857D01*
X183500000Y-103821428D02*
X183500000Y-104964285D01*
X112107142Y-105071428D02*
X112107142Y-103928571D01*
X111428571Y-112107142D02*
X112571428Y-112107142D01*
X112000000Y-112678571D02*
X112000000Y-111535714D01*
X111607142Y-81071428D02*
X111607142Y-79928571D01*
X110928571Y-88107142D02*
X112071428Y-88107142D01*
X111500000Y-88678571D02*
X111500000Y-87535714D01*
X130821428Y-83107142D02*
X131035714Y-83178571D01*
X131392857Y-83178571D01*
X131535714Y-83107142D01*
X131607142Y-83035714D01*
X131678571Y-82892857D01*
X131678571Y-82750000D01*
X131607142Y-82607142D01*
X131535714Y-82535714D01*
X131392857Y-82464285D01*
X131107142Y-82392857D01*
X130964285Y-82321428D01*
X130892857Y-82250000D01*
X130821428Y-82107142D01*
X130821428Y-81964285D01*
X130892857Y-81821428D01*
X130964285Y-81750000D01*
X131107142Y-81678571D01*
X131464285Y-81678571D01*
X131678571Y-81750000D01*
X132321428Y-81678571D02*
X132321428Y-82892857D01*
X132392857Y-83035714D01*
X132464285Y-83107142D01*
X132607142Y-83178571D01*
X132892857Y-83178571D01*
X133035714Y-83107142D01*
X133107142Y-83035714D01*
X133178571Y-82892857D01*
X133178571Y-81678571D01*
X133892857Y-83178571D02*
X133892857Y-81678571D01*
X134464285Y-81678571D01*
X134607142Y-81750000D01*
X134678571Y-81821428D01*
X134750000Y-81964285D01*
X134750000Y-82178571D01*
X134678571Y-82321428D01*
X134607142Y-82392857D01*
X134464285Y-82464285D01*
X133892857Y-82464285D01*
X135392857Y-83178571D02*
X135392857Y-81678571D01*
X135964285Y-81678571D01*
X136107142Y-81750000D01*
X136178571Y-81821428D01*
X136250000Y-81964285D01*
X136250000Y-82178571D01*
X136178571Y-82321428D01*
X136107142Y-82392857D01*
X135964285Y-82464285D01*
X135392857Y-82464285D01*
X138035714Y-83178571D02*
X138035714Y-81678571D01*
X138535714Y-82750000D01*
X139035714Y-81678571D01*
X139035714Y-83178571D01*
X140035714Y-81678571D02*
X140321428Y-81678571D01*
X140464285Y-81750000D01*
X140607142Y-81892857D01*
X140678571Y-82178571D01*
X140678571Y-82678571D01*
X140607142Y-82964285D01*
X140464285Y-83107142D01*
X140321428Y-83178571D01*
X140035714Y-83178571D01*
X139892857Y-83107142D01*
X139750000Y-82964285D01*
X139678571Y-82678571D01*
X139678571Y-82178571D01*
X139750000Y-81892857D01*
X139892857Y-81750000D01*
X140035714Y-81678571D01*
X141321428Y-83178571D02*
X141321428Y-81678571D01*
X142178571Y-83178571D01*
X142178571Y-81678571D01*
X142892857Y-83178571D02*
X142892857Y-81678571D01*
X143392857Y-81678571D02*
X144250000Y-81678571D01*
X143821428Y-83178571D02*
X143821428Y-81678571D01*
X145035714Y-81678571D02*
X145321428Y-81678571D01*
X145464285Y-81750000D01*
X145607142Y-81892857D01*
X145678571Y-82178571D01*
X145678571Y-82678571D01*
X145607142Y-82964285D01*
X145464285Y-83107142D01*
X145321428Y-83178571D01*
X145035714Y-83178571D01*
X144892857Y-83107142D01*
X144750000Y-82964285D01*
X144678571Y-82678571D01*
X144678571Y-82178571D01*
X144750000Y-81892857D01*
X144892857Y-81750000D01*
X145035714Y-81678571D01*
X147178571Y-83178571D02*
X146678571Y-82464285D01*
X146321428Y-83178571D02*
X146321428Y-81678571D01*
X146892857Y-81678571D01*
X147035714Y-81750000D01*
X147107142Y-81821428D01*
X147178571Y-81964285D01*
X147178571Y-82178571D01*
X147107142Y-82321428D01*
X147035714Y-82392857D01*
X146892857Y-82464285D01*
X146321428Y-82464285D01*
X110477142Y-91388571D02*
X110548571Y-91174285D01*
X110548571Y-90817142D01*
X110477142Y-90674285D01*
X110405714Y-90602857D01*
X110262857Y-90531428D01*
X110120000Y-90531428D01*
X109977142Y-90602857D01*
X109905714Y-90674285D01*
X109834285Y-90817142D01*
X109762857Y-91102857D01*
X109691428Y-91245714D01*
X109620000Y-91317142D01*
X109477142Y-91388571D01*
X109334285Y-91388571D01*
X109191428Y-91317142D01*
X109120000Y-91245714D01*
X109048571Y-91102857D01*
X109048571Y-90745714D01*
X109120000Y-90531428D01*
X109048571Y-89888571D02*
X110262857Y-89888571D01*
X110405714Y-89817142D01*
X110477142Y-89745714D01*
X110548571Y-89602857D01*
X110548571Y-89317142D01*
X110477142Y-89174285D01*
X110405714Y-89102857D01*
X110262857Y-89031428D01*
X109048571Y-89031428D01*
X110548571Y-88317142D02*
X109048571Y-88317142D01*
X109048571Y-87745714D01*
X109120000Y-87602857D01*
X109191428Y-87531428D01*
X109334285Y-87460000D01*
X109548571Y-87460000D01*
X109691428Y-87531428D01*
X109762857Y-87602857D01*
X109834285Y-87745714D01*
X109834285Y-88317142D01*
X110548571Y-86817142D02*
X109048571Y-86817142D01*
X109048571Y-86245714D01*
X109120000Y-86102857D01*
X109191428Y-86031428D01*
X109334285Y-85960000D01*
X109548571Y-85960000D01*
X109691428Y-86031428D01*
X109762857Y-86102857D01*
X109834285Y-86245714D01*
X109834285Y-86817142D01*
X110548571Y-84174285D02*
X109048571Y-84174285D01*
X109048571Y-83602857D01*
X109120000Y-83460000D01*
X109191428Y-83388571D01*
X109334285Y-83317142D01*
X109548571Y-83317142D01*
X109691428Y-83388571D01*
X109762857Y-83460000D01*
X109834285Y-83602857D01*
X109834285Y-84174285D01*
X109048571Y-82817142D02*
X110548571Y-82460000D01*
X109477142Y-82174285D01*
X110548571Y-81888571D01*
X109048571Y-81531428D01*
X110548571Y-80102857D02*
X109834285Y-80602857D01*
X110548571Y-80960000D02*
X109048571Y-80960000D01*
X109048571Y-80388571D01*
X109120000Y-80245714D01*
X109191428Y-80174285D01*
X109334285Y-80102857D01*
X109548571Y-80102857D01*
X109691428Y-80174285D01*
X109762857Y-80245714D01*
X109834285Y-80388571D01*
X109834285Y-80960000D01*
X109191428Y-78388571D02*
X109120000Y-78317142D01*
X109048571Y-78174285D01*
X109048571Y-77817142D01*
X109120000Y-77674285D01*
X109191428Y-77602857D01*
X109334285Y-77531428D01*
X109477142Y-77531428D01*
X109691428Y-77602857D01*
X110548571Y-78460000D01*
X110548571Y-77531428D01*
X110807142Y-114968571D02*
X110878571Y-114754285D01*
X110878571Y-114397142D01*
X110807142Y-114254285D01*
X110735714Y-114182857D01*
X110592857Y-114111428D01*
X110450000Y-114111428D01*
X110307142Y-114182857D01*
X110235714Y-114254285D01*
X110164285Y-114397142D01*
X110092857Y-114682857D01*
X110021428Y-114825714D01*
X109950000Y-114897142D01*
X109807142Y-114968571D01*
X109664285Y-114968571D01*
X109521428Y-114897142D01*
X109450000Y-114825714D01*
X109378571Y-114682857D01*
X109378571Y-114325714D01*
X109450000Y-114111428D01*
X109378571Y-113468571D02*
X110592857Y-113468571D01*
X110735714Y-113397142D01*
X110807142Y-113325714D01*
X110878571Y-113182857D01*
X110878571Y-112897142D01*
X110807142Y-112754285D01*
X110735714Y-112682857D01*
X110592857Y-112611428D01*
X109378571Y-112611428D01*
X110878571Y-111897142D02*
X109378571Y-111897142D01*
X109378571Y-111325714D01*
X109450000Y-111182857D01*
X109521428Y-111111428D01*
X109664285Y-111040000D01*
X109878571Y-111040000D01*
X110021428Y-111111428D01*
X110092857Y-111182857D01*
X110164285Y-111325714D01*
X110164285Y-111897142D01*
X110878571Y-110397142D02*
X109378571Y-110397142D01*
X109378571Y-109825714D01*
X109450000Y-109682857D01*
X109521428Y-109611428D01*
X109664285Y-109540000D01*
X109878571Y-109540000D01*
X110021428Y-109611428D01*
X110092857Y-109682857D01*
X110164285Y-109825714D01*
X110164285Y-110397142D01*
X110878571Y-107754285D02*
X109378571Y-107754285D01*
X109378571Y-107182857D01*
X109450000Y-107040000D01*
X109521428Y-106968571D01*
X109664285Y-106897142D01*
X109878571Y-106897142D01*
X110021428Y-106968571D01*
X110092857Y-107040000D01*
X110164285Y-107182857D01*
X110164285Y-107754285D01*
X109378571Y-106397142D02*
X110878571Y-106040000D01*
X109807142Y-105754285D01*
X110878571Y-105468571D01*
X109378571Y-105111428D01*
X110878571Y-103682857D02*
X110164285Y-104182857D01*
X110878571Y-104540000D02*
X109378571Y-104540000D01*
X109378571Y-103968571D01*
X109450000Y-103825714D01*
X109521428Y-103754285D01*
X109664285Y-103682857D01*
X109878571Y-103682857D01*
X110021428Y-103754285D01*
X110092857Y-103825714D01*
X110164285Y-103968571D01*
X110164285Y-104540000D01*
X110878571Y-101111428D02*
X110878571Y-101968571D01*
X110878571Y-101540000D02*
X109378571Y-101540000D01*
X109592857Y-101682857D01*
X109735714Y-101825714D01*
X109807142Y-101968571D01*
D11*
X121904761Y-69647380D02*
X121904761Y-68647380D01*
X122285714Y-68647380D01*
X122380952Y-68695000D01*
X122428571Y-68742619D01*
X122476190Y-68837857D01*
X122476190Y-68980714D01*
X122428571Y-69075952D01*
X122380952Y-69123571D01*
X122285714Y-69171190D01*
X121904761Y-69171190D01*
X123095238Y-68647380D02*
X123285714Y-68647380D01*
X123380952Y-68695000D01*
X123476190Y-68790238D01*
X123523809Y-68980714D01*
X123523809Y-69314047D01*
X123476190Y-69504523D01*
X123380952Y-69599761D01*
X123285714Y-69647380D01*
X123095238Y-69647380D01*
X123000000Y-69599761D01*
X122904761Y-69504523D01*
X122857142Y-69314047D01*
X122857142Y-68980714D01*
X122904761Y-68790238D01*
X123000000Y-68695000D01*
X123095238Y-68647380D01*
X123857142Y-68647380D02*
X124095238Y-69647380D01*
X124285714Y-68933095D01*
X124476190Y-69647380D01*
X124714285Y-68647380D01*
X125095238Y-69123571D02*
X125428571Y-69123571D01*
X125571428Y-69647380D02*
X125095238Y-69647380D01*
X125095238Y-68647380D01*
X125571428Y-68647380D01*
X126571428Y-69647380D02*
X126238095Y-69171190D01*
X126000000Y-69647380D02*
X126000000Y-68647380D01*
X126380952Y-68647380D01*
X126476190Y-68695000D01*
X126523809Y-68742619D01*
X126571428Y-68837857D01*
X126571428Y-68980714D01*
X126523809Y-69075952D01*
X126476190Y-69123571D01*
X126380952Y-69171190D01*
X126000000Y-69171190D01*
X128095238Y-69123571D02*
X128238095Y-69171190D01*
X128285714Y-69218809D01*
X128333333Y-69314047D01*
X128333333Y-69456904D01*
X128285714Y-69552142D01*
X128238095Y-69599761D01*
X128142857Y-69647380D01*
X127761904Y-69647380D01*
X127761904Y-68647380D01*
X128095238Y-68647380D01*
X128190476Y-68695000D01*
X128238095Y-68742619D01*
X128285714Y-68837857D01*
X128285714Y-68933095D01*
X128238095Y-69028333D01*
X128190476Y-69075952D01*
X128095238Y-69123571D01*
X127761904Y-69123571D01*
X128952380Y-68647380D02*
X129142857Y-68647380D01*
X129238095Y-68695000D01*
X129333333Y-68790238D01*
X129380952Y-68980714D01*
X129380952Y-69314047D01*
X129333333Y-69504523D01*
X129238095Y-69599761D01*
X129142857Y-69647380D01*
X128952380Y-69647380D01*
X128857142Y-69599761D01*
X128761904Y-69504523D01*
X128714285Y-69314047D01*
X128714285Y-68980714D01*
X128761904Y-68790238D01*
X128857142Y-68695000D01*
X128952380Y-68647380D01*
X129761904Y-69361666D02*
X130238095Y-69361666D01*
X129666666Y-69647380D02*
X130000000Y-68647380D01*
X130333333Y-69647380D01*
X131238095Y-69647380D02*
X130904761Y-69171190D01*
X130666666Y-69647380D02*
X130666666Y-68647380D01*
X131047619Y-68647380D01*
X131142857Y-68695000D01*
X131190476Y-68742619D01*
X131238095Y-68837857D01*
X131238095Y-68980714D01*
X131190476Y-69075952D01*
X131142857Y-69123571D01*
X131047619Y-69171190D01*
X130666666Y-69171190D01*
X131666666Y-69647380D02*
X131666666Y-68647380D01*
X131904761Y-68647380D01*
X132047619Y-68695000D01*
X132142857Y-68790238D01*
X132190476Y-68885476D01*
X132238095Y-69075952D01*
X132238095Y-69218809D01*
X132190476Y-69409285D01*
X132142857Y-69504523D01*
X132047619Y-69599761D01*
X131904761Y-69647380D01*
X131666666Y-69647380D01*
X133333333Y-68980714D02*
X133571428Y-69647380D01*
X133809523Y-68980714D01*
X134095238Y-68647380D02*
X134714285Y-68647380D01*
X134380952Y-69028333D01*
X134523809Y-69028333D01*
X134619047Y-69075952D01*
X134666666Y-69123571D01*
X134714285Y-69218809D01*
X134714285Y-69456904D01*
X134666666Y-69552142D01*
X134619047Y-69599761D01*
X134523809Y-69647380D01*
X134238095Y-69647380D01*
X134142857Y-69599761D01*
X134095238Y-69552142D01*
X135142857Y-69552142D02*
X135190476Y-69599761D01*
X135142857Y-69647380D01*
X135095238Y-69599761D01*
X135142857Y-69552142D01*
X135142857Y-69647380D01*
X135809523Y-68647380D02*
X135904761Y-68647380D01*
X136000000Y-68695000D01*
X136047619Y-68742619D01*
X136095238Y-68837857D01*
X136142857Y-69028333D01*
X136142857Y-69266428D01*
X136095238Y-69456904D01*
X136047619Y-69552142D01*
X136000000Y-69599761D01*
X135904761Y-69647380D01*
X135809523Y-69647380D01*
X135714285Y-69599761D01*
X135666666Y-69552142D01*
X135619047Y-69456904D01*
X135571428Y-69266428D01*
X135571428Y-69028333D01*
X135619047Y-68837857D01*
X135666666Y-68742619D01*
X135714285Y-68695000D01*
X135809523Y-68647380D01*
X121214285Y-70257380D02*
X121214285Y-70971666D01*
X121166666Y-71114523D01*
X121071428Y-71209761D01*
X120928571Y-71257380D01*
X120833333Y-71257380D01*
X121642857Y-70971666D02*
X122119047Y-70971666D01*
X121547619Y-71257380D02*
X121880952Y-70257380D01*
X122214285Y-71257380D01*
X122500000Y-71209761D02*
X122642857Y-71257380D01*
X122880952Y-71257380D01*
X122976190Y-71209761D01*
X123023809Y-71162142D01*
X123071428Y-71066904D01*
X123071428Y-70971666D01*
X123023809Y-70876428D01*
X122976190Y-70828809D01*
X122880952Y-70781190D01*
X122690476Y-70733571D01*
X122595238Y-70685952D01*
X122547619Y-70638333D01*
X122500000Y-70543095D01*
X122500000Y-70447857D01*
X122547619Y-70352619D01*
X122595238Y-70305000D01*
X122690476Y-70257380D01*
X122928571Y-70257380D01*
X123071428Y-70305000D01*
X123690476Y-70257380D02*
X123880952Y-70257380D01*
X123976190Y-70305000D01*
X124071428Y-70400238D01*
X124119047Y-70590714D01*
X124119047Y-70924047D01*
X124071428Y-71114523D01*
X123976190Y-71209761D01*
X123880952Y-71257380D01*
X123690476Y-71257380D01*
X123595238Y-71209761D01*
X123500000Y-71114523D01*
X123452380Y-70924047D01*
X123452380Y-70590714D01*
X123500000Y-70400238D01*
X123595238Y-70305000D01*
X123690476Y-70257380D01*
X124547619Y-71257380D02*
X124547619Y-70257380D01*
X125119047Y-71257380D01*
X125119047Y-70257380D01*
X126309523Y-70971666D02*
X126785714Y-70971666D01*
X126214285Y-71257380D02*
X126547619Y-70257380D01*
X126880952Y-71257380D01*
X127214285Y-71257380D02*
X127214285Y-70257380D01*
X127785714Y-71257380D01*
X127785714Y-70257380D01*
X128261904Y-71257380D02*
X128261904Y-70257380D01*
X128500000Y-70257380D01*
X128642857Y-70305000D01*
X128738095Y-70400238D01*
X128785714Y-70495476D01*
X128833333Y-70685952D01*
X128833333Y-70828809D01*
X128785714Y-71019285D01*
X128738095Y-71114523D01*
X128642857Y-71209761D01*
X128500000Y-71257380D01*
X128261904Y-71257380D01*
X130023809Y-71257380D02*
X130023809Y-70257380D01*
X130404761Y-70257380D01*
X130500000Y-70305000D01*
X130547619Y-70352619D01*
X130595238Y-70447857D01*
X130595238Y-70590714D01*
X130547619Y-70685952D01*
X130500000Y-70733571D01*
X130404761Y-70781190D01*
X130023809Y-70781190D01*
X131595238Y-71257380D02*
X131261904Y-70781190D01*
X131023809Y-71257380D02*
X131023809Y-70257380D01*
X131404761Y-70257380D01*
X131500000Y-70305000D01*
X131547619Y-70352619D01*
X131595238Y-70447857D01*
X131595238Y-70590714D01*
X131547619Y-70685952D01*
X131500000Y-70733571D01*
X131404761Y-70781190D01*
X131023809Y-70781190D01*
X131976190Y-70971666D02*
X132452380Y-70971666D01*
X131880952Y-71257380D02*
X132214285Y-70257380D01*
X132547619Y-71257380D01*
X132738095Y-70257380D02*
X133309523Y-70257380D01*
X133023809Y-71257380D02*
X133023809Y-70257380D01*
X133833333Y-70781190D02*
X133833333Y-71257380D01*
X133500000Y-70257380D02*
X133833333Y-70781190D01*
X134166666Y-70257380D01*
X134500000Y-70257380D02*
X134500000Y-71066904D01*
X134547619Y-71162142D01*
X134595238Y-71209761D01*
X134690476Y-71257380D01*
X134880952Y-71257380D01*
X134976190Y-71209761D01*
X135023809Y-71162142D01*
X135071428Y-71066904D01*
X135071428Y-70257380D01*
X135500000Y-71209761D02*
X135642857Y-71257380D01*
X135880952Y-71257380D01*
X135976190Y-71209761D01*
X136023809Y-71162142D01*
X136071428Y-71066904D01*
X136071428Y-70971666D01*
X136023809Y-70876428D01*
X135976190Y-70828809D01*
X135880952Y-70781190D01*
X135690476Y-70733571D01*
X135595238Y-70685952D01*
X135547619Y-70638333D01*
X135500000Y-70543095D01*
X135500000Y-70447857D01*
X135547619Y-70352619D01*
X135595238Y-70305000D01*
X135690476Y-70257380D01*
X135928571Y-70257380D01*
X136071428Y-70305000D01*
X136500000Y-71257380D02*
X136500000Y-70257380D01*
X136500000Y-70733571D02*
X137071428Y-70733571D01*
X137071428Y-71257380D02*
X137071428Y-70257380D01*
X164155714Y-126912380D02*
X164155714Y-125912380D01*
X164393809Y-125912380D01*
X164536666Y-125960000D01*
X164631904Y-126055238D01*
X164679523Y-126150476D01*
X164727142Y-126340952D01*
X164727142Y-126483809D01*
X164679523Y-126674285D01*
X164631904Y-126769523D01*
X164536666Y-126864761D01*
X164393809Y-126912380D01*
X164155714Y-126912380D01*
X165727142Y-126817142D02*
X165679523Y-126864761D01*
X165536666Y-126912380D01*
X165441428Y-126912380D01*
X165298571Y-126864761D01*
X165203333Y-126769523D01*
X165155714Y-126674285D01*
X165108095Y-126483809D01*
X165108095Y-126340952D01*
X165155714Y-126150476D01*
X165203333Y-126055238D01*
X165298571Y-125960000D01*
X165441428Y-125912380D01*
X165536666Y-125912380D01*
X165679523Y-125960000D01*
X165727142Y-126007619D01*
X166155714Y-126912380D02*
X166155714Y-125912380D01*
X166393809Y-125912380D01*
X166536666Y-125960000D01*
X166631904Y-126055238D01*
X166679523Y-126150476D01*
X166727142Y-126340952D01*
X166727142Y-126483809D01*
X166679523Y-126674285D01*
X166631904Y-126769523D01*
X166536666Y-126864761D01*
X166393809Y-126912380D01*
X166155714Y-126912380D01*
X167727142Y-126817142D02*
X167679523Y-126864761D01*
X167536666Y-126912380D01*
X167441428Y-126912380D01*
X167298571Y-126864761D01*
X167203333Y-126769523D01*
X167155714Y-126674285D01*
X167108095Y-126483809D01*
X167108095Y-126340952D01*
X167155714Y-126150476D01*
X167203333Y-126055238D01*
X167298571Y-125960000D01*
X167441428Y-125912380D01*
X167536666Y-125912380D01*
X167679523Y-125960000D01*
X167727142Y-126007619D01*
X168917619Y-126912380D02*
X168917619Y-125912380D01*
X169298571Y-125912380D01*
X169393809Y-125960000D01*
X169441428Y-126007619D01*
X169489047Y-126102857D01*
X169489047Y-126245714D01*
X169441428Y-126340952D01*
X169393809Y-126388571D01*
X169298571Y-126436190D01*
X168917619Y-126436190D01*
X169822380Y-125912380D02*
X170060476Y-126912380D01*
X170250952Y-126198095D01*
X170441428Y-126912380D01*
X170679523Y-125912380D01*
X171631904Y-126912380D02*
X171298571Y-126436190D01*
X171060476Y-126912380D02*
X171060476Y-125912380D01*
X171441428Y-125912380D01*
X171536666Y-125960000D01*
X171584285Y-126007619D01*
X171631904Y-126102857D01*
X171631904Y-126245714D01*
X171584285Y-126340952D01*
X171536666Y-126388571D01*
X171441428Y-126436190D01*
X171060476Y-126436190D01*
D10*
X186228571Y-113841428D02*
X184728571Y-113841428D01*
X184728571Y-113484285D01*
X184800000Y-113270000D01*
X184942857Y-113127142D01*
X185085714Y-113055714D01*
X185371428Y-112984285D01*
X185585714Y-112984285D01*
X185871428Y-113055714D01*
X186014285Y-113127142D01*
X186157142Y-113270000D01*
X186228571Y-113484285D01*
X186228571Y-113841428D01*
X186085714Y-111484285D02*
X186157142Y-111555714D01*
X186228571Y-111770000D01*
X186228571Y-111912857D01*
X186157142Y-112127142D01*
X186014285Y-112270000D01*
X185871428Y-112341428D01*
X185585714Y-112412857D01*
X185371428Y-112412857D01*
X185085714Y-112341428D01*
X184942857Y-112270000D01*
X184800000Y-112127142D01*
X184728571Y-111912857D01*
X184728571Y-111770000D01*
X184800000Y-111555714D01*
X184871428Y-111484285D01*
X186228571Y-110841428D02*
X184728571Y-110841428D01*
X184728571Y-110484285D01*
X184800000Y-110270000D01*
X184942857Y-110127142D01*
X185085714Y-110055714D01*
X185371428Y-109984285D01*
X185585714Y-109984285D01*
X185871428Y-110055714D01*
X186014285Y-110127142D01*
X186157142Y-110270000D01*
X186228571Y-110484285D01*
X186228571Y-110841428D01*
X186085714Y-108484285D02*
X186157142Y-108555714D01*
X186228571Y-108770000D01*
X186228571Y-108912857D01*
X186157142Y-109127142D01*
X186014285Y-109270000D01*
X185871428Y-109341428D01*
X185585714Y-109412857D01*
X185371428Y-109412857D01*
X185085714Y-109341428D01*
X184942857Y-109270000D01*
X184800000Y-109127142D01*
X184728571Y-108912857D01*
X184728571Y-108770000D01*
X184800000Y-108555714D01*
X184871428Y-108484285D01*
X186228571Y-106698571D02*
X184728571Y-106698571D01*
X184728571Y-106127142D01*
X184800000Y-105984285D01*
X184871428Y-105912857D01*
X185014285Y-105841428D01*
X185228571Y-105841428D01*
X185371428Y-105912857D01*
X185442857Y-105984285D01*
X185514285Y-106127142D01*
X185514285Y-106698571D01*
X184728571Y-105341428D02*
X186228571Y-104984285D01*
X185157142Y-104698571D01*
X186228571Y-104412857D01*
X184728571Y-104055714D01*
X186228571Y-102627142D02*
X185514285Y-103127142D01*
X186228571Y-103484285D02*
X184728571Y-103484285D01*
X184728571Y-102912857D01*
X184800000Y-102770000D01*
X184871428Y-102698571D01*
X185014285Y-102627142D01*
X185228571Y-102627142D01*
X185371428Y-102698571D01*
X185442857Y-102770000D01*
X185514285Y-102912857D01*
X185514285Y-103484285D01*
D11*
X156250952Y-76888571D02*
X155917619Y-76888571D01*
X155917619Y-77412380D02*
X155917619Y-76412380D01*
X156393809Y-76412380D01*
X156774761Y-76412380D02*
X156774761Y-77221904D01*
X156822380Y-77317142D01*
X156870000Y-77364761D01*
X156965238Y-77412380D01*
X157155714Y-77412380D01*
X157250952Y-77364761D01*
X157298571Y-77317142D01*
X157346190Y-77221904D01*
X157346190Y-76412380D01*
X157774761Y-77364761D02*
X157917619Y-77412380D01*
X158155714Y-77412380D01*
X158250952Y-77364761D01*
X158298571Y-77317142D01*
X158346190Y-77221904D01*
X158346190Y-77126666D01*
X158298571Y-77031428D01*
X158250952Y-76983809D01*
X158155714Y-76936190D01*
X157965238Y-76888571D01*
X157870000Y-76840952D01*
X157822380Y-76793333D01*
X157774761Y-76698095D01*
X157774761Y-76602857D01*
X157822380Y-76507619D01*
X157870000Y-76460000D01*
X157965238Y-76412380D01*
X158203333Y-76412380D01*
X158346190Y-76460000D01*
X158774761Y-76888571D02*
X159108095Y-76888571D01*
X159250952Y-77412380D02*
X158774761Y-77412380D01*
X158774761Y-76412380D01*
X159250952Y-76412380D01*
X160631904Y-76412380D02*
X160822380Y-76412380D01*
X160917619Y-76460000D01*
X161012857Y-76555238D01*
X161060476Y-76745714D01*
X161060476Y-77079047D01*
X161012857Y-77269523D01*
X160917619Y-77364761D01*
X160822380Y-77412380D01*
X160631904Y-77412380D01*
X160536666Y-77364761D01*
X160441428Y-77269523D01*
X160393809Y-77079047D01*
X160393809Y-76745714D01*
X160441428Y-76555238D01*
X160536666Y-76460000D01*
X160631904Y-76412380D01*
X161489047Y-76412380D02*
X161489047Y-77221904D01*
X161536666Y-77317142D01*
X161584285Y-77364761D01*
X161679523Y-77412380D01*
X161870000Y-77412380D01*
X161965238Y-77364761D01*
X162012857Y-77317142D01*
X162060476Y-77221904D01*
X162060476Y-76412380D01*
X162393809Y-76412380D02*
X162965238Y-76412380D01*
X162679523Y-77412380D02*
X162679523Y-76412380D01*
X132917619Y-126864761D02*
X133060476Y-126912380D01*
X133298571Y-126912380D01*
X133393809Y-126864761D01*
X133441428Y-126817142D01*
X133489047Y-126721904D01*
X133489047Y-126626666D01*
X133441428Y-126531428D01*
X133393809Y-126483809D01*
X133298571Y-126436190D01*
X133108095Y-126388571D01*
X133012857Y-126340952D01*
X132965238Y-126293333D01*
X132917619Y-126198095D01*
X132917619Y-126102857D01*
X132965238Y-126007619D01*
X133012857Y-125960000D01*
X133108095Y-125912380D01*
X133346190Y-125912380D01*
X133489047Y-125960000D01*
X133917619Y-125912380D02*
X133917619Y-126721904D01*
X133965238Y-126817142D01*
X134012857Y-126864761D01*
X134108095Y-126912380D01*
X134298571Y-126912380D01*
X134393809Y-126864761D01*
X134441428Y-126817142D01*
X134489047Y-126721904D01*
X134489047Y-125912380D01*
X134965238Y-126912380D02*
X134965238Y-125912380D01*
X135346190Y-125912380D01*
X135441428Y-125960000D01*
X135489047Y-126007619D01*
X135536666Y-126102857D01*
X135536666Y-126245714D01*
X135489047Y-126340952D01*
X135441428Y-126388571D01*
X135346190Y-126436190D01*
X134965238Y-126436190D01*
X135965238Y-126912380D02*
X135965238Y-125912380D01*
X136346190Y-125912380D01*
X136441428Y-125960000D01*
X136489047Y-126007619D01*
X136536666Y-126102857D01*
X136536666Y-126245714D01*
X136489047Y-126340952D01*
X136441428Y-126388571D01*
X136346190Y-126436190D01*
X135965238Y-126436190D01*
X138250952Y-125960000D02*
X138155714Y-125912380D01*
X138012857Y-125912380D01*
X137870000Y-125960000D01*
X137774761Y-126055238D01*
X137727142Y-126150476D01*
X137679523Y-126340952D01*
X137679523Y-126483809D01*
X137727142Y-126674285D01*
X137774761Y-126769523D01*
X137870000Y-126864761D01*
X138012857Y-126912380D01*
X138108095Y-126912380D01*
X138250952Y-126864761D01*
X138298571Y-126817142D01*
X138298571Y-126483809D01*
X138108095Y-126483809D01*
X138679523Y-126626666D02*
X139155714Y-126626666D01*
X138584285Y-126912380D02*
X138917619Y-125912380D01*
X139250952Y-126912380D01*
X139441428Y-125912380D02*
X140012857Y-125912380D01*
X139727142Y-126912380D02*
X139727142Y-125912380D01*
X140346190Y-126388571D02*
X140679523Y-126388571D01*
X140822380Y-126912380D02*
X140346190Y-126912380D01*
X140346190Y-125912380D01*
X140822380Y-125912380D01*
X148465238Y-126912380D02*
X148465238Y-125912380D01*
X148703333Y-125912380D01*
X148846190Y-125960000D01*
X148941428Y-126055238D01*
X148989047Y-126150476D01*
X149036666Y-126340952D01*
X149036666Y-126483809D01*
X148989047Y-126674285D01*
X148941428Y-126769523D01*
X148846190Y-126864761D01*
X148703333Y-126912380D01*
X148465238Y-126912380D01*
X150036666Y-126817142D02*
X149989047Y-126864761D01*
X149846190Y-126912380D01*
X149750952Y-126912380D01*
X149608095Y-126864761D01*
X149512857Y-126769523D01*
X149465238Y-126674285D01*
X149417619Y-126483809D01*
X149417619Y-126340952D01*
X149465238Y-126150476D01*
X149512857Y-126055238D01*
X149608095Y-125960000D01*
X149750952Y-125912380D01*
X149846190Y-125912380D01*
X149989047Y-125960000D01*
X150036666Y-126007619D01*
X150465238Y-126912380D02*
X150465238Y-125912380D01*
X150703333Y-125912380D01*
X150846190Y-125960000D01*
X150941428Y-126055238D01*
X150989047Y-126150476D01*
X151036666Y-126340952D01*
X151036666Y-126483809D01*
X150989047Y-126674285D01*
X150941428Y-126769523D01*
X150846190Y-126864761D01*
X150703333Y-126912380D01*
X150465238Y-126912380D01*
X152036666Y-126817142D02*
X151989047Y-126864761D01*
X151846190Y-126912380D01*
X151750952Y-126912380D01*
X151608095Y-126864761D01*
X151512857Y-126769523D01*
X151465238Y-126674285D01*
X151417619Y-126483809D01*
X151417619Y-126340952D01*
X151465238Y-126150476D01*
X151512857Y-126055238D01*
X151608095Y-125960000D01*
X151750952Y-125912380D01*
X151846190Y-125912380D01*
X151989047Y-125960000D01*
X152036666Y-126007619D01*
X153750952Y-125960000D02*
X153655714Y-125912380D01*
X153512857Y-125912380D01*
X153370000Y-125960000D01*
X153274761Y-126055238D01*
X153227142Y-126150476D01*
X153179523Y-126340952D01*
X153179523Y-126483809D01*
X153227142Y-126674285D01*
X153274761Y-126769523D01*
X153370000Y-126864761D01*
X153512857Y-126912380D01*
X153608095Y-126912380D01*
X153750952Y-126864761D01*
X153798571Y-126817142D01*
X153798571Y-126483809D01*
X153608095Y-126483809D01*
X154179523Y-126626666D02*
X154655714Y-126626666D01*
X154084285Y-126912380D02*
X154417619Y-125912380D01*
X154750952Y-126912380D01*
X154941428Y-125912380D02*
X155512857Y-125912380D01*
X155227142Y-126912380D02*
X155227142Y-125912380D01*
X155846190Y-126388571D02*
X156179523Y-126388571D01*
X156322380Y-126912380D02*
X155846190Y-126912380D01*
X155846190Y-125912380D01*
X156322380Y-125912380D01*
D10*
X186112857Y-92047142D02*
X186112857Y-92547142D01*
X186898571Y-92547142D02*
X185398571Y-92547142D01*
X185398571Y-91832857D01*
X185398571Y-91261428D02*
X186612857Y-91261428D01*
X186755714Y-91190000D01*
X186827142Y-91118571D01*
X186898571Y-90975714D01*
X186898571Y-90690000D01*
X186827142Y-90547142D01*
X186755714Y-90475714D01*
X186612857Y-90404285D01*
X185398571Y-90404285D01*
X186827142Y-89761428D02*
X186898571Y-89547142D01*
X186898571Y-89190000D01*
X186827142Y-89047142D01*
X186755714Y-88975714D01*
X186612857Y-88904285D01*
X186470000Y-88904285D01*
X186327142Y-88975714D01*
X186255714Y-89047142D01*
X186184285Y-89190000D01*
X186112857Y-89475714D01*
X186041428Y-89618571D01*
X185970000Y-89690000D01*
X185827142Y-89761428D01*
X185684285Y-89761428D01*
X185541428Y-89690000D01*
X185470000Y-89618571D01*
X185398571Y-89475714D01*
X185398571Y-89118571D01*
X185470000Y-88904285D01*
X186112857Y-88261428D02*
X186112857Y-87761428D01*
X186898571Y-87547142D02*
X186898571Y-88261428D01*
X185398571Y-88261428D01*
X185398571Y-87547142D01*
X186898571Y-85761428D02*
X185398571Y-85761428D01*
X185398571Y-85190000D01*
X185470000Y-85047142D01*
X185541428Y-84975714D01*
X185684285Y-84904285D01*
X185898571Y-84904285D01*
X186041428Y-84975714D01*
X186112857Y-85047142D01*
X186184285Y-85190000D01*
X186184285Y-85761428D01*
X185398571Y-84404285D02*
X186898571Y-84047142D01*
X185827142Y-83761428D01*
X186898571Y-83475714D01*
X185398571Y-83118571D01*
X186898571Y-81690000D02*
X186184285Y-82190000D01*
X186898571Y-82547142D02*
X185398571Y-82547142D01*
X185398571Y-81975714D01*
X185470000Y-81832857D01*
X185541428Y-81761428D01*
X185684285Y-81690000D01*
X185898571Y-81690000D01*
X186041428Y-81761428D01*
X186112857Y-81832857D01*
X186184285Y-81975714D01*
X186184285Y-82547142D01*
X185398571Y-79618571D02*
X185398571Y-79332857D01*
X185470000Y-79190000D01*
X185612857Y-79047142D01*
X185898571Y-78975714D01*
X186398571Y-78975714D01*
X186684285Y-79047142D01*
X186827142Y-79190000D01*
X186898571Y-79332857D01*
X186898571Y-79618571D01*
X186827142Y-79761428D01*
X186684285Y-79904285D01*
X186398571Y-79975714D01*
X185898571Y-79975714D01*
X185612857Y-79904285D01*
X185470000Y-79761428D01*
X185398571Y-79618571D01*
X185398571Y-78332857D02*
X186612857Y-78332857D01*
X186755714Y-78261428D01*
X186827142Y-78190000D01*
X186898571Y-78047142D01*
X186898571Y-77761428D01*
X186827142Y-77618571D01*
X186755714Y-77547142D01*
X186612857Y-77475714D01*
X185398571Y-77475714D01*
X185398571Y-76975714D02*
X185398571Y-76118571D01*
X186898571Y-76547142D02*
X185398571Y-76547142D01*
D11*
X178108095Y-125660000D02*
X178012857Y-125612380D01*
X177870000Y-125612380D01*
X177727142Y-125660000D01*
X177631904Y-125755238D01*
X177584285Y-125850476D01*
X177536666Y-126040952D01*
X177536666Y-126183809D01*
X177584285Y-126374285D01*
X177631904Y-126469523D01*
X177727142Y-126564761D01*
X177870000Y-126612380D01*
X177965238Y-126612380D01*
X178108095Y-126564761D01*
X178155714Y-126517142D01*
X178155714Y-126183809D01*
X177965238Y-126183809D01*
X178584285Y-126612380D02*
X178584285Y-125612380D01*
X179155714Y-126612380D01*
X179155714Y-125612380D01*
X179631904Y-126612380D02*
X179631904Y-125612380D01*
X179870000Y-125612380D01*
X180012857Y-125660000D01*
X180108095Y-125755238D01*
X180155714Y-125850476D01*
X180203333Y-126040952D01*
X180203333Y-126183809D01*
X180155714Y-126374285D01*
X180108095Y-126469523D01*
X180012857Y-126564761D01*
X179870000Y-126612380D01*
X179631904Y-126612380D01*
X117908095Y-126864761D02*
X118050952Y-126912380D01*
X118289047Y-126912380D01*
X118384285Y-126864761D01*
X118431904Y-126817142D01*
X118479523Y-126721904D01*
X118479523Y-126626666D01*
X118431904Y-126531428D01*
X118384285Y-126483809D01*
X118289047Y-126436190D01*
X118098571Y-126388571D01*
X118003333Y-126340952D01*
X117955714Y-126293333D01*
X117908095Y-126198095D01*
X117908095Y-126102857D01*
X117955714Y-126007619D01*
X118003333Y-125960000D01*
X118098571Y-125912380D01*
X118336666Y-125912380D01*
X118479523Y-125960000D01*
X118908095Y-125912380D02*
X118908095Y-126721904D01*
X118955714Y-126817142D01*
X119003333Y-126864761D01*
X119098571Y-126912380D01*
X119289047Y-126912380D01*
X119384285Y-126864761D01*
X119431904Y-126817142D01*
X119479523Y-126721904D01*
X119479523Y-125912380D01*
X119955714Y-126912380D02*
X119955714Y-125912380D01*
X120336666Y-125912380D01*
X120431904Y-125960000D01*
X120479523Y-126007619D01*
X120527142Y-126102857D01*
X120527142Y-126245714D01*
X120479523Y-126340952D01*
X120431904Y-126388571D01*
X120336666Y-126436190D01*
X119955714Y-126436190D01*
X120955714Y-126912380D02*
X120955714Y-125912380D01*
X121336666Y-125912380D01*
X121431904Y-125960000D01*
X121479523Y-126007619D01*
X121527142Y-126102857D01*
X121527142Y-126245714D01*
X121479523Y-126340952D01*
X121431904Y-126388571D01*
X121336666Y-126436190D01*
X120955714Y-126436190D01*
X122717619Y-126912380D02*
X122717619Y-125912380D01*
X123098571Y-125912380D01*
X123193809Y-125960000D01*
X123241428Y-126007619D01*
X123289047Y-126102857D01*
X123289047Y-126245714D01*
X123241428Y-126340952D01*
X123193809Y-126388571D01*
X123098571Y-126436190D01*
X122717619Y-126436190D01*
X123622380Y-125912380D02*
X123860476Y-126912380D01*
X124050952Y-126198095D01*
X124241428Y-126912380D01*
X124479523Y-125912380D01*
X125431904Y-126912380D02*
X125098571Y-126436190D01*
X124860476Y-126912380D02*
X124860476Y-125912380D01*
X125241428Y-125912380D01*
X125336666Y-125960000D01*
X125384285Y-126007619D01*
X125431904Y-126102857D01*
X125431904Y-126245714D01*
X125384285Y-126340952D01*
X125336666Y-126388571D01*
X125241428Y-126436190D01*
X124860476Y-126436190D01*
X183062380Y-84278333D02*
X183776666Y-84278333D01*
X183919523Y-84325952D01*
X184014761Y-84421190D01*
X184062380Y-84564047D01*
X184062380Y-84659285D01*
X183062380Y-83325952D02*
X183062380Y-83802142D01*
X183538571Y-83849761D01*
X183490952Y-83802142D01*
X183443333Y-83706904D01*
X183443333Y-83468809D01*
X183490952Y-83373571D01*
X183538571Y-83325952D01*
X183633809Y-83278333D01*
X183871904Y-83278333D01*
X183967142Y-83325952D01*
X184014761Y-83373571D01*
X184062380Y-83468809D01*
X184062380Y-83706904D01*
X184014761Y-83802142D01*
X183967142Y-83849761D01*
X152265833Y-122762380D02*
X151932500Y-122286190D01*
X151694404Y-122762380D02*
X151694404Y-121762380D01*
X152075357Y-121762380D01*
X152170595Y-121810000D01*
X152218214Y-121857619D01*
X152265833Y-121952857D01*
X152265833Y-122095714D01*
X152218214Y-122190952D01*
X152170595Y-122238571D01*
X152075357Y-122286190D01*
X151694404Y-122286190D01*
X152599166Y-121762380D02*
X153265833Y-121762380D01*
X152837261Y-122762380D01*
X122565833Y-122762380D02*
X122232500Y-122286190D01*
X121994404Y-122762380D02*
X121994404Y-121762380D01*
X122375357Y-121762380D01*
X122470595Y-121810000D01*
X122518214Y-121857619D01*
X122565833Y-121952857D01*
X122565833Y-122095714D01*
X122518214Y-122190952D01*
X122470595Y-122238571D01*
X122375357Y-122286190D01*
X121994404Y-122286190D01*
X123518214Y-122762380D02*
X122946785Y-122762380D01*
X123232500Y-122762380D02*
X123232500Y-121762380D01*
X123137261Y-121905238D01*
X123042023Y-122000476D01*
X122946785Y-122048095D01*
X111392380Y-108563333D02*
X112106666Y-108563333D01*
X112249523Y-108610952D01*
X112344761Y-108706190D01*
X112392380Y-108849047D01*
X112392380Y-108944285D01*
X111487619Y-108134761D02*
X111440000Y-108087142D01*
X111392380Y-107991904D01*
X111392380Y-107753809D01*
X111440000Y-107658571D01*
X111487619Y-107610952D01*
X111582857Y-107563333D01*
X111678095Y-107563333D01*
X111820952Y-107610952D01*
X112392380Y-108182380D01*
X112392380Y-107563333D01*
X183022380Y-108553333D02*
X183736666Y-108553333D01*
X183879523Y-108600952D01*
X183974761Y-108696190D01*
X184022380Y-108839047D01*
X184022380Y-108934285D01*
X183355714Y-107648571D02*
X184022380Y-107648571D01*
X182974761Y-107886666D02*
X183689047Y-108124761D01*
X183689047Y-107505714D01*
X155718214Y-73762380D02*
X155718214Y-72762380D01*
X155956309Y-72762380D01*
X156099166Y-72810000D01*
X156194404Y-72905238D01*
X156242023Y-73000476D01*
X156289642Y-73190952D01*
X156289642Y-73333809D01*
X156242023Y-73524285D01*
X156194404Y-73619523D01*
X156099166Y-73714761D01*
X155956309Y-73762380D01*
X155718214Y-73762380D01*
X156670595Y-73714761D02*
X156813452Y-73762380D01*
X157051547Y-73762380D01*
X157146785Y-73714761D01*
X157194404Y-73667142D01*
X157242023Y-73571904D01*
X157242023Y-73476666D01*
X157194404Y-73381428D01*
X157146785Y-73333809D01*
X157051547Y-73286190D01*
X156861071Y-73238571D01*
X156765833Y-73190952D01*
X156718214Y-73143333D01*
X156670595Y-73048095D01*
X156670595Y-72952857D01*
X156718214Y-72857619D01*
X156765833Y-72810000D01*
X156861071Y-72762380D01*
X157099166Y-72762380D01*
X157242023Y-72810000D01*
X158146785Y-72762380D02*
X157670595Y-72762380D01*
X157622976Y-73238571D01*
X157670595Y-73190952D01*
X157765833Y-73143333D01*
X158003928Y-73143333D01*
X158099166Y-73190952D01*
X158146785Y-73238571D01*
X158194404Y-73333809D01*
X158194404Y-73571904D01*
X158146785Y-73667142D01*
X158099166Y-73714761D01*
X158003928Y-73762380D01*
X157765833Y-73762380D01*
X157670595Y-73714761D01*
X157622976Y-73667142D01*
X133703333Y-93762380D02*
X133370000Y-93286190D01*
X133131904Y-93762380D02*
X133131904Y-92762380D01*
X133512857Y-92762380D01*
X133608095Y-92810000D01*
X133655714Y-92857619D01*
X133703333Y-92952857D01*
X133703333Y-93095714D01*
X133655714Y-93190952D01*
X133608095Y-93238571D01*
X133512857Y-93286190D01*
X133131904Y-93286190D01*
X134084285Y-92857619D02*
X134131904Y-92810000D01*
X134227142Y-92762380D01*
X134465238Y-92762380D01*
X134560476Y-92810000D01*
X134608095Y-92857619D01*
X134655714Y-92952857D01*
X134655714Y-93048095D01*
X134608095Y-93190952D01*
X134036666Y-93762380D01*
X134655714Y-93762380D01*
X153298571Y-97333333D02*
X153298571Y-97666666D01*
X153822380Y-97666666D02*
X152822380Y-97666666D01*
X152822380Y-97190476D01*
X153822380Y-96285714D02*
X153822380Y-96857142D01*
X153822380Y-96571428D02*
X152822380Y-96571428D01*
X152965238Y-96666666D01*
X153060476Y-96761904D01*
X153108095Y-96857142D01*
X117518214Y-122762380D02*
X117518214Y-121762380D01*
X117756309Y-121762380D01*
X117899166Y-121810000D01*
X117994404Y-121905238D01*
X118042023Y-122000476D01*
X118089642Y-122190952D01*
X118089642Y-122333809D01*
X118042023Y-122524285D01*
X117994404Y-122619523D01*
X117899166Y-122714761D01*
X117756309Y-122762380D01*
X117518214Y-122762380D01*
X118470595Y-122714761D02*
X118613452Y-122762380D01*
X118851547Y-122762380D01*
X118946785Y-122714761D01*
X118994404Y-122667142D01*
X119042023Y-122571904D01*
X119042023Y-122476666D01*
X118994404Y-122381428D01*
X118946785Y-122333809D01*
X118851547Y-122286190D01*
X118661071Y-122238571D01*
X118565833Y-122190952D01*
X118518214Y-122143333D01*
X118470595Y-122048095D01*
X118470595Y-121952857D01*
X118518214Y-121857619D01*
X118565833Y-121810000D01*
X118661071Y-121762380D01*
X118899166Y-121762380D01*
X119042023Y-121810000D01*
X119994404Y-122762380D02*
X119422976Y-122762380D01*
X119708690Y-122762380D02*
X119708690Y-121762380D01*
X119613452Y-121905238D01*
X119518214Y-122000476D01*
X119422976Y-122048095D01*
X171260714Y-122596130D02*
X171260714Y-121596130D01*
X171498809Y-121596130D01*
X171641666Y-121643750D01*
X171736904Y-121738988D01*
X171784523Y-121834226D01*
X171832142Y-122024702D01*
X171832142Y-122167559D01*
X171784523Y-122358035D01*
X171736904Y-122453273D01*
X171641666Y-122548511D01*
X171498809Y-122596130D01*
X171260714Y-122596130D01*
X172213095Y-122548511D02*
X172355952Y-122596130D01*
X172594047Y-122596130D01*
X172689285Y-122548511D01*
X172736904Y-122500892D01*
X172784523Y-122405654D01*
X172784523Y-122310416D01*
X172736904Y-122215178D01*
X172689285Y-122167559D01*
X172594047Y-122119940D01*
X172403571Y-122072321D01*
X172308333Y-122024702D01*
X172260714Y-121977083D01*
X172213095Y-121881845D01*
X172213095Y-121786607D01*
X172260714Y-121691369D01*
X172308333Y-121643750D01*
X172403571Y-121596130D01*
X172641666Y-121596130D01*
X172784523Y-121643750D01*
X173165476Y-121691369D02*
X173213095Y-121643750D01*
X173308333Y-121596130D01*
X173546428Y-121596130D01*
X173641666Y-121643750D01*
X173689285Y-121691369D01*
X173736904Y-121786607D01*
X173736904Y-121881845D01*
X173689285Y-122024702D01*
X173117857Y-122596130D01*
X173736904Y-122596130D01*
D12*
X136430000Y-118485476D02*
X136309047Y-118425000D01*
X136188095Y-118304047D01*
X136006666Y-118122619D01*
X135885714Y-118062142D01*
X135764761Y-118062142D01*
X135825238Y-118364523D02*
X135704285Y-118304047D01*
X135583333Y-118183095D01*
X135522857Y-117941190D01*
X135522857Y-117517857D01*
X135583333Y-117275952D01*
X135704285Y-117155000D01*
X135825238Y-117094523D01*
X136067142Y-117094523D01*
X136188095Y-117155000D01*
X136309047Y-117275952D01*
X136369523Y-117517857D01*
X136369523Y-117941190D01*
X136309047Y-118183095D01*
X136188095Y-118304047D01*
X136067142Y-118364523D01*
X135825238Y-118364523D01*
X137579047Y-118364523D02*
X136853333Y-118364523D01*
X137216190Y-118364523D02*
X137216190Y-117094523D01*
X137095238Y-117275952D01*
X136974285Y-117396904D01*
X136853333Y-117457380D01*
X138062857Y-118001666D02*
X138667619Y-118001666D01*
X137941904Y-118364523D02*
X138365238Y-117094523D01*
X138788571Y-118364523D01*
X139877142Y-118364523D02*
X139151428Y-118364523D01*
X139514285Y-118364523D02*
X139514285Y-117094523D01*
X139393333Y-117275952D01*
X139272380Y-117396904D01*
X139151428Y-117457380D01*
D11*
X138166666Y-71782380D02*
X138166666Y-72496666D01*
X138119047Y-72639523D01*
X138023809Y-72734761D01*
X137880952Y-72782380D01*
X137785714Y-72782380D01*
X139166666Y-72782380D02*
X138595238Y-72782380D01*
X138880952Y-72782380D02*
X138880952Y-71782380D01*
X138785714Y-71925238D01*
X138690476Y-72020476D01*
X138595238Y-72068095D01*
X155218214Y-122762380D02*
X155218214Y-121762380D01*
X155456309Y-121762380D01*
X155599166Y-121810000D01*
X155694404Y-121905238D01*
X155742023Y-122000476D01*
X155789642Y-122190952D01*
X155789642Y-122333809D01*
X155742023Y-122524285D01*
X155694404Y-122619523D01*
X155599166Y-122714761D01*
X155456309Y-122762380D01*
X155218214Y-122762380D01*
X156170595Y-122714761D02*
X156313452Y-122762380D01*
X156551547Y-122762380D01*
X156646785Y-122714761D01*
X156694404Y-122667142D01*
X156742023Y-122571904D01*
X156742023Y-122476666D01*
X156694404Y-122381428D01*
X156646785Y-122333809D01*
X156551547Y-122286190D01*
X156361071Y-122238571D01*
X156265833Y-122190952D01*
X156218214Y-122143333D01*
X156170595Y-122048095D01*
X156170595Y-121952857D01*
X156218214Y-121857619D01*
X156265833Y-121810000D01*
X156361071Y-121762380D01*
X156599166Y-121762380D01*
X156742023Y-121810000D01*
X157599166Y-122095714D02*
X157599166Y-122762380D01*
X157361071Y-121714761D02*
X157122976Y-122429047D01*
X157742023Y-122429047D01*
D12*
X158689285Y-110965476D02*
X158568333Y-110905000D01*
X158447380Y-110784047D01*
X158265952Y-110602619D01*
X158145000Y-110542142D01*
X158024047Y-110542142D01*
X158084523Y-110844523D02*
X157963571Y-110784047D01*
X157842619Y-110663095D01*
X157782142Y-110421190D01*
X157782142Y-109997857D01*
X157842619Y-109755952D01*
X157963571Y-109635000D01*
X158084523Y-109574523D01*
X158326428Y-109574523D01*
X158447380Y-109635000D01*
X158568333Y-109755952D01*
X158628809Y-109997857D01*
X158628809Y-110421190D01*
X158568333Y-110663095D01*
X158447380Y-110784047D01*
X158326428Y-110844523D01*
X158084523Y-110844523D01*
X159112619Y-109695476D02*
X159173095Y-109635000D01*
X159294047Y-109574523D01*
X159596428Y-109574523D01*
X159717380Y-109635000D01*
X159777857Y-109695476D01*
X159838333Y-109816428D01*
X159838333Y-109937380D01*
X159777857Y-110118809D01*
X159052142Y-110844523D01*
X159838333Y-110844523D01*
X160805952Y-110179285D02*
X160987380Y-110239761D01*
X161047857Y-110300238D01*
X161108333Y-110421190D01*
X161108333Y-110602619D01*
X161047857Y-110723571D01*
X160987380Y-110784047D01*
X160866428Y-110844523D01*
X160382619Y-110844523D01*
X160382619Y-109574523D01*
X160805952Y-109574523D01*
X160926904Y-109635000D01*
X160987380Y-109695476D01*
X161047857Y-109816428D01*
X161047857Y-109937380D01*
X160987380Y-110058333D01*
X160926904Y-110118809D01*
X160805952Y-110179285D01*
X160382619Y-110179285D01*
X162317857Y-110844523D02*
X161592142Y-110844523D01*
X161955000Y-110844523D02*
X161955000Y-109574523D01*
X161834047Y-109755952D01*
X161713095Y-109876904D01*
X161592142Y-109937380D01*
D11*
X131905714Y-122762380D02*
X131905714Y-121762380D01*
X132143809Y-121762380D01*
X132286666Y-121810000D01*
X132381904Y-121905238D01*
X132429523Y-122000476D01*
X132477142Y-122190952D01*
X132477142Y-122333809D01*
X132429523Y-122524285D01*
X132381904Y-122619523D01*
X132286666Y-122714761D01*
X132143809Y-122762380D01*
X131905714Y-122762380D01*
X132858095Y-122714761D02*
X133000952Y-122762380D01*
X133239047Y-122762380D01*
X133334285Y-122714761D01*
X133381904Y-122667142D01*
X133429523Y-122571904D01*
X133429523Y-122476666D01*
X133381904Y-122381428D01*
X133334285Y-122333809D01*
X133239047Y-122286190D01*
X133048571Y-122238571D01*
X132953333Y-122190952D01*
X132905714Y-122143333D01*
X132858095Y-122048095D01*
X132858095Y-121952857D01*
X132905714Y-121857619D01*
X132953333Y-121810000D01*
X133048571Y-121762380D01*
X133286666Y-121762380D01*
X133429523Y-121810000D01*
X133762857Y-121762380D02*
X134381904Y-121762380D01*
X134048571Y-122143333D01*
X134191428Y-122143333D01*
X134286666Y-122190952D01*
X134334285Y-122238571D01*
X134381904Y-122333809D01*
X134381904Y-122571904D01*
X134334285Y-122667142D01*
X134286666Y-122714761D01*
X134191428Y-122762380D01*
X133905714Y-122762380D01*
X133810476Y-122714761D01*
X133762857Y-122667142D01*
X136903333Y-122762380D02*
X136570000Y-122286190D01*
X136331904Y-122762380D02*
X136331904Y-121762380D01*
X136712857Y-121762380D01*
X136808095Y-121810000D01*
X136855714Y-121857619D01*
X136903333Y-121952857D01*
X136903333Y-122095714D01*
X136855714Y-122190952D01*
X136808095Y-122238571D01*
X136712857Y-122286190D01*
X136331904Y-122286190D01*
X137760476Y-121762380D02*
X137570000Y-121762380D01*
X137474761Y-121810000D01*
X137427142Y-121857619D01*
X137331904Y-122000476D01*
X137284285Y-122190952D01*
X137284285Y-122571904D01*
X137331904Y-122667142D01*
X137379523Y-122714761D01*
X137474761Y-122762380D01*
X137665238Y-122762380D01*
X137760476Y-122714761D01*
X137808095Y-122667142D01*
X137855714Y-122571904D01*
X137855714Y-122333809D01*
X137808095Y-122238571D01*
X137760476Y-122190952D01*
X137665238Y-122143333D01*
X137474761Y-122143333D01*
X137379523Y-122190952D01*
X137331904Y-122238571D01*
X137284285Y-122333809D01*
X163857142Y-82666666D02*
X163904761Y-82714285D01*
X163952380Y-82857142D01*
X163952380Y-82952380D01*
X163904761Y-83095238D01*
X163809523Y-83190476D01*
X163714285Y-83238095D01*
X163523809Y-83285714D01*
X163380952Y-83285714D01*
X163190476Y-83238095D01*
X163095238Y-83190476D01*
X163000000Y-83095238D01*
X162952380Y-82952380D01*
X162952380Y-82857142D01*
X163000000Y-82714285D01*
X163047619Y-82666666D01*
X163952380Y-81714285D02*
X163952380Y-82285714D01*
X163952380Y-82000000D02*
X162952380Y-82000000D01*
X163095238Y-82095238D01*
X163190476Y-82190476D01*
X163238095Y-82285714D01*
X167452380Y-109254166D02*
X166976190Y-109587500D01*
X167452380Y-109825595D02*
X166452380Y-109825595D01*
X166452380Y-109444642D01*
X166500000Y-109349404D01*
X166547619Y-109301785D01*
X166642857Y-109254166D01*
X166785714Y-109254166D01*
X166880952Y-109301785D01*
X166928571Y-109349404D01*
X166976190Y-109444642D01*
X166976190Y-109825595D01*
X166452380Y-108349404D02*
X166452380Y-108825595D01*
X166928571Y-108873214D01*
X166880952Y-108825595D01*
X166833333Y-108730357D01*
X166833333Y-108492261D01*
X166880952Y-108397023D01*
X166928571Y-108349404D01*
X167023809Y-108301785D01*
X167261904Y-108301785D01*
X167357142Y-108349404D01*
X167404761Y-108397023D01*
X167452380Y-108492261D01*
X167452380Y-108730357D01*
X167404761Y-108825595D01*
X167357142Y-108873214D01*
X111432380Y-84543333D02*
X112146666Y-84543333D01*
X112289523Y-84590952D01*
X112384761Y-84686190D01*
X112432380Y-84829047D01*
X112432380Y-84924285D01*
X111432380Y-84162380D02*
X111432380Y-83543333D01*
X111813333Y-83876666D01*
X111813333Y-83733809D01*
X111860952Y-83638571D01*
X111908571Y-83590952D01*
X112003809Y-83543333D01*
X112241904Y-83543333D01*
X112337142Y-83590952D01*
X112384761Y-83638571D01*
X112432380Y-83733809D01*
X112432380Y-84019523D01*
X112384761Y-84114761D01*
X112337142Y-84162380D01*
X161265833Y-73762380D02*
X160932500Y-73286190D01*
X160694404Y-73762380D02*
X160694404Y-72762380D01*
X161075357Y-72762380D01*
X161170595Y-72810000D01*
X161218214Y-72857619D01*
X161265833Y-72952857D01*
X161265833Y-73095714D01*
X161218214Y-73190952D01*
X161170595Y-73238571D01*
X161075357Y-73286190D01*
X160694404Y-73286190D01*
X161837261Y-73190952D02*
X161742023Y-73143333D01*
X161694404Y-73095714D01*
X161646785Y-73000476D01*
X161646785Y-72952857D01*
X161694404Y-72857619D01*
X161742023Y-72810000D01*
X161837261Y-72762380D01*
X162027738Y-72762380D01*
X162122976Y-72810000D01*
X162170595Y-72857619D01*
X162218214Y-72952857D01*
X162218214Y-73000476D01*
X162170595Y-73095714D01*
X162122976Y-73143333D01*
X162027738Y-73190952D01*
X161837261Y-73190952D01*
X161742023Y-73238571D01*
X161694404Y-73286190D01*
X161646785Y-73381428D01*
X161646785Y-73571904D01*
X161694404Y-73667142D01*
X161742023Y-73714761D01*
X161837261Y-73762380D01*
X162027738Y-73762380D01*
X162122976Y-73714761D01*
X162170595Y-73667142D01*
X162218214Y-73571904D01*
X162218214Y-73381428D01*
X162170595Y-73286190D01*
X162122976Y-73238571D01*
X162027738Y-73190952D01*
X167965833Y-122596130D02*
X167632500Y-122119940D01*
X167394404Y-122596130D02*
X167394404Y-121596130D01*
X167775357Y-121596130D01*
X167870595Y-121643750D01*
X167918214Y-121691369D01*
X167965833Y-121786607D01*
X167965833Y-121929464D01*
X167918214Y-122024702D01*
X167870595Y-122072321D01*
X167775357Y-122119940D01*
X167394404Y-122119940D01*
X168822976Y-121929464D02*
X168822976Y-122596130D01*
X168584880Y-121548511D02*
X168346785Y-122262797D01*
X168965833Y-122262797D01*
D12*
X135362380Y-102039523D02*
X135362380Y-103067619D01*
X135422857Y-103188571D01*
X135483333Y-103249047D01*
X135604285Y-103309523D01*
X135846190Y-103309523D01*
X135967142Y-103249047D01*
X136027619Y-103188571D01*
X136088095Y-103067619D01*
X136088095Y-102039523D01*
X137358095Y-103309523D02*
X136632380Y-103309523D01*
X136995238Y-103309523D02*
X136995238Y-102039523D01*
X136874285Y-102220952D01*
X136753333Y-102341904D01*
X136632380Y-102402380D01*
D11*
X138203333Y-93762380D02*
X137870000Y-93286190D01*
X137631904Y-93762380D02*
X137631904Y-92762380D01*
X138012857Y-92762380D01*
X138108095Y-92810000D01*
X138155714Y-92857619D01*
X138203333Y-92952857D01*
X138203333Y-93095714D01*
X138155714Y-93190952D01*
X138108095Y-93238571D01*
X138012857Y-93286190D01*
X137631904Y-93286190D01*
X138536666Y-92762380D02*
X139155714Y-92762380D01*
X138822380Y-93143333D01*
X138965238Y-93143333D01*
X139060476Y-93190952D01*
X139108095Y-93238571D01*
X139155714Y-93333809D01*
X139155714Y-93571904D01*
X139108095Y-93667142D01*
X139060476Y-93714761D01*
X138965238Y-93762380D01*
X138679523Y-93762380D01*
X138584285Y-93714761D01*
X138536666Y-93667142D01*
D13*
X182520000Y-82305000D02*
X182520000Y-85575000D01*
X168920000Y-73295000D02*
X168920000Y-94585000D01*
X180670000Y-82305000D02*
X182520000Y-82305000D01*
X180670000Y-94585000D02*
X180670000Y-73295000D01*
X182520000Y-85575000D02*
X180670000Y-85575000D01*
X168920000Y-94585000D02*
X180670000Y-94585000D01*
X181535685Y-80595000D02*
X181535685Y-79795000D01*
X180670000Y-73295000D02*
X168920000Y-73295000D01*
X181535685Y-79795000D02*
X180970000Y-80195000D01*
X180970000Y-80195000D02*
X181535685Y-80595000D01*
X152205436Y-123225000D02*
X152659564Y-123225000D01*
X152205436Y-124695000D02*
X152659564Y-124695000D01*
X122959564Y-123225000D02*
X122505436Y-123225000D01*
X122959564Y-124695000D02*
X122505436Y-124695000D01*
X113030000Y-109870000D02*
X113030000Y-106600000D01*
X114014315Y-111580000D02*
X114014315Y-112380000D01*
X114580000Y-111980000D02*
X114014315Y-111580000D01*
X113030000Y-106600000D02*
X114880000Y-106600000D01*
X114014315Y-112380000D02*
X114580000Y-111980000D01*
X114880000Y-118880000D02*
X126630000Y-118880000D01*
X114880000Y-97590000D02*
X114880000Y-118880000D01*
X126630000Y-118880000D02*
X126630000Y-97590000D01*
X126630000Y-97590000D02*
X114880000Y-97590000D01*
X114880000Y-109870000D02*
X113030000Y-109870000D01*
X180630000Y-97570000D02*
X168880000Y-97570000D01*
X168880000Y-118860000D02*
X180630000Y-118860000D01*
X180930000Y-104470000D02*
X181495685Y-104870000D01*
X181495685Y-104870000D02*
X181495685Y-104070000D01*
X182480000Y-106580000D02*
X182480000Y-109850000D01*
X180630000Y-106580000D02*
X182480000Y-106580000D01*
X180630000Y-118860000D02*
X180630000Y-97570000D01*
X182480000Y-109850000D02*
X180630000Y-109850000D01*
X168880000Y-97570000D02*
X168880000Y-118860000D01*
X181495685Y-104070000D02*
X180930000Y-104470000D01*
X155247500Y-74000000D02*
X155247500Y-75920000D01*
X155247500Y-75920000D02*
X157932500Y-75920000D01*
X157932500Y-74000000D02*
X155247500Y-74000000D01*
X146895000Y-125160000D02*
X146895000Y-122760000D01*
X149295000Y-125160000D02*
X146895000Y-125160000D01*
X149295000Y-122760000D02*
X149295000Y-125160000D01*
X146895000Y-122760000D02*
X149295000Y-122760000D01*
X133642936Y-95695000D02*
X134097064Y-95695000D01*
X133642936Y-94225000D02*
X134097064Y-94225000D01*
X145530000Y-105100000D02*
X152470000Y-105100000D01*
X152470000Y-105100000D02*
X152470000Y-88900000D01*
X151000000Y-95400000D02*
X151000000Y-98600000D01*
X145530000Y-88900000D02*
X145530000Y-105100000D01*
X149000000Y-96250000D02*
X149000000Y-97750000D01*
X147000000Y-98600000D02*
X147000000Y-95400000D01*
X152470000Y-88900000D02*
X145530000Y-88900000D01*
X117047500Y-124920000D02*
X119732500Y-124920000D01*
X119732500Y-123000000D02*
X117047500Y-123000000D01*
X117047500Y-123000000D02*
X117047500Y-124920000D01*
X171132500Y-124981250D02*
X173817500Y-124981250D01*
X173817500Y-123061250D02*
X171132500Y-123061250D01*
X173817500Y-124981250D02*
X173817500Y-123061250D01*
D14*
X133075000Y-111910000D02*
X133075000Y-116560000D01*
X143585000Y-116560000D02*
X143585000Y-113640000D01*
X133075000Y-116560000D02*
X143585000Y-116560000D01*
D13*
X133565000Y-78010000D02*
X143435000Y-78010000D01*
X135005000Y-73420000D02*
X134985000Y-73420000D01*
X133565000Y-74935000D02*
X133565000Y-78010000D01*
X134985000Y-73420000D02*
X134985000Y-73920000D01*
X134985000Y-73920000D02*
X142015000Y-73920000D01*
X142015000Y-73920000D02*
X142015000Y-73420000D01*
X142015000Y-73420000D02*
X141995000Y-73420000D01*
X143435000Y-78010000D02*
X143435000Y-74935000D01*
X177670000Y-122760000D02*
X180070000Y-122760000D01*
X180070000Y-122760000D02*
X180070000Y-125160000D01*
X180070000Y-125160000D02*
X177670000Y-125160000D01*
X177670000Y-125160000D02*
X177670000Y-122760000D01*
X128070000Y-125160000D02*
X125670000Y-125160000D01*
X125670000Y-125160000D02*
X125670000Y-122760000D01*
X128070000Y-122760000D02*
X128070000Y-125160000D01*
X125670000Y-122760000D02*
X128070000Y-122760000D01*
X158117500Y-124920000D02*
X158117500Y-123000000D01*
X158117500Y-123000000D02*
X155432500Y-123000000D01*
X155432500Y-124920000D02*
X158117500Y-124920000D01*
X164670000Y-76160000D02*
X164670000Y-73760000D01*
X167070000Y-73760000D02*
X167070000Y-76160000D01*
X164670000Y-73760000D02*
X167070000Y-73760000D01*
X167070000Y-76160000D02*
X164670000Y-76160000D01*
D14*
X154425000Y-111390000D02*
X154425000Y-114310000D01*
X164935000Y-111390000D02*
X154425000Y-111390000D01*
X164935000Y-116040000D02*
X164935000Y-111390000D01*
D13*
X131435000Y-123000000D02*
X131435000Y-124920000D01*
X131435000Y-124920000D02*
X134120000Y-124920000D01*
X134120000Y-123000000D02*
X131435000Y-123000000D01*
G36*
X131578617Y-88069315D02*
G01*
X131595314Y-88148167D01*
X131571556Y-88362794D01*
X131516406Y-88622471D01*
X131447108Y-88860123D01*
X131380907Y-89008676D01*
X131371082Y-89020361D01*
X131181009Y-89115001D01*
X130932331Y-89143677D01*
X130729500Y-89095932D01*
X130630859Y-88960585D01*
X130580401Y-88736812D01*
X130575347Y-88476811D01*
X130612919Y-88232782D01*
X130690335Y-88056923D01*
X130787858Y-88000000D01*
X130847526Y-88058109D01*
X130864710Y-88246093D01*
X130852373Y-88473009D01*
X130834174Y-88740789D01*
X130846265Y-88878448D01*
X130902683Y-88924415D01*
X131014740Y-88917509D01*
X131138993Y-88875283D01*
X131217221Y-88763762D01*
X131274798Y-88539613D01*
X131291741Y-88444500D01*
X131361395Y-88158155D01*
X131445765Y-88013690D01*
X131482241Y-88000000D01*
X131578617Y-88069315D01*
G37*
D15*
X131578617Y-88069315D02*
X131595314Y-88148167D01*
X131571556Y-88362794D01*
X131516406Y-88622471D01*
X131447108Y-88860123D01*
X131380907Y-89008676D01*
X131371082Y-89020361D01*
X131181009Y-89115001D01*
X130932331Y-89143677D01*
X130729500Y-89095932D01*
X130630859Y-88960585D01*
X130580401Y-88736812D01*
X130575347Y-88476811D01*
X130612919Y-88232782D01*
X130690335Y-88056923D01*
X130787858Y-88000000D01*
X130847526Y-88058109D01*
X130864710Y-88246093D01*
X130852373Y-88473009D01*
X130834174Y-88740789D01*
X130846265Y-88878448D01*
X130902683Y-88924415D01*
X131014740Y-88917509D01*
X131138993Y-88875283D01*
X131217221Y-88763762D01*
X131274798Y-88539613D01*
X131291741Y-88444500D01*
X131361395Y-88158155D01*
X131445765Y-88013690D01*
X131482241Y-88000000D01*
X131578617Y-88069315D01*
G36*
X135003943Y-86755662D02*
G01*
X136618301Y-86809837D01*
X138386221Y-86895813D01*
X140306529Y-87013673D01*
X140572000Y-87031663D01*
X141224946Y-87077680D01*
X141915556Y-87128602D01*
X142593333Y-87180553D01*
X143207778Y-87229655D01*
X143708393Y-87272030D01*
X143747000Y-87275458D01*
X145017000Y-87388801D01*
X143112000Y-87334567D01*
X142295080Y-87314732D01*
X141409053Y-87299324D01*
X140473882Y-87288234D01*
X139509527Y-87281357D01*
X138535950Y-87278585D01*
X137573113Y-87279811D01*
X136640978Y-87284927D01*
X135759507Y-87293828D01*
X134948660Y-87306404D01*
X134228401Y-87322551D01*
X133618690Y-87342159D01*
X133139489Y-87365123D01*
X132825000Y-87389767D01*
X131850440Y-87509425D01*
X131037746Y-87642204D01*
X130379780Y-87790644D01*
X129869406Y-87957283D01*
X129499487Y-88144661D01*
X129262886Y-88355318D01*
X129152467Y-88591793D01*
X129142000Y-88700189D01*
X129191925Y-88942824D01*
X129312500Y-89186887D01*
X129317099Y-89193430D01*
X129415263Y-89345554D01*
X129425725Y-89413634D01*
X129335276Y-89395003D01*
X129130705Y-89286997D01*
X128803334Y-89089745D01*
X128374626Y-88799938D01*
X128010792Y-88505182D01*
X127738285Y-88229932D01*
X127583559Y-87998643D01*
X127564892Y-87944878D01*
X127578979Y-87685570D01*
X127758382Y-87457240D01*
X128101926Y-87259968D01*
X128608435Y-87093839D01*
X129276734Y-86958934D01*
X130105647Y-86855336D01*
X131094000Y-86783127D01*
X132240618Y-86742390D01*
X133544323Y-86733208D01*
X135003943Y-86755662D01*
G37*
X135003943Y-86755662D02*
X136618301Y-86809837D01*
X138386221Y-86895813D01*
X140306529Y-87013673D01*
X140572000Y-87031663D01*
X141224946Y-87077680D01*
X141915556Y-87128602D01*
X142593333Y-87180553D01*
X143207778Y-87229655D01*
X143708393Y-87272030D01*
X143747000Y-87275458D01*
X145017000Y-87388801D01*
X143112000Y-87334567D01*
X142295080Y-87314732D01*
X141409053Y-87299324D01*
X140473882Y-87288234D01*
X139509527Y-87281357D01*
X138535950Y-87278585D01*
X137573113Y-87279811D01*
X136640978Y-87284927D01*
X135759507Y-87293828D01*
X134948660Y-87306404D01*
X134228401Y-87322551D01*
X133618690Y-87342159D01*
X133139489Y-87365123D01*
X132825000Y-87389767D01*
X131850440Y-87509425D01*
X131037746Y-87642204D01*
X130379780Y-87790644D01*
X129869406Y-87957283D01*
X129499487Y-88144661D01*
X129262886Y-88355318D01*
X129152467Y-88591793D01*
X129142000Y-88700189D01*
X129191925Y-88942824D01*
X129312500Y-89186887D01*
X129317099Y-89193430D01*
X129415263Y-89345554D01*
X129425725Y-89413634D01*
X129335276Y-89395003D01*
X129130705Y-89286997D01*
X128803334Y-89089745D01*
X128374626Y-88799938D01*
X128010792Y-88505182D01*
X127738285Y-88229932D01*
X127583559Y-87998643D01*
X127564892Y-87944878D01*
X127578979Y-87685570D01*
X127758382Y-87457240D01*
X128101926Y-87259968D01*
X128608435Y-87093839D01*
X129276734Y-86958934D01*
X130105647Y-86855336D01*
X131094000Y-86783127D01*
X132240618Y-86742390D01*
X133544323Y-86733208D01*
X135003943Y-86755662D01*
G36*
X139275022Y-84617039D02*
G01*
X139582668Y-84699318D01*
X140209242Y-84973482D01*
X140813510Y-85393275D01*
X141362345Y-85935341D01*
X141401770Y-85981975D01*
X141614432Y-86247321D01*
X141784812Y-86479225D01*
X141892543Y-86647853D01*
X141917260Y-86723370D01*
X141908479Y-86724302D01*
X141837298Y-86670987D01*
X141668916Y-86534039D01*
X141435169Y-86339479D01*
X141349559Y-86267442D01*
X140637133Y-85738873D01*
X139919895Y-85358433D01*
X139183426Y-85124838D01*
X138413309Y-85036807D01*
X137595127Y-85093057D01*
X136714463Y-85292308D01*
X135756897Y-85633276D01*
X135490314Y-85746400D01*
X135121517Y-85901373D01*
X134896415Y-85982557D01*
X134808855Y-85995023D01*
X134852683Y-85943842D01*
X135021746Y-85834085D01*
X135309890Y-85670824D01*
X135710962Y-85459130D01*
X136042334Y-85291458D01*
X136821464Y-84934603D01*
X137507658Y-84693189D01*
X138127555Y-84562760D01*
X138707797Y-84538863D01*
X139275022Y-84617039D01*
G37*
X139275022Y-84617039D02*
X139582668Y-84699318D01*
X140209242Y-84973482D01*
X140813510Y-85393275D01*
X141362345Y-85935341D01*
X141401770Y-85981975D01*
X141614432Y-86247321D01*
X141784812Y-86479225D01*
X141892543Y-86647853D01*
X141917260Y-86723370D01*
X141908479Y-86724302D01*
X141837298Y-86670987D01*
X141668916Y-86534039D01*
X141435169Y-86339479D01*
X141349559Y-86267442D01*
X140637133Y-85738873D01*
X139919895Y-85358433D01*
X139183426Y-85124838D01*
X138413309Y-85036807D01*
X137595127Y-85093057D01*
X136714463Y-85292308D01*
X135756897Y-85633276D01*
X135490314Y-85746400D01*
X135121517Y-85901373D01*
X134896415Y-85982557D01*
X134808855Y-85995023D01*
X134852683Y-85943842D01*
X135021746Y-85834085D01*
X135309890Y-85670824D01*
X135710962Y-85459130D01*
X136042334Y-85291458D01*
X136821464Y-84934603D01*
X137507658Y-84693189D01*
X138127555Y-84562760D01*
X138707797Y-84538863D01*
X139275022Y-84617039D01*
G36*
X133417135Y-88043696D02*
G01*
X133438412Y-88105834D01*
X133335971Y-88188619D01*
X133206000Y-88211667D01*
X133023919Y-88251982D01*
X132989271Y-88348427D01*
X133107901Y-88464247D01*
X133161474Y-88491596D01*
X133335609Y-88639319D01*
X133360343Y-88828490D01*
X133233769Y-89017372D01*
X133187161Y-89053533D01*
X132976083Y-89167544D01*
X132804919Y-89159270D01*
X132708320Y-89108836D01*
X132627683Y-89007447D01*
X132682926Y-88927410D01*
X132840992Y-88901665D01*
X132907646Y-88910225D01*
X133075718Y-88900631D01*
X133121882Y-88815169D01*
X133042230Y-88699420D01*
X132931328Y-88633910D01*
X132755049Y-88484940D01*
X132712433Y-88284311D01*
X132786042Y-88122933D01*
X132914838Y-88044772D01*
X133101927Y-88004491D01*
X133288847Y-88003621D01*
X133417135Y-88043696D01*
G37*
X133417135Y-88043696D02*
X133438412Y-88105834D01*
X133335971Y-88188619D01*
X133206000Y-88211667D01*
X133023919Y-88251982D01*
X132989271Y-88348427D01*
X133107901Y-88464247D01*
X133161474Y-88491596D01*
X133335609Y-88639319D01*
X133360343Y-88828490D01*
X133233769Y-89017372D01*
X133187161Y-89053533D01*
X132976083Y-89167544D01*
X132804919Y-89159270D01*
X132708320Y-89108836D01*
X132627683Y-89007447D01*
X132682926Y-88927410D01*
X132840992Y-88901665D01*
X132907646Y-88910225D01*
X133075718Y-88900631D01*
X133121882Y-88815169D01*
X133042230Y-88699420D01*
X132931328Y-88633910D01*
X132755049Y-88484940D01*
X132712433Y-88284311D01*
X132786042Y-88122933D01*
X132914838Y-88044772D01*
X133101927Y-88004491D01*
X133288847Y-88003621D01*
X133417135Y-88043696D01*
G36*
X135388000Y-88008171D02*
G01*
X135578544Y-88035224D01*
X135642975Y-88084973D01*
X135640591Y-88105834D01*
X135537889Y-88201847D01*
X135421868Y-88238722D01*
X135278364Y-88310816D01*
X135236844Y-88492722D01*
X135207513Y-88807587D01*
X135131073Y-89021292D01*
X135019432Y-89100663D01*
X135018575Y-89100667D01*
X134958213Y-89075620D01*
X134936959Y-88980418D01*
X134955037Y-88784973D01*
X135012673Y-88459193D01*
X135023775Y-88402167D01*
X134991544Y-88277742D01*
X134898463Y-88254000D01*
X134752358Y-88208815D01*
X134712284Y-88158517D01*
X134661169Y-88178527D01*
X134556145Y-88320276D01*
X134418902Y-88553984D01*
X134403930Y-88581851D01*
X134250318Y-88840806D01*
X134110268Y-89026760D01*
X134013380Y-89100593D01*
X134011376Y-89100667D01*
X133921830Y-89023915D01*
X133821428Y-88819296D01*
X133762341Y-88643136D01*
X133673659Y-88320851D01*
X133638360Y-88127502D01*
X133656067Y-88031449D01*
X133726406Y-88001054D01*
X133754720Y-88000000D01*
X133861642Y-88072943D01*
X133931125Y-88232834D01*
X133997921Y-88502998D01*
X134057097Y-88614036D01*
X134128480Y-88573914D01*
X134231897Y-88390599D01*
X134247167Y-88359834D01*
X134424694Y-88000000D01*
X135050069Y-88000000D01*
X135388000Y-88008171D01*
G37*
X135388000Y-88008171D02*
X135578544Y-88035224D01*
X135642975Y-88084973D01*
X135640591Y-88105834D01*
X135537889Y-88201847D01*
X135421868Y-88238722D01*
X135278364Y-88310816D01*
X135236844Y-88492722D01*
X135207513Y-88807587D01*
X135131073Y-89021292D01*
X135019432Y-89100663D01*
X135018575Y-89100667D01*
X134958213Y-89075620D01*
X134936959Y-88980418D01*
X134955037Y-88784973D01*
X135012673Y-88459193D01*
X135023775Y-88402167D01*
X134991544Y-88277742D01*
X134898463Y-88254000D01*
X134752358Y-88208815D01*
X134712284Y-88158517D01*
X134661169Y-88178527D01*
X134556145Y-88320276D01*
X134418902Y-88553984D01*
X134403930Y-88581851D01*
X134250318Y-88840806D01*
X134110268Y-89026760D01*
X134013380Y-89100593D01*
X134011376Y-89100667D01*
X133921830Y-89023915D01*
X133821428Y-88819296D01*
X133762341Y-88643136D01*
X133673659Y-88320851D01*
X133638360Y-88127502D01*
X133656067Y-88031449D01*
X133726406Y-88001054D01*
X133754720Y-88000000D01*
X133861642Y-88072943D01*
X133931125Y-88232834D01*
X133997921Y-88502998D01*
X134057097Y-88614036D01*
X134128480Y-88573914D01*
X134231897Y-88390599D01*
X134247167Y-88359834D01*
X134424694Y-88000000D01*
X135050069Y-88000000D01*
X135388000Y-88008171D01*
G36*
X136948417Y-88959313D02*
G01*
X136764990Y-89093627D01*
X136494708Y-89278048D01*
X136166558Y-89493760D01*
X135809526Y-89721948D01*
X135452599Y-89943795D01*
X135124765Y-90140486D01*
X134887621Y-90275489D01*
X134140408Y-90642640D01*
X133410966Y-90921038D01*
X132722950Y-91105144D01*
X132100012Y-91189424D01*
X131565807Y-91168339D01*
X131320343Y-91110469D01*
X130836869Y-90864277D01*
X130435459Y-90472205D01*
X130149551Y-90000429D01*
X130034503Y-89733420D01*
X129951827Y-89497845D01*
X129905925Y-89318973D01*
X129901199Y-89222074D01*
X129942050Y-89232418D01*
X130032879Y-89375274D01*
X130044449Y-89397000D01*
X130377640Y-89860842D01*
X130826388Y-90234930D01*
X130962334Y-90314921D01*
X131135425Y-90396448D01*
X131320015Y-90449418D01*
X131557005Y-90479376D01*
X131887296Y-90491869D01*
X132274667Y-90492887D01*
X132736913Y-90485070D01*
X133092277Y-90460514D01*
X133403059Y-90409661D01*
X133731558Y-90322955D01*
X134052667Y-90220125D01*
X134445692Y-90074784D01*
X134927735Y-89874941D01*
X135438793Y-89646511D01*
X135918863Y-89415408D01*
X135936500Y-89406512D01*
X136320340Y-89214671D01*
X136644034Y-89057028D01*
X136880927Y-88946240D01*
X137004364Y-88894964D01*
X137016000Y-88893923D01*
X136948417Y-88959313D01*
G37*
X136948417Y-88959313D02*
X136764990Y-89093627D01*
X136494708Y-89278048D01*
X136166558Y-89493760D01*
X135809526Y-89721948D01*
X135452599Y-89943795D01*
X135124765Y-90140486D01*
X134887621Y-90275489D01*
X134140408Y-90642640D01*
X133410966Y-90921038D01*
X132722950Y-91105144D01*
X132100012Y-91189424D01*
X131565807Y-91168339D01*
X131320343Y-91110469D01*
X130836869Y-90864277D01*
X130435459Y-90472205D01*
X130149551Y-90000429D01*
X130034503Y-89733420D01*
X129951827Y-89497845D01*
X129905925Y-89318973D01*
X129901199Y-89222074D01*
X129942050Y-89232418D01*
X130032879Y-89375274D01*
X130044449Y-89397000D01*
X130377640Y-89860842D01*
X130826388Y-90234930D01*
X130962334Y-90314921D01*
X131135425Y-90396448D01*
X131320015Y-90449418D01*
X131557005Y-90479376D01*
X131887296Y-90491869D01*
X132274667Y-90492887D01*
X132736913Y-90485070D01*
X133092277Y-90460514D01*
X133403059Y-90409661D01*
X133731558Y-90322955D01*
X134052667Y-90220125D01*
X134445692Y-90074784D01*
X134927735Y-89874941D01*
X135438793Y-89646511D01*
X135918863Y-89415408D01*
X135936500Y-89406512D01*
X136320340Y-89214671D01*
X136644034Y-89057028D01*
X136880927Y-88946240D01*
X137004364Y-88894964D01*
X137016000Y-88893923D01*
X136948417Y-88959313D01*
G36*
X132456219Y-88013596D02*
G01*
X132586244Y-88060668D01*
X132613334Y-88127000D01*
X132543050Y-88230509D01*
X132446916Y-88254000D01*
X132341195Y-88285175D01*
X132274996Y-88404676D01*
X132227834Y-88651465D01*
X132224342Y-88677334D01*
X132164866Y-88963175D01*
X132081182Y-89091210D01*
X132044148Y-89100667D01*
X131973253Y-89068698D01*
X131952093Y-88948218D01*
X131974936Y-88702366D01*
X131978334Y-88677334D01*
X132004950Y-88423201D01*
X131989181Y-88295507D01*
X131923926Y-88255076D01*
X131901612Y-88254000D01*
X131784343Y-88189644D01*
X131766667Y-88127000D01*
X131811986Y-88047135D01*
X131968894Y-88008127D01*
X132190000Y-88000000D01*
X132456219Y-88013596D01*
G37*
X132456219Y-88013596D02*
X132586244Y-88060668D01*
X132613334Y-88127000D01*
X132543050Y-88230509D01*
X132446916Y-88254000D01*
X132341195Y-88285175D01*
X132274996Y-88404676D01*
X132227834Y-88651465D01*
X132224342Y-88677334D01*
X132164866Y-88963175D01*
X132081182Y-89091210D01*
X132044148Y-89100667D01*
X131973253Y-89068698D01*
X131952093Y-88948218D01*
X131974936Y-88702366D01*
X131978334Y-88677334D01*
X132004950Y-88423201D01*
X131989181Y-88295507D01*
X131923926Y-88255076D01*
X131901612Y-88254000D01*
X131784343Y-88189644D01*
X131766667Y-88127000D01*
X131811986Y-88047135D01*
X131968894Y-88008127D01*
X132190000Y-88000000D01*
X132456219Y-88013596D01*
G36*
X140226616Y-87594884D02*
G01*
X140993095Y-87676699D01*
X141664321Y-87821139D01*
X141799667Y-87862989D01*
X142436279Y-88119973D01*
X142931666Y-88417975D01*
X143281375Y-88748364D01*
X143480952Y-89102511D01*
X143525944Y-89471786D01*
X143411897Y-89847560D01*
X143134357Y-90221203D01*
X143056059Y-90297501D01*
X142596706Y-90619800D01*
X142014328Y-90861745D01*
X141338434Y-91016518D01*
X140598531Y-91077305D01*
X139843722Y-91039577D01*
X139451259Y-90975619D01*
X139045114Y-90880150D01*
X138773042Y-90794726D01*
X138404244Y-90630908D01*
X138002742Y-90411585D01*
X137619164Y-90168294D01*
X137304138Y-89932570D01*
X137143000Y-89779358D01*
X136973667Y-89585501D01*
X137227667Y-89714686D01*
X137882755Y-89977412D01*
X138626130Y-90157303D01*
X139415448Y-90252579D01*
X140208366Y-90261459D01*
X140962542Y-90182163D01*
X141635632Y-90012909D01*
X141892139Y-89910870D01*
X142318518Y-89668059D01*
X142580214Y-89408225D01*
X142680009Y-89139425D01*
X142620686Y-88869717D01*
X142405027Y-88607160D01*
X142035815Y-88359810D01*
X141515831Y-88135726D01*
X141249334Y-88049350D01*
X140433203Y-87875229D01*
X139530398Y-87802743D01*
X138588694Y-87830587D01*
X137655866Y-87957453D01*
X136814889Y-88170601D01*
X136482610Y-88273953D01*
X136217131Y-88349913D01*
X136054974Y-88388382D01*
X136022758Y-88389647D01*
X136065005Y-88335450D01*
X136238575Y-88248737D01*
X136511235Y-88140844D01*
X136850752Y-88023111D01*
X137224894Y-87906876D01*
X137601428Y-87803478D01*
X137866657Y-87741034D01*
X138612297Y-87625467D01*
X139415983Y-87577279D01*
X140226616Y-87594884D01*
G37*
X140226616Y-87594884D02*
X140993095Y-87676699D01*
X141664321Y-87821139D01*
X141799667Y-87862989D01*
X142436279Y-88119973D01*
X142931666Y-88417975D01*
X143281375Y-88748364D01*
X143480952Y-89102511D01*
X143525944Y-89471786D01*
X143411897Y-89847560D01*
X143134357Y-90221203D01*
X143056059Y-90297501D01*
X142596706Y-90619800D01*
X142014328Y-90861745D01*
X141338434Y-91016518D01*
X140598531Y-91077305D01*
X139843722Y-91039577D01*
X139451259Y-90975619D01*
X139045114Y-90880150D01*
X138773042Y-90794726D01*
X138404244Y-90630908D01*
X138002742Y-90411585D01*
X137619164Y-90168294D01*
X137304138Y-89932570D01*
X137143000Y-89779358D01*
X136973667Y-89585501D01*
X137227667Y-89714686D01*
X137882755Y-89977412D01*
X138626130Y-90157303D01*
X139415448Y-90252579D01*
X140208366Y-90261459D01*
X140962542Y-90182163D01*
X141635632Y-90012909D01*
X141892139Y-89910870D01*
X142318518Y-89668059D01*
X142580214Y-89408225D01*
X142680009Y-89139425D01*
X142620686Y-88869717D01*
X142405027Y-88607160D01*
X142035815Y-88359810D01*
X141515831Y-88135726D01*
X141249334Y-88049350D01*
X140433203Y-87875229D01*
X139530398Y-87802743D01*
X138588694Y-87830587D01*
X137655866Y-87957453D01*
X136814889Y-88170601D01*
X136482610Y-88273953D01*
X136217131Y-88349913D01*
X136054974Y-88388382D01*
X136022758Y-88389647D01*
X136065005Y-88335450D01*
X136238575Y-88248737D01*
X136511235Y-88140844D01*
X136850752Y-88023111D01*
X137224894Y-87906876D01*
X137601428Y-87803478D01*
X137866657Y-87741034D01*
X138612297Y-87625467D01*
X139415983Y-87577279D01*
X140226616Y-87594884D01*
D13*
X137347064Y-123225000D02*
X136892936Y-123225000D01*
X137347064Y-124695000D02*
X136892936Y-124695000D01*
X166235000Y-82238748D02*
X166235000Y-82761252D01*
X164765000Y-82238748D02*
X164765000Y-82761252D01*
X166265000Y-111772936D02*
X166265000Y-112227064D01*
X167735000Y-111772936D02*
X167735000Y-112227064D01*
X113070000Y-85850000D02*
X113070000Y-82580000D01*
X126670000Y-94860000D02*
X126670000Y-73570000D01*
X114054315Y-88360000D02*
X114620000Y-87960000D01*
X114920000Y-85850000D02*
X113070000Y-85850000D01*
X126670000Y-73570000D02*
X114920000Y-73570000D01*
X114920000Y-73570000D02*
X114920000Y-94860000D01*
X114920000Y-94860000D02*
X126670000Y-94860000D01*
X114620000Y-87960000D02*
X114054315Y-87560000D01*
X113070000Y-82580000D02*
X114920000Y-82580000D01*
X114054315Y-87560000D02*
X114054315Y-88360000D01*
X161659564Y-75695000D02*
X161205436Y-75695000D01*
X161659564Y-74225000D02*
X161205436Y-74225000D01*
X162695000Y-122698750D02*
X165095000Y-122698750D01*
X165095000Y-122698750D02*
X165095000Y-125098750D01*
X165095000Y-125098750D02*
X162695000Y-125098750D01*
X162695000Y-125098750D02*
X162695000Y-122698750D01*
X142570000Y-125160000D02*
X140170000Y-125160000D01*
X140170000Y-122760000D02*
X142570000Y-122760000D01*
X140170000Y-125160000D02*
X140170000Y-122760000D01*
X142570000Y-122760000D02*
X142570000Y-125160000D01*
X167905436Y-123286250D02*
X168359564Y-123286250D01*
X167905436Y-124756250D02*
X168359564Y-124756250D01*
D14*
X140865000Y-107815000D02*
X133030000Y-107815000D01*
X139630000Y-97655000D02*
X133030000Y-97655000D01*
D13*
X138142936Y-94225000D02*
X138597064Y-94225000D01*
X138142936Y-95695000D02*
X138597064Y-95695000D01*
M02*
