G04 #@! TF.GenerationSoftware,KiCad,Pcbnew,7.0.2*
G04 #@! TF.CreationDate,2023-08-29T10:55:17-05:00*
G04 #@! TF.ProjectId,Power-Secondary,506f7765-722d-4536-9563-6f6e64617279,rev?*
G04 #@! TF.SameCoordinates,Original*
G04 #@! TF.FileFunction,Soldermask,Bot*
G04 #@! TF.FilePolarity,Negative*
%FSLAX46Y46*%
G04 Gerber Fmt 4.6, Leading zero omitted, Abs format (unit mm)*
G04 Created by KiCad (PCBNEW 7.0.2) date 2023-08-29 10:55:17*
%MOMM*%
%LPD*%
G01*
G04 APERTURE LIST*
G04 Aperture macros list*
%AMRoundRect*
0 Rectangle with rounded corners*
0 $1 Rounding radius*
0 $2 $3 $4 $5 $6 $7 $8 $9 X,Y pos of 4 corners*
0 Add a 4 corners polygon primitive as box body*
4,1,4,$2,$3,$4,$5,$6,$7,$8,$9,$2,$3,0*
0 Add four circle primitives for the rounded corners*
1,1,$1+$1,$2,$3*
1,1,$1+$1,$4,$5*
1,1,$1+$1,$6,$7*
1,1,$1+$1,$8,$9*
0 Add four rect primitives between the rounded corners*
20,1,$1+$1,$2,$3,$4,$5,0*
20,1,$1+$1,$4,$5,$6,$7,0*
20,1,$1+$1,$6,$7,$8,$9,0*
20,1,$1+$1,$8,$9,$2,$3,0*%
G04 Aperture macros list end*
%ADD10C,3.000000*%
%ADD11R,2.085000X2.085000*%
%ADD12C,2.085000*%
%ADD13R,3.430000X3.780000*%
%ADD14C,1.270000*%
%ADD15RoundRect,0.250001X0.499999X0.759999X-0.499999X0.759999X-0.499999X-0.759999X0.499999X-0.759999X0*%
%ADD16O,1.500000X2.020000*%
%ADD17C,2.780000*%
%ADD18RoundRect,0.250001X-0.499999X-0.759999X0.499999X-0.759999X0.499999X0.759999X-0.499999X0.759999X0*%
%ADD19RoundRect,0.250000X1.100000X-0.325000X1.100000X0.325000X-1.100000X0.325000X-1.100000X-0.325000X0*%
G04 APERTURE END LIST*
D10*
X93000000Y-48000000D03*
D11*
X137685000Y-73200000D03*
D12*
X135145000Y-73200000D03*
X132605000Y-73200000D03*
D11*
X125620000Y-67485000D03*
D12*
X123080000Y-67485000D03*
X120540000Y-67485000D03*
D13*
X158645000Y-84060000D03*
X155465000Y-84060000D03*
X158645000Y-91550000D03*
X155465000Y-91550000D03*
D10*
X165000000Y-104000000D03*
D14*
X123000000Y-103125000D03*
X114000000Y-103125000D03*
D15*
X120000000Y-101165000D03*
D16*
X117000000Y-101165000D03*
D17*
X124590000Y-81230000D03*
X124590000Y-84630000D03*
X134510000Y-81230000D03*
X134510000Y-84630000D03*
D13*
X99580000Y-91550000D03*
X102760000Y-91550000D03*
X99580000Y-84060000D03*
X102760000Y-84060000D03*
D10*
X165000000Y-48000000D03*
D13*
X99580000Y-67485000D03*
X102760000Y-67485000D03*
X99580000Y-59995000D03*
X102760000Y-59995000D03*
D11*
X137685000Y-67525000D03*
D12*
X135145000Y-67525000D03*
X132605000Y-67525000D03*
D10*
X93000000Y-104000000D03*
D14*
X145000000Y-103125000D03*
X136000000Y-103125000D03*
D15*
X142000000Y-101165000D03*
D16*
X139000000Y-101165000D03*
D14*
X124549000Y-51013000D03*
X133549000Y-51013000D03*
D18*
X127549000Y-52973000D03*
D16*
X130549000Y-52973000D03*
D11*
X125620000Y-73200000D03*
D12*
X123080000Y-73200000D03*
X120540000Y-73200000D03*
D13*
X158645000Y-59995000D03*
X155465000Y-59995000D03*
X158645000Y-67485000D03*
X155465000Y-67485000D03*
D19*
X140420000Y-80390000D03*
X140420000Y-77440000D03*
X144670000Y-80390000D03*
X144670000Y-77440000D03*
X148920000Y-80390000D03*
X148920000Y-77440000D03*
M02*
