G04 #@! TF.GenerationSoftware,KiCad,Pcbnew,7.0.2*
G04 #@! TF.CreationDate,2023-06-05T15:00:20-05:00*
G04 #@! TF.ProjectId,Power-Secondary,506f7765-722d-4536-9563-6f6e64617279,rev?*
G04 #@! TF.SameCoordinates,Original*
G04 #@! TF.FileFunction,Copper,L1,Top*
G04 #@! TF.FilePolarity,Positive*
%FSLAX46Y46*%
G04 Gerber Fmt 4.6, Leading zero omitted, Abs format (unit mm)*
G04 Created by KiCad (PCBNEW 7.0.2) date 2023-06-05 15:00:20*
%MOMM*%
%LPD*%
G01*
G04 APERTURE LIST*
G04 Aperture macros list*
%AMRoundRect*
0 Rectangle with rounded corners*
0 $1 Rounding radius*
0 $2 $3 $4 $5 $6 $7 $8 $9 X,Y pos of 4 corners*
0 Add a 4 corners polygon primitive as box body*
4,1,4,$2,$3,$4,$5,$6,$7,$8,$9,$2,$3,0*
0 Add four circle primitives for the rounded corners*
1,1,$1+$1,$2,$3*
1,1,$1+$1,$4,$5*
1,1,$1+$1,$6,$7*
1,1,$1+$1,$8,$9*
0 Add four rect primitives between the rounded corners*
20,1,$1+$1,$2,$3,$4,$5,0*
20,1,$1+$1,$4,$5,$6,$7,0*
20,1,$1+$1,$6,$7,$8,$9,0*
20,1,$1+$1,$8,$9,$2,$3,0*%
G04 Aperture macros list end*
G04 #@! TA.AperFunction,ComponentPad*
%ADD10R,3.430000X3.780000*%
G04 #@! TD*
G04 #@! TA.AperFunction,SMDPad,CuDef*
%ADD11RoundRect,0.250000X0.262500X0.450000X-0.262500X0.450000X-0.262500X-0.450000X0.262500X-0.450000X0*%
G04 #@! TD*
G04 #@! TA.AperFunction,SMDPad,CuDef*
%ADD12RoundRect,0.200000X-0.275000X0.200000X-0.275000X-0.200000X0.275000X-0.200000X0.275000X0.200000X0*%
G04 #@! TD*
G04 #@! TA.AperFunction,ComponentPad*
%ADD13C,2.780000*%
G04 #@! TD*
G04 #@! TA.AperFunction,SMDPad,CuDef*
%ADD14R,2.000000X2.000000*%
G04 #@! TD*
G04 #@! TA.AperFunction,ComponentPad*
%ADD15R,2.085000X2.085000*%
G04 #@! TD*
G04 #@! TA.AperFunction,ComponentPad*
%ADD16C,2.085000*%
G04 #@! TD*
G04 #@! TA.AperFunction,SMDPad,CuDef*
%ADD17R,0.750000X0.400000*%
G04 #@! TD*
G04 #@! TA.AperFunction,ComponentPad*
%ADD18RoundRect,0.250001X-0.499999X-0.759999X0.499999X-0.759999X0.499999X0.759999X-0.499999X0.759999X0*%
G04 #@! TD*
G04 #@! TA.AperFunction,ComponentPad*
%ADD19O,1.500000X2.020000*%
G04 #@! TD*
G04 #@! TA.AperFunction,SMDPad,CuDef*
%ADD20RoundRect,0.243750X-0.243750X-0.456250X0.243750X-0.456250X0.243750X0.456250X-0.243750X0.456250X0*%
G04 #@! TD*
G04 #@! TA.AperFunction,SMDPad,CuDef*
%ADD21RoundRect,0.200000X0.275000X-0.200000X0.275000X0.200000X-0.275000X0.200000X-0.275000X-0.200000X0*%
G04 #@! TD*
G04 #@! TA.AperFunction,ViaPad*
%ADD22C,0.800000*%
G04 #@! TD*
G04 #@! TA.AperFunction,Conductor*
%ADD23C,0.500000*%
G04 #@! TD*
G04 #@! TA.AperFunction,Conductor*
%ADD24C,0.250000*%
G04 #@! TD*
G04 #@! TA.AperFunction,Conductor*
%ADD25C,2.000000*%
G04 #@! TD*
G04 APERTURE END LIST*
D10*
X147334400Y-76265000D03*
X144154400Y-76265000D03*
X147334400Y-83755000D03*
X144154400Y-83755000D03*
D11*
X124752500Y-97950000D03*
X122927500Y-97950000D03*
D12*
X122250000Y-77625000D03*
X122250000Y-79275000D03*
D10*
X147334400Y-52084200D03*
X144154400Y-52084200D03*
X147334400Y-59574200D03*
X144154400Y-59574200D03*
D13*
X125960000Y-57500000D03*
X125960000Y-54100000D03*
X116040000Y-57500000D03*
X116040000Y-54100000D03*
D10*
X98055000Y-83755000D03*
X101235000Y-83755000D03*
X98055000Y-76265000D03*
X101235000Y-76265000D03*
D14*
X136200000Y-98000000D03*
D15*
X133800000Y-70600000D03*
D16*
X131260000Y-70600000D03*
X128720000Y-70600000D03*
D17*
X115300000Y-77000000D03*
X115300000Y-77650000D03*
X115300000Y-78300000D03*
X117500000Y-78300000D03*
X117500000Y-77650000D03*
X117500000Y-77000000D03*
D15*
X119400000Y-70400000D03*
D16*
X116860000Y-70400000D03*
X114320000Y-70400000D03*
D18*
X120100000Y-45185000D03*
D19*
X123100000Y-45185000D03*
D14*
X127650000Y-97950000D03*
D12*
X135200000Y-76275000D03*
X135200000Y-77925000D03*
D14*
X104050000Y-98050000D03*
D17*
X130000000Y-77600000D03*
X130000000Y-76950000D03*
X130000000Y-76300000D03*
X127800000Y-76300000D03*
X127800000Y-76950000D03*
X127800000Y-77600000D03*
D14*
X145902500Y-97795000D03*
D20*
X118457500Y-97950000D03*
X120332500Y-97950000D03*
D14*
X112050000Y-98050000D03*
D21*
X132850000Y-77925000D03*
X132850000Y-76275000D03*
D11*
X101152500Y-98050000D03*
X99327500Y-98050000D03*
D10*
X98055000Y-59574200D03*
X101235000Y-59574200D03*
X98055000Y-52084200D03*
X101235000Y-52084200D03*
D15*
X119400000Y-64400000D03*
D16*
X116860000Y-64400000D03*
X114320000Y-64400000D03*
D15*
X133800000Y-64400000D03*
D16*
X131260000Y-64400000D03*
X128720000Y-64400000D03*
D20*
X94857500Y-98050000D03*
X96732500Y-98050000D03*
D17*
X115300000Y-80550000D03*
X115300000Y-81200000D03*
X115300000Y-81850000D03*
X117500000Y-81850000D03*
X117500000Y-81200000D03*
X117500000Y-80550000D03*
D22*
X121920000Y-93980000D03*
X152400000Y-68580000D03*
X91440000Y-71120000D03*
X152400000Y-93980000D03*
X152400000Y-40640000D03*
X137160000Y-58420000D03*
X121920000Y-86360000D03*
X137160000Y-93980000D03*
X137160000Y-76200000D03*
X119450000Y-72300000D03*
X109220000Y-86360000D03*
X91440000Y-40640000D03*
X107950000Y-55880000D03*
X109200000Y-74200000D03*
X91440000Y-86360000D03*
X121920000Y-55880000D03*
X152400000Y-86360000D03*
X107950000Y-40640000D03*
X137160000Y-40640000D03*
X137160000Y-86360000D03*
X121920000Y-40640000D03*
X152400000Y-55880000D03*
X91440000Y-55880000D03*
X117500000Y-79500000D03*
X117500000Y-75750000D03*
X114150000Y-80050000D03*
D23*
X96732500Y-98050000D02*
X99327500Y-98050000D01*
D24*
X120332500Y-97950000D02*
X122927500Y-97950000D01*
D25*
X114320000Y-62180000D02*
X114750000Y-61750000D01*
X116040000Y-60710000D02*
X115750000Y-61000000D01*
X115750000Y-61000000D02*
X114250000Y-61000000D01*
X128720000Y-61280000D02*
X128720000Y-62470000D01*
X114320000Y-62180000D02*
X114320000Y-64400000D01*
X128750000Y-61250000D02*
X128720000Y-61280000D01*
X115750000Y-61000000D02*
X116000000Y-61250000D01*
X116000000Y-61250000D02*
X128750000Y-61250000D01*
X116040000Y-57500000D02*
X116040000Y-60710000D01*
X116040000Y-54100000D02*
X116040000Y-57500000D01*
X128000000Y-61750000D02*
X128720000Y-62470000D01*
X114320000Y-61070000D02*
X114320000Y-62180000D01*
X128750000Y-60250000D02*
X128750000Y-61250000D01*
X114250000Y-61000000D02*
X114320000Y-61070000D01*
X114250000Y-61000000D02*
X114250000Y-60250000D01*
X114750000Y-61750000D02*
X128000000Y-61750000D01*
X114250000Y-60250000D02*
X128750000Y-60250000D01*
X128720000Y-62470000D02*
X128720000Y-64400000D01*
D23*
X116500000Y-77350000D02*
X116150000Y-77000000D01*
X115300000Y-77000000D02*
X114320000Y-76020000D01*
X101152500Y-98050000D02*
X104050000Y-98050000D01*
X101152500Y-98050000D02*
X101152500Y-88335000D01*
X114320000Y-76020000D02*
X114320000Y-70400000D01*
X101152500Y-88335000D02*
X101170000Y-88317500D01*
X101170000Y-88317500D02*
X101170000Y-83820000D01*
X116821000Y-78300000D02*
X116500000Y-77979000D01*
X116500000Y-77979000D02*
X116500000Y-77350000D01*
X116150000Y-77000000D02*
X115300000Y-77000000D01*
X117500000Y-78300000D02*
X116821000Y-78300000D01*
X129321000Y-77600000D02*
X130000000Y-77600000D01*
D24*
X132525000Y-77600000D02*
X132850000Y-77925000D01*
X127650000Y-97950000D02*
X130000000Y-95600000D01*
X130000000Y-95600000D02*
X130000000Y-77600000D01*
X124752500Y-97950000D02*
X127650000Y-97950000D01*
D23*
X128720000Y-76999000D02*
X129321000Y-77600000D01*
X128720000Y-70600000D02*
X128720000Y-76999000D01*
D24*
X130000000Y-77600000D02*
X132525000Y-77600000D01*
D23*
X117500000Y-75750000D02*
X117500000Y-77000000D01*
X119400000Y-70400000D02*
X117500000Y-72300000D01*
X117500000Y-80550000D02*
X117500000Y-79500000D01*
X117500000Y-72300000D02*
X117500000Y-75750000D01*
X119400000Y-64400000D02*
X119400000Y-70400000D01*
D24*
X112050000Y-98300000D02*
X115300000Y-95050000D01*
D23*
X114150000Y-80700000D02*
X114150000Y-80050000D01*
X115300000Y-77650000D02*
X115300000Y-78300000D01*
X133800000Y-64400000D02*
X133800000Y-70600000D01*
X114150000Y-79450000D02*
X115300000Y-78300000D01*
X115300000Y-81200000D02*
X115300000Y-81850000D01*
X115300000Y-81850000D02*
X114150000Y-80700000D01*
D24*
X115300000Y-95050000D02*
X115300000Y-81850000D01*
D23*
X114150000Y-80050000D02*
X114150000Y-79450000D01*
X117500000Y-77650000D02*
X119250000Y-77650000D01*
X119250000Y-77650000D02*
X122225000Y-77650000D01*
X117500000Y-81200000D02*
X118179000Y-81200000D01*
X118650000Y-78150000D02*
X119150000Y-77650000D01*
X122275000Y-77600000D02*
X127800000Y-77600000D01*
X118650000Y-80729000D02*
X118650000Y-78150000D01*
X122225000Y-77650000D02*
X122250000Y-77625000D01*
X122250000Y-77625000D02*
X122275000Y-77600000D01*
X119150000Y-77650000D02*
X119250000Y-77650000D01*
X118179000Y-81200000D02*
X118650000Y-80729000D01*
X118150000Y-77650000D02*
X117500000Y-77650000D01*
X118650000Y-78150000D02*
X118150000Y-77650000D01*
D25*
X116860000Y-64400000D02*
X116860000Y-70400000D01*
D24*
X131200000Y-76950000D02*
X132175000Y-76950000D01*
X132175000Y-76950000D02*
X132850000Y-76275000D01*
X136400000Y-97800000D02*
X136200000Y-98000000D01*
X130000000Y-76950000D02*
X131200000Y-76950000D01*
X135200000Y-76275000D02*
X136400000Y-77475000D01*
X136400000Y-77475000D02*
X136400000Y-97800000D01*
X132850000Y-76275000D02*
X135200000Y-76275000D01*
D25*
X131260000Y-64400000D02*
X131260000Y-70600000D01*
G04 #@! TA.AperFunction,Conductor*
G36*
X127461621Y-62970502D02*
G01*
X127508114Y-63024158D01*
X127519500Y-63076500D01*
X127519499Y-64061155D01*
X127515206Y-64093765D01*
X127491208Y-64183328D01*
X127472252Y-64400000D01*
X127491208Y-64616669D01*
X127547499Y-64826754D01*
X127639419Y-65023874D01*
X127764172Y-65202040D01*
X127917959Y-65355827D01*
X127917962Y-65355829D01*
X127917963Y-65355830D01*
X128096126Y-65480581D01*
X128293245Y-65572500D01*
X128503331Y-65628792D01*
X128720000Y-65647748D01*
X128936669Y-65628792D01*
X129146755Y-65572500D01*
X129343874Y-65480581D01*
X129522037Y-65355830D01*
X129675830Y-65202037D01*
X129800581Y-65023874D01*
X129819305Y-64983719D01*
X129866222Y-64930435D01*
X129934500Y-64910974D01*
X130002460Y-64931516D01*
X130048525Y-64985539D01*
X130059500Y-65036970D01*
X130059500Y-69963029D01*
X130039498Y-70031150D01*
X129985842Y-70077643D01*
X129915568Y-70087747D01*
X129850988Y-70058253D01*
X129819306Y-70016280D01*
X129800582Y-69976127D01*
X129675827Y-69797959D01*
X129522040Y-69644172D01*
X129343874Y-69519419D01*
X129146754Y-69427499D01*
X128936669Y-69371208D01*
X128720000Y-69352252D01*
X128503330Y-69371208D01*
X128293245Y-69427499D01*
X128096125Y-69519419D01*
X127917959Y-69644172D01*
X127764172Y-69797959D01*
X127639419Y-69976125D01*
X127547499Y-70173245D01*
X127491208Y-70383330D01*
X127472252Y-70600000D01*
X127491208Y-70816669D01*
X127547499Y-71026754D01*
X127639419Y-71223874D01*
X127764172Y-71402040D01*
X127917959Y-71555827D01*
X127917962Y-71555829D01*
X127917963Y-71555830D01*
X128096126Y-71680581D01*
X128196750Y-71727503D01*
X128250035Y-71774419D01*
X128269500Y-71841697D01*
X128269500Y-75773500D01*
X128249498Y-75841621D01*
X128195842Y-75888114D01*
X128143500Y-75899500D01*
X127405252Y-75899500D01*
X127376010Y-75905316D01*
X127346768Y-75911133D01*
X127280447Y-75955447D01*
X127236133Y-76021768D01*
X127224500Y-76080253D01*
X127224500Y-76519748D01*
X127240546Y-76600417D01*
X127240546Y-76649578D01*
X127224500Y-76730250D01*
X127224500Y-77023500D01*
X127204498Y-77091621D01*
X127150842Y-77138114D01*
X127098500Y-77149500D01*
X122868083Y-77149500D01*
X122799962Y-77129498D01*
X122778988Y-77112595D01*
X122763344Y-77096951D01*
X122650304Y-77039354D01*
X122638049Y-77037413D01*
X122556519Y-77024500D01*
X122556517Y-77024500D01*
X121943481Y-77024500D01*
X121849696Y-77039354D01*
X121736655Y-77096951D01*
X121671012Y-77162595D01*
X121608700Y-77196621D01*
X121581917Y-77199500D01*
X119182378Y-77199500D01*
X119168272Y-77198708D01*
X119132965Y-77194730D01*
X119132964Y-77194730D01*
X119119359Y-77197304D01*
X119095937Y-77199500D01*
X118201500Y-77199500D01*
X118133379Y-77179498D01*
X118086886Y-77125842D01*
X118075500Y-77073500D01*
X118075500Y-76780253D01*
X118071512Y-76760205D01*
X118063867Y-76721769D01*
X118019552Y-76655448D01*
X118006496Y-76646724D01*
X117960970Y-76592247D01*
X117950500Y-76541960D01*
X117950500Y-76192097D01*
X117970502Y-76123976D01*
X117976531Y-76115401D01*
X118024536Y-76052841D01*
X118085044Y-75906762D01*
X118105682Y-75750000D01*
X118085044Y-75593238D01*
X118024536Y-75447159D01*
X117976537Y-75384605D01*
X117950937Y-75318384D01*
X117950500Y-75307901D01*
X117950500Y-72538793D01*
X117970502Y-72470672D01*
X117987405Y-72449698D01*
X118757198Y-71679905D01*
X118819510Y-71645879D01*
X118846293Y-71643000D01*
X120462247Y-71643000D01*
X120462248Y-71643000D01*
X120520731Y-71631367D01*
X120587052Y-71587052D01*
X120631367Y-71520731D01*
X120643000Y-71462248D01*
X120643000Y-69337752D01*
X120631367Y-69279269D01*
X120616662Y-69257261D01*
X120587052Y-69212947D01*
X120520731Y-69168633D01*
X120520730Y-69168632D01*
X120462248Y-69157000D01*
X120462247Y-69157000D01*
X119976500Y-69157000D01*
X119908379Y-69136998D01*
X119861886Y-69083342D01*
X119850500Y-69031000D01*
X119850500Y-65769000D01*
X119870502Y-65700879D01*
X119924158Y-65654386D01*
X119976500Y-65643000D01*
X120462247Y-65643000D01*
X120462248Y-65643000D01*
X120520731Y-65631367D01*
X120587052Y-65587052D01*
X120631367Y-65520731D01*
X120643000Y-65462248D01*
X120643000Y-63337752D01*
X120631367Y-63279269D01*
X120616662Y-63257261D01*
X120587052Y-63212947D01*
X120539636Y-63181265D01*
X120494108Y-63126788D01*
X120485261Y-63056345D01*
X120515902Y-62992301D01*
X120576304Y-62954989D01*
X120609638Y-62950500D01*
X127393500Y-62950500D01*
X127461621Y-62970502D01*
G37*
G04 #@! TD.AperFunction*
G04 #@! TA.AperFunction,Conductor*
G36*
X157002898Y-39100634D02*
G01*
X157353984Y-39116866D01*
X157365570Y-39117939D01*
X157710775Y-39166093D01*
X157722194Y-39168227D01*
X158061481Y-39248028D01*
X158072669Y-39251211D01*
X158403140Y-39361974D01*
X158413987Y-39366176D01*
X158732845Y-39506965D01*
X158743236Y-39512140D01*
X158925184Y-39613484D01*
X159047727Y-39681740D01*
X159057622Y-39687866D01*
X159345167Y-39884839D01*
X159354455Y-39891853D01*
X159622601Y-40114519D01*
X159631201Y-40122360D01*
X159877639Y-40368798D01*
X159885480Y-40377398D01*
X160108146Y-40645544D01*
X160115160Y-40654832D01*
X160312133Y-40942377D01*
X160318259Y-40952272D01*
X160481683Y-41245675D01*
X160487852Y-41256749D01*
X160493040Y-41267167D01*
X160633822Y-41586010D01*
X160638026Y-41596862D01*
X160748787Y-41927327D01*
X160751972Y-41938521D01*
X160831769Y-42277794D01*
X160833908Y-42289235D01*
X160882059Y-42634428D01*
X160883133Y-42646016D01*
X160899356Y-42996909D01*
X160899490Y-43003067D01*
X160752116Y-97706418D01*
X160752000Y-97707295D01*
X160752000Y-97747076D01*
X160751866Y-97752896D01*
X160735633Y-98103984D01*
X160734559Y-98115571D01*
X160686408Y-98460764D01*
X160684269Y-98472205D01*
X160604472Y-98811478D01*
X160601287Y-98822672D01*
X160490526Y-99153137D01*
X160486322Y-99163989D01*
X160345540Y-99482832D01*
X160340352Y-99493250D01*
X160170759Y-99797727D01*
X160164633Y-99807622D01*
X159967660Y-100095167D01*
X159960646Y-100104455D01*
X159737980Y-100372601D01*
X159730139Y-100381201D01*
X159483701Y-100627639D01*
X159475101Y-100635480D01*
X159206955Y-100858146D01*
X159197667Y-100865160D01*
X158910122Y-101062133D01*
X158900227Y-101068259D01*
X158595750Y-101237852D01*
X158585332Y-101243040D01*
X158266489Y-101383822D01*
X158255637Y-101388026D01*
X157925172Y-101498787D01*
X157913978Y-101501972D01*
X157574705Y-101581769D01*
X157563264Y-101583908D01*
X157218071Y-101632059D01*
X157206484Y-101633133D01*
X156867645Y-101648799D01*
X156855397Y-101649366D01*
X156849579Y-101649500D01*
X87855421Y-101649500D01*
X87849602Y-101649366D01*
X87836713Y-101648770D01*
X87498515Y-101633133D01*
X87486928Y-101632059D01*
X87141735Y-101583908D01*
X87130294Y-101581769D01*
X86791021Y-101501972D01*
X86779827Y-101498787D01*
X86449362Y-101388026D01*
X86438510Y-101383822D01*
X86225123Y-101289603D01*
X86119662Y-101243037D01*
X86109254Y-101237854D01*
X85927316Y-101136516D01*
X85804772Y-101068259D01*
X85794877Y-101062133D01*
X85507332Y-100865160D01*
X85498044Y-100858146D01*
X85229898Y-100635480D01*
X85221298Y-100627639D01*
X84974860Y-100381201D01*
X84967019Y-100372601D01*
X84744353Y-100104455D01*
X84737339Y-100095167D01*
X84540366Y-99807622D01*
X84534240Y-99797727D01*
X84364640Y-99493236D01*
X84359465Y-99482845D01*
X84218676Y-99163987D01*
X84214473Y-99153137D01*
X84206125Y-99128231D01*
X84103711Y-98822669D01*
X84100527Y-98811478D01*
X84098484Y-98802793D01*
X84020727Y-98472194D01*
X84018593Y-98460775D01*
X84001208Y-98336143D01*
X84000000Y-98318736D01*
X84000000Y-97881482D01*
X86098000Y-97881482D01*
X86137192Y-98141508D01*
X86137193Y-98141510D01*
X86214701Y-98392788D01*
X86328798Y-98629710D01*
X86476926Y-98846976D01*
X86476930Y-98846980D01*
X86655790Y-99039746D01*
X86861383Y-99203701D01*
X86861386Y-99203703D01*
X86942441Y-99250500D01*
X87089116Y-99335183D01*
X87333902Y-99431254D01*
X87590272Y-99489769D01*
X87786846Y-99504500D01*
X87789199Y-99504500D01*
X87915801Y-99504500D01*
X87918154Y-99504500D01*
X88114728Y-99489769D01*
X88371098Y-99431254D01*
X88615884Y-99335183D01*
X88843617Y-99203701D01*
X89049210Y-99039746D01*
X89228070Y-98846980D01*
X89248409Y-98817149D01*
X89263509Y-98795000D01*
X89376202Y-98629710D01*
X89420608Y-98537500D01*
X93862001Y-98537500D01*
X93862001Y-98553138D01*
X93862326Y-98559531D01*
X93872518Y-98659305D01*
X93927793Y-98826113D01*
X94020053Y-98975689D01*
X94144310Y-99099946D01*
X94293883Y-99192203D01*
X94370000Y-99217426D01*
X94370000Y-98537500D01*
X93862001Y-98537500D01*
X89420608Y-98537500D01*
X89490298Y-98392788D01*
X89567808Y-98141508D01*
X89607000Y-97881482D01*
X89607000Y-97618518D01*
X89598557Y-97562500D01*
X93862000Y-97562500D01*
X94370000Y-97562500D01*
X94370000Y-96882572D01*
X95345000Y-96882572D01*
X95345000Y-99217426D01*
X95421116Y-99192203D01*
X95570689Y-99099946D01*
X95694946Y-98975689D01*
X95787204Y-98826117D01*
X95837585Y-98674077D01*
X95877999Y-98615706D01*
X95943556Y-98588450D01*
X96013441Y-98600963D01*
X96065467Y-98649273D01*
X96076119Y-98672095D01*
X96091544Y-98716177D01*
X96171069Y-98823930D01*
X96278822Y-98903456D01*
X96405109Y-98947645D01*
X96405226Y-98947686D01*
X96435236Y-98950500D01*
X96438170Y-98950500D01*
X97026830Y-98950500D01*
X97029764Y-98950500D01*
X97059774Y-98947686D01*
X97122976Y-98925570D01*
X97186177Y-98903456D01*
X97186177Y-98903455D01*
X97186179Y-98903455D01*
X97293930Y-98823930D01*
X97373455Y-98716179D01*
X97396867Y-98649273D01*
X97419397Y-98584885D01*
X97460775Y-98527193D01*
X97526775Y-98501031D01*
X97538326Y-98500500D01*
X98498489Y-98500500D01*
X98566610Y-98520502D01*
X98613103Y-98574158D01*
X98617418Y-98584885D01*
X98662206Y-98712882D01*
X98742849Y-98822150D01*
X98852117Y-98902793D01*
X98980297Y-98947645D01*
X98980298Y-98947645D01*
X98980301Y-98947646D01*
X99010734Y-98950500D01*
X99013687Y-98950500D01*
X99641313Y-98950500D01*
X99644266Y-98950500D01*
X99674699Y-98947646D01*
X99802882Y-98902793D01*
X99912150Y-98822150D01*
X99992793Y-98712882D01*
X100035870Y-98589774D01*
X100037645Y-98584702D01*
X100037645Y-98584701D01*
X100037646Y-98584699D01*
X100040500Y-98554266D01*
X100040500Y-97545734D01*
X100037646Y-97515301D01*
X100035870Y-97510226D01*
X99992793Y-97387117D01*
X99912150Y-97277849D01*
X99802882Y-97197206D01*
X99674702Y-97152354D01*
X99647201Y-97149775D01*
X99647195Y-97149774D01*
X99644266Y-97149500D01*
X99010734Y-97149500D01*
X99007805Y-97149774D01*
X99007798Y-97149775D01*
X98980297Y-97152354D01*
X98852117Y-97197206D01*
X98742849Y-97277849D01*
X98662206Y-97387117D01*
X98617418Y-97515115D01*
X98576040Y-97572807D01*
X98510039Y-97598969D01*
X98498489Y-97599500D01*
X97538326Y-97599500D01*
X97470205Y-97579498D01*
X97423712Y-97525842D01*
X97419397Y-97515115D01*
X97373456Y-97383822D01*
X97293930Y-97276069D01*
X97186177Y-97196543D01*
X97059776Y-97152314D01*
X97032679Y-97149773D01*
X97032671Y-97149772D01*
X97029764Y-97149500D01*
X96435236Y-97149500D01*
X96432329Y-97149772D01*
X96432320Y-97149773D01*
X96405223Y-97152314D01*
X96278822Y-97196543D01*
X96171069Y-97276069D01*
X96091544Y-97383821D01*
X96076118Y-97427906D01*
X96034738Y-97485597D01*
X95968738Y-97511759D01*
X95899070Y-97498084D01*
X95847855Y-97448916D01*
X95837584Y-97425921D01*
X95787204Y-97273883D01*
X95694946Y-97124310D01*
X95570689Y-97000053D01*
X95421114Y-96907794D01*
X95345000Y-96882572D01*
X94370000Y-96882572D01*
X94369999Y-96882572D01*
X94293885Y-96907794D01*
X94144310Y-97000053D01*
X94020053Y-97124310D01*
X93927793Y-97273886D01*
X93872518Y-97440694D01*
X93862325Y-97540468D01*
X93862000Y-97546858D01*
X93862000Y-97562500D01*
X89598557Y-97562500D01*
X89567808Y-97358492D01*
X89490298Y-97107212D01*
X89485479Y-97097206D01*
X89425071Y-96971768D01*
X89376202Y-96870290D01*
X89336866Y-96812595D01*
X89228073Y-96653023D01*
X89210608Y-96634200D01*
X89049210Y-96460254D01*
X88843617Y-96296299D01*
X88843616Y-96296298D01*
X88843613Y-96296296D01*
X88615884Y-96164817D01*
X88371099Y-96068746D01*
X88114728Y-96010231D01*
X87920496Y-95995675D01*
X87920482Y-95995674D01*
X87918154Y-95995500D01*
X87786846Y-95995500D01*
X87784518Y-95995674D01*
X87784503Y-95995675D01*
X87590271Y-96010231D01*
X87333900Y-96068746D01*
X87089115Y-96164817D01*
X86861386Y-96296296D01*
X86800873Y-96344554D01*
X86655790Y-96460254D01*
X86575090Y-96547227D01*
X86476926Y-96653023D01*
X86328798Y-96870289D01*
X86214701Y-97107211D01*
X86142682Y-97340694D01*
X86137192Y-97358492D01*
X86098000Y-97618518D01*
X86098000Y-97881482D01*
X84000000Y-97881482D01*
X84000000Y-85664746D01*
X96139500Y-85664746D01*
X96151133Y-85723231D01*
X96195447Y-85789552D01*
X96239762Y-85819162D01*
X96261769Y-85833867D01*
X96320252Y-85845500D01*
X99500252Y-85845500D01*
X100593500Y-85845500D01*
X100661621Y-85865502D01*
X100708114Y-85919158D01*
X100719500Y-85971500D01*
X100719500Y-88187035D01*
X100712430Y-88228648D01*
X100702801Y-88256166D01*
X100702000Y-88260885D01*
X100702000Y-88324213D01*
X100701912Y-88328924D01*
X100699543Y-88392238D01*
X100702000Y-88410898D01*
X100702000Y-97115235D01*
X100681998Y-97183356D01*
X100650821Y-97216614D01*
X100567849Y-97277849D01*
X100487206Y-97387117D01*
X100442354Y-97515297D01*
X100439775Y-97542798D01*
X100439500Y-97545734D01*
X100439500Y-98554266D01*
X100439774Y-98557195D01*
X100439775Y-98557201D01*
X100442354Y-98584702D01*
X100487206Y-98712882D01*
X100567849Y-98822150D01*
X100677117Y-98902793D01*
X100805297Y-98947645D01*
X100805298Y-98947645D01*
X100805301Y-98947646D01*
X100835734Y-98950500D01*
X100838687Y-98950500D01*
X101466313Y-98950500D01*
X101469266Y-98950500D01*
X101499699Y-98947646D01*
X101627882Y-98902793D01*
X101737150Y-98822150D01*
X101817793Y-98712882D01*
X101817792Y-98712882D01*
X101862582Y-98584885D01*
X101903960Y-98527193D01*
X101969961Y-98501031D01*
X101981511Y-98500500D01*
X102723500Y-98500500D01*
X102791621Y-98520502D01*
X102838114Y-98574158D01*
X102849500Y-98626499D01*
X102849500Y-99069748D01*
X102853967Y-99092203D01*
X102861133Y-99128231D01*
X102905447Y-99194552D01*
X102919140Y-99203701D01*
X102971769Y-99238867D01*
X103030252Y-99250500D01*
X103030253Y-99250500D01*
X105069747Y-99250500D01*
X105069748Y-99250500D01*
X105128231Y-99238867D01*
X105194552Y-99194552D01*
X105238867Y-99128231D01*
X105250500Y-99069748D01*
X110849500Y-99069748D01*
X110853967Y-99092203D01*
X110861133Y-99128231D01*
X110905447Y-99194552D01*
X110919140Y-99203701D01*
X110971769Y-99238867D01*
X111030252Y-99250500D01*
X111030253Y-99250500D01*
X113069747Y-99250500D01*
X113069748Y-99250500D01*
X113128231Y-99238867D01*
X113194552Y-99194552D01*
X113238867Y-99128231D01*
X113250500Y-99069748D01*
X113250500Y-98437500D01*
X117462001Y-98437500D01*
X117462001Y-98453138D01*
X117462326Y-98459531D01*
X117472518Y-98559305D01*
X117527793Y-98726113D01*
X117620053Y-98875689D01*
X117744310Y-98999946D01*
X117893883Y-99092203D01*
X117970000Y-99117426D01*
X117970000Y-98437500D01*
X117462001Y-98437500D01*
X113250500Y-98437500D01*
X113250500Y-97612014D01*
X113270502Y-97543894D01*
X113287405Y-97522920D01*
X113347825Y-97462500D01*
X117462000Y-97462500D01*
X117970000Y-97462500D01*
X117969999Y-96782572D01*
X118945000Y-96782572D01*
X118945000Y-99117426D01*
X119021116Y-99092203D01*
X119170689Y-98999946D01*
X119294946Y-98875689D01*
X119387204Y-98726117D01*
X119437585Y-98574077D01*
X119477999Y-98515706D01*
X119543556Y-98488450D01*
X119613441Y-98500963D01*
X119665467Y-98549273D01*
X119676119Y-98572095D01*
X119690391Y-98612882D01*
X119691545Y-98616179D01*
X119715970Y-98649273D01*
X119771069Y-98723930D01*
X119878822Y-98803456D01*
X120003197Y-98846976D01*
X120005226Y-98847686D01*
X120035236Y-98850500D01*
X120038170Y-98850500D01*
X120626830Y-98850500D01*
X120629764Y-98850500D01*
X120659774Y-98847686D01*
X120763251Y-98811478D01*
X120786177Y-98803456D01*
X120786177Y-98803455D01*
X120786179Y-98803455D01*
X120893930Y-98723930D01*
X120973455Y-98616179D01*
X120978780Y-98600963D01*
X121000986Y-98537500D01*
X121017686Y-98489774D01*
X121020500Y-98459764D01*
X121020500Y-98401499D01*
X121040502Y-98333379D01*
X121094158Y-98286886D01*
X121146500Y-98275500D01*
X122088500Y-98275500D01*
X122156621Y-98295502D01*
X122203114Y-98349158D01*
X122214500Y-98401500D01*
X122214500Y-98454266D01*
X122214774Y-98457195D01*
X122214775Y-98457201D01*
X122217354Y-98484702D01*
X122262206Y-98612882D01*
X122342849Y-98722150D01*
X122452117Y-98802793D01*
X122580297Y-98847645D01*
X122580298Y-98847645D01*
X122580301Y-98847646D01*
X122610734Y-98850500D01*
X122613687Y-98850500D01*
X123241313Y-98850500D01*
X123244266Y-98850500D01*
X123274699Y-98847646D01*
X123402882Y-98802793D01*
X123512150Y-98722150D01*
X123592793Y-98612882D01*
X123632117Y-98500500D01*
X123637645Y-98484702D01*
X123637645Y-98484701D01*
X123637646Y-98484699D01*
X123640500Y-98454266D01*
X123640500Y-97445734D01*
X123637646Y-97415301D01*
X123635870Y-97410226D01*
X123592793Y-97287117D01*
X123512150Y-97177849D01*
X123402882Y-97097206D01*
X123274702Y-97052354D01*
X123247201Y-97049775D01*
X123247195Y-97049774D01*
X123244266Y-97049500D01*
X122610734Y-97049500D01*
X122607805Y-97049774D01*
X122607798Y-97049775D01*
X122580297Y-97052354D01*
X122452117Y-97097206D01*
X122342849Y-97177849D01*
X122262206Y-97287117D01*
X122217354Y-97415297D01*
X122214775Y-97442798D01*
X122214500Y-97445734D01*
X122214500Y-97448686D01*
X122214500Y-97448687D01*
X122214500Y-97498500D01*
X122194498Y-97566621D01*
X122140842Y-97613114D01*
X122088500Y-97624500D01*
X121146500Y-97624500D01*
X121078379Y-97604498D01*
X121031886Y-97550842D01*
X121020500Y-97498500D01*
X121020500Y-97443169D01*
X121020500Y-97440236D01*
X121017686Y-97410226D01*
X121008447Y-97383822D01*
X120973456Y-97283822D01*
X120893930Y-97176069D01*
X120786177Y-97096543D01*
X120659776Y-97052314D01*
X120632679Y-97049773D01*
X120632671Y-97049772D01*
X120629764Y-97049500D01*
X120035236Y-97049500D01*
X120032329Y-97049772D01*
X120032320Y-97049773D01*
X120005223Y-97052314D01*
X119878822Y-97096543D01*
X119771069Y-97176069D01*
X119691544Y-97283821D01*
X119676118Y-97327906D01*
X119634738Y-97385597D01*
X119568738Y-97411759D01*
X119499070Y-97398084D01*
X119447855Y-97348916D01*
X119437584Y-97325921D01*
X119387204Y-97173883D01*
X119294946Y-97024310D01*
X119170689Y-96900053D01*
X119021114Y-96807794D01*
X118945000Y-96782572D01*
X117969999Y-96782572D01*
X117893885Y-96807794D01*
X117744310Y-96900053D01*
X117620053Y-97024310D01*
X117527793Y-97173886D01*
X117472518Y-97340694D01*
X117462325Y-97440468D01*
X117462000Y-97446858D01*
X117462000Y-97462500D01*
X113347825Y-97462500D01*
X114378230Y-96432095D01*
X115516230Y-95294094D01*
X115524310Y-95286689D01*
X115553194Y-95262455D01*
X115572044Y-95229803D01*
X115577930Y-95220564D01*
X115599554Y-95189684D01*
X115599554Y-95189680D01*
X115600264Y-95188668D01*
X115610372Y-95164266D01*
X115610586Y-95163046D01*
X115610588Y-95163045D01*
X115617131Y-95125932D01*
X115619505Y-95115224D01*
X115629264Y-95078807D01*
X115625980Y-95041272D01*
X115625500Y-95030289D01*
X115625500Y-82367679D01*
X115645502Y-82299558D01*
X115699158Y-82253065D01*
X115726915Y-82244101D01*
X115753231Y-82238867D01*
X115819552Y-82194552D01*
X115863867Y-82128231D01*
X115875500Y-82069748D01*
X115875500Y-82050000D01*
X116617000Y-82050000D01*
X116617000Y-82095222D01*
X116617359Y-82101936D01*
X116623505Y-82159093D01*
X116674554Y-82295962D01*
X116762095Y-82412904D01*
X116879037Y-82500445D01*
X117015906Y-82551494D01*
X117073063Y-82557640D01*
X117079777Y-82558000D01*
X117300000Y-82558000D01*
X117300000Y-82050000D01*
X117700000Y-82050000D01*
X117700000Y-82558000D01*
X117920223Y-82558000D01*
X117926936Y-82557640D01*
X117984093Y-82551494D01*
X118120962Y-82500445D01*
X118237904Y-82412904D01*
X118325445Y-82295962D01*
X118376494Y-82159093D01*
X118382640Y-82101936D01*
X118383000Y-82095222D01*
X118383000Y-82050000D01*
X117700000Y-82050000D01*
X117300000Y-82050000D01*
X116617000Y-82050000D01*
X115875500Y-82050000D01*
X115875500Y-81630252D01*
X115863867Y-81571769D01*
X115863865Y-81571767D01*
X115859453Y-81549582D01*
X115859453Y-81500418D01*
X115863866Y-81478232D01*
X115863867Y-81478231D01*
X115875500Y-81419748D01*
X115875500Y-81297548D01*
X115895502Y-81229428D01*
X115925991Y-81196680D01*
X116037906Y-81112902D01*
X116125445Y-80995962D01*
X116176494Y-80859093D01*
X116182640Y-80801936D01*
X116183000Y-80795222D01*
X116183000Y-80750000D01*
X115367148Y-80750000D01*
X115339111Y-80746841D01*
X115334046Y-80745685D01*
X115281165Y-80749648D01*
X115271749Y-80750000D01*
X115226000Y-80750000D01*
X115157879Y-80729998D01*
X115111386Y-80676342D01*
X115100000Y-80624000D01*
X115100000Y-79842000D01*
X115500000Y-79842000D01*
X115500000Y-80350000D01*
X116183000Y-80350000D01*
X116183000Y-80304777D01*
X116182640Y-80298063D01*
X116176494Y-80240906D01*
X116125445Y-80104037D01*
X116037904Y-79987095D01*
X115920962Y-79899554D01*
X115784093Y-79848505D01*
X115726936Y-79842359D01*
X115720223Y-79842000D01*
X115500000Y-79842000D01*
X115100000Y-79842000D01*
X114879777Y-79842000D01*
X114873059Y-79842360D01*
X114814533Y-79848652D01*
X114744665Y-79836046D01*
X114692703Y-79787667D01*
X114684656Y-79771591D01*
X114674536Y-79747158D01*
X114661658Y-79730376D01*
X114636057Y-79664156D01*
X114650322Y-79594607D01*
X114672519Y-79564583D01*
X115499700Y-78737402D01*
X115562010Y-78703379D01*
X115588793Y-78700500D01*
X115694747Y-78700500D01*
X115694748Y-78700500D01*
X115753231Y-78688867D01*
X115819552Y-78644552D01*
X115863867Y-78578231D01*
X115875500Y-78519748D01*
X115875500Y-78272549D01*
X115895502Y-78204429D01*
X115949158Y-78157936D01*
X116019432Y-78147832D01*
X116084012Y-78177326D01*
X116115020Y-78217879D01*
X116123575Y-78235642D01*
X116123576Y-78235643D01*
X116126275Y-78241247D01*
X116129037Y-78245141D01*
X116133433Y-78249537D01*
X116133434Y-78249538D01*
X116173832Y-78289936D01*
X116177075Y-78293303D01*
X116220180Y-78339759D01*
X116235116Y-78351220D01*
X116479551Y-78595654D01*
X116488966Y-78606190D01*
X116511118Y-78633968D01*
X116511121Y-78633970D01*
X116558340Y-78666163D01*
X116562144Y-78668862D01*
X116608118Y-78702793D01*
X116608120Y-78702793D01*
X116613138Y-78706497D01*
X116617369Y-78708633D01*
X116623323Y-78710469D01*
X116623327Y-78710472D01*
X116677942Y-78727317D01*
X116682405Y-78728787D01*
X116716172Y-78740602D01*
X116736301Y-78747646D01*
X116742186Y-78749705D01*
X116746863Y-78750500D01*
X116753098Y-78750500D01*
X116810199Y-78750500D01*
X116814909Y-78750587D01*
X116872010Y-78752725D01*
X116872012Y-78752724D01*
X116878233Y-78752957D01*
X116896902Y-78750500D01*
X117119153Y-78750500D01*
X117187274Y-78770502D01*
X117233767Y-78824158D01*
X117243871Y-78894432D01*
X117214377Y-78959012D01*
X117195857Y-78976462D01*
X117071717Y-79071717D01*
X116975464Y-79197157D01*
X116914955Y-79343238D01*
X116894318Y-79500000D01*
X116914955Y-79656761D01*
X116975464Y-79802843D01*
X117023461Y-79865393D01*
X117049062Y-79931613D01*
X117049499Y-79942096D01*
X117049500Y-80091959D01*
X117029498Y-80160080D01*
X116993503Y-80196725D01*
X116980447Y-80205448D01*
X116936133Y-80271768D01*
X116924500Y-80330253D01*
X116924500Y-80769748D01*
X116940546Y-80850419D01*
X116940546Y-80899581D01*
X116924500Y-80980251D01*
X116924500Y-81102450D01*
X116904498Y-81170571D01*
X116874009Y-81203318D01*
X116762095Y-81287095D01*
X116674554Y-81404037D01*
X116623505Y-81540906D01*
X116617359Y-81598063D01*
X116617000Y-81604777D01*
X116617000Y-81650000D01*
X117411486Y-81650000D01*
X117414803Y-81650500D01*
X117432098Y-81650500D01*
X118146622Y-81650500D01*
X118160727Y-81651291D01*
X118196035Y-81655270D01*
X118212275Y-81652196D01*
X118235701Y-81650000D01*
X118383001Y-81650000D01*
X118395570Y-81637430D01*
X118403002Y-81612121D01*
X118423303Y-81587873D01*
X118429783Y-81581861D01*
X118445133Y-81570970D01*
X118449535Y-81566567D01*
X118449538Y-81566566D01*
X118489980Y-81526123D01*
X118493294Y-81522931D01*
X118535194Y-81484055D01*
X118535194Y-81484053D01*
X118539761Y-81479817D01*
X118551217Y-81464885D01*
X118945665Y-81070436D01*
X118956183Y-81061037D01*
X118983970Y-81038879D01*
X119016191Y-80991618D01*
X119018855Y-80987863D01*
X119052793Y-80941882D01*
X119052793Y-80941880D01*
X119056501Y-80936857D01*
X119058632Y-80932636D01*
X119060470Y-80926675D01*
X119060472Y-80926673D01*
X119077318Y-80872053D01*
X119078770Y-80867641D01*
X119097646Y-80813699D01*
X119097646Y-80813695D01*
X119099707Y-80807806D01*
X119100500Y-80803140D01*
X119100500Y-80739801D01*
X119100588Y-80735089D01*
X119102725Y-80677990D01*
X119102724Y-80677986D01*
X119102957Y-80671761D01*
X119100499Y-80653092D01*
X119100499Y-79675000D01*
X121295745Y-79675000D01*
X121324633Y-79767706D01*
X121413582Y-79914846D01*
X121535153Y-80036417D01*
X121682293Y-80125366D01*
X121846443Y-80176518D01*
X121850000Y-80176841D01*
X121850000Y-79675000D01*
X122650000Y-79675000D01*
X122650000Y-80176841D01*
X122653556Y-80176518D01*
X122817706Y-80125366D01*
X122964846Y-80036417D01*
X123086417Y-79914846D01*
X123175366Y-79767706D01*
X123204255Y-79675000D01*
X122650000Y-79675000D01*
X121850000Y-79675000D01*
X121295745Y-79675000D01*
X119100499Y-79675000D01*
X119100499Y-79507238D01*
X119100499Y-78388789D01*
X119120501Y-78320672D01*
X119137395Y-78299707D01*
X119299700Y-78137402D01*
X119362010Y-78103379D01*
X119388793Y-78100500D01*
X121631917Y-78100500D01*
X121700038Y-78120502D01*
X121721012Y-78137405D01*
X121736656Y-78153049D01*
X121771029Y-78170563D01*
X121822645Y-78219311D01*
X121839711Y-78288226D01*
X121816811Y-78355427D01*
X121761213Y-78399580D01*
X121751314Y-78403124D01*
X121682296Y-78424631D01*
X121535153Y-78513582D01*
X121413582Y-78635153D01*
X121324633Y-78782293D01*
X121295745Y-78875000D01*
X123204255Y-78875000D01*
X123175366Y-78782293D01*
X123086417Y-78635153D01*
X122964846Y-78513582D01*
X122817706Y-78424633D01*
X122748685Y-78403125D01*
X122689599Y-78363762D01*
X122661175Y-78298703D01*
X122672436Y-78228605D01*
X122719807Y-78175724D01*
X122728942Y-78170577D01*
X122763342Y-78153050D01*
X122795890Y-78120502D01*
X122828988Y-78087405D01*
X122891300Y-78053379D01*
X122918083Y-78050500D01*
X127833760Y-78050500D01*
X127833762Y-78050500D01*
X127934287Y-78035348D01*
X127980739Y-78012977D01*
X128035408Y-78000500D01*
X128194747Y-78000500D01*
X128194748Y-78000500D01*
X128253231Y-77988867D01*
X128319552Y-77944552D01*
X128363867Y-77878231D01*
X128375500Y-77819748D01*
X128375500Y-77595794D01*
X128395502Y-77527673D01*
X128449158Y-77481180D01*
X128519432Y-77471076D01*
X128584012Y-77500570D01*
X128590595Y-77506699D01*
X128979551Y-77895655D01*
X128988966Y-77906190D01*
X129011118Y-77933968D01*
X129011121Y-77933970D01*
X129058327Y-77966154D01*
X129062131Y-77968853D01*
X129108117Y-78002793D01*
X129113132Y-78006494D01*
X129117374Y-78008635D01*
X129123324Y-78010470D01*
X129123327Y-78010472D01*
X129177918Y-78027310D01*
X129182382Y-78028778D01*
X129236300Y-78047646D01*
X129236301Y-78047646D01*
X129242188Y-78049706D01*
X129246858Y-78050500D01*
X129253098Y-78050500D01*
X129310214Y-78050500D01*
X129314924Y-78050587D01*
X129372010Y-78052724D01*
X129372012Y-78052723D01*
X129378236Y-78052956D01*
X129396899Y-78050500D01*
X129548500Y-78050500D01*
X129616621Y-78070502D01*
X129663114Y-78124158D01*
X129674500Y-78176500D01*
X129674499Y-95412984D01*
X129654497Y-95481105D01*
X129637594Y-95502079D01*
X128427079Y-96712595D01*
X128364767Y-96746620D01*
X128337984Y-96749500D01*
X126630252Y-96749500D01*
X126601010Y-96755316D01*
X126571768Y-96761133D01*
X126505447Y-96805447D01*
X126461133Y-96871768D01*
X126461132Y-96871769D01*
X126461133Y-96871769D01*
X126451188Y-96921769D01*
X126449500Y-96930253D01*
X126449500Y-97498500D01*
X126429498Y-97566621D01*
X126375842Y-97613114D01*
X126323500Y-97624500D01*
X125591500Y-97624500D01*
X125523379Y-97604498D01*
X125476886Y-97550842D01*
X125465500Y-97498500D01*
X125465500Y-97448687D01*
X125465500Y-97448686D01*
X125465500Y-97445734D01*
X125462646Y-97415301D01*
X125460870Y-97410226D01*
X125417793Y-97287117D01*
X125337150Y-97177849D01*
X125227882Y-97097206D01*
X125099702Y-97052354D01*
X125072201Y-97049775D01*
X125072195Y-97049774D01*
X125069266Y-97049500D01*
X124435734Y-97049500D01*
X124432805Y-97049774D01*
X124432798Y-97049775D01*
X124405297Y-97052354D01*
X124277117Y-97097206D01*
X124167849Y-97177849D01*
X124087206Y-97287117D01*
X124042354Y-97415297D01*
X124039775Y-97442798D01*
X124039500Y-97445734D01*
X124039500Y-98454266D01*
X124039774Y-98457195D01*
X124039775Y-98457201D01*
X124042354Y-98484702D01*
X124087206Y-98612882D01*
X124167849Y-98722150D01*
X124277117Y-98802793D01*
X124405297Y-98847645D01*
X124405298Y-98847645D01*
X124405301Y-98847646D01*
X124435734Y-98850500D01*
X124438687Y-98850500D01*
X125066313Y-98850500D01*
X125069266Y-98850500D01*
X125099699Y-98847646D01*
X125227882Y-98802793D01*
X125337150Y-98722150D01*
X125417793Y-98612882D01*
X125457117Y-98500500D01*
X125462645Y-98484702D01*
X125462645Y-98484701D01*
X125462646Y-98484699D01*
X125465500Y-98454266D01*
X125465500Y-98401500D01*
X125485502Y-98333379D01*
X125539158Y-98286886D01*
X125591500Y-98275500D01*
X126323500Y-98275500D01*
X126391621Y-98295502D01*
X126438114Y-98349158D01*
X126449500Y-98401500D01*
X126449500Y-98969746D01*
X126461133Y-99028231D01*
X126505447Y-99094552D01*
X126539681Y-99117426D01*
X126571769Y-99138867D01*
X126630252Y-99150500D01*
X126630253Y-99150500D01*
X128669747Y-99150500D01*
X128669748Y-99150500D01*
X128728231Y-99138867D01*
X128794552Y-99094552D01*
X128838867Y-99028231D01*
X128850500Y-98969748D01*
X128850500Y-97262014D01*
X128870502Y-97193894D01*
X128887405Y-97172920D01*
X129511288Y-96549037D01*
X130216230Y-95844094D01*
X130224310Y-95836689D01*
X130253194Y-95812455D01*
X130272044Y-95779803D01*
X130277930Y-95770564D01*
X130299554Y-95739684D01*
X130299554Y-95739680D01*
X130300264Y-95738668D01*
X130310372Y-95714266D01*
X130310586Y-95713046D01*
X130310588Y-95713045D01*
X130317131Y-95675932D01*
X130319505Y-95665224D01*
X130329264Y-95628807D01*
X130325979Y-95591256D01*
X130325500Y-95580276D01*
X130325500Y-88187035D01*
X130325500Y-78117675D01*
X130345501Y-78049558D01*
X130399157Y-78003065D01*
X130426912Y-77994102D01*
X130453231Y-77988867D01*
X130516286Y-77946733D01*
X130584036Y-77925520D01*
X130586286Y-77925500D01*
X132048501Y-77925500D01*
X132116622Y-77945502D01*
X132163115Y-77999158D01*
X132174501Y-78051500D01*
X132174500Y-78156518D01*
X132186650Y-78233231D01*
X132189354Y-78250304D01*
X132237027Y-78343867D01*
X132246951Y-78363344D01*
X132336655Y-78453048D01*
X132336657Y-78453049D01*
X132336658Y-78453050D01*
X132449696Y-78510646D01*
X132543481Y-78525500D01*
X133156518Y-78525499D01*
X133250304Y-78510646D01*
X133363342Y-78453050D01*
X133453050Y-78363342D01*
X133472586Y-78325000D01*
X134245745Y-78325000D01*
X134274633Y-78417706D01*
X134363582Y-78564846D01*
X134485153Y-78686417D01*
X134632293Y-78775366D01*
X134796443Y-78826518D01*
X134800000Y-78826841D01*
X134800000Y-78325000D01*
X134245745Y-78325000D01*
X133472586Y-78325000D01*
X133510646Y-78250304D01*
X133525500Y-78156519D01*
X133525499Y-77693482D01*
X133510646Y-77599696D01*
X133453050Y-77486658D01*
X133453049Y-77486657D01*
X133453048Y-77486655D01*
X133363344Y-77396951D01*
X133250304Y-77339354D01*
X133209965Y-77332965D01*
X133156519Y-77324500D01*
X133156518Y-77324500D01*
X132738764Y-77324500D01*
X132670643Y-77304498D01*
X132666493Y-77301713D01*
X132663674Y-77299739D01*
X132639264Y-77289627D01*
X132638045Y-77289412D01*
X132600927Y-77282866D01*
X132590214Y-77280491D01*
X132575940Y-77276666D01*
X132515319Y-77239713D01*
X132484298Y-77175852D01*
X132492728Y-77105358D01*
X132519454Y-77065870D01*
X132672923Y-76912401D01*
X132735233Y-76878378D01*
X132762016Y-76875499D01*
X133156518Y-76875499D01*
X133250304Y-76860646D01*
X133363342Y-76803050D01*
X133453050Y-76713342D01*
X133475492Y-76669296D01*
X133524240Y-76617682D01*
X133587759Y-76600500D01*
X134462241Y-76600500D01*
X134530362Y-76620502D01*
X134574507Y-76669296D01*
X134586999Y-76693813D01*
X134596951Y-76713344D01*
X134686656Y-76803049D01*
X134721029Y-76820563D01*
X134772645Y-76869311D01*
X134789711Y-76938226D01*
X134766811Y-77005427D01*
X134711213Y-77049580D01*
X134701314Y-77053124D01*
X134632296Y-77074631D01*
X134485153Y-77163582D01*
X134363582Y-77285153D01*
X134274633Y-77432293D01*
X134245745Y-77525000D01*
X135474000Y-77525000D01*
X135542121Y-77545002D01*
X135588614Y-77598658D01*
X135600000Y-77651000D01*
X135600000Y-78826841D01*
X135603556Y-78826518D01*
X135767707Y-78775365D01*
X135883315Y-78705479D01*
X135951960Y-78687355D01*
X136019506Y-78709220D01*
X136064508Y-78764132D01*
X136074500Y-78813307D01*
X136074500Y-96673500D01*
X136054498Y-96741621D01*
X136000842Y-96788114D01*
X135948500Y-96799500D01*
X135180252Y-96799500D01*
X135151010Y-96805316D01*
X135121768Y-96811133D01*
X135055447Y-96855447D01*
X135011133Y-96921768D01*
X135009445Y-96930253D01*
X134999500Y-96980252D01*
X134999500Y-99019748D01*
X135003478Y-99039745D01*
X135011133Y-99078231D01*
X135055447Y-99144552D01*
X135084537Y-99163989D01*
X135121769Y-99188867D01*
X135180252Y-99200500D01*
X135180253Y-99200500D01*
X137219747Y-99200500D01*
X137219748Y-99200500D01*
X137278231Y-99188867D01*
X137344552Y-99144552D01*
X137388867Y-99078231D01*
X137400500Y-99019748D01*
X137400500Y-98795000D01*
X144394500Y-98795000D01*
X144394500Y-98840222D01*
X144394859Y-98846936D01*
X144401005Y-98904093D01*
X144452054Y-99040962D01*
X144539595Y-99157904D01*
X144656537Y-99245445D01*
X144793406Y-99296494D01*
X144850563Y-99302640D01*
X144857277Y-99303000D01*
X144902500Y-99303000D01*
X144902500Y-98795000D01*
X146902500Y-98795000D01*
X146902500Y-99303000D01*
X146947723Y-99303000D01*
X146954436Y-99302640D01*
X147011593Y-99296494D01*
X147148462Y-99245445D01*
X147265404Y-99157904D01*
X147352945Y-99040962D01*
X147403994Y-98904093D01*
X147410140Y-98846936D01*
X147410500Y-98840222D01*
X147410500Y-98795000D01*
X146902500Y-98795000D01*
X144902500Y-98795000D01*
X144394500Y-98795000D01*
X137400500Y-98795000D01*
X137400500Y-97881482D01*
X155098000Y-97881482D01*
X155137192Y-98141508D01*
X155137193Y-98141510D01*
X155214701Y-98392788D01*
X155328798Y-98629710D01*
X155476926Y-98846976D01*
X155476930Y-98846980D01*
X155655790Y-99039746D01*
X155861383Y-99203701D01*
X155861386Y-99203703D01*
X155942441Y-99250500D01*
X156089116Y-99335183D01*
X156333902Y-99431254D01*
X156590272Y-99489769D01*
X156786846Y-99504500D01*
X156789199Y-99504500D01*
X156915801Y-99504500D01*
X156918154Y-99504500D01*
X157114728Y-99489769D01*
X157371098Y-99431254D01*
X157615884Y-99335183D01*
X157843617Y-99203701D01*
X158049210Y-99039746D01*
X158228070Y-98846980D01*
X158248409Y-98817149D01*
X158263509Y-98795000D01*
X158376202Y-98629710D01*
X158490298Y-98392788D01*
X158567808Y-98141508D01*
X158607000Y-97881482D01*
X158607000Y-97618518D01*
X158567808Y-97358492D01*
X158490298Y-97107212D01*
X158485479Y-97097206D01*
X158425071Y-96971768D01*
X158376202Y-96870290D01*
X158336866Y-96812595D01*
X158228073Y-96653023D01*
X158210608Y-96634200D01*
X158049210Y-96460254D01*
X157843617Y-96296299D01*
X157843616Y-96296298D01*
X157843613Y-96296296D01*
X157615884Y-96164817D01*
X157371099Y-96068746D01*
X157114728Y-96010231D01*
X156920496Y-95995675D01*
X156920482Y-95995674D01*
X156918154Y-95995500D01*
X156786846Y-95995500D01*
X156784518Y-95995674D01*
X156784503Y-95995675D01*
X156590271Y-96010231D01*
X156333900Y-96068746D01*
X156089115Y-96164817D01*
X155861386Y-96296296D01*
X155800873Y-96344554D01*
X155655790Y-96460254D01*
X155575090Y-96547227D01*
X155476926Y-96653023D01*
X155328798Y-96870289D01*
X155214701Y-97107211D01*
X155142682Y-97340694D01*
X155137192Y-97358492D01*
X155098000Y-97618518D01*
X155098000Y-97881482D01*
X137400500Y-97881482D01*
X137400500Y-96980252D01*
X137388867Y-96921769D01*
X137355457Y-96871768D01*
X137344552Y-96855447D01*
X137278231Y-96811133D01*
X137278230Y-96811133D01*
X137219748Y-96799500D01*
X137219747Y-96799500D01*
X136851500Y-96799500D01*
X136836174Y-96795000D01*
X144394500Y-96795000D01*
X144902500Y-96795000D01*
X144902500Y-96287000D01*
X146902500Y-96287000D01*
X146902500Y-96795000D01*
X147410500Y-96795000D01*
X147410500Y-96749777D01*
X147410140Y-96743063D01*
X147403994Y-96685906D01*
X147352945Y-96549037D01*
X147265404Y-96432095D01*
X147148462Y-96344554D01*
X147011593Y-96293505D01*
X146954436Y-96287359D01*
X146947723Y-96287000D01*
X146902500Y-96287000D01*
X144902500Y-96287000D01*
X144857277Y-96287000D01*
X144850563Y-96287359D01*
X144793406Y-96293505D01*
X144656537Y-96344554D01*
X144539595Y-96432095D01*
X144452054Y-96549037D01*
X144401005Y-96685906D01*
X144394859Y-96743063D01*
X144394500Y-96749777D01*
X144394500Y-96795000D01*
X136836174Y-96795000D01*
X136783379Y-96779498D01*
X136736886Y-96725842D01*
X136725500Y-96673500D01*
X136725500Y-84755000D01*
X141931400Y-84755000D01*
X141931400Y-85690222D01*
X141931759Y-85696936D01*
X141937905Y-85754093D01*
X141988954Y-85890962D01*
X142076495Y-86007904D01*
X142193437Y-86095445D01*
X142330306Y-86146494D01*
X142387463Y-86152640D01*
X142394177Y-86153000D01*
X143154400Y-86153000D01*
X143154400Y-84755000D01*
X145154400Y-84755000D01*
X145154400Y-86153000D01*
X146334400Y-86153000D01*
X146334400Y-84755000D01*
X148334400Y-84755000D01*
X148334400Y-86153000D01*
X149094623Y-86153000D01*
X149101336Y-86152640D01*
X149158493Y-86146494D01*
X149295362Y-86095445D01*
X149412304Y-86007904D01*
X149499845Y-85890962D01*
X149550894Y-85754093D01*
X149557040Y-85696936D01*
X149557400Y-85690222D01*
X149557400Y-84755000D01*
X148334400Y-84755000D01*
X146334400Y-84755000D01*
X145154400Y-84755000D01*
X143154400Y-84755000D01*
X141931400Y-84755000D01*
X136725500Y-84755000D01*
X136725500Y-83848543D01*
X143264400Y-83848543D01*
X143303298Y-84031540D01*
X143379392Y-84202451D01*
X143489358Y-84353806D01*
X143628390Y-84478991D01*
X143790411Y-84572534D01*
X143968339Y-84630346D01*
X144107761Y-84645000D01*
X144201039Y-84645000D01*
X144340461Y-84630346D01*
X144518389Y-84572534D01*
X144680410Y-84478991D01*
X144819442Y-84353806D01*
X144929408Y-84202451D01*
X145005502Y-84031540D01*
X145044400Y-83848543D01*
X146444400Y-83848543D01*
X146483298Y-84031540D01*
X146559392Y-84202451D01*
X146669358Y-84353806D01*
X146808390Y-84478991D01*
X146970411Y-84572534D01*
X147148339Y-84630346D01*
X147287761Y-84645000D01*
X147381039Y-84645000D01*
X147520461Y-84630346D01*
X147698389Y-84572534D01*
X147860410Y-84478991D01*
X147999442Y-84353806D01*
X148109408Y-84202451D01*
X148185502Y-84031540D01*
X148224400Y-83848543D01*
X148224400Y-83661457D01*
X148185502Y-83478460D01*
X148109408Y-83307549D01*
X147999442Y-83156194D01*
X147860410Y-83031009D01*
X147698389Y-82937466D01*
X147520461Y-82879654D01*
X147381039Y-82865000D01*
X147287761Y-82865000D01*
X147148339Y-82879654D01*
X146970411Y-82937466D01*
X146808390Y-83031009D01*
X146669358Y-83156194D01*
X146559392Y-83307549D01*
X146483298Y-83478460D01*
X146444400Y-83661457D01*
X146444400Y-83848543D01*
X145044400Y-83848543D01*
X145044400Y-83661457D01*
X145005502Y-83478460D01*
X144929408Y-83307549D01*
X144819442Y-83156194D01*
X144680410Y-83031009D01*
X144518389Y-82937466D01*
X144340461Y-82879654D01*
X144201039Y-82865000D01*
X144107761Y-82865000D01*
X143968339Y-82879654D01*
X143790411Y-82937466D01*
X143628390Y-83031009D01*
X143489358Y-83156194D01*
X143379392Y-83307549D01*
X143303298Y-83478460D01*
X143264400Y-83661457D01*
X143264400Y-83848543D01*
X136725500Y-83848543D01*
X136725500Y-82755000D01*
X141931400Y-82755000D01*
X143154400Y-82755000D01*
X143154400Y-81357000D01*
X145154400Y-81357000D01*
X145154400Y-82755000D01*
X146334400Y-82755000D01*
X146334400Y-81357000D01*
X148334400Y-81357000D01*
X148334400Y-82755000D01*
X149557400Y-82755000D01*
X149557400Y-81819777D01*
X149557040Y-81813063D01*
X149550894Y-81755906D01*
X149499845Y-81619037D01*
X149412304Y-81502095D01*
X149295362Y-81414554D01*
X149158493Y-81363505D01*
X149101336Y-81357359D01*
X149094623Y-81357000D01*
X148334400Y-81357000D01*
X146334400Y-81357000D01*
X145154400Y-81357000D01*
X143154400Y-81357000D01*
X142394177Y-81357000D01*
X142387463Y-81357359D01*
X142330306Y-81363505D01*
X142193437Y-81414554D01*
X142076495Y-81502095D01*
X141988954Y-81619037D01*
X141937905Y-81755906D01*
X141931759Y-81813063D01*
X141931400Y-81819777D01*
X141931400Y-82755000D01*
X136725500Y-82755000D01*
X136725500Y-78174748D01*
X142238900Y-78174748D01*
X142239413Y-78177326D01*
X142250533Y-78233231D01*
X142294847Y-78299552D01*
X142326456Y-78320672D01*
X142361169Y-78343867D01*
X142419652Y-78355500D01*
X142419653Y-78355500D01*
X149069147Y-78355500D01*
X149069148Y-78355500D01*
X149127631Y-78343867D01*
X149193952Y-78299552D01*
X149238267Y-78233231D01*
X149249900Y-78174748D01*
X149249900Y-74355252D01*
X149238267Y-74296769D01*
X149217645Y-74265906D01*
X149193952Y-74230447D01*
X149127631Y-74186133D01*
X149127631Y-74186132D01*
X149069148Y-74174500D01*
X145889148Y-74174500D01*
X142419652Y-74174500D01*
X142390410Y-74180316D01*
X142361168Y-74186133D01*
X142294847Y-74230447D01*
X142250533Y-74296768D01*
X142250532Y-74296769D01*
X142250533Y-74296769D01*
X142238900Y-74355252D01*
X142238900Y-78174748D01*
X136725500Y-78174748D01*
X136725500Y-77494711D01*
X136725979Y-77483730D01*
X136727086Y-77471076D01*
X136729263Y-77446193D01*
X136719509Y-77409794D01*
X136717131Y-77399065D01*
X136710373Y-77360738D01*
X136700265Y-77336333D01*
X136699554Y-77335318D01*
X136699554Y-77335316D01*
X136677925Y-77304427D01*
X136672042Y-77295191D01*
X136653194Y-77262545D01*
X136624329Y-77238324D01*
X136616227Y-77230899D01*
X135912404Y-76527076D01*
X135878378Y-76464764D01*
X135875499Y-76437981D01*
X135875499Y-76043481D01*
X135872060Y-76021768D01*
X135860646Y-75949696D01*
X135803050Y-75836658D01*
X135803049Y-75836657D01*
X135803048Y-75836655D01*
X135713344Y-75746951D01*
X135600304Y-75689354D01*
X135600304Y-75689353D01*
X135506519Y-75674500D01*
X135506517Y-75674500D01*
X134893481Y-75674500D01*
X134799696Y-75689354D01*
X134686655Y-75746951D01*
X134596951Y-75836655D01*
X134574508Y-75880703D01*
X134525760Y-75932318D01*
X134462241Y-75949500D01*
X133587759Y-75949500D01*
X133519638Y-75929498D01*
X133475492Y-75880703D01*
X133453050Y-75836658D01*
X133453049Y-75836657D01*
X133453048Y-75836655D01*
X133363344Y-75746951D01*
X133250304Y-75689354D01*
X133250304Y-75689353D01*
X133156519Y-75674500D01*
X133156517Y-75674500D01*
X132543481Y-75674500D01*
X132449696Y-75689354D01*
X132336655Y-75746951D01*
X132246951Y-75836655D01*
X132189354Y-75949695D01*
X132174500Y-76043482D01*
X132174500Y-76437981D01*
X132154498Y-76506102D01*
X132137596Y-76527076D01*
X132077078Y-76587595D01*
X132014766Y-76621620D01*
X131987982Y-76624500D01*
X130701500Y-76624500D01*
X130633379Y-76604498D01*
X130586886Y-76550842D01*
X130575500Y-76498500D01*
X130575500Y-76080253D01*
X130575500Y-76080252D01*
X130563867Y-76021769D01*
X130541610Y-75988460D01*
X130519552Y-75955447D01*
X130453231Y-75911133D01*
X130453231Y-75911132D01*
X130394748Y-75899500D01*
X129605252Y-75899500D01*
X129576010Y-75905316D01*
X129546768Y-75911133D01*
X129480447Y-75955447D01*
X129436133Y-76021768D01*
X129436132Y-76021769D01*
X129436133Y-76021769D01*
X129424500Y-76080252D01*
X129424500Y-76519748D01*
X129436133Y-76578231D01*
X129436134Y-76578232D01*
X129440547Y-76600417D01*
X129440547Y-76649581D01*
X129436133Y-76671768D01*
X129436133Y-76671769D01*
X129424500Y-76730252D01*
X129424500Y-76730253D01*
X129424500Y-76762205D01*
X129404498Y-76830326D01*
X129350842Y-76876819D01*
X129280568Y-76886923D01*
X129215988Y-76857429D01*
X129209405Y-76851300D01*
X129207405Y-76849300D01*
X129173379Y-76786988D01*
X129170500Y-76760205D01*
X129170500Y-74323063D01*
X129170499Y-71841693D01*
X129190501Y-71773576D01*
X129243247Y-71727504D01*
X129343874Y-71680581D01*
X129522037Y-71555830D01*
X129675830Y-71402037D01*
X129800581Y-71223874D01*
X129875805Y-71062556D01*
X129922723Y-71009272D01*
X129991000Y-70989811D01*
X130058960Y-71010353D01*
X130104195Y-71062557D01*
X130179419Y-71223874D01*
X130304172Y-71402040D01*
X130457959Y-71555827D01*
X130457962Y-71555829D01*
X130457963Y-71555830D01*
X130636126Y-71680581D01*
X130833245Y-71772500D01*
X131043331Y-71828792D01*
X131260000Y-71847748D01*
X131476669Y-71828792D01*
X131686755Y-71772500D01*
X131883874Y-71680581D01*
X132062037Y-71555830D01*
X132215830Y-71402037D01*
X132327786Y-71242146D01*
X132383244Y-71197817D01*
X132453863Y-71190508D01*
X132517224Y-71222538D01*
X132553209Y-71283740D01*
X132557000Y-71314415D01*
X132557000Y-71662248D01*
X132568632Y-71720730D01*
X132568633Y-71720731D01*
X132612947Y-71787052D01*
X132657262Y-71816662D01*
X132679269Y-71831367D01*
X132737752Y-71843000D01*
X132737753Y-71843000D01*
X134862247Y-71843000D01*
X134862248Y-71843000D01*
X134920731Y-71831367D01*
X134987052Y-71787052D01*
X135031367Y-71720731D01*
X135043000Y-71662248D01*
X135043000Y-69537752D01*
X135031367Y-69479269D01*
X135007914Y-69444170D01*
X134987052Y-69412947D01*
X134920731Y-69368633D01*
X134920730Y-69368632D01*
X134862248Y-69357000D01*
X134862247Y-69357000D01*
X134376500Y-69357000D01*
X134308379Y-69336998D01*
X134261886Y-69283342D01*
X134250500Y-69231000D01*
X134250500Y-65769000D01*
X134270502Y-65700879D01*
X134324158Y-65654386D01*
X134376500Y-65643000D01*
X134862247Y-65643000D01*
X134862248Y-65643000D01*
X134920731Y-65631367D01*
X134987052Y-65587052D01*
X135031367Y-65520731D01*
X135043000Y-65462248D01*
X135043000Y-63337752D01*
X135031367Y-63279269D01*
X135016662Y-63257261D01*
X134987052Y-63212947D01*
X134920731Y-63168633D01*
X134883639Y-63161255D01*
X134862248Y-63157000D01*
X132737752Y-63157000D01*
X132716361Y-63161255D01*
X132679268Y-63168633D01*
X132612947Y-63212947D01*
X132568633Y-63279268D01*
X132557000Y-63337753D01*
X132557000Y-63685583D01*
X132536998Y-63753704D01*
X132483342Y-63800197D01*
X132413068Y-63810301D01*
X132348488Y-63780807D01*
X132327787Y-63757854D01*
X132215827Y-63597959D01*
X132062040Y-63444172D01*
X131883874Y-63319419D01*
X131686754Y-63227499D01*
X131476669Y-63171208D01*
X131260000Y-63152252D01*
X131043330Y-63171208D01*
X130833245Y-63227499D01*
X130636125Y-63319419D01*
X130457959Y-63444172D01*
X130304172Y-63597959D01*
X130179417Y-63776127D01*
X130160694Y-63816280D01*
X130113777Y-63869565D01*
X130045499Y-63889025D01*
X129977540Y-63868483D01*
X129931474Y-63814460D01*
X129920500Y-63763029D01*
X129920500Y-62500644D01*
X129920634Y-62494825D01*
X129924356Y-62414319D01*
X129921708Y-62395335D01*
X129920500Y-62377928D01*
X129920500Y-61555890D01*
X129923450Y-61537803D01*
X129922004Y-61537602D01*
X129923616Y-61526036D01*
X129923618Y-61526033D01*
X129926266Y-61507044D01*
X129929864Y-61489987D01*
X129935115Y-61471536D01*
X129939722Y-61421813D01*
X129941328Y-61410306D01*
X129950500Y-61361243D01*
X129950500Y-61342071D01*
X129951708Y-61324663D01*
X129954356Y-61305681D01*
X129950634Y-61225173D01*
X129950500Y-61219354D01*
X129950500Y-60574200D01*
X141931400Y-60574200D01*
X141931400Y-61509422D01*
X141931759Y-61516136D01*
X141937905Y-61573293D01*
X141988954Y-61710162D01*
X142076495Y-61827104D01*
X142193437Y-61914645D01*
X142330306Y-61965694D01*
X142387463Y-61971840D01*
X142394177Y-61972200D01*
X143154400Y-61972200D01*
X143154400Y-60574200D01*
X145154400Y-60574200D01*
X145154400Y-61972200D01*
X146334400Y-61972200D01*
X146334400Y-60574200D01*
X148334400Y-60574200D01*
X148334400Y-61972200D01*
X149094623Y-61972200D01*
X149101336Y-61971840D01*
X149158493Y-61965694D01*
X149295362Y-61914645D01*
X149412304Y-61827104D01*
X149499845Y-61710162D01*
X149550894Y-61573293D01*
X149557040Y-61516136D01*
X149557400Y-61509422D01*
X149557400Y-60574200D01*
X148334400Y-60574200D01*
X146334400Y-60574200D01*
X145154400Y-60574200D01*
X143154400Y-60574200D01*
X141931400Y-60574200D01*
X129950500Y-60574200D01*
X129950500Y-60138758D01*
X129941328Y-60089692D01*
X129939721Y-60078166D01*
X129935115Y-60028469D01*
X129935115Y-60028464D01*
X129921447Y-59980430D01*
X129918789Y-59969124D01*
X129909618Y-59920060D01*
X129891589Y-59873522D01*
X129887890Y-59862486D01*
X129874230Y-59814475D01*
X129874228Y-59814470D01*
X129851971Y-59769772D01*
X129847279Y-59759146D01*
X129829245Y-59712595D01*
X129802966Y-59670153D01*
X129801623Y-59667743D01*
X143264400Y-59667743D01*
X143303298Y-59850740D01*
X143379392Y-60021651D01*
X143489358Y-60173006D01*
X143628390Y-60298191D01*
X143790411Y-60391734D01*
X143968339Y-60449546D01*
X144107761Y-60464200D01*
X144201039Y-60464200D01*
X144340461Y-60449546D01*
X144518389Y-60391734D01*
X144680410Y-60298191D01*
X144819442Y-60173006D01*
X144929408Y-60021651D01*
X145005502Y-59850740D01*
X145044400Y-59667743D01*
X146444400Y-59667743D01*
X146483298Y-59850740D01*
X146559392Y-60021651D01*
X146669358Y-60173006D01*
X146808390Y-60298191D01*
X146970411Y-60391734D01*
X147148339Y-60449546D01*
X147287761Y-60464200D01*
X147381039Y-60464200D01*
X147520461Y-60449546D01*
X147698389Y-60391734D01*
X147860410Y-60298191D01*
X147999442Y-60173006D01*
X148109408Y-60021651D01*
X148185502Y-59850740D01*
X148224400Y-59667743D01*
X148224400Y-59480657D01*
X148185502Y-59297660D01*
X148109408Y-59126749D01*
X147999442Y-58975394D01*
X147860410Y-58850209D01*
X147698389Y-58756666D01*
X147520461Y-58698854D01*
X147381039Y-58684200D01*
X147287761Y-58684200D01*
X147148339Y-58698854D01*
X146970411Y-58756666D01*
X146808390Y-58850209D01*
X146669358Y-58975394D01*
X146559392Y-59126749D01*
X146483298Y-59297660D01*
X146444400Y-59480657D01*
X146444400Y-59667743D01*
X145044400Y-59667743D01*
X145044400Y-59480657D01*
X145005502Y-59297660D01*
X144929408Y-59126749D01*
X144819442Y-58975394D01*
X144680410Y-58850209D01*
X144518389Y-58756666D01*
X144340461Y-58698854D01*
X144201039Y-58684200D01*
X144107761Y-58684200D01*
X143968339Y-58698854D01*
X143790411Y-58756666D01*
X143628390Y-58850209D01*
X143489358Y-58975394D01*
X143379392Y-59126749D01*
X143303298Y-59297660D01*
X143264400Y-59480657D01*
X143264400Y-59667743D01*
X129801623Y-59667743D01*
X129797308Y-59659996D01*
X129784157Y-59633585D01*
X129775060Y-59615314D01*
X129775058Y-59615311D01*
X129744973Y-59575472D01*
X129738404Y-59565881D01*
X129712126Y-59523441D01*
X129712125Y-59523440D01*
X129712124Y-59523438D01*
X129678489Y-59486543D01*
X129671063Y-59477600D01*
X129640981Y-59437764D01*
X129604088Y-59404131D01*
X129595869Y-59395912D01*
X129562233Y-59359016D01*
X129522400Y-59328936D01*
X129513448Y-59321503D01*
X129476562Y-59287876D01*
X129476560Y-59287874D01*
X129434125Y-59261600D01*
X129424523Y-59255023D01*
X129384690Y-59224942D01*
X129340002Y-59202690D01*
X129329842Y-59197030D01*
X129317297Y-59189263D01*
X129287399Y-59170751D01*
X129240861Y-59152722D01*
X129230218Y-59148022D01*
X129185533Y-59125772D01*
X129137513Y-59112109D01*
X129126481Y-59108411D01*
X129079938Y-59090381D01*
X129030879Y-59081210D01*
X129019551Y-59078546D01*
X128971534Y-59064884D01*
X128921834Y-59060278D01*
X128910313Y-59058671D01*
X128861245Y-59049500D01*
X128861243Y-59049500D01*
X128805503Y-59049500D01*
X126922235Y-59049500D01*
X126854114Y-59029498D01*
X126807621Y-58975842D01*
X126797517Y-58905568D01*
X126827011Y-58840988D01*
X126856399Y-58816068D01*
X126897763Y-58790720D01*
X127088131Y-58628131D01*
X127134192Y-58574200D01*
X141931400Y-58574200D01*
X143154400Y-58574200D01*
X143154400Y-57176200D01*
X145154400Y-57176200D01*
X145154400Y-58574200D01*
X146334400Y-58574200D01*
X146334400Y-57176200D01*
X148334400Y-57176200D01*
X148334400Y-58574200D01*
X149557400Y-58574200D01*
X149557400Y-57638977D01*
X149557040Y-57632263D01*
X149550894Y-57575106D01*
X149499845Y-57438237D01*
X149412304Y-57321295D01*
X149295362Y-57233754D01*
X149158493Y-57182705D01*
X149101336Y-57176559D01*
X149094623Y-57176200D01*
X148334400Y-57176200D01*
X146334400Y-57176200D01*
X145154400Y-57176200D01*
X143154400Y-57176200D01*
X142394177Y-57176200D01*
X142387463Y-57176559D01*
X142330306Y-57182705D01*
X142193437Y-57233754D01*
X142076495Y-57321295D01*
X141988954Y-57438237D01*
X141937905Y-57575106D01*
X141931759Y-57632263D01*
X141931400Y-57638977D01*
X141931400Y-58574200D01*
X127134192Y-58574200D01*
X127250720Y-58437763D01*
X127381528Y-58224305D01*
X127477333Y-57993011D01*
X127535776Y-57749578D01*
X127555418Y-57500000D01*
X127535776Y-57250422D01*
X127477333Y-57006989D01*
X127381528Y-56775695D01*
X127250720Y-56562237D01*
X127190688Y-56491948D01*
X127088131Y-56371868D01*
X126897762Y-56209279D01*
X126684308Y-56078473D01*
X126453011Y-55982667D01*
X126202476Y-55922519D01*
X126140907Y-55887167D01*
X126108224Y-55824140D01*
X126114805Y-55753449D01*
X126158559Y-55697538D01*
X126202476Y-55677481D01*
X126209578Y-55675776D01*
X126453011Y-55617333D01*
X126684305Y-55521528D01*
X126897763Y-55390720D01*
X127088131Y-55228131D01*
X127250720Y-55037763D01*
X127381528Y-54824305D01*
X127477333Y-54593011D01*
X127535776Y-54349578D01*
X127555418Y-54100000D01*
X127547071Y-53993946D01*
X142238900Y-53993946D01*
X142250533Y-54052431D01*
X142294847Y-54118752D01*
X142339162Y-54148362D01*
X142361169Y-54163067D01*
X142419652Y-54174700D01*
X142419653Y-54174700D01*
X149069147Y-54174700D01*
X149069148Y-54174700D01*
X149127631Y-54163067D01*
X149193952Y-54118752D01*
X149238267Y-54052431D01*
X149249900Y-53993948D01*
X149249900Y-50174452D01*
X149238267Y-50115969D01*
X149217645Y-50085106D01*
X149193952Y-50049647D01*
X149127631Y-50005333D01*
X149127631Y-50005332D01*
X149069148Y-49993700D01*
X145889148Y-49993700D01*
X142419652Y-49993700D01*
X142390410Y-49999516D01*
X142361168Y-50005333D01*
X142294847Y-50049647D01*
X142250533Y-50115968D01*
X142238900Y-50174453D01*
X142238900Y-53993946D01*
X127547071Y-53993946D01*
X127535776Y-53850422D01*
X127477333Y-53606989D01*
X127381528Y-53375695D01*
X127250720Y-53162237D01*
X127088131Y-52971868D01*
X126897762Y-52809279D01*
X126684308Y-52678473D01*
X126453011Y-52582667D01*
X126209578Y-52524224D01*
X125960000Y-52504582D01*
X125710421Y-52524224D01*
X125466988Y-52582667D01*
X125235691Y-52678473D01*
X125022237Y-52809279D01*
X124831868Y-52971868D01*
X124669279Y-53162237D01*
X124538473Y-53375691D01*
X124442667Y-53606988D01*
X124384224Y-53850421D01*
X124364582Y-54099999D01*
X124384224Y-54349578D01*
X124442667Y-54593011D01*
X124538473Y-54824308D01*
X124669279Y-55037762D01*
X124831868Y-55228131D01*
X125022237Y-55390720D01*
X125235691Y-55521526D01*
X125235693Y-55521526D01*
X125235695Y-55521528D01*
X125466989Y-55617333D01*
X125710422Y-55675776D01*
X125710426Y-55675776D01*
X125717523Y-55677480D01*
X125779092Y-55712832D01*
X125811775Y-55775859D01*
X125805195Y-55846550D01*
X125761441Y-55902461D01*
X125717524Y-55922517D01*
X125466992Y-55982665D01*
X125235691Y-56078473D01*
X125022237Y-56209279D01*
X124831868Y-56371868D01*
X124669279Y-56562237D01*
X124538473Y-56775691D01*
X124442667Y-57006988D01*
X124384224Y-57250421D01*
X124364582Y-57500000D01*
X124384224Y-57749578D01*
X124442667Y-57993011D01*
X124538473Y-58224308D01*
X124669279Y-58437762D01*
X124831868Y-58628131D01*
X125022234Y-58790718D01*
X125063601Y-58816068D01*
X125111232Y-58868716D01*
X125122838Y-58938757D01*
X125094734Y-59003955D01*
X125035844Y-59043608D01*
X124997765Y-59049500D01*
X117366500Y-59049500D01*
X117298379Y-59029498D01*
X117251886Y-58975842D01*
X117240500Y-58923500D01*
X117240500Y-58790718D01*
X117240500Y-58589876D01*
X117260501Y-58521760D01*
X117270681Y-58508058D01*
X117330720Y-58437763D01*
X117461528Y-58224305D01*
X117557333Y-57993011D01*
X117615776Y-57749578D01*
X117635418Y-57500000D01*
X117615776Y-57250422D01*
X117557333Y-57006989D01*
X117461528Y-56775695D01*
X117330720Y-56562237D01*
X117270687Y-56491947D01*
X117241657Y-56427158D01*
X117240500Y-56410118D01*
X117240500Y-55189880D01*
X117260502Y-55121759D01*
X117270681Y-55108058D01*
X117330720Y-55037763D01*
X117461528Y-54824305D01*
X117557333Y-54593011D01*
X117615776Y-54349578D01*
X117635418Y-54100000D01*
X117615776Y-53850422D01*
X117557333Y-53606989D01*
X117461528Y-53375695D01*
X117330720Y-53162237D01*
X117330719Y-53162237D01*
X117168131Y-52971868D01*
X116977762Y-52809279D01*
X116764308Y-52678473D01*
X116533011Y-52582667D01*
X116289578Y-52524224D01*
X116040000Y-52504582D01*
X115790421Y-52524224D01*
X115546988Y-52582667D01*
X115315691Y-52678473D01*
X115102237Y-52809279D01*
X114911868Y-52971868D01*
X114749279Y-53162237D01*
X114618473Y-53375691D01*
X114522667Y-53606988D01*
X114464224Y-53850421D01*
X114444582Y-54099999D01*
X114464224Y-54349578D01*
X114522667Y-54593011D01*
X114618473Y-54824308D01*
X114749279Y-55037763D01*
X114809310Y-55108050D01*
X114838341Y-55172840D01*
X114839499Y-55189880D01*
X114839500Y-56410118D01*
X114819498Y-56478239D01*
X114809312Y-56491948D01*
X114749277Y-56562240D01*
X114618473Y-56775691D01*
X114522667Y-57006988D01*
X114464224Y-57250421D01*
X114444582Y-57500000D01*
X114464224Y-57749578D01*
X114522667Y-57993011D01*
X114618473Y-58224308D01*
X114749277Y-58437759D01*
X114749278Y-58437761D01*
X114749280Y-58437763D01*
X114809312Y-58508051D01*
X114838342Y-58572839D01*
X114839500Y-58589880D01*
X114839500Y-58923500D01*
X114819498Y-58991621D01*
X114765842Y-59038114D01*
X114713500Y-59049500D01*
X114138754Y-59049500D01*
X114089686Y-59058671D01*
X114078166Y-59060278D01*
X114028466Y-59064884D01*
X113980447Y-59078546D01*
X113969124Y-59081209D01*
X113920060Y-59090381D01*
X113873521Y-59108410D01*
X113862493Y-59112106D01*
X113814470Y-59125770D01*
X113769785Y-59148021D01*
X113759143Y-59152721D01*
X113712598Y-59170753D01*
X113670151Y-59197034D01*
X113659990Y-59202693D01*
X113615312Y-59224941D01*
X113575477Y-59255022D01*
X113565879Y-59261596D01*
X113523440Y-59287873D01*
X113486550Y-59321503D01*
X113477600Y-59328935D01*
X113437763Y-59359019D01*
X113404132Y-59395909D01*
X113395909Y-59404132D01*
X113359019Y-59437763D01*
X113328935Y-59477600D01*
X113321503Y-59486550D01*
X113287873Y-59523440D01*
X113261596Y-59565879D01*
X113255022Y-59575477D01*
X113224941Y-59615312D01*
X113202693Y-59659990D01*
X113197034Y-59670151D01*
X113170753Y-59712598D01*
X113152721Y-59759143D01*
X113148021Y-59769785D01*
X113125770Y-59814470D01*
X113112106Y-59862493D01*
X113108410Y-59873521D01*
X113090381Y-59920060D01*
X113081209Y-59969124D01*
X113078546Y-59980447D01*
X113064884Y-60028466D01*
X113060278Y-60078166D01*
X113058671Y-60089686D01*
X113049500Y-60138754D01*
X113049500Y-60969354D01*
X113049366Y-60975173D01*
X113045644Y-61055681D01*
X113048292Y-61074663D01*
X113049500Y-61092071D01*
X113049500Y-61111245D01*
X113058671Y-61160313D01*
X113060278Y-61171834D01*
X113064884Y-61221533D01*
X113070132Y-61239978D01*
X113073732Y-61257046D01*
X113076380Y-61276031D01*
X113082472Y-61294204D01*
X113086856Y-61311082D01*
X113089396Y-61324663D01*
X113090383Y-61329945D01*
X113108413Y-61376487D01*
X113112109Y-61387512D01*
X113114688Y-61396574D01*
X113119500Y-61431063D01*
X113119499Y-62087927D01*
X113118291Y-62105330D01*
X113115643Y-62124312D01*
X113119365Y-62204824D01*
X113119499Y-62210642D01*
X113119499Y-64061153D01*
X113115206Y-64093762D01*
X113091208Y-64183326D01*
X113072252Y-64400000D01*
X113091208Y-64616669D01*
X113147499Y-64826754D01*
X113239419Y-65023874D01*
X113364172Y-65202040D01*
X113517959Y-65355827D01*
X113517962Y-65355829D01*
X113517963Y-65355830D01*
X113696126Y-65480581D01*
X113893245Y-65572500D01*
X114103331Y-65628792D01*
X114320000Y-65647748D01*
X114536669Y-65628792D01*
X114746755Y-65572500D01*
X114943874Y-65480581D01*
X115122037Y-65355830D01*
X115275830Y-65202037D01*
X115400581Y-65023874D01*
X115419305Y-64983719D01*
X115466222Y-64930435D01*
X115534500Y-64910974D01*
X115602460Y-64931516D01*
X115648525Y-64985539D01*
X115659500Y-65036970D01*
X115659500Y-69763029D01*
X115639498Y-69831150D01*
X115585842Y-69877643D01*
X115515568Y-69887747D01*
X115450988Y-69858253D01*
X115419306Y-69816280D01*
X115400582Y-69776127D01*
X115275827Y-69597959D01*
X115122040Y-69444172D01*
X114943874Y-69319419D01*
X114746754Y-69227499D01*
X114536669Y-69171208D01*
X114320000Y-69152252D01*
X114103330Y-69171208D01*
X113893245Y-69227499D01*
X113696125Y-69319419D01*
X113517959Y-69444172D01*
X113364172Y-69597959D01*
X113239419Y-69776125D01*
X113147499Y-69973245D01*
X113091208Y-70183330D01*
X113072252Y-70400000D01*
X113091208Y-70616669D01*
X113147499Y-70826754D01*
X113239419Y-71023874D01*
X113364172Y-71202040D01*
X113517959Y-71355827D01*
X113696124Y-71480580D01*
X113696125Y-71480580D01*
X113696126Y-71480581D01*
X113796750Y-71527503D01*
X113850034Y-71574419D01*
X113869499Y-71641697D01*
X113869499Y-75987625D01*
X113868707Y-76001730D01*
X113864729Y-76037036D01*
X113875345Y-76093139D01*
X113876134Y-76097783D01*
X113885579Y-76160444D01*
X113887068Y-76164970D01*
X113916673Y-76220984D01*
X113918797Y-76225190D01*
X113946274Y-76282246D01*
X113949040Y-76286145D01*
X113993819Y-76330924D01*
X113997088Y-76334317D01*
X114040182Y-76380761D01*
X114055115Y-76392219D01*
X114376240Y-76713344D01*
X114687595Y-77024698D01*
X114721620Y-77087011D01*
X114724500Y-77113794D01*
X114724500Y-77219748D01*
X114740546Y-77300417D01*
X114740546Y-77349578D01*
X114724500Y-77430250D01*
X114724500Y-77869748D01*
X114740546Y-77950419D01*
X114740546Y-77999581D01*
X114724500Y-78080251D01*
X114724500Y-78186205D01*
X114704498Y-78254326D01*
X114687595Y-78275301D01*
X113854337Y-79108558D01*
X113843804Y-79117971D01*
X113816028Y-79140122D01*
X113783840Y-79187332D01*
X113781116Y-79191172D01*
X113743511Y-79242125D01*
X113741359Y-79246388D01*
X113722690Y-79306913D01*
X113721218Y-79311387D01*
X113700301Y-79371166D01*
X113699500Y-79375885D01*
X113699500Y-79439213D01*
X113699412Y-79443924D01*
X113697043Y-79507238D01*
X113699500Y-79525898D01*
X113699500Y-79607901D01*
X113679498Y-79676022D01*
X113673463Y-79684605D01*
X113625463Y-79747159D01*
X113564955Y-79893238D01*
X113544318Y-80049999D01*
X113564955Y-80206761D01*
X113625463Y-80352840D01*
X113625464Y-80352841D01*
X113673462Y-80415393D01*
X113699063Y-80481612D01*
X113699500Y-80492097D01*
X113699500Y-80667621D01*
X113698708Y-80681728D01*
X113694729Y-80717036D01*
X113705345Y-80773140D01*
X113706134Y-80777783D01*
X113715579Y-80840444D01*
X113717068Y-80844970D01*
X113746673Y-80900984D01*
X113748797Y-80905190D01*
X113776274Y-80962246D01*
X113779040Y-80966145D01*
X113823819Y-81010924D01*
X113827088Y-81014317D01*
X113870182Y-81060761D01*
X113885115Y-81072219D01*
X114296951Y-81484055D01*
X114687595Y-81874698D01*
X114721620Y-81937011D01*
X114724500Y-81963794D01*
X114724500Y-82069746D01*
X114736133Y-82128231D01*
X114780447Y-82194552D01*
X114824761Y-82224162D01*
X114846769Y-82238867D01*
X114873081Y-82244100D01*
X114935990Y-82277007D01*
X114971123Y-82338701D01*
X114974500Y-82367679D01*
X114974500Y-94862983D01*
X114954498Y-94931104D01*
X114937595Y-94952078D01*
X113077079Y-96812595D01*
X113014767Y-96846620D01*
X112987984Y-96849500D01*
X111030252Y-96849500D01*
X111001010Y-96855316D01*
X110971768Y-96861133D01*
X110905447Y-96905447D01*
X110861133Y-96971768D01*
X110859445Y-96980253D01*
X110849500Y-97030252D01*
X110849500Y-99069748D01*
X105250500Y-99069748D01*
X105250500Y-97030252D01*
X105238867Y-96971769D01*
X105224162Y-96949761D01*
X105194552Y-96905447D01*
X105128231Y-96861133D01*
X105069748Y-96849500D01*
X103030252Y-96849500D01*
X103001010Y-96855316D01*
X102971768Y-96861133D01*
X102905447Y-96905447D01*
X102861133Y-96971768D01*
X102849500Y-97030253D01*
X102849500Y-97473500D01*
X102829498Y-97541621D01*
X102775842Y-97588114D01*
X102723500Y-97599500D01*
X101981511Y-97599500D01*
X101913390Y-97579498D01*
X101866897Y-97525842D01*
X101862582Y-97515115D01*
X101817793Y-97387117D01*
X101737150Y-97277849D01*
X101654179Y-97216614D01*
X101611247Y-97160069D01*
X101603000Y-97115235D01*
X101603000Y-88465462D01*
X101610070Y-88423849D01*
X101617646Y-88402199D01*
X101617646Y-88402196D01*
X101619707Y-88396307D01*
X101620499Y-88391643D01*
X101620499Y-88385405D01*
X101620500Y-88385402D01*
X101620499Y-88328302D01*
X101620587Y-88323589D01*
X101622725Y-88266490D01*
X101622724Y-88266487D01*
X101622957Y-88260267D01*
X101620500Y-88241598D01*
X101620500Y-85971500D01*
X101640502Y-85903379D01*
X101694158Y-85856886D01*
X101746500Y-85845500D01*
X102969747Y-85845500D01*
X102969748Y-85845500D01*
X103028231Y-85833867D01*
X103094552Y-85789552D01*
X103138867Y-85723231D01*
X103150500Y-85664748D01*
X103150500Y-81845252D01*
X103138867Y-81786769D01*
X103118245Y-81755906D01*
X103094552Y-81720447D01*
X103028231Y-81676133D01*
X102969748Y-81664500D01*
X99789748Y-81664500D01*
X96320252Y-81664500D01*
X96291010Y-81670316D01*
X96261768Y-81676133D01*
X96195447Y-81720447D01*
X96151133Y-81786768D01*
X96139500Y-81845253D01*
X96139500Y-85664746D01*
X84000000Y-85664746D01*
X84000000Y-80304231D01*
X84003743Y-78914956D01*
X84008188Y-77265000D01*
X95832000Y-77265000D01*
X95832000Y-78200222D01*
X95832359Y-78206936D01*
X95838505Y-78264093D01*
X95889554Y-78400962D01*
X95977095Y-78517904D01*
X96094037Y-78605445D01*
X96230906Y-78656494D01*
X96288063Y-78662640D01*
X96294777Y-78663000D01*
X97055000Y-78663000D01*
X97055000Y-77265000D01*
X99055000Y-77265000D01*
X99055000Y-78663000D01*
X100235000Y-78663000D01*
X100235000Y-77265000D01*
X102235000Y-77265000D01*
X102235000Y-78663000D01*
X102995223Y-78663000D01*
X103001936Y-78662640D01*
X103059093Y-78656494D01*
X103195962Y-78605445D01*
X103312904Y-78517904D01*
X103400445Y-78400962D01*
X103451494Y-78264093D01*
X103457640Y-78206936D01*
X103458000Y-78200222D01*
X103458000Y-77265000D01*
X102235000Y-77265000D01*
X100235000Y-77265000D01*
X99055000Y-77265000D01*
X97055000Y-77265000D01*
X95832000Y-77265000D01*
X84008188Y-77265000D01*
X84010630Y-76358543D01*
X97165000Y-76358543D01*
X97203898Y-76541540D01*
X97279992Y-76712451D01*
X97389958Y-76863806D01*
X97528990Y-76988991D01*
X97691011Y-77082534D01*
X97868939Y-77140346D01*
X98008361Y-77155000D01*
X98101639Y-77155000D01*
X98241061Y-77140346D01*
X98418989Y-77082534D01*
X98581010Y-76988991D01*
X98720042Y-76863806D01*
X98830008Y-76712451D01*
X98906102Y-76541540D01*
X98945000Y-76358543D01*
X100345000Y-76358543D01*
X100383898Y-76541540D01*
X100459992Y-76712451D01*
X100569958Y-76863806D01*
X100708990Y-76988991D01*
X100871011Y-77082534D01*
X101048939Y-77140346D01*
X101188361Y-77155000D01*
X101281639Y-77155000D01*
X101421061Y-77140346D01*
X101598989Y-77082534D01*
X101761010Y-76988991D01*
X101900042Y-76863806D01*
X102010008Y-76712451D01*
X102086102Y-76541540D01*
X102125000Y-76358543D01*
X102125000Y-76171457D01*
X102086102Y-75988460D01*
X102010008Y-75817549D01*
X101900042Y-75666194D01*
X101761010Y-75541009D01*
X101598989Y-75447466D01*
X101421061Y-75389654D01*
X101281639Y-75375000D01*
X101188361Y-75375000D01*
X101048939Y-75389654D01*
X100871011Y-75447466D01*
X100708990Y-75541009D01*
X100569958Y-75666194D01*
X100459992Y-75817549D01*
X100383898Y-75988460D01*
X100345000Y-76171457D01*
X100345000Y-76358543D01*
X98945000Y-76358543D01*
X98945000Y-76171457D01*
X98906102Y-75988460D01*
X98830008Y-75817549D01*
X98720042Y-75666194D01*
X98581010Y-75541009D01*
X98418989Y-75447466D01*
X98241061Y-75389654D01*
X98101639Y-75375000D01*
X98008361Y-75375000D01*
X97868939Y-75389654D01*
X97691011Y-75447466D01*
X97528990Y-75541009D01*
X97389958Y-75666194D01*
X97279992Y-75817549D01*
X97203898Y-75988460D01*
X97165000Y-76171457D01*
X97165000Y-76358543D01*
X84010630Y-76358543D01*
X84013576Y-75265000D01*
X95832000Y-75265000D01*
X97055000Y-75265000D01*
X97055000Y-73867000D01*
X99055000Y-73867000D01*
X99055000Y-75265000D01*
X100235000Y-75265000D01*
X100235000Y-73867000D01*
X102235000Y-73867000D01*
X102235000Y-75265000D01*
X103458000Y-75265000D01*
X103458000Y-74329777D01*
X103457640Y-74323063D01*
X103451494Y-74265906D01*
X103400445Y-74129037D01*
X103312904Y-74012095D01*
X103195962Y-73924554D01*
X103059093Y-73873505D01*
X103001936Y-73867359D01*
X102995223Y-73867000D01*
X102235000Y-73867000D01*
X100235000Y-73867000D01*
X99055000Y-73867000D01*
X97055000Y-73867000D01*
X96294777Y-73867000D01*
X96288063Y-73867359D01*
X96230906Y-73873505D01*
X96094037Y-73924554D01*
X95977095Y-74012095D01*
X95889554Y-74129037D01*
X95838505Y-74265906D01*
X95832359Y-74323063D01*
X95832000Y-74329777D01*
X95832000Y-75265000D01*
X84013576Y-75265000D01*
X84050703Y-61483948D01*
X96139500Y-61483948D01*
X96144567Y-61509422D01*
X96151133Y-61542431D01*
X96195447Y-61608752D01*
X96239762Y-61638362D01*
X96261769Y-61653067D01*
X96320252Y-61664700D01*
X96320253Y-61664700D01*
X102969747Y-61664700D01*
X102969748Y-61664700D01*
X103028231Y-61653067D01*
X103094552Y-61608752D01*
X103138867Y-61542431D01*
X103150500Y-61483948D01*
X103150500Y-57664452D01*
X103138867Y-57605969D01*
X103118245Y-57575106D01*
X103094552Y-57539647D01*
X103028231Y-57495333D01*
X103028230Y-57495332D01*
X102969748Y-57483700D01*
X99789748Y-57483700D01*
X96320252Y-57483700D01*
X96291010Y-57489516D01*
X96261768Y-57495333D01*
X96195447Y-57539647D01*
X96151133Y-57605968D01*
X96151132Y-57605969D01*
X96151133Y-57605969D01*
X96139500Y-57664452D01*
X96139500Y-61483948D01*
X84050703Y-61483948D01*
X84073332Y-53084200D01*
X95832000Y-53084200D01*
X95832000Y-54019422D01*
X95832359Y-54026136D01*
X95838505Y-54083293D01*
X95889554Y-54220162D01*
X95977095Y-54337104D01*
X96094037Y-54424645D01*
X96230906Y-54475694D01*
X96288063Y-54481840D01*
X96294777Y-54482200D01*
X97055000Y-54482200D01*
X97055000Y-53084200D01*
X99055000Y-53084200D01*
X99055000Y-54482200D01*
X100235000Y-54482200D01*
X100235000Y-53084200D01*
X102235000Y-53084200D01*
X102235000Y-54482200D01*
X102995223Y-54482200D01*
X103001936Y-54481840D01*
X103059093Y-54475694D01*
X103195962Y-54424645D01*
X103312904Y-54337104D01*
X103400445Y-54220162D01*
X103451494Y-54083293D01*
X103457640Y-54026136D01*
X103458000Y-54019422D01*
X103458000Y-53084200D01*
X102235000Y-53084200D01*
X100235000Y-53084200D01*
X99055000Y-53084200D01*
X97055000Y-53084200D01*
X95832000Y-53084200D01*
X84073332Y-53084200D01*
X84075774Y-52177743D01*
X97165000Y-52177743D01*
X97203898Y-52360740D01*
X97279992Y-52531651D01*
X97389958Y-52683006D01*
X97528990Y-52808191D01*
X97691011Y-52901734D01*
X97868939Y-52959546D01*
X98008361Y-52974200D01*
X98101639Y-52974200D01*
X98241061Y-52959546D01*
X98418989Y-52901734D01*
X98581010Y-52808191D01*
X98720042Y-52683006D01*
X98830008Y-52531651D01*
X98906102Y-52360740D01*
X98945000Y-52177743D01*
X100345000Y-52177743D01*
X100383898Y-52360740D01*
X100459992Y-52531651D01*
X100569958Y-52683006D01*
X100708990Y-52808191D01*
X100871011Y-52901734D01*
X101048939Y-52959546D01*
X101188361Y-52974200D01*
X101281639Y-52974200D01*
X101421061Y-52959546D01*
X101598989Y-52901734D01*
X101761010Y-52808191D01*
X101900042Y-52683006D01*
X102010008Y-52531651D01*
X102086102Y-52360740D01*
X102125000Y-52177743D01*
X102125000Y-51990657D01*
X102086102Y-51807660D01*
X102010008Y-51636749D01*
X101900042Y-51485394D01*
X101761010Y-51360209D01*
X101598989Y-51266666D01*
X101421061Y-51208854D01*
X101281639Y-51194200D01*
X101188361Y-51194200D01*
X101048939Y-51208854D01*
X100871011Y-51266666D01*
X100708990Y-51360209D01*
X100569958Y-51485394D01*
X100459992Y-51636749D01*
X100383898Y-51807660D01*
X100345000Y-51990657D01*
X100345000Y-52177743D01*
X98945000Y-52177743D01*
X98945000Y-51990657D01*
X98906102Y-51807660D01*
X98830008Y-51636749D01*
X98720042Y-51485394D01*
X98581010Y-51360209D01*
X98418989Y-51266666D01*
X98241061Y-51208854D01*
X98101639Y-51194200D01*
X98008361Y-51194200D01*
X97868939Y-51208854D01*
X97691011Y-51266666D01*
X97528990Y-51360209D01*
X97389958Y-51485394D01*
X97279992Y-51636749D01*
X97203898Y-51807660D01*
X97165000Y-51990657D01*
X97165000Y-52177743D01*
X84075774Y-52177743D01*
X84078720Y-51084200D01*
X95832000Y-51084200D01*
X97055000Y-51084200D01*
X97055000Y-49686200D01*
X99055000Y-49686200D01*
X99055000Y-51084200D01*
X100235000Y-51084200D01*
X100235000Y-49686200D01*
X102235000Y-49686200D01*
X102235000Y-51084200D01*
X103458000Y-51084200D01*
X103458000Y-50148977D01*
X103457640Y-50142263D01*
X103451494Y-50085106D01*
X103400445Y-49948237D01*
X103312904Y-49831295D01*
X103195962Y-49743754D01*
X103059093Y-49692705D01*
X103001936Y-49686559D01*
X102995223Y-49686200D01*
X102235000Y-49686200D01*
X100235000Y-49686200D01*
X99055000Y-49686200D01*
X97055000Y-49686200D01*
X96294777Y-49686200D01*
X96288063Y-49686559D01*
X96230906Y-49692705D01*
X96094037Y-49743754D01*
X95977095Y-49831295D01*
X95889554Y-49948237D01*
X95838505Y-50085106D01*
X95832359Y-50142263D01*
X95832000Y-50148977D01*
X95832000Y-51084200D01*
X84078720Y-51084200D01*
X84092427Y-45996349D01*
X119149500Y-45996349D01*
X119149501Y-45999264D01*
X119149773Y-46002168D01*
X119149774Y-46002184D01*
X119152354Y-46029697D01*
X119197208Y-46157884D01*
X119277849Y-46267150D01*
X119387117Y-46347793D01*
X119515298Y-46392645D01*
X119515299Y-46392645D01*
X119515302Y-46392646D01*
X119545735Y-46395500D01*
X120654264Y-46395499D01*
X120684698Y-46392646D01*
X120812882Y-46347793D01*
X120922150Y-46267150D01*
X121002793Y-46157882D01*
X121047646Y-46029698D01*
X121050500Y-45999265D01*
X121050500Y-45935000D01*
X121939696Y-45935000D01*
X122015705Y-46092833D01*
X122148806Y-46276032D01*
X122312477Y-46432518D01*
X122349999Y-46457287D01*
X122350000Y-45935000D01*
X123850000Y-45935000D01*
X123850000Y-46455936D01*
X123972873Y-46357948D01*
X124121855Y-46187424D01*
X124237999Y-45993031D01*
X124259779Y-45935000D01*
X123850000Y-45935000D01*
X122350000Y-45935000D01*
X121939696Y-45935000D01*
X121050500Y-45935000D01*
X121050500Y-45258327D01*
X122590000Y-45258327D01*
X122631318Y-45399040D01*
X122710605Y-45522413D01*
X122821438Y-45618451D01*
X122954839Y-45679373D01*
X123063527Y-45695000D01*
X123136473Y-45695000D01*
X123245161Y-45679373D01*
X123378562Y-45618451D01*
X123489395Y-45522413D01*
X123568682Y-45399040D01*
X123610000Y-45258327D01*
X123610000Y-45111673D01*
X123568682Y-44970960D01*
X123489395Y-44847587D01*
X123378562Y-44751549D01*
X123245161Y-44690627D01*
X123136473Y-44675000D01*
X123063527Y-44675000D01*
X122954839Y-44690627D01*
X122821438Y-44751549D01*
X122710605Y-44847587D01*
X122631318Y-44970960D01*
X122590000Y-45111673D01*
X122590000Y-45258327D01*
X121050500Y-45258327D01*
X121050499Y-44435000D01*
X121940221Y-44435000D01*
X122350000Y-44435000D01*
X122350000Y-43914062D01*
X122349999Y-43914061D01*
X122227129Y-44012047D01*
X122078144Y-44182575D01*
X121962000Y-44376968D01*
X121940221Y-44435000D01*
X121050499Y-44435000D01*
X121050499Y-44370736D01*
X121047646Y-44340302D01*
X121002793Y-44212118D01*
X121002791Y-44212115D01*
X120922150Y-44102849D01*
X120812882Y-44022206D01*
X120684701Y-43977354D01*
X120657200Y-43974775D01*
X120657194Y-43974774D01*
X120654265Y-43974500D01*
X120651311Y-43974500D01*
X119548671Y-43974500D01*
X119548649Y-43974500D01*
X119545736Y-43974501D01*
X119542832Y-43974773D01*
X119542815Y-43974774D01*
X119515302Y-43977354D01*
X119387115Y-44022208D01*
X119277849Y-44102849D01*
X119197206Y-44212117D01*
X119152354Y-44340298D01*
X119152354Y-44340302D01*
X119149500Y-44370735D01*
X119149500Y-44373687D01*
X119149500Y-44373688D01*
X119149500Y-45996328D01*
X119149500Y-45996349D01*
X84092427Y-45996349D01*
X84100145Y-43131482D01*
X86245500Y-43131482D01*
X86284692Y-43391508D01*
X86284693Y-43391510D01*
X86362201Y-43642788D01*
X86476298Y-43879710D01*
X86624426Y-44096976D01*
X86640367Y-44114156D01*
X86803290Y-44289746D01*
X87008883Y-44453701D01*
X87236616Y-44585183D01*
X87481402Y-44681254D01*
X87737772Y-44739769D01*
X87934346Y-44754500D01*
X87936699Y-44754500D01*
X88063301Y-44754500D01*
X88065654Y-44754500D01*
X88262228Y-44739769D01*
X88518598Y-44681254D01*
X88763384Y-44585183D01*
X88991117Y-44453701D01*
X89196710Y-44289746D01*
X89375570Y-44096980D01*
X89523702Y-43879710D01*
X89637798Y-43642788D01*
X89715308Y-43391508D01*
X89726314Y-43318490D01*
X116210500Y-43318490D01*
X116249375Y-43501385D01*
X116325427Y-43672200D01*
X116325428Y-43672201D01*
X116435330Y-43823469D01*
X116574286Y-43948586D01*
X116736214Y-44042075D01*
X116821803Y-44069884D01*
X116914044Y-44099855D01*
X117053380Y-44114500D01*
X117056670Y-44114500D01*
X117143330Y-44114500D01*
X117146620Y-44114500D01*
X117285956Y-44099855D01*
X117463785Y-44042075D01*
X117625715Y-43948585D01*
X117665557Y-43912711D01*
X123849999Y-43912711D01*
X123850000Y-44435000D01*
X124260304Y-44435000D01*
X124260303Y-44434999D01*
X124184294Y-44277166D01*
X124051193Y-44093967D01*
X123887519Y-43937478D01*
X123849999Y-43912711D01*
X117665557Y-43912711D01*
X117764669Y-43823470D01*
X117874573Y-43672200D01*
X117950625Y-43501385D01*
X117989500Y-43318490D01*
X125210500Y-43318490D01*
X125249375Y-43501385D01*
X125325427Y-43672200D01*
X125325428Y-43672201D01*
X125435330Y-43823469D01*
X125574286Y-43948586D01*
X125736214Y-44042075D01*
X125821803Y-44069884D01*
X125914044Y-44099855D01*
X126053380Y-44114500D01*
X126056670Y-44114500D01*
X126143330Y-44114500D01*
X126146620Y-44114500D01*
X126285956Y-44099855D01*
X126463785Y-44042075D01*
X126625715Y-43948585D01*
X126764669Y-43823470D01*
X126874573Y-43672200D01*
X126950625Y-43501385D01*
X126989500Y-43318490D01*
X126989500Y-43131510D01*
X126989494Y-43131482D01*
X155245500Y-43131482D01*
X155284692Y-43391508D01*
X155284693Y-43391510D01*
X155362201Y-43642788D01*
X155476298Y-43879710D01*
X155624426Y-44096976D01*
X155640367Y-44114156D01*
X155803290Y-44289746D01*
X156008883Y-44453701D01*
X156236616Y-44585183D01*
X156481402Y-44681254D01*
X156737772Y-44739769D01*
X156934346Y-44754500D01*
X156936699Y-44754500D01*
X157063301Y-44754500D01*
X157065654Y-44754500D01*
X157262228Y-44739769D01*
X157518598Y-44681254D01*
X157763384Y-44585183D01*
X157991117Y-44453701D01*
X158196710Y-44289746D01*
X158375570Y-44096980D01*
X158523702Y-43879710D01*
X158637798Y-43642788D01*
X158715308Y-43391508D01*
X158754500Y-43131482D01*
X158754500Y-42868518D01*
X158715308Y-42608492D01*
X158637798Y-42357212D01*
X158627507Y-42335843D01*
X158582851Y-42243115D01*
X158523702Y-42120290D01*
X158482723Y-42060185D01*
X158375573Y-41903023D01*
X158358108Y-41884200D01*
X158196710Y-41710254D01*
X157991117Y-41546299D01*
X157991116Y-41546298D01*
X157991113Y-41546296D01*
X157763384Y-41414817D01*
X157518599Y-41318746D01*
X157262228Y-41260231D01*
X157067996Y-41245675D01*
X157067982Y-41245674D01*
X157065654Y-41245500D01*
X156934346Y-41245500D01*
X156932018Y-41245674D01*
X156932003Y-41245675D01*
X156737771Y-41260231D01*
X156481400Y-41318746D01*
X156236615Y-41414817D01*
X156008886Y-41546296D01*
X155959087Y-41586010D01*
X155803290Y-41710254D01*
X155722590Y-41797227D01*
X155624426Y-41903023D01*
X155476298Y-42120289D01*
X155362201Y-42357211D01*
X155317721Y-42501415D01*
X155284692Y-42608492D01*
X155245500Y-42868518D01*
X155245500Y-43131482D01*
X126989494Y-43131482D01*
X126950625Y-42948615D01*
X126874573Y-42777800D01*
X126764669Y-42626530D01*
X126744636Y-42608492D01*
X126625713Y-42501413D01*
X126463785Y-42407924D01*
X126285957Y-42350145D01*
X126149888Y-42335843D01*
X126149878Y-42335842D01*
X126146620Y-42335500D01*
X126053380Y-42335500D01*
X126050122Y-42335842D01*
X126050111Y-42335843D01*
X125914042Y-42350145D01*
X125736214Y-42407924D01*
X125574286Y-42501413D01*
X125435330Y-42626530D01*
X125325428Y-42777798D01*
X125285037Y-42868518D01*
X125249375Y-42948615D01*
X125210500Y-43131510D01*
X125210500Y-43318490D01*
X117989500Y-43318490D01*
X117989500Y-43131510D01*
X117950625Y-42948615D01*
X117874573Y-42777800D01*
X117764669Y-42626530D01*
X117744636Y-42608492D01*
X117625713Y-42501413D01*
X117463785Y-42407924D01*
X117285957Y-42350145D01*
X117149888Y-42335843D01*
X117149878Y-42335842D01*
X117146620Y-42335500D01*
X117053380Y-42335500D01*
X117050122Y-42335842D01*
X117050111Y-42335843D01*
X116914042Y-42350145D01*
X116736214Y-42407924D01*
X116574286Y-42501413D01*
X116435330Y-42626530D01*
X116325428Y-42777798D01*
X116285037Y-42868518D01*
X116249375Y-42948615D01*
X116210500Y-43131510D01*
X116210500Y-43318490D01*
X89726314Y-43318490D01*
X89754500Y-43131482D01*
X89754500Y-42868518D01*
X89715308Y-42608492D01*
X89637798Y-42357212D01*
X89627507Y-42335843D01*
X89582851Y-42243114D01*
X89523702Y-42120290D01*
X89482723Y-42060185D01*
X89375573Y-41903023D01*
X89358108Y-41884200D01*
X89196710Y-41710254D01*
X88991117Y-41546299D01*
X88991116Y-41546298D01*
X88991113Y-41546296D01*
X88763384Y-41414817D01*
X88518599Y-41318746D01*
X88262228Y-41260231D01*
X88067996Y-41245675D01*
X88067982Y-41245674D01*
X88065654Y-41245500D01*
X87934346Y-41245500D01*
X87932018Y-41245674D01*
X87932003Y-41245675D01*
X87737771Y-41260231D01*
X87481400Y-41318746D01*
X87236615Y-41414817D01*
X87008886Y-41546296D01*
X86959087Y-41586010D01*
X86803290Y-41710254D01*
X86722590Y-41797227D01*
X86624426Y-41903023D01*
X86476298Y-42120289D01*
X86362201Y-42357211D01*
X86317721Y-42501415D01*
X86284692Y-42608492D01*
X86245500Y-42868518D01*
X86245500Y-43131482D01*
X84100145Y-43131482D01*
X84100381Y-43043879D01*
X84100500Y-43043008D01*
X84100500Y-43002901D01*
X84100634Y-42997081D01*
X84100642Y-42996909D01*
X84116866Y-42646012D01*
X84117940Y-42634428D01*
X84136494Y-42501415D01*
X84166093Y-42289220D01*
X84168227Y-42277809D01*
X84248029Y-41938512D01*
X84251212Y-41927327D01*
X84323968Y-41710254D01*
X84361976Y-41596851D01*
X84366173Y-41586019D01*
X84506969Y-41267145D01*
X84512135Y-41256771D01*
X84681746Y-40952261D01*
X84687858Y-40942388D01*
X84884847Y-40654820D01*
X84891844Y-40645554D01*
X85114528Y-40377387D01*
X85122349Y-40368809D01*
X85368809Y-40122349D01*
X85377387Y-40114528D01*
X85645554Y-39891844D01*
X85654820Y-39884847D01*
X85942388Y-39687858D01*
X85952261Y-39681746D01*
X86256771Y-39512135D01*
X86267145Y-39506969D01*
X86586019Y-39366173D01*
X86596851Y-39361976D01*
X86927336Y-39251209D01*
X86938512Y-39248029D01*
X87277809Y-39168227D01*
X87289220Y-39166093D01*
X87634431Y-39117939D01*
X87646013Y-39116866D01*
X87997101Y-39100634D01*
X88002921Y-39100500D01*
X88026929Y-39100500D01*
X156973071Y-39100500D01*
X156997079Y-39100500D01*
X157002898Y-39100634D01*
G37*
G04 #@! TD.AperFunction*
M02*
