G04 #@! TF.GenerationSoftware,KiCad,Pcbnew,9.0.1*
G04 #@! TF.CreationDate,2025-06-15T22:17:52-07:00*
G04 #@! TF.ProjectId,Power-Secondary,506f7765-722d-4536-9563-6f6e64617279,rev?*
G04 #@! TF.SameCoordinates,Original*
G04 #@! TF.FileFunction,Legend,Bot*
G04 #@! TF.FilePolarity,Positive*
%FSLAX46Y46*%
G04 Gerber Fmt 4.6, Leading zero omitted, Abs format (unit mm)*
G04 Created by KiCad (PCBNEW 9.0.1) date 2025-06-15 22:17:52*
%MOMM*%
%LPD*%
G01*
G04 APERTURE LIST*
G04 Aperture macros list*
%AMRoundRect*
0 Rectangle with rounded corners*
0 $1 Rounding radius*
0 $2 $3 $4 $5 $6 $7 $8 $9 X,Y pos of 4 corners*
0 Add a 4 corners polygon primitive as box body*
4,1,4,$2,$3,$4,$5,$6,$7,$8,$9,$2,$3,0*
0 Add four circle primitives for the rounded corners*
1,1,$1+$1,$2,$3*
1,1,$1+$1,$4,$5*
1,1,$1+$1,$6,$7*
1,1,$1+$1,$8,$9*
0 Add four rect primitives between the rounded corners*
20,1,$1+$1,$2,$3,$4,$5,0*
20,1,$1+$1,$4,$5,$6,$7,0*
20,1,$1+$1,$6,$7,$8,$9,0*
20,1,$1+$1,$8,$9,$2,$3,0*%
G04 Aperture macros list end*
%ADD10C,0.300000*%
%ADD11C,0.150000*%
%ADD12C,0.120000*%
%ADD13C,0.000000*%
%ADD14C,3.000000*%
%ADD15C,1.270000*%
%ADD16RoundRect,0.250001X-0.759999X0.499999X-0.759999X-0.499999X0.759999X-0.499999X0.759999X0.499999X0*%
%ADD17O,2.020000X1.500000*%
%ADD18R,3.780000X3.430000*%
%ADD19R,1.700000X1.700000*%
%ADD20O,1.700000X1.700000*%
%ADD21RoundRect,0.102000X0.600000X-0.600000X0.600000X0.600000X-0.600000X0.600000X-0.600000X-0.600000X0*%
%ADD22C,1.404000*%
%ADD23R,3.430000X3.780000*%
%ADD24RoundRect,0.250000X-0.450000X0.262500X-0.450000X-0.262500X0.450000X-0.262500X0.450000X0.262500X0*%
%ADD25RoundRect,0.250000X-0.262500X-0.450000X0.262500X-0.450000X0.262500X0.450000X-0.262500X0.450000X0*%
%ADD26RoundRect,0.250000X0.450000X-0.262500X0.450000X0.262500X-0.450000X0.262500X-0.450000X-0.262500X0*%
%ADD27R,3.910000X3.810000*%
%ADD28R,0.610000X1.020000*%
%ADD29R,0.610000X1.270000*%
%ADD30RoundRect,0.150000X0.150000X-0.650000X0.150000X0.650000X-0.150000X0.650000X-0.150000X-0.650000X0*%
%ADD31RoundRect,0.150000X-0.587500X-0.150000X0.587500X-0.150000X0.587500X0.150000X-0.587500X0.150000X0*%
%ADD32RoundRect,0.250000X0.475000X-0.250000X0.475000X0.250000X-0.475000X0.250000X-0.475000X-0.250000X0*%
%ADD33RoundRect,0.150000X0.200000X-0.150000X0.200000X0.150000X-0.200000X0.150000X-0.200000X-0.150000X0*%
%ADD34RoundRect,0.250000X0.262500X0.450000X-0.262500X0.450000X-0.262500X-0.450000X0.262500X-0.450000X0*%
%ADD35RoundRect,0.250000X-0.475000X0.250000X-0.475000X-0.250000X0.475000X-0.250000X0.475000X0.250000X0*%
G04 APERTURE END LIST*
D10*
X161045489Y-104200828D02*
X161045489Y-102700828D01*
X161045489Y-102700828D02*
X160688346Y-102700828D01*
X160688346Y-102700828D02*
X160474060Y-102772257D01*
X160474060Y-102772257D02*
X160331203Y-102915114D01*
X160331203Y-102915114D02*
X160259774Y-103057971D01*
X160259774Y-103057971D02*
X160188346Y-103343685D01*
X160188346Y-103343685D02*
X160188346Y-103557971D01*
X160188346Y-103557971D02*
X160259774Y-103843685D01*
X160259774Y-103843685D02*
X160331203Y-103986542D01*
X160331203Y-103986542D02*
X160474060Y-104129400D01*
X160474060Y-104129400D02*
X160688346Y-104200828D01*
X160688346Y-104200828D02*
X161045489Y-104200828D01*
X158974060Y-104129400D02*
X159116917Y-104200828D01*
X159116917Y-104200828D02*
X159402632Y-104200828D01*
X159402632Y-104200828D02*
X159545489Y-104129400D01*
X159545489Y-104129400D02*
X159616917Y-103986542D01*
X159616917Y-103986542D02*
X159616917Y-103415114D01*
X159616917Y-103415114D02*
X159545489Y-103272257D01*
X159545489Y-103272257D02*
X159402632Y-103200828D01*
X159402632Y-103200828D02*
X159116917Y-103200828D01*
X159116917Y-103200828D02*
X158974060Y-103272257D01*
X158974060Y-103272257D02*
X158902632Y-103415114D01*
X158902632Y-103415114D02*
X158902632Y-103557971D01*
X158902632Y-103557971D02*
X159616917Y-103700828D01*
X158331203Y-104129400D02*
X158188346Y-104200828D01*
X158188346Y-104200828D02*
X157902632Y-104200828D01*
X157902632Y-104200828D02*
X157759775Y-104129400D01*
X157759775Y-104129400D02*
X157688346Y-103986542D01*
X157688346Y-103986542D02*
X157688346Y-103915114D01*
X157688346Y-103915114D02*
X157759775Y-103772257D01*
X157759775Y-103772257D02*
X157902632Y-103700828D01*
X157902632Y-103700828D02*
X158116918Y-103700828D01*
X158116918Y-103700828D02*
X158259775Y-103629400D01*
X158259775Y-103629400D02*
X158331203Y-103486542D01*
X158331203Y-103486542D02*
X158331203Y-103415114D01*
X158331203Y-103415114D02*
X158259775Y-103272257D01*
X158259775Y-103272257D02*
X158116918Y-103200828D01*
X158116918Y-103200828D02*
X157902632Y-103200828D01*
X157902632Y-103200828D02*
X157759775Y-103272257D01*
X157045489Y-104200828D02*
X157045489Y-103200828D01*
X157045489Y-102700828D02*
X157116917Y-102772257D01*
X157116917Y-102772257D02*
X157045489Y-102843685D01*
X157045489Y-102843685D02*
X156974060Y-102772257D01*
X156974060Y-102772257D02*
X157045489Y-102700828D01*
X157045489Y-102700828D02*
X157045489Y-102843685D01*
X155688346Y-103200828D02*
X155688346Y-104415114D01*
X155688346Y-104415114D02*
X155759774Y-104557971D01*
X155759774Y-104557971D02*
X155831203Y-104629400D01*
X155831203Y-104629400D02*
X155974060Y-104700828D01*
X155974060Y-104700828D02*
X156188346Y-104700828D01*
X156188346Y-104700828D02*
X156331203Y-104629400D01*
X155688346Y-104129400D02*
X155831203Y-104200828D01*
X155831203Y-104200828D02*
X156116917Y-104200828D01*
X156116917Y-104200828D02*
X156259774Y-104129400D01*
X156259774Y-104129400D02*
X156331203Y-104057971D01*
X156331203Y-104057971D02*
X156402631Y-103915114D01*
X156402631Y-103915114D02*
X156402631Y-103486542D01*
X156402631Y-103486542D02*
X156331203Y-103343685D01*
X156331203Y-103343685D02*
X156259774Y-103272257D01*
X156259774Y-103272257D02*
X156116917Y-103200828D01*
X156116917Y-103200828D02*
X155831203Y-103200828D01*
X155831203Y-103200828D02*
X155688346Y-103272257D01*
X154974060Y-103200828D02*
X154974060Y-104200828D01*
X154974060Y-103343685D02*
X154902631Y-103272257D01*
X154902631Y-103272257D02*
X154759774Y-103200828D01*
X154759774Y-103200828D02*
X154545488Y-103200828D01*
X154545488Y-103200828D02*
X154402631Y-103272257D01*
X154402631Y-103272257D02*
X154331203Y-103415114D01*
X154331203Y-103415114D02*
X154331203Y-104200828D01*
X153045488Y-104129400D02*
X153188345Y-104200828D01*
X153188345Y-104200828D02*
X153474060Y-104200828D01*
X153474060Y-104200828D02*
X153616917Y-104129400D01*
X153616917Y-104129400D02*
X153688345Y-103986542D01*
X153688345Y-103986542D02*
X153688345Y-103415114D01*
X153688345Y-103415114D02*
X153616917Y-103272257D01*
X153616917Y-103272257D02*
X153474060Y-103200828D01*
X153474060Y-103200828D02*
X153188345Y-103200828D01*
X153188345Y-103200828D02*
X153045488Y-103272257D01*
X153045488Y-103272257D02*
X152974060Y-103415114D01*
X152974060Y-103415114D02*
X152974060Y-103557971D01*
X152974060Y-103557971D02*
X153688345Y-103700828D01*
X151688346Y-104200828D02*
X151688346Y-102700828D01*
X151688346Y-104129400D02*
X151831203Y-104200828D01*
X151831203Y-104200828D02*
X152116917Y-104200828D01*
X152116917Y-104200828D02*
X152259774Y-104129400D01*
X152259774Y-104129400D02*
X152331203Y-104057971D01*
X152331203Y-104057971D02*
X152402631Y-103915114D01*
X152402631Y-103915114D02*
X152402631Y-103486542D01*
X152402631Y-103486542D02*
X152331203Y-103343685D01*
X152331203Y-103343685D02*
X152259774Y-103272257D01*
X152259774Y-103272257D02*
X152116917Y-103200828D01*
X152116917Y-103200828D02*
X151831203Y-103200828D01*
X151831203Y-103200828D02*
X151688346Y-103272257D01*
X149831203Y-104200828D02*
X149831203Y-102700828D01*
X149831203Y-103272257D02*
X149688346Y-103200828D01*
X149688346Y-103200828D02*
X149402631Y-103200828D01*
X149402631Y-103200828D02*
X149259774Y-103272257D01*
X149259774Y-103272257D02*
X149188346Y-103343685D01*
X149188346Y-103343685D02*
X149116917Y-103486542D01*
X149116917Y-103486542D02*
X149116917Y-103915114D01*
X149116917Y-103915114D02*
X149188346Y-104057971D01*
X149188346Y-104057971D02*
X149259774Y-104129400D01*
X149259774Y-104129400D02*
X149402631Y-104200828D01*
X149402631Y-104200828D02*
X149688346Y-104200828D01*
X149688346Y-104200828D02*
X149831203Y-104129400D01*
X148616917Y-103200828D02*
X148259774Y-104200828D01*
X147902631Y-103200828D02*
X148259774Y-104200828D01*
X148259774Y-104200828D02*
X148402631Y-104557971D01*
X148402631Y-104557971D02*
X148474060Y-104629400D01*
X148474060Y-104629400D02*
X148616917Y-104700828D01*
X147331203Y-104057971D02*
X147259774Y-104129400D01*
X147259774Y-104129400D02*
X147331203Y-104200828D01*
X147331203Y-104200828D02*
X147402631Y-104129400D01*
X147402631Y-104129400D02*
X147331203Y-104057971D01*
X147331203Y-104057971D02*
X147331203Y-104200828D01*
X147331203Y-103272257D02*
X147259774Y-103343685D01*
X147259774Y-103343685D02*
X147331203Y-103415114D01*
X147331203Y-103415114D02*
X147402631Y-103343685D01*
X147402631Y-103343685D02*
X147331203Y-103272257D01*
X147331203Y-103272257D02*
X147331203Y-103415114D01*
X144974060Y-103415114D02*
X145474060Y-103415114D01*
X145474060Y-104200828D02*
X145474060Y-102700828D01*
X145474060Y-102700828D02*
X144759774Y-102700828D01*
X144188346Y-104200828D02*
X144188346Y-103200828D01*
X144188346Y-103486542D02*
X144116917Y-103343685D01*
X144116917Y-103343685D02*
X144045489Y-103272257D01*
X144045489Y-103272257D02*
X143902631Y-103200828D01*
X143902631Y-103200828D02*
X143759774Y-103200828D01*
X142616918Y-104200828D02*
X142616918Y-103415114D01*
X142616918Y-103415114D02*
X142688346Y-103272257D01*
X142688346Y-103272257D02*
X142831203Y-103200828D01*
X142831203Y-103200828D02*
X143116918Y-103200828D01*
X143116918Y-103200828D02*
X143259775Y-103272257D01*
X142616918Y-104129400D02*
X142759775Y-104200828D01*
X142759775Y-104200828D02*
X143116918Y-104200828D01*
X143116918Y-104200828D02*
X143259775Y-104129400D01*
X143259775Y-104129400D02*
X143331203Y-103986542D01*
X143331203Y-103986542D02*
X143331203Y-103843685D01*
X143331203Y-103843685D02*
X143259775Y-103700828D01*
X143259775Y-103700828D02*
X143116918Y-103629400D01*
X143116918Y-103629400D02*
X142759775Y-103629400D01*
X142759775Y-103629400D02*
X142616918Y-103557971D01*
X141902632Y-103200828D02*
X141902632Y-104200828D01*
X141902632Y-103343685D02*
X141831203Y-103272257D01*
X141831203Y-103272257D02*
X141688346Y-103200828D01*
X141688346Y-103200828D02*
X141474060Y-103200828D01*
X141474060Y-103200828D02*
X141331203Y-103272257D01*
X141331203Y-103272257D02*
X141259775Y-103415114D01*
X141259775Y-103415114D02*
X141259775Y-104200828D01*
X140545489Y-104200828D02*
X140545489Y-102700828D01*
X140402632Y-103629400D02*
X139974060Y-104200828D01*
X139974060Y-103200828D02*
X140545489Y-103772257D01*
X137474060Y-104200828D02*
X138188346Y-104200828D01*
X138188346Y-104200828D02*
X138188346Y-102700828D01*
X136974060Y-104200828D02*
X136974060Y-103200828D01*
X136974060Y-102700828D02*
X137045488Y-102772257D01*
X137045488Y-102772257D02*
X136974060Y-102843685D01*
X136974060Y-102843685D02*
X136902631Y-102772257D01*
X136902631Y-102772257D02*
X136974060Y-102700828D01*
X136974060Y-102700828D02*
X136974060Y-102843685D01*
X133902631Y-104200828D02*
X133974060Y-104200828D01*
X133974060Y-104200828D02*
X134116917Y-104129400D01*
X134116917Y-104129400D02*
X134331202Y-103915114D01*
X134331202Y-103915114D02*
X134688345Y-103486542D01*
X134688345Y-103486542D02*
X134831202Y-103272257D01*
X134831202Y-103272257D02*
X134902631Y-103057971D01*
X134902631Y-103057971D02*
X134902631Y-102915114D01*
X134902631Y-102915114D02*
X134831202Y-102772257D01*
X134831202Y-102772257D02*
X134688345Y-102700828D01*
X134688345Y-102700828D02*
X134616917Y-102700828D01*
X134616917Y-102700828D02*
X134474060Y-102772257D01*
X134474060Y-102772257D02*
X134402631Y-102915114D01*
X134402631Y-102915114D02*
X134402631Y-102986542D01*
X134402631Y-102986542D02*
X134474060Y-103129400D01*
X134474060Y-103129400D02*
X134545488Y-103200828D01*
X134545488Y-103200828D02*
X134974060Y-103486542D01*
X134974060Y-103486542D02*
X135045488Y-103557971D01*
X135045488Y-103557971D02*
X135116917Y-103700828D01*
X135116917Y-103700828D02*
X135116917Y-103915114D01*
X135116917Y-103915114D02*
X135045488Y-104057971D01*
X135045488Y-104057971D02*
X134974060Y-104129400D01*
X134974060Y-104129400D02*
X134831202Y-104200828D01*
X134831202Y-104200828D02*
X134616917Y-104200828D01*
X134616917Y-104200828D02*
X134474060Y-104129400D01*
X134474060Y-104129400D02*
X134402631Y-104057971D01*
X134402631Y-104057971D02*
X134188345Y-103772257D01*
X134188345Y-103772257D02*
X134116917Y-103557971D01*
X134116917Y-103557971D02*
X134116917Y-103415114D01*
X131259774Y-104057971D02*
X131331202Y-104129400D01*
X131331202Y-104129400D02*
X131545488Y-104200828D01*
X131545488Y-104200828D02*
X131688345Y-104200828D01*
X131688345Y-104200828D02*
X131902631Y-104129400D01*
X131902631Y-104129400D02*
X132045488Y-103986542D01*
X132045488Y-103986542D02*
X132116917Y-103843685D01*
X132116917Y-103843685D02*
X132188345Y-103557971D01*
X132188345Y-103557971D02*
X132188345Y-103343685D01*
X132188345Y-103343685D02*
X132116917Y-103057971D01*
X132116917Y-103057971D02*
X132045488Y-102915114D01*
X132045488Y-102915114D02*
X131902631Y-102772257D01*
X131902631Y-102772257D02*
X131688345Y-102700828D01*
X131688345Y-102700828D02*
X131545488Y-102700828D01*
X131545488Y-102700828D02*
X131331202Y-102772257D01*
X131331202Y-102772257D02*
X131259774Y-102843685D01*
X129974060Y-104200828D02*
X129974060Y-103415114D01*
X129974060Y-103415114D02*
X130045488Y-103272257D01*
X130045488Y-103272257D02*
X130188345Y-103200828D01*
X130188345Y-103200828D02*
X130474060Y-103200828D01*
X130474060Y-103200828D02*
X130616917Y-103272257D01*
X129974060Y-104129400D02*
X130116917Y-104200828D01*
X130116917Y-104200828D02*
X130474060Y-104200828D01*
X130474060Y-104200828D02*
X130616917Y-104129400D01*
X130616917Y-104129400D02*
X130688345Y-103986542D01*
X130688345Y-103986542D02*
X130688345Y-103843685D01*
X130688345Y-103843685D02*
X130616917Y-103700828D01*
X130616917Y-103700828D02*
X130474060Y-103629400D01*
X130474060Y-103629400D02*
X130116917Y-103629400D01*
X130116917Y-103629400D02*
X129974060Y-103557971D01*
X129259774Y-104200828D02*
X129259774Y-103200828D01*
X129259774Y-103486542D02*
X129188345Y-103343685D01*
X129188345Y-103343685D02*
X129116917Y-103272257D01*
X129116917Y-103272257D02*
X128974059Y-103200828D01*
X128974059Y-103200828D02*
X128831202Y-103200828D01*
X128116917Y-104200828D02*
X128259774Y-104129400D01*
X128259774Y-104129400D02*
X128331203Y-104057971D01*
X128331203Y-104057971D02*
X128402631Y-103915114D01*
X128402631Y-103915114D02*
X128402631Y-103486542D01*
X128402631Y-103486542D02*
X128331203Y-103343685D01*
X128331203Y-103343685D02*
X128259774Y-103272257D01*
X128259774Y-103272257D02*
X128116917Y-103200828D01*
X128116917Y-103200828D02*
X127902631Y-103200828D01*
X127902631Y-103200828D02*
X127759774Y-103272257D01*
X127759774Y-103272257D02*
X127688346Y-103343685D01*
X127688346Y-103343685D02*
X127616917Y-103486542D01*
X127616917Y-103486542D02*
X127616917Y-103915114D01*
X127616917Y-103915114D02*
X127688346Y-104057971D01*
X127688346Y-104057971D02*
X127759774Y-104129400D01*
X127759774Y-104129400D02*
X127902631Y-104200828D01*
X127902631Y-104200828D02*
X128116917Y-104200828D01*
X126759774Y-104200828D02*
X126902631Y-104129400D01*
X126902631Y-104129400D02*
X126974060Y-103986542D01*
X126974060Y-103986542D02*
X126974060Y-102700828D01*
X126331203Y-103200828D02*
X125974060Y-104200828D01*
X125616917Y-103200828D02*
X125974060Y-104200828D01*
X125974060Y-104200828D02*
X126116917Y-104557971D01*
X126116917Y-104557971D02*
X126188346Y-104629400D01*
X126188346Y-104629400D02*
X126331203Y-104700828D01*
X125045489Y-103200828D02*
X125045489Y-104200828D01*
X125045489Y-103343685D02*
X124974060Y-103272257D01*
X124974060Y-103272257D02*
X124831203Y-103200828D01*
X124831203Y-103200828D02*
X124616917Y-103200828D01*
X124616917Y-103200828D02*
X124474060Y-103272257D01*
X124474060Y-103272257D02*
X124402632Y-103415114D01*
X124402632Y-103415114D02*
X124402632Y-104200828D01*
X122545489Y-104200828D02*
X122545489Y-102700828D01*
X122545489Y-103415114D02*
X121688346Y-103415114D01*
X121688346Y-104200828D02*
X121688346Y-102700828D01*
X120759774Y-104200828D02*
X120902631Y-104129400D01*
X120902631Y-104129400D02*
X120974060Y-104057971D01*
X120974060Y-104057971D02*
X121045488Y-103915114D01*
X121045488Y-103915114D02*
X121045488Y-103486542D01*
X121045488Y-103486542D02*
X120974060Y-103343685D01*
X120974060Y-103343685D02*
X120902631Y-103272257D01*
X120902631Y-103272257D02*
X120759774Y-103200828D01*
X120759774Y-103200828D02*
X120545488Y-103200828D01*
X120545488Y-103200828D02*
X120402631Y-103272257D01*
X120402631Y-103272257D02*
X120331203Y-103343685D01*
X120331203Y-103343685D02*
X120259774Y-103486542D01*
X120259774Y-103486542D02*
X120259774Y-103915114D01*
X120259774Y-103915114D02*
X120331203Y-104057971D01*
X120331203Y-104057971D02*
X120402631Y-104129400D01*
X120402631Y-104129400D02*
X120545488Y-104200828D01*
X120545488Y-104200828D02*
X120759774Y-104200828D01*
X118974060Y-104200828D02*
X118974060Y-103415114D01*
X118974060Y-103415114D02*
X119045488Y-103272257D01*
X119045488Y-103272257D02*
X119188345Y-103200828D01*
X119188345Y-103200828D02*
X119474060Y-103200828D01*
X119474060Y-103200828D02*
X119616917Y-103272257D01*
X118974060Y-104129400D02*
X119116917Y-104200828D01*
X119116917Y-104200828D02*
X119474060Y-104200828D01*
X119474060Y-104200828D02*
X119616917Y-104129400D01*
X119616917Y-104129400D02*
X119688345Y-103986542D01*
X119688345Y-103986542D02*
X119688345Y-103843685D01*
X119688345Y-103843685D02*
X119616917Y-103700828D01*
X119616917Y-103700828D02*
X119474060Y-103629400D01*
X119474060Y-103629400D02*
X119116917Y-103629400D01*
X119116917Y-103629400D02*
X118974060Y-103557971D01*
X118259774Y-103200828D02*
X118259774Y-104200828D01*
X118259774Y-103343685D02*
X118188345Y-103272257D01*
X118188345Y-103272257D02*
X118045488Y-103200828D01*
X118045488Y-103200828D02*
X117831202Y-103200828D01*
X117831202Y-103200828D02*
X117688345Y-103272257D01*
X117688345Y-103272257D02*
X117616917Y-103415114D01*
X117616917Y-103415114D02*
X117616917Y-104200828D01*
X116259774Y-103200828D02*
X116259774Y-104415114D01*
X116259774Y-104415114D02*
X116331202Y-104557971D01*
X116331202Y-104557971D02*
X116402631Y-104629400D01*
X116402631Y-104629400D02*
X116545488Y-104700828D01*
X116545488Y-104700828D02*
X116759774Y-104700828D01*
X116759774Y-104700828D02*
X116902631Y-104629400D01*
X116259774Y-104129400D02*
X116402631Y-104200828D01*
X116402631Y-104200828D02*
X116688345Y-104200828D01*
X116688345Y-104200828D02*
X116831202Y-104129400D01*
X116831202Y-104129400D02*
X116902631Y-104057971D01*
X116902631Y-104057971D02*
X116974059Y-103915114D01*
X116974059Y-103915114D02*
X116974059Y-103486542D01*
X116974059Y-103486542D02*
X116902631Y-103343685D01*
X116902631Y-103343685D02*
X116831202Y-103272257D01*
X116831202Y-103272257D02*
X116688345Y-103200828D01*
X116688345Y-103200828D02*
X116402631Y-103200828D01*
X116402631Y-103200828D02*
X116259774Y-103272257D01*
D11*
X142654819Y-95444642D02*
X142178628Y-95111309D01*
X142654819Y-94873214D02*
X141654819Y-94873214D01*
X141654819Y-94873214D02*
X141654819Y-95254166D01*
X141654819Y-95254166D02*
X141702438Y-95349404D01*
X141702438Y-95349404D02*
X141750057Y-95397023D01*
X141750057Y-95397023D02*
X141845295Y-95444642D01*
X141845295Y-95444642D02*
X141988152Y-95444642D01*
X141988152Y-95444642D02*
X142083390Y-95397023D01*
X142083390Y-95397023D02*
X142131009Y-95349404D01*
X142131009Y-95349404D02*
X142178628Y-95254166D01*
X142178628Y-95254166D02*
X142178628Y-94873214D01*
X141750057Y-95825595D02*
X141702438Y-95873214D01*
X141702438Y-95873214D02*
X141654819Y-95968452D01*
X141654819Y-95968452D02*
X141654819Y-96206547D01*
X141654819Y-96206547D02*
X141702438Y-96301785D01*
X141702438Y-96301785D02*
X141750057Y-96349404D01*
X141750057Y-96349404D02*
X141845295Y-96397023D01*
X141845295Y-96397023D02*
X141940533Y-96397023D01*
X141940533Y-96397023D02*
X142083390Y-96349404D01*
X142083390Y-96349404D02*
X142654819Y-95777976D01*
X142654819Y-95777976D02*
X142654819Y-96397023D01*
X141654819Y-96730357D02*
X141654819Y-97397023D01*
X141654819Y-97397023D02*
X142654819Y-96968452D01*
X109742857Y-70254819D02*
X110076190Y-69778628D01*
X110314285Y-70254819D02*
X110314285Y-69254819D01*
X110314285Y-69254819D02*
X109933333Y-69254819D01*
X109933333Y-69254819D02*
X109838095Y-69302438D01*
X109838095Y-69302438D02*
X109790476Y-69350057D01*
X109790476Y-69350057D02*
X109742857Y-69445295D01*
X109742857Y-69445295D02*
X109742857Y-69588152D01*
X109742857Y-69588152D02*
X109790476Y-69683390D01*
X109790476Y-69683390D02*
X109838095Y-69731009D01*
X109838095Y-69731009D02*
X109933333Y-69778628D01*
X109933333Y-69778628D02*
X110314285Y-69778628D01*
X108790476Y-70254819D02*
X109361904Y-70254819D01*
X109076190Y-70254819D02*
X109076190Y-69254819D01*
X109076190Y-69254819D02*
X109171428Y-69397676D01*
X109171428Y-69397676D02*
X109266666Y-69492914D01*
X109266666Y-69492914D02*
X109361904Y-69540533D01*
X107933333Y-69254819D02*
X108123809Y-69254819D01*
X108123809Y-69254819D02*
X108219047Y-69302438D01*
X108219047Y-69302438D02*
X108266666Y-69350057D01*
X108266666Y-69350057D02*
X108361904Y-69492914D01*
X108361904Y-69492914D02*
X108409523Y-69683390D01*
X108409523Y-69683390D02*
X108409523Y-70064342D01*
X108409523Y-70064342D02*
X108361904Y-70159580D01*
X108361904Y-70159580D02*
X108314285Y-70207200D01*
X108314285Y-70207200D02*
X108219047Y-70254819D01*
X108219047Y-70254819D02*
X108028571Y-70254819D01*
X108028571Y-70254819D02*
X107933333Y-70207200D01*
X107933333Y-70207200D02*
X107885714Y-70159580D01*
X107885714Y-70159580D02*
X107838095Y-70064342D01*
X107838095Y-70064342D02*
X107838095Y-69826247D01*
X107838095Y-69826247D02*
X107885714Y-69731009D01*
X107885714Y-69731009D02*
X107933333Y-69683390D01*
X107933333Y-69683390D02*
X108028571Y-69635771D01*
X108028571Y-69635771D02*
X108219047Y-69635771D01*
X108219047Y-69635771D02*
X108314285Y-69683390D01*
X108314285Y-69683390D02*
X108361904Y-69731009D01*
X108361904Y-69731009D02*
X108409523Y-69826247D01*
X131642857Y-97054819D02*
X131976190Y-96578628D01*
X132214285Y-97054819D02*
X132214285Y-96054819D01*
X132214285Y-96054819D02*
X131833333Y-96054819D01*
X131833333Y-96054819D02*
X131738095Y-96102438D01*
X131738095Y-96102438D02*
X131690476Y-96150057D01*
X131690476Y-96150057D02*
X131642857Y-96245295D01*
X131642857Y-96245295D02*
X131642857Y-96388152D01*
X131642857Y-96388152D02*
X131690476Y-96483390D01*
X131690476Y-96483390D02*
X131738095Y-96531009D01*
X131738095Y-96531009D02*
X131833333Y-96578628D01*
X131833333Y-96578628D02*
X132214285Y-96578628D01*
X131261904Y-96150057D02*
X131214285Y-96102438D01*
X131214285Y-96102438D02*
X131119047Y-96054819D01*
X131119047Y-96054819D02*
X130880952Y-96054819D01*
X130880952Y-96054819D02*
X130785714Y-96102438D01*
X130785714Y-96102438D02*
X130738095Y-96150057D01*
X130738095Y-96150057D02*
X130690476Y-96245295D01*
X130690476Y-96245295D02*
X130690476Y-96340533D01*
X130690476Y-96340533D02*
X130738095Y-96483390D01*
X130738095Y-96483390D02*
X131309523Y-97054819D01*
X131309523Y-97054819D02*
X130690476Y-97054819D01*
X130357142Y-96054819D02*
X129738095Y-96054819D01*
X129738095Y-96054819D02*
X130071428Y-96435771D01*
X130071428Y-96435771D02*
X129928571Y-96435771D01*
X129928571Y-96435771D02*
X129833333Y-96483390D01*
X129833333Y-96483390D02*
X129785714Y-96531009D01*
X129785714Y-96531009D02*
X129738095Y-96626247D01*
X129738095Y-96626247D02*
X129738095Y-96864342D01*
X129738095Y-96864342D02*
X129785714Y-96959580D01*
X129785714Y-96959580D02*
X129833333Y-97007200D01*
X129833333Y-97007200D02*
X129928571Y-97054819D01*
X129928571Y-97054819D02*
X130214285Y-97054819D01*
X130214285Y-97054819D02*
X130309523Y-97007200D01*
X130309523Y-97007200D02*
X130357142Y-96959580D01*
X176545057Y-77634761D02*
X176497438Y-77539523D01*
X176497438Y-77539523D02*
X176402200Y-77444285D01*
X176402200Y-77444285D02*
X176259342Y-77301428D01*
X176259342Y-77301428D02*
X176211723Y-77206190D01*
X176211723Y-77206190D02*
X176211723Y-77110952D01*
X176449819Y-77158571D02*
X176402200Y-77063333D01*
X176402200Y-77063333D02*
X176306961Y-76968095D01*
X176306961Y-76968095D02*
X176116485Y-76920476D01*
X176116485Y-76920476D02*
X175783152Y-76920476D01*
X175783152Y-76920476D02*
X175592676Y-76968095D01*
X175592676Y-76968095D02*
X175497438Y-77063333D01*
X175497438Y-77063333D02*
X175449819Y-77158571D01*
X175449819Y-77158571D02*
X175449819Y-77349047D01*
X175449819Y-77349047D02*
X175497438Y-77444285D01*
X175497438Y-77444285D02*
X175592676Y-77539523D01*
X175592676Y-77539523D02*
X175783152Y-77587142D01*
X175783152Y-77587142D02*
X176116485Y-77587142D01*
X176116485Y-77587142D02*
X176306961Y-77539523D01*
X176306961Y-77539523D02*
X176402200Y-77444285D01*
X176402200Y-77444285D02*
X176449819Y-77349047D01*
X176449819Y-77349047D02*
X176449819Y-77158571D01*
X175449819Y-77920476D02*
X175449819Y-78587142D01*
X175449819Y-78587142D02*
X176449819Y-78158571D01*
X154129819Y-86438095D02*
X154939342Y-86438095D01*
X154939342Y-86438095D02*
X155034580Y-86485714D01*
X155034580Y-86485714D02*
X155082200Y-86533333D01*
X155082200Y-86533333D02*
X155129819Y-86628571D01*
X155129819Y-86628571D02*
X155129819Y-86819047D01*
X155129819Y-86819047D02*
X155082200Y-86914285D01*
X155082200Y-86914285D02*
X155034580Y-86961904D01*
X155034580Y-86961904D02*
X154939342Y-87009523D01*
X154939342Y-87009523D02*
X154129819Y-87009523D01*
X154463152Y-87914285D02*
X155129819Y-87914285D01*
X154082200Y-87676190D02*
X154796485Y-87438095D01*
X154796485Y-87438095D02*
X154796485Y-88057142D01*
X152442857Y-97154819D02*
X152776190Y-96678628D01*
X153014285Y-97154819D02*
X153014285Y-96154819D01*
X153014285Y-96154819D02*
X152633333Y-96154819D01*
X152633333Y-96154819D02*
X152538095Y-96202438D01*
X152538095Y-96202438D02*
X152490476Y-96250057D01*
X152490476Y-96250057D02*
X152442857Y-96345295D01*
X152442857Y-96345295D02*
X152442857Y-96488152D01*
X152442857Y-96488152D02*
X152490476Y-96583390D01*
X152490476Y-96583390D02*
X152538095Y-96631009D01*
X152538095Y-96631009D02*
X152633333Y-96678628D01*
X152633333Y-96678628D02*
X153014285Y-96678628D01*
X152061904Y-96250057D02*
X152014285Y-96202438D01*
X152014285Y-96202438D02*
X151919047Y-96154819D01*
X151919047Y-96154819D02*
X151680952Y-96154819D01*
X151680952Y-96154819D02*
X151585714Y-96202438D01*
X151585714Y-96202438D02*
X151538095Y-96250057D01*
X151538095Y-96250057D02*
X151490476Y-96345295D01*
X151490476Y-96345295D02*
X151490476Y-96440533D01*
X151490476Y-96440533D02*
X151538095Y-96583390D01*
X151538095Y-96583390D02*
X152109523Y-97154819D01*
X152109523Y-97154819D02*
X151490476Y-97154819D01*
X150871428Y-96154819D02*
X150776190Y-96154819D01*
X150776190Y-96154819D02*
X150680952Y-96202438D01*
X150680952Y-96202438D02*
X150633333Y-96250057D01*
X150633333Y-96250057D02*
X150585714Y-96345295D01*
X150585714Y-96345295D02*
X150538095Y-96535771D01*
X150538095Y-96535771D02*
X150538095Y-96773866D01*
X150538095Y-96773866D02*
X150585714Y-96964342D01*
X150585714Y-96964342D02*
X150633333Y-97059580D01*
X150633333Y-97059580D02*
X150680952Y-97107200D01*
X150680952Y-97107200D02*
X150776190Y-97154819D01*
X150776190Y-97154819D02*
X150871428Y-97154819D01*
X150871428Y-97154819D02*
X150966666Y-97107200D01*
X150966666Y-97107200D02*
X151014285Y-97059580D01*
X151014285Y-97059580D02*
X151061904Y-96964342D01*
X151061904Y-96964342D02*
X151109523Y-96773866D01*
X151109523Y-96773866D02*
X151109523Y-96535771D01*
X151109523Y-96535771D02*
X151061904Y-96345295D01*
X151061904Y-96345295D02*
X151014285Y-96250057D01*
X151014285Y-96250057D02*
X150966666Y-96202438D01*
X150966666Y-96202438D02*
X150871428Y-96154819D01*
X141895238Y-76450057D02*
X141990476Y-76402438D01*
X141990476Y-76402438D02*
X142085714Y-76307200D01*
X142085714Y-76307200D02*
X142228571Y-76164342D01*
X142228571Y-76164342D02*
X142323809Y-76116723D01*
X142323809Y-76116723D02*
X142419047Y-76116723D01*
X142371428Y-76354819D02*
X142466666Y-76307200D01*
X142466666Y-76307200D02*
X142561904Y-76211961D01*
X142561904Y-76211961D02*
X142609523Y-76021485D01*
X142609523Y-76021485D02*
X142609523Y-75688152D01*
X142609523Y-75688152D02*
X142561904Y-75497676D01*
X142561904Y-75497676D02*
X142466666Y-75402438D01*
X142466666Y-75402438D02*
X142371428Y-75354819D01*
X142371428Y-75354819D02*
X142180952Y-75354819D01*
X142180952Y-75354819D02*
X142085714Y-75402438D01*
X142085714Y-75402438D02*
X141990476Y-75497676D01*
X141990476Y-75497676D02*
X141942857Y-75688152D01*
X141942857Y-75688152D02*
X141942857Y-76021485D01*
X141942857Y-76021485D02*
X141990476Y-76211961D01*
X141990476Y-76211961D02*
X142085714Y-76307200D01*
X142085714Y-76307200D02*
X142180952Y-76354819D01*
X142180952Y-76354819D02*
X142371428Y-76354819D01*
X141371428Y-75783390D02*
X141466666Y-75735771D01*
X141466666Y-75735771D02*
X141514285Y-75688152D01*
X141514285Y-75688152D02*
X141561904Y-75592914D01*
X141561904Y-75592914D02*
X141561904Y-75545295D01*
X141561904Y-75545295D02*
X141514285Y-75450057D01*
X141514285Y-75450057D02*
X141466666Y-75402438D01*
X141466666Y-75402438D02*
X141371428Y-75354819D01*
X141371428Y-75354819D02*
X141180952Y-75354819D01*
X141180952Y-75354819D02*
X141085714Y-75402438D01*
X141085714Y-75402438D02*
X141038095Y-75450057D01*
X141038095Y-75450057D02*
X140990476Y-75545295D01*
X140990476Y-75545295D02*
X140990476Y-75592914D01*
X140990476Y-75592914D02*
X141038095Y-75688152D01*
X141038095Y-75688152D02*
X141085714Y-75735771D01*
X141085714Y-75735771D02*
X141180952Y-75783390D01*
X141180952Y-75783390D02*
X141371428Y-75783390D01*
X141371428Y-75783390D02*
X141466666Y-75831009D01*
X141466666Y-75831009D02*
X141514285Y-75878628D01*
X141514285Y-75878628D02*
X141561904Y-75973866D01*
X141561904Y-75973866D02*
X141561904Y-76164342D01*
X141561904Y-76164342D02*
X141514285Y-76259580D01*
X141514285Y-76259580D02*
X141466666Y-76307200D01*
X141466666Y-76307200D02*
X141371428Y-76354819D01*
X141371428Y-76354819D02*
X141180952Y-76354819D01*
X141180952Y-76354819D02*
X141085714Y-76307200D01*
X141085714Y-76307200D02*
X141038095Y-76259580D01*
X141038095Y-76259580D02*
X140990476Y-76164342D01*
X140990476Y-76164342D02*
X140990476Y-75973866D01*
X140990476Y-75973866D02*
X141038095Y-75878628D01*
X141038095Y-75878628D02*
X141085714Y-75831009D01*
X141085714Y-75831009D02*
X141180952Y-75783390D01*
X145942857Y-85654819D02*
X146276190Y-85178628D01*
X146514285Y-85654819D02*
X146514285Y-84654819D01*
X146514285Y-84654819D02*
X146133333Y-84654819D01*
X146133333Y-84654819D02*
X146038095Y-84702438D01*
X146038095Y-84702438D02*
X145990476Y-84750057D01*
X145990476Y-84750057D02*
X145942857Y-84845295D01*
X145942857Y-84845295D02*
X145942857Y-84988152D01*
X145942857Y-84988152D02*
X145990476Y-85083390D01*
X145990476Y-85083390D02*
X146038095Y-85131009D01*
X146038095Y-85131009D02*
X146133333Y-85178628D01*
X146133333Y-85178628D02*
X146514285Y-85178628D01*
X145609523Y-84654819D02*
X144990476Y-84654819D01*
X144990476Y-84654819D02*
X145323809Y-85035771D01*
X145323809Y-85035771D02*
X145180952Y-85035771D01*
X145180952Y-85035771D02*
X145085714Y-85083390D01*
X145085714Y-85083390D02*
X145038095Y-85131009D01*
X145038095Y-85131009D02*
X144990476Y-85226247D01*
X144990476Y-85226247D02*
X144990476Y-85464342D01*
X144990476Y-85464342D02*
X145038095Y-85559580D01*
X145038095Y-85559580D02*
X145085714Y-85607200D01*
X145085714Y-85607200D02*
X145180952Y-85654819D01*
X145180952Y-85654819D02*
X145466666Y-85654819D01*
X145466666Y-85654819D02*
X145561904Y-85607200D01*
X145561904Y-85607200D02*
X145609523Y-85559580D01*
X144609523Y-84750057D02*
X144561904Y-84702438D01*
X144561904Y-84702438D02*
X144466666Y-84654819D01*
X144466666Y-84654819D02*
X144228571Y-84654819D01*
X144228571Y-84654819D02*
X144133333Y-84702438D01*
X144133333Y-84702438D02*
X144085714Y-84750057D01*
X144085714Y-84750057D02*
X144038095Y-84845295D01*
X144038095Y-84845295D02*
X144038095Y-84940533D01*
X144038095Y-84940533D02*
X144085714Y-85083390D01*
X144085714Y-85083390D02*
X144657142Y-85654819D01*
X144657142Y-85654819D02*
X144038095Y-85654819D01*
X129442857Y-92154819D02*
X129776190Y-91678628D01*
X130014285Y-92154819D02*
X130014285Y-91154819D01*
X130014285Y-91154819D02*
X129633333Y-91154819D01*
X129633333Y-91154819D02*
X129538095Y-91202438D01*
X129538095Y-91202438D02*
X129490476Y-91250057D01*
X129490476Y-91250057D02*
X129442857Y-91345295D01*
X129442857Y-91345295D02*
X129442857Y-91488152D01*
X129442857Y-91488152D02*
X129490476Y-91583390D01*
X129490476Y-91583390D02*
X129538095Y-91631009D01*
X129538095Y-91631009D02*
X129633333Y-91678628D01*
X129633333Y-91678628D02*
X130014285Y-91678628D01*
X129061904Y-91250057D02*
X129014285Y-91202438D01*
X129014285Y-91202438D02*
X128919047Y-91154819D01*
X128919047Y-91154819D02*
X128680952Y-91154819D01*
X128680952Y-91154819D02*
X128585714Y-91202438D01*
X128585714Y-91202438D02*
X128538095Y-91250057D01*
X128538095Y-91250057D02*
X128490476Y-91345295D01*
X128490476Y-91345295D02*
X128490476Y-91440533D01*
X128490476Y-91440533D02*
X128538095Y-91583390D01*
X128538095Y-91583390D02*
X129109523Y-92154819D01*
X129109523Y-92154819D02*
X128490476Y-92154819D01*
X127538095Y-92154819D02*
X128109523Y-92154819D01*
X127823809Y-92154819D02*
X127823809Y-91154819D01*
X127823809Y-91154819D02*
X127919047Y-91297676D01*
X127919047Y-91297676D02*
X128014285Y-91392914D01*
X128014285Y-91392914D02*
X128109523Y-91440533D01*
X123254819Y-86438095D02*
X124064342Y-86438095D01*
X124064342Y-86438095D02*
X124159580Y-86485714D01*
X124159580Y-86485714D02*
X124207200Y-86533333D01*
X124207200Y-86533333D02*
X124254819Y-86628571D01*
X124254819Y-86628571D02*
X124254819Y-86819047D01*
X124254819Y-86819047D02*
X124207200Y-86914285D01*
X124207200Y-86914285D02*
X124159580Y-86961904D01*
X124159580Y-86961904D02*
X124064342Y-87009523D01*
X124064342Y-87009523D02*
X123254819Y-87009523D01*
X123254819Y-87961904D02*
X123254819Y-87485714D01*
X123254819Y-87485714D02*
X123731009Y-87438095D01*
X123731009Y-87438095D02*
X123683390Y-87485714D01*
X123683390Y-87485714D02*
X123635771Y-87580952D01*
X123635771Y-87580952D02*
X123635771Y-87819047D01*
X123635771Y-87819047D02*
X123683390Y-87914285D01*
X123683390Y-87914285D02*
X123731009Y-87961904D01*
X123731009Y-87961904D02*
X123826247Y-88009523D01*
X123826247Y-88009523D02*
X124064342Y-88009523D01*
X124064342Y-88009523D02*
X124159580Y-87961904D01*
X124159580Y-87961904D02*
X124207200Y-87914285D01*
X124207200Y-87914285D02*
X124254819Y-87819047D01*
X124254819Y-87819047D02*
X124254819Y-87580952D01*
X124254819Y-87580952D02*
X124207200Y-87485714D01*
X124207200Y-87485714D02*
X124159580Y-87438095D01*
X146904819Y-74757142D02*
X146428628Y-74423809D01*
X146904819Y-74185714D02*
X145904819Y-74185714D01*
X145904819Y-74185714D02*
X145904819Y-74566666D01*
X145904819Y-74566666D02*
X145952438Y-74661904D01*
X145952438Y-74661904D02*
X146000057Y-74709523D01*
X146000057Y-74709523D02*
X146095295Y-74757142D01*
X146095295Y-74757142D02*
X146238152Y-74757142D01*
X146238152Y-74757142D02*
X146333390Y-74709523D01*
X146333390Y-74709523D02*
X146381009Y-74661904D01*
X146381009Y-74661904D02*
X146428628Y-74566666D01*
X146428628Y-74566666D02*
X146428628Y-74185714D01*
X146904819Y-75709523D02*
X146904819Y-75138095D01*
X146904819Y-75423809D02*
X145904819Y-75423809D01*
X145904819Y-75423809D02*
X146047676Y-75328571D01*
X146047676Y-75328571D02*
X146142914Y-75233333D01*
X146142914Y-75233333D02*
X146190533Y-75138095D01*
X146904819Y-76661904D02*
X146904819Y-76090476D01*
X146904819Y-76376190D02*
X145904819Y-76376190D01*
X145904819Y-76376190D02*
X146047676Y-76280952D01*
X146047676Y-76280952D02*
X146142914Y-76185714D01*
X146142914Y-76185714D02*
X146190533Y-76090476D01*
X136559580Y-87880952D02*
X136607200Y-87833333D01*
X136607200Y-87833333D02*
X136654819Y-87690476D01*
X136654819Y-87690476D02*
X136654819Y-87595238D01*
X136654819Y-87595238D02*
X136607200Y-87452381D01*
X136607200Y-87452381D02*
X136511961Y-87357143D01*
X136511961Y-87357143D02*
X136416723Y-87309524D01*
X136416723Y-87309524D02*
X136226247Y-87261905D01*
X136226247Y-87261905D02*
X136083390Y-87261905D01*
X136083390Y-87261905D02*
X135892914Y-87309524D01*
X135892914Y-87309524D02*
X135797676Y-87357143D01*
X135797676Y-87357143D02*
X135702438Y-87452381D01*
X135702438Y-87452381D02*
X135654819Y-87595238D01*
X135654819Y-87595238D02*
X135654819Y-87690476D01*
X135654819Y-87690476D02*
X135702438Y-87833333D01*
X135702438Y-87833333D02*
X135750057Y-87880952D01*
X135654819Y-88166667D02*
X135654819Y-88738095D01*
X136654819Y-88452381D02*
X135654819Y-88452381D01*
X136654819Y-89071429D02*
X135654819Y-89071429D01*
X135654819Y-89071429D02*
X136369104Y-89404762D01*
X136369104Y-89404762D02*
X135654819Y-89738095D01*
X135654819Y-89738095D02*
X136654819Y-89738095D01*
X136654819Y-90785714D02*
X136178628Y-90452381D01*
X136654819Y-90214286D02*
X135654819Y-90214286D01*
X135654819Y-90214286D02*
X135654819Y-90595238D01*
X135654819Y-90595238D02*
X135702438Y-90690476D01*
X135702438Y-90690476D02*
X135750057Y-90738095D01*
X135750057Y-90738095D02*
X135845295Y-90785714D01*
X135845295Y-90785714D02*
X135988152Y-90785714D01*
X135988152Y-90785714D02*
X136083390Y-90738095D01*
X136083390Y-90738095D02*
X136131009Y-90690476D01*
X136131009Y-90690476D02*
X136178628Y-90595238D01*
X136178628Y-90595238D02*
X136178628Y-90214286D01*
X136654819Y-91738095D02*
X136654819Y-91166667D01*
X136654819Y-91452381D02*
X135654819Y-91452381D01*
X135654819Y-91452381D02*
X135797676Y-91357143D01*
X135797676Y-91357143D02*
X135892914Y-91261905D01*
X135892914Y-91261905D02*
X135940533Y-91166667D01*
X149666666Y-85654819D02*
X149999999Y-85178628D01*
X150238094Y-85654819D02*
X150238094Y-84654819D01*
X150238094Y-84654819D02*
X149857142Y-84654819D01*
X149857142Y-84654819D02*
X149761904Y-84702438D01*
X149761904Y-84702438D02*
X149714285Y-84750057D01*
X149714285Y-84750057D02*
X149666666Y-84845295D01*
X149666666Y-84845295D02*
X149666666Y-84988152D01*
X149666666Y-84988152D02*
X149714285Y-85083390D01*
X149714285Y-85083390D02*
X149761904Y-85131009D01*
X149761904Y-85131009D02*
X149857142Y-85178628D01*
X149857142Y-85178628D02*
X150238094Y-85178628D01*
X149095237Y-85083390D02*
X149190475Y-85035771D01*
X149190475Y-85035771D02*
X149238094Y-84988152D01*
X149238094Y-84988152D02*
X149285713Y-84892914D01*
X149285713Y-84892914D02*
X149285713Y-84845295D01*
X149285713Y-84845295D02*
X149238094Y-84750057D01*
X149238094Y-84750057D02*
X149190475Y-84702438D01*
X149190475Y-84702438D02*
X149095237Y-84654819D01*
X149095237Y-84654819D02*
X148904761Y-84654819D01*
X148904761Y-84654819D02*
X148809523Y-84702438D01*
X148809523Y-84702438D02*
X148761904Y-84750057D01*
X148761904Y-84750057D02*
X148714285Y-84845295D01*
X148714285Y-84845295D02*
X148714285Y-84892914D01*
X148714285Y-84892914D02*
X148761904Y-84988152D01*
X148761904Y-84988152D02*
X148809523Y-85035771D01*
X148809523Y-85035771D02*
X148904761Y-85083390D01*
X148904761Y-85083390D02*
X149095237Y-85083390D01*
X149095237Y-85083390D02*
X149190475Y-85131009D01*
X149190475Y-85131009D02*
X149238094Y-85178628D01*
X149238094Y-85178628D02*
X149285713Y-85273866D01*
X149285713Y-85273866D02*
X149285713Y-85464342D01*
X149285713Y-85464342D02*
X149238094Y-85559580D01*
X149238094Y-85559580D02*
X149190475Y-85607200D01*
X149190475Y-85607200D02*
X149095237Y-85654819D01*
X149095237Y-85654819D02*
X148904761Y-85654819D01*
X148904761Y-85654819D02*
X148809523Y-85607200D01*
X148809523Y-85607200D02*
X148761904Y-85559580D01*
X148761904Y-85559580D02*
X148714285Y-85464342D01*
X148714285Y-85464342D02*
X148714285Y-85273866D01*
X148714285Y-85273866D02*
X148761904Y-85178628D01*
X148761904Y-85178628D02*
X148809523Y-85131009D01*
X148809523Y-85131009D02*
X148904761Y-85083390D01*
X148042857Y-97154819D02*
X148376190Y-96678628D01*
X148614285Y-97154819D02*
X148614285Y-96154819D01*
X148614285Y-96154819D02*
X148233333Y-96154819D01*
X148233333Y-96154819D02*
X148138095Y-96202438D01*
X148138095Y-96202438D02*
X148090476Y-96250057D01*
X148090476Y-96250057D02*
X148042857Y-96345295D01*
X148042857Y-96345295D02*
X148042857Y-96488152D01*
X148042857Y-96488152D02*
X148090476Y-96583390D01*
X148090476Y-96583390D02*
X148138095Y-96631009D01*
X148138095Y-96631009D02*
X148233333Y-96678628D01*
X148233333Y-96678628D02*
X148614285Y-96678628D01*
X147661904Y-96250057D02*
X147614285Y-96202438D01*
X147614285Y-96202438D02*
X147519047Y-96154819D01*
X147519047Y-96154819D02*
X147280952Y-96154819D01*
X147280952Y-96154819D02*
X147185714Y-96202438D01*
X147185714Y-96202438D02*
X147138095Y-96250057D01*
X147138095Y-96250057D02*
X147090476Y-96345295D01*
X147090476Y-96345295D02*
X147090476Y-96440533D01*
X147090476Y-96440533D02*
X147138095Y-96583390D01*
X147138095Y-96583390D02*
X147709523Y-97154819D01*
X147709523Y-97154819D02*
X147090476Y-97154819D01*
X146233333Y-96488152D02*
X146233333Y-97154819D01*
X146471428Y-96107200D02*
X146709523Y-96821485D01*
X146709523Y-96821485D02*
X146090476Y-96821485D01*
X133266666Y-85654819D02*
X133599999Y-85178628D01*
X133838094Y-85654819D02*
X133838094Y-84654819D01*
X133838094Y-84654819D02*
X133457142Y-84654819D01*
X133457142Y-84654819D02*
X133361904Y-84702438D01*
X133361904Y-84702438D02*
X133314285Y-84750057D01*
X133314285Y-84750057D02*
X133266666Y-84845295D01*
X133266666Y-84845295D02*
X133266666Y-84988152D01*
X133266666Y-84988152D02*
X133314285Y-85083390D01*
X133314285Y-85083390D02*
X133361904Y-85131009D01*
X133361904Y-85131009D02*
X133457142Y-85178628D01*
X133457142Y-85178628D02*
X133838094Y-85178628D01*
X132409523Y-84654819D02*
X132599999Y-84654819D01*
X132599999Y-84654819D02*
X132695237Y-84702438D01*
X132695237Y-84702438D02*
X132742856Y-84750057D01*
X132742856Y-84750057D02*
X132838094Y-84892914D01*
X132838094Y-84892914D02*
X132885713Y-85083390D01*
X132885713Y-85083390D02*
X132885713Y-85464342D01*
X132885713Y-85464342D02*
X132838094Y-85559580D01*
X132838094Y-85559580D02*
X132790475Y-85607200D01*
X132790475Y-85607200D02*
X132695237Y-85654819D01*
X132695237Y-85654819D02*
X132504761Y-85654819D01*
X132504761Y-85654819D02*
X132409523Y-85607200D01*
X132409523Y-85607200D02*
X132361904Y-85559580D01*
X132361904Y-85559580D02*
X132314285Y-85464342D01*
X132314285Y-85464342D02*
X132314285Y-85226247D01*
X132314285Y-85226247D02*
X132361904Y-85131009D01*
X132361904Y-85131009D02*
X132409523Y-85083390D01*
X132409523Y-85083390D02*
X132504761Y-85035771D01*
X132504761Y-85035771D02*
X132695237Y-85035771D01*
X132695237Y-85035771D02*
X132790475Y-85083390D01*
X132790475Y-85083390D02*
X132838094Y-85131009D01*
X132838094Y-85131009D02*
X132885713Y-85226247D01*
X142759580Y-87880952D02*
X142807200Y-87833333D01*
X142807200Y-87833333D02*
X142854819Y-87690476D01*
X142854819Y-87690476D02*
X142854819Y-87595238D01*
X142854819Y-87595238D02*
X142807200Y-87452381D01*
X142807200Y-87452381D02*
X142711961Y-87357143D01*
X142711961Y-87357143D02*
X142616723Y-87309524D01*
X142616723Y-87309524D02*
X142426247Y-87261905D01*
X142426247Y-87261905D02*
X142283390Y-87261905D01*
X142283390Y-87261905D02*
X142092914Y-87309524D01*
X142092914Y-87309524D02*
X141997676Y-87357143D01*
X141997676Y-87357143D02*
X141902438Y-87452381D01*
X141902438Y-87452381D02*
X141854819Y-87595238D01*
X141854819Y-87595238D02*
X141854819Y-87690476D01*
X141854819Y-87690476D02*
X141902438Y-87833333D01*
X141902438Y-87833333D02*
X141950057Y-87880952D01*
X141854819Y-88166667D02*
X141854819Y-88738095D01*
X142854819Y-88452381D02*
X141854819Y-88452381D01*
X142854819Y-89071429D02*
X141854819Y-89071429D01*
X141854819Y-89071429D02*
X142569104Y-89404762D01*
X142569104Y-89404762D02*
X141854819Y-89738095D01*
X141854819Y-89738095D02*
X142854819Y-89738095D01*
X142854819Y-90785714D02*
X142378628Y-90452381D01*
X142854819Y-90214286D02*
X141854819Y-90214286D01*
X141854819Y-90214286D02*
X141854819Y-90595238D01*
X141854819Y-90595238D02*
X141902438Y-90690476D01*
X141902438Y-90690476D02*
X141950057Y-90738095D01*
X141950057Y-90738095D02*
X142045295Y-90785714D01*
X142045295Y-90785714D02*
X142188152Y-90785714D01*
X142188152Y-90785714D02*
X142283390Y-90738095D01*
X142283390Y-90738095D02*
X142331009Y-90690476D01*
X142331009Y-90690476D02*
X142378628Y-90595238D01*
X142378628Y-90595238D02*
X142378628Y-90214286D01*
X141950057Y-91166667D02*
X141902438Y-91214286D01*
X141902438Y-91214286D02*
X141854819Y-91309524D01*
X141854819Y-91309524D02*
X141854819Y-91547619D01*
X141854819Y-91547619D02*
X141902438Y-91642857D01*
X141902438Y-91642857D02*
X141950057Y-91690476D01*
X141950057Y-91690476D02*
X142045295Y-91738095D01*
X142045295Y-91738095D02*
X142140533Y-91738095D01*
X142140533Y-91738095D02*
X142283390Y-91690476D01*
X142283390Y-91690476D02*
X142854819Y-91119048D01*
X142854819Y-91119048D02*
X142854819Y-91738095D01*
X126500000Y-82667735D02*
X126535714Y-82703450D01*
X126535714Y-82703450D02*
X126642857Y-82739164D01*
X126642857Y-82739164D02*
X126714285Y-82739164D01*
X126714285Y-82739164D02*
X126821428Y-82703450D01*
X126821428Y-82703450D02*
X126892857Y-82632021D01*
X126892857Y-82632021D02*
X126928571Y-82560592D01*
X126928571Y-82560592D02*
X126964285Y-82417735D01*
X126964285Y-82417735D02*
X126964285Y-82310592D01*
X126964285Y-82310592D02*
X126928571Y-82167735D01*
X126928571Y-82167735D02*
X126892857Y-82096307D01*
X126892857Y-82096307D02*
X126821428Y-82024878D01*
X126821428Y-82024878D02*
X126714285Y-81989164D01*
X126714285Y-81989164D02*
X126642857Y-81989164D01*
X126642857Y-81989164D02*
X126535714Y-82024878D01*
X126535714Y-82024878D02*
X126500000Y-82060592D01*
X126178571Y-82739164D02*
X126178571Y-81989164D01*
X126178571Y-81989164D02*
X125928571Y-82524878D01*
X125928571Y-82524878D02*
X125678571Y-81989164D01*
X125678571Y-81989164D02*
X125678571Y-82739164D01*
X125178571Y-81989164D02*
X125035714Y-81989164D01*
X125035714Y-81989164D02*
X124964285Y-82024878D01*
X124964285Y-82024878D02*
X124892857Y-82096307D01*
X124892857Y-82096307D02*
X124857142Y-82239164D01*
X124857142Y-82239164D02*
X124857142Y-82489164D01*
X124857142Y-82489164D02*
X124892857Y-82632021D01*
X124892857Y-82632021D02*
X124964285Y-82703450D01*
X124964285Y-82703450D02*
X125035714Y-82739164D01*
X125035714Y-82739164D02*
X125178571Y-82739164D01*
X125178571Y-82739164D02*
X125250000Y-82703450D01*
X125250000Y-82703450D02*
X125321428Y-82632021D01*
X125321428Y-82632021D02*
X125357142Y-82489164D01*
X125357142Y-82489164D02*
X125357142Y-82239164D01*
X125357142Y-82239164D02*
X125321428Y-82096307D01*
X125321428Y-82096307D02*
X125250000Y-82024878D01*
X125250000Y-82024878D02*
X125178571Y-81989164D01*
X124571428Y-82703450D02*
X124464286Y-82739164D01*
X124464286Y-82739164D02*
X124285714Y-82739164D01*
X124285714Y-82739164D02*
X124214286Y-82703450D01*
X124214286Y-82703450D02*
X124178571Y-82667735D01*
X124178571Y-82667735D02*
X124142857Y-82596307D01*
X124142857Y-82596307D02*
X124142857Y-82524878D01*
X124142857Y-82524878D02*
X124178571Y-82453450D01*
X124178571Y-82453450D02*
X124214286Y-82417735D01*
X124214286Y-82417735D02*
X124285714Y-82382021D01*
X124285714Y-82382021D02*
X124428571Y-82346307D01*
X124428571Y-82346307D02*
X124500000Y-82310592D01*
X124500000Y-82310592D02*
X124535714Y-82274878D01*
X124535714Y-82274878D02*
X124571428Y-82203450D01*
X124571428Y-82203450D02*
X124571428Y-82132021D01*
X124571428Y-82132021D02*
X124535714Y-82060592D01*
X124535714Y-82060592D02*
X124500000Y-82024878D01*
X124500000Y-82024878D02*
X124428571Y-81989164D01*
X124428571Y-81989164D02*
X124250000Y-81989164D01*
X124250000Y-81989164D02*
X124142857Y-82024878D01*
X123571428Y-82346307D02*
X123821428Y-82346307D01*
X123821428Y-82739164D02*
X123821428Y-81989164D01*
X123821428Y-81989164D02*
X123464285Y-81989164D01*
X123178571Y-82346307D02*
X122928571Y-82346307D01*
X122821428Y-82739164D02*
X123178571Y-82739164D01*
X123178571Y-82739164D02*
X123178571Y-81989164D01*
X123178571Y-81989164D02*
X122821428Y-81989164D01*
X122607143Y-81989164D02*
X122178572Y-81989164D01*
X122392857Y-82739164D02*
X122392857Y-81989164D01*
X121535714Y-82739164D02*
X121964285Y-82739164D01*
X121750000Y-82739164D02*
X121750000Y-81989164D01*
X121750000Y-81989164D02*
X121821428Y-82096307D01*
X121821428Y-82096307D02*
X121892857Y-82167735D01*
X121892857Y-82167735D02*
X121964285Y-82203450D01*
X109742857Y-72454819D02*
X110076190Y-71978628D01*
X110314285Y-72454819D02*
X110314285Y-71454819D01*
X110314285Y-71454819D02*
X109933333Y-71454819D01*
X109933333Y-71454819D02*
X109838095Y-71502438D01*
X109838095Y-71502438D02*
X109790476Y-71550057D01*
X109790476Y-71550057D02*
X109742857Y-71645295D01*
X109742857Y-71645295D02*
X109742857Y-71788152D01*
X109742857Y-71788152D02*
X109790476Y-71883390D01*
X109790476Y-71883390D02*
X109838095Y-71931009D01*
X109838095Y-71931009D02*
X109933333Y-71978628D01*
X109933333Y-71978628D02*
X110314285Y-71978628D01*
X108790476Y-72454819D02*
X109361904Y-72454819D01*
X109076190Y-72454819D02*
X109076190Y-71454819D01*
X109076190Y-71454819D02*
X109171428Y-71597676D01*
X109171428Y-71597676D02*
X109266666Y-71692914D01*
X109266666Y-71692914D02*
X109361904Y-71740533D01*
X107885714Y-71454819D02*
X108361904Y-71454819D01*
X108361904Y-71454819D02*
X108409523Y-71931009D01*
X108409523Y-71931009D02*
X108361904Y-71883390D01*
X108361904Y-71883390D02*
X108266666Y-71835771D01*
X108266666Y-71835771D02*
X108028571Y-71835771D01*
X108028571Y-71835771D02*
X107933333Y-71883390D01*
X107933333Y-71883390D02*
X107885714Y-71931009D01*
X107885714Y-71931009D02*
X107838095Y-72026247D01*
X107838095Y-72026247D02*
X107838095Y-72264342D01*
X107838095Y-72264342D02*
X107885714Y-72359580D01*
X107885714Y-72359580D02*
X107933333Y-72407200D01*
X107933333Y-72407200D02*
X108028571Y-72454819D01*
X108028571Y-72454819D02*
X108266666Y-72454819D01*
X108266666Y-72454819D02*
X108361904Y-72407200D01*
X108361904Y-72407200D02*
X108409523Y-72359580D01*
X156350000Y-82567735D02*
X156385714Y-82603450D01*
X156385714Y-82603450D02*
X156492857Y-82639164D01*
X156492857Y-82639164D02*
X156564285Y-82639164D01*
X156564285Y-82639164D02*
X156671428Y-82603450D01*
X156671428Y-82603450D02*
X156742857Y-82532021D01*
X156742857Y-82532021D02*
X156778571Y-82460592D01*
X156778571Y-82460592D02*
X156814285Y-82317735D01*
X156814285Y-82317735D02*
X156814285Y-82210592D01*
X156814285Y-82210592D02*
X156778571Y-82067735D01*
X156778571Y-82067735D02*
X156742857Y-81996307D01*
X156742857Y-81996307D02*
X156671428Y-81924878D01*
X156671428Y-81924878D02*
X156564285Y-81889164D01*
X156564285Y-81889164D02*
X156492857Y-81889164D01*
X156492857Y-81889164D02*
X156385714Y-81924878D01*
X156385714Y-81924878D02*
X156350000Y-81960592D01*
X156028571Y-82639164D02*
X156028571Y-81889164D01*
X156028571Y-81889164D02*
X155778571Y-82424878D01*
X155778571Y-82424878D02*
X155528571Y-81889164D01*
X155528571Y-81889164D02*
X155528571Y-82639164D01*
X155028571Y-81889164D02*
X154885714Y-81889164D01*
X154885714Y-81889164D02*
X154814285Y-81924878D01*
X154814285Y-81924878D02*
X154742857Y-81996307D01*
X154742857Y-81996307D02*
X154707142Y-82139164D01*
X154707142Y-82139164D02*
X154707142Y-82389164D01*
X154707142Y-82389164D02*
X154742857Y-82532021D01*
X154742857Y-82532021D02*
X154814285Y-82603450D01*
X154814285Y-82603450D02*
X154885714Y-82639164D01*
X154885714Y-82639164D02*
X155028571Y-82639164D01*
X155028571Y-82639164D02*
X155100000Y-82603450D01*
X155100000Y-82603450D02*
X155171428Y-82532021D01*
X155171428Y-82532021D02*
X155207142Y-82389164D01*
X155207142Y-82389164D02*
X155207142Y-82139164D01*
X155207142Y-82139164D02*
X155171428Y-81996307D01*
X155171428Y-81996307D02*
X155100000Y-81924878D01*
X155100000Y-81924878D02*
X155028571Y-81889164D01*
X154421428Y-82603450D02*
X154314286Y-82639164D01*
X154314286Y-82639164D02*
X154135714Y-82639164D01*
X154135714Y-82639164D02*
X154064286Y-82603450D01*
X154064286Y-82603450D02*
X154028571Y-82567735D01*
X154028571Y-82567735D02*
X153992857Y-82496307D01*
X153992857Y-82496307D02*
X153992857Y-82424878D01*
X153992857Y-82424878D02*
X154028571Y-82353450D01*
X154028571Y-82353450D02*
X154064286Y-82317735D01*
X154064286Y-82317735D02*
X154135714Y-82282021D01*
X154135714Y-82282021D02*
X154278571Y-82246307D01*
X154278571Y-82246307D02*
X154350000Y-82210592D01*
X154350000Y-82210592D02*
X154385714Y-82174878D01*
X154385714Y-82174878D02*
X154421428Y-82103450D01*
X154421428Y-82103450D02*
X154421428Y-82032021D01*
X154421428Y-82032021D02*
X154385714Y-81960592D01*
X154385714Y-81960592D02*
X154350000Y-81924878D01*
X154350000Y-81924878D02*
X154278571Y-81889164D01*
X154278571Y-81889164D02*
X154100000Y-81889164D01*
X154100000Y-81889164D02*
X153992857Y-81924878D01*
X153421428Y-82246307D02*
X153671428Y-82246307D01*
X153671428Y-82639164D02*
X153671428Y-81889164D01*
X153671428Y-81889164D02*
X153314285Y-81889164D01*
X153028571Y-82246307D02*
X152778571Y-82246307D01*
X152671428Y-82639164D02*
X153028571Y-82639164D01*
X153028571Y-82639164D02*
X153028571Y-81889164D01*
X153028571Y-81889164D02*
X152671428Y-81889164D01*
X152457143Y-81889164D02*
X152028572Y-81889164D01*
X152242857Y-82639164D02*
X152242857Y-81889164D01*
X151850000Y-81889164D02*
X151385714Y-81889164D01*
X151385714Y-81889164D02*
X151635714Y-82174878D01*
X151635714Y-82174878D02*
X151528571Y-82174878D01*
X151528571Y-82174878D02*
X151457143Y-82210592D01*
X151457143Y-82210592D02*
X151421428Y-82246307D01*
X151421428Y-82246307D02*
X151385714Y-82317735D01*
X151385714Y-82317735D02*
X151385714Y-82496307D01*
X151385714Y-82496307D02*
X151421428Y-82567735D01*
X151421428Y-82567735D02*
X151457143Y-82603450D01*
X151457143Y-82603450D02*
X151528571Y-82639164D01*
X151528571Y-82639164D02*
X151742857Y-82639164D01*
X151742857Y-82639164D02*
X151814285Y-82603450D01*
X151814285Y-82603450D02*
X151850000Y-82567735D01*
X124965593Y-73454818D02*
X124965593Y-72454818D01*
X124965593Y-72454818D02*
X124727498Y-72454818D01*
X124727498Y-72454818D02*
X124584641Y-72502437D01*
X124584641Y-72502437D02*
X124489403Y-72597675D01*
X124489403Y-72597675D02*
X124441784Y-72692913D01*
X124441784Y-72692913D02*
X124394165Y-72883389D01*
X124394165Y-72883389D02*
X124394165Y-73026246D01*
X124394165Y-73026246D02*
X124441784Y-73216722D01*
X124441784Y-73216722D02*
X124489403Y-73311960D01*
X124489403Y-73311960D02*
X124584641Y-73407199D01*
X124584641Y-73407199D02*
X124727498Y-73454818D01*
X124727498Y-73454818D02*
X124965593Y-73454818D01*
X123917974Y-73454818D02*
X123727498Y-73454818D01*
X123727498Y-73454818D02*
X123632260Y-73407199D01*
X123632260Y-73407199D02*
X123584641Y-73359579D01*
X123584641Y-73359579D02*
X123489403Y-73216722D01*
X123489403Y-73216722D02*
X123441784Y-73026246D01*
X123441784Y-73026246D02*
X123441784Y-72645294D01*
X123441784Y-72645294D02*
X123489403Y-72550056D01*
X123489403Y-72550056D02*
X123537022Y-72502437D01*
X123537022Y-72502437D02*
X123632260Y-72454818D01*
X123632260Y-72454818D02*
X123822736Y-72454818D01*
X123822736Y-72454818D02*
X123917974Y-72502437D01*
X123917974Y-72502437D02*
X123965593Y-72550056D01*
X123965593Y-72550056D02*
X124013212Y-72645294D01*
X124013212Y-72645294D02*
X124013212Y-72883389D01*
X124013212Y-72883389D02*
X123965593Y-72978627D01*
X123965593Y-72978627D02*
X123917974Y-73026246D01*
X123917974Y-73026246D02*
X123822736Y-73073865D01*
X123822736Y-73073865D02*
X123632260Y-73073865D01*
X123632260Y-73073865D02*
X123537022Y-73026246D01*
X123537022Y-73026246D02*
X123489403Y-72978627D01*
X123489403Y-72978627D02*
X123441784Y-72883389D01*
X133842857Y-92154819D02*
X134176190Y-91678628D01*
X134414285Y-92154819D02*
X134414285Y-91154819D01*
X134414285Y-91154819D02*
X134033333Y-91154819D01*
X134033333Y-91154819D02*
X133938095Y-91202438D01*
X133938095Y-91202438D02*
X133890476Y-91250057D01*
X133890476Y-91250057D02*
X133842857Y-91345295D01*
X133842857Y-91345295D02*
X133842857Y-91488152D01*
X133842857Y-91488152D02*
X133890476Y-91583390D01*
X133890476Y-91583390D02*
X133938095Y-91631009D01*
X133938095Y-91631009D02*
X134033333Y-91678628D01*
X134033333Y-91678628D02*
X134414285Y-91678628D01*
X133461904Y-91250057D02*
X133414285Y-91202438D01*
X133414285Y-91202438D02*
X133319047Y-91154819D01*
X133319047Y-91154819D02*
X133080952Y-91154819D01*
X133080952Y-91154819D02*
X132985714Y-91202438D01*
X132985714Y-91202438D02*
X132938095Y-91250057D01*
X132938095Y-91250057D02*
X132890476Y-91345295D01*
X132890476Y-91345295D02*
X132890476Y-91440533D01*
X132890476Y-91440533D02*
X132938095Y-91583390D01*
X132938095Y-91583390D02*
X133509523Y-92154819D01*
X133509523Y-92154819D02*
X132890476Y-92154819D01*
X131985714Y-91154819D02*
X132461904Y-91154819D01*
X132461904Y-91154819D02*
X132509523Y-91631009D01*
X132509523Y-91631009D02*
X132461904Y-91583390D01*
X132461904Y-91583390D02*
X132366666Y-91535771D01*
X132366666Y-91535771D02*
X132128571Y-91535771D01*
X132128571Y-91535771D02*
X132033333Y-91583390D01*
X132033333Y-91583390D02*
X131985714Y-91631009D01*
X131985714Y-91631009D02*
X131938095Y-91726247D01*
X131938095Y-91726247D02*
X131938095Y-91964342D01*
X131938095Y-91964342D02*
X131985714Y-92059580D01*
X131985714Y-92059580D02*
X132033333Y-92107200D01*
X132033333Y-92107200D02*
X132128571Y-92154819D01*
X132128571Y-92154819D02*
X132366666Y-92154819D01*
X132366666Y-92154819D02*
X132461904Y-92107200D01*
X132461904Y-92107200D02*
X132509523Y-92059580D01*
X129542857Y-85654819D02*
X129876190Y-85178628D01*
X130114285Y-85654819D02*
X130114285Y-84654819D01*
X130114285Y-84654819D02*
X129733333Y-84654819D01*
X129733333Y-84654819D02*
X129638095Y-84702438D01*
X129638095Y-84702438D02*
X129590476Y-84750057D01*
X129590476Y-84750057D02*
X129542857Y-84845295D01*
X129542857Y-84845295D02*
X129542857Y-84988152D01*
X129542857Y-84988152D02*
X129590476Y-85083390D01*
X129590476Y-85083390D02*
X129638095Y-85131009D01*
X129638095Y-85131009D02*
X129733333Y-85178628D01*
X129733333Y-85178628D02*
X130114285Y-85178628D01*
X129209523Y-84654819D02*
X128590476Y-84654819D01*
X128590476Y-84654819D02*
X128923809Y-85035771D01*
X128923809Y-85035771D02*
X128780952Y-85035771D01*
X128780952Y-85035771D02*
X128685714Y-85083390D01*
X128685714Y-85083390D02*
X128638095Y-85131009D01*
X128638095Y-85131009D02*
X128590476Y-85226247D01*
X128590476Y-85226247D02*
X128590476Y-85464342D01*
X128590476Y-85464342D02*
X128638095Y-85559580D01*
X128638095Y-85559580D02*
X128685714Y-85607200D01*
X128685714Y-85607200D02*
X128780952Y-85654819D01*
X128780952Y-85654819D02*
X129066666Y-85654819D01*
X129066666Y-85654819D02*
X129161904Y-85607200D01*
X129161904Y-85607200D02*
X129209523Y-85559580D01*
X127971428Y-84654819D02*
X127876190Y-84654819D01*
X127876190Y-84654819D02*
X127780952Y-84702438D01*
X127780952Y-84702438D02*
X127733333Y-84750057D01*
X127733333Y-84750057D02*
X127685714Y-84845295D01*
X127685714Y-84845295D02*
X127638095Y-85035771D01*
X127638095Y-85035771D02*
X127638095Y-85273866D01*
X127638095Y-85273866D02*
X127685714Y-85464342D01*
X127685714Y-85464342D02*
X127733333Y-85559580D01*
X127733333Y-85559580D02*
X127780952Y-85607200D01*
X127780952Y-85607200D02*
X127876190Y-85654819D01*
X127876190Y-85654819D02*
X127971428Y-85654819D01*
X127971428Y-85654819D02*
X128066666Y-85607200D01*
X128066666Y-85607200D02*
X128114285Y-85559580D01*
X128114285Y-85559580D02*
X128161904Y-85464342D01*
X128161904Y-85464342D02*
X128209523Y-85273866D01*
X128209523Y-85273866D02*
X128209523Y-85035771D01*
X128209523Y-85035771D02*
X128161904Y-84845295D01*
X128161904Y-84845295D02*
X128114285Y-84750057D01*
X128114285Y-84750057D02*
X128066666Y-84702438D01*
X128066666Y-84702438D02*
X127971428Y-84654819D01*
X150242857Y-92254819D02*
X150576190Y-91778628D01*
X150814285Y-92254819D02*
X150814285Y-91254819D01*
X150814285Y-91254819D02*
X150433333Y-91254819D01*
X150433333Y-91254819D02*
X150338095Y-91302438D01*
X150338095Y-91302438D02*
X150290476Y-91350057D01*
X150290476Y-91350057D02*
X150242857Y-91445295D01*
X150242857Y-91445295D02*
X150242857Y-91588152D01*
X150242857Y-91588152D02*
X150290476Y-91683390D01*
X150290476Y-91683390D02*
X150338095Y-91731009D01*
X150338095Y-91731009D02*
X150433333Y-91778628D01*
X150433333Y-91778628D02*
X150814285Y-91778628D01*
X149861904Y-91350057D02*
X149814285Y-91302438D01*
X149814285Y-91302438D02*
X149719047Y-91254819D01*
X149719047Y-91254819D02*
X149480952Y-91254819D01*
X149480952Y-91254819D02*
X149385714Y-91302438D01*
X149385714Y-91302438D02*
X149338095Y-91350057D01*
X149338095Y-91350057D02*
X149290476Y-91445295D01*
X149290476Y-91445295D02*
X149290476Y-91540533D01*
X149290476Y-91540533D02*
X149338095Y-91683390D01*
X149338095Y-91683390D02*
X149909523Y-92254819D01*
X149909523Y-92254819D02*
X149290476Y-92254819D01*
X148909523Y-91350057D02*
X148861904Y-91302438D01*
X148861904Y-91302438D02*
X148766666Y-91254819D01*
X148766666Y-91254819D02*
X148528571Y-91254819D01*
X148528571Y-91254819D02*
X148433333Y-91302438D01*
X148433333Y-91302438D02*
X148385714Y-91350057D01*
X148385714Y-91350057D02*
X148338095Y-91445295D01*
X148338095Y-91445295D02*
X148338095Y-91540533D01*
X148338095Y-91540533D02*
X148385714Y-91683390D01*
X148385714Y-91683390D02*
X148957142Y-92254819D01*
X148957142Y-92254819D02*
X148338095Y-92254819D01*
X145842857Y-92254819D02*
X146176190Y-91778628D01*
X146414285Y-92254819D02*
X146414285Y-91254819D01*
X146414285Y-91254819D02*
X146033333Y-91254819D01*
X146033333Y-91254819D02*
X145938095Y-91302438D01*
X145938095Y-91302438D02*
X145890476Y-91350057D01*
X145890476Y-91350057D02*
X145842857Y-91445295D01*
X145842857Y-91445295D02*
X145842857Y-91588152D01*
X145842857Y-91588152D02*
X145890476Y-91683390D01*
X145890476Y-91683390D02*
X145938095Y-91731009D01*
X145938095Y-91731009D02*
X146033333Y-91778628D01*
X146033333Y-91778628D02*
X146414285Y-91778628D01*
X145461904Y-91350057D02*
X145414285Y-91302438D01*
X145414285Y-91302438D02*
X145319047Y-91254819D01*
X145319047Y-91254819D02*
X145080952Y-91254819D01*
X145080952Y-91254819D02*
X144985714Y-91302438D01*
X144985714Y-91302438D02*
X144938095Y-91350057D01*
X144938095Y-91350057D02*
X144890476Y-91445295D01*
X144890476Y-91445295D02*
X144890476Y-91540533D01*
X144890476Y-91540533D02*
X144938095Y-91683390D01*
X144938095Y-91683390D02*
X145509523Y-92254819D01*
X145509523Y-92254819D02*
X144890476Y-92254819D01*
X144033333Y-91254819D02*
X144223809Y-91254819D01*
X144223809Y-91254819D02*
X144319047Y-91302438D01*
X144319047Y-91302438D02*
X144366666Y-91350057D01*
X144366666Y-91350057D02*
X144461904Y-91492914D01*
X144461904Y-91492914D02*
X144509523Y-91683390D01*
X144509523Y-91683390D02*
X144509523Y-92064342D01*
X144509523Y-92064342D02*
X144461904Y-92159580D01*
X144461904Y-92159580D02*
X144414285Y-92207200D01*
X144414285Y-92207200D02*
X144319047Y-92254819D01*
X144319047Y-92254819D02*
X144128571Y-92254819D01*
X144128571Y-92254819D02*
X144033333Y-92207200D01*
X144033333Y-92207200D02*
X143985714Y-92159580D01*
X143985714Y-92159580D02*
X143938095Y-92064342D01*
X143938095Y-92064342D02*
X143938095Y-91826247D01*
X143938095Y-91826247D02*
X143985714Y-91731009D01*
X143985714Y-91731009D02*
X144033333Y-91683390D01*
X144033333Y-91683390D02*
X144128571Y-91635771D01*
X144128571Y-91635771D02*
X144319047Y-91635771D01*
X144319047Y-91635771D02*
X144414285Y-91683390D01*
X144414285Y-91683390D02*
X144461904Y-91731009D01*
X144461904Y-91731009D02*
X144509523Y-91826247D01*
X141242857Y-69504819D02*
X141576190Y-69028628D01*
X141814285Y-69504819D02*
X141814285Y-68504819D01*
X141814285Y-68504819D02*
X141433333Y-68504819D01*
X141433333Y-68504819D02*
X141338095Y-68552438D01*
X141338095Y-68552438D02*
X141290476Y-68600057D01*
X141290476Y-68600057D02*
X141242857Y-68695295D01*
X141242857Y-68695295D02*
X141242857Y-68838152D01*
X141242857Y-68838152D02*
X141290476Y-68933390D01*
X141290476Y-68933390D02*
X141338095Y-68981009D01*
X141338095Y-68981009D02*
X141433333Y-69028628D01*
X141433333Y-69028628D02*
X141814285Y-69028628D01*
X140290476Y-69504819D02*
X140861904Y-69504819D01*
X140576190Y-69504819D02*
X140576190Y-68504819D01*
X140576190Y-68504819D02*
X140671428Y-68647676D01*
X140671428Y-68647676D02*
X140766666Y-68742914D01*
X140766666Y-68742914D02*
X140861904Y-68790533D01*
X139909523Y-68600057D02*
X139861904Y-68552438D01*
X139861904Y-68552438D02*
X139766666Y-68504819D01*
X139766666Y-68504819D02*
X139528571Y-68504819D01*
X139528571Y-68504819D02*
X139433333Y-68552438D01*
X139433333Y-68552438D02*
X139385714Y-68600057D01*
X139385714Y-68600057D02*
X139338095Y-68695295D01*
X139338095Y-68695295D02*
X139338095Y-68790533D01*
X139338095Y-68790533D02*
X139385714Y-68933390D01*
X139385714Y-68933390D02*
X139957142Y-69504819D01*
X139957142Y-69504819D02*
X139338095Y-69504819D01*
X141242857Y-63704819D02*
X141576190Y-63228628D01*
X141814285Y-63704819D02*
X141814285Y-62704819D01*
X141814285Y-62704819D02*
X141433333Y-62704819D01*
X141433333Y-62704819D02*
X141338095Y-62752438D01*
X141338095Y-62752438D02*
X141290476Y-62800057D01*
X141290476Y-62800057D02*
X141242857Y-62895295D01*
X141242857Y-62895295D02*
X141242857Y-63038152D01*
X141242857Y-63038152D02*
X141290476Y-63133390D01*
X141290476Y-63133390D02*
X141338095Y-63181009D01*
X141338095Y-63181009D02*
X141433333Y-63228628D01*
X141433333Y-63228628D02*
X141814285Y-63228628D01*
X140290476Y-63704819D02*
X140861904Y-63704819D01*
X140576190Y-63704819D02*
X140576190Y-62704819D01*
X140576190Y-62704819D02*
X140671428Y-62847676D01*
X140671428Y-62847676D02*
X140766666Y-62942914D01*
X140766666Y-62942914D02*
X140861904Y-62990533D01*
X139957142Y-62704819D02*
X139290476Y-62704819D01*
X139290476Y-62704819D02*
X139719047Y-63704819D01*
X169642857Y-72554819D02*
X169976190Y-72078628D01*
X170214285Y-72554819D02*
X170214285Y-71554819D01*
X170214285Y-71554819D02*
X169833333Y-71554819D01*
X169833333Y-71554819D02*
X169738095Y-71602438D01*
X169738095Y-71602438D02*
X169690476Y-71650057D01*
X169690476Y-71650057D02*
X169642857Y-71745295D01*
X169642857Y-71745295D02*
X169642857Y-71888152D01*
X169642857Y-71888152D02*
X169690476Y-71983390D01*
X169690476Y-71983390D02*
X169738095Y-72031009D01*
X169738095Y-72031009D02*
X169833333Y-72078628D01*
X169833333Y-72078628D02*
X170214285Y-72078628D01*
X168690476Y-72554819D02*
X169261904Y-72554819D01*
X168976190Y-72554819D02*
X168976190Y-71554819D01*
X168976190Y-71554819D02*
X169071428Y-71697676D01*
X169071428Y-71697676D02*
X169166666Y-71792914D01*
X169166666Y-71792914D02*
X169261904Y-71840533D01*
X167833333Y-71888152D02*
X167833333Y-72554819D01*
X168071428Y-71507200D02*
X168309523Y-72221485D01*
X168309523Y-72221485D02*
X167690476Y-72221485D01*
X131166666Y-90554819D02*
X131499999Y-90078628D01*
X131738094Y-90554819D02*
X131738094Y-89554819D01*
X131738094Y-89554819D02*
X131357142Y-89554819D01*
X131357142Y-89554819D02*
X131261904Y-89602438D01*
X131261904Y-89602438D02*
X131214285Y-89650057D01*
X131214285Y-89650057D02*
X131166666Y-89745295D01*
X131166666Y-89745295D02*
X131166666Y-89888152D01*
X131166666Y-89888152D02*
X131214285Y-89983390D01*
X131214285Y-89983390D02*
X131261904Y-90031009D01*
X131261904Y-90031009D02*
X131357142Y-90078628D01*
X131357142Y-90078628D02*
X131738094Y-90078628D01*
X130309523Y-89888152D02*
X130309523Y-90554819D01*
X130547618Y-89507200D02*
X130785713Y-90221485D01*
X130785713Y-90221485D02*
X130166666Y-90221485D01*
X155369285Y-73554819D02*
X155369285Y-72554819D01*
X155369285Y-72554819D02*
X155131190Y-72554819D01*
X155131190Y-72554819D02*
X154988333Y-72602438D01*
X154988333Y-72602438D02*
X154893095Y-72697676D01*
X154893095Y-72697676D02*
X154845476Y-72792914D01*
X154845476Y-72792914D02*
X154797857Y-72983390D01*
X154797857Y-72983390D02*
X154797857Y-73126247D01*
X154797857Y-73126247D02*
X154845476Y-73316723D01*
X154845476Y-73316723D02*
X154893095Y-73411961D01*
X154893095Y-73411961D02*
X154988333Y-73507200D01*
X154988333Y-73507200D02*
X155131190Y-73554819D01*
X155131190Y-73554819D02*
X155369285Y-73554819D01*
X153845476Y-73554819D02*
X154416904Y-73554819D01*
X154131190Y-73554819D02*
X154131190Y-72554819D01*
X154131190Y-72554819D02*
X154226428Y-72697676D01*
X154226428Y-72697676D02*
X154321666Y-72792914D01*
X154321666Y-72792914D02*
X154416904Y-72840533D01*
X152893095Y-73554819D02*
X153464523Y-73554819D01*
X153178809Y-73554819D02*
X153178809Y-72554819D01*
X153178809Y-72554819D02*
X153274047Y-72697676D01*
X153274047Y-72697676D02*
X153369285Y-72792914D01*
X153369285Y-72792914D02*
X153464523Y-72840533D01*
X136266666Y-81059580D02*
X136314285Y-81107200D01*
X136314285Y-81107200D02*
X136457142Y-81154819D01*
X136457142Y-81154819D02*
X136552380Y-81154819D01*
X136552380Y-81154819D02*
X136695237Y-81107200D01*
X136695237Y-81107200D02*
X136790475Y-81011961D01*
X136790475Y-81011961D02*
X136838094Y-80916723D01*
X136838094Y-80916723D02*
X136885713Y-80726247D01*
X136885713Y-80726247D02*
X136885713Y-80583390D01*
X136885713Y-80583390D02*
X136838094Y-80392914D01*
X136838094Y-80392914D02*
X136790475Y-80297676D01*
X136790475Y-80297676D02*
X136695237Y-80202438D01*
X136695237Y-80202438D02*
X136552380Y-80154819D01*
X136552380Y-80154819D02*
X136457142Y-80154819D01*
X136457142Y-80154819D02*
X136314285Y-80202438D01*
X136314285Y-80202438D02*
X136266666Y-80250057D01*
X135933332Y-80154819D02*
X135314285Y-80154819D01*
X135314285Y-80154819D02*
X135647618Y-80535771D01*
X135647618Y-80535771D02*
X135504761Y-80535771D01*
X135504761Y-80535771D02*
X135409523Y-80583390D01*
X135409523Y-80583390D02*
X135361904Y-80631009D01*
X135361904Y-80631009D02*
X135314285Y-80726247D01*
X135314285Y-80726247D02*
X135314285Y-80964342D01*
X135314285Y-80964342D02*
X135361904Y-81059580D01*
X135361904Y-81059580D02*
X135409523Y-81107200D01*
X135409523Y-81107200D02*
X135504761Y-81154819D01*
X135504761Y-81154819D02*
X135790475Y-81154819D01*
X135790475Y-81154819D02*
X135885713Y-81107200D01*
X135885713Y-81107200D02*
X135933332Y-81059580D01*
X139859580Y-81409523D02*
X139907200Y-81361904D01*
X139907200Y-81361904D02*
X139954819Y-81219047D01*
X139954819Y-81219047D02*
X139954819Y-81123809D01*
X139954819Y-81123809D02*
X139907200Y-80980952D01*
X139907200Y-80980952D02*
X139811961Y-80885714D01*
X139811961Y-80885714D02*
X139716723Y-80838095D01*
X139716723Y-80838095D02*
X139526247Y-80790476D01*
X139526247Y-80790476D02*
X139383390Y-80790476D01*
X139383390Y-80790476D02*
X139192914Y-80838095D01*
X139192914Y-80838095D02*
X139097676Y-80885714D01*
X139097676Y-80885714D02*
X139002438Y-80980952D01*
X139002438Y-80980952D02*
X138954819Y-81123809D01*
X138954819Y-81123809D02*
X138954819Y-81219047D01*
X138954819Y-81219047D02*
X139002438Y-81361904D01*
X139002438Y-81361904D02*
X139050057Y-81409523D01*
X139859580Y-82409523D02*
X139907200Y-82361904D01*
X139907200Y-82361904D02*
X139954819Y-82219047D01*
X139954819Y-82219047D02*
X139954819Y-82123809D01*
X139954819Y-82123809D02*
X139907200Y-81980952D01*
X139907200Y-81980952D02*
X139811961Y-81885714D01*
X139811961Y-81885714D02*
X139716723Y-81838095D01*
X139716723Y-81838095D02*
X139526247Y-81790476D01*
X139526247Y-81790476D02*
X139383390Y-81790476D01*
X139383390Y-81790476D02*
X139192914Y-81838095D01*
X139192914Y-81838095D02*
X139097676Y-81885714D01*
X139097676Y-81885714D02*
X139002438Y-81980952D01*
X139002438Y-81980952D02*
X138954819Y-82123809D01*
X138954819Y-82123809D02*
X138954819Y-82219047D01*
X138954819Y-82219047D02*
X139002438Y-82361904D01*
X139002438Y-82361904D02*
X139050057Y-82409523D01*
X139954819Y-82838095D02*
X138954819Y-82838095D01*
X138954819Y-82838095D02*
X138954819Y-83219047D01*
X138954819Y-83219047D02*
X139002438Y-83314285D01*
X139002438Y-83314285D02*
X139050057Y-83361904D01*
X139050057Y-83361904D02*
X139145295Y-83409523D01*
X139145295Y-83409523D02*
X139288152Y-83409523D01*
X139288152Y-83409523D02*
X139383390Y-83361904D01*
X139383390Y-83361904D02*
X139431009Y-83314285D01*
X139431009Y-83314285D02*
X139478628Y-83219047D01*
X139478628Y-83219047D02*
X139478628Y-82838095D01*
X138954819Y-84028571D02*
X138954819Y-84219047D01*
X138954819Y-84219047D02*
X139002438Y-84314285D01*
X139002438Y-84314285D02*
X139097676Y-84409523D01*
X139097676Y-84409523D02*
X139288152Y-84457142D01*
X139288152Y-84457142D02*
X139621485Y-84457142D01*
X139621485Y-84457142D02*
X139811961Y-84409523D01*
X139811961Y-84409523D02*
X139907200Y-84314285D01*
X139907200Y-84314285D02*
X139954819Y-84219047D01*
X139954819Y-84219047D02*
X139954819Y-84028571D01*
X139954819Y-84028571D02*
X139907200Y-83933333D01*
X139907200Y-83933333D02*
X139811961Y-83838095D01*
X139811961Y-83838095D02*
X139621485Y-83790476D01*
X139621485Y-83790476D02*
X139288152Y-83790476D01*
X139288152Y-83790476D02*
X139097676Y-83838095D01*
X139097676Y-83838095D02*
X139002438Y-83933333D01*
X139002438Y-83933333D02*
X138954819Y-84028571D01*
X139954819Y-85409523D02*
X139954819Y-84838095D01*
X139954819Y-85123809D02*
X138954819Y-85123809D01*
X138954819Y-85123809D02*
X139097676Y-85028571D01*
X139097676Y-85028571D02*
X139192914Y-84933333D01*
X139192914Y-84933333D02*
X139240533Y-84838095D01*
X148042857Y-90554819D02*
X148376190Y-90078628D01*
X148614285Y-90554819D02*
X148614285Y-89554819D01*
X148614285Y-89554819D02*
X148233333Y-89554819D01*
X148233333Y-89554819D02*
X148138095Y-89602438D01*
X148138095Y-89602438D02*
X148090476Y-89650057D01*
X148090476Y-89650057D02*
X148042857Y-89745295D01*
X148042857Y-89745295D02*
X148042857Y-89888152D01*
X148042857Y-89888152D02*
X148090476Y-89983390D01*
X148090476Y-89983390D02*
X148138095Y-90031009D01*
X148138095Y-90031009D02*
X148233333Y-90078628D01*
X148233333Y-90078628D02*
X148614285Y-90078628D01*
X147090476Y-90554819D02*
X147661904Y-90554819D01*
X147376190Y-90554819D02*
X147376190Y-89554819D01*
X147376190Y-89554819D02*
X147471428Y-89697676D01*
X147471428Y-89697676D02*
X147566666Y-89792914D01*
X147566666Y-89792914D02*
X147661904Y-89840533D01*
X146471428Y-89554819D02*
X146376190Y-89554819D01*
X146376190Y-89554819D02*
X146280952Y-89602438D01*
X146280952Y-89602438D02*
X146233333Y-89650057D01*
X146233333Y-89650057D02*
X146185714Y-89745295D01*
X146185714Y-89745295D02*
X146138095Y-89935771D01*
X146138095Y-89935771D02*
X146138095Y-90173866D01*
X146138095Y-90173866D02*
X146185714Y-90364342D01*
X146185714Y-90364342D02*
X146233333Y-90459580D01*
X146233333Y-90459580D02*
X146280952Y-90507200D01*
X146280952Y-90507200D02*
X146376190Y-90554819D01*
X146376190Y-90554819D02*
X146471428Y-90554819D01*
X146471428Y-90554819D02*
X146566666Y-90507200D01*
X146566666Y-90507200D02*
X146614285Y-90459580D01*
X146614285Y-90459580D02*
X146661904Y-90364342D01*
X146661904Y-90364342D02*
X146709523Y-90173866D01*
X146709523Y-90173866D02*
X146709523Y-89935771D01*
X146709523Y-89935771D02*
X146661904Y-89745295D01*
X146661904Y-89745295D02*
X146614285Y-89650057D01*
X146614285Y-89650057D02*
X146566666Y-89602438D01*
X146566666Y-89602438D02*
X146471428Y-89554819D01*
X169642857Y-70454819D02*
X169976190Y-69978628D01*
X170214285Y-70454819D02*
X170214285Y-69454819D01*
X170214285Y-69454819D02*
X169833333Y-69454819D01*
X169833333Y-69454819D02*
X169738095Y-69502438D01*
X169738095Y-69502438D02*
X169690476Y-69550057D01*
X169690476Y-69550057D02*
X169642857Y-69645295D01*
X169642857Y-69645295D02*
X169642857Y-69788152D01*
X169642857Y-69788152D02*
X169690476Y-69883390D01*
X169690476Y-69883390D02*
X169738095Y-69931009D01*
X169738095Y-69931009D02*
X169833333Y-69978628D01*
X169833333Y-69978628D02*
X170214285Y-69978628D01*
X168690476Y-70454819D02*
X169261904Y-70454819D01*
X168976190Y-70454819D02*
X168976190Y-69454819D01*
X168976190Y-69454819D02*
X169071428Y-69597676D01*
X169071428Y-69597676D02*
X169166666Y-69692914D01*
X169166666Y-69692914D02*
X169261904Y-69740533D01*
X168357142Y-69454819D02*
X167738095Y-69454819D01*
X167738095Y-69454819D02*
X168071428Y-69835771D01*
X168071428Y-69835771D02*
X167928571Y-69835771D01*
X167928571Y-69835771D02*
X167833333Y-69883390D01*
X167833333Y-69883390D02*
X167785714Y-69931009D01*
X167785714Y-69931009D02*
X167738095Y-70026247D01*
X167738095Y-70026247D02*
X167738095Y-70264342D01*
X167738095Y-70264342D02*
X167785714Y-70359580D01*
X167785714Y-70359580D02*
X167833333Y-70407200D01*
X167833333Y-70407200D02*
X167928571Y-70454819D01*
X167928571Y-70454819D02*
X168214285Y-70454819D01*
X168214285Y-70454819D02*
X168309523Y-70407200D01*
X168309523Y-70407200D02*
X168357142Y-70359580D01*
X127242857Y-97054819D02*
X127576190Y-96578628D01*
X127814285Y-97054819D02*
X127814285Y-96054819D01*
X127814285Y-96054819D02*
X127433333Y-96054819D01*
X127433333Y-96054819D02*
X127338095Y-96102438D01*
X127338095Y-96102438D02*
X127290476Y-96150057D01*
X127290476Y-96150057D02*
X127242857Y-96245295D01*
X127242857Y-96245295D02*
X127242857Y-96388152D01*
X127242857Y-96388152D02*
X127290476Y-96483390D01*
X127290476Y-96483390D02*
X127338095Y-96531009D01*
X127338095Y-96531009D02*
X127433333Y-96578628D01*
X127433333Y-96578628D02*
X127814285Y-96578628D01*
X126290476Y-97054819D02*
X126861904Y-97054819D01*
X126576190Y-97054819D02*
X126576190Y-96054819D01*
X126576190Y-96054819D02*
X126671428Y-96197676D01*
X126671428Y-96197676D02*
X126766666Y-96292914D01*
X126766666Y-96292914D02*
X126861904Y-96340533D01*
X125814285Y-97054819D02*
X125623809Y-97054819D01*
X125623809Y-97054819D02*
X125528571Y-97007200D01*
X125528571Y-97007200D02*
X125480952Y-96959580D01*
X125480952Y-96959580D02*
X125385714Y-96816723D01*
X125385714Y-96816723D02*
X125338095Y-96626247D01*
X125338095Y-96626247D02*
X125338095Y-96245295D01*
X125338095Y-96245295D02*
X125385714Y-96150057D01*
X125385714Y-96150057D02*
X125433333Y-96102438D01*
X125433333Y-96102438D02*
X125528571Y-96054819D01*
X125528571Y-96054819D02*
X125719047Y-96054819D01*
X125719047Y-96054819D02*
X125814285Y-96102438D01*
X125814285Y-96102438D02*
X125861904Y-96150057D01*
X125861904Y-96150057D02*
X125909523Y-96245295D01*
X125909523Y-96245295D02*
X125909523Y-96483390D01*
X125909523Y-96483390D02*
X125861904Y-96578628D01*
X125861904Y-96578628D02*
X125814285Y-96626247D01*
X125814285Y-96626247D02*
X125719047Y-96673866D01*
X125719047Y-96673866D02*
X125528571Y-96673866D01*
X125528571Y-96673866D02*
X125433333Y-96626247D01*
X125433333Y-96626247D02*
X125385714Y-96578628D01*
X125385714Y-96578628D02*
X125338095Y-96483390D01*
X136904819Y-95444642D02*
X136428628Y-95111309D01*
X136904819Y-94873214D02*
X135904819Y-94873214D01*
X135904819Y-94873214D02*
X135904819Y-95254166D01*
X135904819Y-95254166D02*
X135952438Y-95349404D01*
X135952438Y-95349404D02*
X136000057Y-95397023D01*
X136000057Y-95397023D02*
X136095295Y-95444642D01*
X136095295Y-95444642D02*
X136238152Y-95444642D01*
X136238152Y-95444642D02*
X136333390Y-95397023D01*
X136333390Y-95397023D02*
X136381009Y-95349404D01*
X136381009Y-95349404D02*
X136428628Y-95254166D01*
X136428628Y-95254166D02*
X136428628Y-94873214D01*
X136000057Y-95825595D02*
X135952438Y-95873214D01*
X135952438Y-95873214D02*
X135904819Y-95968452D01*
X135904819Y-95968452D02*
X135904819Y-96206547D01*
X135904819Y-96206547D02*
X135952438Y-96301785D01*
X135952438Y-96301785D02*
X136000057Y-96349404D01*
X136000057Y-96349404D02*
X136095295Y-96397023D01*
X136095295Y-96397023D02*
X136190533Y-96397023D01*
X136190533Y-96397023D02*
X136333390Y-96349404D01*
X136333390Y-96349404D02*
X136904819Y-95777976D01*
X136904819Y-95777976D02*
X136904819Y-96397023D01*
X136333390Y-96968452D02*
X136285771Y-96873214D01*
X136285771Y-96873214D02*
X136238152Y-96825595D01*
X136238152Y-96825595D02*
X136142914Y-96777976D01*
X136142914Y-96777976D02*
X136095295Y-96777976D01*
X136095295Y-96777976D02*
X136000057Y-96825595D01*
X136000057Y-96825595D02*
X135952438Y-96873214D01*
X135952438Y-96873214D02*
X135904819Y-96968452D01*
X135904819Y-96968452D02*
X135904819Y-97158928D01*
X135904819Y-97158928D02*
X135952438Y-97254166D01*
X135952438Y-97254166D02*
X136000057Y-97301785D01*
X136000057Y-97301785D02*
X136095295Y-97349404D01*
X136095295Y-97349404D02*
X136142914Y-97349404D01*
X136142914Y-97349404D02*
X136238152Y-97301785D01*
X136238152Y-97301785D02*
X136285771Y-97254166D01*
X136285771Y-97254166D02*
X136333390Y-97158928D01*
X136333390Y-97158928D02*
X136333390Y-96968452D01*
X136333390Y-96968452D02*
X136381009Y-96873214D01*
X136381009Y-96873214D02*
X136428628Y-96825595D01*
X136428628Y-96825595D02*
X136523866Y-96777976D01*
X136523866Y-96777976D02*
X136714342Y-96777976D01*
X136714342Y-96777976D02*
X136809580Y-96825595D01*
X136809580Y-96825595D02*
X136857200Y-96873214D01*
X136857200Y-96873214D02*
X136904819Y-96968452D01*
X136904819Y-96968452D02*
X136904819Y-97158928D01*
X136904819Y-97158928D02*
X136857200Y-97254166D01*
X136857200Y-97254166D02*
X136809580Y-97301785D01*
X136809580Y-97301785D02*
X136714342Y-97349404D01*
X136714342Y-97349404D02*
X136523866Y-97349404D01*
X136523866Y-97349404D02*
X136428628Y-97301785D01*
X136428628Y-97301785D02*
X136381009Y-97254166D01*
X136381009Y-97254166D02*
X136333390Y-97158928D01*
D12*
X151060000Y-53325000D02*
X151060000Y-60455000D01*
X151060000Y-60455000D02*
X155360000Y-60455000D01*
X155360000Y-53325000D02*
X151060000Y-53325000D01*
X155360000Y-60455000D02*
X155360000Y-53325000D01*
X115350000Y-53345000D02*
X115350000Y-60475000D01*
X115350000Y-60475000D02*
X119650000Y-60475000D01*
X119650000Y-53345000D02*
X115350000Y-53345000D01*
X119650000Y-60475000D02*
X119650000Y-53345000D01*
X168910000Y-89215000D02*
X168910000Y-93515000D01*
X168910000Y-93515000D02*
X176040000Y-93515000D01*
X176040000Y-89215000D02*
X168910000Y-89215000D01*
X176040000Y-93515000D02*
X176040000Y-89215000D01*
X102405000Y-81660000D02*
X102405000Y-85960000D01*
X102405000Y-85960000D02*
X109535000Y-85960000D01*
X109535000Y-81660000D02*
X102405000Y-81660000D01*
X109535000Y-85960000D02*
X109535000Y-81660000D01*
X139665000Y-96314564D02*
X139665000Y-95860436D01*
X141135000Y-96314564D02*
X141135000Y-95860436D01*
X112627064Y-69065000D02*
X112172936Y-69065000D01*
X112627064Y-70535000D02*
X112172936Y-70535000D01*
X130265000Y-93972936D02*
X130265000Y-94427064D01*
X131735000Y-93972936D02*
X131735000Y-94427064D01*
X169925000Y-74785000D02*
X169925000Y-80675000D01*
X175065000Y-74785000D02*
X175065000Y-80675000D01*
X174660000Y-81635000D02*
X174180000Y-81635000D01*
X174420000Y-81305000D01*
X174660000Y-81635000D01*
G36*
X174660000Y-81635000D02*
G01*
X174180000Y-81635000D01*
X174420000Y-81305000D01*
X174660000Y-81635000D01*
G37*
X150715000Y-87200000D02*
X150715000Y-86425000D01*
X150715000Y-87200000D02*
X150715000Y-87975000D01*
X153835000Y-87200000D02*
X153835000Y-86425000D01*
X153835000Y-87200000D02*
X153835000Y-87975000D01*
X154115000Y-88802500D02*
X153785000Y-88562500D01*
X154115000Y-88322500D01*
X154115000Y-88802500D01*
G36*
X154115000Y-88802500D02*
G01*
X153785000Y-88562500D01*
X154115000Y-88322500D01*
X154115000Y-88802500D01*
G37*
X151065000Y-93972936D02*
X151065000Y-94427064D01*
X152535000Y-93972936D02*
X152535000Y-94427064D01*
X141800000Y-71940000D02*
X141150000Y-71940000D01*
X141800000Y-71940000D02*
X142450000Y-71940000D01*
X141800000Y-75060000D02*
X141150000Y-75060000D01*
X141800000Y-75060000D02*
X142450000Y-75060000D01*
X140877500Y-75340000D02*
X140397500Y-75340000D01*
X140637500Y-75010000D01*
X140877500Y-75340000D01*
G36*
X140877500Y-75340000D02*
G01*
X140397500Y-75340000D01*
X140637500Y-75010000D01*
X140877500Y-75340000D01*
G37*
X144565000Y-87360436D02*
X144565000Y-87814564D01*
X146035000Y-87360436D02*
X146035000Y-87814564D01*
X128065000Y-93960436D02*
X128065000Y-94414564D01*
X129535000Y-93960436D02*
X129535000Y-94414564D01*
X124590000Y-87200000D02*
X124590000Y-86425000D01*
X124590000Y-87200000D02*
X124590000Y-87975000D01*
X127710000Y-87200000D02*
X127710000Y-86425000D01*
X127710000Y-87200000D02*
X127710000Y-87975000D01*
X127990000Y-88802500D02*
X127660000Y-88562500D01*
X127990000Y-88322500D01*
X127990000Y-88802500D01*
G36*
X127990000Y-88802500D02*
G01*
X127660000Y-88562500D01*
X127990000Y-88322500D01*
X127990000Y-88802500D01*
G37*
X144065000Y-75627064D02*
X144065000Y-75172936D01*
X145535000Y-75627064D02*
X145535000Y-75172936D01*
X137165000Y-89238748D02*
X137165000Y-89761252D01*
X138635000Y-89238748D02*
X138635000Y-89761252D01*
X148765000Y-87360436D02*
X148765000Y-87814564D01*
X150235000Y-87360436D02*
X150235000Y-87814564D01*
X146665000Y-93972936D02*
X146665000Y-94427064D01*
X148135000Y-93972936D02*
X148135000Y-94427064D01*
X132377500Y-87372936D02*
X132377500Y-87827064D01*
X133847500Y-87372936D02*
X133847500Y-87827064D01*
X139815000Y-89238748D02*
X139815000Y-89761252D01*
X141285000Y-89238748D02*
X141285000Y-89761252D01*
X123515000Y-79488748D02*
X123515000Y-80011252D01*
X124985000Y-79488748D02*
X124985000Y-80011252D01*
X112589564Y-71265000D02*
X112135436Y-71265000D01*
X112589564Y-72735000D02*
X112135436Y-72735000D01*
X153415000Y-79438748D02*
X153415000Y-79961252D01*
X154885000Y-79438748D02*
X154885000Y-79961252D01*
X123650000Y-74490000D02*
X123650000Y-76450000D01*
X124850000Y-74490000D02*
X123650000Y-74490000D01*
X124850000Y-74490000D02*
X124850000Y-76450000D01*
X132465000Y-93960436D02*
X132465000Y-94414564D01*
X133935000Y-93960436D02*
X133935000Y-94414564D01*
X128190000Y-87372936D02*
X128190000Y-87827064D01*
X129660000Y-87372936D02*
X129660000Y-87827064D01*
X148865000Y-93972936D02*
X148865000Y-94427064D01*
X150335000Y-93972936D02*
X150335000Y-94427064D01*
D13*
G36*
X162644000Y-63180334D02*
G01*
X162601667Y-63222667D01*
X162559333Y-63180334D01*
X162601667Y-63138000D01*
X162644000Y-63180334D01*
G37*
G36*
X162728667Y-64619667D02*
G01*
X162686333Y-64662000D01*
X162644000Y-64619667D01*
X162686333Y-64577334D01*
X162728667Y-64619667D01*
G37*
G36*
X162813333Y-62757000D02*
G01*
X162771000Y-62799334D01*
X162728667Y-62757000D01*
X162771000Y-62714667D01*
X162813333Y-62757000D01*
G37*
G36*
X163152000Y-60979000D02*
G01*
X163109667Y-61021334D01*
X163067333Y-60979000D01*
X163109667Y-60936667D01*
X163152000Y-60979000D01*
G37*
G36*
X163321333Y-66567000D02*
G01*
X163279000Y-66609334D01*
X163236667Y-66567000D01*
X163279000Y-66524667D01*
X163321333Y-66567000D01*
G37*
G36*
X163490667Y-62587667D02*
G01*
X163448333Y-62630000D01*
X163406000Y-62587667D01*
X163448333Y-62545334D01*
X163490667Y-62587667D01*
G37*
G36*
X164252667Y-60979000D02*
G01*
X164210333Y-61021334D01*
X164168000Y-60979000D01*
X164210333Y-60936667D01*
X164252667Y-60979000D01*
G37*
G36*
X165946000Y-60894334D02*
G01*
X165903667Y-60936667D01*
X165861333Y-60894334D01*
X165903667Y-60852000D01*
X165946000Y-60894334D01*
G37*
G36*
X166030667Y-61063667D02*
G01*
X165988333Y-61106000D01*
X165946000Y-61063667D01*
X165988333Y-61021334D01*
X166030667Y-61063667D01*
G37*
G36*
X166115333Y-61233000D02*
G01*
X166073000Y-61275334D01*
X166030667Y-61233000D01*
X166073000Y-61190667D01*
X166115333Y-61233000D01*
G37*
G36*
X167300667Y-61063667D02*
G01*
X167258333Y-61106000D01*
X167216000Y-61063667D01*
X167258333Y-61021334D01*
X167300667Y-61063667D01*
G37*
G36*
X167385333Y-60471000D02*
G01*
X167343000Y-60513334D01*
X167300667Y-60471000D01*
X167343000Y-60428667D01*
X167385333Y-60471000D01*
G37*
G36*
X167470000Y-61148334D02*
G01*
X167427667Y-61190667D01*
X167385333Y-61148334D01*
X167427667Y-61106000D01*
X167470000Y-61148334D01*
G37*
G36*
X167554667Y-62926334D02*
G01*
X167512333Y-62968667D01*
X167470000Y-62926334D01*
X167512333Y-62884000D01*
X167554667Y-62926334D01*
G37*
G36*
X167808667Y-60894334D02*
G01*
X167766333Y-60936667D01*
X167724000Y-60894334D01*
X167766333Y-60852000D01*
X167808667Y-60894334D01*
G37*
G36*
X167808667Y-61656334D02*
G01*
X167766333Y-61698667D01*
X167724000Y-61656334D01*
X167766333Y-61614000D01*
X167808667Y-61656334D01*
G37*
G36*
X167978000Y-61910334D02*
G01*
X167935667Y-61952667D01*
X167893333Y-61910334D01*
X167935667Y-61868000D01*
X167978000Y-61910334D01*
G37*
G36*
X161035333Y-60005334D02*
G01*
X161029223Y-60050156D01*
X160978889Y-60061778D01*
X160968756Y-60049369D01*
X160978889Y-59948889D01*
X161004355Y-59935643D01*
X161035333Y-60005334D01*
G37*
G36*
X162559333Y-64662000D02*
G01*
X162553223Y-64706822D01*
X162502889Y-64718445D01*
X162492756Y-64706035D01*
X162502889Y-64605556D01*
X162528355Y-64592310D01*
X162559333Y-64662000D01*
G37*
G36*
X162982667Y-66948000D02*
G01*
X162976557Y-66992822D01*
X162926222Y-67004445D01*
X162916089Y-66992035D01*
X162926222Y-66891556D01*
X162951689Y-66878310D01*
X162982667Y-66948000D01*
G37*
G36*
X163337208Y-67482830D02*
G01*
X163376398Y-67513305D01*
X163286056Y-67533983D01*
X163200182Y-67527996D01*
X163174931Y-67489514D01*
X163204885Y-67472736D01*
X163337208Y-67482830D01*
G37*
G36*
X163406000Y-67032667D02*
G01*
X163399890Y-67077489D01*
X163349556Y-67089111D01*
X163339423Y-67076702D01*
X163349556Y-66976222D01*
X163375022Y-66962977D01*
X163406000Y-67032667D01*
G37*
G36*
X165409778Y-61642222D02*
G01*
X165423024Y-61667689D01*
X165353333Y-61698667D01*
X165308511Y-61692557D01*
X165296889Y-61642222D01*
X165309298Y-61632089D01*
X165409778Y-61642222D01*
G37*
G36*
X167859085Y-61092918D02*
G01*
X167847837Y-61110154D01*
X167764181Y-61188129D01*
X167724000Y-61153330D01*
X167731568Y-61134287D01*
X167821749Y-61055582D01*
X167869064Y-61034981D01*
X167859085Y-61092918D01*
G37*
G36*
X160662918Y-59585896D02*
G01*
X160739000Y-59666667D01*
X160752230Y-59699464D01*
X160701664Y-59751334D01*
X160677088Y-59748080D01*
X160612000Y-59666667D01*
X160612971Y-59647506D01*
X160649337Y-59582000D01*
X160662918Y-59585896D01*
G37*
G36*
X163236667Y-66900670D02*
G01*
X163226305Y-66963751D01*
X163152000Y-67032667D01*
X163131912Y-67030386D01*
X163067333Y-66952997D01*
X163070563Y-66929243D01*
X163152000Y-66821000D01*
X163195621Y-66813035D01*
X163236667Y-66900670D01*
G37*
G36*
X163283893Y-65427810D02*
G01*
X163363667Y-65508667D01*
X163379437Y-65538643D01*
X163373660Y-65593334D01*
X163358774Y-65589524D01*
X163279000Y-65508667D01*
X163263230Y-65478690D01*
X163269007Y-65424000D01*
X163283893Y-65427810D01*
G37*
G36*
X164820309Y-57719471D02*
G01*
X164891399Y-57745415D01*
X164827505Y-57843113D01*
X164744950Y-57932030D01*
X164687293Y-57954581D01*
X164676000Y-57846334D01*
X164691959Y-57785628D01*
X164806338Y-57719334D01*
X164820309Y-57719471D01*
G37*
G36*
X167496521Y-60708333D02*
G01*
X167606546Y-60800143D01*
X167603624Y-60925950D01*
X167532932Y-60957019D01*
X167378689Y-60869827D01*
X167304905Y-60803842D01*
X167263446Y-60731241D01*
X167348282Y-60695893D01*
X167496521Y-60708333D01*
G37*
G36*
X164760667Y-60809667D02*
G01*
X164870544Y-60946695D01*
X164930000Y-61119122D01*
X164918808Y-61204870D01*
X164862267Y-61275334D01*
X164758668Y-61236365D01*
X164640151Y-61080601D01*
X164591333Y-60864278D01*
X164595971Y-60739244D01*
X164638079Y-60709585D01*
X164760667Y-60809667D01*
G37*
G36*
X165930517Y-61698667D02*
G01*
X165853862Y-61807471D01*
X165685314Y-61930252D01*
X165520560Y-62001866D01*
X165402657Y-62031173D01*
X165377963Y-62010404D01*
X165480333Y-61938240D01*
X165607734Y-61858833D01*
X165810203Y-61707982D01*
X165868310Y-61660080D01*
X165940750Y-61621763D01*
X165930517Y-61698667D01*
G37*
G36*
X163375819Y-61664950D02*
G01*
X163377685Y-61793227D01*
X163356318Y-61983214D01*
X163290244Y-62026121D01*
X163168933Y-61935734D01*
X163153404Y-61918861D01*
X163074248Y-61726977D01*
X163097171Y-61517603D01*
X163151814Y-61450179D01*
X163172759Y-61450179D01*
X163194333Y-61529334D01*
X163211728Y-61554397D01*
X163288994Y-61614000D01*
X163300575Y-61608488D01*
X163279000Y-61529334D01*
X163261605Y-61504270D01*
X163184340Y-61444667D01*
X163172759Y-61450179D01*
X163151814Y-61450179D01*
X163215500Y-61371596D01*
X163239587Y-61359411D01*
X163320876Y-61348030D01*
X163360163Y-61438671D01*
X163371912Y-61608488D01*
X163375819Y-61664950D01*
G37*
G36*
X166084207Y-62442739D02*
G01*
X166179268Y-62554902D01*
X166252260Y-62778167D01*
X166261562Y-63066414D01*
X166138335Y-63404252D01*
X165897405Y-63731615D01*
X165562173Y-64017492D01*
X165156037Y-64230874D01*
X164986542Y-64291232D01*
X164490442Y-64397836D01*
X164081303Y-64364205D01*
X163752762Y-64190153D01*
X163683662Y-64122434D01*
X163526381Y-63897963D01*
X163404809Y-63636002D01*
X163342031Y-63393340D01*
X163361133Y-63226767D01*
X163346412Y-63169510D01*
X163216756Y-63116306D01*
X163176796Y-63102631D01*
X163255403Y-63091228D01*
X163460458Y-63089706D01*
X163725897Y-63107570D01*
X163917600Y-63169770D01*
X164058013Y-63297089D01*
X164111518Y-63358433D01*
X164266818Y-63454622D01*
X164481610Y-63439837D01*
X164657009Y-63382181D01*
X164908595Y-63185643D01*
X165028114Y-62892007D01*
X165037787Y-62844563D01*
X165107503Y-62729446D01*
X165267899Y-62632121D01*
X165556558Y-62526598D01*
X165664004Y-62492465D01*
X165926108Y-62426865D01*
X166084207Y-62442739D01*
G37*
G36*
X163492662Y-57001790D02*
G01*
X163585794Y-57109847D01*
X163642050Y-57231015D01*
X163556159Y-57260900D01*
X163327148Y-57200674D01*
X162988940Y-57132629D01*
X162531531Y-57147519D01*
X162087315Y-57258628D01*
X161725815Y-57454920D01*
X161606906Y-57542378D01*
X161432673Y-57642364D01*
X161339037Y-57656148D01*
X161315974Y-57654139D01*
X161341580Y-57756970D01*
X161364727Y-57850208D01*
X161317833Y-57863947D01*
X161283007Y-57851514D01*
X161223937Y-57913558D01*
X161218714Y-57951154D01*
X161181695Y-58134462D01*
X161123515Y-58380923D01*
X161101528Y-58479072D01*
X161070876Y-58708086D01*
X161082472Y-58846590D01*
X161087103Y-58856800D01*
X161061411Y-58854666D01*
X160957117Y-58747120D01*
X160833221Y-58547961D01*
X160772088Y-58204758D01*
X160848737Y-57827770D01*
X161060438Y-57451234D01*
X161079187Y-57427009D01*
X161446279Y-57060625D01*
X161546801Y-56999667D01*
X162728667Y-56999667D01*
X162771000Y-57042000D01*
X162813333Y-56999667D01*
X162771000Y-56957334D01*
X162728667Y-56999667D01*
X161546801Y-56999667D01*
X161867847Y-56804979D01*
X162313580Y-56665671D01*
X162753167Y-56648303D01*
X163156298Y-56758476D01*
X163489727Y-56999667D01*
X163492662Y-57001790D01*
G37*
G36*
X164535060Y-61547121D02*
G01*
X164753647Y-61658810D01*
X164958710Y-61788206D01*
X165097329Y-61907919D01*
X165130434Y-61954466D01*
X165144289Y-62050782D01*
X165068217Y-62179106D01*
X164883982Y-62379773D01*
X164751598Y-62506735D01*
X164518453Y-62667020D01*
X164298984Y-62715113D01*
X164295348Y-62715135D01*
X164039805Y-62763976D01*
X163787000Y-62878257D01*
X163645017Y-62967528D01*
X163519275Y-63035152D01*
X163514433Y-63006648D01*
X163619218Y-62882286D01*
X163707953Y-62742231D01*
X163751880Y-62530846D01*
X163753352Y-62204952D01*
X163750616Y-62004412D01*
X163772140Y-61778688D01*
X163823345Y-61698667D01*
X163848930Y-61702325D01*
X163914000Y-61788330D01*
X163917573Y-61815299D01*
X163979343Y-61837610D01*
X164009574Y-61845109D01*
X164095968Y-61958680D01*
X164197299Y-62166209D01*
X164257700Y-62300294D01*
X164370172Y-62463754D01*
X164477722Y-62486147D01*
X164534275Y-62452611D01*
X164534932Y-62385384D01*
X164484092Y-62337832D01*
X164373704Y-62172445D01*
X164299960Y-61989670D01*
X164297129Y-61864556D01*
X164308767Y-61832574D01*
X164247297Y-61783334D01*
X164192662Y-61759165D01*
X164252667Y-61656334D01*
X164301958Y-61581269D01*
X164291256Y-61529334D01*
X164280046Y-61528549D01*
X164272684Y-61481094D01*
X164355868Y-61480530D01*
X164535060Y-61547121D01*
G37*
G36*
X165835757Y-58488037D02*
G01*
X165975371Y-58669609D01*
X166005171Y-58735334D01*
X166030667Y-58791566D01*
X166033227Y-58807685D01*
X166124447Y-58921225D01*
X166163381Y-58947000D01*
X166305833Y-59041306D01*
X166340776Y-59059522D01*
X166525675Y-59167210D01*
X166623333Y-59243333D01*
X166631835Y-59253114D01*
X166750560Y-59338077D01*
X166807876Y-59370334D01*
X166945189Y-59447613D01*
X166980377Y-59466364D01*
X167068247Y-59525556D01*
X167168765Y-59593268D01*
X167268815Y-59705785D01*
X167267424Y-59844874D01*
X167187165Y-60057753D01*
X167139266Y-60132334D01*
X167058349Y-60258326D01*
X166918401Y-60375104D01*
X166842507Y-60391767D01*
X166843231Y-60330682D01*
X166847901Y-60322645D01*
X166830186Y-60270431D01*
X166671201Y-60292712D01*
X166613409Y-60306183D01*
X166494667Y-60311171D01*
X166501660Y-60241560D01*
X166504950Y-60235715D01*
X166525730Y-60177922D01*
X166445254Y-60243828D01*
X166403869Y-60305778D01*
X166388793Y-60328345D01*
X166428093Y-60430135D01*
X166586164Y-60588169D01*
X166643035Y-60642996D01*
X166773620Y-60811736D01*
X166791898Y-60878164D01*
X166807445Y-60934667D01*
X166806950Y-61001603D01*
X166912511Y-60993462D01*
X166986724Y-60975253D01*
X167010428Y-61011473D01*
X167008757Y-61013937D01*
X166894413Y-61057945D01*
X166691034Y-61068494D01*
X166472298Y-61047235D01*
X166311880Y-60995819D01*
X166265396Y-60980299D01*
X166171582Y-61041973D01*
X166139358Y-61050527D01*
X166122018Y-60921548D01*
X166088394Y-60747571D01*
X166023287Y-60630574D01*
X166124739Y-60630574D01*
X166221167Y-60661500D01*
X166274648Y-60672721D01*
X166303588Y-60782116D01*
X166303323Y-60858419D01*
X166367088Y-60977612D01*
X166416361Y-60980591D01*
X166451307Y-60878164D01*
X166432027Y-60770256D01*
X166354657Y-60607717D01*
X166254297Y-60494735D01*
X166170462Y-60486427D01*
X166139266Y-60524872D01*
X166124739Y-60630574D01*
X166023287Y-60630574D01*
X165988333Y-60567762D01*
X165915797Y-60478863D01*
X165880505Y-60395392D01*
X165946000Y-60395392D01*
X165969466Y-60426934D01*
X166066511Y-60415156D01*
X166157067Y-60344970D01*
X166164797Y-60305778D01*
X166077398Y-60311695D01*
X166012413Y-60341015D01*
X165946000Y-60395392D01*
X165880505Y-60395392D01*
X165861333Y-60350048D01*
X165847896Y-60309152D01*
X165736991Y-60259334D01*
X165674391Y-60241562D01*
X165666424Y-60174667D01*
X165861333Y-60174667D01*
X165863794Y-60194904D01*
X165946000Y-60259334D01*
X165966238Y-60256873D01*
X166030667Y-60174667D01*
X166028207Y-60154429D01*
X166000015Y-60132334D01*
X166200000Y-60132334D01*
X166242333Y-60174667D01*
X166284667Y-60132334D01*
X166242333Y-60090000D01*
X166200000Y-60132334D01*
X166000015Y-60132334D01*
X165946000Y-60090000D01*
X165925763Y-60092460D01*
X165861333Y-60174667D01*
X165666424Y-60174667D01*
X165661382Y-60132334D01*
X165669023Y-60095420D01*
X165608542Y-60018402D01*
X165462767Y-60009132D01*
X165288218Y-60076125D01*
X165277555Y-60083326D01*
X165251532Y-60156709D01*
X165377885Y-60249817D01*
X165433078Y-60289191D01*
X165587233Y-60477813D01*
X165715310Y-60733886D01*
X165759905Y-60865434D01*
X165795212Y-61022283D01*
X165773810Y-61061901D01*
X165753782Y-61046845D01*
X165692000Y-60923573D01*
X165638643Y-60778835D01*
X165506484Y-60579013D01*
X165342055Y-60386781D01*
X165191896Y-60263559D01*
X165141787Y-60244524D01*
X164941034Y-60265679D01*
X164734195Y-60392362D01*
X164569855Y-60586411D01*
X164496600Y-60809667D01*
X164488870Y-60925389D01*
X164473068Y-60974985D01*
X164446432Y-60869484D01*
X164444187Y-60858202D01*
X164375875Y-60723722D01*
X164225129Y-60720535D01*
X164130080Y-60738183D01*
X164147361Y-60716987D01*
X164188553Y-60688299D01*
X164205864Y-60590769D01*
X164194156Y-60565239D01*
X164230450Y-60513333D01*
X164278438Y-60502982D01*
X164386012Y-60443128D01*
X164565463Y-60312652D01*
X164845333Y-60091997D01*
X165057000Y-59922296D01*
X164798842Y-60013077D01*
X164718333Y-60041388D01*
X164589901Y-60089514D01*
X164271491Y-60222272D01*
X163956333Y-60367220D01*
X163954155Y-60368269D01*
X163807717Y-60438799D01*
X163768948Y-60456889D01*
X163477059Y-60593087D01*
X163194333Y-60719308D01*
X163181699Y-60725000D01*
X162908914Y-60847897D01*
X162573648Y-61013247D01*
X162480077Y-61063667D01*
X162272360Y-61175593D01*
X162033797Y-61317667D01*
X162028699Y-61320703D01*
X161866317Y-61434345D01*
X161808862Y-61502285D01*
X161879984Y-61510292D01*
X161947660Y-61489079D01*
X162113812Y-61386220D01*
X162199809Y-61336825D01*
X162390995Y-61317858D01*
X162490452Y-61324235D01*
X162559333Y-61284583D01*
X162566462Y-61260157D01*
X162665167Y-61207244D01*
X162795794Y-61189893D01*
X163008578Y-61157734D01*
X163135604Y-61146042D01*
X163222704Y-61173662D01*
X163182840Y-61241148D01*
X163032363Y-61329199D01*
X162787627Y-61418515D01*
X162661771Y-61459260D01*
X162468320Y-61564774D01*
X162392815Y-61715491D01*
X162426843Y-61943576D01*
X162561992Y-62281197D01*
X162625916Y-62430771D01*
X162661304Y-62561648D01*
X162610699Y-62552830D01*
X162513443Y-62497613D01*
X162445933Y-62562966D01*
X162419830Y-62593814D01*
X162411152Y-62503000D01*
X162411878Y-62463383D01*
X162394504Y-62244446D01*
X162353510Y-61979325D01*
X162340013Y-61910940D01*
X162290942Y-61730967D01*
X162229030Y-61679366D01*
X162126057Y-61724525D01*
X162030090Y-61798519D01*
X161966667Y-61893363D01*
X161970234Y-61912322D01*
X162041025Y-61916704D01*
X162086551Y-61935657D01*
X162154324Y-62072302D01*
X162156371Y-62079667D01*
X162215197Y-62291334D01*
X162215233Y-62291465D01*
X162252830Y-62544401D01*
X162253112Y-62545334D01*
X162261710Y-62573738D01*
X162374944Y-62695740D01*
X162574033Y-62817189D01*
X162694330Y-62878305D01*
X162865249Y-62985648D01*
X162949710Y-63065732D01*
X162929034Y-63097147D01*
X162784544Y-63058483D01*
X162632850Y-63020196D01*
X162521102Y-63035120D01*
X162477785Y-63045291D01*
X162382825Y-62966215D01*
X162365244Y-62941125D01*
X162329515Y-62926645D01*
X162351456Y-63063274D01*
X162356481Y-63087105D01*
X162343772Y-63265000D01*
X162341579Y-63295690D01*
X162195209Y-63508792D01*
X162191085Y-63513254D01*
X162064367Y-63682256D01*
X162017571Y-63863781D01*
X162030689Y-64133851D01*
X162045728Y-64252248D01*
X162094024Y-64509596D01*
X162147174Y-64677601D01*
X162196647Y-64840327D01*
X162220667Y-65074771D01*
X162248436Y-65269228D01*
X162318415Y-65389752D01*
X162365731Y-65410352D01*
X162355752Y-65352415D01*
X162341430Y-65298786D01*
X162427337Y-65254667D01*
X162501709Y-65226937D01*
X162559333Y-65094392D01*
X162570269Y-65000740D01*
X162650080Y-64899611D01*
X162770793Y-64931007D01*
X162888647Y-65094864D01*
X162888651Y-65094872D01*
X162994488Y-65256777D01*
X163095809Y-65283906D01*
X163135184Y-65265527D01*
X163130649Y-65297722D01*
X163120907Y-65359582D01*
X163187464Y-65493661D01*
X163306070Y-65621210D01*
X163426718Y-65678000D01*
X163514526Y-65721879D01*
X163647516Y-65852942D01*
X163789175Y-66027883D01*
X164109348Y-65810608D01*
X164351782Y-65655377D01*
X164470331Y-65604513D01*
X164462602Y-65661388D01*
X164330925Y-65826167D01*
X164125667Y-66059000D01*
X164355891Y-65856193D01*
X164389701Y-65825196D01*
X164514553Y-65678844D01*
X164542585Y-65582953D01*
X164538218Y-65566896D01*
X164544825Y-65551000D01*
X166030667Y-65551000D01*
X166073000Y-65593334D01*
X166115333Y-65551000D01*
X166200000Y-65551000D01*
X166242333Y-65593334D01*
X166284667Y-65551000D01*
X166242333Y-65508667D01*
X166200000Y-65551000D01*
X166115333Y-65551000D01*
X166073000Y-65508667D01*
X166030667Y-65551000D01*
X164544825Y-65551000D01*
X164583861Y-65457086D01*
X166382636Y-65457086D01*
X166399386Y-65551000D01*
X166402847Y-65570403D01*
X166431749Y-65569092D01*
X166440315Y-65508667D01*
X166560266Y-65508667D01*
X166597720Y-65490496D01*
X166701744Y-65389205D01*
X166756654Y-65290111D01*
X166690945Y-65206297D01*
X166642908Y-65183454D01*
X166643766Y-65212136D01*
X166643837Y-65212334D01*
X166662554Y-65264726D01*
X166650091Y-65297000D01*
X166612232Y-65395043D01*
X166568010Y-65456484D01*
X166567595Y-65459278D01*
X166560266Y-65508667D01*
X166440315Y-65508667D01*
X166447316Y-65459278D01*
X166433758Y-65376055D01*
X166427179Y-65381667D01*
X166396163Y-65408125D01*
X166382636Y-65457086D01*
X164583861Y-65457086D01*
X164587206Y-65449038D01*
X164637814Y-65381667D01*
X165946000Y-65381667D01*
X165988333Y-65424000D01*
X166030667Y-65381667D01*
X166115333Y-65381667D01*
X166157667Y-65424000D01*
X166200000Y-65381667D01*
X166157667Y-65339334D01*
X166115333Y-65381667D01*
X166030667Y-65381667D01*
X165988333Y-65339334D01*
X165946000Y-65381667D01*
X164637814Y-65381667D01*
X164701415Y-65297000D01*
X164845333Y-65297000D01*
X164887667Y-65339334D01*
X164930000Y-65297000D01*
X165776667Y-65297000D01*
X165819000Y-65339334D01*
X165861333Y-65297000D01*
X165819000Y-65254667D01*
X165776667Y-65297000D01*
X164930000Y-65297000D01*
X164887667Y-65254667D01*
X164845333Y-65297000D01*
X164701415Y-65297000D01*
X164711881Y-65283068D01*
X164778435Y-65212334D01*
X165946000Y-65212334D01*
X165988333Y-65254667D01*
X166030667Y-65212334D01*
X166200000Y-65212334D01*
X166242333Y-65254667D01*
X166284667Y-65212334D01*
X166454000Y-65212334D01*
X166496333Y-65254667D01*
X166538667Y-65212334D01*
X166496333Y-65170000D01*
X166454000Y-65212334D01*
X166284667Y-65212334D01*
X166242333Y-65170000D01*
X166200000Y-65212334D01*
X166030667Y-65212334D01*
X165988333Y-65170000D01*
X165946000Y-65212334D01*
X164778435Y-65212334D01*
X164869239Y-65115828D01*
X165016274Y-64994162D01*
X165109981Y-64964914D01*
X165141466Y-64963213D01*
X165125998Y-64863365D01*
X165109924Y-64762831D01*
X165200945Y-64767542D01*
X165309685Y-64761388D01*
X165441618Y-64612908D01*
X165573800Y-64461944D01*
X165812140Y-64403122D01*
X165839867Y-64402394D01*
X166115870Y-64383658D01*
X166411667Y-64349862D01*
X166452583Y-64344233D01*
X166741315Y-64313456D01*
X166983167Y-64300255D01*
X167142824Y-64282460D01*
X167145179Y-64281000D01*
X167639333Y-64281000D01*
X167681667Y-64323334D01*
X167724000Y-64281000D01*
X167681667Y-64238667D01*
X167639333Y-64281000D01*
X167145179Y-64281000D01*
X167216000Y-64237099D01*
X167285297Y-64179951D01*
X167457842Y-64126798D01*
X167479055Y-64122450D01*
X167602875Y-64081915D01*
X167676194Y-63998245D01*
X167720049Y-63829531D01*
X167755477Y-63533864D01*
X167777886Y-63118815D01*
X167775133Y-63095667D01*
X168740000Y-63095667D01*
X168782333Y-63138000D01*
X168824667Y-63095667D01*
X168782333Y-63053334D01*
X168740000Y-63095667D01*
X167775133Y-63095667D01*
X167744922Y-62841667D01*
X168570667Y-62841667D01*
X168613000Y-62884000D01*
X168655333Y-62841667D01*
X168613000Y-62799334D01*
X168570667Y-62841667D01*
X167744922Y-62841667D01*
X167740134Y-62801413D01*
X167635754Y-62630000D01*
X167583949Y-62556118D01*
X167514158Y-62384937D01*
X167450826Y-62182207D01*
X167645711Y-62363770D01*
X167700915Y-62413018D01*
X167866604Y-62525547D01*
X167954500Y-62524967D01*
X167943467Y-62408130D01*
X167940977Y-62401515D01*
X167939239Y-62308521D01*
X168061324Y-62315514D01*
X168098230Y-62323155D01*
X168245337Y-62302849D01*
X168298716Y-62217695D01*
X168221681Y-62113831D01*
X168154585Y-62059116D01*
X168213491Y-62038630D01*
X168265579Y-62050231D01*
X168368115Y-62157556D01*
X168433595Y-62226107D01*
X168619458Y-62240567D01*
X168667364Y-62233837D01*
X168802432Y-62259026D01*
X168800010Y-62351803D01*
X168655333Y-62480316D01*
X168648105Y-62484866D01*
X168508349Y-62602364D01*
X168512402Y-62671706D01*
X168659767Y-62671480D01*
X168706053Y-62663958D01*
X168795593Y-62688298D01*
X168778071Y-62824508D01*
X168773092Y-62841667D01*
X168767855Y-62859715D01*
X168755543Y-62943471D01*
X168811508Y-62918786D01*
X168960920Y-62779459D01*
X169027669Y-62714070D01*
X169134544Y-62590136D01*
X169132802Y-62511342D01*
X169033117Y-62425326D01*
X169004972Y-62403891D01*
X168978475Y-62371003D01*
X169163333Y-62371003D01*
X169166563Y-62394757D01*
X169248000Y-62503000D01*
X169291621Y-62510965D01*
X169332667Y-62423330D01*
X169322305Y-62360249D01*
X169248000Y-62291334D01*
X169227912Y-62293614D01*
X169163333Y-62371003D01*
X168978475Y-62371003D01*
X168919651Y-62297989D01*
X168972833Y-62195433D01*
X169031978Y-62146168D01*
X169078667Y-62150379D01*
X169120925Y-62168124D01*
X169135711Y-62162632D01*
X169435423Y-62162632D01*
X169445556Y-62263111D01*
X169471022Y-62276357D01*
X169502000Y-62206667D01*
X169495890Y-62161845D01*
X169445556Y-62150222D01*
X169435423Y-62162632D01*
X169135711Y-62162632D01*
X169254567Y-62118486D01*
X169301016Y-62079667D01*
X169586667Y-62079667D01*
X169629000Y-62122000D01*
X169671333Y-62079667D01*
X169629000Y-62037334D01*
X169586667Y-62079667D01*
X169301016Y-62079667D01*
X169355418Y-62034202D01*
X169382789Y-61910334D01*
X169502000Y-61910334D01*
X169544333Y-61952667D01*
X169586667Y-61910334D01*
X169544333Y-61868000D01*
X169502000Y-61910334D01*
X169382789Y-61910334D01*
X169384224Y-61903840D01*
X169370671Y-61845368D01*
X169408250Y-61783334D01*
X169444738Y-61729035D01*
X169438056Y-61571667D01*
X169425696Y-61487297D01*
X169460818Y-61383347D01*
X169619130Y-61360000D01*
X169700267Y-61352369D01*
X169826408Y-61275513D01*
X169816622Y-61160035D01*
X169662859Y-61060977D01*
X169561893Y-61000056D01*
X169406357Y-60806270D01*
X169283471Y-60549280D01*
X169220443Y-60291807D01*
X169244483Y-60096572D01*
X169303885Y-59917431D01*
X169332667Y-59672233D01*
X169331381Y-59614907D01*
X169290354Y-59456637D01*
X169173700Y-59412667D01*
X169060441Y-59394018D01*
X168928517Y-59313281D01*
X168879538Y-59209712D01*
X168949506Y-59128878D01*
X169010052Y-59090228D01*
X169078667Y-58948044D01*
X169080127Y-58922345D01*
X169138914Y-58853947D01*
X169311500Y-58872631D01*
X169478971Y-58917783D01*
X169574794Y-58954094D01*
X169590625Y-58955485D01*
X169714704Y-58911888D01*
X169912207Y-58815183D01*
X169975718Y-58782322D01*
X170188445Y-58688414D01*
X170328138Y-58650667D01*
X170418272Y-58688575D01*
X170600259Y-58816415D01*
X170819654Y-59003277D01*
X171202191Y-59355887D01*
X171330563Y-59172610D01*
X171450689Y-59053877D01*
X171613101Y-58989334D01*
X171775246Y-59035512D01*
X171902544Y-59173041D01*
X171913571Y-59343528D01*
X171909328Y-59391415D01*
X171963072Y-59568239D01*
X172084921Y-59786478D01*
X172125956Y-59849223D01*
X172292413Y-60142142D01*
X172417476Y-60416385D01*
X172422189Y-60429064D01*
X172534117Y-60722346D01*
X172643457Y-60998129D01*
X172659110Y-61037022D01*
X172708322Y-61210862D01*
X172669410Y-61343131D01*
X172524227Y-61512049D01*
X172454098Y-61579927D01*
X172232086Y-61772396D01*
X172061344Y-61910334D01*
X171939056Y-62009127D01*
X171846871Y-62079667D01*
X171680901Y-62206667D01*
X171619447Y-62253691D01*
X171464597Y-62372779D01*
X171405186Y-62423330D01*
X171176464Y-62617941D01*
X170959164Y-62835018D01*
X170847513Y-62990766D01*
X170783116Y-63095667D01*
X170751435Y-63147274D01*
X170612667Y-63185760D01*
X170571969Y-63182780D01*
X170400592Y-63247836D01*
X170194947Y-63399033D01*
X169914228Y-63653536D01*
X170056359Y-64081453D01*
X170099610Y-64216967D01*
X170118189Y-64281000D01*
X170210895Y-64600507D01*
X170304208Y-64964155D01*
X170345626Y-65152519D01*
X170362671Y-65290111D01*
X170369427Y-65344644D01*
X170339889Y-65462917D01*
X170252297Y-65561592D01*
X170217101Y-65597922D01*
X170123304Y-65797516D01*
X170094667Y-66116201D01*
X170088174Y-66333511D01*
X170048899Y-66482334D01*
X170044363Y-66499522D01*
X169986602Y-66567000D01*
X169928317Y-66635090D01*
X169792614Y-66736334D01*
X169705163Y-66801578D01*
X169315659Y-67075000D01*
X169556996Y-67099589D01*
X169698241Y-67119954D01*
X169940797Y-67185840D01*
X170222364Y-67304641D01*
X170576113Y-67491182D01*
X171035214Y-67760290D01*
X171335338Y-67937891D01*
X171592440Y-68074297D01*
X171785230Y-68146254D01*
X171955744Y-68168769D01*
X172146014Y-68156846D01*
X172185368Y-68152750D01*
X172457272Y-68152602D01*
X172590010Y-68214241D01*
X172588258Y-68262401D01*
X172519428Y-68430189D01*
X172388636Y-68674937D01*
X172219435Y-68959187D01*
X172035373Y-69245478D01*
X171860002Y-69496350D01*
X171716871Y-69674344D01*
X171629532Y-69742000D01*
X171624397Y-69741638D01*
X171506181Y-69686560D01*
X171333381Y-69566230D01*
X171173951Y-69463940D01*
X170894204Y-69320280D01*
X170581129Y-69185297D01*
X170317638Y-69066269D01*
X170047490Y-68907645D01*
X169875434Y-68762900D01*
X169766095Y-68651835D01*
X169622299Y-68576959D01*
X169403245Y-68530634D01*
X169061901Y-68497517D01*
X168729945Y-68485729D01*
X168293726Y-68509738D01*
X167914808Y-68574016D01*
X167630163Y-68671613D01*
X167476763Y-68795575D01*
X167458116Y-68847154D01*
X167483382Y-69030980D01*
X167620441Y-69308694D01*
X167729281Y-69513835D01*
X167797291Y-69721232D01*
X167823671Y-69971404D01*
X167820783Y-70327208D01*
X167805225Y-70627468D01*
X167757542Y-70914190D01*
X167659540Y-71089878D01*
X167489510Y-71187884D01*
X167225749Y-71241564D01*
X166995775Y-71251617D01*
X166732500Y-71168969D01*
X166585225Y-70963419D01*
X166550541Y-70631887D01*
X166533857Y-70361654D01*
X166391841Y-70033962D01*
X166305857Y-69870968D01*
X166201158Y-69572856D01*
X166125008Y-69243174D01*
X166077147Y-68977188D01*
X166031175Y-68762768D01*
X166000751Y-68667862D01*
X165967188Y-68662192D01*
X165808358Y-68681634D01*
X165571396Y-68733222D01*
X165386856Y-68776270D01*
X165207366Y-68787004D01*
X165052900Y-68723346D01*
X164846396Y-68567701D01*
X164764690Y-68505260D01*
X164519064Y-68358105D01*
X164326600Y-68300783D01*
X164214598Y-68337399D01*
X164210352Y-68472058D01*
X164209268Y-68640127D01*
X164088643Y-68887877D01*
X163913172Y-69134304D01*
X164336919Y-69445363D01*
X164529813Y-69601896D01*
X164696528Y-69773335D01*
X164760667Y-69891813D01*
X164759029Y-69922631D01*
X164689644Y-70162932D01*
X164539352Y-70465886D01*
X164337500Y-70778991D01*
X164113434Y-71049745D01*
X163993379Y-71169699D01*
X163833883Y-71292206D01*
X163678591Y-71328283D01*
X163459790Y-71304303D01*
X163396666Y-71292878D01*
X163132952Y-71227313D01*
X162940333Y-71153738D01*
X162818653Y-71103592D01*
X162658357Y-71084179D01*
X162529422Y-71064952D01*
X162343836Y-70974942D01*
X162175706Y-70887066D01*
X162008131Y-70842667D01*
X162002593Y-70842506D01*
X161850211Y-70781026D01*
X161673632Y-70641996D01*
X161539759Y-70520721D01*
X161441885Y-70496578D01*
X161337225Y-70577061D01*
X161265770Y-70633984D01*
X161110406Y-70659227D01*
X160983616Y-70559693D01*
X160901838Y-70366493D01*
X160881511Y-70110737D01*
X160939072Y-69823535D01*
X160968344Y-69728930D01*
X160970186Y-69600575D01*
X160885490Y-69479180D01*
X160688517Y-69312212D01*
X160493528Y-69140857D01*
X160403284Y-69000736D01*
X160410267Y-68864870D01*
X160464708Y-68665842D01*
X160455701Y-68509002D01*
X160332225Y-68428881D01*
X160066847Y-68387334D01*
X159930410Y-68372386D01*
X159760914Y-68340747D01*
X159719159Y-68294482D01*
X159777318Y-68217244D01*
X159845047Y-68121137D01*
X159867651Y-67974619D01*
X159862067Y-67916353D01*
X159938248Y-67792454D01*
X160067469Y-67762004D01*
X160308063Y-67768864D01*
X160574772Y-67814278D01*
X160794780Y-67889958D01*
X160842357Y-67906520D01*
X160995758Y-67872360D01*
X161205901Y-67708847D01*
X161331288Y-67597092D01*
X161514395Y-67481246D01*
X161673164Y-67481161D01*
X161861687Y-67586768D01*
X161880647Y-67599784D01*
X162055249Y-67672034D01*
X162233221Y-67618614D01*
X162295858Y-67593577D01*
X162555550Y-67555073D01*
X162900542Y-67563443D01*
X163106141Y-67574759D01*
X163355515Y-67566521D01*
X163500346Y-67532893D01*
X163569908Y-67476109D01*
X163506837Y-67457297D01*
X163463237Y-67448978D01*
X163443454Y-67379229D01*
X163427803Y-67339503D01*
X163300284Y-67345187D01*
X163281204Y-67349334D01*
X163195207Y-67354906D01*
X163226699Y-67299018D01*
X163384833Y-67161822D01*
X163554699Y-66982712D01*
X163648077Y-66801693D01*
X163647521Y-66736334D01*
X167131333Y-66736334D01*
X167173667Y-66778667D01*
X167216000Y-66736334D01*
X167173667Y-66694000D01*
X167131333Y-66736334D01*
X163647521Y-66736334D01*
X163646906Y-66664027D01*
X163540056Y-66609334D01*
X163488967Y-66600509D01*
X163451629Y-66567000D01*
X167724000Y-66567000D01*
X167766333Y-66609334D01*
X167808667Y-66567000D01*
X167766333Y-66524667D01*
X167724000Y-66567000D01*
X163451629Y-66567000D01*
X163380874Y-66503500D01*
X163380269Y-66501890D01*
X163353778Y-66482334D01*
X163575333Y-66482334D01*
X163617667Y-66524667D01*
X163660000Y-66482334D01*
X163617667Y-66440000D01*
X163575333Y-66482334D01*
X163353778Y-66482334D01*
X163315585Y-66454140D01*
X163189012Y-66543163D01*
X163080933Y-66629990D01*
X162999542Y-66609621D01*
X162893478Y-66458497D01*
X162819905Y-66328242D01*
X162799588Y-66203553D01*
X162876675Y-66083553D01*
X162956847Y-65917537D01*
X162946555Y-65639053D01*
X162919330Y-65509147D01*
X162857346Y-65371414D01*
X162750534Y-65375694D01*
X162559333Y-65508667D01*
X162558333Y-65509449D01*
X162381716Y-65626413D01*
X162253531Y-65676118D01*
X162218534Y-65638735D01*
X162153986Y-65463041D01*
X162080846Y-65170729D01*
X162007553Y-64792128D01*
X161953238Y-64501389D01*
X161885717Y-64203985D01*
X161826519Y-64009611D01*
X161784188Y-63950458D01*
X161750456Y-63966146D01*
X161718313Y-63933965D01*
X161736770Y-63793681D01*
X161807231Y-63519000D01*
X161829337Y-63445498D01*
X161902315Y-63265000D01*
X161966667Y-63265000D01*
X162009000Y-63307334D01*
X162051333Y-63265000D01*
X162009000Y-63222667D01*
X161966667Y-63265000D01*
X161902315Y-63265000D01*
X161914507Y-63234845D01*
X161994886Y-63121388D01*
X162030829Y-63074461D01*
X161943614Y-63006683D01*
X161870558Y-62962585D01*
X161845150Y-62875128D01*
X161808673Y-62839973D01*
X161643321Y-62810612D01*
X161385045Y-62799334D01*
X161347521Y-62799234D01*
X161013035Y-62779679D01*
X160796835Y-62706415D01*
X160675273Y-62550954D01*
X160665837Y-62501298D01*
X161900089Y-62501298D01*
X161910222Y-62601778D01*
X161935689Y-62615024D01*
X161966667Y-62545334D01*
X161960557Y-62500511D01*
X161910222Y-62488889D01*
X161900089Y-62501298D01*
X160665837Y-62501298D01*
X160625940Y-62291334D01*
X161966667Y-62291334D01*
X161969127Y-62311571D01*
X162051333Y-62376000D01*
X162071571Y-62373540D01*
X162136000Y-62291334D01*
X162133540Y-62271096D01*
X162051333Y-62206667D01*
X162031096Y-62209127D01*
X161966667Y-62291334D01*
X160625940Y-62291334D01*
X160624699Y-62284804D01*
X160623061Y-62079667D01*
X161882000Y-62079667D01*
X161924333Y-62122000D01*
X161966667Y-62079667D01*
X161924333Y-62037334D01*
X161882000Y-62079667D01*
X160623061Y-62079667D01*
X160621463Y-61879477D01*
X160622108Y-61510092D01*
X160615344Y-61317667D01*
X161120000Y-61317667D01*
X161162333Y-61360000D01*
X161204667Y-61317667D01*
X161374000Y-61317667D01*
X161416333Y-61360000D01*
X161458667Y-61317667D01*
X161416333Y-61275334D01*
X161374000Y-61317667D01*
X161204667Y-61317667D01*
X161162333Y-61275334D01*
X161120000Y-61317667D01*
X160615344Y-61317667D01*
X160606418Y-61063731D01*
X160606413Y-61063667D01*
X161712667Y-61063667D01*
X161755000Y-61106000D01*
X161797333Y-61063667D01*
X161755000Y-61021334D01*
X161712667Y-61063667D01*
X160606413Y-61063667D01*
X160580358Y-60725000D01*
X162220667Y-60725000D01*
X162263000Y-60767334D01*
X162305333Y-60725000D01*
X162263000Y-60682667D01*
X162220667Y-60725000D01*
X160580358Y-60725000D01*
X160577101Y-60682667D01*
X160515993Y-60132334D01*
X160683401Y-60322834D01*
X160781788Y-60426028D01*
X160889377Y-60505497D01*
X160908974Y-60475997D01*
X161035333Y-60475997D01*
X161036158Y-60487833D01*
X161085168Y-60506479D01*
X161107794Y-60482355D01*
X161304310Y-60482355D01*
X161374000Y-60513334D01*
X161418822Y-60507223D01*
X161430445Y-60456889D01*
X161418035Y-60446756D01*
X161317556Y-60456889D01*
X161304310Y-60482355D01*
X161107794Y-60482355D01*
X161170418Y-60415585D01*
X161191019Y-60368269D01*
X161133082Y-60378249D01*
X161095470Y-60404384D01*
X161035333Y-60475997D01*
X160908974Y-60475997D01*
X160911640Y-60471983D01*
X160828468Y-60325161D01*
X160790817Y-60266622D01*
X160708348Y-60057420D01*
X160711178Y-60015887D01*
X160788301Y-60015887D01*
X160882933Y-60157734D01*
X160928663Y-60199849D01*
X161058506Y-60251701D01*
X161145442Y-60145822D01*
X161158993Y-60013077D01*
X161076461Y-59892490D01*
X160922731Y-59884524D01*
X160851747Y-59917662D01*
X160788301Y-60015887D01*
X160711178Y-60015887D01*
X160719151Y-59898863D01*
X160823667Y-59836000D01*
X160891911Y-59822908D01*
X160948617Y-59735236D01*
X160871362Y-59627647D01*
X160799151Y-59551022D01*
X165198977Y-59551022D01*
X165268667Y-59582000D01*
X165313489Y-59575890D01*
X165325111Y-59525556D01*
X165312702Y-59515423D01*
X165212222Y-59525556D01*
X165198977Y-59551022D01*
X160799151Y-59551022D01*
X160787494Y-59538652D01*
X160693679Y-59370334D01*
X165438000Y-59370334D01*
X165480333Y-59412667D01*
X165522667Y-59370334D01*
X165480333Y-59328000D01*
X165438000Y-59370334D01*
X160693679Y-59370334D01*
X160664211Y-59317464D01*
X160552913Y-59034096D01*
X160480037Y-58747978D01*
X160428265Y-58439000D01*
X160599699Y-58687291D01*
X160790623Y-58911419D01*
X161024046Y-59056850D01*
X161337262Y-59132559D01*
X161773163Y-59155667D01*
X161940976Y-59154613D01*
X162264762Y-59130421D01*
X162523194Y-59062904D01*
X162766736Y-58947000D01*
X164760667Y-58947000D01*
X164803000Y-58989334D01*
X164845333Y-58947000D01*
X164803000Y-58904667D01*
X164760667Y-58947000D01*
X162766736Y-58947000D01*
X162789163Y-58936327D01*
X163019096Y-58803377D01*
X163033023Y-58793326D01*
X165148471Y-58793326D01*
X165268667Y-58806632D01*
X165385136Y-58794830D01*
X165374500Y-58763927D01*
X165336176Y-58752744D01*
X165162833Y-58763927D01*
X165148471Y-58793326D01*
X163033023Y-58793326D01*
X163174397Y-58691298D01*
X165540756Y-58691298D01*
X165550889Y-58791778D01*
X165556757Y-58794830D01*
X165576355Y-58805024D01*
X165607333Y-58735334D01*
X165601223Y-58690511D01*
X165550889Y-58678889D01*
X165540756Y-58691298D01*
X163174397Y-58691298D01*
X163338344Y-58572980D01*
X163567365Y-58319918D01*
X163752849Y-57998765D01*
X163835543Y-57793676D01*
X163892397Y-57367629D01*
X163792118Y-56915000D01*
X163779673Y-56857399D01*
X163837792Y-56874809D01*
X163993954Y-57025607D01*
X164052809Y-57092848D01*
X164219286Y-57341761D01*
X164312096Y-57571977D01*
X164341052Y-57698658D01*
X164378252Y-57759510D01*
X164421791Y-57677596D01*
X164463465Y-57618531D01*
X164513321Y-57692381D01*
X164579413Y-57918736D01*
X164608730Y-58053509D01*
X164636074Y-58285614D01*
X164619727Y-58422177D01*
X164619676Y-58457347D01*
X164714294Y-58397331D01*
X164788547Y-58339526D01*
X164841556Y-58330062D01*
X164809507Y-58460831D01*
X164791759Y-58608778D01*
X164881961Y-58650667D01*
X164945705Y-58640191D01*
X165014667Y-58566000D01*
X165053356Y-58514224D01*
X165198759Y-58481333D01*
X165382851Y-58481333D01*
X165343081Y-58439000D01*
X165438000Y-58439000D01*
X165480333Y-58481334D01*
X165522667Y-58439000D01*
X165480333Y-58396667D01*
X165438000Y-58439000D01*
X165343081Y-58439000D01*
X165184314Y-58270001D01*
X165127196Y-58205707D01*
X165038205Y-58062436D01*
X165060976Y-57997592D01*
X165169895Y-58005217D01*
X165339350Y-58079354D01*
X165543728Y-58214042D01*
X165757416Y-58403325D01*
X165790408Y-58439000D01*
X165835757Y-58488037D01*
G37*
D12*
X144465000Y-93972936D02*
X144465000Y-94427064D01*
X145935000Y-93972936D02*
X145935000Y-94427064D01*
X140372936Y-66665000D02*
X140827064Y-66665000D01*
X140372936Y-68135000D02*
X140827064Y-68135000D01*
X140827064Y-64165000D02*
X140372936Y-64165000D01*
X140827064Y-65635000D02*
X140372936Y-65635000D01*
X165535436Y-71365000D02*
X165989564Y-71365000D01*
X165535436Y-72835000D02*
X165989564Y-72835000D01*
X130277500Y-87372936D02*
X130277500Y-87827064D01*
X131747500Y-87372936D02*
X131747500Y-87827064D01*
X153527500Y-74440000D02*
X153527500Y-76400000D01*
X154727500Y-74440000D02*
X153527500Y-74440000D01*
X154727500Y-74440000D02*
X154727500Y-76400000D01*
X134765000Y-82838748D02*
X134765000Y-83361252D01*
X136235000Y-82838748D02*
X136235000Y-83361252D01*
X136965000Y-83361252D02*
X136965000Y-82838748D01*
X138435000Y-83361252D02*
X138435000Y-82838748D01*
X146665000Y-87360436D02*
X146665000Y-87814564D01*
X148135000Y-87360436D02*
X148135000Y-87814564D01*
X165572936Y-69265000D02*
X166027064Y-69265000D01*
X165572936Y-70735000D02*
X166027064Y-70735000D01*
X125865000Y-93960436D02*
X125865000Y-94414564D01*
X127335000Y-93960436D02*
X127335000Y-94414564D01*
X137365000Y-96314564D02*
X137365000Y-95860436D01*
X138835000Y-96314564D02*
X138835000Y-95860436D01*
%LPC*%
D14*
X103200000Y-52200000D03*
D15*
X177360000Y-63400000D03*
X177360000Y-75400000D03*
D16*
X175400000Y-66400000D03*
D17*
X175400000Y-69400000D03*
X175400000Y-72400000D03*
D14*
X175300000Y-103149993D03*
D18*
X153210000Y-55300000D03*
X153210000Y-58480000D03*
X160700000Y-55300000D03*
X160700000Y-58480000D03*
D19*
X123700000Y-91300000D03*
D20*
X123700000Y-93840000D03*
X123700000Y-96380000D03*
D14*
X103200000Y-103149993D03*
D18*
X117500000Y-55320000D03*
X117500000Y-58500000D03*
X124990000Y-55320000D03*
X124990000Y-58500000D03*
D21*
X139000000Y-61500000D03*
D22*
X139000000Y-56500000D03*
D23*
X170885000Y-91365000D03*
X174065000Y-91365000D03*
X170885000Y-83875000D03*
X174065000Y-83875000D03*
X107560000Y-83810000D03*
X104380000Y-83810000D03*
X107560000Y-91300000D03*
X104380000Y-91300000D03*
D19*
X154800000Y-91300000D03*
D20*
X154800000Y-93840000D03*
X154800000Y-96380000D03*
D19*
X141700000Y-100000000D03*
D20*
X139160000Y-100000000D03*
X136620000Y-100000000D03*
D14*
X175300000Y-52200000D03*
D24*
X140400000Y-95175000D03*
X140400000Y-97000000D03*
D25*
X111487500Y-69800000D03*
X113312500Y-69800000D03*
D26*
X131000000Y-95112500D03*
X131000000Y-93287500D03*
D27*
X172495000Y-77040000D03*
D28*
X170590000Y-74935000D03*
X171860000Y-74935000D03*
X173130000Y-74935000D03*
X174400000Y-74935000D03*
D29*
X170590000Y-80400000D03*
X171860000Y-80400000D03*
X173130000Y-80400000D03*
X174400000Y-80400000D03*
D30*
X153225000Y-88350000D03*
X152275000Y-88350000D03*
X151325000Y-88350000D03*
X151325000Y-86050000D03*
X152275000Y-86050000D03*
X153225000Y-86050000D03*
D26*
X151800000Y-95112500D03*
X151800000Y-93287500D03*
D31*
X140862500Y-74450000D03*
X140862500Y-72550000D03*
X142737500Y-73500000D03*
D26*
X145300000Y-88500000D03*
X145300000Y-86675000D03*
X128800000Y-95100000D03*
X128800000Y-93275000D03*
D30*
X127100000Y-88350000D03*
X126150000Y-88350000D03*
X125200000Y-88350000D03*
X125200000Y-86050000D03*
X126150000Y-86050000D03*
X127100000Y-86050000D03*
D26*
X144800000Y-76312500D03*
X144800000Y-74487500D03*
D32*
X137900000Y-90450000D03*
X137900000Y-88550000D03*
D26*
X149500000Y-88500000D03*
X149500000Y-86675000D03*
X147400000Y-95112500D03*
X147400000Y-93287500D03*
X133112500Y-88512500D03*
X133112500Y-86687500D03*
D32*
X140550000Y-90450000D03*
X140550000Y-88550000D03*
X124250000Y-80700000D03*
X124250000Y-78800000D03*
D25*
X111450000Y-72000000D03*
X113275000Y-72000000D03*
D32*
X154150000Y-80650000D03*
X154150000Y-78750000D03*
D33*
X124250000Y-75050000D03*
X124250000Y-76450000D03*
D26*
X133200000Y-95100000D03*
X133200000Y-93275000D03*
X128925000Y-88512500D03*
X128925000Y-86687500D03*
X149600000Y-95112500D03*
X149600000Y-93287500D03*
X145200000Y-95112500D03*
X145200000Y-93287500D03*
D25*
X139687500Y-67400000D03*
X141512500Y-67400000D03*
D34*
X141512500Y-64900000D03*
X139687500Y-64900000D03*
X166675000Y-72100000D03*
X164850000Y-72100000D03*
D26*
X131012500Y-88512500D03*
X131012500Y-86687500D03*
D33*
X154127500Y-75000000D03*
X154127500Y-76400000D03*
D32*
X135500000Y-84050000D03*
X135500000Y-82150000D03*
D35*
X137700000Y-82150000D03*
X137700000Y-84050000D03*
D26*
X147400000Y-88500000D03*
X147400000Y-86675000D03*
D34*
X166712500Y-70000000D03*
X164887500Y-70000000D03*
D26*
X126600000Y-95100000D03*
X126600000Y-93275000D03*
D24*
X138100000Y-95175000D03*
X138100000Y-97000000D03*
%LPD*%
M02*
