M48
; DRILL file {KiCad (6.0.8)} date Fri Mar 10 10:36:17 2023
; FORMAT={-:-/ absolute / inch / decimal}
; #@! TF.CreationDate,2023-03-10T10:36:17-06:00
; #@! TF.GenerationSoftware,Kicad,Pcbnew,(6.0.8)
; #@! TF.FileFunction,Plated,1,2,PTH
FMAT,2
INCH
; #@! TA.AperFunction,Plated,PTH,ViaDrill
T1C0.0157
; #@! TA.AperFunction,Plated,PTH,ViaDrill
T2C0.0197
; #@! TA.AperFunction,Plated,PTH,ComponentDrill
T3C0.0402
; #@! TA.AperFunction,Plated,PTH,ComponentDrill
T4C0.0547
; #@! TA.AperFunction,Plated,PTH,ComponentDrill
T5C0.0701
%
G90
G05
T1
X3.6Y-1.6
X3.6Y-2.2
X3.6Y-2.8
X3.6Y-3.4
X4.25Y-1.6
X4.25Y-2.2
X4.3Y-2.85
X4.3Y-3.4
X4.7028Y-2.8465
X4.8Y-1.6
X4.8Y-2.2
X4.8Y-3.4
X4.8Y-3.7
X5.4Y-1.6
X5.4Y-2.3
X5.4Y-3.0
X5.4Y-3.4
X5.4Y-3.7
X6.0Y-1.6
X6.0Y-2.2
X6.0Y-2.7
X6.0Y-3.4
X6.0Y-3.7
T2
X4.4941Y-3.1516
X4.626Y-2.9823
X4.626Y-3.1299
T3
X4.7283Y-1.7789
X4.8465Y-1.7789
T4
X4.5008Y-2.5354
X4.5008Y-2.7717
X4.6008Y-2.5354
X4.6008Y-2.7717
X4.7008Y-2.5354
X4.7008Y-2.7717
X5.0677Y-2.5354
X5.0677Y-2.7795
X5.1677Y-2.5354
X5.1677Y-2.7795
X5.2677Y-2.5354
X5.2677Y-2.7795
T5
X3.8579Y-3.0051
X3.8579Y-3.3
X3.8604Y-2.0526
X3.8604Y-2.3474
X3.9831Y-3.0051
X3.9831Y-3.3
X3.9856Y-2.0526
X3.9856Y-2.3474
X4.5685Y-2.1299
X4.5685Y-2.2638
X4.9591Y-2.1299
X4.9591Y-2.2638
X5.675Y-2.05
X5.675Y-2.3449
X5.675Y-3.0026
X5.675Y-3.2974
X5.8002Y-2.05
X5.8002Y-2.3449
X5.8002Y-3.0026
X5.8002Y-3.2974
T0
M30
