%TF.GenerationSoftware,KiCad,Pcbnew,7.0.2*%
%TF.CreationDate,2023-06-05T15:01:48-05:00*%
%TF.ProjectId,Power-Secondary,506f7765-722d-4536-9563-6f6e64617279,rev?*%
%TF.SameCoordinates,Original*%
%TF.FileFunction,Drillmap*%
%TF.FilePolarity,Positive*%
%FSLAX45Y45*%
G04 Gerber Fmt 4.5, Leading zero omitted, Abs format (unit mm)*
G04 Created by KiCad (PCBNEW 7.0.2) date 2023-06-05 15:01:48*
%MOMM*%
%LPD*%
G01*
G04 APERTURE LIST*
%ADD10C,0.150000*%
%ADD11C,0.200000*%
%ADD12C,0.127000*%
%ADD13C,0.300000*%
G04 APERTURE END LIST*
D10*
X16085250Y-9775000D02*
X16100000Y-4300000D01*
X8800000Y-3900000D02*
X15700000Y-3900000D01*
X8785250Y-10175000D02*
X15685250Y-10175000D01*
X8385250Y-9775000D02*
G75*
G03*
X8785250Y-10175000I400000J0D01*
G01*
X15685250Y-10175000D02*
G75*
G03*
X16085250Y-9775000I0J400000D01*
G01*
X8800000Y-3900000D02*
G75*
G03*
X8400000Y-4300000I0J-400000D01*
G01*
X16100000Y-4300000D02*
G75*
G03*
X15700000Y-3900000I-400000J0D01*
G01*
X8385250Y-9775000D02*
X8400000Y-4300000D01*
D11*
D12*
X11646500Y-4259000D02*
X11773500Y-4386000D01*
X11773500Y-4259000D02*
X11646500Y-4386000D01*
X12546500Y-4259000D02*
X12673500Y-4386000D01*
X12673500Y-4259000D02*
X12546500Y-4386000D01*
D13*
X8935250Y-9775000D02*
G75*
G03*
X8935250Y-9775000I-150000J0D01*
G01*
X8950000Y-4300000D02*
G75*
G03*
X8950000Y-4300000I-150000J0D01*
G01*
X15835250Y-9775000D02*
G75*
G03*
X15835250Y-9775000I-150000J0D01*
G01*
X15850000Y-4300000D02*
G75*
G03*
X15850000Y-4300000I-150000J0D01*
G01*
D11*
X8625369Y-10495024D02*
X8625369Y-10295024D01*
X8625369Y-10295024D02*
X8672988Y-10295024D01*
X8672988Y-10295024D02*
X8701560Y-10304548D01*
X8701560Y-10304548D02*
X8720607Y-10323595D01*
X8720607Y-10323595D02*
X8730131Y-10342643D01*
X8730131Y-10342643D02*
X8739655Y-10380738D01*
X8739655Y-10380738D02*
X8739655Y-10409310D01*
X8739655Y-10409310D02*
X8730131Y-10447405D01*
X8730131Y-10447405D02*
X8720607Y-10466452D01*
X8720607Y-10466452D02*
X8701560Y-10485500D01*
X8701560Y-10485500D02*
X8672988Y-10495024D01*
X8672988Y-10495024D02*
X8625369Y-10495024D01*
X8825369Y-10495024D02*
X8825369Y-10361690D01*
X8825369Y-10399786D02*
X8834893Y-10380738D01*
X8834893Y-10380738D02*
X8844417Y-10371214D01*
X8844417Y-10371214D02*
X8863464Y-10361690D01*
X8863464Y-10361690D02*
X8882512Y-10361690D01*
X8949179Y-10495024D02*
X8949179Y-10361690D01*
X8949179Y-10295024D02*
X8939655Y-10304548D01*
X8939655Y-10304548D02*
X8949179Y-10314071D01*
X8949179Y-10314071D02*
X8958702Y-10304548D01*
X8958702Y-10304548D02*
X8949179Y-10295024D01*
X8949179Y-10295024D02*
X8949179Y-10314071D01*
X9072988Y-10495024D02*
X9053940Y-10485500D01*
X9053940Y-10485500D02*
X9044417Y-10466452D01*
X9044417Y-10466452D02*
X9044417Y-10295024D01*
X9177750Y-10495024D02*
X9158702Y-10485500D01*
X9158702Y-10485500D02*
X9149179Y-10466452D01*
X9149179Y-10466452D02*
X9149179Y-10295024D01*
X9406321Y-10495024D02*
X9406321Y-10295024D01*
X9406321Y-10295024D02*
X9472988Y-10437881D01*
X9472988Y-10437881D02*
X9539655Y-10295024D01*
X9539655Y-10295024D02*
X9539655Y-10495024D01*
X9720607Y-10495024D02*
X9720607Y-10390262D01*
X9720607Y-10390262D02*
X9711083Y-10371214D01*
X9711083Y-10371214D02*
X9692036Y-10361690D01*
X9692036Y-10361690D02*
X9653940Y-10361690D01*
X9653940Y-10361690D02*
X9634893Y-10371214D01*
X9720607Y-10485500D02*
X9701560Y-10495024D01*
X9701560Y-10495024D02*
X9653940Y-10495024D01*
X9653940Y-10495024D02*
X9634893Y-10485500D01*
X9634893Y-10485500D02*
X9625369Y-10466452D01*
X9625369Y-10466452D02*
X9625369Y-10447405D01*
X9625369Y-10447405D02*
X9634893Y-10428357D01*
X9634893Y-10428357D02*
X9653940Y-10418833D01*
X9653940Y-10418833D02*
X9701560Y-10418833D01*
X9701560Y-10418833D02*
X9720607Y-10409310D01*
X9815845Y-10361690D02*
X9815845Y-10561690D01*
X9815845Y-10371214D02*
X9834893Y-10361690D01*
X9834893Y-10361690D02*
X9872988Y-10361690D01*
X9872988Y-10361690D02*
X9892036Y-10371214D01*
X9892036Y-10371214D02*
X9901560Y-10380738D01*
X9901560Y-10380738D02*
X9911083Y-10399786D01*
X9911083Y-10399786D02*
X9911083Y-10456929D01*
X9911083Y-10456929D02*
X9901560Y-10475976D01*
X9901560Y-10475976D02*
X9892036Y-10485500D01*
X9892036Y-10485500D02*
X9872988Y-10495024D01*
X9872988Y-10495024D02*
X9834893Y-10495024D01*
X9834893Y-10495024D02*
X9815845Y-10485500D01*
X9996798Y-10475976D02*
X10006321Y-10485500D01*
X10006321Y-10485500D02*
X9996798Y-10495024D01*
X9996798Y-10495024D02*
X9987274Y-10485500D01*
X9987274Y-10485500D02*
X9996798Y-10475976D01*
X9996798Y-10475976D02*
X9996798Y-10495024D01*
X9996798Y-10371214D02*
X10006321Y-10380738D01*
X10006321Y-10380738D02*
X9996798Y-10390262D01*
X9996798Y-10390262D02*
X9987274Y-10380738D01*
X9987274Y-10380738D02*
X9996798Y-10371214D01*
X9996798Y-10371214D02*
X9996798Y-10390262D01*
D12*
X8250750Y-10759000D02*
X8377750Y-10886000D01*
X8377750Y-10759000D02*
X8250750Y-10886000D01*
D11*
X8730131Y-10915024D02*
X8615845Y-10915024D01*
X8672988Y-10915024D02*
X8672988Y-10715024D01*
X8672988Y-10715024D02*
X8653940Y-10743595D01*
X8653940Y-10743595D02*
X8634893Y-10762643D01*
X8634893Y-10762643D02*
X8615845Y-10772167D01*
X8815845Y-10895976D02*
X8825369Y-10905500D01*
X8825369Y-10905500D02*
X8815845Y-10915024D01*
X8815845Y-10915024D02*
X8806321Y-10905500D01*
X8806321Y-10905500D02*
X8815845Y-10895976D01*
X8815845Y-10895976D02*
X8815845Y-10915024D01*
X8901560Y-10734071D02*
X8911083Y-10724548D01*
X8911083Y-10724548D02*
X8930131Y-10715024D01*
X8930131Y-10715024D02*
X8977750Y-10715024D01*
X8977750Y-10715024D02*
X8996798Y-10724548D01*
X8996798Y-10724548D02*
X9006321Y-10734071D01*
X9006321Y-10734071D02*
X9015845Y-10753119D01*
X9015845Y-10753119D02*
X9015845Y-10772167D01*
X9015845Y-10772167D02*
X9006321Y-10800738D01*
X9006321Y-10800738D02*
X8892036Y-10915024D01*
X8892036Y-10915024D02*
X9015845Y-10915024D01*
X9082512Y-10715024D02*
X9215845Y-10715024D01*
X9215845Y-10715024D02*
X9130131Y-10915024D01*
X9330131Y-10715024D02*
X9349179Y-10715024D01*
X9349179Y-10715024D02*
X9368226Y-10724548D01*
X9368226Y-10724548D02*
X9377750Y-10734071D01*
X9377750Y-10734071D02*
X9387274Y-10753119D01*
X9387274Y-10753119D02*
X9396798Y-10791214D01*
X9396798Y-10791214D02*
X9396798Y-10838833D01*
X9396798Y-10838833D02*
X9387274Y-10876929D01*
X9387274Y-10876929D02*
X9377750Y-10895976D01*
X9377750Y-10895976D02*
X9368226Y-10905500D01*
X9368226Y-10905500D02*
X9349179Y-10915024D01*
X9349179Y-10915024D02*
X9330131Y-10915024D01*
X9330131Y-10915024D02*
X9311083Y-10905500D01*
X9311083Y-10905500D02*
X9301560Y-10895976D01*
X9301560Y-10895976D02*
X9292036Y-10876929D01*
X9292036Y-10876929D02*
X9282512Y-10838833D01*
X9282512Y-10838833D02*
X9282512Y-10791214D01*
X9282512Y-10791214D02*
X9292036Y-10753119D01*
X9292036Y-10753119D02*
X9301560Y-10734071D01*
X9301560Y-10734071D02*
X9311083Y-10724548D01*
X9311083Y-10724548D02*
X9330131Y-10715024D01*
X9482512Y-10915024D02*
X9482512Y-10781690D01*
X9482512Y-10800738D02*
X9492036Y-10791214D01*
X9492036Y-10791214D02*
X9511083Y-10781690D01*
X9511083Y-10781690D02*
X9539655Y-10781690D01*
X9539655Y-10781690D02*
X9558702Y-10791214D01*
X9558702Y-10791214D02*
X9568226Y-10810262D01*
X9568226Y-10810262D02*
X9568226Y-10915024D01*
X9568226Y-10810262D02*
X9577750Y-10791214D01*
X9577750Y-10791214D02*
X9596798Y-10781690D01*
X9596798Y-10781690D02*
X9625369Y-10781690D01*
X9625369Y-10781690D02*
X9644417Y-10791214D01*
X9644417Y-10791214D02*
X9653941Y-10810262D01*
X9653941Y-10810262D02*
X9653941Y-10915024D01*
X9749179Y-10915024D02*
X9749179Y-10781690D01*
X9749179Y-10800738D02*
X9758702Y-10791214D01*
X9758702Y-10791214D02*
X9777750Y-10781690D01*
X9777750Y-10781690D02*
X9806322Y-10781690D01*
X9806322Y-10781690D02*
X9825369Y-10791214D01*
X9825369Y-10791214D02*
X9834893Y-10810262D01*
X9834893Y-10810262D02*
X9834893Y-10915024D01*
X9834893Y-10810262D02*
X9844417Y-10791214D01*
X9844417Y-10791214D02*
X9863464Y-10781690D01*
X9863464Y-10781690D02*
X9892036Y-10781690D01*
X9892036Y-10781690D02*
X9911083Y-10791214D01*
X9911083Y-10791214D02*
X9920607Y-10810262D01*
X9920607Y-10810262D02*
X9920607Y-10915024D01*
X10311083Y-10705500D02*
X10139655Y-10962643D01*
X10568226Y-10715024D02*
X10587274Y-10715024D01*
X10587274Y-10715024D02*
X10606322Y-10724548D01*
X10606322Y-10724548D02*
X10615845Y-10734071D01*
X10615845Y-10734071D02*
X10625369Y-10753119D01*
X10625369Y-10753119D02*
X10634893Y-10791214D01*
X10634893Y-10791214D02*
X10634893Y-10838833D01*
X10634893Y-10838833D02*
X10625369Y-10876929D01*
X10625369Y-10876929D02*
X10615845Y-10895976D01*
X10615845Y-10895976D02*
X10606322Y-10905500D01*
X10606322Y-10905500D02*
X10587274Y-10915024D01*
X10587274Y-10915024D02*
X10568226Y-10915024D01*
X10568226Y-10915024D02*
X10549179Y-10905500D01*
X10549179Y-10905500D02*
X10539655Y-10895976D01*
X10539655Y-10895976D02*
X10530131Y-10876929D01*
X10530131Y-10876929D02*
X10520607Y-10838833D01*
X10520607Y-10838833D02*
X10520607Y-10791214D01*
X10520607Y-10791214D02*
X10530131Y-10753119D01*
X10530131Y-10753119D02*
X10539655Y-10734071D01*
X10539655Y-10734071D02*
X10549179Y-10724548D01*
X10549179Y-10724548D02*
X10568226Y-10715024D01*
X10720607Y-10895976D02*
X10730131Y-10905500D01*
X10730131Y-10905500D02*
X10720607Y-10915024D01*
X10720607Y-10915024D02*
X10711084Y-10905500D01*
X10711084Y-10905500D02*
X10720607Y-10895976D01*
X10720607Y-10895976D02*
X10720607Y-10915024D01*
X10853941Y-10715024D02*
X10872988Y-10715024D01*
X10872988Y-10715024D02*
X10892036Y-10724548D01*
X10892036Y-10724548D02*
X10901560Y-10734071D01*
X10901560Y-10734071D02*
X10911084Y-10753119D01*
X10911084Y-10753119D02*
X10920607Y-10791214D01*
X10920607Y-10791214D02*
X10920607Y-10838833D01*
X10920607Y-10838833D02*
X10911084Y-10876929D01*
X10911084Y-10876929D02*
X10901560Y-10895976D01*
X10901560Y-10895976D02*
X10892036Y-10905500D01*
X10892036Y-10905500D02*
X10872988Y-10915024D01*
X10872988Y-10915024D02*
X10853941Y-10915024D01*
X10853941Y-10915024D02*
X10834893Y-10905500D01*
X10834893Y-10905500D02*
X10825369Y-10895976D01*
X10825369Y-10895976D02*
X10815845Y-10876929D01*
X10815845Y-10876929D02*
X10806322Y-10838833D01*
X10806322Y-10838833D02*
X10806322Y-10791214D01*
X10806322Y-10791214D02*
X10815845Y-10753119D01*
X10815845Y-10753119D02*
X10825369Y-10734071D01*
X10825369Y-10734071D02*
X10834893Y-10724548D01*
X10834893Y-10724548D02*
X10853941Y-10715024D01*
X11101560Y-10715024D02*
X11006322Y-10715024D01*
X11006322Y-10715024D02*
X10996798Y-10810262D01*
X10996798Y-10810262D02*
X11006322Y-10800738D01*
X11006322Y-10800738D02*
X11025369Y-10791214D01*
X11025369Y-10791214D02*
X11072988Y-10791214D01*
X11072988Y-10791214D02*
X11092036Y-10800738D01*
X11092036Y-10800738D02*
X11101560Y-10810262D01*
X11101560Y-10810262D02*
X11111084Y-10829310D01*
X11111084Y-10829310D02*
X11111084Y-10876929D01*
X11111084Y-10876929D02*
X11101560Y-10895976D01*
X11101560Y-10895976D02*
X11092036Y-10905500D01*
X11092036Y-10905500D02*
X11072988Y-10915024D01*
X11072988Y-10915024D02*
X11025369Y-10915024D01*
X11025369Y-10915024D02*
X11006322Y-10905500D01*
X11006322Y-10905500D02*
X10996798Y-10895976D01*
X11234893Y-10715024D02*
X11253941Y-10715024D01*
X11253941Y-10715024D02*
X11272988Y-10724548D01*
X11272988Y-10724548D02*
X11282512Y-10734071D01*
X11282512Y-10734071D02*
X11292036Y-10753119D01*
X11292036Y-10753119D02*
X11301560Y-10791214D01*
X11301560Y-10791214D02*
X11301560Y-10838833D01*
X11301560Y-10838833D02*
X11292036Y-10876929D01*
X11292036Y-10876929D02*
X11282512Y-10895976D01*
X11282512Y-10895976D02*
X11272988Y-10905500D01*
X11272988Y-10905500D02*
X11253941Y-10915024D01*
X11253941Y-10915024D02*
X11234893Y-10915024D01*
X11234893Y-10915024D02*
X11215845Y-10905500D01*
X11215845Y-10905500D02*
X11206322Y-10895976D01*
X11206322Y-10895976D02*
X11196798Y-10876929D01*
X11196798Y-10876929D02*
X11187274Y-10838833D01*
X11187274Y-10838833D02*
X11187274Y-10791214D01*
X11187274Y-10791214D02*
X11196798Y-10753119D01*
X11196798Y-10753119D02*
X11206322Y-10734071D01*
X11206322Y-10734071D02*
X11215845Y-10724548D01*
X11215845Y-10724548D02*
X11234893Y-10715024D01*
X11425369Y-10715024D02*
X11444417Y-10715024D01*
X11444417Y-10715024D02*
X11463464Y-10724548D01*
X11463464Y-10724548D02*
X11472988Y-10734071D01*
X11472988Y-10734071D02*
X11482512Y-10753119D01*
X11482512Y-10753119D02*
X11492036Y-10791214D01*
X11492036Y-10791214D02*
X11492036Y-10838833D01*
X11492036Y-10838833D02*
X11482512Y-10876929D01*
X11482512Y-10876929D02*
X11472988Y-10895976D01*
X11472988Y-10895976D02*
X11463464Y-10905500D01*
X11463464Y-10905500D02*
X11444417Y-10915024D01*
X11444417Y-10915024D02*
X11425369Y-10915024D01*
X11425369Y-10915024D02*
X11406322Y-10905500D01*
X11406322Y-10905500D02*
X11396798Y-10895976D01*
X11396798Y-10895976D02*
X11387274Y-10876929D01*
X11387274Y-10876929D02*
X11377750Y-10838833D01*
X11377750Y-10838833D02*
X11377750Y-10791214D01*
X11377750Y-10791214D02*
X11387274Y-10753119D01*
X11387274Y-10753119D02*
X11396798Y-10734071D01*
X11396798Y-10734071D02*
X11406322Y-10724548D01*
X11406322Y-10724548D02*
X11425369Y-10715024D01*
X11568226Y-10715024D02*
X11568226Y-10753119D01*
X11644417Y-10715024D02*
X11644417Y-10753119D01*
X11939655Y-10991214D02*
X11930131Y-10981690D01*
X11930131Y-10981690D02*
X11911084Y-10953119D01*
X11911084Y-10953119D02*
X11901560Y-10934071D01*
X11901560Y-10934071D02*
X11892036Y-10905500D01*
X11892036Y-10905500D02*
X11882512Y-10857881D01*
X11882512Y-10857881D02*
X11882512Y-10819786D01*
X11882512Y-10819786D02*
X11892036Y-10772167D01*
X11892036Y-10772167D02*
X11901560Y-10743595D01*
X11901560Y-10743595D02*
X11911084Y-10724548D01*
X11911084Y-10724548D02*
X11930131Y-10695976D01*
X11930131Y-10695976D02*
X11939655Y-10686452D01*
X12006322Y-10734071D02*
X12015845Y-10724548D01*
X12015845Y-10724548D02*
X12034893Y-10715024D01*
X12034893Y-10715024D02*
X12082512Y-10715024D01*
X12082512Y-10715024D02*
X12101560Y-10724548D01*
X12101560Y-10724548D02*
X12111084Y-10734071D01*
X12111084Y-10734071D02*
X12120607Y-10753119D01*
X12120607Y-10753119D02*
X12120607Y-10772167D01*
X12120607Y-10772167D02*
X12111084Y-10800738D01*
X12111084Y-10800738D02*
X11996798Y-10915024D01*
X11996798Y-10915024D02*
X12120607Y-10915024D01*
X12358703Y-10915024D02*
X12358703Y-10715024D01*
X12444417Y-10915024D02*
X12444417Y-10810262D01*
X12444417Y-10810262D02*
X12434893Y-10791214D01*
X12434893Y-10791214D02*
X12415846Y-10781690D01*
X12415846Y-10781690D02*
X12387274Y-10781690D01*
X12387274Y-10781690D02*
X12368226Y-10791214D01*
X12368226Y-10791214D02*
X12358703Y-10800738D01*
X12568226Y-10915024D02*
X12549179Y-10905500D01*
X12549179Y-10905500D02*
X12539655Y-10895976D01*
X12539655Y-10895976D02*
X12530131Y-10876929D01*
X12530131Y-10876929D02*
X12530131Y-10819786D01*
X12530131Y-10819786D02*
X12539655Y-10800738D01*
X12539655Y-10800738D02*
X12549179Y-10791214D01*
X12549179Y-10791214D02*
X12568226Y-10781690D01*
X12568226Y-10781690D02*
X12596798Y-10781690D01*
X12596798Y-10781690D02*
X12615846Y-10791214D01*
X12615846Y-10791214D02*
X12625369Y-10800738D01*
X12625369Y-10800738D02*
X12634893Y-10819786D01*
X12634893Y-10819786D02*
X12634893Y-10876929D01*
X12634893Y-10876929D02*
X12625369Y-10895976D01*
X12625369Y-10895976D02*
X12615846Y-10905500D01*
X12615846Y-10905500D02*
X12596798Y-10915024D01*
X12596798Y-10915024D02*
X12568226Y-10915024D01*
X12749179Y-10915024D02*
X12730131Y-10905500D01*
X12730131Y-10905500D02*
X12720607Y-10886452D01*
X12720607Y-10886452D02*
X12720607Y-10715024D01*
X12901560Y-10905500D02*
X12882512Y-10915024D01*
X12882512Y-10915024D02*
X12844417Y-10915024D01*
X12844417Y-10915024D02*
X12825369Y-10905500D01*
X12825369Y-10905500D02*
X12815846Y-10886452D01*
X12815846Y-10886452D02*
X12815846Y-10810262D01*
X12815846Y-10810262D02*
X12825369Y-10791214D01*
X12825369Y-10791214D02*
X12844417Y-10781690D01*
X12844417Y-10781690D02*
X12882512Y-10781690D01*
X12882512Y-10781690D02*
X12901560Y-10791214D01*
X12901560Y-10791214D02*
X12911084Y-10810262D01*
X12911084Y-10810262D02*
X12911084Y-10829310D01*
X12911084Y-10829310D02*
X12815846Y-10848357D01*
X12987274Y-10905500D02*
X13006322Y-10915024D01*
X13006322Y-10915024D02*
X13044417Y-10915024D01*
X13044417Y-10915024D02*
X13063465Y-10905500D01*
X13063465Y-10905500D02*
X13072988Y-10886452D01*
X13072988Y-10886452D02*
X13072988Y-10876929D01*
X13072988Y-10876929D02*
X13063465Y-10857881D01*
X13063465Y-10857881D02*
X13044417Y-10848357D01*
X13044417Y-10848357D02*
X13015846Y-10848357D01*
X13015846Y-10848357D02*
X12996798Y-10838833D01*
X12996798Y-10838833D02*
X12987274Y-10819786D01*
X12987274Y-10819786D02*
X12987274Y-10810262D01*
X12987274Y-10810262D02*
X12996798Y-10791214D01*
X12996798Y-10791214D02*
X13015846Y-10781690D01*
X13015846Y-10781690D02*
X13044417Y-10781690D01*
X13044417Y-10781690D02*
X13063465Y-10791214D01*
X13139655Y-10991214D02*
X13149179Y-10981690D01*
X13149179Y-10981690D02*
X13168227Y-10953119D01*
X13168227Y-10953119D02*
X13177750Y-10934071D01*
X13177750Y-10934071D02*
X13187274Y-10905500D01*
X13187274Y-10905500D02*
X13196798Y-10857881D01*
X13196798Y-10857881D02*
X13196798Y-10819786D01*
X13196798Y-10819786D02*
X13187274Y-10772167D01*
X13187274Y-10772167D02*
X13177750Y-10743595D01*
X13177750Y-10743595D02*
X13168227Y-10724548D01*
X13168227Y-10724548D02*
X13149179Y-10695976D01*
X13149179Y-10695976D02*
X13139655Y-10686452D01*
X13501560Y-10991214D02*
X13492036Y-10981690D01*
X13492036Y-10981690D02*
X13472988Y-10953119D01*
X13472988Y-10953119D02*
X13463465Y-10934071D01*
X13463465Y-10934071D02*
X13453941Y-10905500D01*
X13453941Y-10905500D02*
X13444417Y-10857881D01*
X13444417Y-10857881D02*
X13444417Y-10819786D01*
X13444417Y-10819786D02*
X13453941Y-10772167D01*
X13453941Y-10772167D02*
X13463465Y-10743595D01*
X13463465Y-10743595D02*
X13472988Y-10724548D01*
X13472988Y-10724548D02*
X13492036Y-10695976D01*
X13492036Y-10695976D02*
X13501560Y-10686452D01*
X13577750Y-10781690D02*
X13577750Y-10915024D01*
X13577750Y-10800738D02*
X13587274Y-10791214D01*
X13587274Y-10791214D02*
X13606322Y-10781690D01*
X13606322Y-10781690D02*
X13634893Y-10781690D01*
X13634893Y-10781690D02*
X13653941Y-10791214D01*
X13653941Y-10791214D02*
X13663465Y-10810262D01*
X13663465Y-10810262D02*
X13663465Y-10915024D01*
X13787274Y-10915024D02*
X13768227Y-10905500D01*
X13768227Y-10905500D02*
X13758703Y-10895976D01*
X13758703Y-10895976D02*
X13749179Y-10876929D01*
X13749179Y-10876929D02*
X13749179Y-10819786D01*
X13749179Y-10819786D02*
X13758703Y-10800738D01*
X13758703Y-10800738D02*
X13768227Y-10791214D01*
X13768227Y-10791214D02*
X13787274Y-10781690D01*
X13787274Y-10781690D02*
X13815846Y-10781690D01*
X13815846Y-10781690D02*
X13834893Y-10791214D01*
X13834893Y-10791214D02*
X13844417Y-10800738D01*
X13844417Y-10800738D02*
X13853941Y-10819786D01*
X13853941Y-10819786D02*
X13853941Y-10876929D01*
X13853941Y-10876929D02*
X13844417Y-10895976D01*
X13844417Y-10895976D02*
X13834893Y-10905500D01*
X13834893Y-10905500D02*
X13815846Y-10915024D01*
X13815846Y-10915024D02*
X13787274Y-10915024D01*
X13911084Y-10781690D02*
X13987274Y-10781690D01*
X13939655Y-10715024D02*
X13939655Y-10886452D01*
X13939655Y-10886452D02*
X13949179Y-10905500D01*
X13949179Y-10905500D02*
X13968227Y-10915024D01*
X13968227Y-10915024D02*
X13987274Y-10915024D01*
X14206322Y-10781690D02*
X14206322Y-10981690D01*
X14206322Y-10791214D02*
X14225369Y-10781690D01*
X14225369Y-10781690D02*
X14263465Y-10781690D01*
X14263465Y-10781690D02*
X14282512Y-10791214D01*
X14282512Y-10791214D02*
X14292036Y-10800738D01*
X14292036Y-10800738D02*
X14301560Y-10819786D01*
X14301560Y-10819786D02*
X14301560Y-10876929D01*
X14301560Y-10876929D02*
X14292036Y-10895976D01*
X14292036Y-10895976D02*
X14282512Y-10905500D01*
X14282512Y-10905500D02*
X14263465Y-10915024D01*
X14263465Y-10915024D02*
X14225369Y-10915024D01*
X14225369Y-10915024D02*
X14206322Y-10905500D01*
X14415846Y-10915024D02*
X14396798Y-10905500D01*
X14396798Y-10905500D02*
X14387274Y-10886452D01*
X14387274Y-10886452D02*
X14387274Y-10715024D01*
X14577750Y-10915024D02*
X14577750Y-10810262D01*
X14577750Y-10810262D02*
X14568227Y-10791214D01*
X14568227Y-10791214D02*
X14549179Y-10781690D01*
X14549179Y-10781690D02*
X14511084Y-10781690D01*
X14511084Y-10781690D02*
X14492036Y-10791214D01*
X14577750Y-10905500D02*
X14558703Y-10915024D01*
X14558703Y-10915024D02*
X14511084Y-10915024D01*
X14511084Y-10915024D02*
X14492036Y-10905500D01*
X14492036Y-10905500D02*
X14482512Y-10886452D01*
X14482512Y-10886452D02*
X14482512Y-10867405D01*
X14482512Y-10867405D02*
X14492036Y-10848357D01*
X14492036Y-10848357D02*
X14511084Y-10838833D01*
X14511084Y-10838833D02*
X14558703Y-10838833D01*
X14558703Y-10838833D02*
X14577750Y-10829310D01*
X14644417Y-10781690D02*
X14720608Y-10781690D01*
X14672989Y-10715024D02*
X14672989Y-10886452D01*
X14672989Y-10886452D02*
X14682512Y-10905500D01*
X14682512Y-10905500D02*
X14701560Y-10915024D01*
X14701560Y-10915024D02*
X14720608Y-10915024D01*
X14863465Y-10905500D02*
X14844417Y-10915024D01*
X14844417Y-10915024D02*
X14806322Y-10915024D01*
X14806322Y-10915024D02*
X14787274Y-10905500D01*
X14787274Y-10905500D02*
X14777750Y-10886452D01*
X14777750Y-10886452D02*
X14777750Y-10810262D01*
X14777750Y-10810262D02*
X14787274Y-10791214D01*
X14787274Y-10791214D02*
X14806322Y-10781690D01*
X14806322Y-10781690D02*
X14844417Y-10781690D01*
X14844417Y-10781690D02*
X14863465Y-10791214D01*
X14863465Y-10791214D02*
X14872989Y-10810262D01*
X14872989Y-10810262D02*
X14872989Y-10829310D01*
X14872989Y-10829310D02*
X14777750Y-10848357D01*
X15044417Y-10915024D02*
X15044417Y-10715024D01*
X15044417Y-10905500D02*
X15025370Y-10915024D01*
X15025370Y-10915024D02*
X14987274Y-10915024D01*
X14987274Y-10915024D02*
X14968227Y-10905500D01*
X14968227Y-10905500D02*
X14958703Y-10895976D01*
X14958703Y-10895976D02*
X14949179Y-10876929D01*
X14949179Y-10876929D02*
X14949179Y-10819786D01*
X14949179Y-10819786D02*
X14958703Y-10800738D01*
X14958703Y-10800738D02*
X14968227Y-10791214D01*
X14968227Y-10791214D02*
X14987274Y-10781690D01*
X14987274Y-10781690D02*
X15025370Y-10781690D01*
X15025370Y-10781690D02*
X15044417Y-10791214D01*
X15120608Y-10991214D02*
X15130131Y-10981690D01*
X15130131Y-10981690D02*
X15149179Y-10953119D01*
X15149179Y-10953119D02*
X15158703Y-10934071D01*
X15158703Y-10934071D02*
X15168227Y-10905500D01*
X15168227Y-10905500D02*
X15177750Y-10857881D01*
X15177750Y-10857881D02*
X15177750Y-10819786D01*
X15177750Y-10819786D02*
X15168227Y-10772167D01*
X15168227Y-10772167D02*
X15158703Y-10743595D01*
X15158703Y-10743595D02*
X15149179Y-10724548D01*
X15149179Y-10724548D02*
X15130131Y-10695976D01*
X15130131Y-10695976D02*
X15120608Y-10686452D01*
X8377750Y-11086500D02*
G75*
G03*
X8377750Y-11086500I-100000J0D01*
G01*
X8606321Y-10979024D02*
X8730131Y-10979024D01*
X8730131Y-10979024D02*
X8663464Y-11055214D01*
X8663464Y-11055214D02*
X8692036Y-11055214D01*
X8692036Y-11055214D02*
X8711083Y-11064738D01*
X8711083Y-11064738D02*
X8720607Y-11074262D01*
X8720607Y-11074262D02*
X8730131Y-11093310D01*
X8730131Y-11093310D02*
X8730131Y-11140929D01*
X8730131Y-11140929D02*
X8720607Y-11159976D01*
X8720607Y-11159976D02*
X8711083Y-11169500D01*
X8711083Y-11169500D02*
X8692036Y-11179024D01*
X8692036Y-11179024D02*
X8634893Y-11179024D01*
X8634893Y-11179024D02*
X8615845Y-11169500D01*
X8615845Y-11169500D02*
X8606321Y-11159976D01*
X8815845Y-11159976D02*
X8825369Y-11169500D01*
X8825369Y-11169500D02*
X8815845Y-11179024D01*
X8815845Y-11179024D02*
X8806321Y-11169500D01*
X8806321Y-11169500D02*
X8815845Y-11159976D01*
X8815845Y-11159976D02*
X8815845Y-11179024D01*
X8949179Y-10979024D02*
X8968226Y-10979024D01*
X8968226Y-10979024D02*
X8987274Y-10988548D01*
X8987274Y-10988548D02*
X8996798Y-10998071D01*
X8996798Y-10998071D02*
X9006321Y-11017119D01*
X9006321Y-11017119D02*
X9015845Y-11055214D01*
X9015845Y-11055214D02*
X9015845Y-11102833D01*
X9015845Y-11102833D02*
X9006321Y-11140929D01*
X9006321Y-11140929D02*
X8996798Y-11159976D01*
X8996798Y-11159976D02*
X8987274Y-11169500D01*
X8987274Y-11169500D02*
X8968226Y-11179024D01*
X8968226Y-11179024D02*
X8949179Y-11179024D01*
X8949179Y-11179024D02*
X8930131Y-11169500D01*
X8930131Y-11169500D02*
X8920607Y-11159976D01*
X8920607Y-11159976D02*
X8911083Y-11140929D01*
X8911083Y-11140929D02*
X8901560Y-11102833D01*
X8901560Y-11102833D02*
X8901560Y-11055214D01*
X8901560Y-11055214D02*
X8911083Y-11017119D01*
X8911083Y-11017119D02*
X8920607Y-10998071D01*
X8920607Y-10998071D02*
X8930131Y-10988548D01*
X8930131Y-10988548D02*
X8949179Y-10979024D01*
X9139655Y-10979024D02*
X9158702Y-10979024D01*
X9158702Y-10979024D02*
X9177750Y-10988548D01*
X9177750Y-10988548D02*
X9187274Y-10998071D01*
X9187274Y-10998071D02*
X9196798Y-11017119D01*
X9196798Y-11017119D02*
X9206321Y-11055214D01*
X9206321Y-11055214D02*
X9206321Y-11102833D01*
X9206321Y-11102833D02*
X9196798Y-11140929D01*
X9196798Y-11140929D02*
X9187274Y-11159976D01*
X9187274Y-11159976D02*
X9177750Y-11169500D01*
X9177750Y-11169500D02*
X9158702Y-11179024D01*
X9158702Y-11179024D02*
X9139655Y-11179024D01*
X9139655Y-11179024D02*
X9120607Y-11169500D01*
X9120607Y-11169500D02*
X9111083Y-11159976D01*
X9111083Y-11159976D02*
X9101560Y-11140929D01*
X9101560Y-11140929D02*
X9092036Y-11102833D01*
X9092036Y-11102833D02*
X9092036Y-11055214D01*
X9092036Y-11055214D02*
X9101560Y-11017119D01*
X9101560Y-11017119D02*
X9111083Y-10998071D01*
X9111083Y-10998071D02*
X9120607Y-10988548D01*
X9120607Y-10988548D02*
X9139655Y-10979024D01*
X9330131Y-10979024D02*
X9349179Y-10979024D01*
X9349179Y-10979024D02*
X9368226Y-10988548D01*
X9368226Y-10988548D02*
X9377750Y-10998071D01*
X9377750Y-10998071D02*
X9387274Y-11017119D01*
X9387274Y-11017119D02*
X9396798Y-11055214D01*
X9396798Y-11055214D02*
X9396798Y-11102833D01*
X9396798Y-11102833D02*
X9387274Y-11140929D01*
X9387274Y-11140929D02*
X9377750Y-11159976D01*
X9377750Y-11159976D02*
X9368226Y-11169500D01*
X9368226Y-11169500D02*
X9349179Y-11179024D01*
X9349179Y-11179024D02*
X9330131Y-11179024D01*
X9330131Y-11179024D02*
X9311083Y-11169500D01*
X9311083Y-11169500D02*
X9301560Y-11159976D01*
X9301560Y-11159976D02*
X9292036Y-11140929D01*
X9292036Y-11140929D02*
X9282512Y-11102833D01*
X9282512Y-11102833D02*
X9282512Y-11055214D01*
X9282512Y-11055214D02*
X9292036Y-11017119D01*
X9292036Y-11017119D02*
X9301560Y-10998071D01*
X9301560Y-10998071D02*
X9311083Y-10988548D01*
X9311083Y-10988548D02*
X9330131Y-10979024D01*
X9482512Y-11179024D02*
X9482512Y-11045690D01*
X9482512Y-11064738D02*
X9492036Y-11055214D01*
X9492036Y-11055214D02*
X9511083Y-11045690D01*
X9511083Y-11045690D02*
X9539655Y-11045690D01*
X9539655Y-11045690D02*
X9558702Y-11055214D01*
X9558702Y-11055214D02*
X9568226Y-11074262D01*
X9568226Y-11074262D02*
X9568226Y-11179024D01*
X9568226Y-11074262D02*
X9577750Y-11055214D01*
X9577750Y-11055214D02*
X9596798Y-11045690D01*
X9596798Y-11045690D02*
X9625369Y-11045690D01*
X9625369Y-11045690D02*
X9644417Y-11055214D01*
X9644417Y-11055214D02*
X9653941Y-11074262D01*
X9653941Y-11074262D02*
X9653941Y-11179024D01*
X9749179Y-11179024D02*
X9749179Y-11045690D01*
X9749179Y-11064738D02*
X9758702Y-11055214D01*
X9758702Y-11055214D02*
X9777750Y-11045690D01*
X9777750Y-11045690D02*
X9806322Y-11045690D01*
X9806322Y-11045690D02*
X9825369Y-11055214D01*
X9825369Y-11055214D02*
X9834893Y-11074262D01*
X9834893Y-11074262D02*
X9834893Y-11179024D01*
X9834893Y-11074262D02*
X9844417Y-11055214D01*
X9844417Y-11055214D02*
X9863464Y-11045690D01*
X9863464Y-11045690D02*
X9892036Y-11045690D01*
X9892036Y-11045690D02*
X9911083Y-11055214D01*
X9911083Y-11055214D02*
X9920607Y-11074262D01*
X9920607Y-11074262D02*
X9920607Y-11179024D01*
X10311083Y-10969500D02*
X10139655Y-11226643D01*
X10568226Y-10979024D02*
X10587274Y-10979024D01*
X10587274Y-10979024D02*
X10606322Y-10988548D01*
X10606322Y-10988548D02*
X10615845Y-10998071D01*
X10615845Y-10998071D02*
X10625369Y-11017119D01*
X10625369Y-11017119D02*
X10634893Y-11055214D01*
X10634893Y-11055214D02*
X10634893Y-11102833D01*
X10634893Y-11102833D02*
X10625369Y-11140929D01*
X10625369Y-11140929D02*
X10615845Y-11159976D01*
X10615845Y-11159976D02*
X10606322Y-11169500D01*
X10606322Y-11169500D02*
X10587274Y-11179024D01*
X10587274Y-11179024D02*
X10568226Y-11179024D01*
X10568226Y-11179024D02*
X10549179Y-11169500D01*
X10549179Y-11169500D02*
X10539655Y-11159976D01*
X10539655Y-11159976D02*
X10530131Y-11140929D01*
X10530131Y-11140929D02*
X10520607Y-11102833D01*
X10520607Y-11102833D02*
X10520607Y-11055214D01*
X10520607Y-11055214D02*
X10530131Y-11017119D01*
X10530131Y-11017119D02*
X10539655Y-10998071D01*
X10539655Y-10998071D02*
X10549179Y-10988548D01*
X10549179Y-10988548D02*
X10568226Y-10979024D01*
X10720607Y-11159976D02*
X10730131Y-11169500D01*
X10730131Y-11169500D02*
X10720607Y-11179024D01*
X10720607Y-11179024D02*
X10711084Y-11169500D01*
X10711084Y-11169500D02*
X10720607Y-11159976D01*
X10720607Y-11159976D02*
X10720607Y-11179024D01*
X10920607Y-11179024D02*
X10806322Y-11179024D01*
X10863464Y-11179024D02*
X10863464Y-10979024D01*
X10863464Y-10979024D02*
X10844417Y-11007595D01*
X10844417Y-11007595D02*
X10825369Y-11026643D01*
X10825369Y-11026643D02*
X10806322Y-11036167D01*
X11111084Y-11179024D02*
X10996798Y-11179024D01*
X11053941Y-11179024D02*
X11053941Y-10979024D01*
X11053941Y-10979024D02*
X11034893Y-11007595D01*
X11034893Y-11007595D02*
X11015845Y-11026643D01*
X11015845Y-11026643D02*
X10996798Y-11036167D01*
X11225369Y-11064738D02*
X11206322Y-11055214D01*
X11206322Y-11055214D02*
X11196798Y-11045690D01*
X11196798Y-11045690D02*
X11187274Y-11026643D01*
X11187274Y-11026643D02*
X11187274Y-11017119D01*
X11187274Y-11017119D02*
X11196798Y-10998071D01*
X11196798Y-10998071D02*
X11206322Y-10988548D01*
X11206322Y-10988548D02*
X11225369Y-10979024D01*
X11225369Y-10979024D02*
X11263464Y-10979024D01*
X11263464Y-10979024D02*
X11282512Y-10988548D01*
X11282512Y-10988548D02*
X11292036Y-10998071D01*
X11292036Y-10998071D02*
X11301560Y-11017119D01*
X11301560Y-11017119D02*
X11301560Y-11026643D01*
X11301560Y-11026643D02*
X11292036Y-11045690D01*
X11292036Y-11045690D02*
X11282512Y-11055214D01*
X11282512Y-11055214D02*
X11263464Y-11064738D01*
X11263464Y-11064738D02*
X11225369Y-11064738D01*
X11225369Y-11064738D02*
X11206322Y-11074262D01*
X11206322Y-11074262D02*
X11196798Y-11083786D01*
X11196798Y-11083786D02*
X11187274Y-11102833D01*
X11187274Y-11102833D02*
X11187274Y-11140929D01*
X11187274Y-11140929D02*
X11196798Y-11159976D01*
X11196798Y-11159976D02*
X11206322Y-11169500D01*
X11206322Y-11169500D02*
X11225369Y-11179024D01*
X11225369Y-11179024D02*
X11263464Y-11179024D01*
X11263464Y-11179024D02*
X11282512Y-11169500D01*
X11282512Y-11169500D02*
X11292036Y-11159976D01*
X11292036Y-11159976D02*
X11301560Y-11140929D01*
X11301560Y-11140929D02*
X11301560Y-11102833D01*
X11301560Y-11102833D02*
X11292036Y-11083786D01*
X11292036Y-11083786D02*
X11282512Y-11074262D01*
X11282512Y-11074262D02*
X11263464Y-11064738D01*
X11492036Y-11179024D02*
X11377750Y-11179024D01*
X11434893Y-11179024D02*
X11434893Y-10979024D01*
X11434893Y-10979024D02*
X11415845Y-11007595D01*
X11415845Y-11007595D02*
X11396798Y-11026643D01*
X11396798Y-11026643D02*
X11377750Y-11036167D01*
X11568226Y-10979024D02*
X11568226Y-11017119D01*
X11644417Y-10979024D02*
X11644417Y-11017119D01*
X11939655Y-11255214D02*
X11930131Y-11245690D01*
X11930131Y-11245690D02*
X11911084Y-11217119D01*
X11911084Y-11217119D02*
X11901560Y-11198071D01*
X11901560Y-11198071D02*
X11892036Y-11169500D01*
X11892036Y-11169500D02*
X11882512Y-11121881D01*
X11882512Y-11121881D02*
X11882512Y-11083786D01*
X11882512Y-11083786D02*
X11892036Y-11036167D01*
X11892036Y-11036167D02*
X11901560Y-11007595D01*
X11901560Y-11007595D02*
X11911084Y-10988548D01*
X11911084Y-10988548D02*
X11930131Y-10959976D01*
X11930131Y-10959976D02*
X11939655Y-10950452D01*
X12101560Y-11045690D02*
X12101560Y-11179024D01*
X12053941Y-10969500D02*
X12006322Y-11112357D01*
X12006322Y-11112357D02*
X12130131Y-11112357D01*
X12358703Y-11179024D02*
X12358703Y-10979024D01*
X12444417Y-11179024D02*
X12444417Y-11074262D01*
X12444417Y-11074262D02*
X12434893Y-11055214D01*
X12434893Y-11055214D02*
X12415846Y-11045690D01*
X12415846Y-11045690D02*
X12387274Y-11045690D01*
X12387274Y-11045690D02*
X12368226Y-11055214D01*
X12368226Y-11055214D02*
X12358703Y-11064738D01*
X12568226Y-11179024D02*
X12549179Y-11169500D01*
X12549179Y-11169500D02*
X12539655Y-11159976D01*
X12539655Y-11159976D02*
X12530131Y-11140929D01*
X12530131Y-11140929D02*
X12530131Y-11083786D01*
X12530131Y-11083786D02*
X12539655Y-11064738D01*
X12539655Y-11064738D02*
X12549179Y-11055214D01*
X12549179Y-11055214D02*
X12568226Y-11045690D01*
X12568226Y-11045690D02*
X12596798Y-11045690D01*
X12596798Y-11045690D02*
X12615846Y-11055214D01*
X12615846Y-11055214D02*
X12625369Y-11064738D01*
X12625369Y-11064738D02*
X12634893Y-11083786D01*
X12634893Y-11083786D02*
X12634893Y-11140929D01*
X12634893Y-11140929D02*
X12625369Y-11159976D01*
X12625369Y-11159976D02*
X12615846Y-11169500D01*
X12615846Y-11169500D02*
X12596798Y-11179024D01*
X12596798Y-11179024D02*
X12568226Y-11179024D01*
X12749179Y-11179024D02*
X12730131Y-11169500D01*
X12730131Y-11169500D02*
X12720607Y-11150452D01*
X12720607Y-11150452D02*
X12720607Y-10979024D01*
X12901560Y-11169500D02*
X12882512Y-11179024D01*
X12882512Y-11179024D02*
X12844417Y-11179024D01*
X12844417Y-11179024D02*
X12825369Y-11169500D01*
X12825369Y-11169500D02*
X12815846Y-11150452D01*
X12815846Y-11150452D02*
X12815846Y-11074262D01*
X12815846Y-11074262D02*
X12825369Y-11055214D01*
X12825369Y-11055214D02*
X12844417Y-11045690D01*
X12844417Y-11045690D02*
X12882512Y-11045690D01*
X12882512Y-11045690D02*
X12901560Y-11055214D01*
X12901560Y-11055214D02*
X12911084Y-11074262D01*
X12911084Y-11074262D02*
X12911084Y-11093310D01*
X12911084Y-11093310D02*
X12815846Y-11112357D01*
X12987274Y-11169500D02*
X13006322Y-11179024D01*
X13006322Y-11179024D02*
X13044417Y-11179024D01*
X13044417Y-11179024D02*
X13063465Y-11169500D01*
X13063465Y-11169500D02*
X13072988Y-11150452D01*
X13072988Y-11150452D02*
X13072988Y-11140929D01*
X13072988Y-11140929D02*
X13063465Y-11121881D01*
X13063465Y-11121881D02*
X13044417Y-11112357D01*
X13044417Y-11112357D02*
X13015846Y-11112357D01*
X13015846Y-11112357D02*
X12996798Y-11102833D01*
X12996798Y-11102833D02*
X12987274Y-11083786D01*
X12987274Y-11083786D02*
X12987274Y-11074262D01*
X12987274Y-11074262D02*
X12996798Y-11055214D01*
X12996798Y-11055214D02*
X13015846Y-11045690D01*
X13015846Y-11045690D02*
X13044417Y-11045690D01*
X13044417Y-11045690D02*
X13063465Y-11055214D01*
X13139655Y-11255214D02*
X13149179Y-11245690D01*
X13149179Y-11245690D02*
X13168227Y-11217119D01*
X13168227Y-11217119D02*
X13177750Y-11198071D01*
X13177750Y-11198071D02*
X13187274Y-11169500D01*
X13187274Y-11169500D02*
X13196798Y-11121881D01*
X13196798Y-11121881D02*
X13196798Y-11083786D01*
X13196798Y-11083786D02*
X13187274Y-11036167D01*
X13187274Y-11036167D02*
X13177750Y-11007595D01*
X13177750Y-11007595D02*
X13168227Y-10988548D01*
X13168227Y-10988548D02*
X13149179Y-10959976D01*
X13149179Y-10959976D02*
X13139655Y-10950452D01*
X13501560Y-11255214D02*
X13492036Y-11245690D01*
X13492036Y-11245690D02*
X13472988Y-11217119D01*
X13472988Y-11217119D02*
X13463465Y-11198071D01*
X13463465Y-11198071D02*
X13453941Y-11169500D01*
X13453941Y-11169500D02*
X13444417Y-11121881D01*
X13444417Y-11121881D02*
X13444417Y-11083786D01*
X13444417Y-11083786D02*
X13453941Y-11036167D01*
X13453941Y-11036167D02*
X13463465Y-11007595D01*
X13463465Y-11007595D02*
X13472988Y-10988548D01*
X13472988Y-10988548D02*
X13492036Y-10959976D01*
X13492036Y-10959976D02*
X13501560Y-10950452D01*
X13577750Y-11045690D02*
X13577750Y-11179024D01*
X13577750Y-11064738D02*
X13587274Y-11055214D01*
X13587274Y-11055214D02*
X13606322Y-11045690D01*
X13606322Y-11045690D02*
X13634893Y-11045690D01*
X13634893Y-11045690D02*
X13653941Y-11055214D01*
X13653941Y-11055214D02*
X13663465Y-11074262D01*
X13663465Y-11074262D02*
X13663465Y-11179024D01*
X13787274Y-11179024D02*
X13768227Y-11169500D01*
X13768227Y-11169500D02*
X13758703Y-11159976D01*
X13758703Y-11159976D02*
X13749179Y-11140929D01*
X13749179Y-11140929D02*
X13749179Y-11083786D01*
X13749179Y-11083786D02*
X13758703Y-11064738D01*
X13758703Y-11064738D02*
X13768227Y-11055214D01*
X13768227Y-11055214D02*
X13787274Y-11045690D01*
X13787274Y-11045690D02*
X13815846Y-11045690D01*
X13815846Y-11045690D02*
X13834893Y-11055214D01*
X13834893Y-11055214D02*
X13844417Y-11064738D01*
X13844417Y-11064738D02*
X13853941Y-11083786D01*
X13853941Y-11083786D02*
X13853941Y-11140929D01*
X13853941Y-11140929D02*
X13844417Y-11159976D01*
X13844417Y-11159976D02*
X13834893Y-11169500D01*
X13834893Y-11169500D02*
X13815846Y-11179024D01*
X13815846Y-11179024D02*
X13787274Y-11179024D01*
X13911084Y-11045690D02*
X13987274Y-11045690D01*
X13939655Y-10979024D02*
X13939655Y-11150452D01*
X13939655Y-11150452D02*
X13949179Y-11169500D01*
X13949179Y-11169500D02*
X13968227Y-11179024D01*
X13968227Y-11179024D02*
X13987274Y-11179024D01*
X14206322Y-11045690D02*
X14206322Y-11245690D01*
X14206322Y-11055214D02*
X14225369Y-11045690D01*
X14225369Y-11045690D02*
X14263465Y-11045690D01*
X14263465Y-11045690D02*
X14282512Y-11055214D01*
X14282512Y-11055214D02*
X14292036Y-11064738D01*
X14292036Y-11064738D02*
X14301560Y-11083786D01*
X14301560Y-11083786D02*
X14301560Y-11140929D01*
X14301560Y-11140929D02*
X14292036Y-11159976D01*
X14292036Y-11159976D02*
X14282512Y-11169500D01*
X14282512Y-11169500D02*
X14263465Y-11179024D01*
X14263465Y-11179024D02*
X14225369Y-11179024D01*
X14225369Y-11179024D02*
X14206322Y-11169500D01*
X14415846Y-11179024D02*
X14396798Y-11169500D01*
X14396798Y-11169500D02*
X14387274Y-11150452D01*
X14387274Y-11150452D02*
X14387274Y-10979024D01*
X14577750Y-11179024D02*
X14577750Y-11074262D01*
X14577750Y-11074262D02*
X14568227Y-11055214D01*
X14568227Y-11055214D02*
X14549179Y-11045690D01*
X14549179Y-11045690D02*
X14511084Y-11045690D01*
X14511084Y-11045690D02*
X14492036Y-11055214D01*
X14577750Y-11169500D02*
X14558703Y-11179024D01*
X14558703Y-11179024D02*
X14511084Y-11179024D01*
X14511084Y-11179024D02*
X14492036Y-11169500D01*
X14492036Y-11169500D02*
X14482512Y-11150452D01*
X14482512Y-11150452D02*
X14482512Y-11131405D01*
X14482512Y-11131405D02*
X14492036Y-11112357D01*
X14492036Y-11112357D02*
X14511084Y-11102833D01*
X14511084Y-11102833D02*
X14558703Y-11102833D01*
X14558703Y-11102833D02*
X14577750Y-11093310D01*
X14644417Y-11045690D02*
X14720608Y-11045690D01*
X14672989Y-10979024D02*
X14672989Y-11150452D01*
X14672989Y-11150452D02*
X14682512Y-11169500D01*
X14682512Y-11169500D02*
X14701560Y-11179024D01*
X14701560Y-11179024D02*
X14720608Y-11179024D01*
X14863465Y-11169500D02*
X14844417Y-11179024D01*
X14844417Y-11179024D02*
X14806322Y-11179024D01*
X14806322Y-11179024D02*
X14787274Y-11169500D01*
X14787274Y-11169500D02*
X14777750Y-11150452D01*
X14777750Y-11150452D02*
X14777750Y-11074262D01*
X14777750Y-11074262D02*
X14787274Y-11055214D01*
X14787274Y-11055214D02*
X14806322Y-11045690D01*
X14806322Y-11045690D02*
X14844417Y-11045690D01*
X14844417Y-11045690D02*
X14863465Y-11055214D01*
X14863465Y-11055214D02*
X14872989Y-11074262D01*
X14872989Y-11074262D02*
X14872989Y-11093310D01*
X14872989Y-11093310D02*
X14777750Y-11112357D01*
X15044417Y-11179024D02*
X15044417Y-10979024D01*
X15044417Y-11169500D02*
X15025370Y-11179024D01*
X15025370Y-11179024D02*
X14987274Y-11179024D01*
X14987274Y-11179024D02*
X14968227Y-11169500D01*
X14968227Y-11169500D02*
X14958703Y-11159976D01*
X14958703Y-11159976D02*
X14949179Y-11140929D01*
X14949179Y-11140929D02*
X14949179Y-11083786D01*
X14949179Y-11083786D02*
X14958703Y-11064738D01*
X14958703Y-11064738D02*
X14968227Y-11055214D01*
X14968227Y-11055214D02*
X14987274Y-11045690D01*
X14987274Y-11045690D02*
X15025370Y-11045690D01*
X15025370Y-11045690D02*
X15044417Y-11055214D01*
X15120608Y-11255214D02*
X15130131Y-11245690D01*
X15130131Y-11245690D02*
X15149179Y-11217119D01*
X15149179Y-11217119D02*
X15158703Y-11198071D01*
X15158703Y-11198071D02*
X15168227Y-11169500D01*
X15168227Y-11169500D02*
X15177750Y-11121881D01*
X15177750Y-11121881D02*
X15177750Y-11083786D01*
X15177750Y-11083786D02*
X15168227Y-11036167D01*
X15168227Y-11036167D02*
X15158703Y-11007595D01*
X15158703Y-11007595D02*
X15149179Y-10988548D01*
X15149179Y-10988548D02*
X15130131Y-10959976D01*
X15130131Y-10959976D02*
X15120608Y-10950452D01*
M02*
