M48
; DRILL file {KiCad 7.0.2} date Mon Jun  5 15:01:05 2023
; FORMAT={-:-/ absolute / metric / decimal}
; #@! TF.CreationDate,2023-06-05T15:01:05-05:00
; #@! TF.GenerationSoftware,Kicad,Pcbnew,7.0.2
; #@! TF.FileFunction,Plated,1,2,PTH
FMAT,2
METRIC
; #@! TA.AperFunction,Plated,PTH,ViaDrill
T1C0.400
; #@! TA.AperFunction,Plated,PTH,ViaDrill
T2C0.500
; #@! TA.AperFunction,Plated,PTH,ComponentDrill
T3C1.020
; #@! TA.AperFunction,Plated,PTH,ComponentDrill
T4C1.390
; #@! TA.AperFunction,Plated,PTH,ComponentDrill
T5C1.780
%
G90
G05
T1
X91.44Y-40.64
X91.44Y-55.88
X91.44Y-71.12
X91.44Y-86.36
X107.95Y-40.64
X107.95Y-55.88
X109.2Y-74.2
X109.22Y-86.36
X119.45Y-72.3
X121.92Y-40.64
X121.92Y-55.88
X121.92Y-86.36
X121.92Y-93.98
X137.16Y-40.64
X137.16Y-58.42
X137.16Y-76.2
X137.16Y-86.36
X137.16Y-93.98
X152.4Y-40.64
X152.4Y-55.88
X152.4Y-68.58
X152.4Y-86.36
X152.4Y-93.98
T2
X114.15Y-80.05
X117.5Y-75.75
X117.5Y-79.5
T3
X120.1Y-45.185
X123.1Y-45.185
T4
X114.32Y-64.4
X114.32Y-70.4
X116.86Y-64.4
X116.86Y-70.4
X119.4Y-64.4
X119.4Y-70.4
X128.72Y-64.4
X128.72Y-70.6
X131.26Y-64.4
X131.26Y-70.6
X133.8Y-64.4
X133.8Y-70.6
T5
X98.055Y-52.084
X98.055Y-59.574
X98.055Y-76.265
X98.055Y-83.755
X101.235Y-52.084
X101.235Y-59.574
X101.235Y-76.265
X101.235Y-83.755
X116.04Y-54.1
X116.04Y-57.5
X125.96Y-54.1
X125.96Y-57.5
X144.154Y-52.084
X144.154Y-59.574
X144.154Y-76.265
X144.154Y-83.755
X147.334Y-52.084
X147.334Y-59.574
X147.334Y-76.265
X147.334Y-83.755
T0
M30
