%TF.GenerationSoftware,KiCad,Pcbnew,7.0.2*%
%TF.CreationDate,2024-02-18T17:49:51-06:00*%
%TF.ProjectId,Power-Secondary,506f7765-722d-4536-9563-6f6e64617279,rev?*%
%TF.SameCoordinates,Original*%
%TF.FileFunction,Copper,L2,Bot*%
%TF.FilePolarity,Positive*%
%FSLAX46Y46*%
G04 Gerber Fmt 4.6, Leading zero omitted, Abs format (unit mm)*
G04 Created by KiCad (PCBNEW 7.0.2) date 2024-02-18 17:49:51*
%MOMM*%
%LPD*%
G01*
G04 APERTURE LIST*
G04 Aperture macros list*
%AMRoundRect*
0 Rectangle with rounded corners*
0 $1 Rounding radius*
0 $2 $3 $4 $5 $6 $7 $8 $9 X,Y pos of 4 corners*
0 Add a 4 corners polygon primitive as box body*
4,1,4,$2,$3,$4,$5,$6,$7,$8,$9,$2,$3,0*
0 Add four circle primitives for the rounded corners*
1,1,$1+$1,$2,$3*
1,1,$1+$1,$4,$5*
1,1,$1+$1,$6,$7*
1,1,$1+$1,$8,$9*
0 Add four rect primitives between the rounded corners*
20,1,$1+$1,$2,$3,$4,$5,0*
20,1,$1+$1,$4,$5,$6,$7,0*
20,1,$1+$1,$6,$7,$8,$9,0*
20,1,$1+$1,$8,$9,$2,$3,0*%
G04 Aperture macros list end*
%TA.AperFunction,ComponentPad*%
%ADD10R,2.085000X2.085000*%
%TD*%
%TA.AperFunction,ComponentPad*%
%ADD11C,2.085000*%
%TD*%
%TA.AperFunction,ComponentPad*%
%ADD12R,3.430000X3.780000*%
%TD*%
%TA.AperFunction,ComponentPad*%
%ADD13RoundRect,0.250001X0.499999X0.759999X-0.499999X0.759999X-0.499999X-0.759999X0.499999X-0.759999X0*%
%TD*%
%TA.AperFunction,ComponentPad*%
%ADD14O,1.500000X2.020000*%
%TD*%
%TA.AperFunction,ComponentPad*%
%ADD15C,2.780000*%
%TD*%
%TA.AperFunction,ComponentPad*%
%ADD16RoundRect,0.250001X-0.499999X-0.759999X0.499999X-0.759999X0.499999X0.759999X-0.499999X0.759999X0*%
%TD*%
%TA.AperFunction,SMDPad,CuDef*%
%ADD17RoundRect,0.250000X1.100000X-0.325000X1.100000X0.325000X-1.100000X0.325000X-1.100000X-0.325000X0*%
%TD*%
%TA.AperFunction,ViaPad*%
%ADD18C,0.800000*%
%TD*%
%TA.AperFunction,Conductor*%
%ADD19C,0.250000*%
%TD*%
%TA.AperFunction,Conductor*%
%ADD20C,4.000000*%
%TD*%
%TA.AperFunction,Conductor*%
%ADD21C,2.500000*%
%TD*%
G04 APERTURE END LIST*
D10*
X137685000Y-73200000D03*
D11*
X135145000Y-73200000D03*
X132605000Y-73200000D03*
D10*
X125620000Y-67485000D03*
D11*
X123080000Y-67485000D03*
X120540000Y-67485000D03*
D12*
X158645000Y-84060000D03*
X155465000Y-84060000D03*
X158645000Y-91550000D03*
X155465000Y-91550000D03*
D13*
X120000000Y-101165000D03*
D14*
X117000000Y-101165000D03*
D15*
X124590000Y-81230000D03*
X124590000Y-84630000D03*
X134510000Y-81230000D03*
X134510000Y-84630000D03*
D12*
X99580000Y-91550000D03*
X102760000Y-91550000D03*
X99580000Y-84060000D03*
X102760000Y-84060000D03*
X99580000Y-67485000D03*
X102760000Y-67485000D03*
X99580000Y-59995000D03*
X102760000Y-59995000D03*
D10*
X137685000Y-67525000D03*
D11*
X135145000Y-67525000D03*
X132605000Y-67525000D03*
D13*
X142000000Y-101165000D03*
D14*
X139000000Y-101165000D03*
D16*
X127549000Y-52973000D03*
D14*
X130549000Y-52973000D03*
D10*
X125620000Y-73200000D03*
D11*
X123080000Y-73200000D03*
X120540000Y-73200000D03*
D12*
X158645000Y-59995000D03*
X155465000Y-59995000D03*
X158645000Y-67485000D03*
X155465000Y-67485000D03*
D17*
X140420000Y-80390000D03*
X140420000Y-77440000D03*
X144670000Y-80390000D03*
X144670000Y-77440000D03*
X148920000Y-80390000D03*
X148920000Y-77440000D03*
D18*
X90000000Y-85000000D03*
X115000000Y-45000000D03*
X100000000Y-105000000D03*
X130000000Y-45000000D03*
X160000000Y-45000000D03*
X145000000Y-105000000D03*
X145000000Y-45000000D03*
X90000000Y-55000000D03*
X165000000Y-100000000D03*
X100000000Y-45000000D03*
X145000000Y-75000000D03*
X130000000Y-105000000D03*
X115000000Y-75000000D03*
X115000000Y-60000000D03*
X165000000Y-85000000D03*
X90000000Y-70000000D03*
X115000000Y-85000000D03*
X115000000Y-105000000D03*
X90000000Y-100000000D03*
X165000000Y-55000000D03*
X160000000Y-75000000D03*
X160000000Y-105000000D03*
X165000000Y-70000000D03*
X125000000Y-63500000D03*
X140500000Y-58500000D03*
X146750000Y-61750000D03*
D19*
X124525000Y-63512500D02*
X124525000Y-63487500D01*
X125000000Y-63500000D02*
X124525000Y-63500000D01*
X124512500Y-63512500D02*
X120540000Y-67485000D01*
X125000000Y-63500000D02*
X125000000Y-63000000D01*
X125000000Y-55522000D02*
X127549000Y-52973000D01*
D20*
X120000000Y-97250000D02*
X114300000Y-91550000D01*
D19*
X124525000Y-63512500D02*
X124512500Y-63512500D01*
D20*
X114300000Y-91550000D02*
X99580000Y-91550000D01*
D19*
X124525000Y-63487500D02*
X125000000Y-63012500D01*
X125000000Y-63000000D02*
X125000000Y-55522000D01*
D20*
X120000000Y-101165000D02*
X120000000Y-97250000D01*
D21*
X123080000Y-73200000D02*
X123080000Y-67485000D01*
X135145000Y-73200000D02*
X135145000Y-67525000D01*
%TA.AperFunction,Conductor*%
G36*
X103703039Y-83079685D02*
G01*
X103748794Y-83132489D01*
X103760000Y-83184000D01*
X103760000Y-84936000D01*
X103740315Y-85003039D01*
X103687511Y-85048794D01*
X103636000Y-85060000D01*
X98704000Y-85060000D01*
X98636961Y-85040315D01*
X98591206Y-84987511D01*
X98580000Y-84936000D01*
X98580000Y-84153543D01*
X98690000Y-84153543D01*
X98728898Y-84336540D01*
X98804992Y-84507451D01*
X98914958Y-84658806D01*
X99053990Y-84783991D01*
X99216011Y-84877534D01*
X99393939Y-84935346D01*
X99533361Y-84950000D01*
X99626639Y-84950000D01*
X99766061Y-84935346D01*
X99943989Y-84877534D01*
X100106010Y-84783991D01*
X100245042Y-84658806D01*
X100355008Y-84507451D01*
X100431102Y-84336540D01*
X100470000Y-84153543D01*
X101870000Y-84153543D01*
X101908898Y-84336540D01*
X101984992Y-84507451D01*
X102094958Y-84658806D01*
X102233990Y-84783991D01*
X102396011Y-84877534D01*
X102573939Y-84935346D01*
X102713361Y-84950000D01*
X102806639Y-84950000D01*
X102946061Y-84935346D01*
X103123989Y-84877534D01*
X103286010Y-84783991D01*
X103425042Y-84658806D01*
X103535008Y-84507451D01*
X103611102Y-84336540D01*
X103650000Y-84153543D01*
X103650000Y-83966457D01*
X103611102Y-83783460D01*
X103535008Y-83612549D01*
X103425042Y-83461194D01*
X103286010Y-83336009D01*
X103123989Y-83242466D01*
X102946061Y-83184654D01*
X102806639Y-83170000D01*
X102713361Y-83170000D01*
X102573939Y-83184654D01*
X102396011Y-83242466D01*
X102233990Y-83336009D01*
X102094958Y-83461194D01*
X101984992Y-83612549D01*
X101908898Y-83783460D01*
X101870000Y-83966457D01*
X101870000Y-84153543D01*
X100470000Y-84153543D01*
X100470000Y-83966457D01*
X100431102Y-83783460D01*
X100355008Y-83612549D01*
X100245042Y-83461194D01*
X100106010Y-83336009D01*
X99943989Y-83242466D01*
X99766061Y-83184654D01*
X99626639Y-83170000D01*
X99533361Y-83170000D01*
X99393939Y-83184654D01*
X99216011Y-83242466D01*
X99053990Y-83336009D01*
X98914958Y-83461194D01*
X98804992Y-83612549D01*
X98728898Y-83783460D01*
X98690000Y-83966457D01*
X98690000Y-84153543D01*
X98580000Y-84153543D01*
X98580000Y-83184000D01*
X98599685Y-83116961D01*
X98652489Y-83071206D01*
X98704000Y-83060000D01*
X103636000Y-83060000D01*
X103703039Y-83079685D01*
G37*
%TD.AperFunction*%
%TA.AperFunction,Conductor*%
G36*
X165002702Y-43100617D02*
G01*
X165421634Y-43118908D01*
X165432369Y-43119848D01*
X165845430Y-43174228D01*
X165856056Y-43176101D01*
X166262816Y-43266278D01*
X166273228Y-43269067D01*
X166670582Y-43394353D01*
X166680717Y-43398042D01*
X167065625Y-43557477D01*
X167075416Y-43562043D01*
X167176472Y-43614649D01*
X167444942Y-43754406D01*
X167454310Y-43759814D01*
X167805675Y-43983658D01*
X167814536Y-43989863D01*
X168145045Y-44243471D01*
X168153332Y-44250425D01*
X168460478Y-44531872D01*
X168468127Y-44539521D01*
X168749574Y-44846667D01*
X168756528Y-44854954D01*
X169010136Y-45185463D01*
X169016341Y-45194324D01*
X169240185Y-45545689D01*
X169245593Y-45555057D01*
X169437953Y-45924576D01*
X169442525Y-45934380D01*
X169601951Y-46319267D01*
X169605650Y-46329430D01*
X169632572Y-46414816D01*
X169730926Y-46726752D01*
X169733726Y-46737202D01*
X169823895Y-47143930D01*
X169825773Y-47154583D01*
X169880149Y-47567610D01*
X169881092Y-47578386D01*
X169899382Y-47997296D01*
X169899500Y-48002705D01*
X169899500Y-103997293D01*
X169899382Y-104002702D01*
X169881092Y-104421613D01*
X169880149Y-104432389D01*
X169825773Y-104845416D01*
X169823895Y-104856069D01*
X169733726Y-105262797D01*
X169730926Y-105273247D01*
X169605651Y-105670567D01*
X169601951Y-105680732D01*
X169442525Y-106065619D01*
X169437953Y-106075423D01*
X169245593Y-106444942D01*
X169240185Y-106454310D01*
X169016341Y-106805675D01*
X169010136Y-106814536D01*
X168756528Y-107145045D01*
X168749574Y-107153332D01*
X168468127Y-107460478D01*
X168460478Y-107468127D01*
X168153332Y-107749574D01*
X168145045Y-107756528D01*
X167814536Y-108010136D01*
X167805675Y-108016341D01*
X167454310Y-108240185D01*
X167444942Y-108245593D01*
X167075423Y-108437953D01*
X167065619Y-108442525D01*
X166680732Y-108601951D01*
X166670567Y-108605651D01*
X166273247Y-108730926D01*
X166262797Y-108733726D01*
X165856069Y-108823895D01*
X165845416Y-108825773D01*
X165432389Y-108880149D01*
X165421613Y-108881092D01*
X165002703Y-108899382D01*
X164997294Y-108899500D01*
X93002706Y-108899500D01*
X92997297Y-108899382D01*
X92578386Y-108881092D01*
X92567610Y-108880149D01*
X92154583Y-108825773D01*
X92143930Y-108823895D01*
X91836064Y-108755643D01*
X91737199Y-108733725D01*
X91726756Y-108730927D01*
X91329430Y-108605650D01*
X91319267Y-108601951D01*
X90934380Y-108442525D01*
X90924576Y-108437953D01*
X90555057Y-108245593D01*
X90545689Y-108240185D01*
X90194324Y-108016341D01*
X90185463Y-108010136D01*
X89854954Y-107756528D01*
X89846667Y-107749574D01*
X89539521Y-107468127D01*
X89531872Y-107460478D01*
X89250425Y-107153332D01*
X89243471Y-107145045D01*
X88989863Y-106814536D01*
X88983658Y-106805675D01*
X88759814Y-106454310D01*
X88754406Y-106444942D01*
X88562046Y-106075423D01*
X88557474Y-106065619D01*
X88398042Y-105680717D01*
X88394353Y-105670582D01*
X88269067Y-105273228D01*
X88266278Y-105262816D01*
X88176101Y-104856056D01*
X88174228Y-104845430D01*
X88119848Y-104432369D01*
X88118908Y-104421632D01*
X88106240Y-104131482D01*
X91245500Y-104131482D01*
X91284691Y-104391507D01*
X91362202Y-104642787D01*
X91476296Y-104879707D01*
X91476297Y-104879709D01*
X91476298Y-104879710D01*
X91624430Y-105096980D01*
X91803290Y-105289746D01*
X92008883Y-105453701D01*
X92236616Y-105585183D01*
X92481402Y-105681254D01*
X92737772Y-105739769D01*
X92934346Y-105754500D01*
X92936663Y-105754500D01*
X93063337Y-105754500D01*
X93065654Y-105754500D01*
X93262228Y-105739769D01*
X93518598Y-105681254D01*
X93763384Y-105585183D01*
X93991117Y-105453701D01*
X94196710Y-105289746D01*
X94375570Y-105096980D01*
X94523702Y-104879710D01*
X94637798Y-104642788D01*
X94715308Y-104391508D01*
X94754500Y-104131482D01*
X163245500Y-104131482D01*
X163284691Y-104391507D01*
X163362202Y-104642787D01*
X163476296Y-104879707D01*
X163476297Y-104879709D01*
X163476298Y-104879710D01*
X163624430Y-105096980D01*
X163803290Y-105289746D01*
X164008883Y-105453701D01*
X164236616Y-105585183D01*
X164481402Y-105681254D01*
X164737772Y-105739769D01*
X164934346Y-105754500D01*
X164936663Y-105754500D01*
X165063337Y-105754500D01*
X165065654Y-105754500D01*
X165262228Y-105739769D01*
X165518598Y-105681254D01*
X165763384Y-105585183D01*
X165991117Y-105453701D01*
X166196710Y-105289746D01*
X166375570Y-105096980D01*
X166523702Y-104879710D01*
X166637798Y-104642788D01*
X166715308Y-104391508D01*
X166754500Y-104131482D01*
X166754500Y-103868518D01*
X166715308Y-103608492D01*
X166637798Y-103357212D01*
X166523702Y-103120290D01*
X166375570Y-102903020D01*
X166196710Y-102710254D01*
X166117701Y-102647246D01*
X165991116Y-102546298D01*
X165782241Y-102425704D01*
X165763384Y-102414817D01*
X165763383Y-102414816D01*
X165763382Y-102414816D01*
X165518600Y-102318746D01*
X165262225Y-102260230D01*
X165067968Y-102245673D01*
X165067957Y-102245672D01*
X165065654Y-102245500D01*
X164934346Y-102245500D01*
X164932043Y-102245672D01*
X164932031Y-102245673D01*
X164737774Y-102260230D01*
X164481399Y-102318746D01*
X164236617Y-102414816D01*
X164008883Y-102546298D01*
X163803290Y-102710253D01*
X163624431Y-102903018D01*
X163476296Y-103120292D01*
X163362202Y-103357212D01*
X163284691Y-103608492D01*
X163245500Y-103868517D01*
X163245500Y-104131482D01*
X94754500Y-104131482D01*
X94754500Y-103868518D01*
X94715308Y-103608492D01*
X94637798Y-103357212D01*
X94570993Y-103218491D01*
X113110500Y-103218491D01*
X113149373Y-103401382D01*
X113225427Y-103572202D01*
X113335329Y-103723469D01*
X113474284Y-103848585D01*
X113636214Y-103942075D01*
X113721803Y-103969884D01*
X113814044Y-103999855D01*
X113953380Y-104014500D01*
X113956622Y-104014500D01*
X114043378Y-104014500D01*
X114046620Y-104014500D01*
X114185956Y-103999855D01*
X114363785Y-103942075D01*
X114525715Y-103848585D01*
X114664669Y-103723470D01*
X114664670Y-103723469D01*
X114774572Y-103572202D01*
X114850626Y-103401382D01*
X114889500Y-103218491D01*
X114889500Y-103031508D01*
X114850626Y-102848617D01*
X114774572Y-102677797D01*
X114664670Y-102526530D01*
X114525715Y-102401414D01*
X114363785Y-102307924D01*
X114185957Y-102250145D01*
X114049840Y-102235838D01*
X114049831Y-102235837D01*
X114046620Y-102235500D01*
X113953380Y-102235500D01*
X113950169Y-102235837D01*
X113950159Y-102235838D01*
X113814042Y-102250145D01*
X113636214Y-102307924D01*
X113474284Y-102401414D01*
X113335329Y-102526530D01*
X113225427Y-102677797D01*
X113149373Y-102848617D01*
X113110500Y-103031508D01*
X113110500Y-103218491D01*
X94570993Y-103218491D01*
X94523702Y-103120290D01*
X94375570Y-102903020D01*
X94196710Y-102710254D01*
X94117701Y-102647246D01*
X93991116Y-102546298D01*
X93782241Y-102425704D01*
X93763384Y-102414817D01*
X93763383Y-102414816D01*
X93763382Y-102414816D01*
X93518600Y-102318746D01*
X93262225Y-102260230D01*
X93067968Y-102245673D01*
X93067957Y-102245672D01*
X93065654Y-102245500D01*
X92934346Y-102245500D01*
X92932043Y-102245672D01*
X92932031Y-102245673D01*
X92737774Y-102260230D01*
X92481399Y-102318746D01*
X92236617Y-102414816D01*
X92008883Y-102546298D01*
X91803290Y-102710253D01*
X91624431Y-102903018D01*
X91476296Y-103120292D01*
X91362202Y-103357212D01*
X91284691Y-103608492D01*
X91245500Y-103868517D01*
X91245500Y-104131482D01*
X88106240Y-104131482D01*
X88100618Y-104002701D01*
X88100500Y-103997293D01*
X88100500Y-101915000D01*
X115848576Y-101915000D01*
X115922600Y-102068712D01*
X116054855Y-102250745D01*
X116217491Y-102406241D01*
X116250000Y-102427700D01*
X116250000Y-101915000D01*
X115848576Y-101915000D01*
X88100500Y-101915000D01*
X88100500Y-101238327D01*
X116490000Y-101238327D01*
X116531318Y-101379040D01*
X116610605Y-101502413D01*
X116721438Y-101598451D01*
X116854839Y-101659373D01*
X116963527Y-101675000D01*
X117036473Y-101675000D01*
X117145161Y-101659373D01*
X117278562Y-101598451D01*
X117389395Y-101502413D01*
X117468682Y-101379040D01*
X117510000Y-101238327D01*
X117510000Y-101091673D01*
X117468682Y-100950960D01*
X117389395Y-100827587D01*
X117278562Y-100731549D01*
X117145161Y-100670627D01*
X117036473Y-100655000D01*
X116963527Y-100655000D01*
X116854839Y-100670627D01*
X116721438Y-100731549D01*
X116610605Y-100827587D01*
X116531318Y-100950960D01*
X116490000Y-101091673D01*
X116490000Y-101238327D01*
X88100500Y-101238327D01*
X88100500Y-100415000D01*
X115848764Y-100415000D01*
X116250000Y-100415000D01*
X116250000Y-99904295D01*
X116249999Y-99904295D01*
X116132679Y-99997855D01*
X115984640Y-100167299D01*
X115869237Y-100360451D01*
X115848764Y-100415000D01*
X88100500Y-100415000D01*
X88100500Y-93873184D01*
X96295577Y-93873184D01*
X96295917Y-93876555D01*
X96295918Y-93876565D01*
X96299739Y-93914396D01*
X96299741Y-93914412D01*
X96300080Y-93917763D01*
X96300783Y-93921064D01*
X96300784Y-93921068D01*
X96311281Y-93970334D01*
X96311669Y-93971985D01*
X96313940Y-93981347D01*
X96356964Y-94062086D01*
X96401463Y-94113441D01*
X96401484Y-94113464D01*
X96402719Y-94114889D01*
X96420310Y-94132843D01*
X96500127Y-94177490D01*
X96567166Y-94197175D01*
X96625064Y-94205500D01*
X96625068Y-94205500D01*
X97408038Y-94205500D01*
X97411913Y-94205500D01*
X97462735Y-94199116D01*
X97522162Y-94183948D01*
X97539214Y-94178799D01*
X97616652Y-94130141D01*
X97666057Y-94080735D01*
X97682710Y-94061908D01*
X97721549Y-93979108D01*
X97736401Y-93910835D01*
X97740232Y-93885991D01*
X97738899Y-93876000D01*
X97726293Y-93781490D01*
X97730873Y-93780879D01*
X97727813Y-93738156D01*
X97761291Y-93676829D01*
X97822610Y-93643337D01*
X97848982Y-93640500D01*
X98865821Y-93640500D01*
X98898580Y-93644905D01*
X99140710Y-93711232D01*
X99432694Y-93750500D01*
X104478599Y-93750500D01*
X104545638Y-93770185D01*
X104591393Y-93822989D01*
X104602185Y-93884608D01*
X104601941Y-93887600D01*
X104611885Y-93956758D01*
X104612263Y-93958589D01*
X104612268Y-93958613D01*
X104616977Y-93981373D01*
X104659987Y-94062086D01*
X104704486Y-94113441D01*
X104704507Y-94113464D01*
X104705742Y-94114889D01*
X104723333Y-94132843D01*
X104803150Y-94177490D01*
X104870189Y-94197175D01*
X104928087Y-94205500D01*
X104928091Y-94205500D01*
X106372678Y-94205500D01*
X106376000Y-94205500D01*
X106419684Y-94200803D01*
X106471195Y-94189597D01*
X106472732Y-94189232D01*
X106481350Y-94187121D01*
X106481368Y-94187111D01*
X106481373Y-94187110D01*
X106562085Y-94144100D01*
X106595796Y-94114889D01*
X106613441Y-94099600D01*
X106613446Y-94099595D01*
X106614889Y-94098345D01*
X106632843Y-94080754D01*
X106677490Y-94000937D01*
X106697175Y-93933898D01*
X106705500Y-93876000D01*
X106705500Y-93874500D01*
X106705921Y-93873063D01*
X106706762Y-93867220D01*
X106707602Y-93867340D01*
X106725185Y-93807461D01*
X106777989Y-93761706D01*
X106829500Y-93750500D01*
X113337161Y-93750500D01*
X113404200Y-93770185D01*
X113424842Y-93786819D01*
X117763181Y-98125158D01*
X117796666Y-98186481D01*
X117799500Y-98212839D01*
X117799500Y-99801575D01*
X117779815Y-99868614D01*
X117750000Y-99896203D01*
X117750000Y-102425704D01*
X117867315Y-102332149D01*
X117910449Y-102282778D01*
X117969381Y-102245244D01*
X118039250Y-102245528D01*
X118097874Y-102283541D01*
X118106060Y-102294182D01*
X118269184Y-102531812D01*
X118271962Y-102534883D01*
X118271964Y-102534886D01*
X118368039Y-102641111D01*
X118466805Y-102750312D01*
X118691787Y-102940522D01*
X118940113Y-103099047D01*
X119207353Y-103223060D01*
X119488738Y-103310346D01*
X119779246Y-103359349D01*
X120073694Y-103369193D01*
X120366827Y-103339704D01*
X120653414Y-103271407D01*
X120790807Y-103218491D01*
X122110500Y-103218491D01*
X122149373Y-103401382D01*
X122225427Y-103572202D01*
X122335329Y-103723469D01*
X122474284Y-103848585D01*
X122636214Y-103942075D01*
X122721803Y-103969884D01*
X122814044Y-103999855D01*
X122953380Y-104014500D01*
X122956622Y-104014500D01*
X123043378Y-104014500D01*
X123046620Y-104014500D01*
X123185956Y-103999855D01*
X123363785Y-103942075D01*
X123525715Y-103848585D01*
X123664669Y-103723470D01*
X123664670Y-103723469D01*
X123774572Y-103572202D01*
X123850626Y-103401382D01*
X123863647Y-103340119D01*
X123889500Y-103218491D01*
X135110500Y-103218491D01*
X135149373Y-103401382D01*
X135225427Y-103572202D01*
X135335329Y-103723469D01*
X135474284Y-103848585D01*
X135636214Y-103942075D01*
X135721803Y-103969884D01*
X135814044Y-103999855D01*
X135953380Y-104014500D01*
X135956622Y-104014500D01*
X136043378Y-104014500D01*
X136046620Y-104014500D01*
X136185956Y-103999855D01*
X136363785Y-103942075D01*
X136525715Y-103848585D01*
X136664669Y-103723470D01*
X136664670Y-103723469D01*
X136774572Y-103572202D01*
X136850626Y-103401382D01*
X136889500Y-103218491D01*
X144110500Y-103218491D01*
X144149373Y-103401382D01*
X144225427Y-103572202D01*
X144335329Y-103723469D01*
X144474284Y-103848585D01*
X144636214Y-103942075D01*
X144721803Y-103969884D01*
X144814044Y-103999855D01*
X144953380Y-104014500D01*
X144956622Y-104014500D01*
X145043378Y-104014500D01*
X145046620Y-104014500D01*
X145185956Y-103999855D01*
X145363785Y-103942075D01*
X145525715Y-103848585D01*
X145664669Y-103723470D01*
X145664670Y-103723469D01*
X145774572Y-103572202D01*
X145850626Y-103401382D01*
X145889500Y-103218491D01*
X145889500Y-103031508D01*
X145850626Y-102848617D01*
X145774572Y-102677797D01*
X145664670Y-102526530D01*
X145525715Y-102401414D01*
X145363785Y-102307924D01*
X145185957Y-102250145D01*
X145049840Y-102235838D01*
X145049831Y-102235837D01*
X145046620Y-102235500D01*
X144953380Y-102235500D01*
X144950169Y-102235837D01*
X144950159Y-102235838D01*
X144814042Y-102250145D01*
X144636214Y-102307924D01*
X144474284Y-102401414D01*
X144335329Y-102526530D01*
X144225427Y-102677797D01*
X144149373Y-102848617D01*
X144110500Y-103031508D01*
X144110500Y-103218491D01*
X136889500Y-103218491D01*
X136889500Y-103031508D01*
X136850626Y-102848617D01*
X136774572Y-102677797D01*
X136664670Y-102526530D01*
X136525715Y-102401414D01*
X136363785Y-102307924D01*
X136185957Y-102250145D01*
X136049840Y-102235838D01*
X136049831Y-102235837D01*
X136046620Y-102235500D01*
X135953380Y-102235500D01*
X135950169Y-102235837D01*
X135950159Y-102235838D01*
X135814042Y-102250145D01*
X135636214Y-102307924D01*
X135474284Y-102401414D01*
X135335329Y-102526530D01*
X135225427Y-102677797D01*
X135149373Y-102848617D01*
X135110500Y-103031508D01*
X135110500Y-103218491D01*
X123889500Y-103218491D01*
X123889500Y-103218490D01*
X123889500Y-103031510D01*
X123850745Y-102849178D01*
X123850626Y-102848617D01*
X123774572Y-102677797D01*
X123664670Y-102526530D01*
X123525715Y-102401414D01*
X123363785Y-102307924D01*
X123185957Y-102250145D01*
X123049840Y-102235838D01*
X123049831Y-102235837D01*
X123046620Y-102235500D01*
X122953380Y-102235500D01*
X122950169Y-102235837D01*
X122950159Y-102235838D01*
X122814042Y-102250145D01*
X122636214Y-102307924D01*
X122474284Y-102401414D01*
X122335329Y-102526530D01*
X122225427Y-102677797D01*
X122149373Y-102848617D01*
X122110500Y-103031508D01*
X122110500Y-103218491D01*
X120790807Y-103218491D01*
X120928340Y-103165521D01*
X121186700Y-103023936D01*
X121423884Y-102849178D01*
X121635658Y-102644365D01*
X121818244Y-102413154D01*
X121968383Y-102159669D01*
X122072132Y-101915000D01*
X137848576Y-101915000D01*
X137922600Y-102068712D01*
X138054855Y-102250745D01*
X138217491Y-102406241D01*
X138250000Y-102427700D01*
X138250000Y-101915000D01*
X139750000Y-101915000D01*
X139750000Y-102425704D01*
X139867318Y-102332146D01*
X140015359Y-102162700D01*
X140126691Y-101976361D01*
X141049500Y-101976361D01*
X141049501Y-101976372D01*
X141049501Y-101979264D01*
X141049770Y-101982140D01*
X141049771Y-101982148D01*
X141052354Y-102009695D01*
X141052354Y-102009698D01*
X141097207Y-102137882D01*
X141115915Y-102163230D01*
X141177849Y-102247150D01*
X141195574Y-102260231D01*
X141287118Y-102327793D01*
X141415302Y-102372646D01*
X141445735Y-102375500D01*
X142554264Y-102375499D01*
X142584698Y-102372646D01*
X142712882Y-102327793D01*
X142822150Y-102247150D01*
X142902793Y-102137882D01*
X142947646Y-102009698D01*
X142950500Y-101979265D01*
X142950499Y-100350736D01*
X142947646Y-100320302D01*
X142902793Y-100192118D01*
X142856393Y-100129248D01*
X142822150Y-100082849D01*
X142759280Y-100036450D01*
X142712882Y-100002207D01*
X142584698Y-99957354D01*
X142584697Y-99957353D01*
X142584695Y-99957353D01*
X142557150Y-99954770D01*
X142557138Y-99954769D01*
X142554265Y-99954500D01*
X142551372Y-99954500D01*
X141448638Y-99954500D01*
X141448616Y-99954500D01*
X141445736Y-99954501D01*
X141442860Y-99954770D01*
X141442851Y-99954771D01*
X141415301Y-99957354D01*
X141287118Y-100002207D01*
X141177849Y-100082849D01*
X141097207Y-100192118D01*
X141052353Y-100320304D01*
X141049770Y-100347849D01*
X141049770Y-100347851D01*
X141049500Y-100350735D01*
X141049500Y-100353626D01*
X141049500Y-100353627D01*
X141049500Y-101976361D01*
X140126691Y-101976361D01*
X140130762Y-101969548D01*
X140151235Y-101915000D01*
X139750000Y-101915000D01*
X138250000Y-101915000D01*
X137848576Y-101915000D01*
X122072132Y-101915000D01*
X122083397Y-101888434D01*
X122161232Y-101604290D01*
X122200500Y-101312306D01*
X122200500Y-101238327D01*
X138490000Y-101238327D01*
X138531318Y-101379040D01*
X138610605Y-101502413D01*
X138721438Y-101598451D01*
X138854839Y-101659373D01*
X138963527Y-101675000D01*
X139036473Y-101675000D01*
X139145161Y-101659373D01*
X139278562Y-101598451D01*
X139389395Y-101502413D01*
X139468682Y-101379040D01*
X139510000Y-101238327D01*
X139510000Y-101091673D01*
X139468682Y-100950960D01*
X139389395Y-100827587D01*
X139278562Y-100731549D01*
X139145161Y-100670627D01*
X139036473Y-100655000D01*
X138963527Y-100655000D01*
X138854839Y-100670627D01*
X138721438Y-100731549D01*
X138610605Y-100827587D01*
X138531318Y-100950960D01*
X138490000Y-101091673D01*
X138490000Y-101238327D01*
X122200500Y-101238327D01*
X122200500Y-100415000D01*
X137848764Y-100415000D01*
X138250000Y-100415000D01*
X138250000Y-99904295D01*
X138249999Y-99904295D01*
X138132679Y-99997855D01*
X137984640Y-100167299D01*
X137869237Y-100360451D01*
X137848764Y-100415000D01*
X122200500Y-100415000D01*
X122200500Y-99902298D01*
X139750000Y-99902298D01*
X139750000Y-100415000D01*
X140151423Y-100415000D01*
X140151423Y-100414999D01*
X140077399Y-100261287D01*
X139945144Y-100079254D01*
X139782508Y-99923758D01*
X139750000Y-99902298D01*
X122200500Y-99902298D01*
X122200500Y-97268396D01*
X122202654Y-97139484D01*
X122192259Y-97051030D01*
X122191693Y-97044883D01*
X122185747Y-96956046D01*
X122175757Y-96906899D01*
X122174125Y-96896703D01*
X122168271Y-96846885D01*
X122146176Y-96760594D01*
X122144792Y-96754559D01*
X122127891Y-96671407D01*
X122127064Y-96667337D01*
X122110616Y-96619970D01*
X122107631Y-96610054D01*
X122095194Y-96561480D01*
X122061800Y-96478917D01*
X122059633Y-96473145D01*
X122030424Y-96389026D01*
X122007809Y-96344274D01*
X122003529Y-96334844D01*
X121986283Y-96292203D01*
X121986282Y-96292201D01*
X121984729Y-96288361D01*
X121940644Y-96211012D01*
X121937702Y-96205536D01*
X121927472Y-96185292D01*
X121897551Y-96126079D01*
X121869164Y-96084726D01*
X121863678Y-96075970D01*
X121840899Y-96036003D01*
X121840897Y-96036001D01*
X121838847Y-96032403D01*
X121784846Y-95961620D01*
X121781201Y-95956586D01*
X121733159Y-95886601D01*
X121733158Y-95886600D01*
X121730816Y-95883188D01*
X121697167Y-95845984D01*
X121690562Y-95838036D01*
X121662667Y-95801471D01*
X121662658Y-95801460D01*
X121660149Y-95798172D01*
X121597202Y-95735225D01*
X121592918Y-95730721D01*
X121535975Y-95667762D01*
X121533195Y-95664688D01*
X121494897Y-95632309D01*
X121487274Y-95625297D01*
X119321725Y-93459748D01*
X153549500Y-93459748D01*
X153561132Y-93518230D01*
X153605447Y-93584552D01*
X153671769Y-93628867D01*
X153730251Y-93640500D01*
X153730252Y-93640500D01*
X160379749Y-93640500D01*
X160408989Y-93634683D01*
X160438231Y-93628867D01*
X160504552Y-93584552D01*
X160548867Y-93518231D01*
X160560500Y-93459748D01*
X160560500Y-89640252D01*
X160548867Y-89581769D01*
X160547681Y-89579994D01*
X160504552Y-89515447D01*
X160438230Y-89471132D01*
X160379749Y-89459500D01*
X160379748Y-89459500D01*
X157199748Y-89459500D01*
X153730252Y-89459500D01*
X153730251Y-89459500D01*
X153671769Y-89471132D01*
X153605447Y-89515447D01*
X153561132Y-89581769D01*
X153549500Y-89640251D01*
X153549500Y-93459748D01*
X119321725Y-93459748D01*
X115868987Y-90007010D01*
X115782246Y-89917321D01*
X115779365Y-89914342D01*
X115776109Y-89911771D01*
X115776105Y-89911767D01*
X115709480Y-89859153D01*
X115704725Y-89855200D01*
X115637700Y-89796587D01*
X115595893Y-89768904D01*
X115587505Y-89762831D01*
X115551402Y-89734321D01*
X115548154Y-89731756D01*
X115544592Y-89729646D01*
X115544583Y-89729640D01*
X115471542Y-89686377D01*
X115466277Y-89683078D01*
X115395514Y-89636223D01*
X115395506Y-89636218D01*
X115392056Y-89633934D01*
X115346936Y-89612072D01*
X115337820Y-89607175D01*
X115298233Y-89583728D01*
X115294669Y-89581617D01*
X115290856Y-89580000D01*
X115290844Y-89579994D01*
X115212694Y-89546856D01*
X115207034Y-89544287D01*
X115130660Y-89507282D01*
X115130657Y-89507281D01*
X115126926Y-89505473D01*
X115122991Y-89504180D01*
X115122984Y-89504177D01*
X115079303Y-89489823D01*
X115069607Y-89486182D01*
X115027255Y-89468223D01*
X115027251Y-89468221D01*
X115023434Y-89466603D01*
X115019436Y-89465507D01*
X115019428Y-89465505D01*
X114937549Y-89443076D01*
X114931612Y-89441289D01*
X114847039Y-89413497D01*
X114842968Y-89412740D01*
X114842960Y-89412738D01*
X114797747Y-89404332D01*
X114787657Y-89402016D01*
X114743278Y-89389860D01*
X114743272Y-89389858D01*
X114739290Y-89388768D01*
X114735198Y-89388217D01*
X114735195Y-89388217D01*
X114651044Y-89376900D01*
X114644907Y-89375917D01*
X114561470Y-89360404D01*
X114561462Y-89360403D01*
X114557390Y-89359646D01*
X114553257Y-89359438D01*
X114553244Y-89359437D01*
X114507310Y-89357132D01*
X114497003Y-89356182D01*
X114451413Y-89350052D01*
X114451408Y-89350051D01*
X114447306Y-89349500D01*
X114443165Y-89349500D01*
X114358275Y-89349500D01*
X114352061Y-89349344D01*
X114267297Y-89345091D01*
X114267294Y-89345091D01*
X114263148Y-89344883D01*
X114259019Y-89345228D01*
X114259005Y-89345229D01*
X114213188Y-89349067D01*
X114202840Y-89349500D01*
X106829500Y-89349500D01*
X106762461Y-89329815D01*
X106716706Y-89277011D01*
X106705500Y-89225500D01*
X106705500Y-87042677D01*
X131129499Y-87042677D01*
X131129500Y-87042695D01*
X131129500Y-87046000D01*
X131129854Y-87049297D01*
X131129855Y-87049306D01*
X131133840Y-87086372D01*
X131133842Y-87086388D01*
X131134197Y-87089684D01*
X131134903Y-87092933D01*
X131134904Y-87092934D01*
X131145403Y-87141195D01*
X131145768Y-87142732D01*
X131147878Y-87151350D01*
X131190899Y-87232085D01*
X131235399Y-87283441D01*
X131235420Y-87283464D01*
X131236655Y-87284889D01*
X131254246Y-87302843D01*
X131334063Y-87347490D01*
X131401102Y-87367175D01*
X131459000Y-87375500D01*
X131459004Y-87375500D01*
X161687678Y-87375500D01*
X161691000Y-87375500D01*
X161734684Y-87370803D01*
X161786195Y-87359597D01*
X161787732Y-87359232D01*
X161796350Y-87357121D01*
X161796368Y-87357111D01*
X161796373Y-87357110D01*
X161877085Y-87314100D01*
X161910796Y-87284889D01*
X161928441Y-87269600D01*
X161928446Y-87269595D01*
X161929889Y-87268345D01*
X161947843Y-87250754D01*
X161992490Y-87170937D01*
X162012175Y-87103898D01*
X162020500Y-87046000D01*
X162020500Y-79039000D01*
X162015803Y-78995316D01*
X162004597Y-78943805D01*
X162004232Y-78942268D01*
X162002121Y-78933649D01*
X162002110Y-78933629D01*
X162002110Y-78933627D01*
X161977348Y-78887159D01*
X161959100Y-78852914D01*
X161914600Y-78801558D01*
X161914580Y-78801536D01*
X161913345Y-78800111D01*
X161895754Y-78782157D01*
X161815937Y-78737510D01*
X161815936Y-78737509D01*
X161815935Y-78737509D01*
X161748901Y-78717826D01*
X161748898Y-78717825D01*
X161691000Y-78709500D01*
X150322489Y-78709500D01*
X150255450Y-78689815D01*
X150209695Y-78637011D01*
X150199751Y-78567853D01*
X150228776Y-78504297D01*
X150283485Y-78467794D01*
X150339122Y-78449357D01*
X150488345Y-78357316D01*
X150612315Y-78233346D01*
X150704358Y-78084121D01*
X150727263Y-78015000D01*
X147112737Y-78015000D01*
X147135641Y-78084121D01*
X147227684Y-78233346D01*
X147351654Y-78357316D01*
X147500877Y-78449357D01*
X147556515Y-78467794D01*
X147613960Y-78507567D01*
X147640783Y-78572083D01*
X147628468Y-78640858D01*
X147580925Y-78692058D01*
X147517511Y-78709500D01*
X146072489Y-78709500D01*
X146005450Y-78689815D01*
X145959695Y-78637011D01*
X145949751Y-78567853D01*
X145978776Y-78504297D01*
X146033485Y-78467794D01*
X146089122Y-78449357D01*
X146238345Y-78357316D01*
X146362315Y-78233346D01*
X146454358Y-78084121D01*
X146477263Y-78015000D01*
X142862737Y-78015000D01*
X142885641Y-78084121D01*
X142977684Y-78233346D01*
X143101654Y-78357316D01*
X143250877Y-78449357D01*
X143306515Y-78467794D01*
X143363960Y-78507567D01*
X143390783Y-78572083D01*
X143378468Y-78640858D01*
X143330925Y-78692058D01*
X143267511Y-78709500D01*
X141822489Y-78709500D01*
X141755450Y-78689815D01*
X141709695Y-78637011D01*
X141699751Y-78567853D01*
X141728776Y-78504297D01*
X141783485Y-78467794D01*
X141839122Y-78449357D01*
X141988345Y-78357316D01*
X142112315Y-78233346D01*
X142204358Y-78084121D01*
X142227263Y-78015000D01*
X138612737Y-78015000D01*
X138635641Y-78084121D01*
X138727684Y-78233346D01*
X138851654Y-78357316D01*
X139000877Y-78449357D01*
X139056515Y-78467794D01*
X139113960Y-78507567D01*
X139140783Y-78572083D01*
X139128468Y-78640858D01*
X139080925Y-78692058D01*
X139017511Y-78709500D01*
X131459000Y-78709500D01*
X131455703Y-78709854D01*
X131455693Y-78709855D01*
X131418627Y-78713840D01*
X131418608Y-78713842D01*
X131415316Y-78714197D01*
X131412069Y-78714903D01*
X131412065Y-78714904D01*
X131363805Y-78725403D01*
X131362268Y-78725768D01*
X131353649Y-78727878D01*
X131272914Y-78770899D01*
X131221558Y-78815399D01*
X131221518Y-78815435D01*
X131220111Y-78816655D01*
X131218769Y-78817970D01*
X131202156Y-78834247D01*
X131157509Y-78914064D01*
X131137826Y-78981098D01*
X131137825Y-78981102D01*
X131135306Y-78998627D01*
X131129500Y-79039003D01*
X131129499Y-87042677D01*
X106705500Y-87042677D01*
X106705500Y-71425890D01*
X117162193Y-71425890D01*
X117176716Y-72120304D01*
X117199387Y-73204296D01*
X117200540Y-73259435D01*
X117291939Y-77629727D01*
X117291940Y-77629743D01*
X117292006Y-77632890D01*
X117292391Y-77636016D01*
X117292393Y-77636032D01*
X117296739Y-77671245D01*
X117296741Y-77671258D01*
X117297126Y-77674375D01*
X117297826Y-77677440D01*
X117297827Y-77677443D01*
X117308305Y-77723293D01*
X117308596Y-77724480D01*
X117310316Y-77731359D01*
X117353335Y-77812086D01*
X117397833Y-77863441D01*
X117397854Y-77863464D01*
X117399089Y-77864889D01*
X117416680Y-77882843D01*
X117496497Y-77927490D01*
X117563536Y-77947175D01*
X117621434Y-77955500D01*
X120917675Y-77955500D01*
X120984714Y-77975185D01*
X121030469Y-78027989D01*
X121041670Y-78080559D01*
X121033832Y-78998627D01*
X121030517Y-79386948D01*
X121014797Y-81228246D01*
X121014168Y-81301944D01*
X120985771Y-84628246D01*
X120985142Y-84701944D01*
X120970575Y-86408187D01*
X120970914Y-86411545D01*
X120970915Y-86411559D01*
X120974740Y-86449403D01*
X120975080Y-86452765D01*
X120975782Y-86456063D01*
X120975784Y-86456071D01*
X120986281Y-86505335D01*
X120986668Y-86506984D01*
X120988939Y-86516346D01*
X120988952Y-86516371D01*
X120988953Y-86516373D01*
X120999378Y-86535937D01*
X121031964Y-86597086D01*
X121076462Y-86648441D01*
X121076483Y-86648464D01*
X121077718Y-86649889D01*
X121095309Y-86667843D01*
X121175126Y-86712490D01*
X121242165Y-86732175D01*
X121300063Y-86740500D01*
X121300067Y-86740500D01*
X124099212Y-86740500D01*
X124099213Y-86740500D01*
X124167085Y-86728968D01*
X124244523Y-86680311D01*
X124502317Y-86422515D01*
X124563641Y-86389031D01*
X124633332Y-86394015D01*
X124677680Y-86422516D01*
X124935474Y-86680310D01*
X124980828Y-86712490D01*
X124991622Y-86720149D01*
X125080784Y-86740500D01*
X125080785Y-86740500D01*
X128032678Y-86740500D01*
X128036000Y-86740500D01*
X128079684Y-86735803D01*
X128131195Y-86724597D01*
X128132732Y-86724232D01*
X128141350Y-86722121D01*
X128141368Y-86722111D01*
X128141373Y-86722110D01*
X128222085Y-86679100D01*
X128255796Y-86649889D01*
X128273441Y-86634600D01*
X128273446Y-86634595D01*
X128274889Y-86633345D01*
X128292843Y-86615754D01*
X128337490Y-86535937D01*
X128357175Y-86468898D01*
X128365500Y-86411000D01*
X128365500Y-78079500D01*
X128385185Y-78012461D01*
X128437989Y-77966706D01*
X128489500Y-77955500D01*
X133497678Y-77955500D01*
X133501000Y-77955500D01*
X133544684Y-77950803D01*
X133596195Y-77939597D01*
X133597732Y-77939232D01*
X133606350Y-77937121D01*
X133606368Y-77937111D01*
X133606373Y-77937110D01*
X133687085Y-77894100D01*
X133720796Y-77864889D01*
X133738441Y-77849600D01*
X133738446Y-77849595D01*
X133739889Y-77848345D01*
X133757843Y-77830754D01*
X133802490Y-77750937D01*
X133822175Y-77683898D01*
X133830500Y-77626000D01*
X133830500Y-76865000D01*
X138612737Y-76865000D01*
X139845000Y-76865000D01*
X139845000Y-76365000D01*
X140995000Y-76365000D01*
X140995000Y-76865000D01*
X142227262Y-76865000D01*
X142862737Y-76865000D01*
X144095000Y-76865000D01*
X144095000Y-76365000D01*
X145245000Y-76365000D01*
X145245000Y-76865000D01*
X146477262Y-76865000D01*
X147112737Y-76865000D01*
X148345000Y-76865000D01*
X148345000Y-76365000D01*
X149495000Y-76365000D01*
X149495000Y-76865000D01*
X150727262Y-76865000D01*
X150704358Y-76795878D01*
X150612315Y-76646653D01*
X150488345Y-76522683D01*
X150339122Y-76430642D01*
X150172696Y-76375493D01*
X150073109Y-76365319D01*
X150066832Y-76365000D01*
X149495000Y-76365000D01*
X148345000Y-76365000D01*
X147773171Y-76365000D01*
X147766888Y-76365321D01*
X147667304Y-76375493D01*
X147500877Y-76430642D01*
X147351654Y-76522683D01*
X147227684Y-76646653D01*
X147135641Y-76795878D01*
X147112737Y-76865000D01*
X146477262Y-76865000D01*
X146454358Y-76795878D01*
X146362315Y-76646653D01*
X146238345Y-76522683D01*
X146089122Y-76430642D01*
X145922696Y-76375493D01*
X145823109Y-76365319D01*
X145816832Y-76365000D01*
X145245000Y-76365000D01*
X144095000Y-76365000D01*
X143523171Y-76365000D01*
X143516888Y-76365321D01*
X143417304Y-76375493D01*
X143250877Y-76430642D01*
X143101654Y-76522683D01*
X142977684Y-76646653D01*
X142885641Y-76795878D01*
X142862737Y-76865000D01*
X142227262Y-76865000D01*
X142204358Y-76795878D01*
X142112315Y-76646653D01*
X141988345Y-76522683D01*
X141839122Y-76430642D01*
X141672696Y-76375493D01*
X141573109Y-76365319D01*
X141566832Y-76365000D01*
X140995000Y-76365000D01*
X139845000Y-76365000D01*
X139273171Y-76365000D01*
X139266888Y-76365321D01*
X139167304Y-76375493D01*
X139000877Y-76430642D01*
X138851654Y-76522683D01*
X138727684Y-76646653D01*
X138635641Y-76795878D01*
X138612737Y-76865000D01*
X133830500Y-76865000D01*
X133830499Y-74605448D01*
X133826259Y-74563920D01*
X133816131Y-74514836D01*
X133815863Y-74513632D01*
X133814302Y-74506775D01*
X133814295Y-74506761D01*
X133773024Y-74425147D01*
X133728410Y-74371375D01*
X133727120Y-74370001D01*
X133727100Y-74369978D01*
X133711208Y-74353048D01*
X133662647Y-74324503D01*
X133632363Y-74306701D01*
X133632362Y-74306700D01*
X133632361Y-74306700D01*
X133567581Y-74286161D01*
X133567541Y-74286149D01*
X133565760Y-74285585D01*
X133563941Y-74285128D01*
X133563921Y-74285123D01*
X133547363Y-74280970D01*
X133487128Y-74245566D01*
X133455595Y-74183216D01*
X133462777Y-74113717D01*
X133489850Y-74073016D01*
X133560830Y-74002037D01*
X133650772Y-73873584D01*
X133705348Y-73829960D01*
X133774846Y-73822766D01*
X133837201Y-73854288D01*
X133858618Y-73884591D01*
X133859332Y-73884126D01*
X133864948Y-73892723D01*
X133864951Y-73892728D01*
X133996429Y-74093969D01*
X134159236Y-74270825D01*
X134178940Y-74286161D01*
X134348927Y-74418468D01*
X134348929Y-74418469D01*
X134348933Y-74418472D01*
X134560344Y-74532882D01*
X134787703Y-74610934D01*
X135024808Y-74650500D01*
X135024809Y-74650500D01*
X135265191Y-74650500D01*
X135265192Y-74650500D01*
X135502297Y-74610934D01*
X135729656Y-74532882D01*
X135941067Y-74418472D01*
X136130764Y-74270825D01*
X136226770Y-74166533D01*
X136286657Y-74130543D01*
X136356495Y-74132643D01*
X136414111Y-74172166D01*
X136441213Y-74236566D01*
X136442000Y-74250516D01*
X136442000Y-74262248D01*
X136453632Y-74320730D01*
X136497947Y-74387052D01*
X136564269Y-74431367D01*
X136622751Y-74443000D01*
X136622752Y-74443000D01*
X138747249Y-74443000D01*
X138776489Y-74437183D01*
X138805731Y-74431367D01*
X138872052Y-74387052D01*
X138916367Y-74320731D01*
X138928000Y-74262248D01*
X138928000Y-72137752D01*
X138924529Y-72120304D01*
X138916367Y-72079269D01*
X138872052Y-72012947D01*
X138805730Y-71968632D01*
X138747249Y-71957000D01*
X138747248Y-71957000D01*
X136719500Y-71957000D01*
X136652461Y-71937315D01*
X136606706Y-71884511D01*
X136595500Y-71833000D01*
X136595500Y-68892000D01*
X136615185Y-68824961D01*
X136667989Y-68779206D01*
X136719500Y-68768000D01*
X138747249Y-68768000D01*
X138776489Y-68762183D01*
X138805731Y-68756367D01*
X138872052Y-68712052D01*
X138916367Y-68645731D01*
X138928000Y-68587248D01*
X138928000Y-68485000D01*
X153250000Y-68485000D01*
X153250000Y-69419518D01*
X153250354Y-69426132D01*
X153256400Y-69482371D01*
X153306647Y-69617089D01*
X153392811Y-69732188D01*
X153507910Y-69818352D01*
X153642628Y-69868599D01*
X153698867Y-69874645D01*
X153705482Y-69875000D01*
X154465000Y-69875000D01*
X154465000Y-68485000D01*
X156465000Y-68485000D01*
X156465000Y-69875000D01*
X157645000Y-69875000D01*
X157645000Y-68485000D01*
X159645000Y-68485000D01*
X159645000Y-69875000D01*
X160404518Y-69875000D01*
X160411132Y-69874645D01*
X160467371Y-69868599D01*
X160602089Y-69818352D01*
X160717188Y-69732188D01*
X160803352Y-69617089D01*
X160853599Y-69482371D01*
X160859645Y-69426132D01*
X160860000Y-69419518D01*
X160860000Y-68485000D01*
X159645000Y-68485000D01*
X157645000Y-68485000D01*
X156465000Y-68485000D01*
X154465000Y-68485000D01*
X153250000Y-68485000D01*
X138928000Y-68485000D01*
X138928000Y-67578543D01*
X154575000Y-67578543D01*
X154613898Y-67761540D01*
X154689992Y-67932451D01*
X154799958Y-68083806D01*
X154938990Y-68208991D01*
X155101011Y-68302534D01*
X155278939Y-68360346D01*
X155418361Y-68375000D01*
X155511639Y-68375000D01*
X155651061Y-68360346D01*
X155828989Y-68302534D01*
X155991010Y-68208991D01*
X156130042Y-68083806D01*
X156240008Y-67932451D01*
X156316102Y-67761540D01*
X156355000Y-67578543D01*
X157755000Y-67578543D01*
X157793898Y-67761540D01*
X157869992Y-67932451D01*
X157979958Y-68083806D01*
X158118990Y-68208991D01*
X158281011Y-68302534D01*
X158458939Y-68360346D01*
X158598361Y-68375000D01*
X158691639Y-68375000D01*
X158831061Y-68360346D01*
X159008989Y-68302534D01*
X159171010Y-68208991D01*
X159310042Y-68083806D01*
X159420008Y-67932451D01*
X159496102Y-67761540D01*
X159535000Y-67578543D01*
X159535000Y-67391457D01*
X159496102Y-67208460D01*
X159420008Y-67037549D01*
X159310042Y-66886194D01*
X159171010Y-66761009D01*
X159008989Y-66667466D01*
X158831061Y-66609654D01*
X158691639Y-66595000D01*
X158598361Y-66595000D01*
X158458939Y-66609654D01*
X158281011Y-66667466D01*
X158118990Y-66761009D01*
X157979958Y-66886194D01*
X157869992Y-67037549D01*
X157793898Y-67208460D01*
X157755000Y-67391457D01*
X157755000Y-67578543D01*
X156355000Y-67578543D01*
X156355000Y-67391457D01*
X156316102Y-67208460D01*
X156240008Y-67037549D01*
X156130042Y-66886194D01*
X155991010Y-66761009D01*
X155828989Y-66667466D01*
X155651061Y-66609654D01*
X155511639Y-66595000D01*
X155418361Y-66595000D01*
X155278939Y-66609654D01*
X155101011Y-66667466D01*
X154938990Y-66761009D01*
X154799958Y-66886194D01*
X154689992Y-67037549D01*
X154613898Y-67208460D01*
X154575000Y-67391457D01*
X154575000Y-67578543D01*
X138928000Y-67578543D01*
X138928000Y-66485000D01*
X153250000Y-66485000D01*
X154465000Y-66485000D01*
X154465000Y-65095000D01*
X156465000Y-65095000D01*
X156465000Y-66485000D01*
X157645000Y-66485000D01*
X157645000Y-65095000D01*
X159645000Y-65095000D01*
X159645000Y-66485000D01*
X160860000Y-66485000D01*
X160860000Y-65550481D01*
X160859645Y-65543867D01*
X160853599Y-65487628D01*
X160803352Y-65352910D01*
X160717188Y-65237811D01*
X160602089Y-65151647D01*
X160467371Y-65101400D01*
X160411132Y-65095354D01*
X160404518Y-65095000D01*
X159645000Y-65095000D01*
X157645000Y-65095000D01*
X156465000Y-65095000D01*
X154465000Y-65095000D01*
X153705482Y-65095000D01*
X153698867Y-65095354D01*
X153642628Y-65101400D01*
X153507910Y-65151647D01*
X153392811Y-65237811D01*
X153306647Y-65352910D01*
X153256400Y-65487628D01*
X153250354Y-65543867D01*
X153250000Y-65550481D01*
X153250000Y-66485000D01*
X138928000Y-66485000D01*
X138928000Y-66462752D01*
X138926293Y-66454172D01*
X138916367Y-66404269D01*
X138872052Y-66337947D01*
X138805730Y-66293632D01*
X138747249Y-66282000D01*
X138747248Y-66282000D01*
X136622752Y-66282000D01*
X136622751Y-66282000D01*
X136564269Y-66293632D01*
X136497947Y-66337947D01*
X136453632Y-66404269D01*
X136442000Y-66462751D01*
X136442000Y-66474483D01*
X136422315Y-66541522D01*
X136369511Y-66587277D01*
X136300353Y-66597221D01*
X136236797Y-66568196D01*
X136226770Y-66558466D01*
X136216470Y-66547277D01*
X136130764Y-66454175D01*
X136090392Y-66422752D01*
X135941072Y-66306531D01*
X135941068Y-66306528D01*
X135941067Y-66306528D01*
X135729656Y-66192118D01*
X135729655Y-66192117D01*
X135729652Y-66192116D01*
X135502299Y-66114066D01*
X135344226Y-66087688D01*
X135265192Y-66074500D01*
X135024808Y-66074500D01*
X134965531Y-66084391D01*
X134787700Y-66114066D01*
X134560347Y-66192116D01*
X134348927Y-66306531D01*
X134159238Y-66454172D01*
X134106437Y-66511529D01*
X134046549Y-66547519D01*
X134001566Y-66546165D01*
X134009686Y-66573804D01*
X133990011Y-66640846D01*
X133989495Y-66641643D01*
X133935513Y-66724269D01*
X133891085Y-66792272D01*
X133859332Y-66840873D01*
X133857730Y-66839826D01*
X133820939Y-66883592D01*
X133754201Y-66904277D01*
X133686875Y-66885597D01*
X133650772Y-66851414D01*
X133561745Y-66724269D01*
X133539418Y-66658063D01*
X133556428Y-66590296D01*
X133607377Y-66542483D01*
X133645671Y-66530408D01*
X133706758Y-66521625D01*
X133731373Y-66516533D01*
X133812085Y-66473523D01*
X133812085Y-66473522D01*
X133824414Y-66466953D01*
X133826152Y-66470215D01*
X133868021Y-66451087D01*
X133897834Y-66455368D01*
X133891995Y-66441493D01*
X133904014Y-66372665D01*
X133906968Y-66367047D01*
X133927490Y-66330360D01*
X133947175Y-66263321D01*
X133955500Y-66205423D01*
X133955500Y-63829500D01*
X133975185Y-63762461D01*
X134027989Y-63716706D01*
X134079500Y-63705500D01*
X160872678Y-63705500D01*
X160876000Y-63705500D01*
X160919684Y-63700803D01*
X160971195Y-63689597D01*
X160972732Y-63689232D01*
X160981350Y-63687121D01*
X160981368Y-63687111D01*
X160981373Y-63687110D01*
X161062085Y-63644100D01*
X161114889Y-63598345D01*
X161132843Y-63580754D01*
X161177490Y-63500937D01*
X161197175Y-63433898D01*
X161205500Y-63376000D01*
X161205500Y-62236958D01*
X161204322Y-62214989D01*
X161201488Y-62188631D01*
X161177529Y-62112114D01*
X161144044Y-62050791D01*
X161130670Y-62029507D01*
X161062167Y-61968914D01*
X161000844Y-61935429D01*
X160978087Y-61924754D01*
X160978085Y-61924753D01*
X160887700Y-61910814D01*
X160819899Y-61915663D01*
X160819876Y-61915665D01*
X160818007Y-61915799D01*
X160816156Y-61916045D01*
X160816136Y-61916048D01*
X160793083Y-61919124D01*
X160734857Y-61945001D01*
X160665601Y-61954238D01*
X160602345Y-61924566D01*
X160565172Y-61865405D01*
X160560500Y-61831687D01*
X160560500Y-58158616D01*
X160580185Y-58091577D01*
X160632989Y-58045822D01*
X160702147Y-58035878D01*
X160736003Y-58045819D01*
X160772985Y-58062708D01*
X160796449Y-58071733D01*
X160873817Y-58078059D01*
X160887598Y-58079187D01*
X160887598Y-58079186D01*
X160887600Y-58079187D01*
X160956758Y-58069243D01*
X160981373Y-58064151D01*
X161062085Y-58021141D01*
X161077943Y-58007399D01*
X161113441Y-57976641D01*
X161113446Y-57976636D01*
X161114889Y-57975386D01*
X161132843Y-57957795D01*
X161177490Y-57877978D01*
X161197175Y-57810939D01*
X161205500Y-57753041D01*
X161205500Y-57622971D01*
X161200984Y-57580127D01*
X161190204Y-57529557D01*
X161189873Y-57528125D01*
X161187988Y-57520213D01*
X161187816Y-57519884D01*
X161145641Y-57439124D01*
X161100327Y-57385941D01*
X161082887Y-57367843D01*
X161082886Y-57367842D01*
X161082885Y-57367841D01*
X161003445Y-57322532D01*
X160936565Y-57302287D01*
X160878749Y-57293482D01*
X160760455Y-57292496D01*
X160760446Y-57292496D01*
X160758745Y-57292482D01*
X160757039Y-57292562D01*
X160757026Y-57292563D01*
X160737634Y-57293481D01*
X160737620Y-57293482D01*
X160735910Y-57293563D01*
X160734226Y-57293736D01*
X160734186Y-57293740D01*
X160708524Y-57296392D01*
X160631165Y-57320439D01*
X160575660Y-57350745D01*
X160569840Y-57353924D01*
X160568233Y-57354934D01*
X160548550Y-57367301D01*
X160487959Y-57435802D01*
X160486144Y-57439126D01*
X160454474Y-57497126D01*
X160453676Y-57498826D01*
X160453672Y-57498835D01*
X160443798Y-57519884D01*
X160429859Y-57610269D01*
X160434709Y-57678084D01*
X160434711Y-57678104D01*
X160434844Y-57679963D01*
X160435090Y-57681807D01*
X160435093Y-57681836D01*
X160438167Y-57704878D01*
X160449395Y-57730142D01*
X160458632Y-57799398D01*
X160428961Y-57862655D01*
X160369800Y-57899827D01*
X160336081Y-57904500D01*
X153827943Y-57904500D01*
X153760904Y-57884815D01*
X153715149Y-57832011D01*
X153705205Y-57762853D01*
X153715582Y-57728050D01*
X153726398Y-57704879D01*
X153744286Y-57666559D01*
X153753506Y-57643172D01*
X153761720Y-57552086D01*
X153752353Y-57482847D01*
X153751983Y-57480982D01*
X153751980Y-57480962D01*
X153747465Y-57458187D01*
X153705130Y-57377122D01*
X153705129Y-57377120D01*
X153659815Y-57323937D01*
X153642375Y-57305839D01*
X153642374Y-57305838D01*
X153642373Y-57305837D01*
X153562933Y-57260528D01*
X153496053Y-57240283D01*
X153438237Y-57231478D01*
X131130114Y-57045576D01*
X131130111Y-57045576D01*
X131126740Y-57045548D01*
X131123397Y-57045886D01*
X131123383Y-57045887D01*
X131085546Y-57049717D01*
X131085530Y-57049719D01*
X131082176Y-57050059D01*
X131078868Y-57050764D01*
X131078857Y-57050766D01*
X131029637Y-57061261D01*
X131027982Y-57061650D01*
X131018652Y-57063913D01*
X130937913Y-57106937D01*
X130886558Y-57151436D01*
X130886518Y-57151472D01*
X130885111Y-57152692D01*
X130883761Y-57154014D01*
X130883752Y-57154023D01*
X130867158Y-57170280D01*
X130822510Y-57250099D01*
X130822510Y-57250100D01*
X130802825Y-57317138D01*
X130798195Y-57349337D01*
X130794499Y-57375039D01*
X130794500Y-62378599D01*
X130794500Y-67334214D01*
X130806032Y-67402086D01*
X130840916Y-67457603D01*
X130859917Y-67524839D01*
X130839550Y-67591674D01*
X130837053Y-67595330D01*
X130814851Y-67626620D01*
X130797722Y-67701669D01*
X130794500Y-67715784D01*
X130794500Y-68926000D01*
X130794854Y-68929297D01*
X130794855Y-68929306D01*
X130798840Y-68966372D01*
X130798842Y-68966388D01*
X130799197Y-68969684D01*
X130799903Y-68972933D01*
X130799904Y-68972934D01*
X130810403Y-69021195D01*
X130810768Y-69022732D01*
X130812878Y-69031350D01*
X130855899Y-69112085D01*
X130900399Y-69163441D01*
X130900420Y-69163464D01*
X130901655Y-69164889D01*
X130919246Y-69182843D01*
X130999063Y-69227490D01*
X131066102Y-69247175D01*
X131124000Y-69255500D01*
X131124004Y-69255500D01*
X132494209Y-69255500D01*
X132494210Y-69255500D01*
X132562082Y-69243968D01*
X132639520Y-69195310D01*
X132776635Y-69058193D01*
X132776659Y-69058175D01*
X132786628Y-69048205D01*
X132786631Y-69048204D01*
X133222474Y-68612359D01*
X133239018Y-68598476D01*
X133407037Y-68480830D01*
X133482819Y-68405048D01*
X133544142Y-68371563D01*
X133613834Y-68376547D01*
X133669767Y-68418419D01*
X133694184Y-68483883D01*
X133694500Y-68492729D01*
X133694500Y-70974218D01*
X133674815Y-71041257D01*
X133622011Y-71087012D01*
X133552853Y-71096955D01*
X133501000Y-71089500D01*
X129554000Y-71089500D01*
X129550703Y-71089854D01*
X129550693Y-71089855D01*
X129513627Y-71093840D01*
X129513608Y-71093842D01*
X129510316Y-71094197D01*
X129507069Y-71094903D01*
X129507065Y-71094904D01*
X129458805Y-71105403D01*
X129457268Y-71105768D01*
X129448649Y-71107878D01*
X129367914Y-71150899D01*
X129316558Y-71195399D01*
X129316518Y-71195435D01*
X129315111Y-71196655D01*
X129313769Y-71197970D01*
X129297156Y-71214247D01*
X129252509Y-71294064D01*
X129232826Y-71361098D01*
X129232825Y-71361102D01*
X129231858Y-71367832D01*
X129224500Y-71419003D01*
X129224500Y-76045500D01*
X129204815Y-76112539D01*
X129152011Y-76158294D01*
X129100500Y-76169500D01*
X121889500Y-76169500D01*
X121822461Y-76149815D01*
X121776706Y-76097011D01*
X121765500Y-76045500D01*
X121765500Y-74608607D01*
X121765500Y-74605448D01*
X121761260Y-74563920D01*
X121751132Y-74514836D01*
X121750864Y-74513632D01*
X121749303Y-74506775D01*
X121749296Y-74506761D01*
X121708025Y-74425147D01*
X121663411Y-74371375D01*
X121662121Y-74370001D01*
X121662101Y-74369978D01*
X121646210Y-74353049D01*
X121567366Y-74306702D01*
X121540079Y-74298051D01*
X121500763Y-74285586D01*
X121498933Y-74285127D01*
X121498923Y-74285124D01*
X121487638Y-74282293D01*
X121482355Y-74280967D01*
X121422122Y-74245561D01*
X121390593Y-74183210D01*
X121397778Y-74113711D01*
X121424847Y-74073019D01*
X121495830Y-74002037D01*
X121585773Y-73873584D01*
X121640349Y-73829960D01*
X121709847Y-73822766D01*
X121772202Y-73854289D01*
X121793619Y-73884591D01*
X121794332Y-73884126D01*
X121799948Y-73892723D01*
X121799951Y-73892728D01*
X121931429Y-74093969D01*
X122094236Y-74270825D01*
X122113940Y-74286161D01*
X122283927Y-74418468D01*
X122283929Y-74418469D01*
X122283933Y-74418472D01*
X122495344Y-74532882D01*
X122722703Y-74610934D01*
X122959808Y-74650500D01*
X122959809Y-74650500D01*
X123200191Y-74650500D01*
X123200192Y-74650500D01*
X123437297Y-74610934D01*
X123664656Y-74532882D01*
X123876067Y-74418472D01*
X124065764Y-74270825D01*
X124161773Y-74166530D01*
X124221655Y-74130543D01*
X124291493Y-74132642D01*
X124349110Y-74172166D01*
X124376212Y-74236565D01*
X124376999Y-74250511D01*
X124376999Y-74262246D01*
X124388632Y-74320730D01*
X124432947Y-74387052D01*
X124499269Y-74431367D01*
X124557751Y-74443000D01*
X124557752Y-74443000D01*
X126682249Y-74443000D01*
X126711489Y-74437183D01*
X126740731Y-74431367D01*
X126807052Y-74387052D01*
X126851367Y-74320731D01*
X126863000Y-74262248D01*
X126863000Y-72137752D01*
X126851367Y-72079269D01*
X126835969Y-72056225D01*
X126807052Y-72012947D01*
X126740730Y-71968632D01*
X126682249Y-71957000D01*
X126682248Y-71957000D01*
X124654500Y-71957000D01*
X124587461Y-71937315D01*
X124541706Y-71884511D01*
X124530500Y-71833000D01*
X124530500Y-68852000D01*
X124550185Y-68784961D01*
X124602989Y-68739206D01*
X124654500Y-68728000D01*
X126682249Y-68728000D01*
X126711489Y-68722183D01*
X126740731Y-68716367D01*
X126807052Y-68672052D01*
X126851367Y-68605731D01*
X126863000Y-68547248D01*
X126863000Y-66422752D01*
X126851367Y-66364269D01*
X126833779Y-66337947D01*
X126807052Y-66297947D01*
X126740730Y-66253632D01*
X126682249Y-66242000D01*
X126682248Y-66242000D01*
X124557752Y-66242000D01*
X124557751Y-66242000D01*
X124499269Y-66253632D01*
X124432947Y-66297947D01*
X124388632Y-66364269D01*
X124377000Y-66422751D01*
X124377000Y-66434483D01*
X124357315Y-66501522D01*
X124304511Y-66547277D01*
X124235353Y-66557221D01*
X124171797Y-66528196D01*
X124161770Y-66518466D01*
X124132755Y-66486947D01*
X124065764Y-66414175D01*
X124001645Y-66364269D01*
X123876072Y-66266531D01*
X123876068Y-66266528D01*
X123876067Y-66266528D01*
X123664656Y-66152118D01*
X123664655Y-66152117D01*
X123664652Y-66152116D01*
X123437299Y-66074066D01*
X123279227Y-66047688D01*
X123200192Y-66034500D01*
X122959808Y-66034500D01*
X122730668Y-66072736D01*
X122661303Y-66064354D01*
X122607481Y-66019801D01*
X122586291Y-65953222D01*
X122604459Y-65885756D01*
X122622573Y-65862752D01*
X124486522Y-63998803D01*
X124547843Y-63965320D01*
X124617535Y-63970304D01*
X124649687Y-63988110D01*
X124697159Y-64024535D01*
X124697159Y-64024536D01*
X124843238Y-64085044D01*
X125000000Y-64105682D01*
X125156762Y-64085044D01*
X125302841Y-64024536D01*
X125428282Y-63928282D01*
X125524536Y-63802841D01*
X125585044Y-63656762D01*
X125605682Y-63500000D01*
X125585044Y-63343238D01*
X125524536Y-63197159D01*
X125428282Y-63071718D01*
X125374012Y-63030074D01*
X125332810Y-62973646D01*
X125325500Y-62931699D01*
X125325500Y-55708187D01*
X125345185Y-55641148D01*
X125361814Y-55620511D01*
X126788740Y-54193584D01*
X126850061Y-54160101D01*
X126917373Y-54164225D01*
X126934224Y-54170121D01*
X126964302Y-54180646D01*
X126994735Y-54183500D01*
X128103264Y-54183499D01*
X128133698Y-54180646D01*
X128261882Y-54135793D01*
X128371150Y-54055150D01*
X128451793Y-53945882D01*
X128496646Y-53817698D01*
X128499500Y-53787265D01*
X128499500Y-53723000D01*
X129397576Y-53723000D01*
X129471600Y-53876712D01*
X129603855Y-54058745D01*
X129766491Y-54214241D01*
X129799000Y-54235700D01*
X129799000Y-53723000D01*
X131299000Y-53723000D01*
X131299000Y-54233704D01*
X131416318Y-54140146D01*
X131564359Y-53970700D01*
X131679762Y-53777548D01*
X131700235Y-53723000D01*
X131299000Y-53723000D01*
X129799000Y-53723000D01*
X129397576Y-53723000D01*
X128499500Y-53723000D01*
X128499500Y-53046327D01*
X130039000Y-53046327D01*
X130080318Y-53187040D01*
X130159605Y-53310413D01*
X130270438Y-53406451D01*
X130403839Y-53467373D01*
X130512527Y-53483000D01*
X130585473Y-53483000D01*
X130694161Y-53467373D01*
X130827562Y-53406451D01*
X130938395Y-53310413D01*
X131017682Y-53187040D01*
X131059000Y-53046327D01*
X131059000Y-52899673D01*
X131017682Y-52758960D01*
X130938395Y-52635587D01*
X130827562Y-52539549D01*
X130694161Y-52478627D01*
X130585473Y-52463000D01*
X130512527Y-52463000D01*
X130403839Y-52478627D01*
X130270438Y-52539549D01*
X130159605Y-52635587D01*
X130080318Y-52758960D01*
X130039000Y-52899673D01*
X130039000Y-53046327D01*
X128499500Y-53046327D01*
X128499499Y-52223000D01*
X129397764Y-52223000D01*
X129798999Y-52223000D01*
X129798999Y-51712294D01*
X129681678Y-51805856D01*
X129533640Y-51975299D01*
X129418237Y-52168451D01*
X129397764Y-52223000D01*
X128499499Y-52223000D01*
X128499499Y-52158736D01*
X128496646Y-52128302D01*
X128451793Y-52000118D01*
X128405393Y-51937248D01*
X128371150Y-51890849D01*
X128288802Y-51830075D01*
X128261882Y-51810207D01*
X128133698Y-51765354D01*
X128133697Y-51765353D01*
X128133695Y-51765353D01*
X128106150Y-51762770D01*
X128106138Y-51762769D01*
X128103265Y-51762500D01*
X128100372Y-51762500D01*
X126997638Y-51762500D01*
X126997616Y-51762500D01*
X126994736Y-51762501D01*
X126991860Y-51762770D01*
X126991851Y-51762771D01*
X126964301Y-51765354D01*
X126836118Y-51810207D01*
X126726849Y-51890849D01*
X126646207Y-52000118D01*
X126601353Y-52128304D01*
X126598770Y-52155849D01*
X126598770Y-52155851D01*
X126598500Y-52158735D01*
X126598500Y-52161605D01*
X126598499Y-52161627D01*
X126598499Y-53411810D01*
X126578814Y-53478850D01*
X126562180Y-53499491D01*
X124783714Y-55277958D01*
X124775741Y-55285264D01*
X124746806Y-55309544D01*
X124727914Y-55342264D01*
X124722106Y-55351380D01*
X124699831Y-55383193D01*
X124689597Y-55407899D01*
X124682852Y-55446148D01*
X124680512Y-55456704D01*
X124670735Y-55493191D01*
X124674028Y-55530817D01*
X124674500Y-55541626D01*
X124674500Y-62826310D01*
X124654815Y-62893349D01*
X124638181Y-62913991D01*
X124308714Y-63243458D01*
X124300741Y-63250764D01*
X124271805Y-63275044D01*
X124255618Y-63303080D01*
X124235915Y-63328756D01*
X121222800Y-66341872D01*
X121161477Y-66375357D01*
X121091785Y-66370373D01*
X121082714Y-66366573D01*
X120966755Y-66312500D01*
X120756667Y-66256207D01*
X120540000Y-66237251D01*
X120323332Y-66256207D01*
X120113244Y-66312500D01*
X120002227Y-66364269D01*
X119916126Y-66404419D01*
X119739354Y-66528196D01*
X119737959Y-66529173D01*
X119584173Y-66682959D01*
X119584170Y-66682962D01*
X119584170Y-66682963D01*
X119466220Y-66851414D01*
X119459418Y-66861128D01*
X119367500Y-67058244D01*
X119311207Y-67268332D01*
X119292251Y-67484999D01*
X119311207Y-67701667D01*
X119314990Y-67715784D01*
X119367500Y-67911755D01*
X119459419Y-68108874D01*
X119584170Y-68287037D01*
X119737963Y-68440830D01*
X119916126Y-68565581D01*
X120113245Y-68657500D01*
X120323331Y-68713792D01*
X120540000Y-68732748D01*
X120756669Y-68713792D01*
X120966755Y-68657500D01*
X121163874Y-68565581D01*
X121342037Y-68440830D01*
X121417822Y-68365044D01*
X121479141Y-68331562D01*
X121548833Y-68336546D01*
X121604767Y-68378417D01*
X121629184Y-68443881D01*
X121629500Y-68452728D01*
X121629500Y-70974218D01*
X121609815Y-71041257D01*
X121557011Y-71087012D01*
X121487853Y-71096955D01*
X121436000Y-71089500D01*
X117491621Y-71089500D01*
X117488170Y-71089889D01*
X117488157Y-71089890D01*
X117449317Y-71094272D01*
X117449314Y-71094272D01*
X117445843Y-71094664D01*
X117442444Y-71095440D01*
X117442436Y-71095442D01*
X117391984Y-71106971D01*
X117390148Y-71107436D01*
X117379792Y-71110144D01*
X117299968Y-71154849D01*
X117249545Y-71200422D01*
X117249532Y-71200434D01*
X117248134Y-71201698D01*
X117246825Y-71203035D01*
X117246816Y-71203044D01*
X117230550Y-71219663D01*
X117187584Y-71300394D01*
X117169304Y-71367831D01*
X117162193Y-71425887D01*
X117162193Y-71425890D01*
X106705500Y-71425890D01*
X106705500Y-64877322D01*
X106705500Y-64874000D01*
X106700803Y-64830316D01*
X106689597Y-64778805D01*
X106689232Y-64777268D01*
X106687121Y-64768649D01*
X106687110Y-64768629D01*
X106687110Y-64768627D01*
X106662348Y-64722159D01*
X106644100Y-64687914D01*
X106599600Y-64636558D01*
X106599580Y-64636536D01*
X106598345Y-64635111D01*
X106580754Y-64617157D01*
X106500937Y-64572510D01*
X106500936Y-64572509D01*
X106500935Y-64572509D01*
X106433901Y-64552826D01*
X106433898Y-64552825D01*
X106376000Y-64544500D01*
X96872944Y-64544500D01*
X96869713Y-64544840D01*
X96869701Y-64544841D01*
X96833353Y-64548671D01*
X96833347Y-64548671D01*
X96830119Y-64549012D01*
X96826947Y-64549687D01*
X96826946Y-64549688D01*
X96779573Y-64559782D01*
X96778162Y-64560108D01*
X96770257Y-64561989D01*
X96689156Y-64604319D01*
X96674083Y-64617156D01*
X96635965Y-64649619D01*
X96634615Y-64650919D01*
X96634591Y-64650941D01*
X96617856Y-64667060D01*
X96572530Y-64746494D01*
X96552275Y-64813357D01*
X96543456Y-64871187D01*
X96531420Y-66279500D01*
X96529679Y-66483244D01*
X96520502Y-67556944D01*
X96520332Y-67576787D01*
X96512585Y-68483244D01*
X96510814Y-68690500D01*
X96395562Y-82175000D01*
X96363143Y-85967992D01*
X96325736Y-90344500D01*
X96323995Y-90548244D01*
X96314819Y-91621944D01*
X96314649Y-91641787D01*
X96296957Y-93711783D01*
X96295577Y-93873184D01*
X88100500Y-93873184D01*
X88100500Y-60995000D01*
X97365000Y-60995000D01*
X97365000Y-61929518D01*
X97365354Y-61936132D01*
X97371400Y-61992371D01*
X97421647Y-62127089D01*
X97507811Y-62242188D01*
X97622910Y-62328352D01*
X97757628Y-62378599D01*
X97813867Y-62384645D01*
X97820482Y-62385000D01*
X98580000Y-62385000D01*
X98580000Y-60995000D01*
X100580000Y-60995000D01*
X100580000Y-62385000D01*
X101760000Y-62385000D01*
X101760000Y-60995000D01*
X103760000Y-60995000D01*
X103760000Y-62385000D01*
X104519518Y-62385000D01*
X104526132Y-62384645D01*
X104582371Y-62378599D01*
X104717089Y-62328352D01*
X104832188Y-62242188D01*
X104918352Y-62127089D01*
X104968599Y-61992371D01*
X104974645Y-61936132D01*
X104975000Y-61929518D01*
X104975000Y-60995000D01*
X103760000Y-60995000D01*
X101760000Y-60995000D01*
X100580000Y-60995000D01*
X98580000Y-60995000D01*
X97365000Y-60995000D01*
X88100500Y-60995000D01*
X88100500Y-60088543D01*
X98690000Y-60088543D01*
X98728898Y-60271540D01*
X98804992Y-60442451D01*
X98914958Y-60593806D01*
X99053990Y-60718991D01*
X99216011Y-60812534D01*
X99393939Y-60870346D01*
X99533361Y-60885000D01*
X99626639Y-60885000D01*
X99766061Y-60870346D01*
X99943989Y-60812534D01*
X100106010Y-60718991D01*
X100245042Y-60593806D01*
X100355008Y-60442451D01*
X100431102Y-60271540D01*
X100470000Y-60088543D01*
X101870000Y-60088543D01*
X101908898Y-60271540D01*
X101984992Y-60442451D01*
X102094958Y-60593806D01*
X102233990Y-60718991D01*
X102396011Y-60812534D01*
X102573939Y-60870346D01*
X102713361Y-60885000D01*
X102806639Y-60885000D01*
X102946061Y-60870346D01*
X103123989Y-60812534D01*
X103286010Y-60718991D01*
X103425042Y-60593806D01*
X103535008Y-60442451D01*
X103611102Y-60271540D01*
X103650000Y-60088543D01*
X103650000Y-59901457D01*
X103611102Y-59718460D01*
X103535008Y-59547549D01*
X103425042Y-59396194D01*
X103286010Y-59271009D01*
X103123989Y-59177466D01*
X102946061Y-59119654D01*
X102806639Y-59105000D01*
X102713361Y-59105000D01*
X102573939Y-59119654D01*
X102396011Y-59177466D01*
X102233990Y-59271009D01*
X102094958Y-59396194D01*
X101984992Y-59547549D01*
X101908898Y-59718460D01*
X101870000Y-59901457D01*
X101870000Y-60088543D01*
X100470000Y-60088543D01*
X100470000Y-59901457D01*
X100431102Y-59718460D01*
X100355008Y-59547549D01*
X100245042Y-59396194D01*
X100106010Y-59271009D01*
X99943989Y-59177466D01*
X99766061Y-59119654D01*
X99626639Y-59105000D01*
X99533361Y-59105000D01*
X99393939Y-59119654D01*
X99216011Y-59177466D01*
X99053990Y-59271009D01*
X98914958Y-59396194D01*
X98804992Y-59547549D01*
X98728898Y-59718460D01*
X98690000Y-59901457D01*
X98690000Y-60088543D01*
X88100500Y-60088543D01*
X88100500Y-58995000D01*
X97365000Y-58995000D01*
X98580000Y-58995000D01*
X98580000Y-57605000D01*
X100580000Y-57605000D01*
X100580000Y-58995000D01*
X101760000Y-58995000D01*
X101760000Y-57605000D01*
X103760000Y-57605000D01*
X103760000Y-58995000D01*
X104975000Y-58995000D01*
X104975000Y-58060481D01*
X104974645Y-58053867D01*
X104968599Y-57997628D01*
X104918352Y-57862910D01*
X104832188Y-57747811D01*
X104717089Y-57661647D01*
X104582371Y-57611400D01*
X104526132Y-57605354D01*
X104519518Y-57605000D01*
X103760000Y-57605000D01*
X101760000Y-57605000D01*
X100580000Y-57605000D01*
X98580000Y-57605000D01*
X97820482Y-57605000D01*
X97813867Y-57605354D01*
X97757628Y-57611400D01*
X97622910Y-57661647D01*
X97507811Y-57747811D01*
X97421647Y-57862910D01*
X97371400Y-57997628D01*
X97365354Y-58053867D01*
X97365000Y-58060481D01*
X97365000Y-58995000D01*
X88100500Y-58995000D01*
X88100500Y-51106491D01*
X123659500Y-51106491D01*
X123698373Y-51289382D01*
X123774427Y-51460202D01*
X123884329Y-51611469D01*
X124023284Y-51736585D01*
X124185214Y-51830075D01*
X124270803Y-51857884D01*
X124363044Y-51887855D01*
X124502380Y-51902500D01*
X124505622Y-51902500D01*
X124592378Y-51902500D01*
X124595620Y-51902500D01*
X124734956Y-51887855D01*
X124912785Y-51830075D01*
X125074715Y-51736585D01*
X125103910Y-51710298D01*
X131299000Y-51710298D01*
X131299000Y-52223000D01*
X131700423Y-52223000D01*
X131700423Y-52222999D01*
X131626399Y-52069287D01*
X131494144Y-51887254D01*
X131331508Y-51731758D01*
X131299000Y-51710298D01*
X125103910Y-51710298D01*
X125213669Y-51611470D01*
X125323573Y-51460200D01*
X125399625Y-51289385D01*
X125438500Y-51106491D01*
X132659500Y-51106491D01*
X132698373Y-51289382D01*
X132774427Y-51460202D01*
X132884329Y-51611469D01*
X133023284Y-51736585D01*
X133185214Y-51830075D01*
X133270803Y-51857884D01*
X133363044Y-51887855D01*
X133502380Y-51902500D01*
X133505622Y-51902500D01*
X133592378Y-51902500D01*
X133595620Y-51902500D01*
X133734956Y-51887855D01*
X133912785Y-51830075D01*
X134074715Y-51736585D01*
X134213669Y-51611470D01*
X134323573Y-51460200D01*
X134399625Y-51289385D01*
X134438500Y-51106490D01*
X134438500Y-50919510D01*
X134438500Y-50919508D01*
X134399626Y-50736617D01*
X134323572Y-50565797D01*
X134213670Y-50414530D01*
X134074715Y-50289414D01*
X133912785Y-50195924D01*
X133734957Y-50138145D01*
X133598840Y-50123838D01*
X133598831Y-50123837D01*
X133595620Y-50123500D01*
X133502380Y-50123500D01*
X133499169Y-50123837D01*
X133499159Y-50123838D01*
X133363042Y-50138145D01*
X133185214Y-50195924D01*
X133023284Y-50289414D01*
X132884329Y-50414530D01*
X132774427Y-50565797D01*
X132698373Y-50736617D01*
X132659500Y-50919508D01*
X132659500Y-51106491D01*
X125438500Y-51106491D01*
X125438500Y-51106490D01*
X125438500Y-50919510D01*
X125438500Y-50919508D01*
X125399626Y-50736617D01*
X125323572Y-50565797D01*
X125213670Y-50414530D01*
X125074715Y-50289414D01*
X124912785Y-50195924D01*
X124734957Y-50138145D01*
X124598840Y-50123838D01*
X124598831Y-50123837D01*
X124595620Y-50123500D01*
X124502380Y-50123500D01*
X124499169Y-50123837D01*
X124499159Y-50123838D01*
X124363042Y-50138145D01*
X124185214Y-50195924D01*
X124023284Y-50289414D01*
X123884329Y-50414530D01*
X123774427Y-50565797D01*
X123698373Y-50736617D01*
X123659500Y-50919508D01*
X123659500Y-51106491D01*
X88100500Y-51106491D01*
X88100500Y-48131482D01*
X91245500Y-48131482D01*
X91284691Y-48391507D01*
X91362202Y-48642787D01*
X91476296Y-48879707D01*
X91476297Y-48879709D01*
X91476298Y-48879710D01*
X91624430Y-49096980D01*
X91803290Y-49289746D01*
X92008883Y-49453701D01*
X92236616Y-49585183D01*
X92481402Y-49681254D01*
X92737772Y-49739769D01*
X92934346Y-49754500D01*
X92936663Y-49754500D01*
X93063337Y-49754500D01*
X93065654Y-49754500D01*
X93262228Y-49739769D01*
X93518598Y-49681254D01*
X93763384Y-49585183D01*
X93991117Y-49453701D01*
X94196710Y-49289746D01*
X94375570Y-49096980D01*
X94523702Y-48879710D01*
X94637798Y-48642788D01*
X94715308Y-48391508D01*
X94754500Y-48131482D01*
X163245500Y-48131482D01*
X163284691Y-48391507D01*
X163362202Y-48642787D01*
X163476296Y-48879707D01*
X163476297Y-48879709D01*
X163476298Y-48879710D01*
X163624430Y-49096980D01*
X163803290Y-49289746D01*
X164008883Y-49453701D01*
X164236616Y-49585183D01*
X164481402Y-49681254D01*
X164737772Y-49739769D01*
X164934346Y-49754500D01*
X164936663Y-49754500D01*
X165063337Y-49754500D01*
X165065654Y-49754500D01*
X165262228Y-49739769D01*
X165518598Y-49681254D01*
X165763384Y-49585183D01*
X165991117Y-49453701D01*
X166196710Y-49289746D01*
X166375570Y-49096980D01*
X166523702Y-48879710D01*
X166637798Y-48642788D01*
X166715308Y-48391508D01*
X166754500Y-48131482D01*
X166754500Y-47868518D01*
X166715308Y-47608492D01*
X166637798Y-47357212D01*
X166523702Y-47120290D01*
X166375570Y-46903020D01*
X166196710Y-46710254D01*
X165991117Y-46546299D01*
X165991116Y-46546298D01*
X165763382Y-46414816D01*
X165518600Y-46318746D01*
X165262225Y-46260230D01*
X165067968Y-46245673D01*
X165067957Y-46245672D01*
X165065654Y-46245500D01*
X164934346Y-46245500D01*
X164932043Y-46245672D01*
X164932031Y-46245673D01*
X164737774Y-46260230D01*
X164481399Y-46318746D01*
X164236617Y-46414816D01*
X164008883Y-46546298D01*
X163803290Y-46710253D01*
X163624431Y-46903018D01*
X163476296Y-47120292D01*
X163362202Y-47357212D01*
X163284691Y-47608492D01*
X163245500Y-47868517D01*
X163245500Y-48131482D01*
X94754500Y-48131482D01*
X94754500Y-47868518D01*
X94715308Y-47608492D01*
X94637798Y-47357212D01*
X94523702Y-47120290D01*
X94375570Y-46903020D01*
X94196710Y-46710254D01*
X93991117Y-46546299D01*
X93991116Y-46546298D01*
X93763382Y-46414816D01*
X93518600Y-46318746D01*
X93262225Y-46260230D01*
X93067968Y-46245673D01*
X93067957Y-46245672D01*
X93065654Y-46245500D01*
X92934346Y-46245500D01*
X92932043Y-46245672D01*
X92932031Y-46245673D01*
X92737774Y-46260230D01*
X92481399Y-46318746D01*
X92236617Y-46414816D01*
X92008883Y-46546298D01*
X91803290Y-46710253D01*
X91624431Y-46903018D01*
X91476296Y-47120292D01*
X91362202Y-47357212D01*
X91284691Y-47608492D01*
X91245500Y-47868517D01*
X91245500Y-48131482D01*
X88100500Y-48131482D01*
X88100500Y-48002705D01*
X88100618Y-47997296D01*
X88101195Y-47984083D01*
X88118908Y-47578363D01*
X88119848Y-47567631D01*
X88174229Y-47154565D01*
X88176101Y-47143946D01*
X88266279Y-46737177D01*
X88269066Y-46726777D01*
X88394355Y-46329410D01*
X88398039Y-46319289D01*
X88557480Y-45934365D01*
X88562038Y-45924591D01*
X88754412Y-45555045D01*
X88759807Y-45545700D01*
X88983665Y-45194313D01*
X88989855Y-45185473D01*
X89243478Y-44854945D01*
X89250416Y-44846676D01*
X89531883Y-44539509D01*
X89539509Y-44531883D01*
X89846676Y-44250416D01*
X89854945Y-44243478D01*
X90185473Y-43989855D01*
X90194313Y-43983665D01*
X90545700Y-43759807D01*
X90555045Y-43754412D01*
X90924591Y-43562038D01*
X90934365Y-43557480D01*
X91319289Y-43398039D01*
X91329410Y-43394355D01*
X91726777Y-43269066D01*
X91737177Y-43266279D01*
X92143946Y-43176101D01*
X92154565Y-43174229D01*
X92567631Y-43119848D01*
X92578365Y-43118908D01*
X92984694Y-43101168D01*
X92997298Y-43100618D01*
X93002706Y-43100500D01*
X93026929Y-43100500D01*
X164973071Y-43100500D01*
X164997294Y-43100500D01*
X165002702Y-43100617D01*
G37*
%TD.AperFunction*%
%TA.AperFunction,Conductor*%
G36*
X121503039Y-71314685D02*
G01*
X121548794Y-71367489D01*
X121560000Y-71419000D01*
X121560000Y-71794551D01*
X121540315Y-71861590D01*
X121487511Y-71907345D01*
X121418353Y-71917289D01*
X121371211Y-71900279D01*
X121242445Y-71821372D01*
X121018133Y-71728458D01*
X120782047Y-71671779D01*
X120539999Y-71652730D01*
X120416649Y-71662437D01*
X120557435Y-71803222D01*
X120557441Y-71803227D01*
X121560000Y-72805786D01*
X121560000Y-73594212D01*
X120576320Y-74577894D01*
X120576315Y-74577896D01*
X120416649Y-74737561D01*
X120540000Y-74747269D01*
X120782047Y-74728220D01*
X121018133Y-74671541D01*
X121242447Y-74578626D01*
X121371210Y-74499721D01*
X121438656Y-74481476D01*
X121505258Y-74502592D01*
X121549872Y-74556364D01*
X121560000Y-74605448D01*
X121560000Y-76375000D01*
X129430000Y-76375000D01*
X129430000Y-73199999D01*
X131057730Y-73199999D01*
X131067437Y-73323349D01*
X131106398Y-73284388D01*
X131910000Y-73284388D01*
X131950390Y-73448261D01*
X132028825Y-73597705D01*
X132140745Y-73724036D01*
X132279645Y-73819912D01*
X132437454Y-73879761D01*
X132562957Y-73895000D01*
X132647043Y-73895000D01*
X132772546Y-73879761D01*
X132930355Y-73819912D01*
X133069255Y-73724036D01*
X133181175Y-73597705D01*
X133259610Y-73448261D01*
X133300000Y-73284388D01*
X133300000Y-73115612D01*
X133259610Y-72951739D01*
X133181175Y-72802295D01*
X133069255Y-72675964D01*
X132930355Y-72580088D01*
X132772546Y-72520239D01*
X132647043Y-72505000D01*
X132562957Y-72505000D01*
X132437454Y-72520239D01*
X132279645Y-72580088D01*
X132140745Y-72675964D01*
X132028825Y-72802295D01*
X131950390Y-72951739D01*
X131910000Y-73115612D01*
X131910000Y-73284388D01*
X131106398Y-73284388D01*
X131190786Y-73200001D01*
X131190786Y-73200000D01*
X131067437Y-73076651D01*
X131057730Y-73199999D01*
X129430000Y-73199999D01*
X129430000Y-71419000D01*
X129449685Y-71351961D01*
X129502489Y-71306206D01*
X129554000Y-71295000D01*
X133501000Y-71295000D01*
X133568039Y-71314685D01*
X133613794Y-71367489D01*
X133625000Y-71419000D01*
X133624999Y-71794551D01*
X133605314Y-71861591D01*
X133552510Y-71907346D01*
X133483352Y-71917289D01*
X133436209Y-71900278D01*
X133307447Y-71821373D01*
X133083133Y-71728458D01*
X132847047Y-71671779D01*
X132604999Y-71652730D01*
X132481649Y-71662437D01*
X132622435Y-71803222D01*
X132622441Y-71803227D01*
X133109752Y-72290538D01*
X133624999Y-72805785D01*
X133625000Y-73594212D01*
X132641320Y-74577894D01*
X132641315Y-74577896D01*
X132481649Y-74737561D01*
X132605000Y-74747269D01*
X132847047Y-74728220D01*
X133083133Y-74671541D01*
X133307447Y-74578627D01*
X133436209Y-74499721D01*
X133503654Y-74481476D01*
X133570257Y-74502592D01*
X133614871Y-74556364D01*
X133624999Y-74605448D01*
X133625000Y-77626000D01*
X133605315Y-77693039D01*
X133552511Y-77738794D01*
X133501000Y-77750000D01*
X128160000Y-77750000D01*
X128160000Y-86411000D01*
X128140315Y-86478039D01*
X128087511Y-86523794D01*
X128036000Y-86535000D01*
X125080785Y-86535000D01*
X125069105Y-86523320D01*
X125069102Y-86523315D01*
X124590001Y-86044214D01*
X124590000Y-86044214D01*
X124110897Y-86523314D01*
X124110893Y-86523320D01*
X124099213Y-86535000D01*
X121300063Y-86535000D01*
X121233024Y-86515315D01*
X121187269Y-86462511D01*
X121176068Y-86409941D01*
X121191264Y-84630000D01*
X122695171Y-84630000D01*
X122714459Y-84899665D01*
X122748702Y-85057081D01*
X122748702Y-85057082D01*
X123082242Y-84723543D01*
X123700000Y-84723543D01*
X123738898Y-84906540D01*
X123814992Y-85077451D01*
X123924958Y-85228806D01*
X124063990Y-85353991D01*
X124226011Y-85447534D01*
X124403939Y-85505346D01*
X124543361Y-85520000D01*
X124636639Y-85520000D01*
X124776061Y-85505346D01*
X124953989Y-85447534D01*
X125116010Y-85353991D01*
X125255042Y-85228806D01*
X125365008Y-85077451D01*
X125441102Y-84906540D01*
X125480000Y-84723543D01*
X125480000Y-84629999D01*
X126004214Y-84629999D01*
X126431295Y-85057082D01*
X126431296Y-85057082D01*
X126465540Y-84899663D01*
X126484828Y-84630000D01*
X126465540Y-84360336D01*
X126431295Y-84202917D01*
X126431295Y-84202916D01*
X126004214Y-84629998D01*
X126004214Y-84629999D01*
X125480000Y-84629999D01*
X125480000Y-84536457D01*
X125441102Y-84353460D01*
X125365008Y-84182549D01*
X125255042Y-84031194D01*
X125116010Y-83906009D01*
X124953989Y-83812466D01*
X124776061Y-83754654D01*
X124636639Y-83740000D01*
X124543361Y-83740000D01*
X124403939Y-83754654D01*
X124226011Y-83812466D01*
X124063990Y-83906009D01*
X123924958Y-84031194D01*
X123814992Y-84182549D01*
X123738898Y-84353460D01*
X123700000Y-84536457D01*
X123700000Y-84723543D01*
X123082242Y-84723543D01*
X123175785Y-84630000D01*
X123175784Y-84629999D01*
X122748703Y-84202916D01*
X122748702Y-84202917D01*
X122714459Y-84360334D01*
X122695171Y-84630000D01*
X121191264Y-84630000D01*
X121205777Y-82930000D01*
X124304214Y-82930000D01*
X124590000Y-83215786D01*
X124875786Y-82930000D01*
X124590000Y-82644214D01*
X124304214Y-82930000D01*
X121205777Y-82930000D01*
X121220290Y-81230000D01*
X122695171Y-81230000D01*
X122714459Y-81499665D01*
X122748702Y-81657081D01*
X122748703Y-81657082D01*
X123082243Y-81323543D01*
X123700000Y-81323543D01*
X123738898Y-81506540D01*
X123814992Y-81677451D01*
X123924958Y-81828806D01*
X124063990Y-81953991D01*
X124226011Y-82047534D01*
X124403939Y-82105346D01*
X124543361Y-82120000D01*
X124636639Y-82120000D01*
X124776061Y-82105346D01*
X124953989Y-82047534D01*
X125116010Y-81953991D01*
X125255042Y-81828806D01*
X125365008Y-81677451D01*
X125441102Y-81506540D01*
X125480000Y-81323543D01*
X125480000Y-81230001D01*
X126004214Y-81230001D01*
X126431295Y-81657082D01*
X126431296Y-81657081D01*
X126465540Y-81499663D01*
X126484828Y-81230000D01*
X126465540Y-80960336D01*
X126431295Y-80802917D01*
X126431295Y-80802916D01*
X126004214Y-81229999D01*
X126004214Y-81230001D01*
X125480000Y-81230001D01*
X125480000Y-81136457D01*
X125441102Y-80953460D01*
X125365008Y-80782549D01*
X125255042Y-80631194D01*
X125116010Y-80506009D01*
X124953989Y-80412466D01*
X124776061Y-80354654D01*
X124636639Y-80340000D01*
X124543361Y-80340000D01*
X124403939Y-80354654D01*
X124226011Y-80412466D01*
X124063990Y-80506009D01*
X123924958Y-80631194D01*
X123814992Y-80782549D01*
X123738898Y-80953460D01*
X123700000Y-81136457D01*
X123700000Y-81323543D01*
X123082243Y-81323543D01*
X123175786Y-81230000D01*
X122748702Y-80802916D01*
X122748702Y-80802917D01*
X122714459Y-80960334D01*
X122695171Y-81230000D01*
X121220290Y-81230000D01*
X121236010Y-79388702D01*
X124162916Y-79388702D01*
X124590000Y-79815786D01*
X124590001Y-79815786D01*
X125017082Y-79388703D01*
X125017081Y-79388702D01*
X124859665Y-79354459D01*
X124590000Y-79335171D01*
X124320334Y-79354459D01*
X124162917Y-79388702D01*
X124162916Y-79388702D01*
X121236010Y-79388702D01*
X121250000Y-77750000D01*
X117621434Y-77750000D01*
X117554395Y-77730315D01*
X117508640Y-77677511D01*
X117497461Y-77628593D01*
X117404842Y-73199999D01*
X118992730Y-73199999D01*
X119002437Y-73323349D01*
X119041398Y-73284388D01*
X119845000Y-73284388D01*
X119885390Y-73448261D01*
X119963825Y-73597705D01*
X120075745Y-73724036D01*
X120214645Y-73819912D01*
X120372454Y-73879761D01*
X120497957Y-73895000D01*
X120582043Y-73895000D01*
X120707546Y-73879761D01*
X120865355Y-73819912D01*
X121004255Y-73724036D01*
X121116175Y-73597705D01*
X121194610Y-73448261D01*
X121235000Y-73284388D01*
X121235000Y-73115612D01*
X121194610Y-72951739D01*
X121116175Y-72802295D01*
X121004255Y-72675964D01*
X120865355Y-72580088D01*
X120707546Y-72520239D01*
X120582043Y-72505000D01*
X120497957Y-72505000D01*
X120372454Y-72520239D01*
X120214645Y-72580088D01*
X120075745Y-72675964D01*
X119963825Y-72802295D01*
X119885390Y-72951739D01*
X119845000Y-73115612D01*
X119845000Y-73284388D01*
X119041398Y-73284388D01*
X119125786Y-73200001D01*
X119125786Y-73200000D01*
X119002437Y-73076651D01*
X118992730Y-73199999D01*
X117404842Y-73199999D01*
X117367648Y-71421593D01*
X117385927Y-71354156D01*
X117437762Y-71307307D01*
X117491621Y-71295000D01*
X121436000Y-71295000D01*
X121503039Y-71314685D01*
G37*
%TD.AperFunction*%
%TA.AperFunction,Conductor*%
G36*
X161758039Y-78934685D02*
G01*
X161803794Y-78987489D01*
X161815000Y-79039000D01*
X161815000Y-87046000D01*
X161795315Y-87113039D01*
X161742511Y-87158794D01*
X161691000Y-87170000D01*
X131459000Y-87170000D01*
X131391961Y-87150315D01*
X131346206Y-87097511D01*
X131335000Y-87046000D01*
X131335000Y-86471295D01*
X134082916Y-86471295D01*
X134240336Y-86505540D01*
X134509999Y-86524828D01*
X134779663Y-86505540D01*
X134937081Y-86471296D01*
X134937082Y-86471295D01*
X134510001Y-86044214D01*
X134510000Y-86044214D01*
X134082916Y-86471295D01*
X131335000Y-86471295D01*
X131335000Y-84630000D01*
X132615171Y-84630000D01*
X132634459Y-84899665D01*
X132668702Y-85057081D01*
X132668703Y-85057082D01*
X133002243Y-84723543D01*
X133620000Y-84723543D01*
X133658898Y-84906540D01*
X133734992Y-85077451D01*
X133844958Y-85228806D01*
X133983990Y-85353991D01*
X134146011Y-85447534D01*
X134323939Y-85505346D01*
X134463361Y-85520000D01*
X134556639Y-85520000D01*
X134696061Y-85505346D01*
X134873989Y-85447534D01*
X135036010Y-85353991D01*
X135175042Y-85228806D01*
X135285008Y-85077451D01*
X135292778Y-85060000D01*
X153250000Y-85060000D01*
X153250000Y-85994518D01*
X153250354Y-86001132D01*
X153256400Y-86057371D01*
X153306647Y-86192089D01*
X153392811Y-86307188D01*
X153507910Y-86393352D01*
X153642628Y-86443599D01*
X153698867Y-86449645D01*
X153705482Y-86450000D01*
X154465000Y-86450000D01*
X154465000Y-85060000D01*
X156465000Y-85060000D01*
X156465000Y-86450000D01*
X157645000Y-86450000D01*
X157645000Y-85060000D01*
X159645000Y-85060000D01*
X159645000Y-86450000D01*
X160404518Y-86450000D01*
X160411132Y-86449645D01*
X160467371Y-86443599D01*
X160602089Y-86393352D01*
X160717188Y-86307188D01*
X160803352Y-86192089D01*
X160853599Y-86057371D01*
X160859645Y-86001132D01*
X160860000Y-85994518D01*
X160860000Y-85060000D01*
X159645000Y-85060000D01*
X157645000Y-85060000D01*
X156465000Y-85060000D01*
X154465000Y-85060000D01*
X153250000Y-85060000D01*
X135292778Y-85060000D01*
X135361102Y-84906540D01*
X135400000Y-84723543D01*
X135400000Y-84630001D01*
X135924214Y-84630001D01*
X136351295Y-85057082D01*
X136351296Y-85057081D01*
X136385540Y-84899663D01*
X136404828Y-84630000D01*
X136385540Y-84360336D01*
X136351295Y-84202917D01*
X136351295Y-84202916D01*
X135924214Y-84629999D01*
X135924214Y-84630001D01*
X135400000Y-84630001D01*
X135400000Y-84536457D01*
X135361102Y-84353460D01*
X135285008Y-84182549D01*
X135263934Y-84153543D01*
X154575000Y-84153543D01*
X154613898Y-84336540D01*
X154689992Y-84507451D01*
X154799958Y-84658806D01*
X154938990Y-84783991D01*
X155101011Y-84877534D01*
X155278939Y-84935346D01*
X155418361Y-84950000D01*
X155511639Y-84950000D01*
X155651061Y-84935346D01*
X155828989Y-84877534D01*
X155991010Y-84783991D01*
X156130042Y-84658806D01*
X156240008Y-84507451D01*
X156316102Y-84336540D01*
X156355000Y-84153543D01*
X157755000Y-84153543D01*
X157793898Y-84336540D01*
X157869992Y-84507451D01*
X157979958Y-84658806D01*
X158118990Y-84783991D01*
X158281011Y-84877534D01*
X158458939Y-84935346D01*
X158598361Y-84950000D01*
X158691639Y-84950000D01*
X158831061Y-84935346D01*
X159008989Y-84877534D01*
X159171010Y-84783991D01*
X159310042Y-84658806D01*
X159420008Y-84507451D01*
X159496102Y-84336540D01*
X159535000Y-84153543D01*
X159535000Y-83966457D01*
X159496102Y-83783460D01*
X159420008Y-83612549D01*
X159310042Y-83461194D01*
X159171010Y-83336009D01*
X159008989Y-83242466D01*
X158831061Y-83184654D01*
X158691639Y-83170000D01*
X158598361Y-83170000D01*
X158458939Y-83184654D01*
X158281011Y-83242466D01*
X158118990Y-83336009D01*
X157979958Y-83461194D01*
X157869992Y-83612549D01*
X157793898Y-83783460D01*
X157755000Y-83966457D01*
X157755000Y-84153543D01*
X156355000Y-84153543D01*
X156355000Y-83966457D01*
X156316102Y-83783460D01*
X156240008Y-83612549D01*
X156130042Y-83461194D01*
X155991010Y-83336009D01*
X155828989Y-83242466D01*
X155651061Y-83184654D01*
X155511639Y-83170000D01*
X155418361Y-83170000D01*
X155278939Y-83184654D01*
X155101011Y-83242466D01*
X154938990Y-83336009D01*
X154799958Y-83461194D01*
X154689992Y-83612549D01*
X154613898Y-83783460D01*
X154575000Y-83966457D01*
X154575000Y-84153543D01*
X135263934Y-84153543D01*
X135175042Y-84031194D01*
X135036010Y-83906009D01*
X134873989Y-83812466D01*
X134696061Y-83754654D01*
X134556639Y-83740000D01*
X134463361Y-83740000D01*
X134323939Y-83754654D01*
X134146011Y-83812466D01*
X133983990Y-83906009D01*
X133844958Y-84031194D01*
X133734992Y-84182549D01*
X133658898Y-84353460D01*
X133620000Y-84536457D01*
X133620000Y-84723543D01*
X133002243Y-84723543D01*
X133095786Y-84630000D01*
X132668702Y-84202916D01*
X132668702Y-84202917D01*
X132634459Y-84360334D01*
X132615171Y-84630000D01*
X131335000Y-84630000D01*
X131335000Y-82930000D01*
X134224214Y-82930000D01*
X134510000Y-83215786D01*
X134665786Y-83060000D01*
X153250000Y-83060000D01*
X154465000Y-83060000D01*
X154465000Y-81670000D01*
X156465000Y-81670000D01*
X156465000Y-83060000D01*
X157645000Y-83060000D01*
X157645000Y-81670000D01*
X159645000Y-81670000D01*
X159645000Y-83060000D01*
X160860000Y-83060000D01*
X160860000Y-82125481D01*
X160859645Y-82118867D01*
X160853599Y-82062628D01*
X160803352Y-81927910D01*
X160717188Y-81812811D01*
X160602089Y-81726647D01*
X160467371Y-81676400D01*
X160411132Y-81670354D01*
X160404518Y-81670000D01*
X159645000Y-81670000D01*
X157645000Y-81670000D01*
X156465000Y-81670000D01*
X154465000Y-81670000D01*
X153705482Y-81670000D01*
X153698867Y-81670354D01*
X153642628Y-81676400D01*
X153507910Y-81726647D01*
X153392811Y-81812811D01*
X153306647Y-81927910D01*
X153256400Y-82062628D01*
X153250354Y-82118867D01*
X153250000Y-82125481D01*
X153250000Y-83060000D01*
X134665786Y-83060000D01*
X134795786Y-82930000D01*
X134510000Y-82644214D01*
X134224214Y-82930000D01*
X131335000Y-82930000D01*
X131335000Y-81230000D01*
X132615171Y-81230000D01*
X132634459Y-81499665D01*
X132668702Y-81657081D01*
X132668703Y-81657082D01*
X133002243Y-81323543D01*
X133620000Y-81323543D01*
X133658898Y-81506540D01*
X133734992Y-81677451D01*
X133844958Y-81828806D01*
X133983990Y-81953991D01*
X134146011Y-82047534D01*
X134323939Y-82105346D01*
X134463361Y-82120000D01*
X134556639Y-82120000D01*
X134696061Y-82105346D01*
X134873989Y-82047534D01*
X135036010Y-81953991D01*
X135175042Y-81828806D01*
X135285008Y-81677451D01*
X135361102Y-81506540D01*
X135400000Y-81323543D01*
X135400000Y-81230001D01*
X135924214Y-81230001D01*
X136351295Y-81657082D01*
X136351296Y-81657081D01*
X136385540Y-81499663D01*
X136404828Y-81230000D01*
X136385874Y-80965000D01*
X138612737Y-80965000D01*
X138635641Y-81034121D01*
X138727684Y-81183346D01*
X138851654Y-81307316D01*
X139000877Y-81399357D01*
X139167303Y-81454506D01*
X139266890Y-81464680D01*
X139273168Y-81464999D01*
X139844999Y-81464999D01*
X139845000Y-81464998D01*
X139845000Y-80965000D01*
X140995000Y-80965000D01*
X140995000Y-81464999D01*
X141566829Y-81464999D01*
X141573111Y-81464678D01*
X141672695Y-81454506D01*
X141839122Y-81399357D01*
X141988345Y-81307316D01*
X142112315Y-81183346D01*
X142204358Y-81034121D01*
X142227263Y-80965000D01*
X142862737Y-80965000D01*
X142885641Y-81034121D01*
X142977684Y-81183346D01*
X143101654Y-81307316D01*
X143250877Y-81399357D01*
X143417303Y-81454506D01*
X143516890Y-81464680D01*
X143523168Y-81464999D01*
X144094999Y-81464999D01*
X144095000Y-81464998D01*
X144095000Y-80965000D01*
X145245000Y-80965000D01*
X145245000Y-81464999D01*
X145816829Y-81464999D01*
X145823111Y-81464678D01*
X145922695Y-81454506D01*
X146089122Y-81399357D01*
X146238345Y-81307316D01*
X146362315Y-81183346D01*
X146454358Y-81034121D01*
X146477263Y-80965000D01*
X147112737Y-80965000D01*
X147135641Y-81034121D01*
X147227684Y-81183346D01*
X147351654Y-81307316D01*
X147500877Y-81399357D01*
X147667303Y-81454506D01*
X147766890Y-81464680D01*
X147773168Y-81464999D01*
X148344999Y-81464999D01*
X148345000Y-81464998D01*
X148345000Y-80965000D01*
X149495000Y-80965000D01*
X149495000Y-81464999D01*
X150066829Y-81464999D01*
X150073111Y-81464678D01*
X150172695Y-81454506D01*
X150339122Y-81399357D01*
X150488345Y-81307316D01*
X150612315Y-81183346D01*
X150704358Y-81034121D01*
X150727263Y-80965000D01*
X149495000Y-80965000D01*
X148345000Y-80965000D01*
X147112737Y-80965000D01*
X146477263Y-80965000D01*
X145245000Y-80965000D01*
X144095000Y-80965000D01*
X142862737Y-80965000D01*
X142227263Y-80965000D01*
X140995000Y-80965000D01*
X139845000Y-80965000D01*
X138612737Y-80965000D01*
X136385874Y-80965000D01*
X136385540Y-80960336D01*
X136351295Y-80802917D01*
X136351295Y-80802916D01*
X135924214Y-81229999D01*
X135924214Y-81230001D01*
X135400000Y-81230001D01*
X135400000Y-81136457D01*
X135361102Y-80953460D01*
X135285008Y-80782549D01*
X135175042Y-80631194D01*
X135036010Y-80506009D01*
X134873989Y-80412466D01*
X134696061Y-80354654D01*
X134556639Y-80340000D01*
X134463361Y-80340000D01*
X134323939Y-80354654D01*
X134146011Y-80412466D01*
X133983990Y-80506009D01*
X133844958Y-80631194D01*
X133734992Y-80782549D01*
X133658898Y-80953460D01*
X133620000Y-81136457D01*
X133620000Y-81323543D01*
X133002243Y-81323543D01*
X133095786Y-81230000D01*
X132668702Y-80802916D01*
X132668702Y-80802917D01*
X132634459Y-80960334D01*
X132615171Y-81230000D01*
X131335000Y-81230000D01*
X131335000Y-79388702D01*
X134082916Y-79388702D01*
X134510000Y-79815786D01*
X134510001Y-79815786D01*
X134510787Y-79815000D01*
X138612737Y-79815000D01*
X139845000Y-79815000D01*
X139845000Y-79315000D01*
X140995000Y-79315000D01*
X140995000Y-79815000D01*
X142227262Y-79815000D01*
X142862737Y-79815000D01*
X144095000Y-79815000D01*
X144095000Y-79315000D01*
X145245000Y-79315000D01*
X145245000Y-79815000D01*
X146477262Y-79815000D01*
X147112737Y-79815000D01*
X148345000Y-79815000D01*
X148345000Y-79315000D01*
X149495000Y-79315000D01*
X149495000Y-79815000D01*
X150727262Y-79815000D01*
X150704358Y-79745878D01*
X150612315Y-79596653D01*
X150488345Y-79472683D01*
X150339122Y-79380642D01*
X150172696Y-79325493D01*
X150073109Y-79315319D01*
X150066832Y-79315000D01*
X149495000Y-79315000D01*
X148345000Y-79315000D01*
X147773171Y-79315000D01*
X147766888Y-79315321D01*
X147667304Y-79325493D01*
X147500877Y-79380642D01*
X147351654Y-79472683D01*
X147227684Y-79596653D01*
X147135641Y-79745878D01*
X147112737Y-79815000D01*
X146477262Y-79815000D01*
X146454358Y-79745878D01*
X146362315Y-79596653D01*
X146238345Y-79472683D01*
X146089122Y-79380642D01*
X145922696Y-79325493D01*
X145823109Y-79315319D01*
X145816832Y-79315000D01*
X145245000Y-79315000D01*
X144095000Y-79315000D01*
X143523171Y-79315000D01*
X143516888Y-79315321D01*
X143417304Y-79325493D01*
X143250877Y-79380642D01*
X143101654Y-79472683D01*
X142977684Y-79596653D01*
X142885641Y-79745878D01*
X142862737Y-79815000D01*
X142227262Y-79815000D01*
X142204358Y-79745878D01*
X142112315Y-79596653D01*
X141988345Y-79472683D01*
X141839122Y-79380642D01*
X141672696Y-79325493D01*
X141573109Y-79315319D01*
X141566832Y-79315000D01*
X140995000Y-79315000D01*
X139845000Y-79315000D01*
X139273171Y-79315000D01*
X139266888Y-79315321D01*
X139167304Y-79325493D01*
X139000877Y-79380642D01*
X138851654Y-79472683D01*
X138727684Y-79596653D01*
X138635641Y-79745878D01*
X138612737Y-79815000D01*
X134510787Y-79815000D01*
X134937082Y-79388703D01*
X134937081Y-79388702D01*
X134779665Y-79354459D01*
X134510000Y-79335171D01*
X134240334Y-79354459D01*
X134082917Y-79388702D01*
X134082916Y-79388702D01*
X131335000Y-79388702D01*
X131335000Y-79039000D01*
X131354685Y-78971961D01*
X131407489Y-78926206D01*
X131459000Y-78915000D01*
X161691000Y-78915000D01*
X161758039Y-78934685D01*
G37*
%TD.AperFunction*%
%TA.AperFunction,Conductor*%
G36*
X106443039Y-64769685D02*
G01*
X106488794Y-64822489D01*
X106500000Y-64874000D01*
X106500000Y-93876000D01*
X106480315Y-93943039D01*
X106427511Y-93988794D01*
X106376000Y-94000000D01*
X104928087Y-94000000D01*
X104861048Y-93980315D01*
X104815293Y-93927511D01*
X104805349Y-93858353D01*
X104828820Y-93801689D01*
X104918352Y-93682088D01*
X104968599Y-93547371D01*
X104974645Y-93491132D01*
X104975000Y-93484518D01*
X104975000Y-92550000D01*
X97365000Y-92550000D01*
X97365000Y-93484518D01*
X97365354Y-93491132D01*
X97371400Y-93547371D01*
X97421647Y-93682088D01*
X97511180Y-93801689D01*
X97535597Y-93867153D01*
X97520745Y-93935426D01*
X97471340Y-93984832D01*
X97411913Y-94000000D01*
X96625064Y-94000000D01*
X96558025Y-93980315D01*
X96512270Y-93927511D01*
X96501069Y-93874940D01*
X96520141Y-91643543D01*
X98690000Y-91643543D01*
X98728898Y-91826540D01*
X98804992Y-91997451D01*
X98914958Y-92148806D01*
X99053990Y-92273991D01*
X99216011Y-92367534D01*
X99393939Y-92425346D01*
X99533361Y-92440000D01*
X99626639Y-92440000D01*
X99766061Y-92425346D01*
X99943989Y-92367534D01*
X100106010Y-92273991D01*
X100245042Y-92148806D01*
X100355008Y-91997451D01*
X100431102Y-91826540D01*
X100470000Y-91643543D01*
X101870000Y-91643543D01*
X101908898Y-91826540D01*
X101984992Y-91997451D01*
X102094958Y-92148806D01*
X102233990Y-92273991D01*
X102396011Y-92367534D01*
X102573939Y-92425346D01*
X102713361Y-92440000D01*
X102806639Y-92440000D01*
X102946061Y-92425346D01*
X103123989Y-92367534D01*
X103286010Y-92273991D01*
X103425042Y-92148806D01*
X103535008Y-91997451D01*
X103611102Y-91826540D01*
X103650000Y-91643543D01*
X103650000Y-91456457D01*
X103611102Y-91273460D01*
X103535008Y-91102549D01*
X103425042Y-90951194D01*
X103286010Y-90826009D01*
X103123989Y-90732466D01*
X102946061Y-90674654D01*
X102806639Y-90660000D01*
X102713361Y-90660000D01*
X102573939Y-90674654D01*
X102396011Y-90732466D01*
X102233990Y-90826009D01*
X102094958Y-90951194D01*
X101984992Y-91102549D01*
X101908898Y-91273460D01*
X101870000Y-91456457D01*
X101870000Y-91643543D01*
X100470000Y-91643543D01*
X100470000Y-91456457D01*
X100431102Y-91273460D01*
X100355008Y-91102549D01*
X100245042Y-90951194D01*
X100106010Y-90826009D01*
X99943989Y-90732466D01*
X99766061Y-90674654D01*
X99626639Y-90660000D01*
X99533361Y-90660000D01*
X99393939Y-90674654D01*
X99216011Y-90732466D01*
X99053990Y-90826009D01*
X98914958Y-90951194D01*
X98804992Y-91102549D01*
X98728898Y-91273460D01*
X98690000Y-91456457D01*
X98690000Y-91643543D01*
X96520141Y-91643543D01*
X96529487Y-90550000D01*
X97365000Y-90550000D01*
X98580000Y-90550000D01*
X98580000Y-89160000D01*
X100580000Y-89160000D01*
X100580000Y-90550000D01*
X101760000Y-90550000D01*
X101760000Y-89160000D01*
X103760000Y-89160000D01*
X103760000Y-90550000D01*
X104975000Y-90550000D01*
X104975000Y-89615481D01*
X104974645Y-89608867D01*
X104968599Y-89552628D01*
X104918352Y-89417910D01*
X104832188Y-89302811D01*
X104717089Y-89216647D01*
X104582371Y-89166400D01*
X104526132Y-89160354D01*
X104519518Y-89160000D01*
X103760000Y-89160000D01*
X101760000Y-89160000D01*
X100580000Y-89160000D01*
X98580000Y-89160000D01*
X97820482Y-89160000D01*
X97813867Y-89160354D01*
X97757628Y-89166400D01*
X97622910Y-89216647D01*
X97507811Y-89302811D01*
X97421647Y-89417910D01*
X97371400Y-89552628D01*
X97365354Y-89608867D01*
X97365000Y-89615481D01*
X97365000Y-90550000D01*
X96529487Y-90550000D01*
X96568635Y-85969748D01*
X97664500Y-85969748D01*
X97676132Y-86028230D01*
X97720447Y-86094552D01*
X97786769Y-86138867D01*
X97845251Y-86150500D01*
X97845252Y-86150500D01*
X104494749Y-86150500D01*
X104523989Y-86144683D01*
X104553231Y-86138867D01*
X104619552Y-86094552D01*
X104663867Y-86028231D01*
X104675500Y-85969748D01*
X104675500Y-82150252D01*
X104663867Y-82091769D01*
X104619552Y-82025447D01*
X104553230Y-81981132D01*
X104494749Y-81969500D01*
X104494748Y-81969500D01*
X101314748Y-81969500D01*
X97845252Y-81969500D01*
X97845251Y-81969500D01*
X97786769Y-81981132D01*
X97720447Y-82025447D01*
X97676132Y-82091769D01*
X97664500Y-82150251D01*
X97664500Y-85969748D01*
X96568635Y-85969748D01*
X96602825Y-81969500D01*
X96718077Y-68485000D01*
X97365000Y-68485000D01*
X97365000Y-69419518D01*
X97365354Y-69426132D01*
X97371400Y-69482371D01*
X97421647Y-69617089D01*
X97507811Y-69732188D01*
X97622910Y-69818352D01*
X97757628Y-69868599D01*
X97813867Y-69874645D01*
X97820482Y-69875000D01*
X98580000Y-69875000D01*
X98580000Y-68485000D01*
X100580000Y-68485000D01*
X100580000Y-69875000D01*
X101760000Y-69875000D01*
X101760000Y-68485000D01*
X103760000Y-68485000D01*
X103760000Y-69875000D01*
X104519518Y-69875000D01*
X104526132Y-69874645D01*
X104582371Y-69868599D01*
X104717089Y-69818352D01*
X104832188Y-69732188D01*
X104918352Y-69617089D01*
X104968599Y-69482371D01*
X104974645Y-69426132D01*
X104975000Y-69419518D01*
X104975000Y-68485000D01*
X103760000Y-68485000D01*
X101760000Y-68485000D01*
X100580000Y-68485000D01*
X98580000Y-68485000D01*
X97365000Y-68485000D01*
X96718077Y-68485000D01*
X96725824Y-67578543D01*
X98690000Y-67578543D01*
X98728898Y-67761540D01*
X98804992Y-67932451D01*
X98914958Y-68083806D01*
X99053990Y-68208991D01*
X99216011Y-68302534D01*
X99393939Y-68360346D01*
X99533361Y-68375000D01*
X99626639Y-68375000D01*
X99766061Y-68360346D01*
X99943989Y-68302534D01*
X100106010Y-68208991D01*
X100245042Y-68083806D01*
X100355008Y-67932451D01*
X100431102Y-67761540D01*
X100470000Y-67578543D01*
X101870000Y-67578543D01*
X101908898Y-67761540D01*
X101984992Y-67932451D01*
X102094958Y-68083806D01*
X102233990Y-68208991D01*
X102396011Y-68302534D01*
X102573939Y-68360346D01*
X102713361Y-68375000D01*
X102806639Y-68375000D01*
X102946061Y-68360346D01*
X103123989Y-68302534D01*
X103286010Y-68208991D01*
X103425042Y-68083806D01*
X103535008Y-67932451D01*
X103611102Y-67761540D01*
X103650000Y-67578543D01*
X103650000Y-67391457D01*
X103611102Y-67208460D01*
X103535008Y-67037549D01*
X103425042Y-66886194D01*
X103286010Y-66761009D01*
X103123989Y-66667466D01*
X102946061Y-66609654D01*
X102806639Y-66595000D01*
X102713361Y-66595000D01*
X102573939Y-66609654D01*
X102396011Y-66667466D01*
X102233990Y-66761009D01*
X102094958Y-66886194D01*
X101984992Y-67037549D01*
X101908898Y-67208460D01*
X101870000Y-67391457D01*
X101870000Y-67578543D01*
X100470000Y-67578543D01*
X100470000Y-67391457D01*
X100431102Y-67208460D01*
X100355008Y-67037549D01*
X100245042Y-66886194D01*
X100106010Y-66761009D01*
X99943989Y-66667466D01*
X99766061Y-66609654D01*
X99626639Y-66595000D01*
X99533361Y-66595000D01*
X99393939Y-66609654D01*
X99216011Y-66667466D01*
X99053990Y-66761009D01*
X98914958Y-66886194D01*
X98804992Y-67037549D01*
X98728898Y-67208460D01*
X98690000Y-67391457D01*
X98690000Y-67578543D01*
X96725824Y-67578543D01*
X96735171Y-66485000D01*
X97365000Y-66485000D01*
X98580000Y-66485000D01*
X98580000Y-65095000D01*
X100580000Y-65095000D01*
X100580000Y-66485000D01*
X101760000Y-66485000D01*
X101760000Y-65095000D01*
X103760000Y-65095000D01*
X103760000Y-66485000D01*
X104975000Y-66485000D01*
X104975000Y-65550481D01*
X104974645Y-65543867D01*
X104968599Y-65487628D01*
X104918352Y-65352910D01*
X104832188Y-65237811D01*
X104717089Y-65151647D01*
X104582371Y-65101400D01*
X104526132Y-65095354D01*
X104519518Y-65095000D01*
X103760000Y-65095000D01*
X101760000Y-65095000D01*
X100580000Y-65095000D01*
X98580000Y-65095000D01*
X97820482Y-65095000D01*
X97813867Y-65095354D01*
X97757628Y-65101400D01*
X97622910Y-65151647D01*
X97507811Y-65237811D01*
X97421647Y-65352910D01*
X97371400Y-65487628D01*
X97365354Y-65543867D01*
X97365000Y-65550481D01*
X97365000Y-66485000D01*
X96735171Y-66485000D01*
X96748949Y-64872939D01*
X96769205Y-64806071D01*
X96822398Y-64760770D01*
X96872944Y-64750000D01*
X106376000Y-64750000D01*
X106443039Y-64769685D01*
G37*
%TD.AperFunction*%
%TA.AperFunction,Conductor*%
G36*
X153436521Y-57436971D02*
G01*
X153503394Y-57457214D01*
X153548708Y-57510397D01*
X153558075Y-57579636D01*
X153528521Y-57642948D01*
X153509799Y-57660234D01*
X153392811Y-57747810D01*
X153306647Y-57862910D01*
X153256400Y-57997628D01*
X153250354Y-58053867D01*
X153250000Y-58060481D01*
X153250000Y-58995000D01*
X159521000Y-58995000D01*
X159588039Y-59014685D01*
X159633794Y-59067489D01*
X159645000Y-59119000D01*
X159645000Y-62385000D01*
X160404518Y-62385000D01*
X160411132Y-62384645D01*
X160467371Y-62378599D01*
X160602089Y-62328352D01*
X160717190Y-62242187D01*
X160776733Y-62162648D01*
X160832666Y-62120776D01*
X160902358Y-62115792D01*
X160963681Y-62149277D01*
X160997166Y-62210600D01*
X161000000Y-62236958D01*
X161000000Y-63376000D01*
X160980315Y-63443039D01*
X160927511Y-63488794D01*
X160876000Y-63500000D01*
X133750000Y-63500000D01*
X133750000Y-66205423D01*
X133730315Y-66272462D01*
X133677511Y-66318217D01*
X133608353Y-66328161D01*
X133545470Y-66299714D01*
X133514464Y-66273233D01*
X133307447Y-66146373D01*
X133083133Y-66053458D01*
X132847047Y-65996779D01*
X132604999Y-65977730D01*
X132481649Y-65987437D01*
X132622435Y-66128222D01*
X132622441Y-66128227D01*
X133674115Y-67179901D01*
X133707600Y-67241224D01*
X133710011Y-67277821D01*
X133709379Y-67285437D01*
X133709380Y-67285437D01*
X133694500Y-67465010D01*
X133694500Y-67467579D01*
X133694500Y-67467580D01*
X133694500Y-67798351D01*
X133674815Y-67865390D01*
X133658181Y-67886032D01*
X132641320Y-68902894D01*
X132641313Y-68902897D01*
X132494210Y-69050000D01*
X131124000Y-69050000D01*
X131056961Y-69030315D01*
X131011206Y-68977511D01*
X131000000Y-68926000D01*
X131000000Y-68157992D01*
X131000000Y-67715784D01*
X131011307Y-67704477D01*
X131011313Y-67704473D01*
X131106399Y-67609388D01*
X131910000Y-67609388D01*
X131950390Y-67773261D01*
X132028825Y-67922705D01*
X132140745Y-68049036D01*
X132279645Y-68144912D01*
X132437454Y-68204761D01*
X132562957Y-68220000D01*
X132647043Y-68220000D01*
X132772546Y-68204761D01*
X132930355Y-68144912D01*
X133069255Y-68049036D01*
X133181175Y-67922705D01*
X133259610Y-67773261D01*
X133300000Y-67609388D01*
X133300000Y-67440612D01*
X133259610Y-67276739D01*
X133181175Y-67127295D01*
X133069255Y-67000964D01*
X132930355Y-66905088D01*
X132772546Y-66845239D01*
X132647043Y-66830000D01*
X132562957Y-66830000D01*
X132437454Y-66845239D01*
X132279645Y-66905088D01*
X132140745Y-67000964D01*
X132028825Y-67127295D01*
X131950390Y-67276739D01*
X131910000Y-67440612D01*
X131910000Y-67609388D01*
X131106399Y-67609388D01*
X131190786Y-67525001D01*
X131190786Y-67525000D01*
X131011313Y-67345526D01*
X131011308Y-67345522D01*
X131000000Y-67334214D01*
X131000000Y-60995000D01*
X153250000Y-60995000D01*
X153250000Y-61929518D01*
X153250354Y-61936132D01*
X153256400Y-61992371D01*
X153306647Y-62127089D01*
X153392811Y-62242188D01*
X153507910Y-62328352D01*
X153642628Y-62378599D01*
X153698867Y-62384645D01*
X153705482Y-62385000D01*
X154465000Y-62385000D01*
X154465000Y-60995000D01*
X156465000Y-60995000D01*
X156465000Y-62385000D01*
X157645000Y-62385000D01*
X157645000Y-60995000D01*
X156465000Y-60995000D01*
X154465000Y-60995000D01*
X153250000Y-60995000D01*
X131000000Y-60995000D01*
X131000000Y-60088543D01*
X154575000Y-60088543D01*
X154613898Y-60271540D01*
X154689992Y-60442451D01*
X154799958Y-60593806D01*
X154938990Y-60718991D01*
X155101011Y-60812534D01*
X155278939Y-60870346D01*
X155418361Y-60885000D01*
X155511639Y-60885000D01*
X155651061Y-60870346D01*
X155828989Y-60812534D01*
X155991010Y-60718991D01*
X156130042Y-60593806D01*
X156240008Y-60442451D01*
X156316102Y-60271540D01*
X156355000Y-60088543D01*
X157755000Y-60088543D01*
X157793898Y-60271540D01*
X157869992Y-60442451D01*
X157979958Y-60593806D01*
X158118990Y-60718991D01*
X158281011Y-60812534D01*
X158458939Y-60870346D01*
X158598361Y-60885000D01*
X158691639Y-60885000D01*
X158831061Y-60870346D01*
X159008989Y-60812534D01*
X159171010Y-60718991D01*
X159310042Y-60593806D01*
X159420008Y-60442451D01*
X159496102Y-60271540D01*
X159535000Y-60088543D01*
X159535000Y-59901457D01*
X159496102Y-59718460D01*
X159420008Y-59547549D01*
X159310042Y-59396194D01*
X159171010Y-59271009D01*
X159008989Y-59177466D01*
X158831061Y-59119654D01*
X158691639Y-59105000D01*
X158598361Y-59105000D01*
X158458939Y-59119654D01*
X158281011Y-59177466D01*
X158118990Y-59271009D01*
X157979958Y-59396194D01*
X157869992Y-59547549D01*
X157793898Y-59718460D01*
X157755000Y-59901457D01*
X157755000Y-60088543D01*
X156355000Y-60088543D01*
X156355000Y-59901457D01*
X156316102Y-59718460D01*
X156240008Y-59547549D01*
X156130042Y-59396194D01*
X155991010Y-59271009D01*
X155828989Y-59177466D01*
X155651061Y-59119654D01*
X155511639Y-59105000D01*
X155418361Y-59105000D01*
X155278939Y-59119654D01*
X155101011Y-59177466D01*
X154938990Y-59271009D01*
X154799958Y-59396194D01*
X154689992Y-59547549D01*
X154613898Y-59718460D01*
X154575000Y-59901457D01*
X154575000Y-60088543D01*
X131000000Y-60088543D01*
X131000000Y-57375036D01*
X131019685Y-57307998D01*
X131072489Y-57262243D01*
X131125028Y-57251041D01*
X153436521Y-57436971D01*
G37*
%TD.AperFunction*%
M02*
