M48
; DRILL file {KiCad (6.0.7)} date Sat Jan 28 12:42:47 2023
; FORMAT={-:-/ absolute / metric / decimal}
; #@! TF.CreationDate,2023-01-28T12:42:47-06:00
; #@! TF.GenerationSoftware,Kicad,Pcbnew,(6.0.7)
; #@! TF.FileFunction,Plated,1,2,PTH
FMAT,2
METRIC
; #@! TA.AperFunction,Plated,PTH,ViaDrill
T1C0.400
; #@! TA.AperFunction,Plated,PTH,ComponentDrill
T2C0.730
; #@! TA.AperFunction,Plated,PTH,ComponentDrill
T3C1.020
; #@! TA.AperFunction,Plated,PTH,ComponentDrill
T4C1.390
; #@! TA.AperFunction,Plated,PTH,ComponentDrill
T5C1.780
%
G90
G05
T1
X140.8Y-118.09
X152.87Y-121.46
X165.5Y-85.0
X168.0Y-117.5
T2
X132.36Y-98.925
X132.36Y-101.465
X132.36Y-104.005
X132.36Y-106.545
X140.3Y-98.925
X140.3Y-101.465
X140.3Y-104.005
X140.3Y-106.545
T3
X137.0Y-76.0
X140.0Y-76.0
T4
X135.79Y-113.64
X138.33Y-113.64
X140.87Y-113.64
X157.14Y-114.31
X159.68Y-114.31
X162.22Y-114.31
T5
X119.46Y-104.49
X119.46Y-111.98
X119.5Y-80.47
X119.5Y-87.96
X122.64Y-104.49
X122.64Y-111.98
X122.68Y-80.47
X122.68Y-87.96
X147.3Y-92.04
X147.3Y-101.96
X150.7Y-92.04
X150.7Y-101.96
X172.87Y-104.47
X172.87Y-111.96
X172.91Y-80.195
X172.91Y-87.685
X176.05Y-104.47
X176.05Y-111.96
X176.09Y-80.195
X176.09Y-87.685
T0
M30
