G04 #@! TF.GenerationSoftware,KiCad,Pcbnew,(5.1.5)-3*
G04 #@! TF.CreationDate,2021-01-10T22:28:37-06:00*
G04 #@! TF.ProjectId,Power-Secondary,506f7765-722d-4536-9563-6f6e64617279,rev?*
G04 #@! TF.SameCoordinates,Original*
G04 #@! TF.FileFunction,Legend,Bot*
G04 #@! TF.FilePolarity,Positive*
%FSLAX46Y46*%
G04 Gerber Fmt 4.6, Leading zero omitted, Abs format (unit mm)*
G04 Created by KiCad (PCBNEW (5.1.5)-3) date 2021-01-10 22:28:37*
%MOMM*%
%LPD*%
G04 APERTURE LIST*
%ADD10C,0.250000*%
%ADD11C,0.120000*%
%ADD12C,0.010000*%
G04 APERTURE END LIST*
D10*
X140500000Y-167404761D02*
X140500000Y-165404761D01*
X140023809Y-165404761D01*
X139738095Y-165500000D01*
X139547619Y-165690476D01*
X139452380Y-165880952D01*
X139357142Y-166261904D01*
X139357142Y-166547619D01*
X139452380Y-166928571D01*
X139547619Y-167119047D01*
X139738095Y-167309523D01*
X140023809Y-167404761D01*
X140500000Y-167404761D01*
X138500000Y-167404761D02*
X138500000Y-166071428D01*
X138500000Y-166452380D02*
X138404761Y-166261904D01*
X138309523Y-166166666D01*
X138119047Y-166071428D01*
X137928571Y-166071428D01*
X137261904Y-167214285D02*
X137166666Y-167309523D01*
X137261904Y-167404761D01*
X137357142Y-167309523D01*
X137261904Y-167214285D01*
X137261904Y-167404761D01*
X133738095Y-165500000D02*
X133928571Y-165404761D01*
X134214285Y-165404761D01*
X134500000Y-165500000D01*
X134690476Y-165690476D01*
X134785714Y-165880952D01*
X134880952Y-166261904D01*
X134880952Y-166547619D01*
X134785714Y-166928571D01*
X134690476Y-167119047D01*
X134500000Y-167309523D01*
X134214285Y-167404761D01*
X134023809Y-167404761D01*
X133738095Y-167309523D01*
X133642857Y-167214285D01*
X133642857Y-166547619D01*
X134023809Y-166547619D01*
X131928571Y-167404761D02*
X131928571Y-166357142D01*
X132023809Y-166166666D01*
X132214285Y-166071428D01*
X132595238Y-166071428D01*
X132785714Y-166166666D01*
X131928571Y-167309523D02*
X132119047Y-167404761D01*
X132595238Y-167404761D01*
X132785714Y-167309523D01*
X132880952Y-167119047D01*
X132880952Y-166928571D01*
X132785714Y-166738095D01*
X132595238Y-166642857D01*
X132119047Y-166642857D01*
X131928571Y-166547619D01*
X130976190Y-167404761D02*
X130976190Y-166071428D01*
X130976190Y-166452380D02*
X130880952Y-166261904D01*
X130785714Y-166166666D01*
X130595238Y-166071428D01*
X130404761Y-166071428D01*
X129928571Y-166071428D02*
X129452380Y-167404761D01*
X128976190Y-166071428D02*
X129452380Y-167404761D01*
X129642857Y-167880952D01*
X129738095Y-167976190D01*
X129928571Y-168071428D01*
X126690476Y-167404761D02*
X126690476Y-165404761D01*
X126690476Y-166357142D02*
X125547619Y-166357142D01*
X125547619Y-167404761D02*
X125547619Y-165404761D01*
X123738095Y-167404761D02*
X123738095Y-166357142D01*
X123833333Y-166166666D01*
X124023809Y-166071428D01*
X124404761Y-166071428D01*
X124595238Y-166166666D01*
X123738095Y-167309523D02*
X123928571Y-167404761D01*
X124404761Y-167404761D01*
X124595238Y-167309523D01*
X124690476Y-167119047D01*
X124690476Y-166928571D01*
X124595238Y-166738095D01*
X124404761Y-166642857D01*
X123928571Y-166642857D01*
X123738095Y-166547619D01*
X122500000Y-167404761D02*
X122690476Y-167309523D01*
X122785714Y-167119047D01*
X122785714Y-165404761D01*
X121452380Y-167404761D02*
X121642857Y-167309523D01*
X121738095Y-167119047D01*
X121738095Y-165404761D01*
X120404761Y-167404761D02*
X120595238Y-167309523D01*
X120690476Y-167214285D01*
X120785714Y-167023809D01*
X120785714Y-166452380D01*
X120690476Y-166261904D01*
X120595238Y-166166666D01*
X120404761Y-166071428D01*
X120119047Y-166071428D01*
X119928571Y-166166666D01*
X119833333Y-166261904D01*
X119738095Y-166452380D01*
X119738095Y-167023809D01*
X119833333Y-167214285D01*
X119928571Y-167309523D01*
X120119047Y-167404761D01*
X120404761Y-167404761D01*
X118023809Y-167309523D02*
X118214285Y-167404761D01*
X118595238Y-167404761D01*
X118785714Y-167309523D01*
X118880952Y-167214285D01*
X118976190Y-167023809D01*
X118976190Y-166452380D01*
X118880952Y-166261904D01*
X118785714Y-166166666D01*
X118595238Y-166071428D01*
X118214285Y-166071428D01*
X118023809Y-166166666D01*
X117166666Y-167404761D02*
X117166666Y-165404761D01*
X116976190Y-166642857D02*
X116404761Y-167404761D01*
X116404761Y-166071428D02*
X117166666Y-166833333D01*
D11*
X48335000Y-58160000D02*
X48335000Y-53860000D01*
X41205000Y-58160000D02*
X48335000Y-58160000D01*
X41205000Y-53860000D02*
X41205000Y-58160000D01*
X48335000Y-53860000D02*
X41205000Y-53860000D01*
D12*
G36*
X122385624Y-141981559D02*
G01*
X122275592Y-142256611D01*
X122223716Y-142685435D01*
X122218667Y-142917512D01*
X122234394Y-143265866D01*
X122279634Y-143458929D01*
X122351479Y-143492885D01*
X122447018Y-143363916D01*
X122488749Y-143271834D01*
X122540575Y-143055563D01*
X122569037Y-142752822D01*
X122570680Y-142552167D01*
X122568604Y-142276423D01*
X122592047Y-142129914D01*
X122653648Y-142073033D01*
X122726027Y-142065334D01*
X122867797Y-142024514D01*
X122884949Y-141939282D01*
X122790167Y-141874502D01*
X122556315Y-141855711D01*
X122385624Y-141981559D01*
G37*
X122385624Y-141981559D02*
X122275592Y-142256611D01*
X122223716Y-142685435D01*
X122218667Y-142917512D01*
X122234394Y-143265866D01*
X122279634Y-143458929D01*
X122351479Y-143492885D01*
X122447018Y-143363916D01*
X122488749Y-143271834D01*
X122540575Y-143055563D01*
X122569037Y-142752822D01*
X122570680Y-142552167D01*
X122568604Y-142276423D01*
X122592047Y-142129914D01*
X122653648Y-142073033D01*
X122726027Y-142065334D01*
X122867797Y-142024514D01*
X122884949Y-141939282D01*
X122790167Y-141874502D01*
X122556315Y-141855711D01*
X122385624Y-141981559D01*
G36*
X123509191Y-143300656D02*
G01*
X123345260Y-143416380D01*
X123204213Y-143546473D01*
X123150000Y-143634965D01*
X123152652Y-143661681D01*
X123190088Y-143657841D01*
X123306532Y-143610196D01*
X123467500Y-143539851D01*
X123656908Y-143429882D01*
X123741072Y-143326746D01*
X123702915Y-143260529D01*
X123631632Y-143250667D01*
X123509191Y-143300656D01*
G37*
X123509191Y-143300656D02*
X123345260Y-143416380D01*
X123204213Y-143546473D01*
X123150000Y-143634965D01*
X123152652Y-143661681D01*
X123190088Y-143657841D01*
X123306532Y-143610196D01*
X123467500Y-143539851D01*
X123656908Y-143429882D01*
X123741072Y-143326746D01*
X123702915Y-143260529D01*
X123631632Y-143250667D01*
X123509191Y-143300656D01*
G36*
X124709596Y-143560024D02*
G01*
X124697023Y-143610500D01*
X124685076Y-143826534D01*
X124697023Y-143906834D01*
X124731350Y-144010640D01*
X124774484Y-143957309D01*
X124796956Y-143906834D01*
X124820477Y-143704325D01*
X124796956Y-143610500D01*
X124742272Y-143506694D01*
X124709596Y-143560024D01*
G37*
X124709596Y-143560024D02*
X124697023Y-143610500D01*
X124685076Y-143826534D01*
X124697023Y-143906834D01*
X124731350Y-144010640D01*
X124774484Y-143957309D01*
X124796956Y-143906834D01*
X124820477Y-143704325D01*
X124796956Y-143610500D01*
X124742272Y-143506694D01*
X124709596Y-143560024D01*
G36*
X122865785Y-143723399D02*
G01*
X122748365Y-143843044D01*
X122726667Y-143937059D01*
X122738670Y-144068897D01*
X122794579Y-144071498D01*
X122924246Y-143943516D01*
X122938804Y-143927481D01*
X123043482Y-143771114D01*
X123015046Y-143697652D01*
X122865785Y-143723399D01*
G37*
X122865785Y-143723399D02*
X122748365Y-143843044D01*
X122726667Y-143937059D01*
X122738670Y-144068897D01*
X122794579Y-144071498D01*
X122924246Y-143943516D01*
X122938804Y-143927481D01*
X123043482Y-143771114D01*
X123015046Y-143697652D01*
X122865785Y-143723399D01*
G36*
X124758667Y-144309000D02*
G01*
X124801000Y-144351334D01*
X124843334Y-144309000D01*
X124801000Y-144266667D01*
X124758667Y-144309000D01*
G37*
X124758667Y-144309000D02*
X124801000Y-144351334D01*
X124843334Y-144309000D01*
X124801000Y-144266667D01*
X124758667Y-144309000D01*
G36*
X123262889Y-144633556D02*
G01*
X123274512Y-144683890D01*
X123319334Y-144690000D01*
X123389024Y-144659022D01*
X123375778Y-144633556D01*
X123275299Y-144623423D01*
X123262889Y-144633556D01*
G37*
X123262889Y-144633556D02*
X123274512Y-144683890D01*
X123319334Y-144690000D01*
X123389024Y-144659022D01*
X123375778Y-144633556D01*
X123275299Y-144623423D01*
X123262889Y-144633556D01*
G36*
X123612954Y-144948070D02*
G01*
X123593087Y-145067972D01*
X123611108Y-145105956D01*
X123718342Y-145176436D01*
X123868620Y-145195855D01*
X123980506Y-145160466D01*
X123996667Y-145123700D01*
X123938671Y-145013891D01*
X123866079Y-144941022D01*
X123724267Y-144892611D01*
X123612954Y-144948070D01*
G37*
X123612954Y-144948070D02*
X123593087Y-145067972D01*
X123611108Y-145105956D01*
X123718342Y-145176436D01*
X123868620Y-145195855D01*
X123980506Y-145160466D01*
X123996667Y-145123700D01*
X123938671Y-145013891D01*
X123866079Y-144941022D01*
X123724267Y-144892611D01*
X123612954Y-144948070D01*
G36*
X124156512Y-146298530D02*
G01*
X124132079Y-146307153D01*
X123936082Y-146399518D01*
X123832296Y-146490331D01*
X123827334Y-146508503D01*
X123879981Y-146658142D01*
X124005289Y-146855009D01*
X124154314Y-147028496D01*
X124229794Y-147089064D01*
X124356280Y-147220128D01*
X124427792Y-147343064D01*
X124487563Y-147471516D01*
X124492625Y-147442999D01*
X124472649Y-147335834D01*
X124464622Y-147188582D01*
X124491427Y-147145334D01*
X124537185Y-147073701D01*
X124570560Y-146852084D01*
X124591220Y-146518878D01*
X124553260Y-146321552D01*
X124411399Y-146249505D01*
X124156512Y-146298530D01*
G37*
X124156512Y-146298530D02*
X124132079Y-146307153D01*
X123936082Y-146399518D01*
X123832296Y-146490331D01*
X123827334Y-146508503D01*
X123879981Y-146658142D01*
X124005289Y-146855009D01*
X124154314Y-147028496D01*
X124229794Y-147089064D01*
X124356280Y-147220128D01*
X124427792Y-147343064D01*
X124487563Y-147471516D01*
X124492625Y-147442999D01*
X124472649Y-147335834D01*
X124464622Y-147188582D01*
X124491427Y-147145334D01*
X124537185Y-147073701D01*
X124570560Y-146852084D01*
X124591220Y-146518878D01*
X124553260Y-146321552D01*
X124411399Y-146249505D01*
X124156512Y-146298530D01*
G36*
X125182000Y-147780334D02*
G01*
X125224334Y-147822667D01*
X125266667Y-147780334D01*
X125224334Y-147738000D01*
X125182000Y-147780334D01*
G37*
X125182000Y-147780334D02*
X125224334Y-147822667D01*
X125266667Y-147780334D01*
X125224334Y-147738000D01*
X125182000Y-147780334D01*
G36*
X124529539Y-147648640D02*
G01*
X124518511Y-147797979D01*
X124514684Y-147928500D01*
X124524809Y-148162808D01*
X124561810Y-148307773D01*
X124589334Y-148330667D01*
X124656213Y-148261448D01*
X124663983Y-148182500D01*
X124636073Y-147993357D01*
X124589334Y-147780334D01*
X124550759Y-147647498D01*
X124529539Y-147648640D01*
G37*
X124529539Y-147648640D02*
X124518511Y-147797979D01*
X124514684Y-147928500D01*
X124524809Y-148162808D01*
X124561810Y-148307773D01*
X124589334Y-148330667D01*
X124656213Y-148261448D01*
X124663983Y-148182500D01*
X124636073Y-147993357D01*
X124589334Y-147780334D01*
X124550759Y-147647498D01*
X124529539Y-147648640D01*
G36*
X125733392Y-148444641D02*
G01*
X125751226Y-148538823D01*
X125774712Y-148584750D01*
X125908039Y-148723683D01*
X126060745Y-148746219D01*
X126152051Y-148675184D01*
X126136170Y-148571553D01*
X125992025Y-148480036D01*
X125835233Y-148439033D01*
X125733392Y-148444641D01*
G37*
X125733392Y-148444641D02*
X125751226Y-148538823D01*
X125774712Y-148584750D01*
X125908039Y-148723683D01*
X126060745Y-148746219D01*
X126152051Y-148675184D01*
X126136170Y-148571553D01*
X125992025Y-148480036D01*
X125835233Y-148439033D01*
X125733392Y-148444641D01*
G36*
X124510821Y-148503542D02*
G01*
X124572415Y-148634981D01*
X124628974Y-148716651D01*
X124724839Y-148809242D01*
X124755974Y-148769119D01*
X124702970Y-148621730D01*
X124631667Y-148530238D01*
X124530723Y-148458147D01*
X124510821Y-148503542D01*
G37*
X124510821Y-148503542D02*
X124572415Y-148634981D01*
X124628974Y-148716651D01*
X124724839Y-148809242D01*
X124755974Y-148769119D01*
X124702970Y-148621730D01*
X124631667Y-148530238D01*
X124530723Y-148458147D01*
X124510821Y-148503542D01*
G36*
X126322147Y-149434845D02*
G01*
X126332121Y-149461691D01*
X126408267Y-149565730D01*
X126498441Y-149609819D01*
X126536667Y-149568700D01*
X126480499Y-149495734D01*
X126407729Y-149429725D01*
X126315938Y-149367951D01*
X126322147Y-149434845D01*
G37*
X126322147Y-149434845D02*
X126332121Y-149461691D01*
X126408267Y-149565730D01*
X126498441Y-149609819D01*
X126536667Y-149568700D01*
X126480499Y-149495734D01*
X126407729Y-149429725D01*
X126315938Y-149367951D01*
X126322147Y-149434845D01*
G36*
X126564889Y-149713556D02*
G01*
X126576512Y-149763890D01*
X126621334Y-149770000D01*
X126691024Y-149739022D01*
X126677778Y-149713556D01*
X126577299Y-149703423D01*
X126564889Y-149713556D01*
G37*
X126564889Y-149713556D02*
X126576512Y-149763890D01*
X126621334Y-149770000D01*
X126691024Y-149739022D01*
X126677778Y-149713556D01*
X126577299Y-149703423D01*
X126564889Y-149713556D01*
G36*
X126536667Y-150489667D02*
G01*
X126579000Y-150532000D01*
X126621334Y-150489667D01*
X126579000Y-150447334D01*
X126536667Y-150489667D01*
G37*
X126536667Y-150489667D02*
X126579000Y-150532000D01*
X126621334Y-150489667D01*
X126579000Y-150447334D01*
X126536667Y-150489667D01*
G36*
X130928719Y-149981211D02*
G01*
X130805639Y-150077815D01*
X130679834Y-150243793D01*
X130587574Y-150419597D01*
X130565130Y-150545682D01*
X130574676Y-150562453D01*
X130665806Y-150610823D01*
X130789473Y-150569771D01*
X130985322Y-150424290D01*
X131023270Y-150392623D01*
X131186042Y-150240283D01*
X131228309Y-150140066D01*
X131171798Y-150050845D01*
X131016880Y-149974248D01*
X130928719Y-149981211D01*
G37*
X130928719Y-149981211D02*
X130805639Y-150077815D01*
X130679834Y-150243793D01*
X130587574Y-150419597D01*
X130565130Y-150545682D01*
X130574676Y-150562453D01*
X130665806Y-150610823D01*
X130789473Y-150569771D01*
X130985322Y-150424290D01*
X131023270Y-150392623D01*
X131186042Y-150240283D01*
X131228309Y-150140066D01*
X131171798Y-150050845D01*
X131016880Y-149974248D01*
X130928719Y-149981211D01*
G36*
X125182000Y-150743667D02*
G01*
X125224334Y-150786000D01*
X125266667Y-150743667D01*
X125224334Y-150701334D01*
X125182000Y-150743667D01*
G37*
X125182000Y-150743667D02*
X125224334Y-150786000D01*
X125266667Y-150743667D01*
X125224334Y-150701334D01*
X125182000Y-150743667D01*
G36*
X127214018Y-151195221D02*
G01*
X127214000Y-151196617D01*
X127281395Y-151298644D01*
X127439112Y-151419863D01*
X127620457Y-151516077D01*
X127740188Y-151545307D01*
X127769678Y-151503738D01*
X127679667Y-151412104D01*
X127437567Y-151243628D01*
X127274751Y-151167817D01*
X127214018Y-151195221D01*
G37*
X127214018Y-151195221D02*
X127214000Y-151196617D01*
X127281395Y-151298644D01*
X127439112Y-151419863D01*
X127620457Y-151516077D01*
X127740188Y-151545307D01*
X127769678Y-151503738D01*
X127679667Y-151412104D01*
X127437567Y-151243628D01*
X127274751Y-151167817D01*
X127214018Y-151195221D01*
G36*
X123941104Y-152277203D02*
G01*
X123954334Y-152310000D01*
X124030416Y-152390771D01*
X124043997Y-152394667D01*
X124080363Y-152329161D01*
X124081334Y-152310000D01*
X124016246Y-152228587D01*
X123991670Y-152225334D01*
X123941104Y-152277203D01*
G37*
X123941104Y-152277203D02*
X123954334Y-152310000D01*
X124030416Y-152390771D01*
X124043997Y-152394667D01*
X124080363Y-152329161D01*
X124081334Y-152310000D01*
X124016246Y-152228587D01*
X123991670Y-152225334D01*
X123941104Y-152277203D01*
G36*
X128399334Y-153114334D02*
G01*
X128441667Y-153156667D01*
X128484000Y-153114334D01*
X128441667Y-153072000D01*
X128399334Y-153114334D01*
G37*
X128399334Y-153114334D02*
X128441667Y-153156667D01*
X128484000Y-153114334D01*
X128441667Y-153072000D01*
X128399334Y-153114334D01*
G36*
X128568667Y-153199000D02*
G01*
X128611000Y-153241334D01*
X128653334Y-153199000D01*
X128611000Y-153156667D01*
X128568667Y-153199000D01*
G37*
X128568667Y-153199000D02*
X128611000Y-153241334D01*
X128653334Y-153199000D01*
X128611000Y-153156667D01*
X128568667Y-153199000D01*
G36*
X117608533Y-155816318D02*
G01*
X117450619Y-155872376D01*
X117392667Y-155952280D01*
X117463594Y-156019765D01*
X117562000Y-156035334D01*
X117699518Y-155996133D01*
X117731334Y-155941608D01*
X117794041Y-155887450D01*
X117879500Y-155904291D01*
X117974937Y-155927775D01*
X117930967Y-155863250D01*
X117928033Y-155860282D01*
X117792601Y-155808003D01*
X117608533Y-155816318D01*
G37*
X117608533Y-155816318D02*
X117450619Y-155872376D01*
X117392667Y-155952280D01*
X117463594Y-156019765D01*
X117562000Y-156035334D01*
X117699518Y-155996133D01*
X117731334Y-155941608D01*
X117794041Y-155887450D01*
X117879500Y-155904291D01*
X117974937Y-155927775D01*
X117930967Y-155863250D01*
X117928033Y-155860282D01*
X117792601Y-155808003D01*
X117608533Y-155816318D01*
G36*
X117142113Y-156096794D02*
G01*
X117138667Y-156120000D01*
X117167554Y-156202466D01*
X117176004Y-156204667D01*
X117248290Y-156145338D01*
X117265667Y-156120000D01*
X117258954Y-156041981D01*
X117228331Y-156035334D01*
X117142113Y-156096794D01*
G37*
X117142113Y-156096794D02*
X117138667Y-156120000D01*
X117167554Y-156202466D01*
X117176004Y-156204667D01*
X117248290Y-156145338D01*
X117265667Y-156120000D01*
X117258954Y-156041981D01*
X117228331Y-156035334D01*
X117142113Y-156096794D01*
G36*
X118104369Y-156076379D02*
G01*
X118112334Y-156120000D01*
X118220577Y-156201437D01*
X118244331Y-156204667D01*
X118321720Y-156140088D01*
X118324000Y-156120000D01*
X118255085Y-156045696D01*
X118192004Y-156035334D01*
X118104369Y-156076379D01*
G37*
X118104369Y-156076379D02*
X118112334Y-156120000D01*
X118220577Y-156201437D01*
X118244331Y-156204667D01*
X118321720Y-156140088D01*
X118324000Y-156120000D01*
X118255085Y-156045696D01*
X118192004Y-156035334D01*
X118104369Y-156076379D01*
G36*
X117646667Y-156145917D02*
G01*
X117471648Y-156227626D01*
X117393000Y-156295264D01*
X117392667Y-156298286D01*
X117466105Y-156348701D01*
X117643097Y-156391531D01*
X117646667Y-156392060D01*
X117826092Y-156400031D01*
X117893317Y-156329837D01*
X117900667Y-156239691D01*
X117885786Y-156115099D01*
X117808589Y-156093190D01*
X117646667Y-156145917D01*
G37*
X117646667Y-156145917D02*
X117471648Y-156227626D01*
X117393000Y-156295264D01*
X117392667Y-156298286D01*
X117466105Y-156348701D01*
X117643097Y-156391531D01*
X117646667Y-156392060D01*
X117826092Y-156400031D01*
X117893317Y-156329837D01*
X117900667Y-156239691D01*
X117885786Y-156115099D01*
X117808589Y-156093190D01*
X117646667Y-156145917D01*
G36*
X128385387Y-132997891D02*
G01*
X127940694Y-133045539D01*
X127481214Y-133124268D01*
X127056107Y-133228299D01*
X126937111Y-133265407D01*
X126189415Y-133587188D01*
X125463083Y-134036703D01*
X124818000Y-134576791D01*
X124808114Y-134586510D01*
X124475121Y-134940288D01*
X124189822Y-135291780D01*
X123973968Y-135610212D01*
X123849308Y-135864809D01*
X123827334Y-135974278D01*
X123771557Y-136090398D01*
X123620617Y-136295003D01*
X123399098Y-136556851D01*
X123190779Y-136783202D01*
X122859606Y-137154447D01*
X122601450Y-137509745D01*
X122410278Y-137874954D01*
X122280059Y-138275933D01*
X122204761Y-138738539D01*
X122178351Y-139288630D01*
X122194797Y-139952064D01*
X122248067Y-140754700D01*
X122252204Y-140806618D01*
X122317655Y-141622236D01*
X122655083Y-141626893D01*
X122866989Y-141651294D01*
X123068453Y-141734749D01*
X123309576Y-141902315D01*
X123473423Y-142036186D01*
X123824660Y-142333570D01*
X124069939Y-142548843D01*
X124233874Y-142707710D01*
X124341079Y-142835878D01*
X124416167Y-142959054D01*
X124474154Y-143081334D01*
X124562962Y-143264991D01*
X124619155Y-143309519D01*
X124674204Y-143232528D01*
X124689030Y-143201577D01*
X124819988Y-143033792D01*
X125014023Y-142882334D01*
X125199903Y-142732944D01*
X125309055Y-142573137D01*
X125309554Y-142571590D01*
X125426101Y-142440394D01*
X125618789Y-142406744D01*
X125821967Y-142475620D01*
X125886418Y-142527847D01*
X125975505Y-142678169D01*
X126068168Y-142927524D01*
X126114900Y-143099347D01*
X126317764Y-143753406D01*
X126590925Y-144258258D01*
X126944295Y-144622895D01*
X127387787Y-144856312D01*
X127931314Y-144967500D01*
X128187667Y-144979872D01*
X128751007Y-144967680D01*
X129182826Y-144911715D01*
X129517147Y-144803837D01*
X129787990Y-144635908D01*
X129851790Y-144581782D01*
X130037752Y-144386485D01*
X130252223Y-144118576D01*
X130468157Y-143817815D01*
X130658507Y-143523959D01*
X130796228Y-143276764D01*
X130854274Y-143115989D01*
X130854667Y-143107562D01*
X130909951Y-142916821D01*
X131041944Y-142724492D01*
X131199856Y-142594763D01*
X131277371Y-142573334D01*
X131403904Y-142597741D01*
X131507213Y-142689016D01*
X131602795Y-142874235D01*
X131706148Y-143180475D01*
X131786227Y-143462334D01*
X131888348Y-143810423D01*
X131991541Y-144120784D01*
X132076536Y-144336272D01*
X132090415Y-144364397D01*
X132202410Y-144711839D01*
X132168297Y-145013690D01*
X132009517Y-145248866D01*
X131747515Y-145396280D01*
X131403731Y-145434845D01*
X131069469Y-145368368D01*
X130811318Y-145311579D01*
X130553105Y-145333887D01*
X130383742Y-145378025D01*
X130167845Y-145460247D01*
X130047061Y-145542821D01*
X130036922Y-145576558D01*
X130081083Y-145629363D01*
X130189067Y-145650576D01*
X130397010Y-145642210D01*
X130685334Y-145612665D01*
X130981667Y-145579000D01*
X130973794Y-145946492D01*
X130975535Y-146174021D01*
X131013852Y-146274438D01*
X131118771Y-146289835D01*
X131210355Y-146278109D01*
X131399168Y-146273914D01*
X131498392Y-146312783D01*
X131610144Y-146372980D01*
X131697272Y-146383334D01*
X131852843Y-146444027D01*
X131901285Y-146510333D01*
X132014436Y-146622964D01*
X132079677Y-146637334D01*
X132195009Y-146685159D01*
X132192640Y-146802428D01*
X132084663Y-146949826D01*
X131952803Y-147049828D01*
X131839576Y-147108458D01*
X131705604Y-147148866D01*
X131521755Y-147173193D01*
X131258900Y-147183581D01*
X130887907Y-147182171D01*
X130379646Y-147171103D01*
X130322970Y-147169622D01*
X129846164Y-147158107D01*
X129419512Y-147149780D01*
X129075954Y-147145130D01*
X128848431Y-147144649D01*
X128780334Y-147146640D01*
X128550254Y-147163848D01*
X128452812Y-147170745D01*
X128306476Y-147253931D01*
X128175427Y-147440439D01*
X128092633Y-147665184D01*
X128091060Y-147863080D01*
X128095544Y-147876098D01*
X128157258Y-147974116D01*
X128223118Y-147918470D01*
X128348049Y-147796763D01*
X128493730Y-147705079D01*
X128669806Y-147648954D01*
X128848272Y-147692360D01*
X128949667Y-147744700D01*
X129139665Y-147824095D01*
X129410175Y-147905996D01*
X129712441Y-147979697D01*
X129997708Y-148034491D01*
X130217222Y-148059673D01*
X130321043Y-148045846D01*
X130331560Y-147949705D01*
X130245421Y-147864979D01*
X130132627Y-147854195D01*
X129997881Y-147844754D01*
X129895316Y-147751702D01*
X129870029Y-147634287D01*
X129917854Y-147572053D01*
X130106172Y-147517751D01*
X130380697Y-147501379D01*
X130662803Y-147522094D01*
X130873864Y-147579053D01*
X130880283Y-147582376D01*
X131100781Y-147663515D01*
X131252133Y-147693287D01*
X131476739Y-147760553D01*
X131586409Y-147872772D01*
X131576875Y-147987993D01*
X131443873Y-148064268D01*
X131290771Y-148073196D01*
X130937654Y-148063746D01*
X130714000Y-148087080D01*
X130636287Y-148140956D01*
X130643000Y-148161334D01*
X130622895Y-148233063D01*
X130558334Y-148246000D01*
X130466886Y-148285824D01*
X130473667Y-148330667D01*
X130587114Y-148389332D01*
X130788837Y-148414041D01*
X130796164Y-148414037D01*
X130964227Y-148401973D01*
X130980072Y-148361931D01*
X130939334Y-148330667D01*
X130872202Y-148268686D01*
X130956055Y-148248185D01*
X131000177Y-148247297D01*
X131135796Y-148277723D01*
X131137951Y-148391240D01*
X131136953Y-148394167D01*
X131113885Y-148484334D01*
X131163778Y-148440948D01*
X131212033Y-148380410D01*
X131361041Y-148274281D01*
X131503560Y-148286385D01*
X131580665Y-148401799D01*
X131579984Y-148473596D01*
X131498521Y-148592326D01*
X131375040Y-148600512D01*
X131223912Y-148625453D01*
X131193334Y-148706345D01*
X131121646Y-148815041D01*
X131009501Y-148838667D01*
X130802362Y-148894285D01*
X130668833Y-148980600D01*
X130525717Y-149070934D01*
X130415389Y-149025885D01*
X130412400Y-149022933D01*
X130237020Y-148923485D01*
X130071629Y-148937106D01*
X129967551Y-149041947D01*
X129973577Y-149209750D01*
X130082102Y-149324251D01*
X130300342Y-149462360D01*
X130575863Y-149598897D01*
X130856227Y-149708681D01*
X131088999Y-149766533D01*
X131140246Y-149770000D01*
X131492871Y-149823778D01*
X131732610Y-149969715D01*
X131843925Y-150184719D01*
X131811275Y-150445694D01*
X131712222Y-150620048D01*
X131592041Y-150799532D01*
X131532763Y-150921239D01*
X131531465Y-150930738D01*
X131464848Y-151013442D01*
X131302637Y-151127244D01*
X131277465Y-151141896D01*
X131105472Y-151217405D01*
X131025550Y-151205436D01*
X131024000Y-151195521D01*
X130957263Y-151139975D01*
X130861002Y-151147542D01*
X130742071Y-151149168D01*
X130741700Y-151051584D01*
X130720987Y-151024434D01*
X130619405Y-151110179D01*
X130539019Y-151198002D01*
X130347409Y-151385861D01*
X130153472Y-151468193D01*
X129917488Y-151485585D01*
X129631016Y-151477463D01*
X129381252Y-151454062D01*
X129330667Y-151445480D01*
X129088821Y-151369561D01*
X128827353Y-151247539D01*
X128594310Y-151107325D01*
X128437739Y-150976829D01*
X128399334Y-150904452D01*
X128328669Y-150808892D01*
X128227343Y-150786000D01*
X128064538Y-150730829D01*
X128006618Y-150659000D01*
X127881449Y-150562779D01*
X127633272Y-150532000D01*
X127408443Y-150508554D01*
X127262867Y-150450551D01*
X127248249Y-150434252D01*
X127238270Y-150376315D01*
X127285585Y-150396915D01*
X127372590Y-150400318D01*
X127383334Y-150365006D01*
X127314568Y-150261787D01*
X127235167Y-150218019D01*
X127076656Y-150125373D01*
X127027026Y-150073217D01*
X126935745Y-150032675D01*
X126869559Y-150080575D01*
X126849180Y-150164450D01*
X126924613Y-150303216D01*
X127109810Y-150518493D01*
X127237865Y-150651367D01*
X127474701Y-150876170D01*
X127680321Y-151043142D01*
X127816782Y-151122094D01*
X127832777Y-151124667D01*
X127964070Y-151171028D01*
X127990112Y-151208052D01*
X128082065Y-151266239D01*
X128292547Y-151333287D01*
X128526334Y-151384866D01*
X128829033Y-151446503D01*
X129083929Y-151508803D01*
X129203667Y-151546525D01*
X129683846Y-151725293D01*
X130076278Y-151841452D01*
X130351540Y-151886404D01*
X130367792Y-151886667D01*
X130584397Y-151919996D01*
X130828061Y-152003202D01*
X131043486Y-152111116D01*
X131175374Y-152218568D01*
X131192776Y-152262181D01*
X131149104Y-152389387D01*
X131043586Y-152577560D01*
X131032409Y-152594732D01*
X130941507Y-152802513D01*
X130882512Y-153072251D01*
X130857272Y-153356968D01*
X130867637Y-153609685D01*
X130915458Y-153783422D01*
X130983617Y-153834000D01*
X131084639Y-153861455D01*
X131094071Y-153963751D01*
X131011492Y-154170783D01*
X130977901Y-154239444D01*
X130897410Y-154445039D01*
X130912959Y-154595291D01*
X130955934Y-154675785D01*
X131083790Y-154827718D01*
X131188999Y-154820957D01*
X131241254Y-154756294D01*
X131317687Y-154717651D01*
X131371954Y-154777461D01*
X131426577Y-154818682D01*
X131446904Y-154702545D01*
X131447334Y-154680667D01*
X131461208Y-154544350D01*
X131508248Y-154560619D01*
X131533297Y-154596000D01*
X131613226Y-154680376D01*
X131691330Y-154614695D01*
X131704475Y-154596000D01*
X131752082Y-154568108D01*
X131756777Y-154667666D01*
X131725233Y-154860216D01*
X131664121Y-155111296D01*
X131580114Y-155386447D01*
X131518514Y-155556443D01*
X131406052Y-155806820D01*
X131287625Y-156012697D01*
X131185094Y-156143787D01*
X131120321Y-156169805D01*
X131118411Y-156162334D01*
X130939334Y-156162334D01*
X130897000Y-156204667D01*
X130854667Y-156162334D01*
X130897000Y-156120000D01*
X130939334Y-156162334D01*
X131118411Y-156162334D01*
X131108667Y-156124233D01*
X131039433Y-156027331D01*
X130876995Y-155927685D01*
X130658169Y-155806971D01*
X130510507Y-155696667D01*
X130225124Y-155442597D01*
X129995265Y-155266834D01*
X129848770Y-155190305D01*
X129834650Y-155188667D01*
X129674346Y-155143027D01*
X129430860Y-155025561D01*
X129156917Y-154865449D01*
X128905244Y-154691874D01*
X128833973Y-154634854D01*
X128643663Y-154485455D01*
X128559065Y-154442053D01*
X128568738Y-154488379D01*
X128661239Y-154608167D01*
X128825125Y-154785149D01*
X129048955Y-155003056D01*
X129171804Y-155115159D01*
X129478277Y-155389347D01*
X129776170Y-155656227D01*
X130016058Y-155871505D01*
X130081971Y-155930789D01*
X130318511Y-156121606D01*
X130549995Y-156274299D01*
X130621834Y-156311290D01*
X130786433Y-156401250D01*
X130854667Y-156471052D01*
X130925629Y-156533983D01*
X131098057Y-156611509D01*
X131114044Y-156617188D01*
X131289372Y-156664828D01*
X131389664Y-156623702D01*
X131476012Y-156461635D01*
X131495044Y-156416523D01*
X131575974Y-156193408D01*
X131615806Y-156025881D01*
X131616667Y-156010113D01*
X131652415Y-155889052D01*
X131748757Y-155655239D01*
X131889344Y-155346763D01*
X131998471Y-155120680D01*
X132170702Y-154765940D01*
X132278870Y-154512555D01*
X132334751Y-154310479D01*
X132350117Y-154109665D01*
X132336745Y-153860066D01*
X132325551Y-153730453D01*
X132288364Y-153405302D01*
X132242379Y-153133408D01*
X132197226Y-152971140D01*
X132195043Y-152966681D01*
X132164774Y-152795634D01*
X132169569Y-152511718D01*
X132202643Y-152166142D01*
X132257210Y-151810117D01*
X132326484Y-151494853D01*
X132403679Y-151271560D01*
X132424601Y-151234289D01*
X132547732Y-151034496D01*
X132699578Y-150772953D01*
X132753463Y-150676683D01*
X133173742Y-149909824D01*
X133516008Y-149267760D01*
X133789057Y-148729895D01*
X134001682Y-148275634D01*
X134162678Y-147884383D01*
X134280842Y-147535546D01*
X134364966Y-147208527D01*
X134423847Y-146882733D01*
X134446909Y-146711070D01*
X134519784Y-146351645D01*
X134644495Y-146111929D01*
X134705483Y-146046093D01*
X134846926Y-145848590D01*
X134968626Y-145571383D01*
X135003359Y-145451893D01*
X135082827Y-145196065D01*
X135109959Y-145155667D01*
X134072000Y-145155667D01*
X134029667Y-145198000D01*
X133987334Y-145155667D01*
X134029667Y-145113334D01*
X134072000Y-145155667D01*
X135109959Y-145155667D01*
X135202071Y-145018522D01*
X135409958Y-144855443D01*
X135507822Y-144793003D01*
X135715617Y-144652076D01*
X135863733Y-144507828D01*
X135984888Y-144314553D01*
X136111801Y-144026544D01*
X136178799Y-143855697D01*
X136298846Y-143531509D01*
X136390318Y-143259939D01*
X136438640Y-143085241D01*
X136442667Y-143054435D01*
X136489564Y-142922147D01*
X136609151Y-142714785D01*
X136696667Y-142586770D01*
X136899446Y-142214663D01*
X136950667Y-141940680D01*
X136949739Y-141931278D01*
X125598650Y-141931278D01*
X125583083Y-142041092D01*
X125554181Y-142042403D01*
X125535620Y-141938334D01*
X124589334Y-141938334D01*
X124547000Y-141980667D01*
X124504667Y-141938334D01*
X124547000Y-141896000D01*
X124589334Y-141938334D01*
X125535620Y-141938334D01*
X125533970Y-141929086D01*
X125547497Y-141880125D01*
X125585092Y-141848055D01*
X125598650Y-141931278D01*
X136949739Y-141931278D01*
X136930154Y-141732962D01*
X136841680Y-141631829D01*
X136717834Y-141592098D01*
X136267918Y-141486039D01*
X135961227Y-141403759D01*
X135774739Y-141336845D01*
X135685434Y-141276887D01*
X135670291Y-141215470D01*
X135671713Y-141209817D01*
X135713024Y-141065517D01*
X135783002Y-140822760D01*
X135834773Y-140643715D01*
X135887011Y-140428458D01*
X134067000Y-140428458D01*
X134040590Y-140557375D01*
X133964420Y-140661009D01*
X133631405Y-140881815D01*
X133240062Y-140964622D01*
X133230900Y-140964667D01*
X133050095Y-140983476D01*
X132971443Y-141028924D01*
X132971334Y-141030849D01*
X132897815Y-141091521D01*
X132711217Y-141170401D01*
X132590334Y-141209528D01*
X132365988Y-141289111D01*
X132229076Y-141363397D01*
X132209334Y-141391137D01*
X132163706Y-141457485D01*
X132013104Y-141503253D01*
X131736949Y-141531820D01*
X131314665Y-141546565D01*
X131256834Y-141547512D01*
X130895872Y-141541700D01*
X130671882Y-141512893D01*
X130600667Y-141466961D01*
X130534967Y-141414947D01*
X130435341Y-141429062D01*
X130312542Y-141439157D01*
X130299389Y-141329926D01*
X130302375Y-141313503D01*
X130295769Y-141208390D01*
X130202721Y-141134834D01*
X129987694Y-141069671D01*
X129896201Y-141048763D01*
X129517526Y-140975482D01*
X129072935Y-140904773D01*
X128619864Y-140844276D01*
X128215749Y-140801635D01*
X127918026Y-140784491D01*
X127909616Y-140784445D01*
X127621481Y-140850189D01*
X127486283Y-140959098D01*
X127320193Y-141081843D01*
X127030065Y-141189067D01*
X126599928Y-141285478D01*
X126121815Y-141361120D01*
X125896221Y-141384319D01*
X125806163Y-141365158D01*
X125821646Y-141296958D01*
X125823101Y-141294608D01*
X125898755Y-141121998D01*
X125960864Y-140892368D01*
X126002795Y-140652376D01*
X126017915Y-140448681D01*
X125999590Y-140327940D01*
X125961853Y-140318634D01*
X125915123Y-140298188D01*
X125922414Y-140179833D01*
X125972289Y-140021830D01*
X126045591Y-139892001D01*
X126058608Y-139775512D01*
X125996468Y-139722346D01*
X125953556Y-139672866D01*
X125920116Y-139564935D01*
X125894538Y-139378423D01*
X125875212Y-139093199D01*
X125860529Y-138689133D01*
X125848880Y-138146096D01*
X125843606Y-137810423D01*
X125837687Y-137272262D01*
X125835999Y-136795673D01*
X125838335Y-136405045D01*
X125844486Y-136124766D01*
X125854245Y-135979223D01*
X125859334Y-135964144D01*
X125961559Y-135953566D01*
X126173290Y-135932373D01*
X126305101Y-135919322D01*
X126600358Y-135876886D01*
X126861190Y-135817756D01*
X126930677Y-135795054D01*
X127114096Y-135750681D01*
X127209939Y-135771889D01*
X127185806Y-135843337D01*
X127126882Y-135887974D01*
X127063268Y-135947719D01*
X127152023Y-135967385D01*
X127187837Y-135968037D01*
X127358683Y-136003730D01*
X127425667Y-136054000D01*
X127405562Y-136125729D01*
X127341000Y-136138667D01*
X127251205Y-136180891D01*
X127259901Y-136229106D01*
X127375453Y-136284406D01*
X127436152Y-136273359D01*
X127578225Y-136293615D01*
X127725442Y-136396108D01*
X127932692Y-136544242D01*
X128255493Y-136681845D01*
X128711989Y-136815283D01*
X129288334Y-136944459D01*
X129888254Y-137078769D01*
X130332409Y-137207679D01*
X130634089Y-137335462D01*
X130755614Y-137416166D01*
X130900050Y-137511736D01*
X131146258Y-137651263D01*
X131443128Y-137805899D01*
X131468171Y-137818374D01*
X131806955Y-138005847D01*
X132069638Y-138208991D01*
X132318433Y-138480831D01*
X132461544Y-138665040D01*
X132678330Y-138963788D01*
X132868630Y-139244124D01*
X132997221Y-139453772D01*
X133012627Y-139483000D01*
X133180134Y-139780118D01*
X133336210Y-139948757D01*
X133521127Y-140021685D01*
X133689042Y-140033334D01*
X133894790Y-140045219D01*
X133971739Y-140097296D01*
X133962802Y-140202667D01*
X133958053Y-140337675D01*
X133995260Y-140372000D01*
X134067000Y-140428458D01*
X135887011Y-140428458D01*
X135888605Y-140421892D01*
X135918713Y-140186585D01*
X135926333Y-139897975D01*
X135912706Y-139516246D01*
X135883814Y-139067371D01*
X135849222Y-138607130D01*
X135815751Y-138275731D01*
X135773508Y-138033040D01*
X135712601Y-137838925D01*
X135623136Y-137653251D01*
X135495221Y-137435886D01*
X135472466Y-137398656D01*
X134818312Y-136435000D01*
X128060667Y-136435000D01*
X128018334Y-136477334D01*
X127976000Y-136435000D01*
X128018334Y-136392667D01*
X128060667Y-136435000D01*
X134818312Y-136435000D01*
X134743947Y-136325451D01*
X134400626Y-135908936D01*
X129909686Y-135908936D01*
X129889085Y-135956252D01*
X129803835Y-136047145D01*
X129754825Y-136028500D01*
X129754000Y-136016664D01*
X129814137Y-135945051D01*
X129851749Y-135918915D01*
X129909686Y-135908936D01*
X134400626Y-135908936D01*
X134220297Y-135690163D01*
X129955137Y-135690163D01*
X129838667Y-135701965D01*
X129718472Y-135688660D01*
X129732834Y-135659260D01*
X129906176Y-135648078D01*
X129944500Y-135659260D01*
X129955137Y-135690163D01*
X134220297Y-135690163D01*
X134054941Y-135489556D01*
X130911112Y-135489556D01*
X130899489Y-135539890D01*
X130854667Y-135546000D01*
X130784977Y-135515022D01*
X130798223Y-135489556D01*
X130898702Y-135479423D01*
X130911112Y-135489556D01*
X134054941Y-135489556D01*
X133998083Y-135420576D01*
X130549143Y-135420576D01*
X130527875Y-135442278D01*
X130353153Y-135452130D01*
X130325500Y-135452894D01*
X130121542Y-135438408D01*
X130013289Y-135391911D01*
X130008000Y-135376667D01*
X130060668Y-135308889D01*
X130231084Y-135320720D01*
X130431334Y-135376667D01*
X130549143Y-135420576D01*
X133998083Y-135420576D01*
X133946975Y-135358574D01*
X131206486Y-135358574D01*
X131096678Y-135349536D01*
X130902056Y-135296791D01*
X130770000Y-135249667D01*
X130606220Y-135174213D01*
X130602383Y-135136669D01*
X130643000Y-135132927D01*
X130839507Y-135165859D01*
X131066334Y-135246609D01*
X131205149Y-135324174D01*
X131206486Y-135358574D01*
X133946975Y-135358574D01*
X133933443Y-135342158D01*
X133662157Y-135054026D01*
X133389167Y-134783623D01*
X133256254Y-134668652D01*
X130641085Y-134668652D01*
X130600667Y-134699334D01*
X130507259Y-134755658D01*
X130422329Y-134772760D01*
X130292628Y-134746562D01*
X130064909Y-134672982D01*
X130008000Y-134653922D01*
X129804410Y-134582580D01*
X129755612Y-134554012D01*
X129854348Y-134561864D01*
X129912750Y-134570540D01*
X130204774Y-134603102D01*
X130463084Y-134615963D01*
X130628172Y-134628111D01*
X130641085Y-134668652D01*
X133256254Y-134668652D01*
X133146314Y-134573554D01*
X132890184Y-134394438D01*
X132855820Y-134374934D01*
X131346209Y-134374934D01*
X131323604Y-134416155D01*
X131235667Y-134453926D01*
X131015067Y-134490948D01*
X130897000Y-134477981D01*
X130705286Y-134429089D01*
X130446209Y-134364242D01*
X130389000Y-134350061D01*
X130155427Y-134278553D01*
X129992926Y-134204192D01*
X129969900Y-134186478D01*
X129911563Y-134159611D01*
X129003750Y-134159611D01*
X128891293Y-134174269D01*
X128865000Y-134174828D01*
X128720405Y-134165676D01*
X128707674Y-134139172D01*
X128715222Y-134135798D01*
X128883302Y-134119049D01*
X128969222Y-134132660D01*
X129003750Y-134159611D01*
X129911563Y-134159611D01*
X129829122Y-134121643D01*
X129673567Y-134097600D01*
X129588801Y-134081420D01*
X129666614Y-134045497D01*
X129820985Y-134007261D01*
X130128387Y-133969126D01*
X130416118Y-134019103D01*
X130555312Y-134067680D01*
X130797351Y-134139397D01*
X130982480Y-134157683D01*
X131030576Y-134144936D01*
X131095581Y-134128652D01*
X131078186Y-134172156D01*
X131101727Y-134263512D01*
X131213271Y-134324765D01*
X131346209Y-134374934D01*
X132855820Y-134374934D01*
X132577361Y-134216893D01*
X132164430Y-134011535D01*
X132020238Y-133942812D01*
X131372517Y-133651789D01*
X131345414Y-133641000D01*
X128738000Y-133641000D01*
X128695667Y-133683334D01*
X128653334Y-133641000D01*
X128695667Y-133598667D01*
X128738000Y-133641000D01*
X131345414Y-133641000D01*
X130770967Y-133412330D01*
X130241289Y-133233223D01*
X129809184Y-133123260D01*
X129528631Y-133090667D01*
X129260241Y-133066094D01*
X129033775Y-133018952D01*
X128766133Y-132987103D01*
X128385387Y-132997891D01*
G37*
X128385387Y-132997891D02*
X127940694Y-133045539D01*
X127481214Y-133124268D01*
X127056107Y-133228299D01*
X126937111Y-133265407D01*
X126189415Y-133587188D01*
X125463083Y-134036703D01*
X124818000Y-134576791D01*
X124808114Y-134586510D01*
X124475121Y-134940288D01*
X124189822Y-135291780D01*
X123973968Y-135610212D01*
X123849308Y-135864809D01*
X123827334Y-135974278D01*
X123771557Y-136090398D01*
X123620617Y-136295003D01*
X123399098Y-136556851D01*
X123190779Y-136783202D01*
X122859606Y-137154447D01*
X122601450Y-137509745D01*
X122410278Y-137874954D01*
X122280059Y-138275933D01*
X122204761Y-138738539D01*
X122178351Y-139288630D01*
X122194797Y-139952064D01*
X122248067Y-140754700D01*
X122252204Y-140806618D01*
X122317655Y-141622236D01*
X122655083Y-141626893D01*
X122866989Y-141651294D01*
X123068453Y-141734749D01*
X123309576Y-141902315D01*
X123473423Y-142036186D01*
X123824660Y-142333570D01*
X124069939Y-142548843D01*
X124233874Y-142707710D01*
X124341079Y-142835878D01*
X124416167Y-142959054D01*
X124474154Y-143081334D01*
X124562962Y-143264991D01*
X124619155Y-143309519D01*
X124674204Y-143232528D01*
X124689030Y-143201577D01*
X124819988Y-143033792D01*
X125014023Y-142882334D01*
X125199903Y-142732944D01*
X125309055Y-142573137D01*
X125309554Y-142571590D01*
X125426101Y-142440394D01*
X125618789Y-142406744D01*
X125821967Y-142475620D01*
X125886418Y-142527847D01*
X125975505Y-142678169D01*
X126068168Y-142927524D01*
X126114900Y-143099347D01*
X126317764Y-143753406D01*
X126590925Y-144258258D01*
X126944295Y-144622895D01*
X127387787Y-144856312D01*
X127931314Y-144967500D01*
X128187667Y-144979872D01*
X128751007Y-144967680D01*
X129182826Y-144911715D01*
X129517147Y-144803837D01*
X129787990Y-144635908D01*
X129851790Y-144581782D01*
X130037752Y-144386485D01*
X130252223Y-144118576D01*
X130468157Y-143817815D01*
X130658507Y-143523959D01*
X130796228Y-143276764D01*
X130854274Y-143115989D01*
X130854667Y-143107562D01*
X130909951Y-142916821D01*
X131041944Y-142724492D01*
X131199856Y-142594763D01*
X131277371Y-142573334D01*
X131403904Y-142597741D01*
X131507213Y-142689016D01*
X131602795Y-142874235D01*
X131706148Y-143180475D01*
X131786227Y-143462334D01*
X131888348Y-143810423D01*
X131991541Y-144120784D01*
X132076536Y-144336272D01*
X132090415Y-144364397D01*
X132202410Y-144711839D01*
X132168297Y-145013690D01*
X132009517Y-145248866D01*
X131747515Y-145396280D01*
X131403731Y-145434845D01*
X131069469Y-145368368D01*
X130811318Y-145311579D01*
X130553105Y-145333887D01*
X130383742Y-145378025D01*
X130167845Y-145460247D01*
X130047061Y-145542821D01*
X130036922Y-145576558D01*
X130081083Y-145629363D01*
X130189067Y-145650576D01*
X130397010Y-145642210D01*
X130685334Y-145612665D01*
X130981667Y-145579000D01*
X130973794Y-145946492D01*
X130975535Y-146174021D01*
X131013852Y-146274438D01*
X131118771Y-146289835D01*
X131210355Y-146278109D01*
X131399168Y-146273914D01*
X131498392Y-146312783D01*
X131610144Y-146372980D01*
X131697272Y-146383334D01*
X131852843Y-146444027D01*
X131901285Y-146510333D01*
X132014436Y-146622964D01*
X132079677Y-146637334D01*
X132195009Y-146685159D01*
X132192640Y-146802428D01*
X132084663Y-146949826D01*
X131952803Y-147049828D01*
X131839576Y-147108458D01*
X131705604Y-147148866D01*
X131521755Y-147173193D01*
X131258900Y-147183581D01*
X130887907Y-147182171D01*
X130379646Y-147171103D01*
X130322970Y-147169622D01*
X129846164Y-147158107D01*
X129419512Y-147149780D01*
X129075954Y-147145130D01*
X128848431Y-147144649D01*
X128780334Y-147146640D01*
X128550254Y-147163848D01*
X128452812Y-147170745D01*
X128306476Y-147253931D01*
X128175427Y-147440439D01*
X128092633Y-147665184D01*
X128091060Y-147863080D01*
X128095544Y-147876098D01*
X128157258Y-147974116D01*
X128223118Y-147918470D01*
X128348049Y-147796763D01*
X128493730Y-147705079D01*
X128669806Y-147648954D01*
X128848272Y-147692360D01*
X128949667Y-147744700D01*
X129139665Y-147824095D01*
X129410175Y-147905996D01*
X129712441Y-147979697D01*
X129997708Y-148034491D01*
X130217222Y-148059673D01*
X130321043Y-148045846D01*
X130331560Y-147949705D01*
X130245421Y-147864979D01*
X130132627Y-147854195D01*
X129997881Y-147844754D01*
X129895316Y-147751702D01*
X129870029Y-147634287D01*
X129917854Y-147572053D01*
X130106172Y-147517751D01*
X130380697Y-147501379D01*
X130662803Y-147522094D01*
X130873864Y-147579053D01*
X130880283Y-147582376D01*
X131100781Y-147663515D01*
X131252133Y-147693287D01*
X131476739Y-147760553D01*
X131586409Y-147872772D01*
X131576875Y-147987993D01*
X131443873Y-148064268D01*
X131290771Y-148073196D01*
X130937654Y-148063746D01*
X130714000Y-148087080D01*
X130636287Y-148140956D01*
X130643000Y-148161334D01*
X130622895Y-148233063D01*
X130558334Y-148246000D01*
X130466886Y-148285824D01*
X130473667Y-148330667D01*
X130587114Y-148389332D01*
X130788837Y-148414041D01*
X130796164Y-148414037D01*
X130964227Y-148401973D01*
X130980072Y-148361931D01*
X130939334Y-148330667D01*
X130872202Y-148268686D01*
X130956055Y-148248185D01*
X131000177Y-148247297D01*
X131135796Y-148277723D01*
X131137951Y-148391240D01*
X131136953Y-148394167D01*
X131113885Y-148484334D01*
X131163778Y-148440948D01*
X131212033Y-148380410D01*
X131361041Y-148274281D01*
X131503560Y-148286385D01*
X131580665Y-148401799D01*
X131579984Y-148473596D01*
X131498521Y-148592326D01*
X131375040Y-148600512D01*
X131223912Y-148625453D01*
X131193334Y-148706345D01*
X131121646Y-148815041D01*
X131009501Y-148838667D01*
X130802362Y-148894285D01*
X130668833Y-148980600D01*
X130525717Y-149070934D01*
X130415389Y-149025885D01*
X130412400Y-149022933D01*
X130237020Y-148923485D01*
X130071629Y-148937106D01*
X129967551Y-149041947D01*
X129973577Y-149209750D01*
X130082102Y-149324251D01*
X130300342Y-149462360D01*
X130575863Y-149598897D01*
X130856227Y-149708681D01*
X131088999Y-149766533D01*
X131140246Y-149770000D01*
X131492871Y-149823778D01*
X131732610Y-149969715D01*
X131843925Y-150184719D01*
X131811275Y-150445694D01*
X131712222Y-150620048D01*
X131592041Y-150799532D01*
X131532763Y-150921239D01*
X131531465Y-150930738D01*
X131464848Y-151013442D01*
X131302637Y-151127244D01*
X131277465Y-151141896D01*
X131105472Y-151217405D01*
X131025550Y-151205436D01*
X131024000Y-151195521D01*
X130957263Y-151139975D01*
X130861002Y-151147542D01*
X130742071Y-151149168D01*
X130741700Y-151051584D01*
X130720987Y-151024434D01*
X130619405Y-151110179D01*
X130539019Y-151198002D01*
X130347409Y-151385861D01*
X130153472Y-151468193D01*
X129917488Y-151485585D01*
X129631016Y-151477463D01*
X129381252Y-151454062D01*
X129330667Y-151445480D01*
X129088821Y-151369561D01*
X128827353Y-151247539D01*
X128594310Y-151107325D01*
X128437739Y-150976829D01*
X128399334Y-150904452D01*
X128328669Y-150808892D01*
X128227343Y-150786000D01*
X128064538Y-150730829D01*
X128006618Y-150659000D01*
X127881449Y-150562779D01*
X127633272Y-150532000D01*
X127408443Y-150508554D01*
X127262867Y-150450551D01*
X127248249Y-150434252D01*
X127238270Y-150376315D01*
X127285585Y-150396915D01*
X127372590Y-150400318D01*
X127383334Y-150365006D01*
X127314568Y-150261787D01*
X127235167Y-150218019D01*
X127076656Y-150125373D01*
X127027026Y-150073217D01*
X126935745Y-150032675D01*
X126869559Y-150080575D01*
X126849180Y-150164450D01*
X126924613Y-150303216D01*
X127109810Y-150518493D01*
X127237865Y-150651367D01*
X127474701Y-150876170D01*
X127680321Y-151043142D01*
X127816782Y-151122094D01*
X127832777Y-151124667D01*
X127964070Y-151171028D01*
X127990112Y-151208052D01*
X128082065Y-151266239D01*
X128292547Y-151333287D01*
X128526334Y-151384866D01*
X128829033Y-151446503D01*
X129083929Y-151508803D01*
X129203667Y-151546525D01*
X129683846Y-151725293D01*
X130076278Y-151841452D01*
X130351540Y-151886404D01*
X130367792Y-151886667D01*
X130584397Y-151919996D01*
X130828061Y-152003202D01*
X131043486Y-152111116D01*
X131175374Y-152218568D01*
X131192776Y-152262181D01*
X131149104Y-152389387D01*
X131043586Y-152577560D01*
X131032409Y-152594732D01*
X130941507Y-152802513D01*
X130882512Y-153072251D01*
X130857272Y-153356968D01*
X130867637Y-153609685D01*
X130915458Y-153783422D01*
X130983617Y-153834000D01*
X131084639Y-153861455D01*
X131094071Y-153963751D01*
X131011492Y-154170783D01*
X130977901Y-154239444D01*
X130897410Y-154445039D01*
X130912959Y-154595291D01*
X130955934Y-154675785D01*
X131083790Y-154827718D01*
X131188999Y-154820957D01*
X131241254Y-154756294D01*
X131317687Y-154717651D01*
X131371954Y-154777461D01*
X131426577Y-154818682D01*
X131446904Y-154702545D01*
X131447334Y-154680667D01*
X131461208Y-154544350D01*
X131508248Y-154560619D01*
X131533297Y-154596000D01*
X131613226Y-154680376D01*
X131691330Y-154614695D01*
X131704475Y-154596000D01*
X131752082Y-154568108D01*
X131756777Y-154667666D01*
X131725233Y-154860216D01*
X131664121Y-155111296D01*
X131580114Y-155386447D01*
X131518514Y-155556443D01*
X131406052Y-155806820D01*
X131287625Y-156012697D01*
X131185094Y-156143787D01*
X131120321Y-156169805D01*
X131118411Y-156162334D01*
X130939334Y-156162334D01*
X130897000Y-156204667D01*
X130854667Y-156162334D01*
X130897000Y-156120000D01*
X130939334Y-156162334D01*
X131118411Y-156162334D01*
X131108667Y-156124233D01*
X131039433Y-156027331D01*
X130876995Y-155927685D01*
X130658169Y-155806971D01*
X130510507Y-155696667D01*
X130225124Y-155442597D01*
X129995265Y-155266834D01*
X129848770Y-155190305D01*
X129834650Y-155188667D01*
X129674346Y-155143027D01*
X129430860Y-155025561D01*
X129156917Y-154865449D01*
X128905244Y-154691874D01*
X128833973Y-154634854D01*
X128643663Y-154485455D01*
X128559065Y-154442053D01*
X128568738Y-154488379D01*
X128661239Y-154608167D01*
X128825125Y-154785149D01*
X129048955Y-155003056D01*
X129171804Y-155115159D01*
X129478277Y-155389347D01*
X129776170Y-155656227D01*
X130016058Y-155871505D01*
X130081971Y-155930789D01*
X130318511Y-156121606D01*
X130549995Y-156274299D01*
X130621834Y-156311290D01*
X130786433Y-156401250D01*
X130854667Y-156471052D01*
X130925629Y-156533983D01*
X131098057Y-156611509D01*
X131114044Y-156617188D01*
X131289372Y-156664828D01*
X131389664Y-156623702D01*
X131476012Y-156461635D01*
X131495044Y-156416523D01*
X131575974Y-156193408D01*
X131615806Y-156025881D01*
X131616667Y-156010113D01*
X131652415Y-155889052D01*
X131748757Y-155655239D01*
X131889344Y-155346763D01*
X131998471Y-155120680D01*
X132170702Y-154765940D01*
X132278870Y-154512555D01*
X132334751Y-154310479D01*
X132350117Y-154109665D01*
X132336745Y-153860066D01*
X132325551Y-153730453D01*
X132288364Y-153405302D01*
X132242379Y-153133408D01*
X132197226Y-152971140D01*
X132195043Y-152966681D01*
X132164774Y-152795634D01*
X132169569Y-152511718D01*
X132202643Y-152166142D01*
X132257210Y-151810117D01*
X132326484Y-151494853D01*
X132403679Y-151271560D01*
X132424601Y-151234289D01*
X132547732Y-151034496D01*
X132699578Y-150772953D01*
X132753463Y-150676683D01*
X133173742Y-149909824D01*
X133516008Y-149267760D01*
X133789057Y-148729895D01*
X134001682Y-148275634D01*
X134162678Y-147884383D01*
X134280842Y-147535546D01*
X134364966Y-147208527D01*
X134423847Y-146882733D01*
X134446909Y-146711070D01*
X134519784Y-146351645D01*
X134644495Y-146111929D01*
X134705483Y-146046093D01*
X134846926Y-145848590D01*
X134968626Y-145571383D01*
X135003359Y-145451893D01*
X135082827Y-145196065D01*
X135109959Y-145155667D01*
X134072000Y-145155667D01*
X134029667Y-145198000D01*
X133987334Y-145155667D01*
X134029667Y-145113334D01*
X134072000Y-145155667D01*
X135109959Y-145155667D01*
X135202071Y-145018522D01*
X135409958Y-144855443D01*
X135507822Y-144793003D01*
X135715617Y-144652076D01*
X135863733Y-144507828D01*
X135984888Y-144314553D01*
X136111801Y-144026544D01*
X136178799Y-143855697D01*
X136298846Y-143531509D01*
X136390318Y-143259939D01*
X136438640Y-143085241D01*
X136442667Y-143054435D01*
X136489564Y-142922147D01*
X136609151Y-142714785D01*
X136696667Y-142586770D01*
X136899446Y-142214663D01*
X136950667Y-141940680D01*
X136949739Y-141931278D01*
X125598650Y-141931278D01*
X125583083Y-142041092D01*
X125554181Y-142042403D01*
X125535620Y-141938334D01*
X124589334Y-141938334D01*
X124547000Y-141980667D01*
X124504667Y-141938334D01*
X124547000Y-141896000D01*
X124589334Y-141938334D01*
X125535620Y-141938334D01*
X125533970Y-141929086D01*
X125547497Y-141880125D01*
X125585092Y-141848055D01*
X125598650Y-141931278D01*
X136949739Y-141931278D01*
X136930154Y-141732962D01*
X136841680Y-141631829D01*
X136717834Y-141592098D01*
X136267918Y-141486039D01*
X135961227Y-141403759D01*
X135774739Y-141336845D01*
X135685434Y-141276887D01*
X135670291Y-141215470D01*
X135671713Y-141209817D01*
X135713024Y-141065517D01*
X135783002Y-140822760D01*
X135834773Y-140643715D01*
X135887011Y-140428458D01*
X134067000Y-140428458D01*
X134040590Y-140557375D01*
X133964420Y-140661009D01*
X133631405Y-140881815D01*
X133240062Y-140964622D01*
X133230900Y-140964667D01*
X133050095Y-140983476D01*
X132971443Y-141028924D01*
X132971334Y-141030849D01*
X132897815Y-141091521D01*
X132711217Y-141170401D01*
X132590334Y-141209528D01*
X132365988Y-141289111D01*
X132229076Y-141363397D01*
X132209334Y-141391137D01*
X132163706Y-141457485D01*
X132013104Y-141503253D01*
X131736949Y-141531820D01*
X131314665Y-141546565D01*
X131256834Y-141547512D01*
X130895872Y-141541700D01*
X130671882Y-141512893D01*
X130600667Y-141466961D01*
X130534967Y-141414947D01*
X130435341Y-141429062D01*
X130312542Y-141439157D01*
X130299389Y-141329926D01*
X130302375Y-141313503D01*
X130295769Y-141208390D01*
X130202721Y-141134834D01*
X129987694Y-141069671D01*
X129896201Y-141048763D01*
X129517526Y-140975482D01*
X129072935Y-140904773D01*
X128619864Y-140844276D01*
X128215749Y-140801635D01*
X127918026Y-140784491D01*
X127909616Y-140784445D01*
X127621481Y-140850189D01*
X127486283Y-140959098D01*
X127320193Y-141081843D01*
X127030065Y-141189067D01*
X126599928Y-141285478D01*
X126121815Y-141361120D01*
X125896221Y-141384319D01*
X125806163Y-141365158D01*
X125821646Y-141296958D01*
X125823101Y-141294608D01*
X125898755Y-141121998D01*
X125960864Y-140892368D01*
X126002795Y-140652376D01*
X126017915Y-140448681D01*
X125999590Y-140327940D01*
X125961853Y-140318634D01*
X125915123Y-140298188D01*
X125922414Y-140179833D01*
X125972289Y-140021830D01*
X126045591Y-139892001D01*
X126058608Y-139775512D01*
X125996468Y-139722346D01*
X125953556Y-139672866D01*
X125920116Y-139564935D01*
X125894538Y-139378423D01*
X125875212Y-139093199D01*
X125860529Y-138689133D01*
X125848880Y-138146096D01*
X125843606Y-137810423D01*
X125837687Y-137272262D01*
X125835999Y-136795673D01*
X125838335Y-136405045D01*
X125844486Y-136124766D01*
X125854245Y-135979223D01*
X125859334Y-135964144D01*
X125961559Y-135953566D01*
X126173290Y-135932373D01*
X126305101Y-135919322D01*
X126600358Y-135876886D01*
X126861190Y-135817756D01*
X126930677Y-135795054D01*
X127114096Y-135750681D01*
X127209939Y-135771889D01*
X127185806Y-135843337D01*
X127126882Y-135887974D01*
X127063268Y-135947719D01*
X127152023Y-135967385D01*
X127187837Y-135968037D01*
X127358683Y-136003730D01*
X127425667Y-136054000D01*
X127405562Y-136125729D01*
X127341000Y-136138667D01*
X127251205Y-136180891D01*
X127259901Y-136229106D01*
X127375453Y-136284406D01*
X127436152Y-136273359D01*
X127578225Y-136293615D01*
X127725442Y-136396108D01*
X127932692Y-136544242D01*
X128255493Y-136681845D01*
X128711989Y-136815283D01*
X129288334Y-136944459D01*
X129888254Y-137078769D01*
X130332409Y-137207679D01*
X130634089Y-137335462D01*
X130755614Y-137416166D01*
X130900050Y-137511736D01*
X131146258Y-137651263D01*
X131443128Y-137805899D01*
X131468171Y-137818374D01*
X131806955Y-138005847D01*
X132069638Y-138208991D01*
X132318433Y-138480831D01*
X132461544Y-138665040D01*
X132678330Y-138963788D01*
X132868630Y-139244124D01*
X132997221Y-139453772D01*
X133012627Y-139483000D01*
X133180134Y-139780118D01*
X133336210Y-139948757D01*
X133521127Y-140021685D01*
X133689042Y-140033334D01*
X133894790Y-140045219D01*
X133971739Y-140097296D01*
X133962802Y-140202667D01*
X133958053Y-140337675D01*
X133995260Y-140372000D01*
X134067000Y-140428458D01*
X135887011Y-140428458D01*
X135888605Y-140421892D01*
X135918713Y-140186585D01*
X135926333Y-139897975D01*
X135912706Y-139516246D01*
X135883814Y-139067371D01*
X135849222Y-138607130D01*
X135815751Y-138275731D01*
X135773508Y-138033040D01*
X135712601Y-137838925D01*
X135623136Y-137653251D01*
X135495221Y-137435886D01*
X135472466Y-137398656D01*
X134818312Y-136435000D01*
X128060667Y-136435000D01*
X128018334Y-136477334D01*
X127976000Y-136435000D01*
X128018334Y-136392667D01*
X128060667Y-136435000D01*
X134818312Y-136435000D01*
X134743947Y-136325451D01*
X134400626Y-135908936D01*
X129909686Y-135908936D01*
X129889085Y-135956252D01*
X129803835Y-136047145D01*
X129754825Y-136028500D01*
X129754000Y-136016664D01*
X129814137Y-135945051D01*
X129851749Y-135918915D01*
X129909686Y-135908936D01*
X134400626Y-135908936D01*
X134220297Y-135690163D01*
X129955137Y-135690163D01*
X129838667Y-135701965D01*
X129718472Y-135688660D01*
X129732834Y-135659260D01*
X129906176Y-135648078D01*
X129944500Y-135659260D01*
X129955137Y-135690163D01*
X134220297Y-135690163D01*
X134054941Y-135489556D01*
X130911112Y-135489556D01*
X130899489Y-135539890D01*
X130854667Y-135546000D01*
X130784977Y-135515022D01*
X130798223Y-135489556D01*
X130898702Y-135479423D01*
X130911112Y-135489556D01*
X134054941Y-135489556D01*
X133998083Y-135420576D01*
X130549143Y-135420576D01*
X130527875Y-135442278D01*
X130353153Y-135452130D01*
X130325500Y-135452894D01*
X130121542Y-135438408D01*
X130013289Y-135391911D01*
X130008000Y-135376667D01*
X130060668Y-135308889D01*
X130231084Y-135320720D01*
X130431334Y-135376667D01*
X130549143Y-135420576D01*
X133998083Y-135420576D01*
X133946975Y-135358574D01*
X131206486Y-135358574D01*
X131096678Y-135349536D01*
X130902056Y-135296791D01*
X130770000Y-135249667D01*
X130606220Y-135174213D01*
X130602383Y-135136669D01*
X130643000Y-135132927D01*
X130839507Y-135165859D01*
X131066334Y-135246609D01*
X131205149Y-135324174D01*
X131206486Y-135358574D01*
X133946975Y-135358574D01*
X133933443Y-135342158D01*
X133662157Y-135054026D01*
X133389167Y-134783623D01*
X133256254Y-134668652D01*
X130641085Y-134668652D01*
X130600667Y-134699334D01*
X130507259Y-134755658D01*
X130422329Y-134772760D01*
X130292628Y-134746562D01*
X130064909Y-134672982D01*
X130008000Y-134653922D01*
X129804410Y-134582580D01*
X129755612Y-134554012D01*
X129854348Y-134561864D01*
X129912750Y-134570540D01*
X130204774Y-134603102D01*
X130463084Y-134615963D01*
X130628172Y-134628111D01*
X130641085Y-134668652D01*
X133256254Y-134668652D01*
X133146314Y-134573554D01*
X132890184Y-134394438D01*
X132855820Y-134374934D01*
X131346209Y-134374934D01*
X131323604Y-134416155D01*
X131235667Y-134453926D01*
X131015067Y-134490948D01*
X130897000Y-134477981D01*
X130705286Y-134429089D01*
X130446209Y-134364242D01*
X130389000Y-134350061D01*
X130155427Y-134278553D01*
X129992926Y-134204192D01*
X129969900Y-134186478D01*
X129911563Y-134159611D01*
X129003750Y-134159611D01*
X128891293Y-134174269D01*
X128865000Y-134174828D01*
X128720405Y-134165676D01*
X128707674Y-134139172D01*
X128715222Y-134135798D01*
X128883302Y-134119049D01*
X128969222Y-134132660D01*
X129003750Y-134159611D01*
X129911563Y-134159611D01*
X129829122Y-134121643D01*
X129673567Y-134097600D01*
X129588801Y-134081420D01*
X129666614Y-134045497D01*
X129820985Y-134007261D01*
X130128387Y-133969126D01*
X130416118Y-134019103D01*
X130555312Y-134067680D01*
X130797351Y-134139397D01*
X130982480Y-134157683D01*
X131030576Y-134144936D01*
X131095581Y-134128652D01*
X131078186Y-134172156D01*
X131101727Y-134263512D01*
X131213271Y-134324765D01*
X131346209Y-134374934D01*
X132855820Y-134374934D01*
X132577361Y-134216893D01*
X132164430Y-134011535D01*
X132020238Y-133942812D01*
X131372517Y-133651789D01*
X131345414Y-133641000D01*
X128738000Y-133641000D01*
X128695667Y-133683334D01*
X128653334Y-133641000D01*
X128695667Y-133598667D01*
X128738000Y-133641000D01*
X131345414Y-133641000D01*
X130770967Y-133412330D01*
X130241289Y-133233223D01*
X129809184Y-133123260D01*
X129528631Y-133090667D01*
X129260241Y-133066094D01*
X129033775Y-133018952D01*
X128766133Y-132987103D01*
X128385387Y-132997891D01*
G36*
X116325350Y-156543378D02*
G01*
X116207334Y-156598357D01*
X116008521Y-156714517D01*
X115968202Y-156779637D01*
X116081509Y-156787249D01*
X116313167Y-156738971D01*
X116438969Y-156651993D01*
X116461334Y-156585948D01*
X116433856Y-156521023D01*
X116325350Y-156543378D01*
G37*
X116325350Y-156543378D02*
X116207334Y-156598357D01*
X116008521Y-156714517D01*
X115968202Y-156779637D01*
X116081509Y-156787249D01*
X116313167Y-156738971D01*
X116438969Y-156651993D01*
X116461334Y-156585948D01*
X116433856Y-156521023D01*
X116325350Y-156543378D01*
G36*
X116736046Y-156299271D02*
G01*
X116730705Y-156302949D01*
X116617247Y-156439062D01*
X116639383Y-156606834D01*
X116726120Y-156746090D01*
X116823854Y-156800470D01*
X116882143Y-156747181D01*
X116884667Y-156717664D01*
X116823050Y-156603203D01*
X116798619Y-156584813D01*
X116741945Y-156496372D01*
X116805874Y-156423732D01*
X116943944Y-156410320D01*
X116976459Y-156418595D01*
X117108467Y-156422995D01*
X117138667Y-156377048D01*
X117072673Y-156263643D01*
X116917207Y-156233856D01*
X116736046Y-156299271D01*
G37*
X116736046Y-156299271D02*
X116730705Y-156302949D01*
X116617247Y-156439062D01*
X116639383Y-156606834D01*
X116726120Y-156746090D01*
X116823854Y-156800470D01*
X116882143Y-156747181D01*
X116884667Y-156717664D01*
X116823050Y-156603203D01*
X116798619Y-156584813D01*
X116741945Y-156496372D01*
X116805874Y-156423732D01*
X116943944Y-156410320D01*
X116976459Y-156418595D01*
X117108467Y-156422995D01*
X117138667Y-156377048D01*
X117072673Y-156263643D01*
X116917207Y-156233856D01*
X116736046Y-156299271D01*
G36*
X116990532Y-156931229D02*
G01*
X116988737Y-156982542D01*
X117073009Y-157094350D01*
X117174463Y-157108566D01*
X117223334Y-157016056D01*
X117155164Y-156899424D01*
X117089278Y-156882000D01*
X116990532Y-156931229D01*
G37*
X116990532Y-156931229D02*
X116988737Y-156982542D01*
X117073009Y-157094350D01*
X117174463Y-157108566D01*
X117223334Y-157016056D01*
X117155164Y-156899424D01*
X117089278Y-156882000D01*
X116990532Y-156931229D01*
G36*
X131222104Y-157103499D02*
G01*
X131235667Y-157136000D01*
X131347826Y-157217506D01*
X131372661Y-157220667D01*
X131418564Y-157168501D01*
X131405000Y-157136000D01*
X131292841Y-157054494D01*
X131268007Y-157051334D01*
X131222104Y-157103499D01*
G37*
X131222104Y-157103499D02*
X131235667Y-157136000D01*
X131347826Y-157217506D01*
X131372661Y-157220667D01*
X131418564Y-157168501D01*
X131405000Y-157136000D01*
X131292841Y-157054494D01*
X131268007Y-157051334D01*
X131222104Y-157103499D01*
G36*
X116122667Y-157178334D02*
G01*
X116041897Y-157254416D01*
X116038000Y-157267997D01*
X116103506Y-157304363D01*
X116122667Y-157305334D01*
X116204080Y-157240246D01*
X116207334Y-157215670D01*
X116155464Y-157165104D01*
X116122667Y-157178334D01*
G37*
X116122667Y-157178334D02*
X116041897Y-157254416D01*
X116038000Y-157267997D01*
X116103506Y-157304363D01*
X116122667Y-157305334D01*
X116204080Y-157240246D01*
X116207334Y-157215670D01*
X116155464Y-157165104D01*
X116122667Y-157178334D01*
G36*
X115840316Y-156895716D02*
G01*
X115743246Y-156939841D01*
X115750560Y-156981055D01*
X115754661Y-157044655D01*
X115671093Y-157026124D01*
X115510374Y-157032186D01*
X115288610Y-157116891D01*
X115233871Y-157147099D01*
X115014476Y-157291247D01*
X114937783Y-157374138D01*
X115003804Y-157386062D01*
X115212552Y-157317312D01*
X115233667Y-157308754D01*
X115444708Y-157271677D01*
X115639614Y-157283711D01*
X115813175Y-157292101D01*
X115851971Y-157221196D01*
X115851280Y-157217977D01*
X115907623Y-157124167D01*
X116092353Y-157050152D01*
X116105797Y-157047119D01*
X116349544Y-156980884D01*
X116424812Y-156928154D01*
X116332068Y-156893635D01*
X116089448Y-156882000D01*
X115840316Y-156895716D01*
G37*
X115840316Y-156895716D02*
X115743246Y-156939841D01*
X115750560Y-156981055D01*
X115754661Y-157044655D01*
X115671093Y-157026124D01*
X115510374Y-157032186D01*
X115288610Y-157116891D01*
X115233871Y-157147099D01*
X115014476Y-157291247D01*
X114937783Y-157374138D01*
X115003804Y-157386062D01*
X115212552Y-157317312D01*
X115233667Y-157308754D01*
X115444708Y-157271677D01*
X115639614Y-157283711D01*
X115813175Y-157292101D01*
X115851971Y-157221196D01*
X115851280Y-157217977D01*
X115907623Y-157124167D01*
X116092353Y-157050152D01*
X116105797Y-157047119D01*
X116349544Y-156980884D01*
X116424812Y-156928154D01*
X116332068Y-156893635D01*
X116089448Y-156882000D01*
X115840316Y-156895716D01*
G36*
X131982960Y-156995485D02*
G01*
X131984947Y-157093491D01*
X132030709Y-157167138D01*
X132162117Y-157270995D01*
X132318707Y-157334281D01*
X132437015Y-157337601D01*
X132463334Y-157299359D01*
X132400972Y-157202796D01*
X132257593Y-157091471D01*
X132098758Y-157006856D01*
X131990025Y-156990422D01*
X131982960Y-156995485D01*
G37*
X131982960Y-156995485D02*
X131984947Y-157093491D01*
X132030709Y-157167138D01*
X132162117Y-157270995D01*
X132318707Y-157334281D01*
X132437015Y-157337601D01*
X132463334Y-157299359D01*
X132400972Y-157202796D01*
X132257593Y-157091471D01*
X132098758Y-157006856D01*
X131990025Y-156990422D01*
X131982960Y-156995485D01*
G36*
X116038000Y-157517000D02*
G01*
X116080334Y-157559334D01*
X116122667Y-157517000D01*
X116080334Y-157474667D01*
X116038000Y-157517000D01*
G37*
X116038000Y-157517000D02*
X116080334Y-157559334D01*
X116122667Y-157517000D01*
X116080334Y-157474667D01*
X116038000Y-157517000D01*
G36*
X116376667Y-157517000D02*
G01*
X116419000Y-157559334D01*
X116461334Y-157517000D01*
X116419000Y-157474667D01*
X116376667Y-157517000D01*
G37*
X116376667Y-157517000D02*
X116419000Y-157559334D01*
X116461334Y-157517000D01*
X116419000Y-157474667D01*
X116376667Y-157517000D01*
G36*
X132632667Y-157686334D02*
G01*
X132675000Y-157728667D01*
X132717334Y-157686334D01*
X132675000Y-157644000D01*
X132632667Y-157686334D01*
G37*
X132632667Y-157686334D02*
X132675000Y-157728667D01*
X132717334Y-157686334D01*
X132675000Y-157644000D01*
X132632667Y-157686334D01*
G36*
X116122667Y-157771000D02*
G01*
X116165000Y-157813334D01*
X116207334Y-157771000D01*
X116165000Y-157728667D01*
X116122667Y-157771000D01*
G37*
X116122667Y-157771000D02*
X116165000Y-157813334D01*
X116207334Y-157771000D01*
X116165000Y-157728667D01*
X116122667Y-157771000D01*
G36*
X115245501Y-157503452D02*
G01*
X115241910Y-157572670D01*
X115239137Y-157636720D01*
X115119907Y-157622930D01*
X114977274Y-157619025D01*
X114937355Y-157731884D01*
X114937334Y-157736593D01*
X114946540Y-157865811D01*
X114958500Y-157889357D01*
X115044825Y-157860364D01*
X115227142Y-157801179D01*
X115249936Y-157793847D01*
X115462362Y-157695845D01*
X115564804Y-157590433D01*
X115543895Y-157506949D01*
X115395346Y-157474667D01*
X115245501Y-157503452D01*
G37*
X115245501Y-157503452D02*
X115241910Y-157572670D01*
X115239137Y-157636720D01*
X115119907Y-157622930D01*
X114977274Y-157619025D01*
X114937355Y-157731884D01*
X114937334Y-157736593D01*
X114946540Y-157865811D01*
X114958500Y-157889357D01*
X115044825Y-157860364D01*
X115227142Y-157801179D01*
X115249936Y-157793847D01*
X115462362Y-157695845D01*
X115564804Y-157590433D01*
X115543895Y-157506949D01*
X115395346Y-157474667D01*
X115245501Y-157503452D01*
G36*
X116403230Y-157783357D02*
G01*
X116419000Y-157813334D01*
X116498775Y-157894190D01*
X116513661Y-157898000D01*
X116519437Y-157843310D01*
X116503667Y-157813334D01*
X116423893Y-157732477D01*
X116409007Y-157728667D01*
X116403230Y-157783357D01*
G37*
X116403230Y-157783357D02*
X116419000Y-157813334D01*
X116498775Y-157894190D01*
X116513661Y-157898000D01*
X116519437Y-157843310D01*
X116503667Y-157813334D01*
X116423893Y-157732477D01*
X116409007Y-157728667D01*
X116403230Y-157783357D01*
G36*
X114794304Y-157665167D02*
G01*
X114781137Y-157879901D01*
X114794304Y-157961500D01*
X114818845Y-157987851D01*
X114832205Y-157870778D01*
X114833024Y-157813334D01*
X114824197Y-157659298D01*
X114802220Y-157641144D01*
X114794304Y-157665167D01*
G37*
X114794304Y-157665167D02*
X114781137Y-157879901D01*
X114794304Y-157961500D01*
X114818845Y-157987851D01*
X114832205Y-157870778D01*
X114833024Y-157813334D01*
X114824197Y-157659298D01*
X114802220Y-157641144D01*
X114794304Y-157665167D01*
G36*
X114965556Y-158349556D02*
G01*
X114977178Y-158399890D01*
X115022000Y-158406000D01*
X115091691Y-158375022D01*
X115078445Y-158349556D01*
X114977965Y-158339423D01*
X114965556Y-158349556D01*
G37*
X114965556Y-158349556D02*
X114977178Y-158399890D01*
X115022000Y-158406000D01*
X115091691Y-158375022D01*
X115078445Y-158349556D01*
X114977965Y-158339423D01*
X114965556Y-158349556D01*
G36*
X114768697Y-158523890D02*
G01*
X114768000Y-158564967D01*
X114818557Y-158710951D01*
X114895000Y-158744667D01*
X115007751Y-158704459D01*
X115022000Y-158670367D01*
X114964075Y-158560025D01*
X114895000Y-158490667D01*
X114797687Y-158436133D01*
X114768697Y-158523890D01*
G37*
X114768697Y-158523890D02*
X114768000Y-158564967D01*
X114818557Y-158710951D01*
X114895000Y-158744667D01*
X115007751Y-158704459D01*
X115022000Y-158670367D01*
X114964075Y-158560025D01*
X114895000Y-158490667D01*
X114797687Y-158436133D01*
X114768697Y-158523890D01*
G36*
X114965556Y-159196222D02*
G01*
X114977178Y-159246557D01*
X115022000Y-159252667D01*
X115091691Y-159221689D01*
X115078445Y-159196222D01*
X114977965Y-159186089D01*
X114965556Y-159196222D01*
G37*
X114965556Y-159196222D02*
X114977178Y-159246557D01*
X115022000Y-159252667D01*
X115091691Y-159221689D01*
X115078445Y-159196222D01*
X114977965Y-159186089D01*
X114965556Y-159196222D01*
G36*
X132891077Y-157937339D02*
G01*
X132886667Y-157977413D01*
X132905199Y-158098319D01*
X132954159Y-158339126D01*
X133023598Y-158655286D01*
X133103567Y-159002251D01*
X133184113Y-159335474D01*
X133231791Y-159522551D01*
X133368993Y-159808630D01*
X133565841Y-159960561D01*
X133742807Y-160033527D01*
X133812709Y-160013222D01*
X133818000Y-159979394D01*
X133789793Y-159844586D01*
X133715152Y-159594903D01*
X133609048Y-159273278D01*
X133486451Y-158922646D01*
X133362332Y-158585939D01*
X133251661Y-158306091D01*
X133176244Y-158138935D01*
X133060211Y-157970021D01*
X132953093Y-157896094D01*
X132891077Y-157937339D01*
G37*
X132891077Y-157937339D02*
X132886667Y-157977413D01*
X132905199Y-158098319D01*
X132954159Y-158339126D01*
X133023598Y-158655286D01*
X133103567Y-159002251D01*
X133184113Y-159335474D01*
X133231791Y-159522551D01*
X133368993Y-159808630D01*
X133565841Y-159960561D01*
X133742807Y-160033527D01*
X133812709Y-160013222D01*
X133818000Y-159979394D01*
X133789793Y-159844586D01*
X133715152Y-159594903D01*
X133609048Y-159273278D01*
X133486451Y-158922646D01*
X133362332Y-158585939D01*
X133251661Y-158306091D01*
X133176244Y-158138935D01*
X133060211Y-157970021D01*
X132953093Y-157896094D01*
X132891077Y-157937339D01*
G36*
X130839924Y-158273633D02*
G01*
X130733988Y-158457657D01*
X130611088Y-158722334D01*
X130601672Y-158744667D01*
X130371259Y-159295000D01*
X130565852Y-159676000D01*
X130744879Y-159992309D01*
X130923037Y-160249522D01*
X131078454Y-160421361D01*
X131189256Y-160481549D01*
X131220518Y-160462513D01*
X131229929Y-160335908D01*
X131193509Y-160110672D01*
X131155256Y-159961615D01*
X131032441Y-159403643D01*
X131008204Y-158879157D01*
X131011233Y-158816093D01*
X131047163Y-158655163D01*
X131149513Y-158625444D01*
X131182600Y-158632661D01*
X131325410Y-158704520D01*
X131564235Y-158859362D01*
X131865156Y-159071587D01*
X132194251Y-159315595D01*
X132517599Y-159565785D01*
X132801280Y-159796558D01*
X133011373Y-159982313D01*
X133105512Y-160083888D01*
X133246126Y-160223175D01*
X133359839Y-160268667D01*
X133432449Y-160218947D01*
X133388946Y-160085105D01*
X133244378Y-159890117D01*
X133013795Y-159656959D01*
X132886667Y-159546279D01*
X132680777Y-159385723D01*
X132397749Y-159179564D01*
X132070045Y-158949731D01*
X131730129Y-158718152D01*
X131410463Y-158506757D01*
X131143510Y-158337475D01*
X130961734Y-158232234D01*
X130906876Y-158208916D01*
X130839924Y-158273633D01*
G37*
X130839924Y-158273633D02*
X130733988Y-158457657D01*
X130611088Y-158722334D01*
X130601672Y-158744667D01*
X130371259Y-159295000D01*
X130565852Y-159676000D01*
X130744879Y-159992309D01*
X130923037Y-160249522D01*
X131078454Y-160421361D01*
X131189256Y-160481549D01*
X131220518Y-160462513D01*
X131229929Y-160335908D01*
X131193509Y-160110672D01*
X131155256Y-159961615D01*
X131032441Y-159403643D01*
X131008204Y-158879157D01*
X131011233Y-158816093D01*
X131047163Y-158655163D01*
X131149513Y-158625444D01*
X131182600Y-158632661D01*
X131325410Y-158704520D01*
X131564235Y-158859362D01*
X131865156Y-159071587D01*
X132194251Y-159315595D01*
X132517599Y-159565785D01*
X132801280Y-159796558D01*
X133011373Y-159982313D01*
X133105512Y-160083888D01*
X133246126Y-160223175D01*
X133359839Y-160268667D01*
X133432449Y-160218947D01*
X133388946Y-160085105D01*
X133244378Y-159890117D01*
X133013795Y-159656959D01*
X132886667Y-159546279D01*
X132680777Y-159385723D01*
X132397749Y-159179564D01*
X132070045Y-158949731D01*
X131730129Y-158718152D01*
X131410463Y-158506757D01*
X131143510Y-158337475D01*
X130961734Y-158232234D01*
X130906876Y-158208916D01*
X130839924Y-158273633D01*
G36*
X133070010Y-160427550D02*
G01*
X133023405Y-160491817D01*
X133131397Y-160545625D01*
X133154677Y-160552098D01*
X133363693Y-160598693D01*
X133457008Y-160581016D01*
X133479281Y-160489197D01*
X133479334Y-160480334D01*
X133413151Y-160379685D01*
X133255743Y-160359691D01*
X133070010Y-160427550D01*
G37*
X133070010Y-160427550D02*
X133023405Y-160491817D01*
X133131397Y-160545625D01*
X133154677Y-160552098D01*
X133363693Y-160598693D01*
X133457008Y-160581016D01*
X133479281Y-160489197D01*
X133479334Y-160480334D01*
X133413151Y-160379685D01*
X133255743Y-160359691D01*
X133070010Y-160427550D01*
G36*
X133436487Y-160856375D02*
G01*
X133444580Y-161041018D01*
X133447010Y-161055591D01*
X133509569Y-161330897D01*
X133579297Y-161554723D01*
X133625312Y-161747452D01*
X133613108Y-161866373D01*
X133620661Y-161979779D01*
X133647286Y-162003480D01*
X133720346Y-162124057D01*
X133733334Y-162216000D01*
X133770395Y-162376119D01*
X133851881Y-162427157D01*
X133933240Y-162342841D01*
X133936129Y-162335589D01*
X133982444Y-162118299D01*
X133957926Y-161853804D01*
X133856919Y-161498929D01*
X133808651Y-161362330D01*
X133687132Y-161076477D01*
X133573864Y-160887762D01*
X133484948Y-160809842D01*
X133436487Y-160856375D01*
G37*
X133436487Y-160856375D02*
X133444580Y-161041018D01*
X133447010Y-161055591D01*
X133509569Y-161330897D01*
X133579297Y-161554723D01*
X133625312Y-161747452D01*
X133613108Y-161866373D01*
X133620661Y-161979779D01*
X133647286Y-162003480D01*
X133720346Y-162124057D01*
X133733334Y-162216000D01*
X133770395Y-162376119D01*
X133851881Y-162427157D01*
X133933240Y-162342841D01*
X133936129Y-162335589D01*
X133982444Y-162118299D01*
X133957926Y-161853804D01*
X133856919Y-161498929D01*
X133808651Y-161362330D01*
X133687132Y-161076477D01*
X133573864Y-160887762D01*
X133484948Y-160809842D01*
X133436487Y-160856375D01*
G36*
X132401847Y-160517322D02*
G01*
X132234805Y-160718753D01*
X132048132Y-161014353D01*
X131877094Y-161345292D01*
X131729527Y-161611417D01*
X131523905Y-161924338D01*
X131366908Y-162136062D01*
X131156079Y-162429572D01*
X131040677Y-162650143D01*
X131028394Y-162779343D01*
X131087500Y-162805454D01*
X131168346Y-162740008D01*
X131305882Y-162576043D01*
X131401885Y-162445620D01*
X131567062Y-162203516D01*
X131768083Y-161898064D01*
X131985216Y-161560652D01*
X132198729Y-161222671D01*
X132388889Y-160915509D01*
X132535965Y-160670556D01*
X132620225Y-160519200D01*
X132632667Y-160487727D01*
X132565434Y-160443516D01*
X132526834Y-160441262D01*
X132401847Y-160517322D01*
G37*
X132401847Y-160517322D02*
X132234805Y-160718753D01*
X132048132Y-161014353D01*
X131877094Y-161345292D01*
X131729527Y-161611417D01*
X131523905Y-161924338D01*
X131366908Y-162136062D01*
X131156079Y-162429572D01*
X131040677Y-162650143D01*
X131028394Y-162779343D01*
X131087500Y-162805454D01*
X131168346Y-162740008D01*
X131305882Y-162576043D01*
X131401885Y-162445620D01*
X131567062Y-162203516D01*
X131768083Y-161898064D01*
X131985216Y-161560652D01*
X132198729Y-161222671D01*
X132388889Y-160915509D01*
X132535965Y-160670556D01*
X132620225Y-160519200D01*
X132632667Y-160487727D01*
X132565434Y-160443516D01*
X132526834Y-160441262D01*
X132401847Y-160517322D01*
G36*
X134506777Y-162856786D02*
G01*
X134500627Y-162862402D01*
X134433332Y-163013997D01*
X134434302Y-163158735D01*
X134465433Y-163259710D01*
X134483804Y-163217758D01*
X134522330Y-163013596D01*
X134550128Y-162921425D01*
X134571993Y-162819966D01*
X134506777Y-162856786D01*
G37*
X134506777Y-162856786D02*
X134500627Y-162862402D01*
X134433332Y-163013997D01*
X134434302Y-163158735D01*
X134465433Y-163259710D01*
X134483804Y-163217758D01*
X134522330Y-163013596D01*
X134550128Y-162921425D01*
X134571993Y-162819966D01*
X134506777Y-162856786D01*
G36*
X123759939Y-150983783D02*
G01*
X123600142Y-151166847D01*
X123411413Y-151426011D01*
X123254573Y-151670657D01*
X122899133Y-152240830D01*
X122606189Y-152672486D01*
X122364494Y-152979541D01*
X122162801Y-153175912D01*
X121989864Y-153275515D01*
X121948110Y-153287303D01*
X121664003Y-153399040D01*
X121314328Y-153612277D01*
X120945495Y-153898262D01*
X120706936Y-154095054D01*
X120443557Y-154299314D01*
X120193197Y-154483333D01*
X119993694Y-154619403D01*
X119882886Y-154679815D01*
X119877083Y-154680667D01*
X119772227Y-154724674D01*
X119575507Y-154838799D01*
X119381204Y-154964118D01*
X119088019Y-155141867D01*
X118792371Y-155291412D01*
X118640721Y-155351941D01*
X118452319Y-155434424D01*
X118367939Y-155513825D01*
X118370551Y-155534157D01*
X118335279Y-155590220D01*
X118191630Y-155612000D01*
X118039463Y-155625477D01*
X118030059Y-155684605D01*
X118072595Y-155742126D01*
X118225246Y-155845474D01*
X118315795Y-155859377D01*
X118618455Y-155852808D01*
X118783263Y-155910205D01*
X118832000Y-156035334D01*
X118776392Y-156175360D01*
X118698953Y-156204667D01*
X118525981Y-156260998D01*
X118457663Y-156312909D01*
X118392540Y-156425816D01*
X118460137Y-156524576D01*
X118601083Y-156614460D01*
X118659094Y-156628000D01*
X118725418Y-156700434D01*
X118747334Y-156839667D01*
X118701030Y-157012661D01*
X118611275Y-157051334D01*
X118514916Y-156998772D01*
X118522297Y-156928645D01*
X118518540Y-156842736D01*
X118446689Y-156853037D01*
X118342576Y-156835059D01*
X118324000Y-156757003D01*
X118275091Y-156652809D01*
X118218167Y-156649167D01*
X118121100Y-156753105D01*
X118112334Y-156803230D01*
X118051659Y-156912712D01*
X117925670Y-156950347D01*
X117818417Y-156899880D01*
X117801973Y-156863243D01*
X117749665Y-156810540D01*
X117634390Y-156891987D01*
X117612129Y-156914115D01*
X117504059Y-157030407D01*
X117520978Y-157056281D01*
X117633296Y-157030298D01*
X117775394Y-157019195D01*
X117816000Y-157052335D01*
X117839875Y-157185246D01*
X117866321Y-157277242D01*
X117891149Y-157377708D01*
X117842274Y-157328653D01*
X117825284Y-157305334D01*
X117749783Y-157235114D01*
X117732630Y-157284167D01*
X117663670Y-157379407D01*
X117611389Y-157390000D01*
X117478151Y-157326405D01*
X117452639Y-157284167D01*
X117394798Y-157224951D01*
X117297417Y-157294750D01*
X117227233Y-157397779D01*
X117286834Y-157449972D01*
X117383627Y-157551962D01*
X117361377Y-157686377D01*
X117272239Y-157756763D01*
X117189389Y-157866601D01*
X117194949Y-157967932D01*
X117194100Y-158118563D01*
X117130059Y-158194265D01*
X117048355Y-158157595D01*
X117023196Y-158109181D01*
X116910838Y-158009528D01*
X116739057Y-157985808D01*
X116601336Y-158048359D01*
X116591950Y-158061483D01*
X116602567Y-158170223D01*
X116629286Y-158193480D01*
X116713248Y-158303556D01*
X116651382Y-158390552D01*
X116564817Y-158406000D01*
X116397913Y-158345489D01*
X116269312Y-158236667D01*
X116124854Y-158108627D01*
X116024071Y-158067334D01*
X116007109Y-158118999D01*
X116093299Y-158246496D01*
X116122354Y-158278666D01*
X116240167Y-158434349D01*
X116268986Y-158539252D01*
X116263778Y-158547111D01*
X116171401Y-158534239D01*
X116169635Y-158533000D01*
X115868667Y-158533000D01*
X115826334Y-158575334D01*
X115784000Y-158533000D01*
X115826334Y-158490667D01*
X115868667Y-158533000D01*
X116169635Y-158533000D01*
X116019726Y-158427886D01*
X115995333Y-158405687D01*
X115857093Y-158301269D01*
X115786454Y-158297923D01*
X115784000Y-158311572D01*
X115734663Y-158375976D01*
X115699508Y-158363774D01*
X115579944Y-158369813D01*
X115397229Y-158444539D01*
X115219264Y-158551692D01*
X115113948Y-158655012D01*
X115106667Y-158680372D01*
X115179893Y-158742507D01*
X115357152Y-158798944D01*
X115367496Y-158801066D01*
X115532370Y-158850923D01*
X115540603Y-158908793D01*
X115515663Y-158928521D01*
X115489110Y-158970380D01*
X115616335Y-158954343D01*
X115628497Y-158951568D01*
X115860666Y-158957205D01*
X116027840Y-159073173D01*
X116201687Y-159247020D01*
X116028959Y-159368004D01*
X115920395Y-159482789D01*
X115950824Y-159547449D01*
X116089109Y-159551766D01*
X116155858Y-159514255D01*
X116276775Y-159477675D01*
X116393271Y-159570466D01*
X116502714Y-159712244D01*
X116587395Y-159844184D01*
X116622011Y-159922346D01*
X116588531Y-159909568D01*
X116473536Y-159899239D01*
X116416355Y-159932195D01*
X116258238Y-159976996D01*
X116233000Y-159972334D01*
X115868667Y-159972334D01*
X115826334Y-160014667D01*
X115784000Y-159972334D01*
X115826334Y-159930000D01*
X115868667Y-159972334D01*
X116233000Y-159972334D01*
X116160756Y-159958989D01*
X116056479Y-159907717D01*
X116106775Y-159862720D01*
X116171191Y-159836479D01*
X116263163Y-159789750D01*
X116207116Y-159765711D01*
X116101500Y-159756034D01*
X115907274Y-159736428D01*
X115805167Y-159717527D01*
X115681168Y-159676145D01*
X115551167Y-159633569D01*
X115403673Y-159557985D01*
X115360667Y-159496792D01*
X115412883Y-159425767D01*
X115533895Y-159467860D01*
X115588178Y-159514044D01*
X115691682Y-159556242D01*
X115745046Y-159501200D01*
X115737944Y-159381126D01*
X115624318Y-159262247D01*
X115460900Y-159190722D01*
X115362305Y-159189789D01*
X115261768Y-159280900D01*
X115255952Y-159350275D01*
X115215974Y-159512650D01*
X115153528Y-159587576D01*
X115063464Y-159641008D01*
X115055224Y-159557524D01*
X115062882Y-159514204D01*
X115047264Y-159368216D01*
X114981861Y-159337334D01*
X114849071Y-159270986D01*
X114825205Y-159231500D01*
X114815117Y-159287097D01*
X114805470Y-159493343D01*
X114796604Y-159831553D01*
X114788856Y-160283045D01*
X114782565Y-160829133D01*
X114778070Y-161451134D01*
X114776121Y-161940834D01*
X114768611Y-164756000D01*
X115932472Y-164757949D01*
X116282760Y-164758883D01*
X116775543Y-164760696D01*
X117383987Y-164763265D01*
X118081258Y-164766466D01*
X118840521Y-164770176D01*
X119634941Y-164774270D01*
X120437684Y-164778626D01*
X120525334Y-164779116D01*
X121446781Y-164783101D01*
X122466253Y-164785468D01*
X123536056Y-164786240D01*
X124608496Y-164785439D01*
X125635877Y-164783086D01*
X126570505Y-164779203D01*
X127071206Y-164776118D01*
X130188079Y-164753903D01*
X130150419Y-164629000D01*
X116546000Y-164629000D01*
X116503667Y-164671334D01*
X116461334Y-164629000D01*
X116503667Y-164586667D01*
X116546000Y-164629000D01*
X130150419Y-164629000D01*
X130130956Y-164564451D01*
X130055793Y-164346187D01*
X129967678Y-164121000D01*
X129897220Y-163951667D01*
X116038000Y-163951667D01*
X115995667Y-163994000D01*
X115953334Y-163951667D01*
X115995667Y-163909334D01*
X116038000Y-163951667D01*
X129897220Y-163951667D01*
X129796789Y-163710299D01*
X115953334Y-163710299D01*
X115907009Y-163789228D01*
X115812316Y-163909431D01*
X115735676Y-163987692D01*
X115729457Y-163990780D01*
X115724486Y-163921259D01*
X115729457Y-163793134D01*
X115775065Y-163648063D01*
X115847500Y-163632859D01*
X115945159Y-163693001D01*
X115953334Y-163710299D01*
X129796789Y-163710299D01*
X129657962Y-163376655D01*
X115918890Y-163376655D01*
X115907385Y-163407184D01*
X115825651Y-163482258D01*
X115785657Y-163396751D01*
X115784000Y-163354003D01*
X115825657Y-163266801D01*
X115870048Y-163275187D01*
X115918890Y-163376655D01*
X129657962Y-163376655D01*
X129633523Y-163317923D01*
X129598223Y-163232000D01*
X115614667Y-163232000D01*
X115583689Y-163301690D01*
X115558223Y-163288445D01*
X115548090Y-163187965D01*
X115558223Y-163175556D01*
X115608557Y-163187178D01*
X115614667Y-163232000D01*
X129598223Y-163232000D01*
X129363017Y-162659499D01*
X129167601Y-162173667D01*
X115191334Y-162173667D01*
X115149000Y-162216000D01*
X115106667Y-162173667D01*
X115149000Y-162131334D01*
X115191334Y-162173667D01*
X129167601Y-162173667D01*
X129152115Y-162135167D01*
X129117815Y-162046667D01*
X117223334Y-162046667D01*
X117192356Y-162116357D01*
X117166889Y-162103111D01*
X117156756Y-162002632D01*
X117166889Y-161990222D01*
X117217224Y-162001845D01*
X117223334Y-162046667D01*
X129117815Y-162046667D01*
X129022712Y-161801286D01*
X114991950Y-161801286D01*
X114962995Y-161928715D01*
X114911036Y-162040494D01*
X114881871Y-161995198D01*
X114868851Y-161934207D01*
X114865892Y-161779629D01*
X114887516Y-161729596D01*
X114965383Y-161707173D01*
X114991950Y-161801286D01*
X129022712Y-161801286D01*
X128996774Y-161734363D01*
X128908371Y-161489278D01*
X114930650Y-161489278D01*
X114915083Y-161599092D01*
X114886181Y-161600403D01*
X114865970Y-161487086D01*
X114879497Y-161438125D01*
X114917092Y-161406055D01*
X114930650Y-161489278D01*
X128908371Y-161489278D01*
X128892950Y-161446527D01*
X128836598Y-161261097D01*
X128823674Y-161167512D01*
X128831043Y-161152491D01*
X128841516Y-161058889D01*
X117364445Y-161058889D01*
X117352823Y-161109223D01*
X117308000Y-161115334D01*
X117238310Y-161084355D01*
X117251556Y-161058889D01*
X117352036Y-161048756D01*
X117364445Y-161058889D01*
X128841516Y-161058889D01*
X128841910Y-161055373D01*
X128828133Y-161025670D01*
X116800000Y-161025670D01*
X116738540Y-161111888D01*
X116715334Y-161115334D01*
X116632868Y-161086447D01*
X116630667Y-161077997D01*
X116689996Y-161005711D01*
X116715334Y-160988334D01*
X116793353Y-160995046D01*
X116800000Y-161025670D01*
X128828133Y-161025670D01*
X128764996Y-160889556D01*
X116433112Y-160889556D01*
X116421489Y-160939890D01*
X116376667Y-160946000D01*
X116306977Y-160915022D01*
X116320223Y-160889556D01*
X116420702Y-160879423D01*
X116433112Y-160889556D01*
X128764996Y-160889556D01*
X128754442Y-160866804D01*
X128635853Y-160692000D01*
X117562000Y-160692000D01*
X117531022Y-160761690D01*
X117505556Y-160748445D01*
X117495423Y-160647965D01*
X117505556Y-160635556D01*
X117555890Y-160647178D01*
X117562000Y-160692000D01*
X128635853Y-160692000D01*
X128586191Y-160618798D01*
X128557454Y-160583420D01*
X117166149Y-160583420D01*
X117165608Y-160659250D01*
X117076653Y-160751330D01*
X116956885Y-160774847D01*
X116886122Y-160717688D01*
X116884667Y-160701875D01*
X116954915Y-160622092D01*
X117047666Y-160584458D01*
X117166149Y-160583420D01*
X128557454Y-160583420D01*
X128439328Y-160438000D01*
X128417806Y-160407371D01*
X116876454Y-160407371D01*
X116794834Y-160537012D01*
X116772427Y-160563470D01*
X116603452Y-160728068D01*
X116500690Y-160769066D01*
X116480786Y-160680284D01*
X116482500Y-160671140D01*
X116579385Y-160512832D01*
X116750846Y-160386017D01*
X116857094Y-160356026D01*
X116876454Y-160407371D01*
X128417806Y-160407371D01*
X128309192Y-160252800D01*
X128233945Y-160123603D01*
X117209686Y-160123603D01*
X117189085Y-160170918D01*
X117103835Y-160261812D01*
X117054825Y-160243166D01*
X117054000Y-160231330D01*
X117114137Y-160159718D01*
X117151749Y-160133582D01*
X117209686Y-160123603D01*
X128233945Y-160123603D01*
X128146948Y-159974232D01*
X128114941Y-159911693D01*
X116994420Y-159911693D01*
X116900215Y-159996087D01*
X116874502Y-160014667D01*
X116702124Y-160155910D01*
X116490073Y-160351103D01*
X116431637Y-160408540D01*
X116219848Y-160603940D01*
X116096671Y-160680313D01*
X116070788Y-160633189D01*
X116086536Y-160586167D01*
X116174428Y-160479265D01*
X116354746Y-160316495D01*
X116468212Y-160226334D01*
X116122667Y-160226334D01*
X116080334Y-160268667D01*
X116038000Y-160226334D01*
X116080334Y-160184000D01*
X116122667Y-160226334D01*
X116468212Y-160226334D01*
X116509675Y-160193388D01*
X116722258Y-160027425D01*
X116818312Y-159922161D01*
X116817647Y-159837865D01*
X116740071Y-159734808D01*
X116738963Y-159733535D01*
X116588334Y-159560628D01*
X116819532Y-159724148D01*
X116970982Y-159839315D01*
X116994420Y-159911693D01*
X128114941Y-159911693D01*
X127994314Y-159676000D01*
X127953934Y-159591334D01*
X122797965Y-159591334D01*
X122784660Y-159711529D01*
X122755261Y-159697167D01*
X122744078Y-159523825D01*
X122752168Y-159496097D01*
X116524001Y-159496097D01*
X116461979Y-159455517D01*
X116450828Y-159444578D01*
X116383951Y-159333570D01*
X116393019Y-159292760D01*
X116456000Y-159318168D01*
X116498224Y-159397182D01*
X116524001Y-159496097D01*
X122752168Y-159496097D01*
X122755261Y-159485500D01*
X122786163Y-159474864D01*
X122797965Y-159591334D01*
X127953934Y-159591334D01*
X127765487Y-159196222D01*
X125323112Y-159196222D01*
X125311489Y-159246557D01*
X125266667Y-159252667D01*
X125196977Y-159221689D01*
X125210223Y-159196222D01*
X125310702Y-159186089D01*
X125323112Y-159196222D01*
X127765487Y-159196222D01*
X127662023Y-158979293D01*
X127637516Y-158928320D01*
X116461334Y-158928320D01*
X116404445Y-158939959D01*
X116266614Y-158861174D01*
X116257504Y-158854453D01*
X116138837Y-158741155D01*
X116129988Y-158674619D01*
X116133350Y-158673162D01*
X116260749Y-158699157D01*
X116397185Y-158805087D01*
X116461331Y-158927684D01*
X116461334Y-158928320D01*
X127637516Y-158928320D01*
X127569568Y-158787000D01*
X117477334Y-158787000D01*
X117435000Y-158829334D01*
X117392667Y-158787000D01*
X117435000Y-158744667D01*
X117477334Y-158787000D01*
X127569568Y-158787000D01*
X127388969Y-158411384D01*
X127162747Y-157947640D01*
X127159100Y-157940334D01*
X117816000Y-157940334D01*
X117773667Y-157982667D01*
X117731334Y-157940334D01*
X117773667Y-157898000D01*
X117816000Y-157940334D01*
X127159100Y-157940334D01*
X127095704Y-157813334D01*
X117604334Y-157813334D01*
X117597621Y-157891352D01*
X117566997Y-157898000D01*
X117480779Y-157836540D01*
X117477334Y-157813334D01*
X117506221Y-157730868D01*
X117514670Y-157728667D01*
X117586956Y-157787996D01*
X117604334Y-157813334D01*
X127095704Y-157813334D01*
X126970954Y-157563427D01*
X126856088Y-157340611D01*
X122804650Y-157340611D01*
X122789083Y-157450425D01*
X122760181Y-157451736D01*
X122739970Y-157338419D01*
X122753497Y-157289459D01*
X122791092Y-157257388D01*
X122804650Y-157340611D01*
X126856088Y-157340611D01*
X126827466Y-157285091D01*
X124298612Y-157285091D01*
X124215389Y-157298649D01*
X124105575Y-157283083D01*
X124104264Y-157254181D01*
X124217581Y-157233969D01*
X124266542Y-157247497D01*
X124298612Y-157285091D01*
X126827466Y-157285091D01*
X126801185Y-157234112D01*
X126641036Y-156935063D01*
X126588063Y-156839667D01*
X125351334Y-156839667D01*
X125309000Y-156882000D01*
X125266667Y-156839667D01*
X125309000Y-156797334D01*
X125351334Y-156839667D01*
X126588063Y-156839667D01*
X126478101Y-156641644D01*
X126446315Y-156585667D01*
X125351334Y-156585667D01*
X125309000Y-156628000D01*
X125266667Y-156585667D01*
X123234667Y-156585667D01*
X123192334Y-156628000D01*
X123150000Y-156585667D01*
X123192334Y-156543334D01*
X123234667Y-156585667D01*
X125266667Y-156585667D01*
X125309000Y-156543334D01*
X125351334Y-156585667D01*
X126446315Y-156585667D01*
X126374198Y-156458667D01*
X126302009Y-156331667D01*
X125266667Y-156331667D01*
X125224334Y-156374000D01*
X125182000Y-156331667D01*
X125224334Y-156289334D01*
X125266667Y-156331667D01*
X126302009Y-156331667D01*
X126171275Y-156101671D01*
X126114167Y-156000056D01*
X123912000Y-156000056D01*
X123862647Y-156092774D01*
X123761097Y-156077989D01*
X123677403Y-155966542D01*
X123702237Y-155908334D01*
X123065334Y-155908334D01*
X123023000Y-155950667D01*
X122980667Y-155908334D01*
X123023000Y-155866000D01*
X123065334Y-155908334D01*
X123702237Y-155908334D01*
X123714252Y-155880175D01*
X123777945Y-155866000D01*
X123894577Y-155934170D01*
X123912000Y-156000056D01*
X126114167Y-156000056D01*
X126075033Y-155930425D01*
X125145279Y-155930425D01*
X125062056Y-155943983D01*
X124952242Y-155928416D01*
X124951332Y-155908334D01*
X124674000Y-155908334D01*
X124631667Y-155950667D01*
X124589334Y-155908334D01*
X124631667Y-155866000D01*
X124674000Y-155908334D01*
X124951332Y-155908334D01*
X124950931Y-155899514D01*
X125064248Y-155879303D01*
X125113209Y-155892830D01*
X125145279Y-155930425D01*
X126075033Y-155930425D01*
X126012480Y-155819122D01*
X123312563Y-155819122D01*
X123223879Y-155829648D01*
X123192334Y-155821010D01*
X123141193Y-155804881D01*
X122535139Y-155804881D01*
X122519560Y-155858623D01*
X122435811Y-155945521D01*
X122415453Y-155908334D01*
X119340000Y-155908334D01*
X119297667Y-155950667D01*
X119255334Y-155908334D01*
X119297667Y-155866000D01*
X119340000Y-155908334D01*
X122415453Y-155908334D01*
X122393541Y-155868312D01*
X122389909Y-155800194D01*
X119170667Y-155800194D01*
X119150299Y-155901579D01*
X119058949Y-155880607D01*
X119001334Y-155846351D01*
X118869887Y-155747119D01*
X118832000Y-155694443D01*
X118903190Y-155656887D01*
X119001334Y-155648286D01*
X119144126Y-155708734D01*
X119170667Y-155800194D01*
X122389909Y-155800194D01*
X122388000Y-155764400D01*
X122408743Y-155641567D01*
X122480258Y-155670405D01*
X122482223Y-155672356D01*
X122535139Y-155804881D01*
X123141193Y-155804881D01*
X122995440Y-155758913D01*
X122924176Y-155736225D01*
X122835239Y-155669604D01*
X122871861Y-155602273D01*
X123003943Y-155564456D01*
X123140018Y-155625415D01*
X123281646Y-155739965D01*
X123312563Y-155819122D01*
X126012480Y-155819122D01*
X125996438Y-155790579D01*
X125967931Y-155739000D01*
X125012667Y-155739000D01*
X124970334Y-155781334D01*
X124928000Y-155739000D01*
X124970334Y-155696667D01*
X125012667Y-155739000D01*
X125967931Y-155739000D01*
X125933109Y-155675996D01*
X123608963Y-155675996D01*
X123557516Y-155677283D01*
X123437389Y-155573686D01*
X123429070Y-155555556D01*
X119989112Y-155555556D01*
X119977489Y-155605890D01*
X119932667Y-155612000D01*
X119862977Y-155581022D01*
X119876223Y-155555556D01*
X119976702Y-155545423D01*
X119989112Y-155555556D01*
X123429070Y-155555556D01*
X123423403Y-155543209D01*
X123428460Y-155485000D01*
X122388000Y-155485000D01*
X122345667Y-155527334D01*
X122303334Y-155485000D01*
X122345667Y-155442667D01*
X119086000Y-155442667D01*
X119017085Y-155516971D01*
X118954004Y-155527334D01*
X118866369Y-155486288D01*
X118874334Y-155442667D01*
X118982577Y-155361230D01*
X119006331Y-155358000D01*
X119083720Y-155422579D01*
X119086000Y-155442667D01*
X122345667Y-155442667D01*
X122388000Y-155485000D01*
X123428460Y-155485000D01*
X123431272Y-155452640D01*
X123508534Y-155457883D01*
X123593427Y-155547637D01*
X123606666Y-155576742D01*
X123608963Y-155675996D01*
X125933109Y-155675996D01*
X125874341Y-155569667D01*
X124589334Y-155569667D01*
X124547000Y-155612000D01*
X124504667Y-155569667D01*
X124547000Y-155527334D01*
X124589334Y-155569667D01*
X125874341Y-155569667D01*
X125868589Y-155559261D01*
X125807132Y-155442667D01*
X125789982Y-155409574D01*
X124070943Y-155409574D01*
X124049923Y-155526668D01*
X124024889Y-155555556D01*
X123900966Y-155609487D01*
X123830173Y-155521365D01*
X123827334Y-155485000D01*
X123895107Y-155372752D01*
X123954334Y-155358000D01*
X124070943Y-155409574D01*
X125789982Y-155409574D01*
X125744540Y-155321890D01*
X125687886Y-155216889D01*
X125069112Y-155216889D01*
X125057489Y-155267223D01*
X125012667Y-155273334D01*
X124942977Y-155242355D01*
X124956223Y-155216889D01*
X125056702Y-155206756D01*
X125069112Y-155216889D01*
X125687886Y-155216889D01*
X125617900Y-155087180D01*
X125594760Y-155044896D01*
X124713477Y-155044896D01*
X124694640Y-155075582D01*
X124625945Y-155158824D01*
X124636136Y-155195898D01*
X124660811Y-155270086D01*
X124599398Y-155242545D01*
X124546349Y-155188667D01*
X123615667Y-155188667D01*
X123611797Y-155266810D01*
X123583327Y-155273334D01*
X123463636Y-155211548D01*
X123446334Y-155188667D01*
X123448430Y-155146334D01*
X123234667Y-155146334D01*
X123192334Y-155188667D01*
X123150000Y-155146334D01*
X123164112Y-155132222D01*
X122867778Y-155132222D01*
X122856156Y-155182557D01*
X122811334Y-155188667D01*
X122741644Y-155157689D01*
X122754889Y-155132222D01*
X122855369Y-155122089D01*
X122867778Y-155132222D01*
X123164112Y-155132222D01*
X123192334Y-155104000D01*
X123234667Y-155146334D01*
X123448430Y-155146334D01*
X123450204Y-155110523D01*
X123478674Y-155104000D01*
X123598365Y-155165786D01*
X123615667Y-155188667D01*
X124546349Y-155188667D01*
X124504667Y-155146334D01*
X124451603Y-155052733D01*
X124467256Y-155047556D01*
X124307112Y-155047556D01*
X124295489Y-155097890D01*
X124250667Y-155104000D01*
X124180977Y-155073022D01*
X124194223Y-155047556D01*
X124294702Y-155037423D01*
X124307112Y-155047556D01*
X124467256Y-155047556D01*
X124534386Y-155025355D01*
X124600134Y-155026018D01*
X124713477Y-155044896D01*
X125594760Y-155044896D01*
X125527082Y-154921230D01*
X124302547Y-154921230D01*
X124178021Y-154912975D01*
X124136295Y-154903068D01*
X123973800Y-154882623D01*
X123911621Y-154911887D01*
X123836788Y-154958804D01*
X123653354Y-154989660D01*
X123615288Y-154992148D01*
X123419886Y-154982446D01*
X123325458Y-154940541D01*
X122974783Y-154940541D01*
X122924354Y-155016714D01*
X122896000Y-155019334D01*
X122830421Y-154947625D01*
X122828481Y-154934667D01*
X122642000Y-154934667D01*
X122611022Y-155004357D01*
X122585556Y-154991111D01*
X122584666Y-154982279D01*
X122374920Y-154982279D01*
X122353986Y-155086120D01*
X122290253Y-155085529D01*
X122263680Y-155061667D01*
X119678667Y-155061667D01*
X119636334Y-155104000D01*
X119594000Y-155061667D01*
X119636334Y-155019334D01*
X119678667Y-155061667D01*
X122263680Y-155061667D01*
X122186148Y-154992046D01*
X122176334Y-154948778D01*
X122206023Y-154886636D01*
X121193694Y-154886636D01*
X121144420Y-154926754D01*
X121028337Y-154934667D01*
X120910292Y-154903408D01*
X120904049Y-154853698D01*
X121014191Y-154807573D01*
X121078379Y-154820423D01*
X121193694Y-154886636D01*
X122206023Y-154886636D01*
X122221853Y-154853504D01*
X122311854Y-154871370D01*
X122374920Y-154982279D01*
X122584666Y-154982279D01*
X122575423Y-154890632D01*
X122585556Y-154878222D01*
X122635890Y-154889845D01*
X122642000Y-154934667D01*
X122828481Y-154934667D01*
X122812630Y-154828834D01*
X122824065Y-154723000D01*
X120610000Y-154723000D01*
X120567667Y-154765334D01*
X120525334Y-154723000D01*
X120567667Y-154680667D01*
X120610000Y-154723000D01*
X122824065Y-154723000D01*
X122825998Y-154705119D01*
X122875800Y-154735535D01*
X122896000Y-154765334D01*
X122974783Y-154940541D01*
X123325458Y-154940541D01*
X123321969Y-154938993D01*
X123319334Y-154928648D01*
X123385827Y-154854728D01*
X123420183Y-154850000D01*
X123440966Y-154809518D01*
X123356683Y-154725693D01*
X123258130Y-154640841D01*
X123288307Y-154606482D01*
X123464843Y-154598693D01*
X123649185Y-154614504D01*
X123698922Y-154679651D01*
X123686329Y-154728965D01*
X123678529Y-154812635D01*
X123770997Y-154830411D01*
X123933290Y-154806029D01*
X124189140Y-154792895D01*
X124295933Y-154854745D01*
X124302547Y-154921230D01*
X125527082Y-154921230D01*
X125457209Y-154793556D01*
X124730445Y-154793556D01*
X124718823Y-154843890D01*
X124674000Y-154850000D01*
X124604310Y-154819022D01*
X124617556Y-154793556D01*
X124718036Y-154783423D01*
X124730445Y-154793556D01*
X125457209Y-154793556D01*
X125445671Y-154772475D01*
X125289996Y-154490748D01*
X124795138Y-154490748D01*
X124685565Y-154585539D01*
X124497727Y-154650673D01*
X124335334Y-154663897D01*
X124039000Y-154653567D01*
X124161748Y-154638334D01*
X123996667Y-154638334D01*
X123954334Y-154680667D01*
X123912000Y-154638334D01*
X123954334Y-154596000D01*
X123996667Y-154638334D01*
X124161748Y-154638334D01*
X124314167Y-154619419D01*
X124516880Y-154559973D01*
X124589334Y-154463636D01*
X124593472Y-154454889D01*
X124053112Y-154454889D01*
X124041489Y-154505223D01*
X123996667Y-154511334D01*
X123926977Y-154480355D01*
X123930409Y-154473756D01*
X123640438Y-154473756D01*
X123538674Y-154487786D01*
X123446334Y-154489982D01*
X123272083Y-154483167D01*
X123227108Y-154463980D01*
X123254847Y-154453161D01*
X123458168Y-154437390D01*
X123593513Y-154451452D01*
X123640438Y-154473756D01*
X123930409Y-154473756D01*
X123940223Y-154454889D01*
X124040702Y-154444756D01*
X124053112Y-154454889D01*
X124593472Y-154454889D01*
X124633532Y-154370222D01*
X124307112Y-154370222D01*
X124295489Y-154420557D01*
X124250667Y-154426667D01*
X124180977Y-154395689D01*
X124194223Y-154370222D01*
X124294702Y-154360089D01*
X124307112Y-154370222D01*
X124633532Y-154370222D01*
X124642509Y-154351251D01*
X124759206Y-154373454D01*
X124781800Y-154393355D01*
X124795138Y-154490748D01*
X125289996Y-154490748D01*
X125248040Y-154414820D01*
X125182837Y-154299667D01*
X124928000Y-154299667D01*
X124885667Y-154342000D01*
X124865425Y-154321758D01*
X123875279Y-154321758D01*
X123792056Y-154335316D01*
X123682242Y-154319749D01*
X123681719Y-154308204D01*
X123020170Y-154308204D01*
X122958833Y-154332252D01*
X122811334Y-154342000D01*
X122631803Y-154356168D01*
X122605102Y-154384988D01*
X122684334Y-154426667D01*
X122796553Y-154482586D01*
X122755268Y-154502388D01*
X122700504Y-154505383D01*
X122597321Y-154546709D01*
X122599667Y-154596000D01*
X122609701Y-154671705D01*
X122527544Y-154664419D01*
X122405445Y-154579533D01*
X122401408Y-154575541D01*
X122297348Y-154515623D01*
X122224608Y-154586388D01*
X122123146Y-154663975D01*
X122037328Y-154605136D01*
X122005267Y-154441283D01*
X122006302Y-154426667D01*
X120821667Y-154426667D01*
X120817797Y-154504810D01*
X120789327Y-154511334D01*
X120669636Y-154449548D01*
X120652334Y-154426667D01*
X120656204Y-154348523D01*
X120684674Y-154342000D01*
X120804365Y-154403786D01*
X120821667Y-154426667D01*
X122006302Y-154426667D01*
X122007655Y-154407586D01*
X122029642Y-154156117D01*
X122031382Y-154130334D01*
X121033334Y-154130334D01*
X120991000Y-154172667D01*
X120948667Y-154130334D01*
X120991000Y-154088000D01*
X121033334Y-154130334D01*
X122031382Y-154130334D01*
X122038528Y-154024500D01*
X122058117Y-153961000D01*
X121287334Y-153961000D01*
X121245000Y-154003334D01*
X121202667Y-153961000D01*
X121245000Y-153918667D01*
X121287334Y-153961000D01*
X122058117Y-153961000D01*
X122087513Y-153865712D01*
X122200279Y-153857854D01*
X122365455Y-154000116D01*
X122407175Y-154050814D01*
X122550520Y-154189844D01*
X122667461Y-154233589D01*
X122673361Y-154231864D01*
X122824367Y-154231283D01*
X122938334Y-154263099D01*
X123020170Y-154308204D01*
X123681719Y-154308204D01*
X123680931Y-154290847D01*
X123794248Y-154270636D01*
X123843209Y-154284163D01*
X123875279Y-154321758D01*
X124865425Y-154321758D01*
X124843334Y-154299667D01*
X124885667Y-154257334D01*
X124928000Y-154299667D01*
X125182837Y-154299667D01*
X125039013Y-154045667D01*
X123912000Y-154045667D01*
X123869667Y-154088000D01*
X123827334Y-154045667D01*
X123869667Y-154003334D01*
X123912000Y-154045667D01*
X125039013Y-154045667D01*
X125030278Y-154030242D01*
X124987403Y-153961000D01*
X124589334Y-153961000D01*
X124547000Y-154003334D01*
X124504667Y-153961000D01*
X124547000Y-153918667D01*
X124589334Y-153961000D01*
X124987403Y-153961000D01*
X124934976Y-153876334D01*
X124335334Y-153876334D01*
X124293000Y-153918667D01*
X124250667Y-153876334D01*
X124293000Y-153834000D01*
X124335334Y-153876334D01*
X124934976Y-153876334D01*
X124890777Y-153804956D01*
X123842347Y-153804956D01*
X123784777Y-153887658D01*
X123757480Y-153917965D01*
X123528858Y-154044242D01*
X123277000Y-154068930D01*
X122938334Y-154063971D01*
X123277000Y-154003334D01*
X123451722Y-153963816D01*
X123467644Y-153937774D01*
X123411056Y-153930681D01*
X123260063Y-153909856D01*
X123274161Y-153876575D01*
X123449763Y-153833282D01*
X123588146Y-153810005D01*
X123785549Y-153784647D01*
X123842347Y-153804956D01*
X124890777Y-153804956D01*
X124871504Y-153773832D01*
X124786361Y-153664667D01*
X123531000Y-153664667D01*
X123505077Y-153731307D01*
X123408997Y-153749334D01*
X123268726Y-153714790D01*
X123234667Y-153664667D01*
X123302882Y-153588728D01*
X123356670Y-153580000D01*
X123500819Y-153631600D01*
X123531000Y-153664667D01*
X124786361Y-153664667D01*
X124753787Y-153622904D01*
X124659196Y-153554769D01*
X124569798Y-153546743D01*
X124562839Y-153547925D01*
X124459954Y-153556251D01*
X124483500Y-153531550D01*
X124584667Y-153423128D01*
X124545724Y-153298761D01*
X124382769Y-153207876D01*
X124377667Y-153206566D01*
X124329616Y-153184889D01*
X123714445Y-153184889D01*
X123702823Y-153235223D01*
X123658000Y-153241334D01*
X123588310Y-153210355D01*
X123594216Y-153199000D01*
X123319334Y-153199000D01*
X123277000Y-153241334D01*
X123234667Y-153199000D01*
X123277000Y-153156667D01*
X123319334Y-153199000D01*
X123594216Y-153199000D01*
X123601556Y-153184889D01*
X123702036Y-153174756D01*
X123714445Y-153184889D01*
X124329616Y-153184889D01*
X124218996Y-153134986D01*
X124204397Y-153114334D01*
X122980667Y-153114334D01*
X122938334Y-153156667D01*
X122896000Y-153114334D01*
X122938334Y-153072000D01*
X122980667Y-153114334D01*
X124204397Y-153114334D01*
X124166000Y-153060020D01*
X124198797Y-153029667D01*
X123234667Y-153029667D01*
X123192334Y-153072000D01*
X123150000Y-153029667D01*
X123192334Y-152987334D01*
X123234667Y-153029667D01*
X124198797Y-153029667D01*
X124210541Y-153018799D01*
X124293000Y-153072000D01*
X124393340Y-153133682D01*
X124417401Y-153066270D01*
X124417308Y-153061200D01*
X124363257Y-152894973D01*
X124244858Y-152733545D01*
X124117714Y-152649997D01*
X124103438Y-152648667D01*
X124011822Y-152582753D01*
X123923831Y-152428272D01*
X123864187Y-152250115D01*
X123857612Y-152113170D01*
X123886283Y-152078684D01*
X123943398Y-151984603D01*
X123935720Y-151883560D01*
X123868186Y-151772295D01*
X123810818Y-151769874D01*
X123755407Y-151746138D01*
X123754831Y-151663088D01*
X123743865Y-151473590D01*
X123713989Y-151399184D01*
X123712856Y-151257473D01*
X123779602Y-151160303D01*
X123886532Y-151015567D01*
X123912000Y-150936164D01*
X123870621Y-150899371D01*
X123759939Y-150983783D01*
G37*
X123759939Y-150983783D02*
X123600142Y-151166847D01*
X123411413Y-151426011D01*
X123254573Y-151670657D01*
X122899133Y-152240830D01*
X122606189Y-152672486D01*
X122364494Y-152979541D01*
X122162801Y-153175912D01*
X121989864Y-153275515D01*
X121948110Y-153287303D01*
X121664003Y-153399040D01*
X121314328Y-153612277D01*
X120945495Y-153898262D01*
X120706936Y-154095054D01*
X120443557Y-154299314D01*
X120193197Y-154483333D01*
X119993694Y-154619403D01*
X119882886Y-154679815D01*
X119877083Y-154680667D01*
X119772227Y-154724674D01*
X119575507Y-154838799D01*
X119381204Y-154964118D01*
X119088019Y-155141867D01*
X118792371Y-155291412D01*
X118640721Y-155351941D01*
X118452319Y-155434424D01*
X118367939Y-155513825D01*
X118370551Y-155534157D01*
X118335279Y-155590220D01*
X118191630Y-155612000D01*
X118039463Y-155625477D01*
X118030059Y-155684605D01*
X118072595Y-155742126D01*
X118225246Y-155845474D01*
X118315795Y-155859377D01*
X118618455Y-155852808D01*
X118783263Y-155910205D01*
X118832000Y-156035334D01*
X118776392Y-156175360D01*
X118698953Y-156204667D01*
X118525981Y-156260998D01*
X118457663Y-156312909D01*
X118392540Y-156425816D01*
X118460137Y-156524576D01*
X118601083Y-156614460D01*
X118659094Y-156628000D01*
X118725418Y-156700434D01*
X118747334Y-156839667D01*
X118701030Y-157012661D01*
X118611275Y-157051334D01*
X118514916Y-156998772D01*
X118522297Y-156928645D01*
X118518540Y-156842736D01*
X118446689Y-156853037D01*
X118342576Y-156835059D01*
X118324000Y-156757003D01*
X118275091Y-156652809D01*
X118218167Y-156649167D01*
X118121100Y-156753105D01*
X118112334Y-156803230D01*
X118051659Y-156912712D01*
X117925670Y-156950347D01*
X117818417Y-156899880D01*
X117801973Y-156863243D01*
X117749665Y-156810540D01*
X117634390Y-156891987D01*
X117612129Y-156914115D01*
X117504059Y-157030407D01*
X117520978Y-157056281D01*
X117633296Y-157030298D01*
X117775394Y-157019195D01*
X117816000Y-157052335D01*
X117839875Y-157185246D01*
X117866321Y-157277242D01*
X117891149Y-157377708D01*
X117842274Y-157328653D01*
X117825284Y-157305334D01*
X117749783Y-157235114D01*
X117732630Y-157284167D01*
X117663670Y-157379407D01*
X117611389Y-157390000D01*
X117478151Y-157326405D01*
X117452639Y-157284167D01*
X117394798Y-157224951D01*
X117297417Y-157294750D01*
X117227233Y-157397779D01*
X117286834Y-157449972D01*
X117383627Y-157551962D01*
X117361377Y-157686377D01*
X117272239Y-157756763D01*
X117189389Y-157866601D01*
X117194949Y-157967932D01*
X117194100Y-158118563D01*
X117130059Y-158194265D01*
X117048355Y-158157595D01*
X117023196Y-158109181D01*
X116910838Y-158009528D01*
X116739057Y-157985808D01*
X116601336Y-158048359D01*
X116591950Y-158061483D01*
X116602567Y-158170223D01*
X116629286Y-158193480D01*
X116713248Y-158303556D01*
X116651382Y-158390552D01*
X116564817Y-158406000D01*
X116397913Y-158345489D01*
X116269312Y-158236667D01*
X116124854Y-158108627D01*
X116024071Y-158067334D01*
X116007109Y-158118999D01*
X116093299Y-158246496D01*
X116122354Y-158278666D01*
X116240167Y-158434349D01*
X116268986Y-158539252D01*
X116263778Y-158547111D01*
X116171401Y-158534239D01*
X116169635Y-158533000D01*
X115868667Y-158533000D01*
X115826334Y-158575334D01*
X115784000Y-158533000D01*
X115826334Y-158490667D01*
X115868667Y-158533000D01*
X116169635Y-158533000D01*
X116019726Y-158427886D01*
X115995333Y-158405687D01*
X115857093Y-158301269D01*
X115786454Y-158297923D01*
X115784000Y-158311572D01*
X115734663Y-158375976D01*
X115699508Y-158363774D01*
X115579944Y-158369813D01*
X115397229Y-158444539D01*
X115219264Y-158551692D01*
X115113948Y-158655012D01*
X115106667Y-158680372D01*
X115179893Y-158742507D01*
X115357152Y-158798944D01*
X115367496Y-158801066D01*
X115532370Y-158850923D01*
X115540603Y-158908793D01*
X115515663Y-158928521D01*
X115489110Y-158970380D01*
X115616335Y-158954343D01*
X115628497Y-158951568D01*
X115860666Y-158957205D01*
X116027840Y-159073173D01*
X116201687Y-159247020D01*
X116028959Y-159368004D01*
X115920395Y-159482789D01*
X115950824Y-159547449D01*
X116089109Y-159551766D01*
X116155858Y-159514255D01*
X116276775Y-159477675D01*
X116393271Y-159570466D01*
X116502714Y-159712244D01*
X116587395Y-159844184D01*
X116622011Y-159922346D01*
X116588531Y-159909568D01*
X116473536Y-159899239D01*
X116416355Y-159932195D01*
X116258238Y-159976996D01*
X116233000Y-159972334D01*
X115868667Y-159972334D01*
X115826334Y-160014667D01*
X115784000Y-159972334D01*
X115826334Y-159930000D01*
X115868667Y-159972334D01*
X116233000Y-159972334D01*
X116160756Y-159958989D01*
X116056479Y-159907717D01*
X116106775Y-159862720D01*
X116171191Y-159836479D01*
X116263163Y-159789750D01*
X116207116Y-159765711D01*
X116101500Y-159756034D01*
X115907274Y-159736428D01*
X115805167Y-159717527D01*
X115681168Y-159676145D01*
X115551167Y-159633569D01*
X115403673Y-159557985D01*
X115360667Y-159496792D01*
X115412883Y-159425767D01*
X115533895Y-159467860D01*
X115588178Y-159514044D01*
X115691682Y-159556242D01*
X115745046Y-159501200D01*
X115737944Y-159381126D01*
X115624318Y-159262247D01*
X115460900Y-159190722D01*
X115362305Y-159189789D01*
X115261768Y-159280900D01*
X115255952Y-159350275D01*
X115215974Y-159512650D01*
X115153528Y-159587576D01*
X115063464Y-159641008D01*
X115055224Y-159557524D01*
X115062882Y-159514204D01*
X115047264Y-159368216D01*
X114981861Y-159337334D01*
X114849071Y-159270986D01*
X114825205Y-159231500D01*
X114815117Y-159287097D01*
X114805470Y-159493343D01*
X114796604Y-159831553D01*
X114788856Y-160283045D01*
X114782565Y-160829133D01*
X114778070Y-161451134D01*
X114776121Y-161940834D01*
X114768611Y-164756000D01*
X115932472Y-164757949D01*
X116282760Y-164758883D01*
X116775543Y-164760696D01*
X117383987Y-164763265D01*
X118081258Y-164766466D01*
X118840521Y-164770176D01*
X119634941Y-164774270D01*
X120437684Y-164778626D01*
X120525334Y-164779116D01*
X121446781Y-164783101D01*
X122466253Y-164785468D01*
X123536056Y-164786240D01*
X124608496Y-164785439D01*
X125635877Y-164783086D01*
X126570505Y-164779203D01*
X127071206Y-164776118D01*
X130188079Y-164753903D01*
X130150419Y-164629000D01*
X116546000Y-164629000D01*
X116503667Y-164671334D01*
X116461334Y-164629000D01*
X116503667Y-164586667D01*
X116546000Y-164629000D01*
X130150419Y-164629000D01*
X130130956Y-164564451D01*
X130055793Y-164346187D01*
X129967678Y-164121000D01*
X129897220Y-163951667D01*
X116038000Y-163951667D01*
X115995667Y-163994000D01*
X115953334Y-163951667D01*
X115995667Y-163909334D01*
X116038000Y-163951667D01*
X129897220Y-163951667D01*
X129796789Y-163710299D01*
X115953334Y-163710299D01*
X115907009Y-163789228D01*
X115812316Y-163909431D01*
X115735676Y-163987692D01*
X115729457Y-163990780D01*
X115724486Y-163921259D01*
X115729457Y-163793134D01*
X115775065Y-163648063D01*
X115847500Y-163632859D01*
X115945159Y-163693001D01*
X115953334Y-163710299D01*
X129796789Y-163710299D01*
X129657962Y-163376655D01*
X115918890Y-163376655D01*
X115907385Y-163407184D01*
X115825651Y-163482258D01*
X115785657Y-163396751D01*
X115784000Y-163354003D01*
X115825657Y-163266801D01*
X115870048Y-163275187D01*
X115918890Y-163376655D01*
X129657962Y-163376655D01*
X129633523Y-163317923D01*
X129598223Y-163232000D01*
X115614667Y-163232000D01*
X115583689Y-163301690D01*
X115558223Y-163288445D01*
X115548090Y-163187965D01*
X115558223Y-163175556D01*
X115608557Y-163187178D01*
X115614667Y-163232000D01*
X129598223Y-163232000D01*
X129363017Y-162659499D01*
X129167601Y-162173667D01*
X115191334Y-162173667D01*
X115149000Y-162216000D01*
X115106667Y-162173667D01*
X115149000Y-162131334D01*
X115191334Y-162173667D01*
X129167601Y-162173667D01*
X129152115Y-162135167D01*
X129117815Y-162046667D01*
X117223334Y-162046667D01*
X117192356Y-162116357D01*
X117166889Y-162103111D01*
X117156756Y-162002632D01*
X117166889Y-161990222D01*
X117217224Y-162001845D01*
X117223334Y-162046667D01*
X129117815Y-162046667D01*
X129022712Y-161801286D01*
X114991950Y-161801286D01*
X114962995Y-161928715D01*
X114911036Y-162040494D01*
X114881871Y-161995198D01*
X114868851Y-161934207D01*
X114865892Y-161779629D01*
X114887516Y-161729596D01*
X114965383Y-161707173D01*
X114991950Y-161801286D01*
X129022712Y-161801286D01*
X128996774Y-161734363D01*
X128908371Y-161489278D01*
X114930650Y-161489278D01*
X114915083Y-161599092D01*
X114886181Y-161600403D01*
X114865970Y-161487086D01*
X114879497Y-161438125D01*
X114917092Y-161406055D01*
X114930650Y-161489278D01*
X128908371Y-161489278D01*
X128892950Y-161446527D01*
X128836598Y-161261097D01*
X128823674Y-161167512D01*
X128831043Y-161152491D01*
X128841516Y-161058889D01*
X117364445Y-161058889D01*
X117352823Y-161109223D01*
X117308000Y-161115334D01*
X117238310Y-161084355D01*
X117251556Y-161058889D01*
X117352036Y-161048756D01*
X117364445Y-161058889D01*
X128841516Y-161058889D01*
X128841910Y-161055373D01*
X128828133Y-161025670D01*
X116800000Y-161025670D01*
X116738540Y-161111888D01*
X116715334Y-161115334D01*
X116632868Y-161086447D01*
X116630667Y-161077997D01*
X116689996Y-161005711D01*
X116715334Y-160988334D01*
X116793353Y-160995046D01*
X116800000Y-161025670D01*
X128828133Y-161025670D01*
X128764996Y-160889556D01*
X116433112Y-160889556D01*
X116421489Y-160939890D01*
X116376667Y-160946000D01*
X116306977Y-160915022D01*
X116320223Y-160889556D01*
X116420702Y-160879423D01*
X116433112Y-160889556D01*
X128764996Y-160889556D01*
X128754442Y-160866804D01*
X128635853Y-160692000D01*
X117562000Y-160692000D01*
X117531022Y-160761690D01*
X117505556Y-160748445D01*
X117495423Y-160647965D01*
X117505556Y-160635556D01*
X117555890Y-160647178D01*
X117562000Y-160692000D01*
X128635853Y-160692000D01*
X128586191Y-160618798D01*
X128557454Y-160583420D01*
X117166149Y-160583420D01*
X117165608Y-160659250D01*
X117076653Y-160751330D01*
X116956885Y-160774847D01*
X116886122Y-160717688D01*
X116884667Y-160701875D01*
X116954915Y-160622092D01*
X117047666Y-160584458D01*
X117166149Y-160583420D01*
X128557454Y-160583420D01*
X128439328Y-160438000D01*
X128417806Y-160407371D01*
X116876454Y-160407371D01*
X116794834Y-160537012D01*
X116772427Y-160563470D01*
X116603452Y-160728068D01*
X116500690Y-160769066D01*
X116480786Y-160680284D01*
X116482500Y-160671140D01*
X116579385Y-160512832D01*
X116750846Y-160386017D01*
X116857094Y-160356026D01*
X116876454Y-160407371D01*
X128417806Y-160407371D01*
X128309192Y-160252800D01*
X128233945Y-160123603D01*
X117209686Y-160123603D01*
X117189085Y-160170918D01*
X117103835Y-160261812D01*
X117054825Y-160243166D01*
X117054000Y-160231330D01*
X117114137Y-160159718D01*
X117151749Y-160133582D01*
X117209686Y-160123603D01*
X128233945Y-160123603D01*
X128146948Y-159974232D01*
X128114941Y-159911693D01*
X116994420Y-159911693D01*
X116900215Y-159996087D01*
X116874502Y-160014667D01*
X116702124Y-160155910D01*
X116490073Y-160351103D01*
X116431637Y-160408540D01*
X116219848Y-160603940D01*
X116096671Y-160680313D01*
X116070788Y-160633189D01*
X116086536Y-160586167D01*
X116174428Y-160479265D01*
X116354746Y-160316495D01*
X116468212Y-160226334D01*
X116122667Y-160226334D01*
X116080334Y-160268667D01*
X116038000Y-160226334D01*
X116080334Y-160184000D01*
X116122667Y-160226334D01*
X116468212Y-160226334D01*
X116509675Y-160193388D01*
X116722258Y-160027425D01*
X116818312Y-159922161D01*
X116817647Y-159837865D01*
X116740071Y-159734808D01*
X116738963Y-159733535D01*
X116588334Y-159560628D01*
X116819532Y-159724148D01*
X116970982Y-159839315D01*
X116994420Y-159911693D01*
X128114941Y-159911693D01*
X127994314Y-159676000D01*
X127953934Y-159591334D01*
X122797965Y-159591334D01*
X122784660Y-159711529D01*
X122755261Y-159697167D01*
X122744078Y-159523825D01*
X122752168Y-159496097D01*
X116524001Y-159496097D01*
X116461979Y-159455517D01*
X116450828Y-159444578D01*
X116383951Y-159333570D01*
X116393019Y-159292760D01*
X116456000Y-159318168D01*
X116498224Y-159397182D01*
X116524001Y-159496097D01*
X122752168Y-159496097D01*
X122755261Y-159485500D01*
X122786163Y-159474864D01*
X122797965Y-159591334D01*
X127953934Y-159591334D01*
X127765487Y-159196222D01*
X125323112Y-159196222D01*
X125311489Y-159246557D01*
X125266667Y-159252667D01*
X125196977Y-159221689D01*
X125210223Y-159196222D01*
X125310702Y-159186089D01*
X125323112Y-159196222D01*
X127765487Y-159196222D01*
X127662023Y-158979293D01*
X127637516Y-158928320D01*
X116461334Y-158928320D01*
X116404445Y-158939959D01*
X116266614Y-158861174D01*
X116257504Y-158854453D01*
X116138837Y-158741155D01*
X116129988Y-158674619D01*
X116133350Y-158673162D01*
X116260749Y-158699157D01*
X116397185Y-158805087D01*
X116461331Y-158927684D01*
X116461334Y-158928320D01*
X127637516Y-158928320D01*
X127569568Y-158787000D01*
X117477334Y-158787000D01*
X117435000Y-158829334D01*
X117392667Y-158787000D01*
X117435000Y-158744667D01*
X117477334Y-158787000D01*
X127569568Y-158787000D01*
X127388969Y-158411384D01*
X127162747Y-157947640D01*
X127159100Y-157940334D01*
X117816000Y-157940334D01*
X117773667Y-157982667D01*
X117731334Y-157940334D01*
X117773667Y-157898000D01*
X117816000Y-157940334D01*
X127159100Y-157940334D01*
X127095704Y-157813334D01*
X117604334Y-157813334D01*
X117597621Y-157891352D01*
X117566997Y-157898000D01*
X117480779Y-157836540D01*
X117477334Y-157813334D01*
X117506221Y-157730868D01*
X117514670Y-157728667D01*
X117586956Y-157787996D01*
X117604334Y-157813334D01*
X127095704Y-157813334D01*
X126970954Y-157563427D01*
X126856088Y-157340611D01*
X122804650Y-157340611D01*
X122789083Y-157450425D01*
X122760181Y-157451736D01*
X122739970Y-157338419D01*
X122753497Y-157289459D01*
X122791092Y-157257388D01*
X122804650Y-157340611D01*
X126856088Y-157340611D01*
X126827466Y-157285091D01*
X124298612Y-157285091D01*
X124215389Y-157298649D01*
X124105575Y-157283083D01*
X124104264Y-157254181D01*
X124217581Y-157233969D01*
X124266542Y-157247497D01*
X124298612Y-157285091D01*
X126827466Y-157285091D01*
X126801185Y-157234112D01*
X126641036Y-156935063D01*
X126588063Y-156839667D01*
X125351334Y-156839667D01*
X125309000Y-156882000D01*
X125266667Y-156839667D01*
X125309000Y-156797334D01*
X125351334Y-156839667D01*
X126588063Y-156839667D01*
X126478101Y-156641644D01*
X126446315Y-156585667D01*
X125351334Y-156585667D01*
X125309000Y-156628000D01*
X125266667Y-156585667D01*
X123234667Y-156585667D01*
X123192334Y-156628000D01*
X123150000Y-156585667D01*
X123192334Y-156543334D01*
X123234667Y-156585667D01*
X125266667Y-156585667D01*
X125309000Y-156543334D01*
X125351334Y-156585667D01*
X126446315Y-156585667D01*
X126374198Y-156458667D01*
X126302009Y-156331667D01*
X125266667Y-156331667D01*
X125224334Y-156374000D01*
X125182000Y-156331667D01*
X125224334Y-156289334D01*
X125266667Y-156331667D01*
X126302009Y-156331667D01*
X126171275Y-156101671D01*
X126114167Y-156000056D01*
X123912000Y-156000056D01*
X123862647Y-156092774D01*
X123761097Y-156077989D01*
X123677403Y-155966542D01*
X123702237Y-155908334D01*
X123065334Y-155908334D01*
X123023000Y-155950667D01*
X122980667Y-155908334D01*
X123023000Y-155866000D01*
X123065334Y-155908334D01*
X123702237Y-155908334D01*
X123714252Y-155880175D01*
X123777945Y-155866000D01*
X123894577Y-155934170D01*
X123912000Y-156000056D01*
X126114167Y-156000056D01*
X126075033Y-155930425D01*
X125145279Y-155930425D01*
X125062056Y-155943983D01*
X124952242Y-155928416D01*
X124951332Y-155908334D01*
X124674000Y-155908334D01*
X124631667Y-155950667D01*
X124589334Y-155908334D01*
X124631667Y-155866000D01*
X124674000Y-155908334D01*
X124951332Y-155908334D01*
X124950931Y-155899514D01*
X125064248Y-155879303D01*
X125113209Y-155892830D01*
X125145279Y-155930425D01*
X126075033Y-155930425D01*
X126012480Y-155819122D01*
X123312563Y-155819122D01*
X123223879Y-155829648D01*
X123192334Y-155821010D01*
X123141193Y-155804881D01*
X122535139Y-155804881D01*
X122519560Y-155858623D01*
X122435811Y-155945521D01*
X122415453Y-155908334D01*
X119340000Y-155908334D01*
X119297667Y-155950667D01*
X119255334Y-155908334D01*
X119297667Y-155866000D01*
X119340000Y-155908334D01*
X122415453Y-155908334D01*
X122393541Y-155868312D01*
X122389909Y-155800194D01*
X119170667Y-155800194D01*
X119150299Y-155901579D01*
X119058949Y-155880607D01*
X119001334Y-155846351D01*
X118869887Y-155747119D01*
X118832000Y-155694443D01*
X118903190Y-155656887D01*
X119001334Y-155648286D01*
X119144126Y-155708734D01*
X119170667Y-155800194D01*
X122389909Y-155800194D01*
X122388000Y-155764400D01*
X122408743Y-155641567D01*
X122480258Y-155670405D01*
X122482223Y-155672356D01*
X122535139Y-155804881D01*
X123141193Y-155804881D01*
X122995440Y-155758913D01*
X122924176Y-155736225D01*
X122835239Y-155669604D01*
X122871861Y-155602273D01*
X123003943Y-155564456D01*
X123140018Y-155625415D01*
X123281646Y-155739965D01*
X123312563Y-155819122D01*
X126012480Y-155819122D01*
X125996438Y-155790579D01*
X125967931Y-155739000D01*
X125012667Y-155739000D01*
X124970334Y-155781334D01*
X124928000Y-155739000D01*
X124970334Y-155696667D01*
X125012667Y-155739000D01*
X125967931Y-155739000D01*
X125933109Y-155675996D01*
X123608963Y-155675996D01*
X123557516Y-155677283D01*
X123437389Y-155573686D01*
X123429070Y-155555556D01*
X119989112Y-155555556D01*
X119977489Y-155605890D01*
X119932667Y-155612000D01*
X119862977Y-155581022D01*
X119876223Y-155555556D01*
X119976702Y-155545423D01*
X119989112Y-155555556D01*
X123429070Y-155555556D01*
X123423403Y-155543209D01*
X123428460Y-155485000D01*
X122388000Y-155485000D01*
X122345667Y-155527334D01*
X122303334Y-155485000D01*
X122345667Y-155442667D01*
X119086000Y-155442667D01*
X119017085Y-155516971D01*
X118954004Y-155527334D01*
X118866369Y-155486288D01*
X118874334Y-155442667D01*
X118982577Y-155361230D01*
X119006331Y-155358000D01*
X119083720Y-155422579D01*
X119086000Y-155442667D01*
X122345667Y-155442667D01*
X122388000Y-155485000D01*
X123428460Y-155485000D01*
X123431272Y-155452640D01*
X123508534Y-155457883D01*
X123593427Y-155547637D01*
X123606666Y-155576742D01*
X123608963Y-155675996D01*
X125933109Y-155675996D01*
X125874341Y-155569667D01*
X124589334Y-155569667D01*
X124547000Y-155612000D01*
X124504667Y-155569667D01*
X124547000Y-155527334D01*
X124589334Y-155569667D01*
X125874341Y-155569667D01*
X125868589Y-155559261D01*
X125807132Y-155442667D01*
X125789982Y-155409574D01*
X124070943Y-155409574D01*
X124049923Y-155526668D01*
X124024889Y-155555556D01*
X123900966Y-155609487D01*
X123830173Y-155521365D01*
X123827334Y-155485000D01*
X123895107Y-155372752D01*
X123954334Y-155358000D01*
X124070943Y-155409574D01*
X125789982Y-155409574D01*
X125744540Y-155321890D01*
X125687886Y-155216889D01*
X125069112Y-155216889D01*
X125057489Y-155267223D01*
X125012667Y-155273334D01*
X124942977Y-155242355D01*
X124956223Y-155216889D01*
X125056702Y-155206756D01*
X125069112Y-155216889D01*
X125687886Y-155216889D01*
X125617900Y-155087180D01*
X125594760Y-155044896D01*
X124713477Y-155044896D01*
X124694640Y-155075582D01*
X124625945Y-155158824D01*
X124636136Y-155195898D01*
X124660811Y-155270086D01*
X124599398Y-155242545D01*
X124546349Y-155188667D01*
X123615667Y-155188667D01*
X123611797Y-155266810D01*
X123583327Y-155273334D01*
X123463636Y-155211548D01*
X123446334Y-155188667D01*
X123448430Y-155146334D01*
X123234667Y-155146334D01*
X123192334Y-155188667D01*
X123150000Y-155146334D01*
X123164112Y-155132222D01*
X122867778Y-155132222D01*
X122856156Y-155182557D01*
X122811334Y-155188667D01*
X122741644Y-155157689D01*
X122754889Y-155132222D01*
X122855369Y-155122089D01*
X122867778Y-155132222D01*
X123164112Y-155132222D01*
X123192334Y-155104000D01*
X123234667Y-155146334D01*
X123448430Y-155146334D01*
X123450204Y-155110523D01*
X123478674Y-155104000D01*
X123598365Y-155165786D01*
X123615667Y-155188667D01*
X124546349Y-155188667D01*
X124504667Y-155146334D01*
X124451603Y-155052733D01*
X124467256Y-155047556D01*
X124307112Y-155047556D01*
X124295489Y-155097890D01*
X124250667Y-155104000D01*
X124180977Y-155073022D01*
X124194223Y-155047556D01*
X124294702Y-155037423D01*
X124307112Y-155047556D01*
X124467256Y-155047556D01*
X124534386Y-155025355D01*
X124600134Y-155026018D01*
X124713477Y-155044896D01*
X125594760Y-155044896D01*
X125527082Y-154921230D01*
X124302547Y-154921230D01*
X124178021Y-154912975D01*
X124136295Y-154903068D01*
X123973800Y-154882623D01*
X123911621Y-154911887D01*
X123836788Y-154958804D01*
X123653354Y-154989660D01*
X123615288Y-154992148D01*
X123419886Y-154982446D01*
X123325458Y-154940541D01*
X122974783Y-154940541D01*
X122924354Y-155016714D01*
X122896000Y-155019334D01*
X122830421Y-154947625D01*
X122828481Y-154934667D01*
X122642000Y-154934667D01*
X122611022Y-155004357D01*
X122585556Y-154991111D01*
X122584666Y-154982279D01*
X122374920Y-154982279D01*
X122353986Y-155086120D01*
X122290253Y-155085529D01*
X122263680Y-155061667D01*
X119678667Y-155061667D01*
X119636334Y-155104000D01*
X119594000Y-155061667D01*
X119636334Y-155019334D01*
X119678667Y-155061667D01*
X122263680Y-155061667D01*
X122186148Y-154992046D01*
X122176334Y-154948778D01*
X122206023Y-154886636D01*
X121193694Y-154886636D01*
X121144420Y-154926754D01*
X121028337Y-154934667D01*
X120910292Y-154903408D01*
X120904049Y-154853698D01*
X121014191Y-154807573D01*
X121078379Y-154820423D01*
X121193694Y-154886636D01*
X122206023Y-154886636D01*
X122221853Y-154853504D01*
X122311854Y-154871370D01*
X122374920Y-154982279D01*
X122584666Y-154982279D01*
X122575423Y-154890632D01*
X122585556Y-154878222D01*
X122635890Y-154889845D01*
X122642000Y-154934667D01*
X122828481Y-154934667D01*
X122812630Y-154828834D01*
X122824065Y-154723000D01*
X120610000Y-154723000D01*
X120567667Y-154765334D01*
X120525334Y-154723000D01*
X120567667Y-154680667D01*
X120610000Y-154723000D01*
X122824065Y-154723000D01*
X122825998Y-154705119D01*
X122875800Y-154735535D01*
X122896000Y-154765334D01*
X122974783Y-154940541D01*
X123325458Y-154940541D01*
X123321969Y-154938993D01*
X123319334Y-154928648D01*
X123385827Y-154854728D01*
X123420183Y-154850000D01*
X123440966Y-154809518D01*
X123356683Y-154725693D01*
X123258130Y-154640841D01*
X123288307Y-154606482D01*
X123464843Y-154598693D01*
X123649185Y-154614504D01*
X123698922Y-154679651D01*
X123686329Y-154728965D01*
X123678529Y-154812635D01*
X123770997Y-154830411D01*
X123933290Y-154806029D01*
X124189140Y-154792895D01*
X124295933Y-154854745D01*
X124302547Y-154921230D01*
X125527082Y-154921230D01*
X125457209Y-154793556D01*
X124730445Y-154793556D01*
X124718823Y-154843890D01*
X124674000Y-154850000D01*
X124604310Y-154819022D01*
X124617556Y-154793556D01*
X124718036Y-154783423D01*
X124730445Y-154793556D01*
X125457209Y-154793556D01*
X125445671Y-154772475D01*
X125289996Y-154490748D01*
X124795138Y-154490748D01*
X124685565Y-154585539D01*
X124497727Y-154650673D01*
X124335334Y-154663897D01*
X124039000Y-154653567D01*
X124161748Y-154638334D01*
X123996667Y-154638334D01*
X123954334Y-154680667D01*
X123912000Y-154638334D01*
X123954334Y-154596000D01*
X123996667Y-154638334D01*
X124161748Y-154638334D01*
X124314167Y-154619419D01*
X124516880Y-154559973D01*
X124589334Y-154463636D01*
X124593472Y-154454889D01*
X124053112Y-154454889D01*
X124041489Y-154505223D01*
X123996667Y-154511334D01*
X123926977Y-154480355D01*
X123930409Y-154473756D01*
X123640438Y-154473756D01*
X123538674Y-154487786D01*
X123446334Y-154489982D01*
X123272083Y-154483167D01*
X123227108Y-154463980D01*
X123254847Y-154453161D01*
X123458168Y-154437390D01*
X123593513Y-154451452D01*
X123640438Y-154473756D01*
X123930409Y-154473756D01*
X123940223Y-154454889D01*
X124040702Y-154444756D01*
X124053112Y-154454889D01*
X124593472Y-154454889D01*
X124633532Y-154370222D01*
X124307112Y-154370222D01*
X124295489Y-154420557D01*
X124250667Y-154426667D01*
X124180977Y-154395689D01*
X124194223Y-154370222D01*
X124294702Y-154360089D01*
X124307112Y-154370222D01*
X124633532Y-154370222D01*
X124642509Y-154351251D01*
X124759206Y-154373454D01*
X124781800Y-154393355D01*
X124795138Y-154490748D01*
X125289996Y-154490748D01*
X125248040Y-154414820D01*
X125182837Y-154299667D01*
X124928000Y-154299667D01*
X124885667Y-154342000D01*
X124865425Y-154321758D01*
X123875279Y-154321758D01*
X123792056Y-154335316D01*
X123682242Y-154319749D01*
X123681719Y-154308204D01*
X123020170Y-154308204D01*
X122958833Y-154332252D01*
X122811334Y-154342000D01*
X122631803Y-154356168D01*
X122605102Y-154384988D01*
X122684334Y-154426667D01*
X122796553Y-154482586D01*
X122755268Y-154502388D01*
X122700504Y-154505383D01*
X122597321Y-154546709D01*
X122599667Y-154596000D01*
X122609701Y-154671705D01*
X122527544Y-154664419D01*
X122405445Y-154579533D01*
X122401408Y-154575541D01*
X122297348Y-154515623D01*
X122224608Y-154586388D01*
X122123146Y-154663975D01*
X122037328Y-154605136D01*
X122005267Y-154441283D01*
X122006302Y-154426667D01*
X120821667Y-154426667D01*
X120817797Y-154504810D01*
X120789327Y-154511334D01*
X120669636Y-154449548D01*
X120652334Y-154426667D01*
X120656204Y-154348523D01*
X120684674Y-154342000D01*
X120804365Y-154403786D01*
X120821667Y-154426667D01*
X122006302Y-154426667D01*
X122007655Y-154407586D01*
X122029642Y-154156117D01*
X122031382Y-154130334D01*
X121033334Y-154130334D01*
X120991000Y-154172667D01*
X120948667Y-154130334D01*
X120991000Y-154088000D01*
X121033334Y-154130334D01*
X122031382Y-154130334D01*
X122038528Y-154024500D01*
X122058117Y-153961000D01*
X121287334Y-153961000D01*
X121245000Y-154003334D01*
X121202667Y-153961000D01*
X121245000Y-153918667D01*
X121287334Y-153961000D01*
X122058117Y-153961000D01*
X122087513Y-153865712D01*
X122200279Y-153857854D01*
X122365455Y-154000116D01*
X122407175Y-154050814D01*
X122550520Y-154189844D01*
X122667461Y-154233589D01*
X122673361Y-154231864D01*
X122824367Y-154231283D01*
X122938334Y-154263099D01*
X123020170Y-154308204D01*
X123681719Y-154308204D01*
X123680931Y-154290847D01*
X123794248Y-154270636D01*
X123843209Y-154284163D01*
X123875279Y-154321758D01*
X124865425Y-154321758D01*
X124843334Y-154299667D01*
X124885667Y-154257334D01*
X124928000Y-154299667D01*
X125182837Y-154299667D01*
X125039013Y-154045667D01*
X123912000Y-154045667D01*
X123869667Y-154088000D01*
X123827334Y-154045667D01*
X123869667Y-154003334D01*
X123912000Y-154045667D01*
X125039013Y-154045667D01*
X125030278Y-154030242D01*
X124987403Y-153961000D01*
X124589334Y-153961000D01*
X124547000Y-154003334D01*
X124504667Y-153961000D01*
X124547000Y-153918667D01*
X124589334Y-153961000D01*
X124987403Y-153961000D01*
X124934976Y-153876334D01*
X124335334Y-153876334D01*
X124293000Y-153918667D01*
X124250667Y-153876334D01*
X124293000Y-153834000D01*
X124335334Y-153876334D01*
X124934976Y-153876334D01*
X124890777Y-153804956D01*
X123842347Y-153804956D01*
X123784777Y-153887658D01*
X123757480Y-153917965D01*
X123528858Y-154044242D01*
X123277000Y-154068930D01*
X122938334Y-154063971D01*
X123277000Y-154003334D01*
X123451722Y-153963816D01*
X123467644Y-153937774D01*
X123411056Y-153930681D01*
X123260063Y-153909856D01*
X123274161Y-153876575D01*
X123449763Y-153833282D01*
X123588146Y-153810005D01*
X123785549Y-153784647D01*
X123842347Y-153804956D01*
X124890777Y-153804956D01*
X124871504Y-153773832D01*
X124786361Y-153664667D01*
X123531000Y-153664667D01*
X123505077Y-153731307D01*
X123408997Y-153749334D01*
X123268726Y-153714790D01*
X123234667Y-153664667D01*
X123302882Y-153588728D01*
X123356670Y-153580000D01*
X123500819Y-153631600D01*
X123531000Y-153664667D01*
X124786361Y-153664667D01*
X124753787Y-153622904D01*
X124659196Y-153554769D01*
X124569798Y-153546743D01*
X124562839Y-153547925D01*
X124459954Y-153556251D01*
X124483500Y-153531550D01*
X124584667Y-153423128D01*
X124545724Y-153298761D01*
X124382769Y-153207876D01*
X124377667Y-153206566D01*
X124329616Y-153184889D01*
X123714445Y-153184889D01*
X123702823Y-153235223D01*
X123658000Y-153241334D01*
X123588310Y-153210355D01*
X123594216Y-153199000D01*
X123319334Y-153199000D01*
X123277000Y-153241334D01*
X123234667Y-153199000D01*
X123277000Y-153156667D01*
X123319334Y-153199000D01*
X123594216Y-153199000D01*
X123601556Y-153184889D01*
X123702036Y-153174756D01*
X123714445Y-153184889D01*
X124329616Y-153184889D01*
X124218996Y-153134986D01*
X124204397Y-153114334D01*
X122980667Y-153114334D01*
X122938334Y-153156667D01*
X122896000Y-153114334D01*
X122938334Y-153072000D01*
X122980667Y-153114334D01*
X124204397Y-153114334D01*
X124166000Y-153060020D01*
X124198797Y-153029667D01*
X123234667Y-153029667D01*
X123192334Y-153072000D01*
X123150000Y-153029667D01*
X123192334Y-152987334D01*
X123234667Y-153029667D01*
X124198797Y-153029667D01*
X124210541Y-153018799D01*
X124293000Y-153072000D01*
X124393340Y-153133682D01*
X124417401Y-153066270D01*
X124417308Y-153061200D01*
X124363257Y-152894973D01*
X124244858Y-152733545D01*
X124117714Y-152649997D01*
X124103438Y-152648667D01*
X124011822Y-152582753D01*
X123923831Y-152428272D01*
X123864187Y-152250115D01*
X123857612Y-152113170D01*
X123886283Y-152078684D01*
X123943398Y-151984603D01*
X123935720Y-151883560D01*
X123868186Y-151772295D01*
X123810818Y-151769874D01*
X123755407Y-151746138D01*
X123754831Y-151663088D01*
X123743865Y-151473590D01*
X123713989Y-151399184D01*
X123712856Y-151257473D01*
X123779602Y-151160303D01*
X123886532Y-151015567D01*
X123912000Y-150936164D01*
X123870621Y-150899371D01*
X123759939Y-150983783D01*
G36*
X132908236Y-154146283D02*
G01*
X132910449Y-154335303D01*
X132921069Y-154405500D01*
X132975438Y-154690914D01*
X133063850Y-155109212D01*
X133179170Y-155629027D01*
X133314263Y-156218994D01*
X133461995Y-156847744D01*
X133615230Y-157483912D01*
X133696230Y-157813334D01*
X133818189Y-158305772D01*
X133943005Y-158810249D01*
X134056319Y-159268702D01*
X134143771Y-159623064D01*
X134146383Y-159633667D01*
X134245205Y-160065689D01*
X134342304Y-160540847D01*
X134414915Y-160946000D01*
X134475044Y-161266205D01*
X134568531Y-161698305D01*
X134683687Y-162190960D01*
X134808825Y-162692833D01*
X134838970Y-162808667D01*
X134958124Y-163268954D01*
X135065723Y-163696784D01*
X135152206Y-164053246D01*
X135208009Y-164299433D01*
X135218963Y-164354769D01*
X135274559Y-164572705D01*
X135339076Y-164708032D01*
X135352273Y-164720015D01*
X135450651Y-164730782D01*
X135695230Y-164741237D01*
X136062876Y-164751181D01*
X136530457Y-164760419D01*
X137074839Y-164768753D01*
X137672890Y-164775986D01*
X138301476Y-164781920D01*
X138937465Y-164786359D01*
X139557723Y-164789105D01*
X140139119Y-164789961D01*
X140658518Y-164788730D01*
X141092787Y-164785214D01*
X141418795Y-164779217D01*
X141576561Y-164773075D01*
X142011455Y-164747817D01*
X141850882Y-164053409D01*
X141775011Y-163719974D01*
X141674504Y-163270675D01*
X141560387Y-162755183D01*
X141443686Y-162223169D01*
X141396029Y-162004334D01*
X141157820Y-160941287D01*
X140936813Y-160030892D01*
X140727617Y-159257984D01*
X140524834Y-158607395D01*
X140323073Y-158063959D01*
X140116937Y-157612510D01*
X139901034Y-157237882D01*
X139669969Y-156924908D01*
X139536246Y-156775420D01*
X139355444Y-156599376D01*
X139171531Y-156459323D01*
X138948535Y-156336855D01*
X138650484Y-156213568D01*
X138241408Y-156071055D01*
X138014092Y-155996583D01*
X137668040Y-155878016D01*
X137200898Y-155708644D01*
X136648262Y-155501879D01*
X136045727Y-155271134D01*
X135428888Y-155029822D01*
X135084253Y-154892575D01*
X134534763Y-154673780D01*
X134034475Y-154477614D01*
X133605636Y-154312555D01*
X133270496Y-154187082D01*
X133051303Y-154109675D01*
X132973034Y-154088000D01*
X132908236Y-154146283D01*
G37*
X132908236Y-154146283D02*
X132910449Y-154335303D01*
X132921069Y-154405500D01*
X132975438Y-154690914D01*
X133063850Y-155109212D01*
X133179170Y-155629027D01*
X133314263Y-156218994D01*
X133461995Y-156847744D01*
X133615230Y-157483912D01*
X133696230Y-157813334D01*
X133818189Y-158305772D01*
X133943005Y-158810249D01*
X134056319Y-159268702D01*
X134143771Y-159623064D01*
X134146383Y-159633667D01*
X134245205Y-160065689D01*
X134342304Y-160540847D01*
X134414915Y-160946000D01*
X134475044Y-161266205D01*
X134568531Y-161698305D01*
X134683687Y-162190960D01*
X134808825Y-162692833D01*
X134838970Y-162808667D01*
X134958124Y-163268954D01*
X135065723Y-163696784D01*
X135152206Y-164053246D01*
X135208009Y-164299433D01*
X135218963Y-164354769D01*
X135274559Y-164572705D01*
X135339076Y-164708032D01*
X135352273Y-164720015D01*
X135450651Y-164730782D01*
X135695230Y-164741237D01*
X136062876Y-164751181D01*
X136530457Y-164760419D01*
X137074839Y-164768753D01*
X137672890Y-164775986D01*
X138301476Y-164781920D01*
X138937465Y-164786359D01*
X139557723Y-164789105D01*
X140139119Y-164789961D01*
X140658518Y-164788730D01*
X141092787Y-164785214D01*
X141418795Y-164779217D01*
X141576561Y-164773075D01*
X142011455Y-164747817D01*
X141850882Y-164053409D01*
X141775011Y-163719974D01*
X141674504Y-163270675D01*
X141560387Y-162755183D01*
X141443686Y-162223169D01*
X141396029Y-162004334D01*
X141157820Y-160941287D01*
X140936813Y-160030892D01*
X140727617Y-159257984D01*
X140524834Y-158607395D01*
X140323073Y-158063959D01*
X140116937Y-157612510D01*
X139901034Y-157237882D01*
X139669969Y-156924908D01*
X139536246Y-156775420D01*
X139355444Y-156599376D01*
X139171531Y-156459323D01*
X138948535Y-156336855D01*
X138650484Y-156213568D01*
X138241408Y-156071055D01*
X138014092Y-155996583D01*
X137668040Y-155878016D01*
X137200898Y-155708644D01*
X136648262Y-155501879D01*
X136045727Y-155271134D01*
X135428888Y-155029822D01*
X135084253Y-154892575D01*
X134534763Y-154673780D01*
X134034475Y-154477614D01*
X133605636Y-154312555D01*
X133270496Y-154187082D01*
X133051303Y-154109675D01*
X132973034Y-154088000D01*
X132908236Y-154146283D01*
M02*
