G04 #@! TF.GenerationSoftware,KiCad,Pcbnew,(5.1.5)-3*
G04 #@! TF.CreationDate,2021-01-10T22:28:37-06:00*
G04 #@! TF.ProjectId,Power-Secondary,506f7765-722d-4536-9563-6f6e64617279,rev?*
G04 #@! TF.SameCoordinates,Original*
G04 #@! TF.FileFunction,Legend,Top*
G04 #@! TF.FilePolarity,Positive*
%FSLAX46Y46*%
G04 Gerber Fmt 4.6, Leading zero omitted, Abs format (unit mm)*
G04 Created by KiCad (PCBNEW (5.1.5)-3) date 2021-01-10 22:28:37*
%MOMM*%
%LPD*%
G04 APERTURE LIST*
%ADD10C,0.150000*%
%ADD11C,0.300000*%
%ADD12C,0.120000*%
%ADD13C,0.010000*%
G04 APERTURE END LIST*
D10*
X37571428Y-107952380D02*
X37571428Y-108666666D01*
X37523809Y-108809523D01*
X37428571Y-108904761D01*
X37285714Y-108952380D01*
X37190476Y-108952380D01*
X38047619Y-107952380D02*
X38047619Y-108761904D01*
X38095238Y-108857142D01*
X38142857Y-108904761D01*
X38238095Y-108952380D01*
X38428571Y-108952380D01*
X38523809Y-108904761D01*
X38571428Y-108857142D01*
X38619047Y-108761904D01*
X38619047Y-107952380D01*
X39095238Y-108952380D02*
X39095238Y-107952380D01*
X39428571Y-108666666D01*
X39761904Y-107952380D01*
X39761904Y-108952380D01*
X40238095Y-108952380D02*
X40238095Y-107952380D01*
X40619047Y-107952380D01*
X40714285Y-108000000D01*
X40761904Y-108047619D01*
X40809523Y-108142857D01*
X40809523Y-108285714D01*
X40761904Y-108380952D01*
X40714285Y-108428571D01*
X40619047Y-108476190D01*
X40238095Y-108476190D01*
X41952380Y-108904761D02*
X42095238Y-108952380D01*
X42333333Y-108952380D01*
X42428571Y-108904761D01*
X42476190Y-108857142D01*
X42523809Y-108761904D01*
X42523809Y-108666666D01*
X42476190Y-108571428D01*
X42428571Y-108523809D01*
X42333333Y-108476190D01*
X42142857Y-108428571D01*
X42047619Y-108380952D01*
X42000000Y-108333333D01*
X41952380Y-108238095D01*
X41952380Y-108142857D01*
X42000000Y-108047619D01*
X42047619Y-108000000D01*
X42142857Y-107952380D01*
X42380952Y-107952380D01*
X42523809Y-108000000D01*
X42809523Y-107952380D02*
X43380952Y-107952380D01*
X43095238Y-108952380D02*
X43095238Y-107952380D01*
X43666666Y-108666666D02*
X44142857Y-108666666D01*
X43571428Y-108952380D02*
X43904761Y-107952380D01*
X44238095Y-108952380D01*
X45142857Y-108952380D02*
X44809523Y-108476190D01*
X44571428Y-108952380D02*
X44571428Y-107952380D01*
X44952380Y-107952380D01*
X45047619Y-108000000D01*
X45095238Y-108047619D01*
X45142857Y-108142857D01*
X45142857Y-108285714D01*
X45095238Y-108380952D01*
X45047619Y-108428571D01*
X44952380Y-108476190D01*
X44571428Y-108476190D01*
X45428571Y-107952380D02*
X46000000Y-107952380D01*
X45714285Y-108952380D02*
X45714285Y-107952380D01*
X47285714Y-107952380D02*
X47476190Y-107952380D01*
X47571428Y-108000000D01*
X47666666Y-108095238D01*
X47714285Y-108285714D01*
X47714285Y-108619047D01*
X47666666Y-108809523D01*
X47571428Y-108904761D01*
X47476190Y-108952380D01*
X47285714Y-108952380D01*
X47190476Y-108904761D01*
X47095238Y-108809523D01*
X47047619Y-108619047D01*
X47047619Y-108285714D01*
X47095238Y-108095238D01*
X47190476Y-108000000D01*
X47285714Y-107952380D01*
X48142857Y-108952380D02*
X48142857Y-107952380D01*
X48714285Y-108952380D01*
X48714285Y-107952380D01*
X60827380Y-125500000D02*
X61541666Y-125500000D01*
X61684523Y-125547619D01*
X61779761Y-125642857D01*
X61827380Y-125785714D01*
X61827380Y-125880952D01*
X60827380Y-125023809D02*
X61636904Y-125023809D01*
X61732142Y-124976190D01*
X61779761Y-124928571D01*
X61827380Y-124833333D01*
X61827380Y-124642857D01*
X61779761Y-124547619D01*
X61732142Y-124500000D01*
X61636904Y-124452380D01*
X60827380Y-124452380D01*
X61827380Y-123976190D02*
X60827380Y-123976190D01*
X61541666Y-123642857D01*
X60827380Y-123309523D01*
X61827380Y-123309523D01*
X61827380Y-122833333D02*
X60827380Y-122833333D01*
X60827380Y-122452380D01*
X60875000Y-122357142D01*
X60922619Y-122309523D01*
X61017857Y-122261904D01*
X61160714Y-122261904D01*
X61255952Y-122309523D01*
X61303571Y-122357142D01*
X61351190Y-122452380D01*
X61351190Y-122833333D01*
X61779761Y-121119047D02*
X61827380Y-120976190D01*
X61827380Y-120738095D01*
X61779761Y-120642857D01*
X61732142Y-120595238D01*
X61636904Y-120547619D01*
X61541666Y-120547619D01*
X61446428Y-120595238D01*
X61398809Y-120642857D01*
X61351190Y-120738095D01*
X61303571Y-120928571D01*
X61255952Y-121023809D01*
X61208333Y-121071428D01*
X61113095Y-121119047D01*
X61017857Y-121119047D01*
X60922619Y-121071428D01*
X60875000Y-121023809D01*
X60827380Y-120928571D01*
X60827380Y-120690476D01*
X60875000Y-120547619D01*
X60827380Y-120261904D02*
X60827380Y-119690476D01*
X61827380Y-119976190D02*
X60827380Y-119976190D01*
X61541666Y-119404761D02*
X61541666Y-118928571D01*
X61827380Y-119500000D02*
X60827380Y-119166666D01*
X61827380Y-118833333D01*
X61827380Y-117928571D02*
X61351190Y-118261904D01*
X61827380Y-118500000D02*
X60827380Y-118500000D01*
X60827380Y-118119047D01*
X60875000Y-118023809D01*
X60922619Y-117976190D01*
X61017857Y-117928571D01*
X61160714Y-117928571D01*
X61255952Y-117976190D01*
X61303571Y-118023809D01*
X61351190Y-118119047D01*
X61351190Y-118500000D01*
X60827380Y-117642857D02*
X60827380Y-117071428D01*
X61827380Y-117357142D02*
X60827380Y-117357142D01*
X62477380Y-122119047D02*
X62477380Y-121928571D01*
X62525000Y-121833333D01*
X62620238Y-121738095D01*
X62810714Y-121690476D01*
X63144047Y-121690476D01*
X63334523Y-121738095D01*
X63429761Y-121833333D01*
X63477380Y-121928571D01*
X63477380Y-122119047D01*
X63429761Y-122214285D01*
X63334523Y-122309523D01*
X63144047Y-122357142D01*
X62810714Y-122357142D01*
X62620238Y-122309523D01*
X62525000Y-122214285D01*
X62477380Y-122119047D01*
X63477380Y-121261904D02*
X62477380Y-121261904D01*
X63477380Y-120690476D01*
X62477380Y-120690476D01*
X37452380Y-90428571D02*
X37595238Y-90476190D01*
X37642857Y-90523809D01*
X37690476Y-90619047D01*
X37690476Y-90761904D01*
X37642857Y-90857142D01*
X37595238Y-90904761D01*
X37500000Y-90952380D01*
X37119047Y-90952380D01*
X37119047Y-89952380D01*
X37452380Y-89952380D01*
X37547619Y-90000000D01*
X37595238Y-90047619D01*
X37642857Y-90142857D01*
X37642857Y-90238095D01*
X37595238Y-90333333D01*
X37547619Y-90380952D01*
X37452380Y-90428571D01*
X37119047Y-90428571D01*
X38119047Y-90952380D02*
X38119047Y-89952380D01*
X38500000Y-89952380D01*
X38595238Y-90000000D01*
X38642857Y-90047619D01*
X38690476Y-90142857D01*
X38690476Y-90285714D01*
X38642857Y-90380952D01*
X38595238Y-90428571D01*
X38500000Y-90476190D01*
X38119047Y-90476190D01*
X39071428Y-90904761D02*
X39214285Y-90952380D01*
X39452380Y-90952380D01*
X39547619Y-90904761D01*
X39595238Y-90857142D01*
X39642857Y-90761904D01*
X39642857Y-90666666D01*
X39595238Y-90571428D01*
X39547619Y-90523809D01*
X39452380Y-90476190D01*
X39261904Y-90428571D01*
X39166666Y-90380952D01*
X39119047Y-90333333D01*
X39071428Y-90238095D01*
X39071428Y-90142857D01*
X39119047Y-90047619D01*
X39166666Y-90000000D01*
X39261904Y-89952380D01*
X39500000Y-89952380D01*
X39642857Y-90000000D01*
X40785714Y-90904761D02*
X40928571Y-90952380D01*
X41166666Y-90952380D01*
X41261904Y-90904761D01*
X41309523Y-90857142D01*
X41357142Y-90761904D01*
X41357142Y-90666666D01*
X41309523Y-90571428D01*
X41261904Y-90523809D01*
X41166666Y-90476190D01*
X40976190Y-90428571D01*
X40880952Y-90380952D01*
X40833333Y-90333333D01*
X40785714Y-90238095D01*
X40785714Y-90142857D01*
X40833333Y-90047619D01*
X40880952Y-90000000D01*
X40976190Y-89952380D01*
X41214285Y-89952380D01*
X41357142Y-90000000D01*
X41785714Y-89952380D02*
X41785714Y-90761904D01*
X41833333Y-90857142D01*
X41880952Y-90904761D01*
X41976190Y-90952380D01*
X42166666Y-90952380D01*
X42261904Y-90904761D01*
X42309523Y-90857142D01*
X42357142Y-90761904D01*
X42357142Y-89952380D01*
X42833333Y-90952380D02*
X42833333Y-89952380D01*
X43214285Y-89952380D01*
X43309523Y-90000000D01*
X43357142Y-90047619D01*
X43404761Y-90142857D01*
X43404761Y-90285714D01*
X43357142Y-90380952D01*
X43309523Y-90428571D01*
X43214285Y-90476190D01*
X42833333Y-90476190D01*
X43833333Y-90952380D02*
X43833333Y-89952380D01*
X44214285Y-89952380D01*
X44309523Y-90000000D01*
X44357142Y-90047619D01*
X44404761Y-90142857D01*
X44404761Y-90285714D01*
X44357142Y-90380952D01*
X44309523Y-90428571D01*
X44214285Y-90476190D01*
X43833333Y-90476190D01*
X45309523Y-90952380D02*
X44833333Y-90952380D01*
X44833333Y-89952380D01*
X45833333Y-90476190D02*
X45833333Y-90952380D01*
X45500000Y-89952380D02*
X45833333Y-90476190D01*
X46166666Y-89952380D01*
X47452380Y-89952380D02*
X47642857Y-89952380D01*
X47738095Y-90000000D01*
X47833333Y-90095238D01*
X47880952Y-90285714D01*
X47880952Y-90619047D01*
X47833333Y-90809523D01*
X47738095Y-90904761D01*
X47642857Y-90952380D01*
X47452380Y-90952380D01*
X47357142Y-90904761D01*
X47261904Y-90809523D01*
X47214285Y-90619047D01*
X47214285Y-90285714D01*
X47261904Y-90095238D01*
X47357142Y-90000000D01*
X47452380Y-89952380D01*
X48309523Y-90952380D02*
X48309523Y-89952380D01*
X48880952Y-90952380D01*
X48880952Y-89952380D01*
X61303571Y-106447619D02*
X61351190Y-106304761D01*
X61398809Y-106257142D01*
X61494047Y-106209523D01*
X61636904Y-106209523D01*
X61732142Y-106257142D01*
X61779761Y-106304761D01*
X61827380Y-106400000D01*
X61827380Y-106780952D01*
X60827380Y-106780952D01*
X60827380Y-106447619D01*
X60875000Y-106352380D01*
X60922619Y-106304761D01*
X61017857Y-106257142D01*
X61113095Y-106257142D01*
X61208333Y-106304761D01*
X61255952Y-106352380D01*
X61303571Y-106447619D01*
X61303571Y-106780952D01*
X61827380Y-105780952D02*
X60827380Y-105780952D01*
X60827380Y-105400000D01*
X60875000Y-105304761D01*
X60922619Y-105257142D01*
X61017857Y-105209523D01*
X61160714Y-105209523D01*
X61255952Y-105257142D01*
X61303571Y-105304761D01*
X61351190Y-105400000D01*
X61351190Y-105780952D01*
X61779761Y-104828571D02*
X61827380Y-104685714D01*
X61827380Y-104447619D01*
X61779761Y-104352380D01*
X61732142Y-104304761D01*
X61636904Y-104257142D01*
X61541666Y-104257142D01*
X61446428Y-104304761D01*
X61398809Y-104352380D01*
X61351190Y-104447619D01*
X61303571Y-104638095D01*
X61255952Y-104733333D01*
X61208333Y-104780952D01*
X61113095Y-104828571D01*
X61017857Y-104828571D01*
X60922619Y-104780952D01*
X60875000Y-104733333D01*
X60827380Y-104638095D01*
X60827380Y-104400000D01*
X60875000Y-104257142D01*
X61827380Y-103066666D02*
X60827380Y-103066666D01*
X61541666Y-102733333D01*
X60827380Y-102400000D01*
X61827380Y-102400000D01*
X61541666Y-101971428D02*
X61541666Y-101495238D01*
X61827380Y-102066666D02*
X60827380Y-101733333D01*
X61827380Y-101400000D01*
X61827380Y-101066666D02*
X60827380Y-101066666D01*
X61827380Y-100590476D02*
X60827380Y-100590476D01*
X61827380Y-100019047D01*
X60827380Y-100019047D01*
X63429761Y-107471428D02*
X63477380Y-107328571D01*
X63477380Y-107090476D01*
X63429761Y-106995238D01*
X63382142Y-106947619D01*
X63286904Y-106900000D01*
X63191666Y-106900000D01*
X63096428Y-106947619D01*
X63048809Y-106995238D01*
X63001190Y-107090476D01*
X62953571Y-107280952D01*
X62905952Y-107376190D01*
X62858333Y-107423809D01*
X62763095Y-107471428D01*
X62667857Y-107471428D01*
X62572619Y-107423809D01*
X62525000Y-107376190D01*
X62477380Y-107280952D01*
X62477380Y-107042857D01*
X62525000Y-106900000D01*
X62477380Y-106471428D02*
X63286904Y-106471428D01*
X63382142Y-106423809D01*
X63429761Y-106376190D01*
X63477380Y-106280952D01*
X63477380Y-106090476D01*
X63429761Y-105995238D01*
X63382142Y-105947619D01*
X63286904Y-105900000D01*
X62477380Y-105900000D01*
X63477380Y-105423809D02*
X62477380Y-105423809D01*
X62477380Y-105042857D01*
X62525000Y-104947619D01*
X62572619Y-104900000D01*
X62667857Y-104852380D01*
X62810714Y-104852380D01*
X62905952Y-104900000D01*
X62953571Y-104947619D01*
X63001190Y-105042857D01*
X63001190Y-105423809D01*
X63477380Y-104423809D02*
X62477380Y-104423809D01*
X62477380Y-104042857D01*
X62525000Y-103947619D01*
X62572619Y-103900000D01*
X62667857Y-103852380D01*
X62810714Y-103852380D01*
X62905952Y-103900000D01*
X62953571Y-103947619D01*
X63001190Y-104042857D01*
X63001190Y-104423809D01*
X63477380Y-102947619D02*
X63477380Y-103423809D01*
X62477380Y-103423809D01*
X63001190Y-102423809D02*
X63477380Y-102423809D01*
X62477380Y-102757142D02*
X63001190Y-102423809D01*
X62477380Y-102090476D01*
X62477380Y-100804761D02*
X62477380Y-100614285D01*
X62525000Y-100519047D01*
X62620238Y-100423809D01*
X62810714Y-100376190D01*
X63144047Y-100376190D01*
X63334523Y-100423809D01*
X63429761Y-100519047D01*
X63477380Y-100614285D01*
X63477380Y-100804761D01*
X63429761Y-100900000D01*
X63334523Y-100995238D01*
X63144047Y-101042857D01*
X62810714Y-101042857D01*
X62620238Y-100995238D01*
X62525000Y-100900000D01*
X62477380Y-100804761D01*
X63477380Y-99947619D02*
X62477380Y-99947619D01*
X63477380Y-99376190D01*
X62477380Y-99376190D01*
X147238095Y-140000000D02*
X147142857Y-139952380D01*
X147000000Y-139952380D01*
X146857142Y-140000000D01*
X146761904Y-140095238D01*
X146714285Y-140190476D01*
X146666666Y-140380952D01*
X146666666Y-140523809D01*
X146714285Y-140714285D01*
X146761904Y-140809523D01*
X146857142Y-140904761D01*
X147000000Y-140952380D01*
X147095238Y-140952380D01*
X147238095Y-140904761D01*
X147285714Y-140857142D01*
X147285714Y-140523809D01*
X147095238Y-140523809D01*
X147714285Y-140952380D02*
X147714285Y-139952380D01*
X148285714Y-140952380D01*
X148285714Y-139952380D01*
X148761904Y-140952380D02*
X148761904Y-139952380D01*
X149000000Y-139952380D01*
X149142857Y-140000000D01*
X149238095Y-140095238D01*
X149285714Y-140190476D01*
X149333333Y-140380952D01*
X149333333Y-140523809D01*
X149285714Y-140714285D01*
X149238095Y-140809523D01*
X149142857Y-140904761D01*
X149000000Y-140952380D01*
X148761904Y-140952380D01*
D11*
X112404761Y-158104761D02*
X112404761Y-159723809D01*
X112500000Y-159914285D01*
X112595238Y-160009523D01*
X112785714Y-160104761D01*
X113166666Y-160104761D01*
X113357142Y-160009523D01*
X113452380Y-159914285D01*
X113547619Y-159723809D01*
X113547619Y-158104761D01*
X114214285Y-158104761D02*
X115357142Y-158104761D01*
X114785714Y-160104761D02*
X114785714Y-158104761D01*
X115928571Y-160009523D02*
X116214285Y-160104761D01*
X116690476Y-160104761D01*
X116880952Y-160009523D01*
X116976190Y-159914285D01*
X117071428Y-159723809D01*
X117071428Y-159533333D01*
X116976190Y-159342857D01*
X116880952Y-159247619D01*
X116690476Y-159152380D01*
X116309523Y-159057142D01*
X116119047Y-158961904D01*
X116023809Y-158866666D01*
X115928571Y-158676190D01*
X115928571Y-158485714D01*
X116023809Y-158295238D01*
X116119047Y-158200000D01*
X116309523Y-158104761D01*
X116785714Y-158104761D01*
X117071428Y-158200000D01*
X117642857Y-158104761D02*
X118309523Y-160104761D01*
X118976190Y-158104761D01*
X119357142Y-158104761D02*
X120500000Y-158104761D01*
X119928571Y-160104761D02*
X119928571Y-158104761D01*
X122690476Y-159342857D02*
X124214285Y-159342857D01*
X126690476Y-160104761D02*
X126690476Y-158104761D01*
X127452380Y-158104761D01*
X127642857Y-158200000D01*
X127738095Y-158295238D01*
X127833333Y-158485714D01*
X127833333Y-158771428D01*
X127738095Y-158961904D01*
X127642857Y-159057142D01*
X127452380Y-159152380D01*
X126690476Y-159152380D01*
X128976190Y-160104761D02*
X128785714Y-160009523D01*
X128690476Y-159914285D01*
X128595238Y-159723809D01*
X128595238Y-159152380D01*
X128690476Y-158961904D01*
X128785714Y-158866666D01*
X128976190Y-158771428D01*
X129261904Y-158771428D01*
X129452380Y-158866666D01*
X129547619Y-158961904D01*
X129642857Y-159152380D01*
X129642857Y-159723809D01*
X129547619Y-159914285D01*
X129452380Y-160009523D01*
X129261904Y-160104761D01*
X128976190Y-160104761D01*
X130309523Y-158771428D02*
X130690476Y-160104761D01*
X131071428Y-159152380D01*
X131452380Y-160104761D01*
X131833333Y-158771428D01*
X133357142Y-160009523D02*
X133166666Y-160104761D01*
X132785714Y-160104761D01*
X132595238Y-160009523D01*
X132500000Y-159819047D01*
X132500000Y-159057142D01*
X132595238Y-158866666D01*
X132785714Y-158771428D01*
X133166666Y-158771428D01*
X133357142Y-158866666D01*
X133452380Y-159057142D01*
X133452380Y-159247619D01*
X132500000Y-159438095D01*
X134309523Y-160104761D02*
X134309523Y-158771428D01*
X134309523Y-159152380D02*
X134404761Y-158961904D01*
X134500000Y-158866666D01*
X134690476Y-158771428D01*
X134880952Y-158771428D01*
X102023809Y-163309523D02*
X102309523Y-163404761D01*
X102785714Y-163404761D01*
X102976190Y-163309523D01*
X103071428Y-163214285D01*
X103166666Y-163023809D01*
X103166666Y-162833333D01*
X103071428Y-162642857D01*
X102976190Y-162547619D01*
X102785714Y-162452380D01*
X102404761Y-162357142D01*
X102214285Y-162261904D01*
X102119047Y-162166666D01*
X102023809Y-161976190D01*
X102023809Y-161785714D01*
X102119047Y-161595238D01*
X102214285Y-161500000D01*
X102404761Y-161404761D01*
X102880952Y-161404761D01*
X103166666Y-161500000D01*
X104785714Y-163309523D02*
X104595238Y-163404761D01*
X104214285Y-163404761D01*
X104023809Y-163309523D01*
X103928571Y-163119047D01*
X103928571Y-162357142D01*
X104023809Y-162166666D01*
X104214285Y-162071428D01*
X104595238Y-162071428D01*
X104785714Y-162166666D01*
X104880952Y-162357142D01*
X104880952Y-162547619D01*
X103928571Y-162738095D01*
X106595238Y-163309523D02*
X106404761Y-163404761D01*
X106023809Y-163404761D01*
X105833333Y-163309523D01*
X105738095Y-163214285D01*
X105642857Y-163023809D01*
X105642857Y-162452380D01*
X105738095Y-162261904D01*
X105833333Y-162166666D01*
X106023809Y-162071428D01*
X106404761Y-162071428D01*
X106595238Y-162166666D01*
X107738095Y-163404761D02*
X107547619Y-163309523D01*
X107452380Y-163214285D01*
X107357142Y-163023809D01*
X107357142Y-162452380D01*
X107452380Y-162261904D01*
X107547619Y-162166666D01*
X107738095Y-162071428D01*
X108023809Y-162071428D01*
X108214285Y-162166666D01*
X108309523Y-162261904D01*
X108404761Y-162452380D01*
X108404761Y-163023809D01*
X108309523Y-163214285D01*
X108214285Y-163309523D01*
X108023809Y-163404761D01*
X107738095Y-163404761D01*
X109261904Y-162071428D02*
X109261904Y-163404761D01*
X109261904Y-162261904D02*
X109357142Y-162166666D01*
X109547619Y-162071428D01*
X109833333Y-162071428D01*
X110023809Y-162166666D01*
X110119047Y-162357142D01*
X110119047Y-163404761D01*
X111928571Y-163404761D02*
X111928571Y-161404761D01*
X111928571Y-163309523D02*
X111738095Y-163404761D01*
X111357142Y-163404761D01*
X111166666Y-163309523D01*
X111071428Y-163214285D01*
X110976190Y-163023809D01*
X110976190Y-162452380D01*
X111071428Y-162261904D01*
X111166666Y-162166666D01*
X111357142Y-162071428D01*
X111738095Y-162071428D01*
X111928571Y-162166666D01*
X113738095Y-163404761D02*
X113738095Y-162357142D01*
X113642857Y-162166666D01*
X113452380Y-162071428D01*
X113071428Y-162071428D01*
X112880952Y-162166666D01*
X113738095Y-163309523D02*
X113547619Y-163404761D01*
X113071428Y-163404761D01*
X112880952Y-163309523D01*
X112785714Y-163119047D01*
X112785714Y-162928571D01*
X112880952Y-162738095D01*
X113071428Y-162642857D01*
X113547619Y-162642857D01*
X113738095Y-162547619D01*
X114690476Y-163404761D02*
X114690476Y-162071428D01*
X114690476Y-162452380D02*
X114785714Y-162261904D01*
X114880952Y-162166666D01*
X115071428Y-162071428D01*
X115261904Y-162071428D01*
X115738095Y-162071428D02*
X116214285Y-163404761D01*
X116690476Y-162071428D02*
X116214285Y-163404761D01*
X116023809Y-163880952D01*
X115928571Y-163976190D01*
X115738095Y-164071428D01*
X118976190Y-163404761D02*
X118976190Y-161404761D01*
X119738095Y-161404761D01*
X119928571Y-161500000D01*
X120023809Y-161595238D01*
X120119047Y-161785714D01*
X120119047Y-162071428D01*
X120023809Y-162261904D01*
X119928571Y-162357142D01*
X119738095Y-162452380D01*
X118976190Y-162452380D01*
X121261904Y-163404761D02*
X121071428Y-163309523D01*
X120976190Y-163214285D01*
X120880952Y-163023809D01*
X120880952Y-162452380D01*
X120976190Y-162261904D01*
X121071428Y-162166666D01*
X121261904Y-162071428D01*
X121547619Y-162071428D01*
X121738095Y-162166666D01*
X121833333Y-162261904D01*
X121928571Y-162452380D01*
X121928571Y-163023809D01*
X121833333Y-163214285D01*
X121738095Y-163309523D01*
X121547619Y-163404761D01*
X121261904Y-163404761D01*
X122595238Y-162071428D02*
X122976190Y-163404761D01*
X123357142Y-162452380D01*
X123738095Y-163404761D01*
X124119047Y-162071428D01*
X125642857Y-163309523D02*
X125452380Y-163404761D01*
X125071428Y-163404761D01*
X124880952Y-163309523D01*
X124785714Y-163119047D01*
X124785714Y-162357142D01*
X124880952Y-162166666D01*
X125071428Y-162071428D01*
X125452380Y-162071428D01*
X125642857Y-162166666D01*
X125738095Y-162357142D01*
X125738095Y-162547619D01*
X124785714Y-162738095D01*
X126595238Y-163404761D02*
X126595238Y-162071428D01*
X126595238Y-162452380D02*
X126690476Y-162261904D01*
X126785714Y-162166666D01*
X126976190Y-162071428D01*
X127166666Y-162071428D01*
X130023809Y-162357142D02*
X130309523Y-162452380D01*
X130404761Y-162547619D01*
X130499999Y-162738095D01*
X130499999Y-163023809D01*
X130404761Y-163214285D01*
X130309523Y-163309523D01*
X130119047Y-163404761D01*
X129357142Y-163404761D01*
X129357142Y-161404761D01*
X130023809Y-161404761D01*
X130214285Y-161500000D01*
X130309523Y-161595238D01*
X130404761Y-161785714D01*
X130404761Y-161976190D01*
X130309523Y-162166666D01*
X130214285Y-162261904D01*
X130023809Y-162357142D01*
X129357142Y-162357142D01*
X131642857Y-163404761D02*
X131452380Y-163309523D01*
X131357142Y-163214285D01*
X131261904Y-163023809D01*
X131261904Y-162452380D01*
X131357142Y-162261904D01*
X131452380Y-162166666D01*
X131642857Y-162071428D01*
X131928571Y-162071428D01*
X132119047Y-162166666D01*
X132214285Y-162261904D01*
X132309523Y-162452380D01*
X132309523Y-163023809D01*
X132214285Y-163214285D01*
X132119047Y-163309523D01*
X131928571Y-163404761D01*
X131642857Y-163404761D01*
X134023809Y-163404761D02*
X134023809Y-162357142D01*
X133928571Y-162166666D01*
X133738095Y-162071428D01*
X133357142Y-162071428D01*
X133166666Y-162166666D01*
X134023809Y-163309523D02*
X133833333Y-163404761D01*
X133357142Y-163404761D01*
X133166666Y-163309523D01*
X133071428Y-163119047D01*
X133071428Y-162928571D01*
X133166666Y-162738095D01*
X133357142Y-162642857D01*
X133833333Y-162642857D01*
X134023809Y-162547619D01*
X134976190Y-163404761D02*
X134976190Y-162071428D01*
X134976190Y-162452380D02*
X135071428Y-162261904D01*
X135166666Y-162166666D01*
X135357142Y-162071428D01*
X135547619Y-162071428D01*
X137071428Y-163404761D02*
X137071428Y-161404761D01*
X137071428Y-163309523D02*
X136880952Y-163404761D01*
X136500000Y-163404761D01*
X136309523Y-163309523D01*
X136214285Y-163214285D01*
X136119047Y-163023809D01*
X136119047Y-162452380D01*
X136214285Y-162261904D01*
X136309523Y-162166666D01*
X136500000Y-162071428D01*
X136880952Y-162071428D01*
X137071428Y-162166666D01*
X139357142Y-162071428D02*
X139833333Y-163404761D01*
X140309523Y-162071428D01*
X142119047Y-163404761D02*
X140976190Y-163404761D01*
X141547619Y-163404761D02*
X141547619Y-161404761D01*
X141357142Y-161690476D01*
X141166666Y-161880952D01*
X140976190Y-161976190D01*
X142976190Y-163214285D02*
X143071428Y-163309523D01*
X142976190Y-163404761D01*
X142880952Y-163309523D01*
X142976190Y-163214285D01*
X142976190Y-163404761D01*
X143833333Y-161595238D02*
X143928571Y-161500000D01*
X144119047Y-161404761D01*
X144595238Y-161404761D01*
X144785714Y-161500000D01*
X144880952Y-161595238D01*
X144976190Y-161785714D01*
X144976190Y-161976190D01*
X144880952Y-162261904D01*
X143738095Y-163404761D01*
X144976190Y-163404761D01*
X117261904Y-165657142D02*
X116595238Y-165657142D01*
X116595238Y-166704761D02*
X116595238Y-164704761D01*
X117547619Y-164704761D01*
X119166666Y-166704761D02*
X119166666Y-165657142D01*
X119071428Y-165466666D01*
X118880952Y-165371428D01*
X118500000Y-165371428D01*
X118309523Y-165466666D01*
X119166666Y-166609523D02*
X118976190Y-166704761D01*
X118500000Y-166704761D01*
X118309523Y-166609523D01*
X118214285Y-166419047D01*
X118214285Y-166228571D01*
X118309523Y-166038095D01*
X118500000Y-165942857D01*
X118976190Y-165942857D01*
X119166666Y-165847619D01*
X120404761Y-166704761D02*
X120214285Y-166609523D01*
X120119047Y-166419047D01*
X120119047Y-164704761D01*
X121452380Y-166704761D02*
X121261904Y-166609523D01*
X121166666Y-166419047D01*
X121166666Y-164704761D01*
X123642857Y-164895238D02*
X123738095Y-164800000D01*
X123928571Y-164704761D01*
X124404761Y-164704761D01*
X124595238Y-164800000D01*
X124690476Y-164895238D01*
X124785714Y-165085714D01*
X124785714Y-165276190D01*
X124690476Y-165561904D01*
X123547619Y-166704761D01*
X124785714Y-166704761D01*
X126023809Y-164704761D02*
X126214285Y-164704761D01*
X126404761Y-164800000D01*
X126500000Y-164895238D01*
X126595238Y-165085714D01*
X126690476Y-165466666D01*
X126690476Y-165942857D01*
X126595238Y-166323809D01*
X126500000Y-166514285D01*
X126404761Y-166609523D01*
X126214285Y-166704761D01*
X126023809Y-166704761D01*
X125833333Y-166609523D01*
X125738095Y-166514285D01*
X125642857Y-166323809D01*
X125547619Y-165942857D01*
X125547619Y-165466666D01*
X125642857Y-165085714D01*
X125738095Y-164895238D01*
X125833333Y-164800000D01*
X126023809Y-164704761D01*
X127452380Y-164895238D02*
X127547619Y-164800000D01*
X127738095Y-164704761D01*
X128214285Y-164704761D01*
X128404761Y-164800000D01*
X128500000Y-164895238D01*
X128595238Y-165085714D01*
X128595238Y-165276190D01*
X128500000Y-165561904D01*
X127357142Y-166704761D01*
X128595238Y-166704761D01*
X129833333Y-164704761D02*
X130023809Y-164704761D01*
X130214285Y-164800000D01*
X130309523Y-164895238D01*
X130404761Y-165085714D01*
X130500000Y-165466666D01*
X130500000Y-165942857D01*
X130404761Y-166323809D01*
X130309523Y-166514285D01*
X130214285Y-166609523D01*
X130023809Y-166704761D01*
X129833333Y-166704761D01*
X129642857Y-166609523D01*
X129547619Y-166514285D01*
X129452380Y-166323809D01*
X129357142Y-165942857D01*
X129357142Y-165466666D01*
X129452380Y-165085714D01*
X129547619Y-164895238D01*
X129642857Y-164800000D01*
X129833333Y-164704761D01*
D12*
X63730000Y-59460000D02*
G75*
G03X63730000Y-59460000I-2540000J0D01*
G01*
X65000000Y-55950000D02*
X65000000Y-55650000D01*
X57380000Y-55950000D02*
X57380000Y-55650000D01*
X65000000Y-61030000D02*
X65000000Y-57890000D01*
X57380000Y-61030000D02*
X57380000Y-57890000D01*
X65000000Y-63270000D02*
X65000000Y-62970000D01*
X57380000Y-55650000D02*
X65000000Y-55650000D01*
X57380000Y-63270000D02*
X57380000Y-62970000D01*
X65000000Y-63270000D02*
X57380000Y-63270000D01*
X118350000Y-135540000D02*
G75*
G03X118350000Y-135540000I-2540000J0D01*
G01*
X112000000Y-139050000D02*
X112000000Y-139350000D01*
X119620000Y-139050000D02*
X119620000Y-139350000D01*
X112000000Y-133970000D02*
X112000000Y-137110000D01*
X119620000Y-133970000D02*
X119620000Y-137110000D01*
X112000000Y-131730000D02*
X112000000Y-132030000D01*
X119620000Y-139350000D02*
X112000000Y-139350000D01*
X119620000Y-131730000D02*
X119620000Y-132030000D01*
X112000000Y-131730000D02*
X119620000Y-131730000D01*
X117780000Y-122980000D02*
X117780000Y-120440000D01*
X113335000Y-120440000D02*
X117145000Y-117900000D01*
X115240000Y-117900000D02*
X115240000Y-119170000D01*
X110160000Y-122980000D02*
X110160000Y-120440000D01*
X110160000Y-120440000D02*
X113335000Y-120440000D01*
X102030000Y-121200000D02*
X103050000Y-120190000D01*
X102540000Y-116630000D02*
X101270000Y-116630000D01*
X102540000Y-119420000D02*
X102540000Y-116630000D01*
X102540000Y-124250000D02*
X102540000Y-121960000D01*
X101270000Y-124250000D02*
X102540000Y-124250000D01*
X102540000Y-121960000D02*
X102030000Y-121960000D01*
X102030000Y-121960000D02*
X102030000Y-119420000D01*
X102030000Y-119420000D02*
X102540000Y-119420000D01*
X102540000Y-119420000D02*
X103050000Y-119420000D01*
X103050000Y-119420000D02*
X103050000Y-121960000D01*
X103050000Y-121960000D02*
X102540000Y-121960000D01*
X98320000Y-125940000D02*
X119460000Y-125940000D01*
X119460000Y-125940000D02*
X119460000Y-114940000D01*
X98320000Y-125940000D02*
X98320000Y-114940000D01*
X98320000Y-114940000D02*
X119460000Y-114940000D01*
X113462000Y-120440000D02*
G75*
G03X113462000Y-120440000I-127000J0D01*
G01*
X44200000Y-131565000D02*
X40990000Y-131565000D01*
X40990000Y-131565000D02*
X40990000Y-141435000D01*
X40990000Y-141435000D02*
X44200000Y-141435000D01*
X45580000Y-132870000D02*
X45580000Y-132985000D01*
X45580000Y-132985000D02*
X45080000Y-132985000D01*
X45080000Y-132985000D02*
X45080000Y-140015000D01*
X45080000Y-140015000D02*
X45580000Y-140015000D01*
X45580000Y-140015000D02*
X45580000Y-140130000D01*
X130800000Y-95800000D02*
X133200000Y-95800000D01*
X133200000Y-95800000D02*
X133200000Y-98200000D01*
X133200000Y-98200000D02*
X130800000Y-98200000D01*
X130800000Y-98200000D02*
X130800000Y-95800000D01*
X130800000Y-120200000D02*
X130800000Y-117800000D01*
X133200000Y-120200000D02*
X130800000Y-120200000D01*
X133200000Y-117800000D02*
X133200000Y-120200000D01*
X130800000Y-117800000D02*
X133200000Y-117800000D01*
X41800000Y-91300000D02*
X44200000Y-91300000D01*
X44200000Y-91300000D02*
X44200000Y-93700000D01*
X44200000Y-93700000D02*
X41800000Y-93700000D01*
X41800000Y-93700000D02*
X41800000Y-91300000D01*
X47800000Y-45050000D02*
X50200000Y-45050000D01*
X50200000Y-45050000D02*
X50200000Y-47450000D01*
X50200000Y-47450000D02*
X47800000Y-47450000D01*
X47800000Y-47450000D02*
X47800000Y-45050000D01*
X41800000Y-111700000D02*
X41800000Y-109300000D01*
X44200000Y-111700000D02*
X41800000Y-111700000D01*
X44200000Y-109300000D02*
X44200000Y-111700000D01*
X41800000Y-109300000D02*
X44200000Y-109300000D01*
X130800000Y-52300000D02*
X133200000Y-52300000D01*
X133200000Y-52300000D02*
X133200000Y-54700000D01*
X133200000Y-54700000D02*
X130800000Y-54700000D01*
X130800000Y-54700000D02*
X130800000Y-52300000D01*
X130800000Y-76700000D02*
X130800000Y-74300000D01*
X133200000Y-76700000D02*
X130800000Y-76700000D01*
X133200000Y-74300000D02*
X133200000Y-76700000D01*
X130800000Y-74300000D02*
X133200000Y-74300000D01*
X119500000Y-106770000D02*
X111880000Y-106770000D01*
X111880000Y-106770000D02*
X111880000Y-106470000D01*
X111880000Y-99150000D02*
X119500000Y-99150000D01*
X119500000Y-106770000D02*
X119500000Y-106470000D01*
X111880000Y-104530000D02*
X111880000Y-101390000D01*
X119500000Y-104530000D02*
X119500000Y-101390000D01*
X111880000Y-99450000D02*
X111880000Y-99150000D01*
X119500000Y-99450000D02*
X119500000Y-99150000D01*
X118230000Y-102960000D02*
G75*
G03X118230000Y-102960000I-2540000J0D01*
G01*
X117780000Y-79730000D02*
X117780000Y-77190000D01*
X113335000Y-77190000D02*
X117145000Y-74650000D01*
X115240000Y-74650000D02*
X115240000Y-75920000D01*
X110160000Y-79730000D02*
X110160000Y-77190000D01*
X110160000Y-77190000D02*
X113335000Y-77190000D01*
X102030000Y-77950000D02*
X103050000Y-76940000D01*
X102540000Y-73380000D02*
X101270000Y-73380000D01*
X102540000Y-76170000D02*
X102540000Y-73380000D01*
X102540000Y-81000000D02*
X102540000Y-78710000D01*
X101270000Y-81000000D02*
X102540000Y-81000000D01*
X102540000Y-78710000D02*
X102030000Y-78710000D01*
X102030000Y-78710000D02*
X102030000Y-76170000D01*
X102030000Y-76170000D02*
X102540000Y-76170000D01*
X102540000Y-76170000D02*
X103050000Y-76170000D01*
X103050000Y-76170000D02*
X103050000Y-78710000D01*
X103050000Y-78710000D02*
X102540000Y-78710000D01*
X98320000Y-82690000D02*
X119460000Y-82690000D01*
X119460000Y-82690000D02*
X119460000Y-71690000D01*
X98320000Y-82690000D02*
X98320000Y-71690000D01*
X98320000Y-71690000D02*
X119460000Y-71690000D01*
X113462000Y-77190000D02*
G75*
G03X113462000Y-77190000I-127000J0D01*
G01*
X113462000Y-55190000D02*
G75*
G03X113462000Y-55190000I-127000J0D01*
G01*
X98320000Y-49690000D02*
X119460000Y-49690000D01*
X98320000Y-60690000D02*
X98320000Y-49690000D01*
X119460000Y-60690000D02*
X119460000Y-49690000D01*
X98320000Y-60690000D02*
X119460000Y-60690000D01*
X103050000Y-56710000D02*
X102540000Y-56710000D01*
X103050000Y-54170000D02*
X103050000Y-56710000D01*
X102540000Y-54170000D02*
X103050000Y-54170000D01*
X102030000Y-54170000D02*
X102540000Y-54170000D01*
X102030000Y-56710000D02*
X102030000Y-54170000D01*
X102540000Y-56710000D02*
X102030000Y-56710000D01*
X101270000Y-59000000D02*
X102540000Y-59000000D01*
X102540000Y-59000000D02*
X102540000Y-56710000D01*
X102540000Y-54170000D02*
X102540000Y-51380000D01*
X102540000Y-51380000D02*
X101270000Y-51380000D01*
X102030000Y-55950000D02*
X103050000Y-54940000D01*
X110160000Y-55190000D02*
X113335000Y-55190000D01*
X110160000Y-57730000D02*
X110160000Y-55190000D01*
X115240000Y-52650000D02*
X115240000Y-53920000D01*
X113335000Y-55190000D02*
X117145000Y-52650000D01*
X117780000Y-57730000D02*
X117780000Y-55190000D01*
X51805685Y-55610000D02*
X51240000Y-56010000D01*
X51805685Y-56410000D02*
X51805685Y-55610000D01*
X51240000Y-56010000D02*
X51805685Y-56410000D01*
X52790000Y-61390000D02*
X50940000Y-61390000D01*
X52790000Y-58120000D02*
X52790000Y-61390000D01*
X50940000Y-58120000D02*
X52790000Y-58120000D01*
X50940000Y-70400000D02*
X50940000Y-49110000D01*
X39190000Y-70400000D02*
X50940000Y-70400000D01*
X39190000Y-49110000D02*
X39190000Y-70400000D01*
X50940000Y-49110000D02*
X39190000Y-49110000D01*
X133236000Y-81170000D02*
X133080000Y-81170000D01*
X130920000Y-81170000D02*
X130764000Y-81170000D01*
X130920163Y-83771130D02*
G75*
G02X130920000Y-81689039I1079837J1041130D01*
G01*
X133079837Y-83771130D02*
G75*
G03X133080000Y-81689039I-1079837J1041130D01*
G01*
X130921392Y-84402335D02*
G75*
G02X130764484Y-81170000I1078608J1672335D01*
G01*
X133078608Y-84402335D02*
G75*
G03X133235516Y-81170000I-1078608J1672335D01*
G01*
X56170000Y-69764000D02*
X56170000Y-69920000D01*
X56170000Y-72080000D02*
X56170000Y-72236000D01*
X58771130Y-72079837D02*
G75*
G02X56689039Y-72080000I-1041130J1079837D01*
G01*
X58771130Y-69920163D02*
G75*
G03X56689039Y-69920000I-1041130J-1079837D01*
G01*
X59402335Y-72078608D02*
G75*
G02X56170000Y-72235516I-1672335J1078608D01*
G01*
X59402335Y-69921392D02*
G75*
G03X56170000Y-69764484I-1672335J-1078608D01*
G01*
X56170000Y-102264000D02*
X56170000Y-102420000D01*
X56170000Y-104580000D02*
X56170000Y-104736000D01*
X58771130Y-104579837D02*
G75*
G02X56689039Y-104580000I-1041130J1079837D01*
G01*
X58771130Y-102420163D02*
G75*
G03X56689039Y-102420000I-1041130J-1079837D01*
G01*
X59402335Y-104578608D02*
G75*
G02X56170000Y-104735516I-1672335J1078608D01*
G01*
X59402335Y-102421392D02*
G75*
G03X56170000Y-102264484I-1672335J-1078608D01*
G01*
X56170000Y-120264000D02*
X56170000Y-120420000D01*
X56170000Y-122580000D02*
X56170000Y-122736000D01*
X58771130Y-122579837D02*
G75*
G02X56689039Y-122580000I-1041130J1079837D01*
G01*
X58771130Y-120420163D02*
G75*
G03X56689039Y-120420000I-1041130J-1079837D01*
G01*
X59402335Y-122578608D02*
G75*
G02X56170000Y-122735516I-1672335J1078608D01*
G01*
X59402335Y-120421392D02*
G75*
G03X56170000Y-120264484I-1672335J-1078608D01*
G01*
X133236000Y-59170000D02*
X133080000Y-59170000D01*
X130920000Y-59170000D02*
X130764000Y-59170000D01*
X130920163Y-61771130D02*
G75*
G02X130920000Y-59689039I1079837J1041130D01*
G01*
X133079837Y-61771130D02*
G75*
G03X133080000Y-59689039I-1079837J1041130D01*
G01*
X130921392Y-62402335D02*
G75*
G02X130764484Y-59170000I1078608J1672335D01*
G01*
X133078608Y-62402335D02*
G75*
G03X133235516Y-59170000I-1078608J1672335D01*
G01*
X133236000Y-103170000D02*
X133080000Y-103170000D01*
X130920000Y-103170000D02*
X130764000Y-103170000D01*
X130920163Y-105771130D02*
G75*
G02X130920000Y-103689039I1079837J1041130D01*
G01*
X133079837Y-105771130D02*
G75*
G03X133080000Y-103689039I-1079837J1041130D01*
G01*
X130921392Y-106402335D02*
G75*
G02X130764484Y-103170000I1078608J1672335D01*
G01*
X133078608Y-106402335D02*
G75*
G03X133235516Y-103170000I-1078608J1672335D01*
G01*
X133236000Y-125170000D02*
X133080000Y-125170000D01*
X130920000Y-125170000D02*
X130764000Y-125170000D01*
X130920163Y-127771130D02*
G75*
G02X130920000Y-125689039I1079837J1041130D01*
G01*
X133079837Y-127771130D02*
G75*
G03X133080000Y-125689039I-1079837J1041130D01*
G01*
X130921392Y-128402335D02*
G75*
G02X130764484Y-125170000I1078608J1672335D01*
G01*
X133078608Y-128402335D02*
G75*
G03X133235516Y-125170000I-1078608J1672335D01*
G01*
X70360000Y-51230000D02*
X70360000Y-58170000D01*
X70360000Y-58170000D02*
X86560000Y-58170000D01*
X86560000Y-58170000D02*
X86560000Y-51230000D01*
X86560000Y-51230000D02*
X70360000Y-51230000D01*
X77710000Y-54700000D02*
X79210000Y-54700000D01*
X80060000Y-56700000D02*
X76860000Y-56700000D01*
X76860000Y-52700000D02*
X80060000Y-52700000D01*
X70360000Y-73330000D02*
X70360000Y-80270000D01*
X70360000Y-80270000D02*
X86560000Y-80270000D01*
X86560000Y-80270000D02*
X86560000Y-73330000D01*
X86560000Y-73330000D02*
X70360000Y-73330000D01*
X77710000Y-76800000D02*
X79210000Y-76800000D01*
X80060000Y-78800000D02*
X76860000Y-78800000D01*
X76860000Y-74800000D02*
X80060000Y-74800000D01*
X70360000Y-95230000D02*
X70360000Y-102170000D01*
X70360000Y-102170000D02*
X86560000Y-102170000D01*
X86560000Y-102170000D02*
X86560000Y-95230000D01*
X86560000Y-95230000D02*
X70360000Y-95230000D01*
X77710000Y-98700000D02*
X79210000Y-98700000D01*
X80060000Y-100700000D02*
X76860000Y-100700000D01*
X76860000Y-96700000D02*
X80060000Y-96700000D01*
X70360000Y-117230000D02*
X70360000Y-124170000D01*
X70360000Y-124170000D02*
X86560000Y-124170000D01*
X86560000Y-124170000D02*
X86560000Y-117230000D01*
X86560000Y-117230000D02*
X70360000Y-117230000D01*
X77710000Y-120700000D02*
X79210000Y-120700000D01*
X80060000Y-122700000D02*
X76860000Y-122700000D01*
X76860000Y-118700000D02*
X80060000Y-118700000D01*
X44200000Y-95565000D02*
X40990000Y-95565000D01*
X40990000Y-95565000D02*
X40990000Y-105435000D01*
X40990000Y-105435000D02*
X44200000Y-105435000D01*
X45580000Y-96870000D02*
X45580000Y-96985000D01*
X45580000Y-96985000D02*
X45080000Y-96985000D01*
X45080000Y-96985000D02*
X45080000Y-104015000D01*
X45080000Y-104015000D02*
X45580000Y-104015000D01*
X45580000Y-104015000D02*
X45580000Y-104130000D01*
X44200000Y-113565000D02*
X40990000Y-113565000D01*
X40990000Y-113565000D02*
X40990000Y-123435000D01*
X40990000Y-123435000D02*
X44200000Y-123435000D01*
X45580000Y-114870000D02*
X45580000Y-114985000D01*
X45580000Y-114985000D02*
X45080000Y-114985000D01*
X45080000Y-114985000D02*
X45080000Y-122015000D01*
X45080000Y-122015000D02*
X45580000Y-122015000D01*
X45580000Y-122015000D02*
X45580000Y-122130000D01*
X44200000Y-149565000D02*
X40990000Y-149565000D01*
X40990000Y-149565000D02*
X40990000Y-159435000D01*
X40990000Y-159435000D02*
X44200000Y-159435000D01*
X45580000Y-150870000D02*
X45580000Y-150985000D01*
X45580000Y-150985000D02*
X45080000Y-150985000D01*
X45080000Y-150985000D02*
X45080000Y-158015000D01*
X45080000Y-158015000D02*
X45580000Y-158015000D01*
X45580000Y-158015000D02*
X45580000Y-158130000D01*
X144800000Y-64435000D02*
X148010000Y-64435000D01*
X148010000Y-64435000D02*
X148010000Y-54565000D01*
X148010000Y-54565000D02*
X144800000Y-54565000D01*
X143420000Y-63130000D02*
X143420000Y-63015000D01*
X143420000Y-63015000D02*
X143920000Y-63015000D01*
X143920000Y-63015000D02*
X143920000Y-55985000D01*
X143920000Y-55985000D02*
X143420000Y-55985000D01*
X143420000Y-55985000D02*
X143420000Y-55870000D01*
X144800000Y-86435000D02*
X148010000Y-86435000D01*
X148010000Y-86435000D02*
X148010000Y-76565000D01*
X148010000Y-76565000D02*
X144800000Y-76565000D01*
X143420000Y-85130000D02*
X143420000Y-85015000D01*
X143420000Y-85015000D02*
X143920000Y-85015000D01*
X143920000Y-85015000D02*
X143920000Y-77985000D01*
X143920000Y-77985000D02*
X143420000Y-77985000D01*
X143420000Y-77985000D02*
X143420000Y-77870000D01*
X144800000Y-108435000D02*
X148010000Y-108435000D01*
X148010000Y-108435000D02*
X148010000Y-98565000D01*
X148010000Y-98565000D02*
X144800000Y-98565000D01*
X143420000Y-107130000D02*
X143420000Y-107015000D01*
X143420000Y-107015000D02*
X143920000Y-107015000D01*
X143920000Y-107015000D02*
X143920000Y-99985000D01*
X143920000Y-99985000D02*
X143420000Y-99985000D01*
X143420000Y-99985000D02*
X143420000Y-99870000D01*
X144800000Y-130435000D02*
X148010000Y-130435000D01*
X148010000Y-130435000D02*
X148010000Y-120565000D01*
X148010000Y-120565000D02*
X144800000Y-120565000D01*
X143420000Y-129130000D02*
X143420000Y-129015000D01*
X143420000Y-129015000D02*
X143920000Y-129015000D01*
X143920000Y-129015000D02*
X143920000Y-121985000D01*
X143920000Y-121985000D02*
X143420000Y-121985000D01*
X143420000Y-121985000D02*
X143420000Y-121870000D01*
X94420000Y-54950000D02*
X90580000Y-54950000D01*
X94420000Y-55190000D02*
X90580000Y-55190000D01*
X94420000Y-55070000D02*
X90580000Y-55070000D01*
X92500000Y-62640000D02*
X92500000Y-61650000D01*
X92500000Y-52820000D02*
X92500000Y-53810000D01*
X94420000Y-61650000D02*
X94420000Y-53810000D01*
X90580000Y-61650000D02*
X94420000Y-61650000D01*
X90580000Y-53810000D02*
X90580000Y-61650000D01*
X94420000Y-53810000D02*
X90580000Y-53810000D01*
X94420000Y-75810000D02*
X90580000Y-75810000D01*
X90580000Y-75810000D02*
X90580000Y-83650000D01*
X90580000Y-83650000D02*
X94420000Y-83650000D01*
X94420000Y-83650000D02*
X94420000Y-75810000D01*
X92500000Y-74820000D02*
X92500000Y-75810000D01*
X92500000Y-84640000D02*
X92500000Y-83650000D01*
X94420000Y-77070000D02*
X90580000Y-77070000D01*
X94420000Y-77190000D02*
X90580000Y-77190000D01*
X94420000Y-76950000D02*
X90580000Y-76950000D01*
X94420000Y-120200000D02*
X90580000Y-120200000D01*
X94420000Y-120440000D02*
X90580000Y-120440000D01*
X94420000Y-120320000D02*
X90580000Y-120320000D01*
X92500000Y-127890000D02*
X92500000Y-126900000D01*
X92500000Y-118070000D02*
X92500000Y-119060000D01*
X94420000Y-126900000D02*
X94420000Y-119060000D01*
X90580000Y-126900000D02*
X94420000Y-126900000D01*
X90580000Y-119060000D02*
X90580000Y-126900000D01*
X94420000Y-119060000D02*
X90580000Y-119060000D01*
X94825000Y-136720000D02*
X94825000Y-131280000D01*
X94585000Y-136720000D02*
X94585000Y-131280000D01*
X94705000Y-136720000D02*
X94705000Y-131280000D01*
X85600000Y-134000000D02*
X86510000Y-134000000D01*
X97160000Y-134000000D02*
X96250000Y-134000000D01*
X86510000Y-136720000D02*
X96250000Y-136720000D01*
X86510000Y-131280000D02*
X86510000Y-136720000D01*
X96250000Y-131280000D02*
X86510000Y-131280000D01*
X96250000Y-136720000D02*
X96250000Y-131280000D01*
X96250000Y-145720000D02*
X96250000Y-140280000D01*
X96250000Y-140280000D02*
X86510000Y-140280000D01*
X86510000Y-140280000D02*
X86510000Y-145720000D01*
X86510000Y-145720000D02*
X96250000Y-145720000D01*
X97160000Y-143000000D02*
X96250000Y-143000000D01*
X85600000Y-143000000D02*
X86510000Y-143000000D01*
X94705000Y-145720000D02*
X94705000Y-140280000D01*
X94585000Y-145720000D02*
X94585000Y-140280000D01*
X94825000Y-145720000D02*
X94825000Y-140280000D01*
X94825000Y-154720000D02*
X94825000Y-149280000D01*
X94585000Y-154720000D02*
X94585000Y-149280000D01*
X94705000Y-154720000D02*
X94705000Y-149280000D01*
X85600000Y-152000000D02*
X86510000Y-152000000D01*
X97160000Y-152000000D02*
X96250000Y-152000000D01*
X86510000Y-154720000D02*
X96250000Y-154720000D01*
X86510000Y-149280000D02*
X86510000Y-154720000D01*
X96250000Y-149280000D02*
X86510000Y-149280000D01*
X96250000Y-154720000D02*
X96250000Y-149280000D01*
D13*
G36*
X59275022Y-145117039D02*
G01*
X59582668Y-145199318D01*
X60209242Y-145473482D01*
X60813510Y-145893275D01*
X61362345Y-146435341D01*
X61401770Y-146481975D01*
X61614432Y-146747321D01*
X61784812Y-146979225D01*
X61892543Y-147147853D01*
X61917260Y-147223370D01*
X61908479Y-147224302D01*
X61837298Y-147170987D01*
X61668916Y-147034039D01*
X61435169Y-146839479D01*
X61349559Y-146767442D01*
X60637133Y-146238873D01*
X59919895Y-145858433D01*
X59183426Y-145624838D01*
X58413309Y-145536807D01*
X57595127Y-145593057D01*
X56714463Y-145792308D01*
X55756897Y-146133276D01*
X55490314Y-146246400D01*
X55121517Y-146401373D01*
X54896415Y-146482557D01*
X54808855Y-146495023D01*
X54852683Y-146443842D01*
X55021746Y-146334085D01*
X55309890Y-146170824D01*
X55710962Y-145959130D01*
X56042334Y-145791458D01*
X56821464Y-145434603D01*
X57507658Y-145193189D01*
X58127555Y-145062760D01*
X58707797Y-145038863D01*
X59275022Y-145117039D01*
G37*
X59275022Y-145117039D02*
X59582668Y-145199318D01*
X60209242Y-145473482D01*
X60813510Y-145893275D01*
X61362345Y-146435341D01*
X61401770Y-146481975D01*
X61614432Y-146747321D01*
X61784812Y-146979225D01*
X61892543Y-147147853D01*
X61917260Y-147223370D01*
X61908479Y-147224302D01*
X61837298Y-147170987D01*
X61668916Y-147034039D01*
X61435169Y-146839479D01*
X61349559Y-146767442D01*
X60637133Y-146238873D01*
X59919895Y-145858433D01*
X59183426Y-145624838D01*
X58413309Y-145536807D01*
X57595127Y-145593057D01*
X56714463Y-145792308D01*
X55756897Y-146133276D01*
X55490314Y-146246400D01*
X55121517Y-146401373D01*
X54896415Y-146482557D01*
X54808855Y-146495023D01*
X54852683Y-146443842D01*
X55021746Y-146334085D01*
X55309890Y-146170824D01*
X55710962Y-145959130D01*
X56042334Y-145791458D01*
X56821464Y-145434603D01*
X57507658Y-145193189D01*
X58127555Y-145062760D01*
X58707797Y-145038863D01*
X59275022Y-145117039D01*
G36*
X55388000Y-148508171D02*
G01*
X55578544Y-148535224D01*
X55642975Y-148584973D01*
X55640591Y-148605834D01*
X55537889Y-148701847D01*
X55421868Y-148738722D01*
X55278364Y-148810816D01*
X55236844Y-148992722D01*
X55207513Y-149307587D01*
X55131073Y-149521292D01*
X55019432Y-149600663D01*
X55018575Y-149600667D01*
X54958213Y-149575620D01*
X54936959Y-149480418D01*
X54955037Y-149284973D01*
X55012673Y-148959193D01*
X55023775Y-148902167D01*
X54991544Y-148777742D01*
X54898463Y-148754000D01*
X54752358Y-148708815D01*
X54712284Y-148658517D01*
X54661169Y-148678527D01*
X54556145Y-148820276D01*
X54418902Y-149053984D01*
X54403930Y-149081851D01*
X54250318Y-149340806D01*
X54110268Y-149526760D01*
X54013380Y-149600593D01*
X54011376Y-149600667D01*
X53921830Y-149523915D01*
X53821428Y-149319296D01*
X53762341Y-149143136D01*
X53673659Y-148820851D01*
X53638360Y-148627502D01*
X53656067Y-148531449D01*
X53726406Y-148501054D01*
X53754720Y-148500000D01*
X53861642Y-148572943D01*
X53931125Y-148732834D01*
X53997921Y-149002998D01*
X54057097Y-149114036D01*
X54128480Y-149073914D01*
X54231897Y-148890599D01*
X54247167Y-148859834D01*
X54424694Y-148500000D01*
X55050069Y-148500000D01*
X55388000Y-148508171D01*
G37*
X55388000Y-148508171D02*
X55578544Y-148535224D01*
X55642975Y-148584973D01*
X55640591Y-148605834D01*
X55537889Y-148701847D01*
X55421868Y-148738722D01*
X55278364Y-148810816D01*
X55236844Y-148992722D01*
X55207513Y-149307587D01*
X55131073Y-149521292D01*
X55019432Y-149600663D01*
X55018575Y-149600667D01*
X54958213Y-149575620D01*
X54936959Y-149480418D01*
X54955037Y-149284973D01*
X55012673Y-148959193D01*
X55023775Y-148902167D01*
X54991544Y-148777742D01*
X54898463Y-148754000D01*
X54752358Y-148708815D01*
X54712284Y-148658517D01*
X54661169Y-148678527D01*
X54556145Y-148820276D01*
X54418902Y-149053984D01*
X54403930Y-149081851D01*
X54250318Y-149340806D01*
X54110268Y-149526760D01*
X54013380Y-149600593D01*
X54011376Y-149600667D01*
X53921830Y-149523915D01*
X53821428Y-149319296D01*
X53762341Y-149143136D01*
X53673659Y-148820851D01*
X53638360Y-148627502D01*
X53656067Y-148531449D01*
X53726406Y-148501054D01*
X53754720Y-148500000D01*
X53861642Y-148572943D01*
X53931125Y-148732834D01*
X53997921Y-149002998D01*
X54057097Y-149114036D01*
X54128480Y-149073914D01*
X54231897Y-148890599D01*
X54247167Y-148859834D01*
X54424694Y-148500000D01*
X55050069Y-148500000D01*
X55388000Y-148508171D01*
G36*
X52456219Y-148513596D02*
G01*
X52586244Y-148560668D01*
X52613334Y-148627000D01*
X52543050Y-148730509D01*
X52446916Y-148754000D01*
X52341195Y-148785175D01*
X52274996Y-148904676D01*
X52227834Y-149151465D01*
X52224342Y-149177334D01*
X52164866Y-149463175D01*
X52081182Y-149591210D01*
X52044148Y-149600667D01*
X51973253Y-149568698D01*
X51952093Y-149448218D01*
X51974936Y-149202366D01*
X51978334Y-149177334D01*
X52004950Y-148923201D01*
X51989181Y-148795507D01*
X51923926Y-148755076D01*
X51901612Y-148754000D01*
X51784343Y-148689644D01*
X51766667Y-148627000D01*
X51811986Y-148547135D01*
X51968894Y-148508127D01*
X52190000Y-148500000D01*
X52456219Y-148513596D01*
G37*
X52456219Y-148513596D02*
X52586244Y-148560668D01*
X52613334Y-148627000D01*
X52543050Y-148730509D01*
X52446916Y-148754000D01*
X52341195Y-148785175D01*
X52274996Y-148904676D01*
X52227834Y-149151465D01*
X52224342Y-149177334D01*
X52164866Y-149463175D01*
X52081182Y-149591210D01*
X52044148Y-149600667D01*
X51973253Y-149568698D01*
X51952093Y-149448218D01*
X51974936Y-149202366D01*
X51978334Y-149177334D01*
X52004950Y-148923201D01*
X51989181Y-148795507D01*
X51923926Y-148755076D01*
X51901612Y-148754000D01*
X51784343Y-148689644D01*
X51766667Y-148627000D01*
X51811986Y-148547135D01*
X51968894Y-148508127D01*
X52190000Y-148500000D01*
X52456219Y-148513596D01*
G36*
X53417135Y-148543696D02*
G01*
X53438412Y-148605834D01*
X53335971Y-148688619D01*
X53206000Y-148711667D01*
X53023919Y-148751982D01*
X52989271Y-148848427D01*
X53107901Y-148964247D01*
X53161474Y-148991596D01*
X53335609Y-149139319D01*
X53360343Y-149328490D01*
X53233769Y-149517372D01*
X53187161Y-149553533D01*
X52976083Y-149667544D01*
X52804919Y-149659270D01*
X52708320Y-149608836D01*
X52627683Y-149507447D01*
X52682926Y-149427410D01*
X52840992Y-149401665D01*
X52907646Y-149410225D01*
X53075718Y-149400631D01*
X53121882Y-149315169D01*
X53042230Y-149199420D01*
X52931328Y-149133910D01*
X52755049Y-148984940D01*
X52712433Y-148784311D01*
X52786042Y-148622933D01*
X52914838Y-148544772D01*
X53101927Y-148504491D01*
X53288847Y-148503621D01*
X53417135Y-148543696D01*
G37*
X53417135Y-148543696D02*
X53438412Y-148605834D01*
X53335971Y-148688619D01*
X53206000Y-148711667D01*
X53023919Y-148751982D01*
X52989271Y-148848427D01*
X53107901Y-148964247D01*
X53161474Y-148991596D01*
X53335609Y-149139319D01*
X53360343Y-149328490D01*
X53233769Y-149517372D01*
X53187161Y-149553533D01*
X52976083Y-149667544D01*
X52804919Y-149659270D01*
X52708320Y-149608836D01*
X52627683Y-149507447D01*
X52682926Y-149427410D01*
X52840992Y-149401665D01*
X52907646Y-149410225D01*
X53075718Y-149400631D01*
X53121882Y-149315169D01*
X53042230Y-149199420D01*
X52931328Y-149133910D01*
X52755049Y-148984940D01*
X52712433Y-148784311D01*
X52786042Y-148622933D01*
X52914838Y-148544772D01*
X53101927Y-148504491D01*
X53288847Y-148503621D01*
X53417135Y-148543696D01*
G36*
X51578617Y-148569315D02*
G01*
X51595314Y-148648167D01*
X51571556Y-148862794D01*
X51516406Y-149122471D01*
X51447108Y-149360123D01*
X51380907Y-149508676D01*
X51371082Y-149520361D01*
X51181009Y-149615001D01*
X50932331Y-149643677D01*
X50729500Y-149595932D01*
X50630859Y-149460585D01*
X50580401Y-149236812D01*
X50575347Y-148976811D01*
X50612919Y-148732782D01*
X50690335Y-148556923D01*
X50787858Y-148500000D01*
X50847526Y-148558109D01*
X50864710Y-148746093D01*
X50852373Y-148973009D01*
X50834174Y-149240789D01*
X50846265Y-149378448D01*
X50902683Y-149424415D01*
X51014740Y-149417509D01*
X51138993Y-149375283D01*
X51217221Y-149263762D01*
X51274798Y-149039613D01*
X51291741Y-148944500D01*
X51361395Y-148658155D01*
X51445765Y-148513690D01*
X51482241Y-148500000D01*
X51578617Y-148569315D01*
G37*
X51578617Y-148569315D02*
X51595314Y-148648167D01*
X51571556Y-148862794D01*
X51516406Y-149122471D01*
X51447108Y-149360123D01*
X51380907Y-149508676D01*
X51371082Y-149520361D01*
X51181009Y-149615001D01*
X50932331Y-149643677D01*
X50729500Y-149595932D01*
X50630859Y-149460585D01*
X50580401Y-149236812D01*
X50575347Y-148976811D01*
X50612919Y-148732782D01*
X50690335Y-148556923D01*
X50787858Y-148500000D01*
X50847526Y-148558109D01*
X50864710Y-148746093D01*
X50852373Y-148973009D01*
X50834174Y-149240789D01*
X50846265Y-149378448D01*
X50902683Y-149424415D01*
X51014740Y-149417509D01*
X51138993Y-149375283D01*
X51217221Y-149263762D01*
X51274798Y-149039613D01*
X51291741Y-148944500D01*
X51361395Y-148658155D01*
X51445765Y-148513690D01*
X51482241Y-148500000D01*
X51578617Y-148569315D01*
G36*
X55003943Y-147255662D02*
G01*
X56618301Y-147309837D01*
X58386221Y-147395813D01*
X60306529Y-147513673D01*
X60572000Y-147531663D01*
X61224946Y-147577680D01*
X61915556Y-147628602D01*
X62593333Y-147680553D01*
X63207778Y-147729655D01*
X63708393Y-147772030D01*
X63747000Y-147775458D01*
X65017000Y-147888801D01*
X63112000Y-147834567D01*
X62295080Y-147814732D01*
X61409053Y-147799324D01*
X60473882Y-147788234D01*
X59509527Y-147781357D01*
X58535950Y-147778585D01*
X57573113Y-147779811D01*
X56640978Y-147784927D01*
X55759507Y-147793828D01*
X54948660Y-147806404D01*
X54228401Y-147822551D01*
X53618690Y-147842159D01*
X53139489Y-147865123D01*
X52825000Y-147889767D01*
X51850440Y-148009425D01*
X51037746Y-148142204D01*
X50379780Y-148290644D01*
X49869406Y-148457283D01*
X49499487Y-148644661D01*
X49262886Y-148855318D01*
X49152467Y-149091793D01*
X49142000Y-149200189D01*
X49191925Y-149442824D01*
X49312500Y-149686887D01*
X49317099Y-149693430D01*
X49415263Y-149845554D01*
X49425725Y-149913634D01*
X49335276Y-149895003D01*
X49130705Y-149786997D01*
X48803334Y-149589745D01*
X48374626Y-149299938D01*
X48010792Y-149005182D01*
X47738285Y-148729932D01*
X47583559Y-148498643D01*
X47564892Y-148444878D01*
X47578979Y-148185570D01*
X47758382Y-147957240D01*
X48101926Y-147759968D01*
X48608435Y-147593839D01*
X49276734Y-147458934D01*
X50105647Y-147355336D01*
X51094000Y-147283127D01*
X52240618Y-147242390D01*
X53544323Y-147233208D01*
X55003943Y-147255662D01*
G37*
X55003943Y-147255662D02*
X56618301Y-147309837D01*
X58386221Y-147395813D01*
X60306529Y-147513673D01*
X60572000Y-147531663D01*
X61224946Y-147577680D01*
X61915556Y-147628602D01*
X62593333Y-147680553D01*
X63207778Y-147729655D01*
X63708393Y-147772030D01*
X63747000Y-147775458D01*
X65017000Y-147888801D01*
X63112000Y-147834567D01*
X62295080Y-147814732D01*
X61409053Y-147799324D01*
X60473882Y-147788234D01*
X59509527Y-147781357D01*
X58535950Y-147778585D01*
X57573113Y-147779811D01*
X56640978Y-147784927D01*
X55759507Y-147793828D01*
X54948660Y-147806404D01*
X54228401Y-147822551D01*
X53618690Y-147842159D01*
X53139489Y-147865123D01*
X52825000Y-147889767D01*
X51850440Y-148009425D01*
X51037746Y-148142204D01*
X50379780Y-148290644D01*
X49869406Y-148457283D01*
X49499487Y-148644661D01*
X49262886Y-148855318D01*
X49152467Y-149091793D01*
X49142000Y-149200189D01*
X49191925Y-149442824D01*
X49312500Y-149686887D01*
X49317099Y-149693430D01*
X49415263Y-149845554D01*
X49425725Y-149913634D01*
X49335276Y-149895003D01*
X49130705Y-149786997D01*
X48803334Y-149589745D01*
X48374626Y-149299938D01*
X48010792Y-149005182D01*
X47738285Y-148729932D01*
X47583559Y-148498643D01*
X47564892Y-148444878D01*
X47578979Y-148185570D01*
X47758382Y-147957240D01*
X48101926Y-147759968D01*
X48608435Y-147593839D01*
X49276734Y-147458934D01*
X50105647Y-147355336D01*
X51094000Y-147283127D01*
X52240618Y-147242390D01*
X53544323Y-147233208D01*
X55003943Y-147255662D01*
G36*
X60226616Y-148094884D02*
G01*
X60993095Y-148176699D01*
X61664321Y-148321139D01*
X61799667Y-148362989D01*
X62436279Y-148619973D01*
X62931666Y-148917975D01*
X63281375Y-149248364D01*
X63480952Y-149602511D01*
X63525944Y-149971786D01*
X63411897Y-150347560D01*
X63134357Y-150721203D01*
X63056059Y-150797501D01*
X62596706Y-151119800D01*
X62014328Y-151361745D01*
X61338434Y-151516518D01*
X60598531Y-151577305D01*
X59843722Y-151539577D01*
X59451259Y-151475619D01*
X59045114Y-151380150D01*
X58773042Y-151294726D01*
X58404244Y-151130908D01*
X58002742Y-150911585D01*
X57619164Y-150668294D01*
X57304138Y-150432570D01*
X57143000Y-150279358D01*
X56973667Y-150085501D01*
X57227667Y-150214686D01*
X57882755Y-150477412D01*
X58626130Y-150657303D01*
X59415448Y-150752579D01*
X60208366Y-150761459D01*
X60962542Y-150682163D01*
X61635632Y-150512909D01*
X61892139Y-150410870D01*
X62318518Y-150168059D01*
X62580214Y-149908225D01*
X62680009Y-149639425D01*
X62620686Y-149369717D01*
X62405027Y-149107160D01*
X62035815Y-148859810D01*
X61515831Y-148635726D01*
X61249334Y-148549350D01*
X60433203Y-148375229D01*
X59530398Y-148302743D01*
X58588694Y-148330587D01*
X57655866Y-148457453D01*
X56814889Y-148670601D01*
X56482610Y-148773953D01*
X56217131Y-148849913D01*
X56054974Y-148888382D01*
X56022758Y-148889647D01*
X56065005Y-148835450D01*
X56238575Y-148748737D01*
X56511235Y-148640844D01*
X56850752Y-148523111D01*
X57224894Y-148406876D01*
X57601428Y-148303478D01*
X57866657Y-148241034D01*
X58612297Y-148125467D01*
X59415983Y-148077279D01*
X60226616Y-148094884D01*
G37*
X60226616Y-148094884D02*
X60993095Y-148176699D01*
X61664321Y-148321139D01*
X61799667Y-148362989D01*
X62436279Y-148619973D01*
X62931666Y-148917975D01*
X63281375Y-149248364D01*
X63480952Y-149602511D01*
X63525944Y-149971786D01*
X63411897Y-150347560D01*
X63134357Y-150721203D01*
X63056059Y-150797501D01*
X62596706Y-151119800D01*
X62014328Y-151361745D01*
X61338434Y-151516518D01*
X60598531Y-151577305D01*
X59843722Y-151539577D01*
X59451259Y-151475619D01*
X59045114Y-151380150D01*
X58773042Y-151294726D01*
X58404244Y-151130908D01*
X58002742Y-150911585D01*
X57619164Y-150668294D01*
X57304138Y-150432570D01*
X57143000Y-150279358D01*
X56973667Y-150085501D01*
X57227667Y-150214686D01*
X57882755Y-150477412D01*
X58626130Y-150657303D01*
X59415448Y-150752579D01*
X60208366Y-150761459D01*
X60962542Y-150682163D01*
X61635632Y-150512909D01*
X61892139Y-150410870D01*
X62318518Y-150168059D01*
X62580214Y-149908225D01*
X62680009Y-149639425D01*
X62620686Y-149369717D01*
X62405027Y-149107160D01*
X62035815Y-148859810D01*
X61515831Y-148635726D01*
X61249334Y-148549350D01*
X60433203Y-148375229D01*
X59530398Y-148302743D01*
X58588694Y-148330587D01*
X57655866Y-148457453D01*
X56814889Y-148670601D01*
X56482610Y-148773953D01*
X56217131Y-148849913D01*
X56054974Y-148888382D01*
X56022758Y-148889647D01*
X56065005Y-148835450D01*
X56238575Y-148748737D01*
X56511235Y-148640844D01*
X56850752Y-148523111D01*
X57224894Y-148406876D01*
X57601428Y-148303478D01*
X57866657Y-148241034D01*
X58612297Y-148125467D01*
X59415983Y-148077279D01*
X60226616Y-148094884D01*
G36*
X56948417Y-149459313D02*
G01*
X56764990Y-149593627D01*
X56494708Y-149778048D01*
X56166558Y-149993760D01*
X55809526Y-150221948D01*
X55452599Y-150443795D01*
X55124765Y-150640486D01*
X54887621Y-150775489D01*
X54140408Y-151142640D01*
X53410966Y-151421038D01*
X52722950Y-151605144D01*
X52100012Y-151689424D01*
X51565807Y-151668339D01*
X51320343Y-151610469D01*
X50836869Y-151364277D01*
X50435459Y-150972205D01*
X50149551Y-150500429D01*
X50034503Y-150233420D01*
X49951827Y-149997845D01*
X49905925Y-149818973D01*
X49901199Y-149722074D01*
X49942050Y-149732418D01*
X50032879Y-149875274D01*
X50044449Y-149897000D01*
X50377640Y-150360842D01*
X50826388Y-150734930D01*
X50962334Y-150814921D01*
X51135425Y-150896448D01*
X51320015Y-150949418D01*
X51557005Y-150979376D01*
X51887296Y-150991869D01*
X52274667Y-150992887D01*
X52736913Y-150985070D01*
X53092277Y-150960514D01*
X53403059Y-150909661D01*
X53731558Y-150822955D01*
X54052667Y-150720125D01*
X54445692Y-150574784D01*
X54927735Y-150374941D01*
X55438793Y-150146511D01*
X55918863Y-149915408D01*
X55936500Y-149906512D01*
X56320340Y-149714671D01*
X56644034Y-149557028D01*
X56880927Y-149446240D01*
X57004364Y-149394964D01*
X57016000Y-149393923D01*
X56948417Y-149459313D01*
G37*
X56948417Y-149459313D02*
X56764990Y-149593627D01*
X56494708Y-149778048D01*
X56166558Y-149993760D01*
X55809526Y-150221948D01*
X55452599Y-150443795D01*
X55124765Y-150640486D01*
X54887621Y-150775489D01*
X54140408Y-151142640D01*
X53410966Y-151421038D01*
X52722950Y-151605144D01*
X52100012Y-151689424D01*
X51565807Y-151668339D01*
X51320343Y-151610469D01*
X50836869Y-151364277D01*
X50435459Y-150972205D01*
X50149551Y-150500429D01*
X50034503Y-150233420D01*
X49951827Y-149997845D01*
X49905925Y-149818973D01*
X49901199Y-149722074D01*
X49942050Y-149732418D01*
X50032879Y-149875274D01*
X50044449Y-149897000D01*
X50377640Y-150360842D01*
X50826388Y-150734930D01*
X50962334Y-150814921D01*
X51135425Y-150896448D01*
X51320015Y-150949418D01*
X51557005Y-150979376D01*
X51887296Y-150991869D01*
X52274667Y-150992887D01*
X52736913Y-150985070D01*
X53092277Y-150960514D01*
X53403059Y-150909661D01*
X53731558Y-150822955D01*
X54052667Y-150720125D01*
X54445692Y-150574784D01*
X54927735Y-150374941D01*
X55438793Y-150146511D01*
X55918863Y-149915408D01*
X55936500Y-149906512D01*
X56320340Y-149714671D01*
X56644034Y-149557028D01*
X56880927Y-149446240D01*
X57004364Y-149394964D01*
X57016000Y-149393923D01*
X56948417Y-149459313D01*
D12*
X65000000Y-75500000D02*
X65000000Y-74730000D01*
X65000000Y-67420000D02*
X65000000Y-68190000D01*
X66370000Y-74730000D02*
X66370000Y-68190000D01*
X63630000Y-74730000D02*
X66370000Y-74730000D01*
X63630000Y-68190000D02*
X63630000Y-74730000D01*
X66370000Y-68190000D02*
X63630000Y-68190000D01*
X63000000Y-96500000D02*
X62230000Y-96500000D01*
X54920000Y-96500000D02*
X55690000Y-96500000D01*
X62230000Y-95130000D02*
X55690000Y-95130000D01*
X62230000Y-97870000D02*
X62230000Y-95130000D01*
X55690000Y-97870000D02*
X62230000Y-97870000D01*
X55690000Y-95130000D02*
X55690000Y-97870000D01*
X55690000Y-113130000D02*
X55690000Y-115870000D01*
X55690000Y-115870000D02*
X62230000Y-115870000D01*
X62230000Y-115870000D02*
X62230000Y-113130000D01*
X62230000Y-113130000D02*
X55690000Y-113130000D01*
X54920000Y-114500000D02*
X55690000Y-114500000D01*
X63000000Y-114500000D02*
X62230000Y-114500000D01*
X126190000Y-65130000D02*
X126190000Y-67870000D01*
X126190000Y-67870000D02*
X132730000Y-67870000D01*
X132730000Y-67870000D02*
X132730000Y-65130000D01*
X132730000Y-65130000D02*
X126190000Y-65130000D01*
X125420000Y-66500000D02*
X126190000Y-66500000D01*
X133500000Y-66500000D02*
X132730000Y-66500000D01*
X126190000Y-87130000D02*
X126190000Y-89870000D01*
X126190000Y-89870000D02*
X132730000Y-89870000D01*
X132730000Y-89870000D02*
X132730000Y-87130000D01*
X132730000Y-87130000D02*
X126190000Y-87130000D01*
X125420000Y-88500000D02*
X126190000Y-88500000D01*
X133500000Y-88500000D02*
X132730000Y-88500000D01*
X126190000Y-109630000D02*
X126190000Y-112370000D01*
X126190000Y-112370000D02*
X132730000Y-112370000D01*
X132730000Y-112370000D02*
X132730000Y-109630000D01*
X132730000Y-109630000D02*
X126190000Y-109630000D01*
X125420000Y-111000000D02*
X126190000Y-111000000D01*
X133500000Y-111000000D02*
X132730000Y-111000000D01*
X133500000Y-133000000D02*
X132730000Y-133000000D01*
X125420000Y-133000000D02*
X126190000Y-133000000D01*
X132730000Y-131630000D02*
X126190000Y-131630000D01*
X132730000Y-134370000D02*
X132730000Y-131630000D01*
X126190000Y-134370000D02*
X132730000Y-134370000D01*
X126190000Y-131630000D02*
X126190000Y-134370000D01*
X146800000Y-143700000D02*
X146800000Y-141300000D01*
X149200000Y-143700000D02*
X146800000Y-143700000D01*
X149200000Y-141300000D02*
X149200000Y-143700000D01*
X146800000Y-141300000D02*
X149200000Y-141300000D01*
D10*
X59856666Y-64484761D02*
X59999523Y-64532380D01*
X60237619Y-64532380D01*
X60332857Y-64484761D01*
X60380476Y-64437142D01*
X60428095Y-64341904D01*
X60428095Y-64246666D01*
X60380476Y-64151428D01*
X60332857Y-64103809D01*
X60237619Y-64056190D01*
X60047142Y-64008571D01*
X59951904Y-63960952D01*
X59904285Y-63913333D01*
X59856666Y-63818095D01*
X59856666Y-63722857D01*
X59904285Y-63627619D01*
X59951904Y-63580000D01*
X60047142Y-63532380D01*
X60285238Y-63532380D01*
X60428095Y-63580000D01*
X60761428Y-63532380D02*
X60999523Y-64532380D01*
X61190000Y-63818095D01*
X61380476Y-64532380D01*
X61618571Y-63532380D01*
X62523333Y-64532380D02*
X61951904Y-64532380D01*
X62237619Y-64532380D02*
X62237619Y-63532380D01*
X62142380Y-63675238D01*
X62047142Y-63770476D01*
X61951904Y-63818095D01*
X57642380Y-54648571D02*
X57785238Y-54696190D01*
X57832857Y-54743809D01*
X57880476Y-54839047D01*
X57880476Y-54981904D01*
X57832857Y-55077142D01*
X57785238Y-55124761D01*
X57690000Y-55172380D01*
X57309047Y-55172380D01*
X57309047Y-54172380D01*
X57642380Y-54172380D01*
X57737619Y-54220000D01*
X57785238Y-54267619D01*
X57832857Y-54362857D01*
X57832857Y-54458095D01*
X57785238Y-54553333D01*
X57737619Y-54600952D01*
X57642380Y-54648571D01*
X57309047Y-54648571D01*
X58737619Y-55172380D02*
X58737619Y-54648571D01*
X58690000Y-54553333D01*
X58594761Y-54505714D01*
X58404285Y-54505714D01*
X58309047Y-54553333D01*
X58737619Y-55124761D02*
X58642380Y-55172380D01*
X58404285Y-55172380D01*
X58309047Y-55124761D01*
X58261428Y-55029523D01*
X58261428Y-54934285D01*
X58309047Y-54839047D01*
X58404285Y-54791428D01*
X58642380Y-54791428D01*
X58737619Y-54743809D01*
X59070952Y-54505714D02*
X59451904Y-54505714D01*
X59213809Y-54172380D02*
X59213809Y-55029523D01*
X59261428Y-55124761D01*
X59356666Y-55172380D01*
X59451904Y-55172380D01*
X59642380Y-54505714D02*
X60023333Y-54505714D01*
X59785238Y-54172380D02*
X59785238Y-55029523D01*
X59832857Y-55124761D01*
X59928095Y-55172380D01*
X60023333Y-55172380D01*
X61690000Y-55077142D02*
X61642380Y-55124761D01*
X61499523Y-55172380D01*
X61404285Y-55172380D01*
X61261428Y-55124761D01*
X61166190Y-55029523D01*
X61118571Y-54934285D01*
X61070952Y-54743809D01*
X61070952Y-54600952D01*
X61118571Y-54410476D01*
X61166190Y-54315238D01*
X61261428Y-54220000D01*
X61404285Y-54172380D01*
X61499523Y-54172380D01*
X61642380Y-54220000D01*
X61690000Y-54267619D01*
X62118571Y-55172380D02*
X62118571Y-54172380D01*
X62547142Y-55172380D02*
X62547142Y-54648571D01*
X62499523Y-54553333D01*
X62404285Y-54505714D01*
X62261428Y-54505714D01*
X62166190Y-54553333D01*
X62118571Y-54600952D01*
X63404285Y-55124761D02*
X63309047Y-55172380D01*
X63118571Y-55172380D01*
X63023333Y-55124761D01*
X62975714Y-55029523D01*
X62975714Y-54648571D01*
X63023333Y-54553333D01*
X63118571Y-54505714D01*
X63309047Y-54505714D01*
X63404285Y-54553333D01*
X63451904Y-54648571D01*
X63451904Y-54743809D01*
X62975714Y-54839047D01*
X64309047Y-55124761D02*
X64213809Y-55172380D01*
X64023333Y-55172380D01*
X63928095Y-55124761D01*
X63880476Y-55077142D01*
X63832857Y-54981904D01*
X63832857Y-54696190D01*
X63880476Y-54600952D01*
X63928095Y-54553333D01*
X64023333Y-54505714D01*
X64213809Y-54505714D01*
X64309047Y-54553333D01*
X64737619Y-55172380D02*
X64737619Y-54172380D01*
X64832857Y-54791428D02*
X65118571Y-55172380D01*
X65118571Y-54505714D02*
X64737619Y-54886666D01*
X114476666Y-140684761D02*
X114619523Y-140732380D01*
X114857619Y-140732380D01*
X114952857Y-140684761D01*
X115000476Y-140637142D01*
X115048095Y-140541904D01*
X115048095Y-140446666D01*
X115000476Y-140351428D01*
X114952857Y-140303809D01*
X114857619Y-140256190D01*
X114667142Y-140208571D01*
X114571904Y-140160952D01*
X114524285Y-140113333D01*
X114476666Y-140018095D01*
X114476666Y-139922857D01*
X114524285Y-139827619D01*
X114571904Y-139780000D01*
X114667142Y-139732380D01*
X114905238Y-139732380D01*
X115048095Y-139780000D01*
X115381428Y-139732380D02*
X115619523Y-140732380D01*
X115810000Y-140018095D01*
X116000476Y-140732380D01*
X116238571Y-139732380D01*
X116571904Y-139827619D02*
X116619523Y-139780000D01*
X116714761Y-139732380D01*
X116952857Y-139732380D01*
X117048095Y-139780000D01*
X117095714Y-139827619D01*
X117143333Y-139922857D01*
X117143333Y-140018095D01*
X117095714Y-140160952D01*
X116524285Y-140732380D01*
X117143333Y-140732380D01*
X110095714Y-130848571D02*
X110238571Y-130896190D01*
X110286190Y-130943809D01*
X110333809Y-131039047D01*
X110333809Y-131181904D01*
X110286190Y-131277142D01*
X110238571Y-131324761D01*
X110143333Y-131372380D01*
X109762380Y-131372380D01*
X109762380Y-130372380D01*
X110095714Y-130372380D01*
X110190952Y-130420000D01*
X110238571Y-130467619D01*
X110286190Y-130562857D01*
X110286190Y-130658095D01*
X110238571Y-130753333D01*
X110190952Y-130800952D01*
X110095714Y-130848571D01*
X109762380Y-130848571D01*
X110762380Y-131372380D02*
X110762380Y-130372380D01*
X111143333Y-130372380D01*
X111238571Y-130420000D01*
X111286190Y-130467619D01*
X111333809Y-130562857D01*
X111333809Y-130705714D01*
X111286190Y-130800952D01*
X111238571Y-130848571D01*
X111143333Y-130896190D01*
X110762380Y-130896190D01*
X111714761Y-131324761D02*
X111857619Y-131372380D01*
X112095714Y-131372380D01*
X112190952Y-131324761D01*
X112238571Y-131277142D01*
X112286190Y-131181904D01*
X112286190Y-131086666D01*
X112238571Y-130991428D01*
X112190952Y-130943809D01*
X112095714Y-130896190D01*
X111905238Y-130848571D01*
X111810000Y-130800952D01*
X111762380Y-130753333D01*
X111714761Y-130658095D01*
X111714761Y-130562857D01*
X111762380Y-130467619D01*
X111810000Y-130420000D01*
X111905238Y-130372380D01*
X112143333Y-130372380D01*
X112286190Y-130420000D01*
X113476666Y-131372380D02*
X113476666Y-130372380D01*
X113857619Y-130372380D01*
X113952857Y-130420000D01*
X114000476Y-130467619D01*
X114048095Y-130562857D01*
X114048095Y-130705714D01*
X114000476Y-130800952D01*
X113952857Y-130848571D01*
X113857619Y-130896190D01*
X113476666Y-130896190D01*
X114381428Y-130372380D02*
X114619523Y-131372380D01*
X114810000Y-130658095D01*
X115000476Y-131372380D01*
X115238571Y-130372380D01*
X116190952Y-131372380D02*
X115857619Y-130896190D01*
X115619523Y-131372380D02*
X115619523Y-130372380D01*
X116000476Y-130372380D01*
X116095714Y-130420000D01*
X116143333Y-130467619D01*
X116190952Y-130562857D01*
X116190952Y-130705714D01*
X116143333Y-130800952D01*
X116095714Y-130848571D01*
X116000476Y-130896190D01*
X115619523Y-130896190D01*
X117952857Y-131277142D02*
X117905238Y-131324761D01*
X117762380Y-131372380D01*
X117667142Y-131372380D01*
X117524285Y-131324761D01*
X117429047Y-131229523D01*
X117381428Y-131134285D01*
X117333809Y-130943809D01*
X117333809Y-130800952D01*
X117381428Y-130610476D01*
X117429047Y-130515238D01*
X117524285Y-130420000D01*
X117667142Y-130372380D01*
X117762380Y-130372380D01*
X117905238Y-130420000D01*
X117952857Y-130467619D01*
X118381428Y-131372380D02*
X118381428Y-130372380D01*
X118381428Y-130848571D02*
X118952857Y-130848571D01*
X118952857Y-131372380D02*
X118952857Y-130372380D01*
X119429047Y-130848571D02*
X119762380Y-130848571D01*
X119905238Y-131372380D02*
X119429047Y-131372380D01*
X119429047Y-130372380D01*
X119905238Y-130372380D01*
X120905238Y-131277142D02*
X120857619Y-131324761D01*
X120714761Y-131372380D01*
X120619523Y-131372380D01*
X120476666Y-131324761D01*
X120381428Y-131229523D01*
X120333809Y-131134285D01*
X120286190Y-130943809D01*
X120286190Y-130800952D01*
X120333809Y-130610476D01*
X120381428Y-130515238D01*
X120476666Y-130420000D01*
X120619523Y-130372380D01*
X120714761Y-130372380D01*
X120857619Y-130420000D01*
X120905238Y-130467619D01*
X121333809Y-131372380D02*
X121333809Y-130372380D01*
X121905238Y-131372380D02*
X121476666Y-130800952D01*
X121905238Y-130372380D02*
X121333809Y-130943809D01*
X108761904Y-114202380D02*
X108761904Y-113202380D01*
X109333333Y-114202380D02*
X108904761Y-113630952D01*
X109333333Y-113202380D02*
X108761904Y-113773809D01*
X109666666Y-113202380D02*
X110285714Y-113202380D01*
X109952380Y-113583333D01*
X110095238Y-113583333D01*
X110190476Y-113630952D01*
X110238095Y-113678571D01*
X110285714Y-113773809D01*
X110285714Y-114011904D01*
X110238095Y-114107142D01*
X110190476Y-114154761D01*
X110095238Y-114202380D01*
X109809523Y-114202380D01*
X109714285Y-114154761D01*
X109666666Y-114107142D01*
X107166666Y-126750000D02*
X107071428Y-126702380D01*
X106928571Y-126702380D01*
X106785714Y-126750000D01*
X106690476Y-126845238D01*
X106642857Y-126940476D01*
X106595238Y-127130952D01*
X106595238Y-127273809D01*
X106642857Y-127464285D01*
X106690476Y-127559523D01*
X106785714Y-127654761D01*
X106928571Y-127702380D01*
X107023809Y-127702380D01*
X107166666Y-127654761D01*
X107214285Y-127607142D01*
X107214285Y-127273809D01*
X107023809Y-127273809D01*
X108119047Y-126702380D02*
X107642857Y-126702380D01*
X107595238Y-127178571D01*
X107642857Y-127130952D01*
X107738095Y-127083333D01*
X107976190Y-127083333D01*
X108071428Y-127130952D01*
X108119047Y-127178571D01*
X108166666Y-127273809D01*
X108166666Y-127511904D01*
X108119047Y-127607142D01*
X108071428Y-127654761D01*
X107976190Y-127702380D01*
X107738095Y-127702380D01*
X107642857Y-127654761D01*
X107595238Y-127607142D01*
X109261904Y-127797619D02*
X109166666Y-127750000D01*
X109071428Y-127654761D01*
X108928571Y-127511904D01*
X108833333Y-127464285D01*
X108738095Y-127464285D01*
X108785714Y-127702380D02*
X108690476Y-127654761D01*
X108595238Y-127559523D01*
X108547619Y-127369047D01*
X108547619Y-127035714D01*
X108595238Y-126845238D01*
X108690476Y-126750000D01*
X108785714Y-126702380D01*
X108976190Y-126702380D01*
X109071428Y-126750000D01*
X109166666Y-126845238D01*
X109214285Y-127035714D01*
X109214285Y-127369047D01*
X109166666Y-127559523D01*
X109071428Y-127654761D01*
X108976190Y-127702380D01*
X108785714Y-127702380D01*
X109642857Y-127321428D02*
X110404761Y-127321428D01*
X111404761Y-127702380D02*
X110833333Y-127702380D01*
X111119047Y-127702380D02*
X111119047Y-126702380D01*
X111023809Y-126845238D01*
X110928571Y-126940476D01*
X110833333Y-126988095D01*
X46952380Y-136833333D02*
X47666666Y-136833333D01*
X47809523Y-136880952D01*
X47904761Y-136976190D01*
X47952380Y-137119047D01*
X47952380Y-137214285D01*
X46952380Y-135880952D02*
X46952380Y-136357142D01*
X47428571Y-136404761D01*
X47380952Y-136357142D01*
X47333333Y-136261904D01*
X47333333Y-136023809D01*
X47380952Y-135928571D01*
X47428571Y-135880952D01*
X47523809Y-135833333D01*
X47761904Y-135833333D01*
X47857142Y-135880952D01*
X47904761Y-135928571D01*
X47952380Y-136023809D01*
X47952380Y-136261904D01*
X47904761Y-136357142D01*
X47857142Y-136404761D01*
X37452380Y-140500000D02*
X36452380Y-140500000D01*
X36928571Y-140500000D02*
X36928571Y-139928571D01*
X37452380Y-139928571D02*
X36452380Y-139928571D01*
X36452380Y-139261904D02*
X36452380Y-139071428D01*
X36500000Y-138976190D01*
X36595238Y-138880952D01*
X36785714Y-138833333D01*
X37119047Y-138833333D01*
X37309523Y-138880952D01*
X37404761Y-138976190D01*
X37452380Y-139071428D01*
X37452380Y-139261904D01*
X37404761Y-139357142D01*
X37309523Y-139452380D01*
X37119047Y-139500000D01*
X36785714Y-139500000D01*
X36595238Y-139452380D01*
X36500000Y-139357142D01*
X36452380Y-139261904D01*
X37452380Y-137833333D02*
X36976190Y-138166666D01*
X37452380Y-138404761D02*
X36452380Y-138404761D01*
X36452380Y-138023809D01*
X36500000Y-137928571D01*
X36547619Y-137880952D01*
X36642857Y-137833333D01*
X36785714Y-137833333D01*
X36880952Y-137880952D01*
X36928571Y-137928571D01*
X36976190Y-138023809D01*
X36976190Y-138404761D01*
X37452380Y-137404761D02*
X36452380Y-137404761D01*
X37452380Y-136833333D01*
X36452380Y-136833333D01*
X37357142Y-135023809D02*
X37404761Y-135071428D01*
X37452380Y-135214285D01*
X37452380Y-135309523D01*
X37404761Y-135452380D01*
X37309523Y-135547619D01*
X37214285Y-135595238D01*
X37023809Y-135642857D01*
X36880952Y-135642857D01*
X36690476Y-135595238D01*
X36595238Y-135547619D01*
X36500000Y-135452380D01*
X36452380Y-135309523D01*
X36452380Y-135214285D01*
X36500000Y-135071428D01*
X36547619Y-135023809D01*
X36452380Y-134738095D02*
X36452380Y-134166666D01*
X37452380Y-134452380D02*
X36452380Y-134452380D01*
X37452380Y-133261904D02*
X36976190Y-133595238D01*
X37452380Y-133833333D02*
X36452380Y-133833333D01*
X36452380Y-133452380D01*
X36500000Y-133357142D01*
X36547619Y-133309523D01*
X36642857Y-133261904D01*
X36785714Y-133261904D01*
X36880952Y-133309523D01*
X36928571Y-133357142D01*
X36976190Y-133452380D01*
X36976190Y-133833333D01*
X37452380Y-132357142D02*
X37452380Y-132833333D01*
X36452380Y-132833333D01*
X128666666Y-95452380D02*
X128333333Y-94976190D01*
X128095238Y-95452380D02*
X128095238Y-94452380D01*
X128476190Y-94452380D01*
X128571428Y-94500000D01*
X128619047Y-94547619D01*
X128666666Y-94642857D01*
X128666666Y-94785714D01*
X128619047Y-94880952D01*
X128571428Y-94928571D01*
X128476190Y-94976190D01*
X128095238Y-94976190D01*
X129047619Y-95166666D02*
X129523809Y-95166666D01*
X128952380Y-95452380D02*
X129285714Y-94452380D01*
X129619047Y-95452380D01*
X129952380Y-95452380D02*
X129952380Y-94452380D01*
X130190476Y-94452380D01*
X130333333Y-94500000D01*
X130428571Y-94595238D01*
X130476190Y-94690476D01*
X130523809Y-94880952D01*
X130523809Y-95023809D01*
X130476190Y-95214285D01*
X130428571Y-95309523D01*
X130333333Y-95404761D01*
X130190476Y-95452380D01*
X129952380Y-95452380D01*
X130952380Y-95452380D02*
X130952380Y-94452380D01*
X131619047Y-94452380D02*
X131809523Y-94452380D01*
X131904761Y-94500000D01*
X132000000Y-94595238D01*
X132047619Y-94785714D01*
X132047619Y-95119047D01*
X132000000Y-95309523D01*
X131904761Y-95404761D01*
X131809523Y-95452380D01*
X131619047Y-95452380D01*
X131523809Y-95404761D01*
X131428571Y-95309523D01*
X131380952Y-95119047D01*
X131380952Y-94785714D01*
X131428571Y-94595238D01*
X131523809Y-94500000D01*
X131619047Y-94452380D01*
X133238095Y-95452380D02*
X133238095Y-94452380D01*
X133619047Y-94452380D01*
X133714285Y-94500000D01*
X133761904Y-94547619D01*
X133809523Y-94642857D01*
X133809523Y-94785714D01*
X133761904Y-94880952D01*
X133714285Y-94928571D01*
X133619047Y-94976190D01*
X133238095Y-94976190D01*
X134142857Y-94452380D02*
X134380952Y-95452380D01*
X134571428Y-94738095D01*
X134761904Y-95452380D01*
X135000000Y-94452380D01*
X135952380Y-95452380D02*
X135619047Y-94976190D01*
X135380952Y-95452380D02*
X135380952Y-94452380D01*
X135761904Y-94452380D01*
X135857142Y-94500000D01*
X135904761Y-94547619D01*
X135952380Y-94642857D01*
X135952380Y-94785714D01*
X135904761Y-94880952D01*
X135857142Y-94928571D01*
X135761904Y-94976190D01*
X135380952Y-94976190D01*
X125285714Y-116928571D02*
X125428571Y-116976190D01*
X125476190Y-117023809D01*
X125523809Y-117119047D01*
X125523809Y-117261904D01*
X125476190Y-117357142D01*
X125428571Y-117404761D01*
X125333333Y-117452380D01*
X124952380Y-117452380D01*
X124952380Y-116452380D01*
X125285714Y-116452380D01*
X125380952Y-116500000D01*
X125428571Y-116547619D01*
X125476190Y-116642857D01*
X125476190Y-116738095D01*
X125428571Y-116833333D01*
X125380952Y-116880952D01*
X125285714Y-116928571D01*
X124952380Y-116928571D01*
X125952380Y-117452380D02*
X125952380Y-116452380D01*
X126333333Y-116452380D01*
X126428571Y-116500000D01*
X126476190Y-116547619D01*
X126523809Y-116642857D01*
X126523809Y-116785714D01*
X126476190Y-116880952D01*
X126428571Y-116928571D01*
X126333333Y-116976190D01*
X125952380Y-116976190D01*
X126904761Y-117404761D02*
X127047619Y-117452380D01*
X127285714Y-117452380D01*
X127380952Y-117404761D01*
X127428571Y-117357142D01*
X127476190Y-117261904D01*
X127476190Y-117166666D01*
X127428571Y-117071428D01*
X127380952Y-117023809D01*
X127285714Y-116976190D01*
X127095238Y-116928571D01*
X127000000Y-116880952D01*
X126952380Y-116833333D01*
X126904761Y-116738095D01*
X126904761Y-116642857D01*
X126952380Y-116547619D01*
X127000000Y-116500000D01*
X127095238Y-116452380D01*
X127333333Y-116452380D01*
X127476190Y-116500000D01*
X128619047Y-117404761D02*
X128761904Y-117452380D01*
X129000000Y-117452380D01*
X129095238Y-117404761D01*
X129142857Y-117357142D01*
X129190476Y-117261904D01*
X129190476Y-117166666D01*
X129142857Y-117071428D01*
X129095238Y-117023809D01*
X129000000Y-116976190D01*
X128809523Y-116928571D01*
X128714285Y-116880952D01*
X128666666Y-116833333D01*
X128619047Y-116738095D01*
X128619047Y-116642857D01*
X128666666Y-116547619D01*
X128714285Y-116500000D01*
X128809523Y-116452380D01*
X129047619Y-116452380D01*
X129190476Y-116500000D01*
X129619047Y-116452380D02*
X129619047Y-117261904D01*
X129666666Y-117357142D01*
X129714285Y-117404761D01*
X129809523Y-117452380D01*
X130000000Y-117452380D01*
X130095238Y-117404761D01*
X130142857Y-117357142D01*
X130190476Y-117261904D01*
X130190476Y-116452380D01*
X130666666Y-117452380D02*
X130666666Y-116452380D01*
X131047619Y-116452380D01*
X131142857Y-116500000D01*
X131190476Y-116547619D01*
X131238095Y-116642857D01*
X131238095Y-116785714D01*
X131190476Y-116880952D01*
X131142857Y-116928571D01*
X131047619Y-116976190D01*
X130666666Y-116976190D01*
X131666666Y-117452380D02*
X131666666Y-116452380D01*
X132047619Y-116452380D01*
X132142857Y-116500000D01*
X132190476Y-116547619D01*
X132238095Y-116642857D01*
X132238095Y-116785714D01*
X132190476Y-116880952D01*
X132142857Y-116928571D01*
X132047619Y-116976190D01*
X131666666Y-116976190D01*
X133142857Y-117452380D02*
X132666666Y-117452380D01*
X132666666Y-116452380D01*
X133666666Y-116976190D02*
X133666666Y-117452380D01*
X133333333Y-116452380D02*
X133666666Y-116976190D01*
X134000000Y-116452380D01*
X134952380Y-116452380D02*
X135285714Y-117452380D01*
X135619047Y-116452380D01*
X136142857Y-116452380D02*
X136333333Y-116452380D01*
X136428571Y-116500000D01*
X136523809Y-116595238D01*
X136571428Y-116785714D01*
X136571428Y-117119047D01*
X136523809Y-117309523D01*
X136428571Y-117404761D01*
X136333333Y-117452380D01*
X136142857Y-117452380D01*
X136047619Y-117404761D01*
X135952380Y-117309523D01*
X135904761Y-117119047D01*
X135904761Y-116785714D01*
X135952380Y-116595238D01*
X136047619Y-116500000D01*
X136142857Y-116452380D01*
X137476190Y-117452380D02*
X137000000Y-117452380D01*
X137000000Y-116452380D01*
X137666666Y-116452380D02*
X138238095Y-116452380D01*
X137952380Y-117452380D02*
X137952380Y-116452380D01*
X138523809Y-117404761D02*
X138666666Y-117452380D01*
X138904761Y-117452380D01*
X139000000Y-117404761D01*
X139047619Y-117357142D01*
X139095238Y-117261904D01*
X139095238Y-117166666D01*
X139047619Y-117071428D01*
X139000000Y-117023809D01*
X138904761Y-116976190D01*
X138714285Y-116928571D01*
X138619047Y-116880952D01*
X138571428Y-116833333D01*
X138523809Y-116738095D01*
X138523809Y-116642857D01*
X138571428Y-116547619D01*
X138619047Y-116500000D01*
X138714285Y-116452380D01*
X138952380Y-116452380D01*
X139095238Y-116500000D01*
X43857142Y-44366666D02*
X44333333Y-44366666D01*
X43761904Y-44652380D02*
X44095238Y-43652380D01*
X44428571Y-44652380D01*
X44761904Y-43652380D02*
X44761904Y-44461904D01*
X44809523Y-44557142D01*
X44857142Y-44604761D01*
X44952380Y-44652380D01*
X45142857Y-44652380D01*
X45238095Y-44604761D01*
X45285714Y-44557142D01*
X45333333Y-44461904D01*
X45333333Y-43652380D01*
X45714285Y-43652380D02*
X46380952Y-44652380D01*
X46380952Y-43652380D02*
X45714285Y-44652380D01*
X47095238Y-44128571D02*
X47238095Y-44176190D01*
X47285714Y-44223809D01*
X47333333Y-44319047D01*
X47333333Y-44461904D01*
X47285714Y-44557142D01*
X47238095Y-44604761D01*
X47142857Y-44652380D01*
X46761904Y-44652380D01*
X46761904Y-43652380D01*
X47095238Y-43652380D01*
X47190476Y-43700000D01*
X47238095Y-43747619D01*
X47285714Y-43842857D01*
X47285714Y-43938095D01*
X47238095Y-44033333D01*
X47190476Y-44080952D01*
X47095238Y-44128571D01*
X46761904Y-44128571D01*
X47714285Y-44366666D02*
X48190476Y-44366666D01*
X47619047Y-44652380D02*
X47952380Y-43652380D01*
X48285714Y-44652380D01*
X48476190Y-43652380D02*
X49047619Y-43652380D01*
X48761904Y-44652380D02*
X48761904Y-43652380D01*
X49238095Y-43652380D02*
X49809523Y-43652380D01*
X49523809Y-44652380D02*
X49523809Y-43652380D01*
X50000000Y-43652380D02*
X50333333Y-44652380D01*
X50666666Y-43652380D01*
X51190476Y-43652380D02*
X51380952Y-43652380D01*
X51476190Y-43700000D01*
X51571428Y-43795238D01*
X51619047Y-43985714D01*
X51619047Y-44319047D01*
X51571428Y-44509523D01*
X51476190Y-44604761D01*
X51380952Y-44652380D01*
X51190476Y-44652380D01*
X51095238Y-44604761D01*
X51000000Y-44509523D01*
X50952380Y-44319047D01*
X50952380Y-43985714D01*
X51000000Y-43795238D01*
X51095238Y-43700000D01*
X51190476Y-43652380D01*
X52523809Y-44652380D02*
X52047619Y-44652380D01*
X52047619Y-43652380D01*
X52714285Y-43652380D02*
X53285714Y-43652380D01*
X53000000Y-44652380D02*
X53000000Y-43652380D01*
X53571428Y-44604761D02*
X53714285Y-44652380D01*
X53952380Y-44652380D01*
X54047619Y-44604761D01*
X54095238Y-44557142D01*
X54142857Y-44461904D01*
X54142857Y-44366666D01*
X54095238Y-44271428D01*
X54047619Y-44223809D01*
X53952380Y-44176190D01*
X53761904Y-44128571D01*
X53666666Y-44080952D01*
X53619047Y-44033333D01*
X53571428Y-43938095D01*
X53571428Y-43842857D01*
X53619047Y-43747619D01*
X53666666Y-43700000D01*
X53761904Y-43652380D01*
X54000000Y-43652380D01*
X54142857Y-43700000D01*
X128838095Y-51952380D02*
X128838095Y-50952380D01*
X128838095Y-51428571D02*
X129409523Y-51428571D01*
X129409523Y-51952380D02*
X129409523Y-50952380D01*
X130076190Y-50952380D02*
X130266666Y-50952380D01*
X130361904Y-51000000D01*
X130457142Y-51095238D01*
X130504761Y-51285714D01*
X130504761Y-51619047D01*
X130457142Y-51809523D01*
X130361904Y-51904761D01*
X130266666Y-51952380D01*
X130076190Y-51952380D01*
X129980952Y-51904761D01*
X129885714Y-51809523D01*
X129838095Y-51619047D01*
X129838095Y-51285714D01*
X129885714Y-51095238D01*
X129980952Y-51000000D01*
X130076190Y-50952380D01*
X131504761Y-51952380D02*
X131171428Y-51476190D01*
X130933333Y-51952380D02*
X130933333Y-50952380D01*
X131314285Y-50952380D01*
X131409523Y-51000000D01*
X131457142Y-51047619D01*
X131504761Y-51142857D01*
X131504761Y-51285714D01*
X131457142Y-51380952D01*
X131409523Y-51428571D01*
X131314285Y-51476190D01*
X130933333Y-51476190D01*
X131933333Y-51952380D02*
X131933333Y-50952380D01*
X132504761Y-51952380D01*
X132504761Y-50952380D01*
X133933333Y-50952380D02*
X134123809Y-50952380D01*
X134219047Y-51000000D01*
X134314285Y-51095238D01*
X134361904Y-51285714D01*
X134361904Y-51619047D01*
X134314285Y-51809523D01*
X134219047Y-51904761D01*
X134123809Y-51952380D01*
X133933333Y-51952380D01*
X133838095Y-51904761D01*
X133742857Y-51809523D01*
X133695238Y-51619047D01*
X133695238Y-51285714D01*
X133742857Y-51095238D01*
X133838095Y-51000000D01*
X133933333Y-50952380D01*
X134790476Y-51952380D02*
X134790476Y-50952380D01*
X135361904Y-51952380D01*
X135361904Y-50952380D01*
X129761904Y-73428571D02*
X129428571Y-73428571D01*
X129428571Y-73952380D02*
X129428571Y-72952380D01*
X129904761Y-72952380D01*
X130238095Y-73666666D02*
X130714285Y-73666666D01*
X130142857Y-73952380D02*
X130476190Y-72952380D01*
X130809523Y-73952380D01*
X131142857Y-73952380D02*
X131142857Y-72952380D01*
X131714285Y-73952380D01*
X131714285Y-72952380D01*
X133142857Y-72952380D02*
X133333333Y-72952380D01*
X133428571Y-73000000D01*
X133523809Y-73095238D01*
X133571428Y-73285714D01*
X133571428Y-73619047D01*
X133523809Y-73809523D01*
X133428571Y-73904761D01*
X133333333Y-73952380D01*
X133142857Y-73952380D01*
X133047619Y-73904761D01*
X132952380Y-73809523D01*
X132904761Y-73619047D01*
X132904761Y-73285714D01*
X132952380Y-73095238D01*
X133047619Y-73000000D01*
X133142857Y-72952380D01*
X134000000Y-73952380D02*
X134000000Y-72952380D01*
X134571428Y-73952380D01*
X134571428Y-72952380D01*
X114356666Y-107984761D02*
X114499523Y-108032380D01*
X114737619Y-108032380D01*
X114832857Y-107984761D01*
X114880476Y-107937142D01*
X114928095Y-107841904D01*
X114928095Y-107746666D01*
X114880476Y-107651428D01*
X114832857Y-107603809D01*
X114737619Y-107556190D01*
X114547142Y-107508571D01*
X114451904Y-107460952D01*
X114404285Y-107413333D01*
X114356666Y-107318095D01*
X114356666Y-107222857D01*
X114404285Y-107127619D01*
X114451904Y-107080000D01*
X114547142Y-107032380D01*
X114785238Y-107032380D01*
X114928095Y-107080000D01*
X115261428Y-107032380D02*
X115499523Y-108032380D01*
X115690000Y-107318095D01*
X115880476Y-108032380D01*
X116118571Y-107032380D01*
X116404285Y-107032380D02*
X117023333Y-107032380D01*
X116690000Y-107413333D01*
X116832857Y-107413333D01*
X116928095Y-107460952D01*
X116975714Y-107508571D01*
X117023333Y-107603809D01*
X117023333Y-107841904D01*
X116975714Y-107937142D01*
X116928095Y-107984761D01*
X116832857Y-108032380D01*
X116547142Y-108032380D01*
X116451904Y-107984761D01*
X116404285Y-107937142D01*
X109499523Y-98672380D02*
X109166190Y-98196190D01*
X108928095Y-98672380D02*
X108928095Y-97672380D01*
X109309047Y-97672380D01*
X109404285Y-97720000D01*
X109451904Y-97767619D01*
X109499523Y-97862857D01*
X109499523Y-98005714D01*
X109451904Y-98100952D01*
X109404285Y-98148571D01*
X109309047Y-98196190D01*
X108928095Y-98196190D01*
X109880476Y-98386666D02*
X110356666Y-98386666D01*
X109785238Y-98672380D02*
X110118571Y-97672380D01*
X110451904Y-98672380D01*
X110785238Y-98672380D02*
X110785238Y-97672380D01*
X111023333Y-97672380D01*
X111166190Y-97720000D01*
X111261428Y-97815238D01*
X111309047Y-97910476D01*
X111356666Y-98100952D01*
X111356666Y-98243809D01*
X111309047Y-98434285D01*
X111261428Y-98529523D01*
X111166190Y-98624761D01*
X111023333Y-98672380D01*
X110785238Y-98672380D01*
X111785238Y-98672380D02*
X111785238Y-97672380D01*
X112451904Y-97672380D02*
X112642380Y-97672380D01*
X112737619Y-97720000D01*
X112832857Y-97815238D01*
X112880476Y-98005714D01*
X112880476Y-98339047D01*
X112832857Y-98529523D01*
X112737619Y-98624761D01*
X112642380Y-98672380D01*
X112451904Y-98672380D01*
X112356666Y-98624761D01*
X112261428Y-98529523D01*
X112213809Y-98339047D01*
X112213809Y-98005714D01*
X112261428Y-97815238D01*
X112356666Y-97720000D01*
X112451904Y-97672380D01*
X114070952Y-98672380D02*
X114070952Y-97672380D01*
X114451904Y-97672380D01*
X114547142Y-97720000D01*
X114594761Y-97767619D01*
X114642380Y-97862857D01*
X114642380Y-98005714D01*
X114594761Y-98100952D01*
X114547142Y-98148571D01*
X114451904Y-98196190D01*
X114070952Y-98196190D01*
X114975714Y-97672380D02*
X115213809Y-98672380D01*
X115404285Y-97958095D01*
X115594761Y-98672380D01*
X115832857Y-97672380D01*
X116785238Y-98672380D02*
X116451904Y-98196190D01*
X116213809Y-98672380D02*
X116213809Y-97672380D01*
X116594761Y-97672380D01*
X116690000Y-97720000D01*
X116737619Y-97767619D01*
X116785238Y-97862857D01*
X116785238Y-98005714D01*
X116737619Y-98100952D01*
X116690000Y-98148571D01*
X116594761Y-98196190D01*
X116213809Y-98196190D01*
X118547142Y-98577142D02*
X118499523Y-98624761D01*
X118356666Y-98672380D01*
X118261428Y-98672380D01*
X118118571Y-98624761D01*
X118023333Y-98529523D01*
X117975714Y-98434285D01*
X117928095Y-98243809D01*
X117928095Y-98100952D01*
X117975714Y-97910476D01*
X118023333Y-97815238D01*
X118118571Y-97720000D01*
X118261428Y-97672380D01*
X118356666Y-97672380D01*
X118499523Y-97720000D01*
X118547142Y-97767619D01*
X118975714Y-98672380D02*
X118975714Y-97672380D01*
X118975714Y-98148571D02*
X119547142Y-98148571D01*
X119547142Y-98672380D02*
X119547142Y-97672380D01*
X120023333Y-98148571D02*
X120356666Y-98148571D01*
X120499523Y-98672380D02*
X120023333Y-98672380D01*
X120023333Y-97672380D01*
X120499523Y-97672380D01*
X121499523Y-98577142D02*
X121451904Y-98624761D01*
X121309047Y-98672380D01*
X121213809Y-98672380D01*
X121070952Y-98624761D01*
X120975714Y-98529523D01*
X120928095Y-98434285D01*
X120880476Y-98243809D01*
X120880476Y-98100952D01*
X120928095Y-97910476D01*
X120975714Y-97815238D01*
X121070952Y-97720000D01*
X121213809Y-97672380D01*
X121309047Y-97672380D01*
X121451904Y-97720000D01*
X121499523Y-97767619D01*
X121928095Y-98672380D02*
X121928095Y-97672380D01*
X122499523Y-98672380D02*
X122070952Y-98100952D01*
X122499523Y-97672380D02*
X121928095Y-98243809D01*
X108761904Y-70952380D02*
X108761904Y-69952380D01*
X109333333Y-70952380D02*
X108904761Y-70380952D01*
X109333333Y-69952380D02*
X108761904Y-70523809D01*
X109714285Y-70047619D02*
X109761904Y-70000000D01*
X109857142Y-69952380D01*
X110095238Y-69952380D01*
X110190476Y-70000000D01*
X110238095Y-70047619D01*
X110285714Y-70142857D01*
X110285714Y-70238095D01*
X110238095Y-70380952D01*
X109666666Y-70952380D01*
X110285714Y-70952380D01*
X107166666Y-83500000D02*
X107071428Y-83452380D01*
X106928571Y-83452380D01*
X106785714Y-83500000D01*
X106690476Y-83595238D01*
X106642857Y-83690476D01*
X106595238Y-83880952D01*
X106595238Y-84023809D01*
X106642857Y-84214285D01*
X106690476Y-84309523D01*
X106785714Y-84404761D01*
X106928571Y-84452380D01*
X107023809Y-84452380D01*
X107166666Y-84404761D01*
X107214285Y-84357142D01*
X107214285Y-84023809D01*
X107023809Y-84023809D01*
X108119047Y-83452380D02*
X107642857Y-83452380D01*
X107595238Y-83928571D01*
X107642857Y-83880952D01*
X107738095Y-83833333D01*
X107976190Y-83833333D01*
X108071428Y-83880952D01*
X108119047Y-83928571D01*
X108166666Y-84023809D01*
X108166666Y-84261904D01*
X108119047Y-84357142D01*
X108071428Y-84404761D01*
X107976190Y-84452380D01*
X107738095Y-84452380D01*
X107642857Y-84404761D01*
X107595238Y-84357142D01*
X109261904Y-84547619D02*
X109166666Y-84500000D01*
X109071428Y-84404761D01*
X108928571Y-84261904D01*
X108833333Y-84214285D01*
X108738095Y-84214285D01*
X108785714Y-84452380D02*
X108690476Y-84404761D01*
X108595238Y-84309523D01*
X108547619Y-84119047D01*
X108547619Y-83785714D01*
X108595238Y-83595238D01*
X108690476Y-83500000D01*
X108785714Y-83452380D01*
X108976190Y-83452380D01*
X109071428Y-83500000D01*
X109166666Y-83595238D01*
X109214285Y-83785714D01*
X109214285Y-84119047D01*
X109166666Y-84309523D01*
X109071428Y-84404761D01*
X108976190Y-84452380D01*
X108785714Y-84452380D01*
X109642857Y-84071428D02*
X110404761Y-84071428D01*
X111404761Y-84452380D02*
X110833333Y-84452380D01*
X111119047Y-84452380D02*
X111119047Y-83452380D01*
X111023809Y-83595238D01*
X110928571Y-83690476D01*
X110833333Y-83738095D01*
X108761904Y-48952380D02*
X108761904Y-47952380D01*
X109333333Y-48952380D02*
X108904761Y-48380952D01*
X109333333Y-47952380D02*
X108761904Y-48523809D01*
X110285714Y-48952380D02*
X109714285Y-48952380D01*
X110000000Y-48952380D02*
X110000000Y-47952380D01*
X109904761Y-48095238D01*
X109809523Y-48190476D01*
X109714285Y-48238095D01*
X107166666Y-61500000D02*
X107071428Y-61452380D01*
X106928571Y-61452380D01*
X106785714Y-61500000D01*
X106690476Y-61595238D01*
X106642857Y-61690476D01*
X106595238Y-61880952D01*
X106595238Y-62023809D01*
X106642857Y-62214285D01*
X106690476Y-62309523D01*
X106785714Y-62404761D01*
X106928571Y-62452380D01*
X107023809Y-62452380D01*
X107166666Y-62404761D01*
X107214285Y-62357142D01*
X107214285Y-62023809D01*
X107023809Y-62023809D01*
X108119047Y-61452380D02*
X107642857Y-61452380D01*
X107595238Y-61928571D01*
X107642857Y-61880952D01*
X107738095Y-61833333D01*
X107976190Y-61833333D01*
X108071428Y-61880952D01*
X108119047Y-61928571D01*
X108166666Y-62023809D01*
X108166666Y-62261904D01*
X108119047Y-62357142D01*
X108071428Y-62404761D01*
X107976190Y-62452380D01*
X107738095Y-62452380D01*
X107642857Y-62404761D01*
X107595238Y-62357142D01*
X109261904Y-62547619D02*
X109166666Y-62500000D01*
X109071428Y-62404761D01*
X108928571Y-62261904D01*
X108833333Y-62214285D01*
X108738095Y-62214285D01*
X108785714Y-62452380D02*
X108690476Y-62404761D01*
X108595238Y-62309523D01*
X108547619Y-62119047D01*
X108547619Y-61785714D01*
X108595238Y-61595238D01*
X108690476Y-61500000D01*
X108785714Y-61452380D01*
X108976190Y-61452380D01*
X109071428Y-61500000D01*
X109166666Y-61595238D01*
X109214285Y-61785714D01*
X109214285Y-62119047D01*
X109166666Y-62309523D01*
X109071428Y-62404761D01*
X108976190Y-62452380D01*
X108785714Y-62452380D01*
X109642857Y-62071428D02*
X110404761Y-62071428D01*
X111404761Y-62452380D02*
X110833333Y-62452380D01*
X111119047Y-62452380D02*
X111119047Y-61452380D01*
X111023809Y-61595238D01*
X110928571Y-61690476D01*
X110833333Y-61738095D01*
X53332380Y-60093333D02*
X54046666Y-60093333D01*
X54189523Y-60140952D01*
X54284761Y-60236190D01*
X54332380Y-60379047D01*
X54332380Y-60474285D01*
X54332380Y-59093333D02*
X54332380Y-59664761D01*
X54332380Y-59379047D02*
X53332380Y-59379047D01*
X53475238Y-59474285D01*
X53570476Y-59569523D01*
X53618095Y-59664761D01*
X36996666Y-65498095D02*
X36996666Y-65021904D01*
X37282380Y-65593333D02*
X36282380Y-65260000D01*
X37282380Y-64926666D01*
X36282380Y-64593333D02*
X37091904Y-64593333D01*
X37187142Y-64545714D01*
X37234761Y-64498095D01*
X37282380Y-64402857D01*
X37282380Y-64212380D01*
X37234761Y-64117142D01*
X37187142Y-64069523D01*
X37091904Y-64021904D01*
X36282380Y-64021904D01*
X36282380Y-63640952D02*
X37282380Y-62974285D01*
X36282380Y-62974285D02*
X37282380Y-63640952D01*
X36758571Y-62260000D02*
X36806190Y-62117142D01*
X36853809Y-62069523D01*
X36949047Y-62021904D01*
X37091904Y-62021904D01*
X37187142Y-62069523D01*
X37234761Y-62117142D01*
X37282380Y-62212380D01*
X37282380Y-62593333D01*
X36282380Y-62593333D01*
X36282380Y-62260000D01*
X36330000Y-62164761D01*
X36377619Y-62117142D01*
X36472857Y-62069523D01*
X36568095Y-62069523D01*
X36663333Y-62117142D01*
X36710952Y-62164761D01*
X36758571Y-62260000D01*
X36758571Y-62593333D01*
X37282380Y-61164761D02*
X36758571Y-61164761D01*
X36663333Y-61212380D01*
X36615714Y-61307619D01*
X36615714Y-61498095D01*
X36663333Y-61593333D01*
X37234761Y-61164761D02*
X37282380Y-61260000D01*
X37282380Y-61498095D01*
X37234761Y-61593333D01*
X37139523Y-61640952D01*
X37044285Y-61640952D01*
X36949047Y-61593333D01*
X36901428Y-61498095D01*
X36901428Y-61260000D01*
X36853809Y-61164761D01*
X36615714Y-60831428D02*
X36615714Y-60450476D01*
X36282380Y-60688571D02*
X37139523Y-60688571D01*
X37234761Y-60640952D01*
X37282380Y-60545714D01*
X37282380Y-60450476D01*
X36615714Y-60260000D02*
X36615714Y-59879047D01*
X36282380Y-60117142D02*
X37139523Y-60117142D01*
X37234761Y-60069523D01*
X37282380Y-59974285D01*
X37282380Y-59879047D01*
X37234761Y-59164761D02*
X37282380Y-59260000D01*
X37282380Y-59450476D01*
X37234761Y-59545714D01*
X37139523Y-59593333D01*
X36758571Y-59593333D01*
X36663333Y-59545714D01*
X36615714Y-59450476D01*
X36615714Y-59260000D01*
X36663333Y-59164761D01*
X36758571Y-59117142D01*
X36853809Y-59117142D01*
X36949047Y-59593333D01*
X37282380Y-58688571D02*
X36615714Y-58688571D01*
X36806190Y-58688571D02*
X36710952Y-58640952D01*
X36663333Y-58593333D01*
X36615714Y-58498095D01*
X36615714Y-58402857D01*
X36615714Y-58164761D02*
X37282380Y-57926666D01*
X36615714Y-57688571D02*
X37282380Y-57926666D01*
X37520476Y-58021904D01*
X37568095Y-58069523D01*
X37615714Y-58164761D01*
X37187142Y-56736190D02*
X37234761Y-56783809D01*
X37282380Y-56926666D01*
X37282380Y-57021904D01*
X37234761Y-57164761D01*
X37139523Y-57260000D01*
X37044285Y-57307619D01*
X36853809Y-57355238D01*
X36710952Y-57355238D01*
X36520476Y-57307619D01*
X36425238Y-57260000D01*
X36330000Y-57164761D01*
X36282380Y-57021904D01*
X36282380Y-56926666D01*
X36330000Y-56783809D01*
X36377619Y-56736190D01*
X37282380Y-56164761D02*
X37234761Y-56260000D01*
X37187142Y-56307619D01*
X37091904Y-56355238D01*
X36806190Y-56355238D01*
X36710952Y-56307619D01*
X36663333Y-56260000D01*
X36615714Y-56164761D01*
X36615714Y-56021904D01*
X36663333Y-55926666D01*
X36710952Y-55879047D01*
X36806190Y-55831428D01*
X37091904Y-55831428D01*
X37187142Y-55879047D01*
X37234761Y-55926666D01*
X37282380Y-56021904D01*
X37282380Y-56164761D01*
X36615714Y-55402857D02*
X37282380Y-55402857D01*
X36710952Y-55402857D02*
X36663333Y-55355238D01*
X36615714Y-55260000D01*
X36615714Y-55117142D01*
X36663333Y-55021904D01*
X36758571Y-54974285D01*
X37282380Y-54974285D01*
X36615714Y-54498095D02*
X37282380Y-54498095D01*
X36710952Y-54498095D02*
X36663333Y-54450476D01*
X36615714Y-54355238D01*
X36615714Y-54212380D01*
X36663333Y-54117142D01*
X36758571Y-54069523D01*
X37282380Y-54069523D01*
X129052380Y-83944285D02*
X128052380Y-83944285D01*
X128052380Y-83706190D01*
X128100000Y-83563333D01*
X128195238Y-83468095D01*
X128290476Y-83420476D01*
X128480952Y-83372857D01*
X128623809Y-83372857D01*
X128814285Y-83420476D01*
X128909523Y-83468095D01*
X129004761Y-83563333D01*
X129052380Y-83706190D01*
X129052380Y-83944285D01*
X129004761Y-82991904D02*
X129052380Y-82849047D01*
X129052380Y-82610952D01*
X129004761Y-82515714D01*
X128957142Y-82468095D01*
X128861904Y-82420476D01*
X128766666Y-82420476D01*
X128671428Y-82468095D01*
X128623809Y-82515714D01*
X128576190Y-82610952D01*
X128528571Y-82801428D01*
X128480952Y-82896666D01*
X128433333Y-82944285D01*
X128338095Y-82991904D01*
X128242857Y-82991904D01*
X128147619Y-82944285D01*
X128100000Y-82896666D01*
X128052380Y-82801428D01*
X128052380Y-82563333D01*
X128100000Y-82420476D01*
X128052380Y-81563333D02*
X128052380Y-81753809D01*
X128100000Y-81849047D01*
X128147619Y-81896666D01*
X128290476Y-81991904D01*
X128480952Y-82039523D01*
X128861904Y-82039523D01*
X128957142Y-81991904D01*
X129004761Y-81944285D01*
X129052380Y-81849047D01*
X129052380Y-81658571D01*
X129004761Y-81563333D01*
X128957142Y-81515714D01*
X128861904Y-81468095D01*
X128623809Y-81468095D01*
X128528571Y-81515714D01*
X128480952Y-81563333D01*
X128433333Y-81658571D01*
X128433333Y-81849047D01*
X128480952Y-81944285D01*
X128528571Y-81991904D01*
X128623809Y-82039523D01*
X135428571Y-84968095D02*
X135428571Y-85301428D01*
X135952380Y-85301428D02*
X134952380Y-85301428D01*
X134952380Y-84825238D01*
X135666666Y-84491904D02*
X135666666Y-84015714D01*
X135952380Y-84587142D02*
X134952380Y-84253809D01*
X135952380Y-83920476D01*
X135952380Y-83587142D02*
X134952380Y-83587142D01*
X135952380Y-83015714D01*
X134952380Y-83015714D01*
X134952380Y-81587142D02*
X134952380Y-81396666D01*
X135000000Y-81301428D01*
X135095238Y-81206190D01*
X135285714Y-81158571D01*
X135619047Y-81158571D01*
X135809523Y-81206190D01*
X135904761Y-81301428D01*
X135952380Y-81396666D01*
X135952380Y-81587142D01*
X135904761Y-81682380D01*
X135809523Y-81777619D01*
X135619047Y-81825238D01*
X135285714Y-81825238D01*
X135095238Y-81777619D01*
X135000000Y-81682380D01*
X134952380Y-81587142D01*
X135952380Y-80730000D02*
X134952380Y-80730000D01*
X135952380Y-80158571D01*
X134952380Y-80158571D01*
X54652380Y-72214285D02*
X53652380Y-72214285D01*
X53652380Y-71976190D01*
X53700000Y-71833333D01*
X53795238Y-71738095D01*
X53890476Y-71690476D01*
X54080952Y-71642857D01*
X54223809Y-71642857D01*
X54414285Y-71690476D01*
X54509523Y-71738095D01*
X54604761Y-71833333D01*
X54652380Y-71976190D01*
X54652380Y-72214285D01*
X54604761Y-71261904D02*
X54652380Y-71119047D01*
X54652380Y-70880952D01*
X54604761Y-70785714D01*
X54557142Y-70738095D01*
X54461904Y-70690476D01*
X54366666Y-70690476D01*
X54271428Y-70738095D01*
X54223809Y-70785714D01*
X54176190Y-70880952D01*
X54128571Y-71071428D01*
X54080952Y-71166666D01*
X54033333Y-71214285D01*
X53938095Y-71261904D01*
X53842857Y-71261904D01*
X53747619Y-71214285D01*
X53700000Y-71166666D01*
X53652380Y-71071428D01*
X53652380Y-70833333D01*
X53700000Y-70690476D01*
X54652380Y-69738095D02*
X54652380Y-70309523D01*
X54652380Y-70023809D02*
X53652380Y-70023809D01*
X53795238Y-70119047D01*
X53890476Y-70214285D01*
X53938095Y-70309523D01*
X61852380Y-74976190D02*
X60852380Y-74976190D01*
X60852380Y-74595238D01*
X60900000Y-74500000D01*
X60947619Y-74452380D01*
X61042857Y-74404761D01*
X61185714Y-74404761D01*
X61280952Y-74452380D01*
X61328571Y-74500000D01*
X61376190Y-74595238D01*
X61376190Y-74976190D01*
X61852380Y-73976190D02*
X61185714Y-73976190D01*
X61376190Y-73976190D02*
X61280952Y-73928571D01*
X61233333Y-73880952D01*
X61185714Y-73785714D01*
X61185714Y-73690476D01*
X61852380Y-73357142D02*
X61185714Y-73357142D01*
X60852380Y-73357142D02*
X60900000Y-73404761D01*
X60947619Y-73357142D01*
X60900000Y-73309523D01*
X60852380Y-73357142D01*
X60947619Y-73357142D01*
X61852380Y-72880952D02*
X61185714Y-72880952D01*
X61280952Y-72880952D02*
X61233333Y-72833333D01*
X61185714Y-72738095D01*
X61185714Y-72595238D01*
X61233333Y-72500000D01*
X61328571Y-72452380D01*
X61852380Y-72452380D01*
X61328571Y-72452380D02*
X61233333Y-72404761D01*
X61185714Y-72309523D01*
X61185714Y-72166666D01*
X61233333Y-72071428D01*
X61328571Y-72023809D01*
X61852380Y-72023809D01*
X61328571Y-71214285D02*
X61376190Y-71071428D01*
X61423809Y-71023809D01*
X61519047Y-70976190D01*
X61661904Y-70976190D01*
X61757142Y-71023809D01*
X61804761Y-71071428D01*
X61852380Y-71166666D01*
X61852380Y-71547619D01*
X60852380Y-71547619D01*
X60852380Y-71214285D01*
X60900000Y-71119047D01*
X60947619Y-71071428D01*
X61042857Y-71023809D01*
X61138095Y-71023809D01*
X61233333Y-71071428D01*
X61280952Y-71119047D01*
X61328571Y-71214285D01*
X61328571Y-71547619D01*
X61852380Y-70119047D02*
X61328571Y-70119047D01*
X61233333Y-70166666D01*
X61185714Y-70261904D01*
X61185714Y-70452380D01*
X61233333Y-70547619D01*
X61804761Y-70119047D02*
X61852380Y-70214285D01*
X61852380Y-70452380D01*
X61804761Y-70547619D01*
X61709523Y-70595238D01*
X61614285Y-70595238D01*
X61519047Y-70547619D01*
X61471428Y-70452380D01*
X61471428Y-70214285D01*
X61423809Y-70119047D01*
X61185714Y-69785714D02*
X61185714Y-69404761D01*
X60852380Y-69642857D02*
X61709523Y-69642857D01*
X61804761Y-69595238D01*
X61852380Y-69500000D01*
X61852380Y-69404761D01*
X61185714Y-69214285D02*
X61185714Y-68833333D01*
X60852380Y-69071428D02*
X61709523Y-69071428D01*
X61804761Y-69023809D01*
X61852380Y-68928571D01*
X61852380Y-68833333D01*
X60852380Y-68309523D02*
X60852380Y-68119047D01*
X60900000Y-68023809D01*
X60995238Y-67928571D01*
X61185714Y-67880952D01*
X61519047Y-67880952D01*
X61709523Y-67928571D01*
X61804761Y-68023809D01*
X61852380Y-68119047D01*
X61852380Y-68309523D01*
X61804761Y-68404761D01*
X61709523Y-68500000D01*
X61519047Y-68547619D01*
X61185714Y-68547619D01*
X60995238Y-68500000D01*
X60900000Y-68404761D01*
X60852380Y-68309523D01*
X61185714Y-67452380D02*
X61852380Y-67452380D01*
X61280952Y-67452380D02*
X61233333Y-67404761D01*
X61185714Y-67309523D01*
X61185714Y-67166666D01*
X61233333Y-67071428D01*
X61328571Y-67023809D01*
X61852380Y-67023809D01*
X54652380Y-104714285D02*
X53652380Y-104714285D01*
X53652380Y-104476190D01*
X53700000Y-104333333D01*
X53795238Y-104238095D01*
X53890476Y-104190476D01*
X54080952Y-104142857D01*
X54223809Y-104142857D01*
X54414285Y-104190476D01*
X54509523Y-104238095D01*
X54604761Y-104333333D01*
X54652380Y-104476190D01*
X54652380Y-104714285D01*
X54604761Y-103761904D02*
X54652380Y-103619047D01*
X54652380Y-103380952D01*
X54604761Y-103285714D01*
X54557142Y-103238095D01*
X54461904Y-103190476D01*
X54366666Y-103190476D01*
X54271428Y-103238095D01*
X54223809Y-103285714D01*
X54176190Y-103380952D01*
X54128571Y-103571428D01*
X54080952Y-103666666D01*
X54033333Y-103714285D01*
X53938095Y-103761904D01*
X53842857Y-103761904D01*
X53747619Y-103714285D01*
X53700000Y-103666666D01*
X53652380Y-103571428D01*
X53652380Y-103333333D01*
X53700000Y-103190476D01*
X53652380Y-102857142D02*
X53652380Y-102238095D01*
X54033333Y-102571428D01*
X54033333Y-102428571D01*
X54080952Y-102333333D01*
X54128571Y-102285714D01*
X54223809Y-102238095D01*
X54461904Y-102238095D01*
X54557142Y-102285714D01*
X54604761Y-102333333D01*
X54652380Y-102428571D01*
X54652380Y-102714285D01*
X54604761Y-102809523D01*
X54557142Y-102857142D01*
X54652380Y-122714285D02*
X53652380Y-122714285D01*
X53652380Y-122476190D01*
X53700000Y-122333333D01*
X53795238Y-122238095D01*
X53890476Y-122190476D01*
X54080952Y-122142857D01*
X54223809Y-122142857D01*
X54414285Y-122190476D01*
X54509523Y-122238095D01*
X54604761Y-122333333D01*
X54652380Y-122476190D01*
X54652380Y-122714285D01*
X54604761Y-121761904D02*
X54652380Y-121619047D01*
X54652380Y-121380952D01*
X54604761Y-121285714D01*
X54557142Y-121238095D01*
X54461904Y-121190476D01*
X54366666Y-121190476D01*
X54271428Y-121238095D01*
X54223809Y-121285714D01*
X54176190Y-121380952D01*
X54128571Y-121571428D01*
X54080952Y-121666666D01*
X54033333Y-121714285D01*
X53938095Y-121761904D01*
X53842857Y-121761904D01*
X53747619Y-121714285D01*
X53700000Y-121666666D01*
X53652380Y-121571428D01*
X53652380Y-121333333D01*
X53700000Y-121190476D01*
X53985714Y-120333333D02*
X54652380Y-120333333D01*
X53604761Y-120571428D02*
X54319047Y-120809523D01*
X54319047Y-120190476D01*
X129052380Y-61944285D02*
X128052380Y-61944285D01*
X128052380Y-61706190D01*
X128100000Y-61563333D01*
X128195238Y-61468095D01*
X128290476Y-61420476D01*
X128480952Y-61372857D01*
X128623809Y-61372857D01*
X128814285Y-61420476D01*
X128909523Y-61468095D01*
X129004761Y-61563333D01*
X129052380Y-61706190D01*
X129052380Y-61944285D01*
X129004761Y-60991904D02*
X129052380Y-60849047D01*
X129052380Y-60610952D01*
X129004761Y-60515714D01*
X128957142Y-60468095D01*
X128861904Y-60420476D01*
X128766666Y-60420476D01*
X128671428Y-60468095D01*
X128623809Y-60515714D01*
X128576190Y-60610952D01*
X128528571Y-60801428D01*
X128480952Y-60896666D01*
X128433333Y-60944285D01*
X128338095Y-60991904D01*
X128242857Y-60991904D01*
X128147619Y-60944285D01*
X128100000Y-60896666D01*
X128052380Y-60801428D01*
X128052380Y-60563333D01*
X128100000Y-60420476D01*
X128052380Y-59515714D02*
X128052380Y-59991904D01*
X128528571Y-60039523D01*
X128480952Y-59991904D01*
X128433333Y-59896666D01*
X128433333Y-59658571D01*
X128480952Y-59563333D01*
X128528571Y-59515714D01*
X128623809Y-59468095D01*
X128861904Y-59468095D01*
X128957142Y-59515714D01*
X129004761Y-59563333D01*
X129052380Y-59658571D01*
X129052380Y-59896666D01*
X129004761Y-59991904D01*
X128957142Y-60039523D01*
X135952380Y-63991904D02*
X134952380Y-63991904D01*
X135428571Y-63991904D02*
X135428571Y-63420476D01*
X135952380Y-63420476D02*
X134952380Y-63420476D01*
X134952380Y-62753809D02*
X134952380Y-62563333D01*
X135000000Y-62468095D01*
X135095238Y-62372857D01*
X135285714Y-62325238D01*
X135619047Y-62325238D01*
X135809523Y-62372857D01*
X135904761Y-62468095D01*
X135952380Y-62563333D01*
X135952380Y-62753809D01*
X135904761Y-62849047D01*
X135809523Y-62944285D01*
X135619047Y-62991904D01*
X135285714Y-62991904D01*
X135095238Y-62944285D01*
X135000000Y-62849047D01*
X134952380Y-62753809D01*
X135952380Y-61325238D02*
X135476190Y-61658571D01*
X135952380Y-61896666D02*
X134952380Y-61896666D01*
X134952380Y-61515714D01*
X135000000Y-61420476D01*
X135047619Y-61372857D01*
X135142857Y-61325238D01*
X135285714Y-61325238D01*
X135380952Y-61372857D01*
X135428571Y-61420476D01*
X135476190Y-61515714D01*
X135476190Y-61896666D01*
X135952380Y-60896666D02*
X134952380Y-60896666D01*
X135952380Y-60325238D01*
X134952380Y-60325238D01*
X134952380Y-58896666D02*
X134952380Y-58706190D01*
X135000000Y-58610952D01*
X135095238Y-58515714D01*
X135285714Y-58468095D01*
X135619047Y-58468095D01*
X135809523Y-58515714D01*
X135904761Y-58610952D01*
X135952380Y-58706190D01*
X135952380Y-58896666D01*
X135904761Y-58991904D01*
X135809523Y-59087142D01*
X135619047Y-59134761D01*
X135285714Y-59134761D01*
X135095238Y-59087142D01*
X135000000Y-58991904D01*
X134952380Y-58896666D01*
X135952380Y-58039523D02*
X134952380Y-58039523D01*
X135952380Y-57468095D01*
X134952380Y-57468095D01*
X129052380Y-105944285D02*
X128052380Y-105944285D01*
X128052380Y-105706190D01*
X128100000Y-105563333D01*
X128195238Y-105468095D01*
X128290476Y-105420476D01*
X128480952Y-105372857D01*
X128623809Y-105372857D01*
X128814285Y-105420476D01*
X128909523Y-105468095D01*
X129004761Y-105563333D01*
X129052380Y-105706190D01*
X129052380Y-105944285D01*
X129004761Y-104991904D02*
X129052380Y-104849047D01*
X129052380Y-104610952D01*
X129004761Y-104515714D01*
X128957142Y-104468095D01*
X128861904Y-104420476D01*
X128766666Y-104420476D01*
X128671428Y-104468095D01*
X128623809Y-104515714D01*
X128576190Y-104610952D01*
X128528571Y-104801428D01*
X128480952Y-104896666D01*
X128433333Y-104944285D01*
X128338095Y-104991904D01*
X128242857Y-104991904D01*
X128147619Y-104944285D01*
X128100000Y-104896666D01*
X128052380Y-104801428D01*
X128052380Y-104563333D01*
X128100000Y-104420476D01*
X128052380Y-104087142D02*
X128052380Y-103420476D01*
X129052380Y-103849047D01*
X135952380Y-108063333D02*
X135476190Y-108396666D01*
X135952380Y-108634761D02*
X134952380Y-108634761D01*
X134952380Y-108253809D01*
X135000000Y-108158571D01*
X135047619Y-108110952D01*
X135142857Y-108063333D01*
X135285714Y-108063333D01*
X135380952Y-108110952D01*
X135428571Y-108158571D01*
X135476190Y-108253809D01*
X135476190Y-108634761D01*
X135666666Y-107682380D02*
X135666666Y-107206190D01*
X135952380Y-107777619D02*
X134952380Y-107444285D01*
X135952380Y-107110952D01*
X135952380Y-106777619D02*
X134952380Y-106777619D01*
X134952380Y-106539523D01*
X135000000Y-106396666D01*
X135095238Y-106301428D01*
X135190476Y-106253809D01*
X135380952Y-106206190D01*
X135523809Y-106206190D01*
X135714285Y-106253809D01*
X135809523Y-106301428D01*
X135904761Y-106396666D01*
X135952380Y-106539523D01*
X135952380Y-106777619D01*
X135952380Y-105777619D02*
X134952380Y-105777619D01*
X134952380Y-105110952D02*
X134952380Y-104920476D01*
X135000000Y-104825238D01*
X135095238Y-104730000D01*
X135285714Y-104682380D01*
X135619047Y-104682380D01*
X135809523Y-104730000D01*
X135904761Y-104825238D01*
X135952380Y-104920476D01*
X135952380Y-105110952D01*
X135904761Y-105206190D01*
X135809523Y-105301428D01*
X135619047Y-105349047D01*
X135285714Y-105349047D01*
X135095238Y-105301428D01*
X135000000Y-105206190D01*
X134952380Y-105110952D01*
X135952380Y-103491904D02*
X134952380Y-103491904D01*
X134952380Y-103110952D01*
X135000000Y-103015714D01*
X135047619Y-102968095D01*
X135142857Y-102920476D01*
X135285714Y-102920476D01*
X135380952Y-102968095D01*
X135428571Y-103015714D01*
X135476190Y-103110952D01*
X135476190Y-103491904D01*
X134952380Y-102587142D02*
X135952380Y-102349047D01*
X135238095Y-102158571D01*
X135952380Y-101968095D01*
X134952380Y-101730000D01*
X135952380Y-100777619D02*
X135476190Y-101110952D01*
X135952380Y-101349047D02*
X134952380Y-101349047D01*
X134952380Y-100968095D01*
X135000000Y-100872857D01*
X135047619Y-100825238D01*
X135142857Y-100777619D01*
X135285714Y-100777619D01*
X135380952Y-100825238D01*
X135428571Y-100872857D01*
X135476190Y-100968095D01*
X135476190Y-101349047D01*
X129052380Y-127944285D02*
X128052380Y-127944285D01*
X128052380Y-127706190D01*
X128100000Y-127563333D01*
X128195238Y-127468095D01*
X128290476Y-127420476D01*
X128480952Y-127372857D01*
X128623809Y-127372857D01*
X128814285Y-127420476D01*
X128909523Y-127468095D01*
X129004761Y-127563333D01*
X129052380Y-127706190D01*
X129052380Y-127944285D01*
X129004761Y-126991904D02*
X129052380Y-126849047D01*
X129052380Y-126610952D01*
X129004761Y-126515714D01*
X128957142Y-126468095D01*
X128861904Y-126420476D01*
X128766666Y-126420476D01*
X128671428Y-126468095D01*
X128623809Y-126515714D01*
X128576190Y-126610952D01*
X128528571Y-126801428D01*
X128480952Y-126896666D01*
X128433333Y-126944285D01*
X128338095Y-126991904D01*
X128242857Y-126991904D01*
X128147619Y-126944285D01*
X128100000Y-126896666D01*
X128052380Y-126801428D01*
X128052380Y-126563333D01*
X128100000Y-126420476D01*
X128480952Y-125849047D02*
X128433333Y-125944285D01*
X128385714Y-125991904D01*
X128290476Y-126039523D01*
X128242857Y-126039523D01*
X128147619Y-125991904D01*
X128100000Y-125944285D01*
X128052380Y-125849047D01*
X128052380Y-125658571D01*
X128100000Y-125563333D01*
X128147619Y-125515714D01*
X128242857Y-125468095D01*
X128290476Y-125468095D01*
X128385714Y-125515714D01*
X128433333Y-125563333D01*
X128480952Y-125658571D01*
X128480952Y-125849047D01*
X128528571Y-125944285D01*
X128576190Y-125991904D01*
X128671428Y-126039523D01*
X128861904Y-126039523D01*
X128957142Y-125991904D01*
X129004761Y-125944285D01*
X129052380Y-125849047D01*
X129052380Y-125658571D01*
X129004761Y-125563333D01*
X128957142Y-125515714D01*
X128861904Y-125468095D01*
X128671428Y-125468095D01*
X128576190Y-125515714D01*
X128528571Y-125563333D01*
X128480952Y-125658571D01*
X135428571Y-129587142D02*
X135476190Y-129444285D01*
X135523809Y-129396666D01*
X135619047Y-129349047D01*
X135761904Y-129349047D01*
X135857142Y-129396666D01*
X135904761Y-129444285D01*
X135952380Y-129539523D01*
X135952380Y-129920476D01*
X134952380Y-129920476D01*
X134952380Y-129587142D01*
X135000000Y-129491904D01*
X135047619Y-129444285D01*
X135142857Y-129396666D01*
X135238095Y-129396666D01*
X135333333Y-129444285D01*
X135380952Y-129491904D01*
X135428571Y-129587142D01*
X135428571Y-129920476D01*
X135952380Y-128920476D02*
X134952380Y-128920476D01*
X134952380Y-128539523D01*
X135000000Y-128444285D01*
X135047619Y-128396666D01*
X135142857Y-128349047D01*
X135285714Y-128349047D01*
X135380952Y-128396666D01*
X135428571Y-128444285D01*
X135476190Y-128539523D01*
X135476190Y-128920476D01*
X135904761Y-127968095D02*
X135952380Y-127825238D01*
X135952380Y-127587142D01*
X135904761Y-127491904D01*
X135857142Y-127444285D01*
X135761904Y-127396666D01*
X135666666Y-127396666D01*
X135571428Y-127444285D01*
X135523809Y-127491904D01*
X135476190Y-127587142D01*
X135428571Y-127777619D01*
X135380952Y-127872857D01*
X135333333Y-127920476D01*
X135238095Y-127968095D01*
X135142857Y-127968095D01*
X135047619Y-127920476D01*
X135000000Y-127872857D01*
X134952380Y-127777619D01*
X134952380Y-127539523D01*
X135000000Y-127396666D01*
X135952380Y-126206190D02*
X134952380Y-126206190D01*
X134952380Y-125825238D01*
X135000000Y-125730000D01*
X135047619Y-125682380D01*
X135142857Y-125634761D01*
X135285714Y-125634761D01*
X135380952Y-125682380D01*
X135428571Y-125730000D01*
X135476190Y-125825238D01*
X135476190Y-126206190D01*
X134952380Y-125301428D02*
X135952380Y-125063333D01*
X135238095Y-124872857D01*
X135952380Y-124682380D01*
X134952380Y-124444285D01*
X135952380Y-123491904D02*
X135476190Y-123825238D01*
X135952380Y-124063333D02*
X134952380Y-124063333D01*
X134952380Y-123682380D01*
X135000000Y-123587142D01*
X135047619Y-123539523D01*
X135142857Y-123491904D01*
X135285714Y-123491904D01*
X135380952Y-123539523D01*
X135428571Y-123587142D01*
X135476190Y-123682380D01*
X135476190Y-124063333D01*
X78126666Y-50258571D02*
X77793333Y-50258571D01*
X77793333Y-50782380D02*
X77793333Y-49782380D01*
X78269523Y-49782380D01*
X79174285Y-50782380D02*
X78602857Y-50782380D01*
X78888571Y-50782380D02*
X78888571Y-49782380D01*
X78793333Y-49925238D01*
X78698095Y-50020476D01*
X78602857Y-50068095D01*
X75095238Y-58952380D02*
X75761904Y-58952380D01*
X75333333Y-59952380D01*
X76142857Y-59857142D02*
X76190476Y-59904761D01*
X76142857Y-59952380D01*
X76095238Y-59904761D01*
X76142857Y-59857142D01*
X76142857Y-59952380D01*
X77095238Y-58952380D02*
X76619047Y-58952380D01*
X76571428Y-59428571D01*
X76619047Y-59380952D01*
X76714285Y-59333333D01*
X76952380Y-59333333D01*
X77047619Y-59380952D01*
X77095238Y-59428571D01*
X77142857Y-59523809D01*
X77142857Y-59761904D01*
X77095238Y-59857142D01*
X77047619Y-59904761D01*
X76952380Y-59952380D01*
X76714285Y-59952380D01*
X76619047Y-59904761D01*
X76571428Y-59857142D01*
X78285714Y-59666666D02*
X78761904Y-59666666D01*
X78190476Y-59952380D02*
X78523809Y-58952380D01*
X78857142Y-59952380D01*
X79190476Y-59952380D02*
X79190476Y-58952380D01*
X79523809Y-59666666D01*
X79857142Y-58952380D01*
X79857142Y-59952380D01*
X80333333Y-59952380D02*
X80333333Y-58952380D01*
X80714285Y-58952380D01*
X80809523Y-59000000D01*
X80857142Y-59047619D01*
X80904761Y-59142857D01*
X80904761Y-59285714D01*
X80857142Y-59380952D01*
X80809523Y-59428571D01*
X80714285Y-59476190D01*
X80333333Y-59476190D01*
X81285714Y-59904761D02*
X81428571Y-59952380D01*
X81666666Y-59952380D01*
X81761904Y-59904761D01*
X81809523Y-59857142D01*
X81857142Y-59761904D01*
X81857142Y-59666666D01*
X81809523Y-59571428D01*
X81761904Y-59523809D01*
X81666666Y-59476190D01*
X81476190Y-59428571D01*
X81380952Y-59380952D01*
X81333333Y-59333333D01*
X81285714Y-59238095D01*
X81285714Y-59142857D01*
X81333333Y-59047619D01*
X81380952Y-59000000D01*
X81476190Y-58952380D01*
X81714285Y-58952380D01*
X81857142Y-59000000D01*
X78166666Y-72428571D02*
X77833333Y-72428571D01*
X77833333Y-72952380D02*
X77833333Y-71952380D01*
X78309523Y-71952380D01*
X78642857Y-72047619D02*
X78690476Y-72000000D01*
X78785714Y-71952380D01*
X79023809Y-71952380D01*
X79119047Y-72000000D01*
X79166666Y-72047619D01*
X79214285Y-72142857D01*
X79214285Y-72238095D01*
X79166666Y-72380952D01*
X78595238Y-72952380D01*
X79214285Y-72952380D01*
X76380952Y-80952380D02*
X75904761Y-80952380D01*
X75857142Y-81428571D01*
X75904761Y-81380952D01*
X76000000Y-81333333D01*
X76238095Y-81333333D01*
X76333333Y-81380952D01*
X76380952Y-81428571D01*
X76428571Y-81523809D01*
X76428571Y-81761904D01*
X76380952Y-81857142D01*
X76333333Y-81904761D01*
X76238095Y-81952380D01*
X76000000Y-81952380D01*
X75904761Y-81904761D01*
X75857142Y-81857142D01*
X77571428Y-81666666D02*
X78047619Y-81666666D01*
X77476190Y-81952380D02*
X77809523Y-80952380D01*
X78142857Y-81952380D01*
X78476190Y-81952380D02*
X78476190Y-80952380D01*
X78809523Y-81666666D01*
X79142857Y-80952380D01*
X79142857Y-81952380D01*
X79619047Y-81952380D02*
X79619047Y-80952380D01*
X80000000Y-80952380D01*
X80095238Y-81000000D01*
X80142857Y-81047619D01*
X80190476Y-81142857D01*
X80190476Y-81285714D01*
X80142857Y-81380952D01*
X80095238Y-81428571D01*
X80000000Y-81476190D01*
X79619047Y-81476190D01*
X80571428Y-81904761D02*
X80714285Y-81952380D01*
X80952380Y-81952380D01*
X81047619Y-81904761D01*
X81095238Y-81857142D01*
X81142857Y-81761904D01*
X81142857Y-81666666D01*
X81095238Y-81571428D01*
X81047619Y-81523809D01*
X80952380Y-81476190D01*
X80761904Y-81428571D01*
X80666666Y-81380952D01*
X80619047Y-81333333D01*
X80571428Y-81238095D01*
X80571428Y-81142857D01*
X80619047Y-81047619D01*
X80666666Y-81000000D01*
X80761904Y-80952380D01*
X81000000Y-80952380D01*
X81142857Y-81000000D01*
X78166666Y-94428571D02*
X77833333Y-94428571D01*
X77833333Y-94952380D02*
X77833333Y-93952380D01*
X78309523Y-93952380D01*
X78595238Y-93952380D02*
X79214285Y-93952380D01*
X78880952Y-94333333D01*
X79023809Y-94333333D01*
X79119047Y-94380952D01*
X79166666Y-94428571D01*
X79214285Y-94523809D01*
X79214285Y-94761904D01*
X79166666Y-94857142D01*
X79119047Y-94904761D01*
X79023809Y-94952380D01*
X78738095Y-94952380D01*
X78642857Y-94904761D01*
X78595238Y-94857142D01*
X76293333Y-103047619D02*
X76340952Y-103000000D01*
X76436190Y-102952380D01*
X76674285Y-102952380D01*
X76769523Y-103000000D01*
X76817142Y-103047619D01*
X76864761Y-103142857D01*
X76864761Y-103238095D01*
X76817142Y-103380952D01*
X76245714Y-103952380D01*
X76864761Y-103952380D01*
X78007619Y-103666666D02*
X78483809Y-103666666D01*
X77912380Y-103952380D02*
X78245714Y-102952380D01*
X78579047Y-103952380D01*
X78912380Y-103952380D02*
X78912380Y-102952380D01*
X79245714Y-103666666D01*
X79579047Y-102952380D01*
X79579047Y-103952380D01*
X80055238Y-103952380D02*
X80055238Y-102952380D01*
X80436190Y-102952380D01*
X80531428Y-103000000D01*
X80579047Y-103047619D01*
X80626666Y-103142857D01*
X80626666Y-103285714D01*
X80579047Y-103380952D01*
X80531428Y-103428571D01*
X80436190Y-103476190D01*
X80055238Y-103476190D01*
X78126666Y-116428571D02*
X77793333Y-116428571D01*
X77793333Y-116952380D02*
X77793333Y-115952380D01*
X78269523Y-115952380D01*
X79079047Y-116285714D02*
X79079047Y-116952380D01*
X78840952Y-115904761D02*
X78602857Y-116619047D01*
X79221904Y-116619047D01*
X76380952Y-124952380D02*
X75904761Y-124952380D01*
X75857142Y-125428571D01*
X75904761Y-125380952D01*
X76000000Y-125333333D01*
X76238095Y-125333333D01*
X76333333Y-125380952D01*
X76380952Y-125428571D01*
X76428571Y-125523809D01*
X76428571Y-125761904D01*
X76380952Y-125857142D01*
X76333333Y-125904761D01*
X76238095Y-125952380D01*
X76000000Y-125952380D01*
X75904761Y-125904761D01*
X75857142Y-125857142D01*
X77571428Y-125666666D02*
X78047619Y-125666666D01*
X77476190Y-125952380D02*
X77809523Y-124952380D01*
X78142857Y-125952380D01*
X78476190Y-125952380D02*
X78476190Y-124952380D01*
X78809523Y-125666666D01*
X79142857Y-124952380D01*
X79142857Y-125952380D01*
X79619047Y-125952380D02*
X79619047Y-124952380D01*
X80000000Y-124952380D01*
X80095238Y-125000000D01*
X80142857Y-125047619D01*
X80190476Y-125142857D01*
X80190476Y-125285714D01*
X80142857Y-125380952D01*
X80095238Y-125428571D01*
X80000000Y-125476190D01*
X79619047Y-125476190D01*
X80571428Y-125904761D02*
X80714285Y-125952380D01*
X80952380Y-125952380D01*
X81047619Y-125904761D01*
X81095238Y-125857142D01*
X81142857Y-125761904D01*
X81142857Y-125666666D01*
X81095238Y-125571428D01*
X81047619Y-125523809D01*
X80952380Y-125476190D01*
X80761904Y-125428571D01*
X80666666Y-125380952D01*
X80619047Y-125333333D01*
X80571428Y-125238095D01*
X80571428Y-125142857D01*
X80619047Y-125047619D01*
X80666666Y-125000000D01*
X80761904Y-124952380D01*
X81000000Y-124952380D01*
X81142857Y-125000000D01*
X46952380Y-100833333D02*
X47666666Y-100833333D01*
X47809523Y-100880952D01*
X47904761Y-100976190D01*
X47952380Y-101119047D01*
X47952380Y-101214285D01*
X47047619Y-100404761D02*
X47000000Y-100357142D01*
X46952380Y-100261904D01*
X46952380Y-100023809D01*
X47000000Y-99928571D01*
X47047619Y-99880952D01*
X47142857Y-99833333D01*
X47238095Y-99833333D01*
X47380952Y-99880952D01*
X47952380Y-100452380D01*
X47952380Y-99833333D01*
X36928571Y-104619047D02*
X36976190Y-104476190D01*
X37023809Y-104428571D01*
X37119047Y-104380952D01*
X37261904Y-104380952D01*
X37357142Y-104428571D01*
X37404761Y-104476190D01*
X37452380Y-104571428D01*
X37452380Y-104952380D01*
X36452380Y-104952380D01*
X36452380Y-104619047D01*
X36500000Y-104523809D01*
X36547619Y-104476190D01*
X36642857Y-104428571D01*
X36738095Y-104428571D01*
X36833333Y-104476190D01*
X36880952Y-104523809D01*
X36928571Y-104619047D01*
X36928571Y-104952380D01*
X37452380Y-103952380D02*
X36452380Y-103952380D01*
X36452380Y-103571428D01*
X36500000Y-103476190D01*
X36547619Y-103428571D01*
X36642857Y-103380952D01*
X36785714Y-103380952D01*
X36880952Y-103428571D01*
X36928571Y-103476190D01*
X36976190Y-103571428D01*
X36976190Y-103952380D01*
X37404761Y-103000000D02*
X37452380Y-102857142D01*
X37452380Y-102619047D01*
X37404761Y-102523809D01*
X37357142Y-102476190D01*
X37261904Y-102428571D01*
X37166666Y-102428571D01*
X37071428Y-102476190D01*
X37023809Y-102523809D01*
X36976190Y-102619047D01*
X36928571Y-102809523D01*
X36880952Y-102904761D01*
X36833333Y-102952380D01*
X36738095Y-103000000D01*
X36642857Y-103000000D01*
X36547619Y-102952380D01*
X36500000Y-102904761D01*
X36452380Y-102809523D01*
X36452380Y-102571428D01*
X36500000Y-102428571D01*
X37404761Y-101285714D02*
X37452380Y-101142857D01*
X37452380Y-100904761D01*
X37404761Y-100809523D01*
X37357142Y-100761904D01*
X37261904Y-100714285D01*
X37166666Y-100714285D01*
X37071428Y-100761904D01*
X37023809Y-100809523D01*
X36976190Y-100904761D01*
X36928571Y-101095238D01*
X36880952Y-101190476D01*
X36833333Y-101238095D01*
X36738095Y-101285714D01*
X36642857Y-101285714D01*
X36547619Y-101238095D01*
X36500000Y-101190476D01*
X36452380Y-101095238D01*
X36452380Y-100857142D01*
X36500000Y-100714285D01*
X36452380Y-100285714D02*
X37261904Y-100285714D01*
X37357142Y-100238095D01*
X37404761Y-100190476D01*
X37452380Y-100095238D01*
X37452380Y-99904761D01*
X37404761Y-99809523D01*
X37357142Y-99761904D01*
X37261904Y-99714285D01*
X36452380Y-99714285D01*
X37452380Y-99238095D02*
X36452380Y-99238095D01*
X36452380Y-98857142D01*
X36500000Y-98761904D01*
X36547619Y-98714285D01*
X36642857Y-98666666D01*
X36785714Y-98666666D01*
X36880952Y-98714285D01*
X36928571Y-98761904D01*
X36976190Y-98857142D01*
X36976190Y-99238095D01*
X37452380Y-98238095D02*
X36452380Y-98238095D01*
X36452380Y-97857142D01*
X36500000Y-97761904D01*
X36547619Y-97714285D01*
X36642857Y-97666666D01*
X36785714Y-97666666D01*
X36880952Y-97714285D01*
X36928571Y-97761904D01*
X36976190Y-97857142D01*
X36976190Y-98238095D01*
X37452380Y-96761904D02*
X37452380Y-97238095D01*
X36452380Y-97238095D01*
X36976190Y-96238095D02*
X37452380Y-96238095D01*
X36452380Y-96571428D02*
X36976190Y-96238095D01*
X36452380Y-95904761D01*
X46952380Y-118833333D02*
X47666666Y-118833333D01*
X47809523Y-118880952D01*
X47904761Y-118976190D01*
X47952380Y-119119047D01*
X47952380Y-119214285D01*
X47285714Y-117928571D02*
X47952380Y-117928571D01*
X46904761Y-118166666D02*
X47619047Y-118404761D01*
X47619047Y-117785714D01*
X36452380Y-122500000D02*
X37166666Y-122500000D01*
X37309523Y-122547619D01*
X37404761Y-122642857D01*
X37452380Y-122785714D01*
X37452380Y-122880952D01*
X36452380Y-122023809D02*
X37261904Y-122023809D01*
X37357142Y-121976190D01*
X37404761Y-121928571D01*
X37452380Y-121833333D01*
X37452380Y-121642857D01*
X37404761Y-121547619D01*
X37357142Y-121500000D01*
X37261904Y-121452380D01*
X36452380Y-121452380D01*
X37452380Y-120976190D02*
X36452380Y-120976190D01*
X37166666Y-120642857D01*
X36452380Y-120309523D01*
X37452380Y-120309523D01*
X37452380Y-119833333D02*
X36452380Y-119833333D01*
X36452380Y-119452380D01*
X36500000Y-119357142D01*
X36547619Y-119309523D01*
X36642857Y-119261904D01*
X36785714Y-119261904D01*
X36880952Y-119309523D01*
X36928571Y-119357142D01*
X36976190Y-119452380D01*
X36976190Y-119833333D01*
X37404761Y-118119047D02*
X37452380Y-117976190D01*
X37452380Y-117738095D01*
X37404761Y-117642857D01*
X37357142Y-117595238D01*
X37261904Y-117547619D01*
X37166666Y-117547619D01*
X37071428Y-117595238D01*
X37023809Y-117642857D01*
X36976190Y-117738095D01*
X36928571Y-117928571D01*
X36880952Y-118023809D01*
X36833333Y-118071428D01*
X36738095Y-118119047D01*
X36642857Y-118119047D01*
X36547619Y-118071428D01*
X36500000Y-118023809D01*
X36452380Y-117928571D01*
X36452380Y-117690476D01*
X36500000Y-117547619D01*
X36452380Y-117261904D02*
X36452380Y-116690476D01*
X37452380Y-116976190D02*
X36452380Y-116976190D01*
X37166666Y-116404761D02*
X37166666Y-115928571D01*
X37452380Y-116500000D02*
X36452380Y-116166666D01*
X37452380Y-115833333D01*
X37452380Y-114928571D02*
X36976190Y-115261904D01*
X37452380Y-115500000D02*
X36452380Y-115500000D01*
X36452380Y-115119047D01*
X36500000Y-115023809D01*
X36547619Y-114976190D01*
X36642857Y-114928571D01*
X36785714Y-114928571D01*
X36880952Y-114976190D01*
X36928571Y-115023809D01*
X36976190Y-115119047D01*
X36976190Y-115500000D01*
X36452380Y-114642857D02*
X36452380Y-114071428D01*
X37452380Y-114357142D02*
X36452380Y-114357142D01*
X46952380Y-154833333D02*
X47666666Y-154833333D01*
X47809523Y-154880952D01*
X47904761Y-154976190D01*
X47952380Y-155119047D01*
X47952380Y-155214285D01*
X46952380Y-153928571D02*
X46952380Y-154119047D01*
X47000000Y-154214285D01*
X47047619Y-154261904D01*
X47190476Y-154357142D01*
X47380952Y-154404761D01*
X47761904Y-154404761D01*
X47857142Y-154357142D01*
X47904761Y-154309523D01*
X47952380Y-154214285D01*
X47952380Y-154023809D01*
X47904761Y-153928571D01*
X47857142Y-153880952D01*
X47761904Y-153833333D01*
X47523809Y-153833333D01*
X47428571Y-153880952D01*
X47380952Y-153928571D01*
X47333333Y-154023809D01*
X47333333Y-154214285D01*
X47380952Y-154309523D01*
X47428571Y-154357142D01*
X47523809Y-154404761D01*
X37452380Y-159619047D02*
X36452380Y-159619047D01*
X36452380Y-159380952D01*
X36500000Y-159238095D01*
X36595238Y-159142857D01*
X36690476Y-159095238D01*
X36880952Y-159047619D01*
X37023809Y-159047619D01*
X37214285Y-159095238D01*
X37309523Y-159142857D01*
X37404761Y-159238095D01*
X37452380Y-159380952D01*
X37452380Y-159619047D01*
X37452380Y-158047619D02*
X36976190Y-158380952D01*
X37452380Y-158619047D02*
X36452380Y-158619047D01*
X36452380Y-158238095D01*
X36500000Y-158142857D01*
X36547619Y-158095238D01*
X36642857Y-158047619D01*
X36785714Y-158047619D01*
X36880952Y-158095238D01*
X36928571Y-158142857D01*
X36976190Y-158238095D01*
X36976190Y-158619047D01*
X36452380Y-157761904D02*
X37452380Y-157428571D01*
X36452380Y-157095238D01*
X36928571Y-155666666D02*
X36928571Y-156000000D01*
X37452380Y-156000000D02*
X36452380Y-156000000D01*
X36452380Y-155523809D01*
X37166666Y-155190476D02*
X37166666Y-154714285D01*
X37452380Y-155285714D02*
X36452380Y-154952380D01*
X37452380Y-154619047D01*
X37452380Y-154285714D02*
X36452380Y-154285714D01*
X37452380Y-153714285D01*
X36452380Y-153714285D01*
X37357142Y-151904761D02*
X37404761Y-151952380D01*
X37452380Y-152095238D01*
X37452380Y-152190476D01*
X37404761Y-152333333D01*
X37309523Y-152428571D01*
X37214285Y-152476190D01*
X37023809Y-152523809D01*
X36880952Y-152523809D01*
X36690476Y-152476190D01*
X36595238Y-152428571D01*
X36500000Y-152333333D01*
X36452380Y-152190476D01*
X36452380Y-152095238D01*
X36500000Y-151952380D01*
X36547619Y-151904761D01*
X36452380Y-151619047D02*
X36452380Y-151047619D01*
X37452380Y-151333333D02*
X36452380Y-151333333D01*
X37452380Y-150142857D02*
X36976190Y-150476190D01*
X37452380Y-150714285D02*
X36452380Y-150714285D01*
X36452380Y-150333333D01*
X36500000Y-150238095D01*
X36547619Y-150190476D01*
X36642857Y-150142857D01*
X36785714Y-150142857D01*
X36880952Y-150190476D01*
X36928571Y-150238095D01*
X36976190Y-150333333D01*
X36976190Y-150714285D01*
X37452380Y-149238095D02*
X37452380Y-149714285D01*
X36452380Y-149714285D01*
X141452380Y-59833333D02*
X142166666Y-59833333D01*
X142309523Y-59880952D01*
X142404761Y-59976190D01*
X142452380Y-60119047D01*
X142452380Y-60214285D01*
X141452380Y-59452380D02*
X141452380Y-58785714D01*
X142452380Y-59214285D01*
X152452380Y-63944285D02*
X151452380Y-63944285D01*
X151928571Y-63944285D02*
X151928571Y-63372857D01*
X152452380Y-63372857D02*
X151452380Y-63372857D01*
X151452380Y-62706190D02*
X151452380Y-62515714D01*
X151500000Y-62420476D01*
X151595238Y-62325238D01*
X151785714Y-62277619D01*
X152119047Y-62277619D01*
X152309523Y-62325238D01*
X152404761Y-62420476D01*
X152452380Y-62515714D01*
X152452380Y-62706190D01*
X152404761Y-62801428D01*
X152309523Y-62896666D01*
X152119047Y-62944285D01*
X151785714Y-62944285D01*
X151595238Y-62896666D01*
X151500000Y-62801428D01*
X151452380Y-62706190D01*
X152452380Y-61277619D02*
X151976190Y-61610952D01*
X152452380Y-61849047D02*
X151452380Y-61849047D01*
X151452380Y-61468095D01*
X151500000Y-61372857D01*
X151547619Y-61325238D01*
X151642857Y-61277619D01*
X151785714Y-61277619D01*
X151880952Y-61325238D01*
X151928571Y-61372857D01*
X151976190Y-61468095D01*
X151976190Y-61849047D01*
X152452380Y-60849047D02*
X151452380Y-60849047D01*
X152452380Y-60277619D01*
X151452380Y-60277619D01*
X152071428Y-59039523D02*
X152071428Y-58277619D01*
X152452380Y-58658571D02*
X151690476Y-58658571D01*
X152452380Y-57277619D02*
X152452380Y-57849047D01*
X152452380Y-57563333D02*
X151452380Y-57563333D01*
X151595238Y-57658571D01*
X151690476Y-57753809D01*
X151738095Y-57849047D01*
X151547619Y-56896666D02*
X151500000Y-56849047D01*
X151452380Y-56753809D01*
X151452380Y-56515714D01*
X151500000Y-56420476D01*
X151547619Y-56372857D01*
X151642857Y-56325238D01*
X151738095Y-56325238D01*
X151880952Y-56372857D01*
X152452380Y-56944285D01*
X152452380Y-56325238D01*
X151452380Y-56039523D02*
X152452380Y-55706190D01*
X151452380Y-55372857D01*
X141452380Y-82063333D02*
X142166666Y-82063333D01*
X142309523Y-82110952D01*
X142404761Y-82206190D01*
X142452380Y-82349047D01*
X142452380Y-82444285D01*
X141880952Y-81444285D02*
X141833333Y-81539523D01*
X141785714Y-81587142D01*
X141690476Y-81634761D01*
X141642857Y-81634761D01*
X141547619Y-81587142D01*
X141500000Y-81539523D01*
X141452380Y-81444285D01*
X141452380Y-81253809D01*
X141500000Y-81158571D01*
X141547619Y-81110952D01*
X141642857Y-81063333D01*
X141690476Y-81063333D01*
X141785714Y-81110952D01*
X141833333Y-81158571D01*
X141880952Y-81253809D01*
X141880952Y-81444285D01*
X141928571Y-81539523D01*
X141976190Y-81587142D01*
X142071428Y-81634761D01*
X142261904Y-81634761D01*
X142357142Y-81587142D01*
X142404761Y-81539523D01*
X142452380Y-81444285D01*
X142452380Y-81253809D01*
X142404761Y-81158571D01*
X142357142Y-81110952D01*
X142261904Y-81063333D01*
X142071428Y-81063333D01*
X141976190Y-81110952D01*
X141928571Y-81158571D01*
X141880952Y-81253809D01*
X152452380Y-88253809D02*
X151452380Y-88253809D01*
X151452380Y-88015714D01*
X151500000Y-87872857D01*
X151595238Y-87777619D01*
X151690476Y-87730000D01*
X151880952Y-87682380D01*
X152023809Y-87682380D01*
X152214285Y-87730000D01*
X152309523Y-87777619D01*
X152404761Y-87872857D01*
X152452380Y-88015714D01*
X152452380Y-88253809D01*
X152452380Y-86682380D02*
X151976190Y-87015714D01*
X152452380Y-87253809D02*
X151452380Y-87253809D01*
X151452380Y-86872857D01*
X151500000Y-86777619D01*
X151547619Y-86730000D01*
X151642857Y-86682380D01*
X151785714Y-86682380D01*
X151880952Y-86730000D01*
X151928571Y-86777619D01*
X151976190Y-86872857D01*
X151976190Y-87253809D01*
X152452380Y-86253809D02*
X151452380Y-86253809D01*
X151452380Y-85920476D02*
X152452380Y-85587142D01*
X151452380Y-85253809D01*
X151928571Y-84920476D02*
X151928571Y-84587142D01*
X152452380Y-84444285D02*
X152452380Y-84920476D01*
X151452380Y-84920476D01*
X151452380Y-84444285D01*
X152452380Y-83444285D02*
X151976190Y-83777619D01*
X152452380Y-84015714D02*
X151452380Y-84015714D01*
X151452380Y-83634761D01*
X151500000Y-83539523D01*
X151547619Y-83491904D01*
X151642857Y-83444285D01*
X151785714Y-83444285D01*
X151880952Y-83491904D01*
X151928571Y-83539523D01*
X151976190Y-83634761D01*
X151976190Y-84015714D01*
X151928571Y-81920476D02*
X151928571Y-82253809D01*
X152452380Y-82253809D02*
X151452380Y-82253809D01*
X151452380Y-81777619D01*
X152166666Y-81444285D02*
X152166666Y-80968095D01*
X152452380Y-81539523D02*
X151452380Y-81206190D01*
X152452380Y-80872857D01*
X152452380Y-80539523D02*
X151452380Y-80539523D01*
X152452380Y-79968095D01*
X151452380Y-79968095D01*
X152071428Y-78730000D02*
X152071428Y-77968095D01*
X152452380Y-78349047D02*
X151690476Y-78349047D01*
X152452380Y-76968095D02*
X152452380Y-77539523D01*
X152452380Y-77253809D02*
X151452380Y-77253809D01*
X151595238Y-77349047D01*
X151690476Y-77444285D01*
X151738095Y-77539523D01*
X151547619Y-76587142D02*
X151500000Y-76539523D01*
X151452380Y-76444285D01*
X151452380Y-76206190D01*
X151500000Y-76110952D01*
X151547619Y-76063333D01*
X151642857Y-76015714D01*
X151738095Y-76015714D01*
X151880952Y-76063333D01*
X152452380Y-76634761D01*
X152452380Y-76015714D01*
X151452380Y-75730000D02*
X152452380Y-75396666D01*
X151452380Y-75063333D01*
X141402380Y-103833333D02*
X142116666Y-103833333D01*
X142259523Y-103880952D01*
X142354761Y-103976190D01*
X142402380Y-104119047D01*
X142402380Y-104214285D01*
X142402380Y-103309523D02*
X142402380Y-103119047D01*
X142354761Y-103023809D01*
X142307142Y-102976190D01*
X142164285Y-102880952D01*
X141973809Y-102833333D01*
X141592857Y-102833333D01*
X141497619Y-102880952D01*
X141450000Y-102928571D01*
X141402380Y-103023809D01*
X141402380Y-103214285D01*
X141450000Y-103309523D01*
X141497619Y-103357142D01*
X141592857Y-103404761D01*
X141830952Y-103404761D01*
X141926190Y-103357142D01*
X141973809Y-103309523D01*
X142021428Y-103214285D01*
X142021428Y-103023809D01*
X141973809Y-102928571D01*
X141926190Y-102880952D01*
X141830952Y-102833333D01*
X152402380Y-107968095D02*
X151926190Y-108301428D01*
X152402380Y-108539523D02*
X151402380Y-108539523D01*
X151402380Y-108158571D01*
X151450000Y-108063333D01*
X151497619Y-108015714D01*
X151592857Y-107968095D01*
X151735714Y-107968095D01*
X151830952Y-108015714D01*
X151878571Y-108063333D01*
X151926190Y-108158571D01*
X151926190Y-108539523D01*
X152116666Y-107587142D02*
X152116666Y-107110952D01*
X152402380Y-107682380D02*
X151402380Y-107349047D01*
X152402380Y-107015714D01*
X152402380Y-106682380D02*
X151402380Y-106682380D01*
X151402380Y-106444285D01*
X151450000Y-106301428D01*
X151545238Y-106206190D01*
X151640476Y-106158571D01*
X151830952Y-106110952D01*
X151973809Y-106110952D01*
X152164285Y-106158571D01*
X152259523Y-106206190D01*
X152354761Y-106301428D01*
X152402380Y-106444285D01*
X152402380Y-106682380D01*
X152402380Y-105682380D02*
X151402380Y-105682380D01*
X151402380Y-105015714D02*
X151402380Y-104825238D01*
X151450000Y-104730000D01*
X151545238Y-104634761D01*
X151735714Y-104587142D01*
X152069047Y-104587142D01*
X152259523Y-104634761D01*
X152354761Y-104730000D01*
X152402380Y-104825238D01*
X152402380Y-105015714D01*
X152354761Y-105110952D01*
X152259523Y-105206190D01*
X152069047Y-105253809D01*
X151735714Y-105253809D01*
X151545238Y-105206190D01*
X151450000Y-105110952D01*
X151402380Y-105015714D01*
X152354761Y-104206190D02*
X152402380Y-104063333D01*
X152402380Y-103825238D01*
X152354761Y-103730000D01*
X152307142Y-103682380D01*
X152211904Y-103634761D01*
X152116666Y-103634761D01*
X152021428Y-103682380D01*
X151973809Y-103730000D01*
X151926190Y-103825238D01*
X151878571Y-104015714D01*
X151830952Y-104110952D01*
X151783333Y-104158571D01*
X151688095Y-104206190D01*
X151592857Y-104206190D01*
X151497619Y-104158571D01*
X151450000Y-104110952D01*
X151402380Y-104015714D01*
X151402380Y-103777619D01*
X151450000Y-103634761D01*
X152021428Y-102444285D02*
X152021428Y-101682380D01*
X152402380Y-102063333D02*
X151640476Y-102063333D01*
X152402380Y-100682380D02*
X152402380Y-101253809D01*
X152402380Y-100968095D02*
X151402380Y-100968095D01*
X151545238Y-101063333D01*
X151640476Y-101158571D01*
X151688095Y-101253809D01*
X151497619Y-100301428D02*
X151450000Y-100253809D01*
X151402380Y-100158571D01*
X151402380Y-99920476D01*
X151450000Y-99825238D01*
X151497619Y-99777619D01*
X151592857Y-99730000D01*
X151688095Y-99730000D01*
X151830952Y-99777619D01*
X152402380Y-100349047D01*
X152402380Y-99730000D01*
X151402380Y-99444285D02*
X152402380Y-99110952D01*
X151402380Y-98777619D01*
X141452380Y-126309523D02*
X142166666Y-126309523D01*
X142309523Y-126357142D01*
X142404761Y-126452380D01*
X142452380Y-126595238D01*
X142452380Y-126690476D01*
X142452380Y-125309523D02*
X142452380Y-125880952D01*
X142452380Y-125595238D02*
X141452380Y-125595238D01*
X141595238Y-125690476D01*
X141690476Y-125785714D01*
X141738095Y-125880952D01*
X141452380Y-124690476D02*
X141452380Y-124595238D01*
X141500000Y-124500000D01*
X141547619Y-124452380D01*
X141642857Y-124404761D01*
X141833333Y-124357142D01*
X142071428Y-124357142D01*
X142261904Y-124404761D01*
X142357142Y-124452380D01*
X142404761Y-124500000D01*
X142452380Y-124595238D01*
X142452380Y-124690476D01*
X142404761Y-124785714D01*
X142357142Y-124833333D01*
X142261904Y-124880952D01*
X142071428Y-124928571D01*
X141833333Y-124928571D01*
X141642857Y-124880952D01*
X141547619Y-124833333D01*
X141500000Y-124785714D01*
X141452380Y-124690476D01*
X151928571Y-128785714D02*
X151976190Y-128642857D01*
X152023809Y-128595238D01*
X152119047Y-128547619D01*
X152261904Y-128547619D01*
X152357142Y-128595238D01*
X152404761Y-128642857D01*
X152452380Y-128738095D01*
X152452380Y-129119047D01*
X151452380Y-129119047D01*
X151452380Y-128785714D01*
X151500000Y-128690476D01*
X151547619Y-128642857D01*
X151642857Y-128595238D01*
X151738095Y-128595238D01*
X151833333Y-128642857D01*
X151880952Y-128690476D01*
X151928571Y-128785714D01*
X151928571Y-129119047D01*
X152452380Y-128119047D02*
X151452380Y-128119047D01*
X151452380Y-127738095D01*
X151500000Y-127642857D01*
X151547619Y-127595238D01*
X151642857Y-127547619D01*
X151785714Y-127547619D01*
X151880952Y-127595238D01*
X151928571Y-127642857D01*
X151976190Y-127738095D01*
X151976190Y-128119047D01*
X152404761Y-127166666D02*
X152452380Y-127023809D01*
X152452380Y-126785714D01*
X152404761Y-126690476D01*
X152357142Y-126642857D01*
X152261904Y-126595238D01*
X152166666Y-126595238D01*
X152071428Y-126642857D01*
X152023809Y-126690476D01*
X151976190Y-126785714D01*
X151928571Y-126976190D01*
X151880952Y-127071428D01*
X151833333Y-127119047D01*
X151738095Y-127166666D01*
X151642857Y-127166666D01*
X151547619Y-127119047D01*
X151500000Y-127071428D01*
X151452380Y-126976190D01*
X151452380Y-126738095D01*
X151500000Y-126595238D01*
X152071428Y-125404761D02*
X152071428Y-124642857D01*
X152452380Y-125023809D02*
X151690476Y-125023809D01*
X152452380Y-123642857D02*
X152452380Y-124214285D01*
X152452380Y-123928571D02*
X151452380Y-123928571D01*
X151595238Y-124023809D01*
X151690476Y-124119047D01*
X151738095Y-124214285D01*
X151547619Y-123261904D02*
X151500000Y-123214285D01*
X151452380Y-123119047D01*
X151452380Y-122880952D01*
X151500000Y-122785714D01*
X151547619Y-122738095D01*
X151642857Y-122690476D01*
X151738095Y-122690476D01*
X151880952Y-122738095D01*
X152452380Y-123309523D01*
X152452380Y-122690476D01*
X151452380Y-122404761D02*
X152452380Y-122071428D01*
X151452380Y-121738095D01*
X95872380Y-58468095D02*
X94872380Y-58468095D01*
X94872380Y-58230000D01*
X94920000Y-58087142D01*
X95015238Y-57991904D01*
X95110476Y-57944285D01*
X95300952Y-57896666D01*
X95443809Y-57896666D01*
X95634285Y-57944285D01*
X95729523Y-57991904D01*
X95824761Y-58087142D01*
X95872380Y-58230000D01*
X95872380Y-58468095D01*
X95872380Y-56944285D02*
X95872380Y-57515714D01*
X95872380Y-57230000D02*
X94872380Y-57230000D01*
X95015238Y-57325238D01*
X95110476Y-57420476D01*
X95158095Y-57515714D01*
X95152380Y-51641904D02*
X94152380Y-51641904D01*
X95152380Y-51070476D02*
X94580952Y-51499047D01*
X94152380Y-51070476D02*
X94723809Y-51641904D01*
X95872380Y-80468095D02*
X94872380Y-80468095D01*
X94872380Y-80230000D01*
X94920000Y-80087142D01*
X95015238Y-79991904D01*
X95110476Y-79944285D01*
X95300952Y-79896666D01*
X95443809Y-79896666D01*
X95634285Y-79944285D01*
X95729523Y-79991904D01*
X95824761Y-80087142D01*
X95872380Y-80230000D01*
X95872380Y-80468095D01*
X94967619Y-79515714D02*
X94920000Y-79468095D01*
X94872380Y-79372857D01*
X94872380Y-79134761D01*
X94920000Y-79039523D01*
X94967619Y-78991904D01*
X95062857Y-78944285D01*
X95158095Y-78944285D01*
X95300952Y-78991904D01*
X95872380Y-79563333D01*
X95872380Y-78944285D01*
X95152380Y-73641904D02*
X94152380Y-73641904D01*
X95152380Y-73070476D02*
X94580952Y-73499047D01*
X94152380Y-73070476D02*
X94723809Y-73641904D01*
X95872380Y-123718095D02*
X94872380Y-123718095D01*
X94872380Y-123480000D01*
X94920000Y-123337142D01*
X95015238Y-123241904D01*
X95110476Y-123194285D01*
X95300952Y-123146666D01*
X95443809Y-123146666D01*
X95634285Y-123194285D01*
X95729523Y-123241904D01*
X95824761Y-123337142D01*
X95872380Y-123480000D01*
X95872380Y-123718095D01*
X94872380Y-122813333D02*
X94872380Y-122194285D01*
X95253333Y-122527619D01*
X95253333Y-122384761D01*
X95300952Y-122289523D01*
X95348571Y-122241904D01*
X95443809Y-122194285D01*
X95681904Y-122194285D01*
X95777142Y-122241904D01*
X95824761Y-122289523D01*
X95872380Y-122384761D01*
X95872380Y-122670476D01*
X95824761Y-122765714D01*
X95777142Y-122813333D01*
X95152380Y-116891904D02*
X94152380Y-116891904D01*
X95152380Y-116320476D02*
X94580952Y-116749047D01*
X94152380Y-116320476D02*
X94723809Y-116891904D01*
X90641904Y-138172380D02*
X90641904Y-137172380D01*
X90880000Y-137172380D01*
X91022857Y-137220000D01*
X91118095Y-137315238D01*
X91165714Y-137410476D01*
X91213333Y-137600952D01*
X91213333Y-137743809D01*
X91165714Y-137934285D01*
X91118095Y-138029523D01*
X91022857Y-138124761D01*
X90880000Y-138172380D01*
X90641904Y-138172380D01*
X92070476Y-137505714D02*
X92070476Y-138172380D01*
X91832380Y-137124761D02*
X91594285Y-137839047D01*
X92213333Y-137839047D01*
X98738095Y-137052380D02*
X98738095Y-136052380D01*
X99309523Y-137052380D02*
X98880952Y-136480952D01*
X99309523Y-136052380D02*
X98738095Y-136623809D01*
X90641904Y-147172380D02*
X90641904Y-146172380D01*
X90880000Y-146172380D01*
X91022857Y-146220000D01*
X91118095Y-146315238D01*
X91165714Y-146410476D01*
X91213333Y-146600952D01*
X91213333Y-146743809D01*
X91165714Y-146934285D01*
X91118095Y-147029523D01*
X91022857Y-147124761D01*
X90880000Y-147172380D01*
X90641904Y-147172380D01*
X92118095Y-146172380D02*
X91641904Y-146172380D01*
X91594285Y-146648571D01*
X91641904Y-146600952D01*
X91737142Y-146553333D01*
X91975238Y-146553333D01*
X92070476Y-146600952D01*
X92118095Y-146648571D01*
X92165714Y-146743809D01*
X92165714Y-146981904D01*
X92118095Y-147077142D01*
X92070476Y-147124761D01*
X91975238Y-147172380D01*
X91737142Y-147172380D01*
X91641904Y-147124761D01*
X91594285Y-147077142D01*
X98738095Y-146052380D02*
X98738095Y-145052380D01*
X99309523Y-146052380D02*
X98880952Y-145480952D01*
X99309523Y-145052380D02*
X98738095Y-145623809D01*
X90641904Y-156172380D02*
X90641904Y-155172380D01*
X90880000Y-155172380D01*
X91022857Y-155220000D01*
X91118095Y-155315238D01*
X91165714Y-155410476D01*
X91213333Y-155600952D01*
X91213333Y-155743809D01*
X91165714Y-155934285D01*
X91118095Y-156029523D01*
X91022857Y-156124761D01*
X90880000Y-156172380D01*
X90641904Y-156172380D01*
X92070476Y-155172380D02*
X91880000Y-155172380D01*
X91784761Y-155220000D01*
X91737142Y-155267619D01*
X91641904Y-155410476D01*
X91594285Y-155600952D01*
X91594285Y-155981904D01*
X91641904Y-156077142D01*
X91689523Y-156124761D01*
X91784761Y-156172380D01*
X91975238Y-156172380D01*
X92070476Y-156124761D01*
X92118095Y-156077142D01*
X92165714Y-155981904D01*
X92165714Y-155743809D01*
X92118095Y-155648571D01*
X92070476Y-155600952D01*
X91975238Y-155553333D01*
X91784761Y-155553333D01*
X91689523Y-155600952D01*
X91641904Y-155648571D01*
X91594285Y-155743809D01*
X98738095Y-155052380D02*
X98738095Y-154052380D01*
X99309523Y-155052380D02*
X98880952Y-154480952D01*
X99309523Y-154052380D02*
X98738095Y-154623809D01*
X67822380Y-71626666D02*
X67346190Y-71960000D01*
X67822380Y-72198095D02*
X66822380Y-72198095D01*
X66822380Y-71817142D01*
X66870000Y-71721904D01*
X66917619Y-71674285D01*
X67012857Y-71626666D01*
X67155714Y-71626666D01*
X67250952Y-71674285D01*
X67298571Y-71721904D01*
X67346190Y-71817142D01*
X67346190Y-72198095D01*
X67822380Y-70674285D02*
X67822380Y-71245714D01*
X67822380Y-70960000D02*
X66822380Y-70960000D01*
X66965238Y-71055238D01*
X67060476Y-71150476D01*
X67108095Y-71245714D01*
X58793333Y-94582380D02*
X58460000Y-94106190D01*
X58221904Y-94582380D02*
X58221904Y-93582380D01*
X58602857Y-93582380D01*
X58698095Y-93630000D01*
X58745714Y-93677619D01*
X58793333Y-93772857D01*
X58793333Y-93915714D01*
X58745714Y-94010952D01*
X58698095Y-94058571D01*
X58602857Y-94106190D01*
X58221904Y-94106190D01*
X59126666Y-93582380D02*
X59745714Y-93582380D01*
X59412380Y-93963333D01*
X59555238Y-93963333D01*
X59650476Y-94010952D01*
X59698095Y-94058571D01*
X59745714Y-94153809D01*
X59745714Y-94391904D01*
X59698095Y-94487142D01*
X59650476Y-94534761D01*
X59555238Y-94582380D01*
X59269523Y-94582380D01*
X59174285Y-94534761D01*
X59126666Y-94487142D01*
X58793333Y-112582380D02*
X58460000Y-112106190D01*
X58221904Y-112582380D02*
X58221904Y-111582380D01*
X58602857Y-111582380D01*
X58698095Y-111630000D01*
X58745714Y-111677619D01*
X58793333Y-111772857D01*
X58793333Y-111915714D01*
X58745714Y-112010952D01*
X58698095Y-112058571D01*
X58602857Y-112106190D01*
X58221904Y-112106190D01*
X59650476Y-111915714D02*
X59650476Y-112582380D01*
X59412380Y-111534761D02*
X59174285Y-112249047D01*
X59793333Y-112249047D01*
X129293333Y-64582380D02*
X128960000Y-64106190D01*
X128721904Y-64582380D02*
X128721904Y-63582380D01*
X129102857Y-63582380D01*
X129198095Y-63630000D01*
X129245714Y-63677619D01*
X129293333Y-63772857D01*
X129293333Y-63915714D01*
X129245714Y-64010952D01*
X129198095Y-64058571D01*
X129102857Y-64106190D01*
X128721904Y-64106190D01*
X130198095Y-63582380D02*
X129721904Y-63582380D01*
X129674285Y-64058571D01*
X129721904Y-64010952D01*
X129817142Y-63963333D01*
X130055238Y-63963333D01*
X130150476Y-64010952D01*
X130198095Y-64058571D01*
X130245714Y-64153809D01*
X130245714Y-64391904D01*
X130198095Y-64487142D01*
X130150476Y-64534761D01*
X130055238Y-64582380D01*
X129817142Y-64582380D01*
X129721904Y-64534761D01*
X129674285Y-64487142D01*
X129293333Y-86582380D02*
X128960000Y-86106190D01*
X128721904Y-86582380D02*
X128721904Y-85582380D01*
X129102857Y-85582380D01*
X129198095Y-85630000D01*
X129245714Y-85677619D01*
X129293333Y-85772857D01*
X129293333Y-85915714D01*
X129245714Y-86010952D01*
X129198095Y-86058571D01*
X129102857Y-86106190D01*
X128721904Y-86106190D01*
X130150476Y-85582380D02*
X129960000Y-85582380D01*
X129864761Y-85630000D01*
X129817142Y-85677619D01*
X129721904Y-85820476D01*
X129674285Y-86010952D01*
X129674285Y-86391904D01*
X129721904Y-86487142D01*
X129769523Y-86534761D01*
X129864761Y-86582380D01*
X130055238Y-86582380D01*
X130150476Y-86534761D01*
X130198095Y-86487142D01*
X130245714Y-86391904D01*
X130245714Y-86153809D01*
X130198095Y-86058571D01*
X130150476Y-86010952D01*
X130055238Y-85963333D01*
X129864761Y-85963333D01*
X129769523Y-86010952D01*
X129721904Y-86058571D01*
X129674285Y-86153809D01*
X129293333Y-109082380D02*
X128960000Y-108606190D01*
X128721904Y-109082380D02*
X128721904Y-108082380D01*
X129102857Y-108082380D01*
X129198095Y-108130000D01*
X129245714Y-108177619D01*
X129293333Y-108272857D01*
X129293333Y-108415714D01*
X129245714Y-108510952D01*
X129198095Y-108558571D01*
X129102857Y-108606190D01*
X128721904Y-108606190D01*
X129626666Y-108082380D02*
X130293333Y-108082380D01*
X129864761Y-109082380D01*
X129293333Y-131082380D02*
X128960000Y-130606190D01*
X128721904Y-131082380D02*
X128721904Y-130082380D01*
X129102857Y-130082380D01*
X129198095Y-130130000D01*
X129245714Y-130177619D01*
X129293333Y-130272857D01*
X129293333Y-130415714D01*
X129245714Y-130510952D01*
X129198095Y-130558571D01*
X129102857Y-130606190D01*
X128721904Y-130606190D01*
X129864761Y-130510952D02*
X129769523Y-130463333D01*
X129721904Y-130415714D01*
X129674285Y-130320476D01*
X129674285Y-130272857D01*
X129721904Y-130177619D01*
X129769523Y-130130000D01*
X129864761Y-130082380D01*
X130055238Y-130082380D01*
X130150476Y-130130000D01*
X130198095Y-130177619D01*
X130245714Y-130272857D01*
X130245714Y-130320476D01*
X130198095Y-130415714D01*
X130150476Y-130463333D01*
X130055238Y-130510952D01*
X129864761Y-130510952D01*
X129769523Y-130558571D01*
X129721904Y-130606190D01*
X129674285Y-130701428D01*
X129674285Y-130891904D01*
X129721904Y-130987142D01*
X129769523Y-131034761D01*
X129864761Y-131082380D01*
X130055238Y-131082380D01*
X130150476Y-131034761D01*
X130198095Y-130987142D01*
X130245714Y-130891904D01*
X130245714Y-130701428D01*
X130198095Y-130606190D01*
X130150476Y-130558571D01*
X130055238Y-130510952D01*
M02*
