G04 #@! TF.GenerationSoftware,KiCad,Pcbnew,8.0.0*
G04 #@! TF.CreationDate,2024-11-27T00:01:04-06:00*
G04 #@! TF.ProjectId,Power-Secondary,506f7765-722d-4536-9563-6f6e64617279,rev?*
G04 #@! TF.SameCoordinates,Original*
G04 #@! TF.FileFunction,Paste,Top*
G04 #@! TF.FilePolarity,Positive*
%FSLAX46Y46*%
G04 Gerber Fmt 4.6, Leading zero omitted, Abs format (unit mm)*
G04 Created by KiCad (PCBNEW 8.0.0) date 2024-11-27 00:01:04*
%MOMM*%
%LPD*%
G01*
G04 APERTURE LIST*
G04 Aperture macros list*
%AMRoundRect*
0 Rectangle with rounded corners*
0 $1 Rounding radius*
0 $2 $3 $4 $5 $6 $7 $8 $9 X,Y pos of 4 corners*
0 Add a 4 corners polygon primitive as box body*
4,1,4,$2,$3,$4,$5,$6,$7,$8,$9,$2,$3,0*
0 Add four circle primitives for the rounded corners*
1,1,$1+$1,$2,$3*
1,1,$1+$1,$4,$5*
1,1,$1+$1,$6,$7*
1,1,$1+$1,$8,$9*
0 Add four rect primitives between the rounded corners*
20,1,$1+$1,$2,$3,$4,$5,0*
20,1,$1+$1,$4,$5,$6,$7,0*
20,1,$1+$1,$6,$7,$8,$9,0*
20,1,$1+$1,$8,$9,$2,$3,0*%
G04 Aperture macros list end*
%ADD10C,0.010000*%
%ADD11RoundRect,0.250000X-0.450000X0.262500X-0.450000X-0.262500X0.450000X-0.262500X0.450000X0.262500X0*%
%ADD12RoundRect,0.243750X0.243750X0.456250X-0.243750X0.456250X-0.243750X-0.456250X0.243750X-0.456250X0*%
%ADD13RoundRect,0.243750X-0.243750X-0.456250X0.243750X-0.456250X0.243750X0.456250X-0.243750X0.456250X0*%
%ADD14RoundRect,0.225000X-0.225000X-0.250000X0.225000X-0.250000X0.225000X0.250000X-0.225000X0.250000X0*%
%ADD15RoundRect,0.125000X-0.125000X-0.625000X0.125000X-0.625000X0.125000X0.625000X-0.125000X0.625000X0*%
%ADD16R,3.450000X1.450000*%
%ADD17R,1.530000X1.180000*%
%ADD18RoundRect,0.250000X-0.475000X0.250000X-0.475000X-0.250000X0.475000X-0.250000X0.475000X0.250000X0*%
%ADD19RoundRect,0.163043X-1.036957X0.586957X-1.036957X-0.586957X1.036957X-0.586957X1.036957X0.586957X0*%
%ADD20RoundRect,0.407500X-0.415000X-0.407500X0.415000X-0.407500X0.415000X0.407500X-0.415000X0.407500X0*%
%ADD21RoundRect,0.102500X-0.257500X-0.102500X0.257500X-0.102500X0.257500X0.102500X-0.257500X0.102500X0*%
%ADD22R,0.510000X0.585000*%
%ADD23R,0.410000X0.470000*%
%ADD24RoundRect,0.163043X1.036957X-0.586957X1.036957X0.586957X-1.036957X0.586957X-1.036957X-0.586957X0*%
%ADD25RoundRect,0.250000X0.250000X0.475000X-0.250000X0.475000X-0.250000X-0.475000X0.250000X-0.475000X0*%
%ADD26RoundRect,0.150000X0.512500X0.150000X-0.512500X0.150000X-0.512500X-0.150000X0.512500X-0.150000X0*%
%ADD27R,1.651000X0.431800*%
G04 APERTURE END LIST*
D10*
X147070000Y-76115000D02*
X145410000Y-76115000D01*
X145410000Y-74485000D01*
X147070000Y-74485000D01*
X147070000Y-76115000D01*
G36*
X147070000Y-76115000D02*
G01*
X145410000Y-76115000D01*
X145410000Y-74485000D01*
X147070000Y-74485000D01*
X147070000Y-76115000D01*
G37*
X147070000Y-78515000D02*
X145410000Y-78515000D01*
X145410000Y-76885000D01*
X147070000Y-76885000D01*
X147070000Y-78515000D01*
G36*
X147070000Y-78515000D02*
G01*
X145410000Y-78515000D01*
X145410000Y-76885000D01*
X147070000Y-76885000D01*
X147070000Y-78515000D01*
G37*
X147070000Y-80915000D02*
X145410000Y-80915000D01*
X145410000Y-79285000D01*
X147070000Y-79285000D01*
X147070000Y-80915000D01*
G36*
X147070000Y-80915000D02*
G01*
X145410000Y-80915000D01*
X145410000Y-79285000D01*
X147070000Y-79285000D01*
X147070000Y-80915000D01*
G37*
X149890000Y-76115000D02*
X148230000Y-76115000D01*
X148230000Y-74485000D01*
X149890000Y-74485000D01*
X149890000Y-76115000D01*
G36*
X149890000Y-76115000D02*
G01*
X148230000Y-76115000D01*
X148230000Y-74485000D01*
X149890000Y-74485000D01*
X149890000Y-76115000D01*
G37*
X149890000Y-78515000D02*
X148230000Y-78515000D01*
X148230000Y-76885000D01*
X149890000Y-76885000D01*
X149890000Y-78515000D01*
G36*
X149890000Y-78515000D02*
G01*
X148230000Y-78515000D01*
X148230000Y-76885000D01*
X149890000Y-76885000D01*
X149890000Y-78515000D01*
G37*
X149890000Y-80915000D02*
X148230000Y-80915000D01*
X148230000Y-79285000D01*
X149890000Y-79285000D01*
X149890000Y-80915000D01*
G36*
X149890000Y-80915000D02*
G01*
X148230000Y-80915000D01*
X148230000Y-79285000D01*
X149890000Y-79285000D01*
X149890000Y-80915000D01*
G37*
X117120000Y-76165000D02*
X115460000Y-76165000D01*
X115460000Y-74535000D01*
X117120000Y-74535000D01*
X117120000Y-76165000D01*
G36*
X117120000Y-76165000D02*
G01*
X115460000Y-76165000D01*
X115460000Y-74535000D01*
X117120000Y-74535000D01*
X117120000Y-76165000D01*
G37*
X117120000Y-78565000D02*
X115460000Y-78565000D01*
X115460000Y-76935000D01*
X117120000Y-76935000D01*
X117120000Y-78565000D01*
G36*
X117120000Y-78565000D02*
G01*
X115460000Y-78565000D01*
X115460000Y-76935000D01*
X117120000Y-76935000D01*
X117120000Y-78565000D01*
G37*
X117120000Y-80965000D02*
X115460000Y-80965000D01*
X115460000Y-79335000D01*
X117120000Y-79335000D01*
X117120000Y-80965000D01*
G36*
X117120000Y-80965000D02*
G01*
X115460000Y-80965000D01*
X115460000Y-79335000D01*
X117120000Y-79335000D01*
X117120000Y-80965000D01*
G37*
X119940000Y-76165000D02*
X118280000Y-76165000D01*
X118280000Y-74535000D01*
X119940000Y-74535000D01*
X119940000Y-76165000D01*
G36*
X119940000Y-76165000D02*
G01*
X118280000Y-76165000D01*
X118280000Y-74535000D01*
X119940000Y-74535000D01*
X119940000Y-76165000D01*
G37*
X119940000Y-78565000D02*
X118280000Y-78565000D01*
X118280000Y-76935000D01*
X119940000Y-76935000D01*
X119940000Y-78565000D01*
G36*
X119940000Y-78565000D02*
G01*
X118280000Y-78565000D01*
X118280000Y-76935000D01*
X119940000Y-76935000D01*
X119940000Y-78565000D01*
G37*
X119940000Y-80965000D02*
X118280000Y-80965000D01*
X118280000Y-79335000D01*
X119940000Y-79335000D01*
X119940000Y-80965000D01*
G36*
X119940000Y-80965000D02*
G01*
X118280000Y-80965000D01*
X118280000Y-79335000D01*
X119940000Y-79335000D01*
X119940000Y-80965000D01*
G37*
X160120000Y-76115000D02*
X158460000Y-76115000D01*
X158460000Y-74485000D01*
X160120000Y-74485000D01*
X160120000Y-76115000D01*
G36*
X160120000Y-76115000D02*
G01*
X158460000Y-76115000D01*
X158460000Y-74485000D01*
X160120000Y-74485000D01*
X160120000Y-76115000D01*
G37*
X160120000Y-78515000D02*
X158460000Y-78515000D01*
X158460000Y-76885000D01*
X160120000Y-76885000D01*
X160120000Y-78515000D01*
G36*
X160120000Y-78515000D02*
G01*
X158460000Y-78515000D01*
X158460000Y-76885000D01*
X160120000Y-76885000D01*
X160120000Y-78515000D01*
G37*
X160120000Y-80915000D02*
X158460000Y-80915000D01*
X158460000Y-79285000D01*
X160120000Y-79285000D01*
X160120000Y-80915000D01*
G36*
X160120000Y-80915000D02*
G01*
X158460000Y-80915000D01*
X158460000Y-79285000D01*
X160120000Y-79285000D01*
X160120000Y-80915000D01*
G37*
X162940000Y-76115000D02*
X161280000Y-76115000D01*
X161280000Y-74485000D01*
X162940000Y-74485000D01*
X162940000Y-76115000D01*
G36*
X162940000Y-76115000D02*
G01*
X161280000Y-76115000D01*
X161280000Y-74485000D01*
X162940000Y-74485000D01*
X162940000Y-76115000D01*
G37*
X162940000Y-78515000D02*
X161280000Y-78515000D01*
X161280000Y-76885000D01*
X162940000Y-76885000D01*
X162940000Y-78515000D01*
G36*
X162940000Y-78515000D02*
G01*
X161280000Y-78515000D01*
X161280000Y-76885000D01*
X162940000Y-76885000D01*
X162940000Y-78515000D01*
G37*
X162940000Y-80915000D02*
X161280000Y-80915000D01*
X161280000Y-79285000D01*
X162940000Y-79285000D01*
X162940000Y-80915000D01*
G36*
X162940000Y-80915000D02*
G01*
X161280000Y-80915000D01*
X161280000Y-79285000D01*
X162940000Y-79285000D01*
X162940000Y-80915000D01*
G37*
X130220000Y-76165000D02*
X128560000Y-76165000D01*
X128560000Y-74535000D01*
X130220000Y-74535000D01*
X130220000Y-76165000D01*
G36*
X130220000Y-76165000D02*
G01*
X128560000Y-76165000D01*
X128560000Y-74535000D01*
X130220000Y-74535000D01*
X130220000Y-76165000D01*
G37*
X130220000Y-78565000D02*
X128560000Y-78565000D01*
X128560000Y-76935000D01*
X130220000Y-76935000D01*
X130220000Y-78565000D01*
G36*
X130220000Y-78565000D02*
G01*
X128560000Y-78565000D01*
X128560000Y-76935000D01*
X130220000Y-76935000D01*
X130220000Y-78565000D01*
G37*
X130220000Y-80965000D02*
X128560000Y-80965000D01*
X128560000Y-79335000D01*
X130220000Y-79335000D01*
X130220000Y-80965000D01*
G36*
X130220000Y-80965000D02*
G01*
X128560000Y-80965000D01*
X128560000Y-79335000D01*
X130220000Y-79335000D01*
X130220000Y-80965000D01*
G37*
X133040000Y-76165000D02*
X131380000Y-76165000D01*
X131380000Y-74535000D01*
X133040000Y-74535000D01*
X133040000Y-76165000D01*
G36*
X133040000Y-76165000D02*
G01*
X131380000Y-76165000D01*
X131380000Y-74535000D01*
X133040000Y-74535000D01*
X133040000Y-76165000D01*
G37*
X133040000Y-78565000D02*
X131380000Y-78565000D01*
X131380000Y-76935000D01*
X133040000Y-76935000D01*
X133040000Y-78565000D01*
G36*
X133040000Y-78565000D02*
G01*
X131380000Y-78565000D01*
X131380000Y-76935000D01*
X133040000Y-76935000D01*
X133040000Y-78565000D01*
G37*
X133040000Y-80965000D02*
X131380000Y-80965000D01*
X131380000Y-79335000D01*
X133040000Y-79335000D01*
X133040000Y-80965000D01*
G36*
X133040000Y-80965000D02*
G01*
X131380000Y-80965000D01*
X131380000Y-79335000D01*
X133040000Y-79335000D01*
X133040000Y-80965000D01*
G37*
D11*
X145300000Y-86675000D03*
X145300000Y-88500000D03*
D12*
X166760000Y-72100000D03*
X164885000Y-72100000D03*
D13*
X111525000Y-72000000D03*
X113400000Y-72000000D03*
D11*
X128925000Y-86687500D03*
X128925000Y-88512500D03*
X120700000Y-87710000D03*
X120700000Y-89535000D03*
D14*
X143325000Y-96750000D03*
X144875000Y-96750000D03*
D11*
X147400000Y-86675000D03*
X147400000Y-88500000D03*
D15*
X138300000Y-103200000D03*
X139250000Y-103200000D03*
X140200000Y-103200000D03*
X140200000Y-105400000D03*
X139250000Y-105400000D03*
X138300000Y-105400000D03*
D13*
X111525000Y-69800000D03*
X113400000Y-69800000D03*
D11*
X157795000Y-87567500D03*
X157795000Y-89392500D03*
D16*
X142300000Y-77200000D03*
X142300000Y-71400000D03*
D17*
X152900000Y-80700000D03*
X152900000Y-78700000D03*
X152900000Y-76700000D03*
X152900000Y-74700000D03*
D16*
X136200000Y-77200000D03*
X136200000Y-71400000D03*
D17*
X122950000Y-80750000D03*
X122950000Y-78750000D03*
X122950000Y-76750000D03*
X122950000Y-74750000D03*
D11*
X158500000Y-96387500D03*
X158500000Y-98212500D03*
D18*
X120700000Y-91390000D03*
X120700000Y-93290000D03*
D19*
X117000000Y-85675000D03*
X117000000Y-89975000D03*
D11*
X131012500Y-86687500D03*
X131012500Y-88512500D03*
D20*
X146857500Y-65850000D03*
X146857500Y-67780000D03*
X148802500Y-65850000D03*
X148802500Y-67780000D03*
D21*
X144035000Y-64910000D03*
X144035000Y-66180000D03*
X144035000Y-67450000D03*
X144035000Y-68720000D03*
D22*
X146750000Y-64542500D03*
X146750000Y-69087500D03*
D23*
X149620000Y-64600000D03*
X149620000Y-69030000D03*
D12*
X166837500Y-99800000D03*
X164962500Y-99800000D03*
D24*
X161420000Y-89830000D03*
X161420000Y-85530000D03*
D17*
X155450000Y-74700000D03*
X155450000Y-76700000D03*
X155450000Y-78700000D03*
X155450000Y-80700000D03*
D11*
X149500000Y-86675000D03*
X149500000Y-88500000D03*
D17*
X125550000Y-74750000D03*
X125550000Y-76750000D03*
X125550000Y-78750000D03*
X125550000Y-80750000D03*
D25*
X109150000Y-60000000D03*
X107250000Y-60000000D03*
D11*
X133112500Y-86687500D03*
X133112500Y-88512500D03*
D25*
X135050000Y-97000000D03*
X133150000Y-97000000D03*
X109150000Y-62300000D03*
X107250000Y-62300000D03*
D26*
X148987500Y-98700000D03*
X148987500Y-96800000D03*
X146712500Y-97750000D03*
D12*
X166760000Y-70000000D03*
X164885000Y-70000000D03*
D18*
X157795000Y-91247500D03*
X157795000Y-93147500D03*
D27*
X135585600Y-84149999D03*
X135585600Y-84800000D03*
X135585600Y-85450001D03*
X135585600Y-86100000D03*
X135585600Y-86750001D03*
X135585600Y-87400000D03*
X135585600Y-88050001D03*
X135585600Y-88700000D03*
X135585600Y-89350001D03*
X135585600Y-90000000D03*
X135585600Y-90650001D03*
X135585600Y-91300000D03*
X135585600Y-91950001D03*
X135585600Y-92599999D03*
X135585600Y-93250001D03*
X135585600Y-93899999D03*
X135585600Y-94549998D03*
X135585600Y-95199999D03*
X142850000Y-95199999D03*
X142850000Y-94549998D03*
X142850000Y-93899999D03*
X142850000Y-93249998D03*
X142850000Y-92599999D03*
X142850000Y-91949998D03*
X142850000Y-91300000D03*
X142850000Y-90649998D03*
X142850000Y-90000000D03*
X142850000Y-89349998D03*
X142850000Y-88700000D03*
X142850000Y-88049998D03*
X142850000Y-87400000D03*
X142850000Y-86749999D03*
X142850000Y-86100000D03*
X142850000Y-85449999D03*
X142850000Y-84800000D03*
X142850000Y-84149999D03*
D13*
X111562500Y-99800000D03*
X113437500Y-99800000D03*
M02*
