G04 #@! TF.GenerationSoftware,KiCad,Pcbnew,(6.0.8)*
G04 #@! TF.CreationDate,2023-03-10T10:36:24-06:00*
G04 #@! TF.ProjectId,Power-Secondary,506f7765-722d-4536-9563-6f6e64617279,rev?*
G04 #@! TF.SameCoordinates,Original*
G04 #@! TF.FileFunction,Soldermask,Top*
G04 #@! TF.FilePolarity,Negative*
%FSLAX46Y46*%
G04 Gerber Fmt 4.6, Leading zero omitted, Abs format (unit mm)*
G04 Created by KiCad (PCBNEW (6.0.8)) date 2023-03-10 10:36:24*
%MOMM*%
%LPD*%
G01*
G04 APERTURE LIST*
G04 Aperture macros list*
%AMRoundRect*
0 Rectangle with rounded corners*
0 $1 Rounding radius*
0 $2 $3 $4 $5 $6 $7 $8 $9 X,Y pos of 4 corners*
0 Add a 4 corners polygon primitive as box body*
4,1,4,$2,$3,$4,$5,$6,$7,$8,$9,$2,$3,0*
0 Add four circle primitives for the rounded corners*
1,1,$1+$1,$2,$3*
1,1,$1+$1,$4,$5*
1,1,$1+$1,$6,$7*
1,1,$1+$1,$8,$9*
0 Add four rect primitives between the rounded corners*
20,1,$1+$1,$2,$3,$4,$5,0*
20,1,$1+$1,$4,$5,$6,$7,0*
20,1,$1+$1,$6,$7,$8,$9,0*
20,1,$1+$1,$8,$9,$2,$3,0*%
G04 Aperture macros list end*
%ADD10RoundRect,0.250000X0.262500X0.450000X-0.262500X0.450000X-0.262500X-0.450000X0.262500X-0.450000X0*%
%ADD11RoundRect,0.200000X-0.275000X0.200000X-0.275000X-0.200000X0.275000X-0.200000X0.275000X0.200000X0*%
%ADD12C,2.780000*%
%ADD13C,3.000000*%
%ADD14R,2.000000X2.000000*%
%ADD15R,2.085000X2.085000*%
%ADD16C,2.085000*%
%ADD17R,0.750000X0.400000*%
%ADD18C,1.270000*%
%ADD19RoundRect,0.250001X-0.499999X-0.759999X0.499999X-0.759999X0.499999X0.759999X-0.499999X0.759999X0*%
%ADD20O,1.500000X2.020000*%
%ADD21RoundRect,0.243750X-0.243750X-0.456250X0.243750X-0.456250X0.243750X0.456250X-0.243750X0.456250X0*%
%ADD22RoundRect,0.200000X0.275000X-0.200000X0.275000X0.200000X-0.275000X0.200000X-0.275000X-0.200000X0*%
%ADD23R,3.430000X3.780000*%
G04 APERTURE END LIST*
D10*
X124752500Y-97950000D03*
X122927500Y-97950000D03*
D11*
X122250000Y-77625000D03*
X122250000Y-79275000D03*
D12*
X125960000Y-54100000D03*
X125960000Y-57500000D03*
X116040000Y-57500000D03*
X116040000Y-54100000D03*
D13*
X157000000Y-43000000D03*
D14*
X136200000Y-98000000D03*
D15*
X133800000Y-70600000D03*
D16*
X131260000Y-70600000D03*
X128720000Y-70600000D03*
D17*
X115300000Y-77000000D03*
X115300000Y-77650000D03*
X115300000Y-78300000D03*
X117500000Y-78300000D03*
X117500000Y-77650000D03*
X117500000Y-77000000D03*
D15*
X119400000Y-70400000D03*
D16*
X116860000Y-70400000D03*
X114320000Y-70400000D03*
D13*
X88000000Y-43000000D03*
D18*
X117100000Y-43225000D03*
X126100000Y-43225000D03*
D19*
X120100000Y-45185000D03*
D20*
X123100000Y-45185000D03*
D14*
X127650000Y-97950000D03*
D11*
X135200000Y-76275000D03*
X135200000Y-77925000D03*
D14*
X104050000Y-98050000D03*
D17*
X130000000Y-77600000D03*
X130000000Y-76950000D03*
X130000000Y-76300000D03*
X127800000Y-76300000D03*
X127800000Y-76950000D03*
X127800000Y-77600000D03*
D14*
X145902500Y-97795000D03*
D21*
X118457500Y-97950000D03*
X120332500Y-97950000D03*
D14*
X112050000Y-98050000D03*
D22*
X132850000Y-77925000D03*
X132850000Y-76275000D03*
D13*
X87852500Y-97750000D03*
D10*
X101152500Y-98050000D03*
X99327500Y-98050000D03*
D23*
X147325000Y-52070000D03*
X144145000Y-52070000D03*
X147325000Y-59560000D03*
X144145000Y-59560000D03*
X98055000Y-59625000D03*
X101235000Y-59625000D03*
X98055000Y-52135000D03*
X101235000Y-52135000D03*
X144145000Y-76265000D03*
X147325000Y-76265000D03*
X147325000Y-83755000D03*
X144145000Y-83755000D03*
D15*
X119400000Y-64400000D03*
D16*
X116860000Y-64400000D03*
X114320000Y-64400000D03*
D23*
X97990000Y-83820000D03*
X101170000Y-83820000D03*
X97990000Y-76330000D03*
X101170000Y-76330000D03*
D15*
X133800000Y-64400000D03*
D16*
X131260000Y-64400000D03*
X128720000Y-64400000D03*
D13*
X156852500Y-97750000D03*
D21*
X94857500Y-98050000D03*
X96732500Y-98050000D03*
D17*
X115300000Y-80550000D03*
X115300000Y-81200000D03*
X115300000Y-81850000D03*
X117500000Y-81850000D03*
X117500000Y-81200000D03*
X117500000Y-80550000D03*
M02*
