G04 #@! TF.GenerationSoftware,KiCad,Pcbnew,7.0.2*
G04 #@! TF.CreationDate,2023-09-20T10:39:40-05:00*
G04 #@! TF.ProjectId,Power-Secondary,506f7765-722d-4536-9563-6f6e64617279,rev?*
G04 #@! TF.SameCoordinates,Original*
G04 #@! TF.FileFunction,Copper,L1,Top*
G04 #@! TF.FilePolarity,Positive*
%FSLAX46Y46*%
G04 Gerber Fmt 4.6, Leading zero omitted, Abs format (unit mm)*
G04 Created by KiCad (PCBNEW 7.0.2) date 2023-09-20 10:39:40*
%MOMM*%
%LPD*%
G01*
G04 APERTURE LIST*
G04 Aperture macros list*
%AMRoundRect*
0 Rectangle with rounded corners*
0 $1 Rounding radius*
0 $2 $3 $4 $5 $6 $7 $8 $9 X,Y pos of 4 corners*
0 Add a 4 corners polygon primitive as box body*
4,1,4,$2,$3,$4,$5,$6,$7,$8,$9,$2,$3,0*
0 Add four circle primitives for the rounded corners*
1,1,$1+$1,$2,$3*
1,1,$1+$1,$4,$5*
1,1,$1+$1,$6,$7*
1,1,$1+$1,$8,$9*
0 Add four rect primitives between the rounded corners*
20,1,$1+$1,$2,$3,$4,$5,0*
20,1,$1+$1,$4,$5,$6,$7,0*
20,1,$1+$1,$6,$7,$8,$9,0*
20,1,$1+$1,$8,$9,$2,$3,0*%
G04 Aperture macros list end*
G04 #@! TA.AperFunction,ComponentPad*
%ADD10R,2.085000X2.085000*%
G04 #@! TD*
G04 #@! TA.AperFunction,ComponentPad*
%ADD11C,2.085000*%
G04 #@! TD*
G04 #@! TA.AperFunction,ComponentPad*
%ADD12R,3.430000X3.780000*%
G04 #@! TD*
G04 #@! TA.AperFunction,SMDPad,CuDef*
%ADD13RoundRect,0.243750X-0.456250X0.243750X-0.456250X-0.243750X0.456250X-0.243750X0.456250X0.243750X0*%
G04 #@! TD*
G04 #@! TA.AperFunction,SMDPad,CuDef*
%ADD14RoundRect,0.200000X-0.200000X-0.275000X0.200000X-0.275000X0.200000X0.275000X-0.200000X0.275000X0*%
G04 #@! TD*
G04 #@! TA.AperFunction,SMDPad,CuDef*
%ADD15R,2.000000X2.000000*%
G04 #@! TD*
G04 #@! TA.AperFunction,SMDPad,CuDef*
%ADD16R,0.750000X0.400000*%
G04 #@! TD*
G04 #@! TA.AperFunction,ComponentPad*
%ADD17RoundRect,0.250001X0.499999X0.759999X-0.499999X0.759999X-0.499999X-0.759999X0.499999X-0.759999X0*%
G04 #@! TD*
G04 #@! TA.AperFunction,ComponentPad*
%ADD18O,1.500000X2.020000*%
G04 #@! TD*
G04 #@! TA.AperFunction,ComponentPad*
%ADD19C,2.780000*%
G04 #@! TD*
G04 #@! TA.AperFunction,SMDPad,CuDef*
%ADD20RoundRect,0.250000X0.450000X-0.262500X0.450000X0.262500X-0.450000X0.262500X-0.450000X-0.262500X0*%
G04 #@! TD*
G04 #@! TA.AperFunction,SMDPad,CuDef*
%ADD21R,1.100000X0.500000*%
G04 #@! TD*
G04 #@! TA.AperFunction,ComponentPad*
%ADD22RoundRect,0.250001X-0.499999X-0.759999X0.499999X-0.759999X0.499999X0.759999X-0.499999X0.759999X0*%
G04 #@! TD*
G04 #@! TA.AperFunction,SMDPad,CuDef*
%ADD23R,2.850000X1.250000*%
G04 #@! TD*
G04 #@! TA.AperFunction,SMDPad,CuDef*
%ADD24R,6.500000X5.550000*%
G04 #@! TD*
G04 #@! TA.AperFunction,ViaPad*
%ADD25C,0.800000*%
G04 #@! TD*
G04 #@! TA.AperFunction,Conductor*
%ADD26C,0.250000*%
G04 #@! TD*
G04 #@! TA.AperFunction,Conductor*
%ADD27C,0.500000*%
G04 #@! TD*
G04 #@! TA.AperFunction,Conductor*
%ADD28C,2.500000*%
G04 #@! TD*
G04 APERTURE END LIST*
D10*
X137685000Y-73200000D03*
D11*
X135145000Y-73200000D03*
X132605000Y-73200000D03*
D10*
X125620000Y-67485000D03*
D11*
X123080000Y-67485000D03*
X120540000Y-67485000D03*
D12*
X158645000Y-84060000D03*
X155465000Y-84060000D03*
X158645000Y-91550000D03*
X155465000Y-91550000D03*
D13*
X113250000Y-55812500D03*
X113250000Y-57687500D03*
D14*
X128175000Y-59500000D03*
X129825000Y-59500000D03*
D15*
X110126000Y-52118000D03*
D16*
X136100000Y-62650000D03*
X136100000Y-62000000D03*
X136100000Y-61350000D03*
X133900000Y-61350000D03*
X133900000Y-62000000D03*
X133900000Y-62650000D03*
D17*
X120000000Y-101165000D03*
D18*
X117000000Y-101165000D03*
D19*
X124590000Y-81230000D03*
X124590000Y-84630000D03*
X134510000Y-81230000D03*
X134510000Y-84630000D03*
D12*
X99580000Y-91550000D03*
X102760000Y-91550000D03*
X99580000Y-84060000D03*
X102760000Y-84060000D03*
X99580000Y-67485000D03*
X102760000Y-67485000D03*
X99580000Y-59995000D03*
X102760000Y-59995000D03*
D14*
X116175000Y-62000000D03*
X117825000Y-62000000D03*
D10*
X137685000Y-67525000D03*
D11*
X135145000Y-67525000D03*
X132605000Y-67525000D03*
D15*
X147972000Y-52118000D03*
D13*
X145000000Y-55812500D03*
X145000000Y-57687500D03*
D15*
X143019000Y-52118000D03*
D17*
X142000000Y-101165000D03*
D18*
X139000000Y-101165000D03*
D20*
X113250000Y-61662500D03*
X113250000Y-59837500D03*
D21*
X130150000Y-62000000D03*
X127850000Y-62000000D03*
D22*
X127549000Y-52973000D03*
D18*
X130549000Y-52973000D03*
D10*
X125620000Y-73200000D03*
D11*
X123080000Y-73200000D03*
X120540000Y-73200000D03*
D23*
X125675000Y-90175000D03*
D24*
X132075000Y-92455000D03*
D23*
X125675000Y-94735000D03*
D15*
X115000000Y-52118000D03*
X120000000Y-52118000D03*
X137939000Y-52118000D03*
D12*
X158645000Y-59995000D03*
X155465000Y-59995000D03*
X158645000Y-67485000D03*
X155465000Y-67485000D03*
D20*
X145000000Y-61662500D03*
X145000000Y-59837500D03*
D16*
X124100000Y-62650000D03*
X124100000Y-62000000D03*
X124100000Y-61350000D03*
X121900000Y-61350000D03*
X121900000Y-62000000D03*
X121900000Y-62650000D03*
D25*
X90000000Y-85000000D03*
X115000000Y-45000000D03*
X100000000Y-105000000D03*
X130000000Y-45000000D03*
X160000000Y-45000000D03*
X145000000Y-105000000D03*
X145000000Y-45000000D03*
X90000000Y-55000000D03*
X165000000Y-100000000D03*
X100000000Y-45000000D03*
X145000000Y-75000000D03*
X130000000Y-105000000D03*
X115000000Y-75000000D03*
X115000000Y-60000000D03*
X165000000Y-85000000D03*
X90000000Y-70000000D03*
X115000000Y-85000000D03*
X115000000Y-105000000D03*
X90000000Y-100000000D03*
X165000000Y-55000000D03*
X160000000Y-75000000D03*
X160000000Y-105000000D03*
X165000000Y-70000000D03*
X146750000Y-61750000D03*
X132250000Y-62000000D03*
X130000000Y-64500000D03*
X122000000Y-64000000D03*
D26*
X113250000Y-59837500D02*
X113250000Y-57687500D01*
X145000000Y-59837500D02*
X145000000Y-57687500D01*
X135671000Y-62650000D02*
X135000000Y-61979000D01*
X113250000Y-61662500D02*
X110126000Y-58538500D01*
X136100000Y-62650000D02*
X135671000Y-62650000D01*
X110126000Y-58538500D02*
X110126000Y-52118000D01*
X135000000Y-60424000D02*
X127549000Y-52973000D01*
X135000000Y-61979000D02*
X135000000Y-60424000D01*
X145000000Y-61662500D02*
X146662500Y-61662500D01*
X143019000Y-59681500D02*
X143019000Y-52118000D01*
X130150000Y-62000000D02*
X132250000Y-62000000D01*
X146662500Y-61662500D02*
X146750000Y-61750000D01*
X145000000Y-61662500D02*
X143019000Y-59681500D01*
X123475000Y-61350000D02*
X124100000Y-61350000D01*
X115000000Y-52118000D02*
X116540068Y-52118000D01*
X123200000Y-61625000D02*
X123475000Y-61350000D01*
D27*
X125620000Y-67485000D02*
X125620000Y-73200000D01*
D26*
X123200000Y-65065000D02*
X123200000Y-61625000D01*
X123200000Y-58777932D02*
X123200000Y-61075000D01*
X129605000Y-63500000D02*
X133050000Y-63500000D01*
X133050000Y-63500000D02*
X133900000Y-62650000D01*
X125620000Y-67485000D02*
X129605000Y-63500000D01*
X123200000Y-61075000D02*
X123475000Y-61350000D01*
X125620000Y-67485000D02*
X123200000Y-65065000D01*
X123200000Y-61625000D02*
X123200000Y-61075000D01*
X116540068Y-52118000D02*
X123200000Y-58777932D01*
X137500000Y-64500000D02*
X137500000Y-64815000D01*
X117825000Y-62000000D02*
X121900000Y-62000000D01*
X137685000Y-64315000D02*
X137500000Y-64500000D01*
X137000000Y-64500000D02*
X137500000Y-64500000D01*
X121900000Y-62000000D02*
X121900000Y-62650000D01*
X137185000Y-64500000D02*
X137685000Y-64000000D01*
X137185000Y-64500000D02*
X137000000Y-64500000D01*
X136925000Y-62000000D02*
X136100000Y-62000000D01*
X137685000Y-64500000D02*
X137685000Y-65000000D01*
D27*
X137685000Y-67525000D02*
X137685000Y-73200000D01*
D26*
X137685000Y-62760000D02*
X137685000Y-64000000D01*
X137500000Y-64500000D02*
X137685000Y-64500000D01*
X137939000Y-60986000D02*
X136925000Y-62000000D01*
X122000000Y-64000000D02*
X122000000Y-62750000D01*
X137500000Y-64815000D02*
X137685000Y-65000000D01*
X137685000Y-64000000D02*
X137685000Y-64500000D01*
X137685000Y-65000000D02*
X137685000Y-67525000D01*
X137939000Y-52118000D02*
X137939000Y-60986000D01*
X130000000Y-64500000D02*
X137000000Y-64500000D01*
X136925000Y-62000000D02*
X137685000Y-62760000D01*
X122000000Y-62750000D02*
X121900000Y-62650000D01*
X137685000Y-65000000D02*
X137185000Y-64500000D01*
X137685000Y-64000000D02*
X137685000Y-64315000D01*
X127850000Y-62000000D02*
X127850000Y-59825000D01*
X127850000Y-62000000D02*
X124100000Y-62000000D01*
X127382000Y-59500000D02*
X128175000Y-59500000D01*
X120000000Y-52118000D02*
X127382000Y-59500000D01*
X127850000Y-59825000D02*
X128175000Y-59500000D01*
X127382000Y-59500000D02*
X127525000Y-59500000D01*
X127525000Y-59500000D02*
X127850000Y-59825000D01*
D28*
X123080000Y-73200000D02*
X123080000Y-67485000D01*
X135145000Y-73200000D02*
X135145000Y-67525000D01*
D27*
X127600000Y-94759000D02*
X132619000Y-99778000D01*
X132619000Y-99778000D02*
X140613000Y-99778000D01*
X140613000Y-99778000D02*
X142000000Y-101165000D01*
X127600000Y-92100000D02*
X127600000Y-94759000D01*
X125675000Y-90175000D02*
X127600000Y-92100000D01*
G04 #@! TA.AperFunction,Conductor*
G36*
X112164593Y-60769685D02*
G01*
X112210348Y-60822489D01*
X112220292Y-60891647D01*
X112203093Y-60939097D01*
X112115641Y-61080878D01*
X112092737Y-61150000D01*
X114407262Y-61150000D01*
X114384358Y-61080878D01*
X114296907Y-60939097D01*
X114278467Y-60871704D01*
X114299390Y-60805041D01*
X114353032Y-60760271D01*
X114402446Y-60750000D01*
X116876000Y-60750000D01*
X116943039Y-60769685D01*
X116988794Y-60822489D01*
X117000000Y-60874000D01*
X117000000Y-61065002D01*
X116980315Y-61132041D01*
X116927511Y-61177796D01*
X116858353Y-61187740D01*
X116811850Y-61171119D01*
X116664397Y-61081981D01*
X116574999Y-61054123D01*
X116575000Y-62945874D01*
X116664400Y-62918016D01*
X116811850Y-62828880D01*
X116879405Y-62811044D01*
X116945878Y-62832562D01*
X116990166Y-62886602D01*
X117000000Y-62934996D01*
X117000000Y-64750000D01*
X121526000Y-64750000D01*
X121593039Y-64769685D01*
X121638794Y-64822489D01*
X121650000Y-64874000D01*
X121649999Y-66135530D01*
X121630314Y-66202570D01*
X121577510Y-66248324D01*
X121508352Y-66258268D01*
X121459193Y-66236029D01*
X121457783Y-66238331D01*
X121242447Y-66106373D01*
X121018133Y-66013458D01*
X120782047Y-65956779D01*
X120539999Y-65937730D01*
X120416649Y-65947437D01*
X120557435Y-66088222D01*
X120557441Y-66088227D01*
X121609115Y-67139901D01*
X121642600Y-67201224D01*
X121645011Y-67237821D01*
X121644379Y-67245437D01*
X121644380Y-67245437D01*
X121629500Y-67425010D01*
X121629499Y-67427579D01*
X121629500Y-67427580D01*
X121629500Y-67758352D01*
X121609815Y-67825391D01*
X121593181Y-67846033D01*
X120576320Y-68862894D01*
X120576315Y-68862896D01*
X120416649Y-69022561D01*
X120540000Y-69032269D01*
X120782047Y-69013220D01*
X121018133Y-68956541D01*
X121242447Y-68863626D01*
X121440710Y-68742131D01*
X121508156Y-68723886D01*
X121574758Y-68745002D01*
X121619372Y-68798774D01*
X121629500Y-68847858D01*
X121629500Y-70126000D01*
X121609815Y-70193039D01*
X121557011Y-70238794D01*
X121505500Y-70250000D01*
X96874000Y-70250000D01*
X96806961Y-70230315D01*
X96761206Y-70177511D01*
X96750000Y-70126000D01*
X96750000Y-68485000D01*
X97365000Y-68485000D01*
X97365000Y-69419518D01*
X97365354Y-69426132D01*
X97371400Y-69482371D01*
X97421647Y-69617089D01*
X97507811Y-69732188D01*
X97622910Y-69818352D01*
X97757628Y-69868599D01*
X97813867Y-69874645D01*
X97820482Y-69875000D01*
X98580000Y-69875000D01*
X98580000Y-68485000D01*
X100580000Y-68485000D01*
X100580000Y-69875000D01*
X101760000Y-69875000D01*
X101760000Y-68485000D01*
X103760000Y-68485000D01*
X103760000Y-69875000D01*
X104519518Y-69875000D01*
X104526132Y-69874645D01*
X104582371Y-69868599D01*
X104717089Y-69818352D01*
X104832188Y-69732188D01*
X104918352Y-69617089D01*
X104968599Y-69482371D01*
X104974645Y-69426132D01*
X104975000Y-69419518D01*
X104975000Y-68485000D01*
X103760000Y-68485000D01*
X101760000Y-68485000D01*
X100580000Y-68485000D01*
X98580000Y-68485000D01*
X97365000Y-68485000D01*
X96750000Y-68485000D01*
X96750000Y-67578543D01*
X98690000Y-67578543D01*
X98728898Y-67761540D01*
X98804992Y-67932451D01*
X98914958Y-68083806D01*
X99053990Y-68208991D01*
X99216011Y-68302534D01*
X99393939Y-68360346D01*
X99533361Y-68375000D01*
X99626639Y-68375000D01*
X99766061Y-68360346D01*
X99943989Y-68302534D01*
X100106010Y-68208991D01*
X100245042Y-68083806D01*
X100355008Y-67932451D01*
X100431102Y-67761540D01*
X100470000Y-67578543D01*
X101870000Y-67578543D01*
X101908898Y-67761540D01*
X101984992Y-67932451D01*
X102094958Y-68083806D01*
X102233990Y-68208991D01*
X102396011Y-68302534D01*
X102573939Y-68360346D01*
X102713361Y-68375000D01*
X102806639Y-68375000D01*
X102946061Y-68360346D01*
X103123989Y-68302534D01*
X103286010Y-68208991D01*
X103425042Y-68083806D01*
X103535008Y-67932451D01*
X103611102Y-67761540D01*
X103650000Y-67578543D01*
X103650000Y-67484999D01*
X118992730Y-67484999D01*
X119002437Y-67608349D01*
X119041398Y-67569388D01*
X119845000Y-67569388D01*
X119885390Y-67733261D01*
X119963825Y-67882705D01*
X120075745Y-68009036D01*
X120214645Y-68104912D01*
X120372454Y-68164761D01*
X120497957Y-68180000D01*
X120582043Y-68180000D01*
X120707546Y-68164761D01*
X120865355Y-68104912D01*
X121004255Y-68009036D01*
X121116175Y-67882705D01*
X121194610Y-67733261D01*
X121235000Y-67569388D01*
X121235000Y-67400612D01*
X121194610Y-67236739D01*
X121116175Y-67087295D01*
X121004255Y-66960964D01*
X120865355Y-66865088D01*
X120707546Y-66805239D01*
X120582043Y-66790000D01*
X120497957Y-66790000D01*
X120372454Y-66805239D01*
X120214645Y-66865088D01*
X120075745Y-66960964D01*
X119963825Y-67087295D01*
X119885390Y-67236739D01*
X119845000Y-67400612D01*
X119845000Y-67569388D01*
X119041398Y-67569388D01*
X119125786Y-67485000D01*
X119002437Y-67361651D01*
X118992730Y-67484999D01*
X103650000Y-67484999D01*
X103650000Y-67391457D01*
X103611102Y-67208460D01*
X103535008Y-67037549D01*
X103425042Y-66886194D01*
X103286010Y-66761009D01*
X103123989Y-66667466D01*
X102946061Y-66609654D01*
X102806639Y-66595000D01*
X102713361Y-66595000D01*
X102573939Y-66609654D01*
X102396011Y-66667466D01*
X102233990Y-66761009D01*
X102094958Y-66886194D01*
X101984992Y-67037549D01*
X101908898Y-67208460D01*
X101870000Y-67391457D01*
X101870000Y-67578543D01*
X100470000Y-67578543D01*
X100470000Y-67391457D01*
X100431102Y-67208460D01*
X100355008Y-67037549D01*
X100245042Y-66886194D01*
X100106010Y-66761009D01*
X99943989Y-66667466D01*
X99766061Y-66609654D01*
X99626639Y-66595000D01*
X99533361Y-66595000D01*
X99393939Y-66609654D01*
X99216011Y-66667466D01*
X99053990Y-66761009D01*
X98914958Y-66886194D01*
X98804992Y-67037549D01*
X98728898Y-67208460D01*
X98690000Y-67391457D01*
X98690000Y-67578543D01*
X96750000Y-67578543D01*
X96750000Y-66485000D01*
X97365000Y-66485000D01*
X98580000Y-66485000D01*
X98580000Y-65095000D01*
X100580000Y-65095000D01*
X100580000Y-66485000D01*
X101760000Y-66485000D01*
X101760000Y-65095000D01*
X103760000Y-65095000D01*
X103760000Y-66485000D01*
X104975000Y-66485000D01*
X104975000Y-65550481D01*
X104974645Y-65543867D01*
X104968599Y-65487628D01*
X104918352Y-65352910D01*
X104832188Y-65237811D01*
X104717089Y-65151647D01*
X104582371Y-65101400D01*
X104526132Y-65095354D01*
X104519518Y-65095000D01*
X103760000Y-65095000D01*
X101760000Y-65095000D01*
X100580000Y-65095000D01*
X98580000Y-65095000D01*
X97820482Y-65095000D01*
X97813867Y-65095354D01*
X97757628Y-65101400D01*
X97622910Y-65151647D01*
X97507811Y-65237811D01*
X97421647Y-65352910D01*
X97371400Y-65487628D01*
X97365354Y-65543867D01*
X97365000Y-65550481D01*
X97365000Y-66485000D01*
X96750000Y-66485000D01*
X96750000Y-64874000D01*
X96769685Y-64806961D01*
X96822489Y-64761206D01*
X96874000Y-64750000D01*
X108250000Y-64750000D01*
X108250000Y-62175000D01*
X112092737Y-62175000D01*
X112115641Y-62244121D01*
X112207684Y-62393346D01*
X112331654Y-62517316D01*
X112480877Y-62609357D01*
X112647304Y-62664506D01*
X112737499Y-62673720D01*
X112737500Y-62673719D01*
X112737500Y-62175000D01*
X113762500Y-62175000D01*
X113762500Y-62673719D01*
X113852695Y-62664506D01*
X114019122Y-62609357D01*
X114168345Y-62517316D01*
X114285661Y-62400000D01*
X115281218Y-62400000D01*
X115281409Y-62402107D01*
X115331981Y-62564397D01*
X115419925Y-62709875D01*
X115540124Y-62830074D01*
X115685599Y-62918016D01*
X115774999Y-62945874D01*
X115775000Y-62945874D01*
X115775000Y-62400000D01*
X115281218Y-62400000D01*
X114285661Y-62400000D01*
X114292315Y-62393346D01*
X114384358Y-62244121D01*
X114407263Y-62175000D01*
X113762500Y-62175000D01*
X112737500Y-62175000D01*
X112092737Y-62175000D01*
X108250000Y-62175000D01*
X108250000Y-61600000D01*
X115281218Y-61600000D01*
X115775000Y-61600000D01*
X115775000Y-61054124D01*
X115774999Y-61054123D01*
X115685602Y-61081981D01*
X115540124Y-61169925D01*
X115419925Y-61290124D01*
X115331981Y-61435602D01*
X115281409Y-61597892D01*
X115281218Y-61600000D01*
X108250000Y-61600000D01*
X108250000Y-60874000D01*
X108269685Y-60806961D01*
X108322489Y-60761206D01*
X108374000Y-60750000D01*
X112097554Y-60750000D01*
X112164593Y-60769685D01*
G37*
G04 #@! TD.AperFunction*
G04 #@! TA.AperFunction,Conductor*
G36*
X161758039Y-87824685D02*
G01*
X161803794Y-87877489D01*
X161815000Y-87929000D01*
X161815000Y-95936000D01*
X161795315Y-96003039D01*
X161742511Y-96048794D01*
X161691000Y-96060000D01*
X131459000Y-96060000D01*
X131391961Y-96040315D01*
X131346206Y-95987511D01*
X131335000Y-95936000D01*
X131335000Y-95770000D01*
X131335000Y-93455000D01*
X133075000Y-93455000D01*
X133075000Y-95730000D01*
X135369518Y-95730000D01*
X135376132Y-95729645D01*
X135432371Y-95723599D01*
X135567089Y-95673352D01*
X135682188Y-95587188D01*
X135768352Y-95472089D01*
X135818599Y-95337371D01*
X135824645Y-95281132D01*
X135825000Y-95274518D01*
X135825000Y-93455000D01*
X133075000Y-93455000D01*
X131335000Y-93455000D01*
X131335000Y-92550000D01*
X153250000Y-92550000D01*
X153250000Y-93484518D01*
X153250354Y-93491132D01*
X153256400Y-93547371D01*
X153306647Y-93682089D01*
X153392811Y-93797188D01*
X153507910Y-93883352D01*
X153642628Y-93933599D01*
X153698867Y-93939645D01*
X153705482Y-93940000D01*
X154465000Y-93940000D01*
X154465000Y-92550000D01*
X156465000Y-92550000D01*
X156465000Y-93940000D01*
X157645000Y-93940000D01*
X157645000Y-92550000D01*
X159645000Y-92550000D01*
X159645000Y-93940000D01*
X160404518Y-93940000D01*
X160411132Y-93939645D01*
X160467371Y-93933599D01*
X160602089Y-93883352D01*
X160717188Y-93797188D01*
X160803352Y-93682089D01*
X160853599Y-93547371D01*
X160859645Y-93491132D01*
X160860000Y-93484518D01*
X160860000Y-92550000D01*
X159645000Y-92550000D01*
X157645000Y-92550000D01*
X156465000Y-92550000D01*
X154465000Y-92550000D01*
X153250000Y-92550000D01*
X131335000Y-92550000D01*
X131335000Y-91643543D01*
X154575000Y-91643543D01*
X154613898Y-91826540D01*
X154689992Y-91997451D01*
X154799958Y-92148806D01*
X154938990Y-92273991D01*
X155101011Y-92367534D01*
X155278939Y-92425346D01*
X155418361Y-92440000D01*
X155511639Y-92440000D01*
X155651061Y-92425346D01*
X155828989Y-92367534D01*
X155991010Y-92273991D01*
X156130042Y-92148806D01*
X156240008Y-91997451D01*
X156316102Y-91826540D01*
X156355000Y-91643543D01*
X157755000Y-91643543D01*
X157793898Y-91826540D01*
X157869992Y-91997451D01*
X157979958Y-92148806D01*
X158118990Y-92273991D01*
X158281011Y-92367534D01*
X158458939Y-92425346D01*
X158598361Y-92440000D01*
X158691639Y-92440000D01*
X158831061Y-92425346D01*
X159008989Y-92367534D01*
X159171010Y-92273991D01*
X159310042Y-92148806D01*
X159420008Y-91997451D01*
X159496102Y-91826540D01*
X159535000Y-91643543D01*
X159535000Y-91456457D01*
X159496102Y-91273460D01*
X159420008Y-91102549D01*
X159310042Y-90951194D01*
X159171010Y-90826009D01*
X159008989Y-90732466D01*
X158831061Y-90674654D01*
X158691639Y-90660000D01*
X158598361Y-90660000D01*
X158458939Y-90674654D01*
X158281011Y-90732466D01*
X158118990Y-90826009D01*
X157979958Y-90951194D01*
X157869992Y-91102549D01*
X157793898Y-91273460D01*
X157755000Y-91456457D01*
X157755000Y-91643543D01*
X156355000Y-91643543D01*
X156355000Y-91456457D01*
X156316102Y-91273460D01*
X156240008Y-91102549D01*
X156130042Y-90951194D01*
X155991010Y-90826009D01*
X155828989Y-90732466D01*
X155651061Y-90674654D01*
X155511639Y-90660000D01*
X155418361Y-90660000D01*
X155278939Y-90674654D01*
X155101011Y-90732466D01*
X154938990Y-90826009D01*
X154799958Y-90951194D01*
X154689992Y-91102549D01*
X154613898Y-91273460D01*
X154575000Y-91456457D01*
X154575000Y-91643543D01*
X131335000Y-91643543D01*
X131335000Y-89180000D01*
X133075000Y-89180000D01*
X133075000Y-91455000D01*
X135825000Y-91455000D01*
X135825000Y-90550000D01*
X153250000Y-90550000D01*
X154465000Y-90550000D01*
X154465000Y-89160000D01*
X156465000Y-89160000D01*
X156465000Y-90550000D01*
X157645000Y-90550000D01*
X157645000Y-89160000D01*
X159645000Y-89160000D01*
X159645000Y-90550000D01*
X160860000Y-90550000D01*
X160860000Y-89615481D01*
X160859645Y-89608867D01*
X160853599Y-89552628D01*
X160803352Y-89417910D01*
X160717188Y-89302811D01*
X160602089Y-89216647D01*
X160467371Y-89166400D01*
X160411132Y-89160354D01*
X160404518Y-89160000D01*
X159645000Y-89160000D01*
X157645000Y-89160000D01*
X156465000Y-89160000D01*
X154465000Y-89160000D01*
X153705482Y-89160000D01*
X153698867Y-89160354D01*
X153642628Y-89166400D01*
X153507910Y-89216647D01*
X153392811Y-89302811D01*
X153306647Y-89417910D01*
X153256400Y-89552628D01*
X153250354Y-89608867D01*
X153250000Y-89615481D01*
X153250000Y-90550000D01*
X135825000Y-90550000D01*
X135825000Y-89635481D01*
X135824645Y-89628867D01*
X135818599Y-89572628D01*
X135768352Y-89437910D01*
X135682188Y-89322811D01*
X135567089Y-89236647D01*
X135432371Y-89186400D01*
X135376132Y-89180354D01*
X135369518Y-89180000D01*
X133075000Y-89180000D01*
X131335000Y-89180000D01*
X131335000Y-87928999D01*
X131354685Y-87861961D01*
X131407489Y-87816206D01*
X131459000Y-87805000D01*
X161691000Y-87805000D01*
X161758039Y-87824685D01*
G37*
G04 #@! TD.AperFunction*
G04 #@! TA.AperFunction,Conductor*
G36*
X165002702Y-43100617D02*
G01*
X165421634Y-43118908D01*
X165432369Y-43119848D01*
X165845430Y-43174228D01*
X165856056Y-43176101D01*
X166262816Y-43266278D01*
X166273228Y-43269067D01*
X166670582Y-43394353D01*
X166680717Y-43398042D01*
X167065625Y-43557477D01*
X167075416Y-43562043D01*
X167176472Y-43614649D01*
X167444942Y-43754406D01*
X167454310Y-43759814D01*
X167805675Y-43983658D01*
X167814536Y-43989863D01*
X168145045Y-44243471D01*
X168153332Y-44250425D01*
X168460478Y-44531872D01*
X168468127Y-44539521D01*
X168749574Y-44846667D01*
X168756528Y-44854954D01*
X169010136Y-45185463D01*
X169016341Y-45194324D01*
X169240185Y-45545689D01*
X169245593Y-45555057D01*
X169437953Y-45924576D01*
X169442525Y-45934380D01*
X169601951Y-46319267D01*
X169605650Y-46329430D01*
X169632572Y-46414816D01*
X169730926Y-46726752D01*
X169733726Y-46737202D01*
X169823895Y-47143930D01*
X169825773Y-47154583D01*
X169880149Y-47567610D01*
X169881092Y-47578386D01*
X169899382Y-47997296D01*
X169899500Y-48002705D01*
X169899500Y-103997293D01*
X169899382Y-104002702D01*
X169881092Y-104421613D01*
X169880149Y-104432389D01*
X169825773Y-104845416D01*
X169823895Y-104856069D01*
X169733726Y-105262797D01*
X169730926Y-105273247D01*
X169605651Y-105670567D01*
X169601951Y-105680732D01*
X169442525Y-106065619D01*
X169437953Y-106075423D01*
X169245593Y-106444942D01*
X169240185Y-106454310D01*
X169016341Y-106805675D01*
X169010136Y-106814536D01*
X168756528Y-107145045D01*
X168749574Y-107153332D01*
X168468127Y-107460478D01*
X168460478Y-107468127D01*
X168153332Y-107749574D01*
X168145045Y-107756528D01*
X167814536Y-108010136D01*
X167805675Y-108016341D01*
X167454310Y-108240185D01*
X167444942Y-108245593D01*
X167075423Y-108437953D01*
X167065619Y-108442525D01*
X166680732Y-108601951D01*
X166670567Y-108605651D01*
X166273247Y-108730926D01*
X166262797Y-108733726D01*
X165856069Y-108823895D01*
X165845416Y-108825773D01*
X165432389Y-108880149D01*
X165421613Y-108881092D01*
X165002703Y-108899382D01*
X164997294Y-108899500D01*
X93002706Y-108899500D01*
X92997297Y-108899382D01*
X92578386Y-108881092D01*
X92567610Y-108880149D01*
X92154583Y-108825773D01*
X92143930Y-108823895D01*
X91836064Y-108755643D01*
X91737199Y-108733725D01*
X91726756Y-108730927D01*
X91329430Y-108605650D01*
X91319267Y-108601951D01*
X90934380Y-108442525D01*
X90924576Y-108437953D01*
X90555057Y-108245593D01*
X90545689Y-108240185D01*
X90194324Y-108016341D01*
X90185463Y-108010136D01*
X89854954Y-107756528D01*
X89846667Y-107749574D01*
X89539521Y-107468127D01*
X89531872Y-107460478D01*
X89250425Y-107153332D01*
X89243471Y-107145045D01*
X88989863Y-106814536D01*
X88983658Y-106805675D01*
X88759814Y-106454310D01*
X88754406Y-106444942D01*
X88562046Y-106075423D01*
X88557474Y-106065619D01*
X88398042Y-105680717D01*
X88394353Y-105670582D01*
X88269067Y-105273228D01*
X88266278Y-105262816D01*
X88176101Y-104856056D01*
X88174228Y-104845430D01*
X88119848Y-104432369D01*
X88118908Y-104421632D01*
X88106240Y-104131482D01*
X91245500Y-104131482D01*
X91284691Y-104391507D01*
X91362202Y-104642787D01*
X91476296Y-104879707D01*
X91476297Y-104879709D01*
X91476298Y-104879710D01*
X91624430Y-105096980D01*
X91803290Y-105289746D01*
X92008883Y-105453701D01*
X92236616Y-105585183D01*
X92481402Y-105681254D01*
X92737772Y-105739769D01*
X92934346Y-105754500D01*
X92936663Y-105754500D01*
X93063337Y-105754500D01*
X93065654Y-105754500D01*
X93262228Y-105739769D01*
X93518598Y-105681254D01*
X93763384Y-105585183D01*
X93991117Y-105453701D01*
X94196710Y-105289746D01*
X94375570Y-105096980D01*
X94523702Y-104879710D01*
X94637798Y-104642788D01*
X94715308Y-104391508D01*
X94754500Y-104131482D01*
X163245500Y-104131482D01*
X163284691Y-104391507D01*
X163362202Y-104642787D01*
X163476296Y-104879707D01*
X163476297Y-104879709D01*
X163476298Y-104879710D01*
X163624430Y-105096980D01*
X163803290Y-105289746D01*
X164008883Y-105453701D01*
X164236616Y-105585183D01*
X164481402Y-105681254D01*
X164737772Y-105739769D01*
X164934346Y-105754500D01*
X164936663Y-105754500D01*
X165063337Y-105754500D01*
X165065654Y-105754500D01*
X165262228Y-105739769D01*
X165518598Y-105681254D01*
X165763384Y-105585183D01*
X165991117Y-105453701D01*
X166196710Y-105289746D01*
X166375570Y-105096980D01*
X166523702Y-104879710D01*
X166637798Y-104642788D01*
X166715308Y-104391508D01*
X166754500Y-104131482D01*
X166754500Y-103868518D01*
X166715308Y-103608492D01*
X166637798Y-103357212D01*
X166523702Y-103120290D01*
X166375570Y-102903020D01*
X166196710Y-102710254D01*
X165991117Y-102546299D01*
X165991116Y-102546298D01*
X165763382Y-102414816D01*
X165518600Y-102318746D01*
X165262225Y-102260230D01*
X165067968Y-102245673D01*
X165067957Y-102245672D01*
X165065654Y-102245500D01*
X164934346Y-102245500D01*
X164932043Y-102245672D01*
X164932031Y-102245673D01*
X164737774Y-102260230D01*
X164481399Y-102318746D01*
X164236617Y-102414816D01*
X164008883Y-102546298D01*
X163803290Y-102710253D01*
X163624431Y-102903018D01*
X163476296Y-103120292D01*
X163362202Y-103357212D01*
X163284691Y-103608492D01*
X163245500Y-103868517D01*
X163245500Y-104131482D01*
X94754500Y-104131482D01*
X94754500Y-103868518D01*
X94715308Y-103608492D01*
X94637798Y-103357212D01*
X94570993Y-103218491D01*
X113110500Y-103218491D01*
X113149373Y-103401382D01*
X113225427Y-103572202D01*
X113335329Y-103723469D01*
X113474284Y-103848585D01*
X113636214Y-103942075D01*
X113721803Y-103969884D01*
X113814044Y-103999855D01*
X113953380Y-104014500D01*
X113956622Y-104014500D01*
X114043378Y-104014500D01*
X114046620Y-104014500D01*
X114185956Y-103999855D01*
X114363785Y-103942075D01*
X114525715Y-103848585D01*
X114664669Y-103723470D01*
X114664670Y-103723469D01*
X114774572Y-103572202D01*
X114850626Y-103401382D01*
X114889500Y-103218491D01*
X122110500Y-103218491D01*
X122149373Y-103401382D01*
X122225427Y-103572202D01*
X122335329Y-103723469D01*
X122474284Y-103848585D01*
X122636214Y-103942075D01*
X122721803Y-103969884D01*
X122814044Y-103999855D01*
X122953380Y-104014500D01*
X122956622Y-104014500D01*
X123043378Y-104014500D01*
X123046620Y-104014500D01*
X123185956Y-103999855D01*
X123363785Y-103942075D01*
X123525715Y-103848585D01*
X123664669Y-103723470D01*
X123664670Y-103723469D01*
X123774572Y-103572202D01*
X123850626Y-103401382D01*
X123862876Y-103343746D01*
X123889500Y-103218491D01*
X135110500Y-103218491D01*
X135149373Y-103401382D01*
X135225427Y-103572202D01*
X135335329Y-103723469D01*
X135474284Y-103848585D01*
X135636214Y-103942075D01*
X135721803Y-103969884D01*
X135814044Y-103999855D01*
X135953380Y-104014500D01*
X135956622Y-104014500D01*
X136043378Y-104014500D01*
X136046620Y-104014500D01*
X136185956Y-103999855D01*
X136363785Y-103942075D01*
X136525715Y-103848585D01*
X136664669Y-103723470D01*
X136664670Y-103723469D01*
X136774572Y-103572202D01*
X136850626Y-103401382D01*
X136889500Y-103218491D01*
X144110500Y-103218491D01*
X144149373Y-103401382D01*
X144225427Y-103572202D01*
X144335329Y-103723469D01*
X144474284Y-103848585D01*
X144636214Y-103942075D01*
X144721803Y-103969884D01*
X144814044Y-103999855D01*
X144953380Y-104014500D01*
X144956622Y-104014500D01*
X145043378Y-104014500D01*
X145046620Y-104014500D01*
X145185956Y-103999855D01*
X145363785Y-103942075D01*
X145525715Y-103848585D01*
X145664669Y-103723470D01*
X145664670Y-103723469D01*
X145774572Y-103572202D01*
X145850626Y-103401382D01*
X145889500Y-103218491D01*
X145889500Y-103031508D01*
X145850626Y-102848617D01*
X145774572Y-102677797D01*
X145664670Y-102526530D01*
X145525715Y-102401414D01*
X145363785Y-102307924D01*
X145185957Y-102250145D01*
X145049840Y-102235838D01*
X145049831Y-102235837D01*
X145046620Y-102235500D01*
X144953380Y-102235500D01*
X144950169Y-102235837D01*
X144950159Y-102235838D01*
X144814042Y-102250145D01*
X144636214Y-102307924D01*
X144474284Y-102401414D01*
X144335329Y-102526530D01*
X144225427Y-102677797D01*
X144149373Y-102848617D01*
X144110500Y-103031508D01*
X144110500Y-103218491D01*
X136889500Y-103218491D01*
X136889500Y-103031508D01*
X136850626Y-102848617D01*
X136774572Y-102677797D01*
X136664670Y-102526530D01*
X136525715Y-102401414D01*
X136363785Y-102307924D01*
X136185957Y-102250145D01*
X136049840Y-102235838D01*
X136049831Y-102235837D01*
X136046620Y-102235500D01*
X135953380Y-102235500D01*
X135950169Y-102235837D01*
X135950159Y-102235838D01*
X135814042Y-102250145D01*
X135636214Y-102307924D01*
X135474284Y-102401414D01*
X135335329Y-102526530D01*
X135225427Y-102677797D01*
X135149373Y-102848617D01*
X135110500Y-103031508D01*
X135110500Y-103218491D01*
X123889500Y-103218491D01*
X123889500Y-103218490D01*
X123889500Y-103031510D01*
X123862189Y-102903018D01*
X123850626Y-102848617D01*
X123774572Y-102677797D01*
X123664670Y-102526530D01*
X123525715Y-102401414D01*
X123363785Y-102307924D01*
X123185957Y-102250145D01*
X123049840Y-102235838D01*
X123049831Y-102235837D01*
X123046620Y-102235500D01*
X122953380Y-102235500D01*
X122950169Y-102235837D01*
X122950159Y-102235838D01*
X122814042Y-102250145D01*
X122636214Y-102307924D01*
X122474284Y-102401414D01*
X122335329Y-102526530D01*
X122225427Y-102677797D01*
X122149373Y-102848617D01*
X122110500Y-103031508D01*
X122110500Y-103218491D01*
X114889500Y-103218491D01*
X114889500Y-103031508D01*
X114850626Y-102848617D01*
X114774572Y-102677797D01*
X114664670Y-102526530D01*
X114525715Y-102401414D01*
X114363785Y-102307924D01*
X114185957Y-102250145D01*
X114049840Y-102235838D01*
X114049831Y-102235837D01*
X114046620Y-102235500D01*
X113953380Y-102235500D01*
X113950169Y-102235837D01*
X113950159Y-102235838D01*
X113814042Y-102250145D01*
X113636214Y-102307924D01*
X113474284Y-102401414D01*
X113335329Y-102526530D01*
X113225427Y-102677797D01*
X113149373Y-102848617D01*
X113110500Y-103031508D01*
X113110500Y-103218491D01*
X94570993Y-103218491D01*
X94523702Y-103120290D01*
X94375570Y-102903020D01*
X94196710Y-102710254D01*
X93991117Y-102546299D01*
X93991116Y-102546298D01*
X93763382Y-102414816D01*
X93518600Y-102318746D01*
X93262225Y-102260230D01*
X93067968Y-102245673D01*
X93067957Y-102245672D01*
X93065654Y-102245500D01*
X92934346Y-102245500D01*
X92932043Y-102245672D01*
X92932031Y-102245673D01*
X92737774Y-102260230D01*
X92481399Y-102318746D01*
X92236617Y-102414816D01*
X92008883Y-102546298D01*
X91803290Y-102710253D01*
X91624431Y-102903018D01*
X91476296Y-103120292D01*
X91362202Y-103357212D01*
X91284691Y-103608492D01*
X91245500Y-103868517D01*
X91245500Y-104131482D01*
X88106240Y-104131482D01*
X88100618Y-104002701D01*
X88100500Y-103997293D01*
X88100500Y-101915000D01*
X115848576Y-101915000D01*
X115922600Y-102068712D01*
X116054855Y-102250745D01*
X116217491Y-102406241D01*
X116250000Y-102427700D01*
X116250000Y-101915000D01*
X117750000Y-101915000D01*
X117750000Y-102425704D01*
X117867318Y-102332146D01*
X118015359Y-102162700D01*
X118126691Y-101976361D01*
X119049500Y-101976361D01*
X119049501Y-101976372D01*
X119049501Y-101979264D01*
X119049770Y-101982140D01*
X119049771Y-101982148D01*
X119052354Y-102009695D01*
X119052354Y-102009698D01*
X119097207Y-102137882D01*
X119131450Y-102184280D01*
X119177849Y-102247150D01*
X119195574Y-102260231D01*
X119287118Y-102327793D01*
X119415302Y-102372646D01*
X119445735Y-102375500D01*
X120554264Y-102375499D01*
X120584698Y-102372646D01*
X120712882Y-102327793D01*
X120822150Y-102247150D01*
X120902793Y-102137882D01*
X120947646Y-102009698D01*
X120950500Y-101979265D01*
X120950500Y-101915000D01*
X137848576Y-101915000D01*
X137922600Y-102068712D01*
X138054855Y-102250745D01*
X138217491Y-102406241D01*
X138250000Y-102427700D01*
X138250000Y-101915000D01*
X139750000Y-101915000D01*
X139750000Y-102425704D01*
X139867318Y-102332146D01*
X140015359Y-102162700D01*
X140130762Y-101969548D01*
X140151235Y-101915000D01*
X139750000Y-101915000D01*
X138250000Y-101915000D01*
X137848576Y-101915000D01*
X120950500Y-101915000D01*
X120950500Y-101238327D01*
X138490000Y-101238327D01*
X138531318Y-101379040D01*
X138610605Y-101502413D01*
X138721438Y-101598451D01*
X138854839Y-101659373D01*
X138963527Y-101675000D01*
X139036473Y-101675000D01*
X139145161Y-101659373D01*
X139278562Y-101598451D01*
X139389395Y-101502413D01*
X139468682Y-101379040D01*
X139510000Y-101238327D01*
X139510000Y-101091673D01*
X139468682Y-100950960D01*
X139389395Y-100827587D01*
X139278562Y-100731549D01*
X139145161Y-100670627D01*
X139036473Y-100655000D01*
X138963527Y-100655000D01*
X138854839Y-100670627D01*
X138721438Y-100731549D01*
X138610605Y-100827587D01*
X138531318Y-100950960D01*
X138490000Y-101091673D01*
X138490000Y-101238327D01*
X120950500Y-101238327D01*
X120950499Y-100350736D01*
X120947646Y-100320302D01*
X120902793Y-100192118D01*
X120856393Y-100129248D01*
X120822150Y-100082849D01*
X120759280Y-100036450D01*
X120712882Y-100002207D01*
X120584698Y-99957354D01*
X120584697Y-99957353D01*
X120584695Y-99957353D01*
X120557150Y-99954770D01*
X120557138Y-99954769D01*
X120554265Y-99954500D01*
X120551372Y-99954500D01*
X119448638Y-99954500D01*
X119448616Y-99954500D01*
X119445736Y-99954501D01*
X119442860Y-99954770D01*
X119442851Y-99954771D01*
X119415301Y-99957354D01*
X119287118Y-100002207D01*
X119177849Y-100082849D01*
X119097207Y-100192118D01*
X119052353Y-100320304D01*
X119049770Y-100347849D01*
X119049770Y-100347851D01*
X119049500Y-100350735D01*
X119049500Y-100353626D01*
X119049500Y-100353627D01*
X119049500Y-101976361D01*
X118126691Y-101976361D01*
X118130762Y-101969548D01*
X118151235Y-101915000D01*
X117750000Y-101915000D01*
X116250000Y-101915000D01*
X115848576Y-101915000D01*
X88100500Y-101915000D01*
X88100500Y-101238327D01*
X116490000Y-101238327D01*
X116531318Y-101379040D01*
X116610605Y-101502413D01*
X116721438Y-101598451D01*
X116854839Y-101659373D01*
X116963527Y-101675000D01*
X117036473Y-101675000D01*
X117145161Y-101659373D01*
X117278562Y-101598451D01*
X117389395Y-101502413D01*
X117468682Y-101379040D01*
X117510000Y-101238327D01*
X117510000Y-101091673D01*
X117468682Y-100950960D01*
X117389395Y-100827587D01*
X117278562Y-100731549D01*
X117145161Y-100670627D01*
X117036473Y-100655000D01*
X116963527Y-100655000D01*
X116854839Y-100670627D01*
X116721438Y-100731549D01*
X116610605Y-100827587D01*
X116531318Y-100950960D01*
X116490000Y-101091673D01*
X116490000Y-101238327D01*
X88100500Y-101238327D01*
X88100500Y-100415000D01*
X115848764Y-100415000D01*
X116250000Y-100415000D01*
X116250000Y-99904295D01*
X116249999Y-99904295D01*
X116132679Y-99997855D01*
X115984640Y-100167299D01*
X115869237Y-100360451D01*
X115848764Y-100415000D01*
X88100500Y-100415000D01*
X88100500Y-99902298D01*
X117749999Y-99902298D01*
X117750000Y-100415000D01*
X118151423Y-100415000D01*
X118151423Y-100414999D01*
X118077399Y-100261287D01*
X117945144Y-100079254D01*
X117782508Y-99923758D01*
X117750000Y-99902298D01*
X117749999Y-99902298D01*
X88100500Y-99902298D01*
X88100500Y-95360000D01*
X123750000Y-95360000D01*
X123750000Y-95404518D01*
X123750354Y-95411132D01*
X123756400Y-95467371D01*
X123806647Y-95602089D01*
X123892811Y-95717188D01*
X124007910Y-95803352D01*
X124142628Y-95853599D01*
X124198867Y-95859645D01*
X124205482Y-95860000D01*
X125050000Y-95860000D01*
X125050000Y-95360000D01*
X123750000Y-95360000D01*
X88100500Y-95360000D01*
X88100500Y-94110000D01*
X123750000Y-94110000D01*
X125050000Y-94110000D01*
X125050000Y-93610000D01*
X124205482Y-93610000D01*
X124198867Y-93610354D01*
X124142628Y-93616400D01*
X124007910Y-93666647D01*
X123892811Y-93752811D01*
X123806647Y-93867910D01*
X123756400Y-94002628D01*
X123750354Y-94058867D01*
X123750000Y-94065481D01*
X123750000Y-94110000D01*
X88100500Y-94110000D01*
X88100500Y-93459748D01*
X97664500Y-93459748D01*
X97676132Y-93518230D01*
X97720447Y-93584552D01*
X97786769Y-93628867D01*
X97845251Y-93640500D01*
X97845252Y-93640500D01*
X104494749Y-93640500D01*
X104523989Y-93634683D01*
X104553231Y-93628867D01*
X104619552Y-93584552D01*
X104663867Y-93518231D01*
X104675500Y-93459748D01*
X104675500Y-90819748D01*
X124049500Y-90819748D01*
X124061132Y-90878230D01*
X124105447Y-90944552D01*
X124171769Y-90988867D01*
X124230251Y-91000500D01*
X124230252Y-91000500D01*
X125812034Y-91000500D01*
X125879073Y-91020185D01*
X125899715Y-91036819D01*
X127113181Y-92250284D01*
X127146666Y-92311607D01*
X127149500Y-92337965D01*
X127149500Y-93486000D01*
X127129815Y-93553039D01*
X127077011Y-93598794D01*
X127025500Y-93610000D01*
X126300000Y-93610000D01*
X126300000Y-95860000D01*
X127144518Y-95860000D01*
X127151132Y-95859645D01*
X127207371Y-95853599D01*
X127342089Y-95803352D01*
X127457188Y-95717188D01*
X127543351Y-95602090D01*
X127547269Y-95591586D01*
X127589139Y-95535652D01*
X127654603Y-95511233D01*
X127722876Y-95526083D01*
X127751129Y-95547233D01*
X131495078Y-99291181D01*
X132277630Y-100073733D01*
X132286896Y-100084101D01*
X132309120Y-100111969D01*
X132356364Y-100144180D01*
X132360141Y-100146860D01*
X132387834Y-100167299D01*
X132410973Y-100184376D01*
X132415568Y-100186695D01*
X132421325Y-100188470D01*
X132421327Y-100188472D01*
X132446351Y-100196190D01*
X132475980Y-100205330D01*
X132480371Y-100206774D01*
X132534301Y-100225646D01*
X132534303Y-100225646D01*
X132539990Y-100227636D01*
X132545071Y-100228500D01*
X132551098Y-100228500D01*
X132608246Y-100228500D01*
X132612883Y-100228586D01*
X132670010Y-100230725D01*
X132670010Y-100230724D01*
X132676026Y-100230950D01*
X132694638Y-100228500D01*
X137739776Y-100228500D01*
X137806815Y-100248185D01*
X137852570Y-100300989D01*
X137862514Y-100370147D01*
X137855869Y-100396071D01*
X137848764Y-100415000D01*
X140151423Y-100415000D01*
X140151422Y-100414999D01*
X140147234Y-100406302D01*
X140135882Y-100337360D01*
X140163604Y-100273226D01*
X140221600Y-100234260D01*
X140258954Y-100228500D01*
X140375034Y-100228500D01*
X140442073Y-100248185D01*
X140462715Y-100264819D01*
X141013181Y-100815284D01*
X141046666Y-100876607D01*
X141049500Y-100902965D01*
X141049500Y-101976361D01*
X141049501Y-101976372D01*
X141049501Y-101979264D01*
X141049770Y-101982140D01*
X141049771Y-101982148D01*
X141052354Y-102009695D01*
X141052354Y-102009698D01*
X141097207Y-102137882D01*
X141131450Y-102184280D01*
X141177849Y-102247150D01*
X141195574Y-102260231D01*
X141287118Y-102327793D01*
X141415302Y-102372646D01*
X141445735Y-102375500D01*
X142554264Y-102375499D01*
X142584698Y-102372646D01*
X142712882Y-102327793D01*
X142822150Y-102247150D01*
X142902793Y-102137882D01*
X142947646Y-102009698D01*
X142950500Y-101979265D01*
X142950499Y-100350736D01*
X142947646Y-100320302D01*
X142902793Y-100192118D01*
X142856393Y-100129248D01*
X142822150Y-100082849D01*
X142759280Y-100036450D01*
X142712882Y-100002207D01*
X142584698Y-99957354D01*
X142584697Y-99957353D01*
X142584695Y-99957353D01*
X142557150Y-99954770D01*
X142557138Y-99954769D01*
X142554265Y-99954500D01*
X142551372Y-99954500D01*
X141477965Y-99954500D01*
X141410926Y-99934815D01*
X141390284Y-99918181D01*
X140954368Y-99482265D01*
X140945102Y-99471897D01*
X140922879Y-99444030D01*
X140875608Y-99411800D01*
X140871870Y-99409148D01*
X140821035Y-99371629D01*
X140816424Y-99369302D01*
X140756049Y-99350679D01*
X140751644Y-99349230D01*
X140692023Y-99328368D01*
X140686914Y-99327500D01*
X140680902Y-99327500D01*
X140623738Y-99327500D01*
X140619101Y-99327413D01*
X140555970Y-99325050D01*
X140537365Y-99327500D01*
X132856966Y-99327500D01*
X132789927Y-99307815D01*
X132769285Y-99291181D01*
X129120284Y-95642181D01*
X129086799Y-95580858D01*
X129091783Y-95511166D01*
X129133655Y-95455233D01*
X129199119Y-95430816D01*
X129207965Y-95430500D01*
X131005500Y-95430500D01*
X131072539Y-95450185D01*
X131118294Y-95502989D01*
X131129500Y-95554499D01*
X131129500Y-95936000D01*
X131129854Y-95939297D01*
X131129855Y-95939306D01*
X131133840Y-95976372D01*
X131133842Y-95976388D01*
X131134197Y-95979684D01*
X131134903Y-95982933D01*
X131134904Y-95982934D01*
X131145403Y-96031195D01*
X131145768Y-96032732D01*
X131147878Y-96041350D01*
X131190899Y-96122085D01*
X131235399Y-96173441D01*
X131235420Y-96173464D01*
X131236655Y-96174889D01*
X131254246Y-96192843D01*
X131334063Y-96237490D01*
X131401102Y-96257175D01*
X131459000Y-96265500D01*
X131459004Y-96265500D01*
X161687678Y-96265500D01*
X161691000Y-96265500D01*
X161734684Y-96260803D01*
X161786195Y-96249597D01*
X161787732Y-96249232D01*
X161796350Y-96247121D01*
X161796368Y-96247111D01*
X161796373Y-96247110D01*
X161877085Y-96204100D01*
X161910796Y-96174889D01*
X161928441Y-96159600D01*
X161928446Y-96159595D01*
X161929889Y-96158345D01*
X161947843Y-96140754D01*
X161992490Y-96060937D01*
X162012175Y-95993898D01*
X162020500Y-95936000D01*
X162020500Y-87929000D01*
X162015803Y-87885316D01*
X162004597Y-87833805D01*
X162004232Y-87832268D01*
X162002121Y-87823649D01*
X162002110Y-87823629D01*
X162002110Y-87823627D01*
X161977348Y-87777159D01*
X161959100Y-87742914D01*
X161914600Y-87691558D01*
X161914580Y-87691536D01*
X161913345Y-87690111D01*
X161895754Y-87672157D01*
X161815937Y-87627510D01*
X161815936Y-87627509D01*
X161815935Y-87627509D01*
X161748901Y-87607826D01*
X161748898Y-87607825D01*
X161691000Y-87599500D01*
X131459000Y-87599500D01*
X131455703Y-87599854D01*
X131455693Y-87599855D01*
X131418627Y-87603840D01*
X131418608Y-87603842D01*
X131415316Y-87604197D01*
X131412069Y-87604903D01*
X131412065Y-87604904D01*
X131363805Y-87615403D01*
X131362268Y-87615768D01*
X131353649Y-87617878D01*
X131272914Y-87660899D01*
X131221558Y-87705399D01*
X131221518Y-87705435D01*
X131220111Y-87706655D01*
X131218761Y-87707977D01*
X131218752Y-87707986D01*
X131202158Y-87724243D01*
X131157510Y-87804062D01*
X131157510Y-87804063D01*
X131137825Y-87871101D01*
X131129500Y-87928999D01*
X131129500Y-87929000D01*
X131129500Y-89355500D01*
X131109815Y-89422539D01*
X131057011Y-89468294D01*
X131005500Y-89479500D01*
X128805251Y-89479500D01*
X128746769Y-89491132D01*
X128680447Y-89535447D01*
X128636132Y-89601769D01*
X128624499Y-89660251D01*
X128624499Y-94847034D01*
X128604814Y-94914073D01*
X128552010Y-94959828D01*
X128482852Y-94969772D01*
X128419296Y-94940747D01*
X128412832Y-94934728D01*
X128086819Y-94608715D01*
X128053334Y-94547392D01*
X128050500Y-94521034D01*
X128050500Y-92132261D01*
X128051280Y-92118377D01*
X128055270Y-92082966D01*
X128055270Y-92082965D01*
X128044635Y-92026761D01*
X128043864Y-92022220D01*
X128034448Y-91959744D01*
X128032842Y-91954861D01*
X128025622Y-91941202D01*
X128003296Y-91898961D01*
X128001241Y-91894892D01*
X127976425Y-91843358D01*
X127976423Y-91843356D01*
X127973807Y-91837923D01*
X127970827Y-91833723D01*
X127926165Y-91789062D01*
X127922946Y-91785721D01*
X127879958Y-91739391D01*
X127865067Y-91727964D01*
X127251262Y-91114159D01*
X127217777Y-91052836D01*
X127222761Y-90983144D01*
X127235842Y-90957586D01*
X127244550Y-90944552D01*
X127244552Y-90944552D01*
X127288867Y-90878231D01*
X127300500Y-90819748D01*
X127300500Y-89530252D01*
X127297945Y-89517409D01*
X127288867Y-89471769D01*
X127244552Y-89405447D01*
X127178230Y-89361132D01*
X127119749Y-89349500D01*
X127119748Y-89349500D01*
X124230252Y-89349500D01*
X124230251Y-89349500D01*
X124171769Y-89361132D01*
X124105447Y-89405447D01*
X124061132Y-89471769D01*
X124049500Y-89530251D01*
X124049500Y-90819748D01*
X104675500Y-90819748D01*
X104675500Y-89640252D01*
X104672105Y-89623186D01*
X104663867Y-89581769D01*
X104619552Y-89515447D01*
X104553230Y-89471132D01*
X104494749Y-89459500D01*
X104494748Y-89459500D01*
X101314748Y-89459500D01*
X97845252Y-89459500D01*
X97845251Y-89459500D01*
X97786769Y-89471132D01*
X97720447Y-89515447D01*
X97676132Y-89581769D01*
X97664500Y-89640251D01*
X97664500Y-93459748D01*
X88100500Y-93459748D01*
X88100500Y-85060000D01*
X97365000Y-85060000D01*
X97365000Y-85994518D01*
X97365354Y-86001132D01*
X97371400Y-86057371D01*
X97421647Y-86192089D01*
X97507811Y-86307188D01*
X97622910Y-86393352D01*
X97757628Y-86443599D01*
X97813867Y-86449645D01*
X97820482Y-86450000D01*
X98580000Y-86450000D01*
X98580000Y-85060000D01*
X100580000Y-85060000D01*
X100580000Y-86450000D01*
X101760000Y-86450000D01*
X101760000Y-85060000D01*
X103760000Y-85060000D01*
X103760000Y-86450000D01*
X104519518Y-86450000D01*
X104526132Y-86449645D01*
X104582371Y-86443599D01*
X104717089Y-86393352D01*
X104832188Y-86307188D01*
X104918352Y-86192089D01*
X104968599Y-86057371D01*
X104974645Y-86001132D01*
X104975000Y-85994518D01*
X104975000Y-85060000D01*
X103760000Y-85060000D01*
X101760000Y-85060000D01*
X100580000Y-85060000D01*
X98580000Y-85060000D01*
X97365000Y-85060000D01*
X88100500Y-85060000D01*
X88100500Y-84153543D01*
X98690000Y-84153543D01*
X98728898Y-84336540D01*
X98804992Y-84507451D01*
X98914958Y-84658806D01*
X99053990Y-84783991D01*
X99216011Y-84877534D01*
X99393939Y-84935346D01*
X99533361Y-84950000D01*
X99626639Y-84950000D01*
X99766061Y-84935346D01*
X99943989Y-84877534D01*
X100106010Y-84783991D01*
X100245042Y-84658806D01*
X100355008Y-84507451D01*
X100431102Y-84336540D01*
X100470000Y-84153543D01*
X101870000Y-84153543D01*
X101908898Y-84336540D01*
X101984992Y-84507451D01*
X102094958Y-84658806D01*
X102233990Y-84783991D01*
X102396011Y-84877534D01*
X102573939Y-84935346D01*
X102713361Y-84950000D01*
X102806639Y-84950000D01*
X102946061Y-84935346D01*
X103123989Y-84877534D01*
X103286010Y-84783991D01*
X103425042Y-84658806D01*
X103445972Y-84629999D01*
X122994582Y-84629999D01*
X123014224Y-84879579D01*
X123072666Y-85123011D01*
X123133082Y-85268866D01*
X123168472Y-85354305D01*
X123299280Y-85567763D01*
X123461869Y-85758131D01*
X123652237Y-85920720D01*
X123865695Y-86051528D01*
X124036572Y-86122307D01*
X124096988Y-86147333D01*
X124173894Y-86165796D01*
X124340422Y-86205776D01*
X124590000Y-86225418D01*
X124839578Y-86205776D01*
X125083011Y-86147333D01*
X125314305Y-86051528D01*
X125527763Y-85920720D01*
X125718131Y-85758131D01*
X125880720Y-85567763D01*
X126011528Y-85354305D01*
X126107333Y-85123011D01*
X126165776Y-84879578D01*
X126185418Y-84630000D01*
X126185418Y-84629999D01*
X132914582Y-84629999D01*
X132934224Y-84879579D01*
X132992666Y-85123011D01*
X133053082Y-85268866D01*
X133088472Y-85354305D01*
X133219280Y-85567763D01*
X133381869Y-85758131D01*
X133572237Y-85920720D01*
X133785695Y-86051528D01*
X133956572Y-86122307D01*
X134016988Y-86147333D01*
X134093894Y-86165796D01*
X134260422Y-86205776D01*
X134510000Y-86225418D01*
X134759578Y-86205776D01*
X135003011Y-86147333D01*
X135234305Y-86051528D01*
X135367757Y-85969748D01*
X153549500Y-85969748D01*
X153561132Y-86028230D01*
X153605447Y-86094552D01*
X153671769Y-86138867D01*
X153730251Y-86150500D01*
X153730252Y-86150500D01*
X160379749Y-86150500D01*
X160408989Y-86144683D01*
X160438231Y-86138867D01*
X160504552Y-86094552D01*
X160548867Y-86028231D01*
X160560500Y-85969748D01*
X160560500Y-82150252D01*
X160548867Y-82091769D01*
X160548867Y-82091768D01*
X160504552Y-82025447D01*
X160438230Y-81981132D01*
X160379749Y-81969500D01*
X160379748Y-81969500D01*
X157199748Y-81969500D01*
X153730252Y-81969500D01*
X153730251Y-81969500D01*
X153671769Y-81981132D01*
X153605447Y-82025447D01*
X153561132Y-82091769D01*
X153549500Y-82150251D01*
X153549500Y-85969748D01*
X135367757Y-85969748D01*
X135447763Y-85920720D01*
X135638131Y-85758131D01*
X135800720Y-85567763D01*
X135931528Y-85354305D01*
X136027333Y-85123011D01*
X136085776Y-84879578D01*
X136105418Y-84630000D01*
X136085776Y-84380422D01*
X136027333Y-84136989D01*
X135931528Y-83905695D01*
X135800720Y-83692237D01*
X135638131Y-83501869D01*
X135447763Y-83339280D01*
X135234305Y-83208472D01*
X135141425Y-83170000D01*
X135003011Y-83112666D01*
X134759579Y-83054224D01*
X134758024Y-83054101D01*
X134751872Y-83053617D01*
X134686585Y-83028734D01*
X134645114Y-82972503D01*
X134640627Y-82902778D01*
X134674549Y-82841695D01*
X134736109Y-82808649D01*
X134751869Y-82806382D01*
X134759578Y-82805776D01*
X135003011Y-82747333D01*
X135234305Y-82651528D01*
X135447763Y-82520720D01*
X135638131Y-82358131D01*
X135800720Y-82167763D01*
X135931528Y-81954305D01*
X136027333Y-81723011D01*
X136085776Y-81479578D01*
X136105418Y-81230000D01*
X136085776Y-80980422D01*
X136027333Y-80736989D01*
X135931528Y-80505695D01*
X135800720Y-80292237D01*
X135638131Y-80101869D01*
X135447763Y-79939280D01*
X135234305Y-79808472D01*
X135148866Y-79773082D01*
X135003011Y-79712666D01*
X134759579Y-79654224D01*
X134510000Y-79634582D01*
X134260420Y-79654224D01*
X134016988Y-79712666D01*
X133785693Y-79808473D01*
X133572238Y-79939279D01*
X133381869Y-80101869D01*
X133219279Y-80292238D01*
X133088473Y-80505693D01*
X132992666Y-80736988D01*
X132934224Y-80980420D01*
X132914582Y-81230000D01*
X132934224Y-81479579D01*
X132992666Y-81723011D01*
X133029863Y-81812811D01*
X133088472Y-81954305D01*
X133219280Y-82167763D01*
X133381869Y-82358131D01*
X133572237Y-82520720D01*
X133785695Y-82651528D01*
X133956572Y-82722307D01*
X134016988Y-82747333D01*
X134093894Y-82765796D01*
X134260422Y-82805776D01*
X134268127Y-82806382D01*
X134333414Y-82831266D01*
X134374885Y-82887497D01*
X134379372Y-82957222D01*
X134345450Y-83018305D01*
X134283889Y-83051351D01*
X134268130Y-83053617D01*
X134263007Y-83054020D01*
X134260420Y-83054224D01*
X134016988Y-83112666D01*
X133785693Y-83208473D01*
X133572238Y-83339279D01*
X133381869Y-83501869D01*
X133219279Y-83692238D01*
X133088473Y-83905693D01*
X132992666Y-84136988D01*
X132934224Y-84380420D01*
X132914582Y-84629999D01*
X126185418Y-84629999D01*
X126165776Y-84380422D01*
X126107333Y-84136989D01*
X126011528Y-83905695D01*
X125880720Y-83692237D01*
X125718131Y-83501869D01*
X125527763Y-83339280D01*
X125314305Y-83208472D01*
X125221425Y-83170000D01*
X125083011Y-83112666D01*
X124839579Y-83054224D01*
X124838024Y-83054101D01*
X124831872Y-83053617D01*
X124766585Y-83028734D01*
X124725114Y-82972503D01*
X124720627Y-82902778D01*
X124754549Y-82841695D01*
X124816109Y-82808649D01*
X124831869Y-82806382D01*
X124839578Y-82805776D01*
X125083011Y-82747333D01*
X125314305Y-82651528D01*
X125527763Y-82520720D01*
X125718131Y-82358131D01*
X125880720Y-82167763D01*
X126011528Y-81954305D01*
X126107333Y-81723011D01*
X126165776Y-81479578D01*
X126185418Y-81230000D01*
X126165776Y-80980422D01*
X126107333Y-80736989D01*
X126011528Y-80505695D01*
X125880720Y-80292237D01*
X125718131Y-80101869D01*
X125527763Y-79939280D01*
X125314305Y-79808472D01*
X125228866Y-79773082D01*
X125083011Y-79712666D01*
X124839579Y-79654224D01*
X124590000Y-79634582D01*
X124340420Y-79654224D01*
X124096988Y-79712666D01*
X123865693Y-79808473D01*
X123652238Y-79939279D01*
X123461869Y-80101869D01*
X123299279Y-80292238D01*
X123168473Y-80505693D01*
X123072666Y-80736988D01*
X123014224Y-80980420D01*
X122994582Y-81230000D01*
X123014224Y-81479579D01*
X123072666Y-81723011D01*
X123109863Y-81812811D01*
X123168472Y-81954305D01*
X123299280Y-82167763D01*
X123461869Y-82358131D01*
X123652237Y-82520720D01*
X123865695Y-82651528D01*
X124036572Y-82722307D01*
X124096988Y-82747333D01*
X124173894Y-82765796D01*
X124340422Y-82805776D01*
X124348127Y-82806382D01*
X124413414Y-82831266D01*
X124454885Y-82887497D01*
X124459372Y-82957222D01*
X124425450Y-83018305D01*
X124363889Y-83051351D01*
X124348130Y-83053617D01*
X124343007Y-83054020D01*
X124340420Y-83054224D01*
X124096988Y-83112666D01*
X123865693Y-83208473D01*
X123652238Y-83339279D01*
X123461869Y-83501869D01*
X123299279Y-83692238D01*
X123168473Y-83905693D01*
X123072666Y-84136988D01*
X123014224Y-84380420D01*
X122994582Y-84629999D01*
X103445972Y-84629999D01*
X103535008Y-84507451D01*
X103611102Y-84336540D01*
X103650000Y-84153543D01*
X103650000Y-83966457D01*
X103611102Y-83783460D01*
X103535008Y-83612549D01*
X103425042Y-83461194D01*
X103286010Y-83336009D01*
X103123989Y-83242466D01*
X102946061Y-83184654D01*
X102806639Y-83170000D01*
X102713361Y-83170000D01*
X102573939Y-83184654D01*
X102396011Y-83242466D01*
X102233990Y-83336009D01*
X102094958Y-83461194D01*
X101984992Y-83612549D01*
X101908898Y-83783460D01*
X101870000Y-83966457D01*
X101870000Y-84153543D01*
X100470000Y-84153543D01*
X100470000Y-83966457D01*
X100431102Y-83783460D01*
X100355008Y-83612549D01*
X100245042Y-83461194D01*
X100106010Y-83336009D01*
X99943989Y-83242466D01*
X99766061Y-83184654D01*
X99626639Y-83170000D01*
X99533361Y-83170000D01*
X99393939Y-83184654D01*
X99216011Y-83242466D01*
X99053990Y-83336009D01*
X98914958Y-83461194D01*
X98804992Y-83612549D01*
X98728898Y-83783460D01*
X98690000Y-83966457D01*
X98690000Y-84153543D01*
X88100500Y-84153543D01*
X88100500Y-83060000D01*
X97365000Y-83060000D01*
X98580000Y-83060000D01*
X98580000Y-81670000D01*
X100580000Y-81670000D01*
X100580000Y-83060000D01*
X101760000Y-83060000D01*
X101760000Y-81670000D01*
X103760000Y-81670000D01*
X103760000Y-83060000D01*
X104975000Y-83060000D01*
X104975000Y-82125481D01*
X104974645Y-82118867D01*
X104968599Y-82062628D01*
X104918352Y-81927910D01*
X104832188Y-81812811D01*
X104717089Y-81726647D01*
X104582371Y-81676400D01*
X104526132Y-81670354D01*
X104519518Y-81670000D01*
X103760000Y-81670000D01*
X101760000Y-81670000D01*
X100580000Y-81670000D01*
X98580000Y-81670000D01*
X97820482Y-81670000D01*
X97813867Y-81670354D01*
X97757628Y-81676400D01*
X97622910Y-81726647D01*
X97507811Y-81812811D01*
X97421647Y-81927910D01*
X97371400Y-82062628D01*
X97365354Y-82118867D01*
X97365000Y-82125481D01*
X97365000Y-83060000D01*
X88100500Y-83060000D01*
X88100500Y-70122677D01*
X96544499Y-70122677D01*
X96544500Y-70122695D01*
X96544500Y-70126000D01*
X96544854Y-70129297D01*
X96544855Y-70129306D01*
X96548840Y-70166372D01*
X96548842Y-70166388D01*
X96549197Y-70169684D01*
X96549903Y-70172933D01*
X96549904Y-70172934D01*
X96560403Y-70221195D01*
X96560768Y-70222732D01*
X96562878Y-70231350D01*
X96605899Y-70312085D01*
X96650399Y-70363441D01*
X96650420Y-70363464D01*
X96651655Y-70364889D01*
X96669246Y-70382843D01*
X96749063Y-70427490D01*
X96816102Y-70447175D01*
X96874000Y-70455500D01*
X96874004Y-70455500D01*
X121505500Y-70455500D01*
X121572539Y-70475185D01*
X121618294Y-70527989D01*
X121629500Y-70579500D01*
X121629500Y-72232271D01*
X121609815Y-72299310D01*
X121557011Y-72345065D01*
X121487853Y-72355009D01*
X121424297Y-72325984D01*
X121417819Y-72319952D01*
X121342040Y-72244173D01*
X121342039Y-72244173D01*
X121342037Y-72244170D01*
X121163874Y-72119419D01*
X120966755Y-72027500D01*
X120912446Y-72012948D01*
X120756667Y-71971207D01*
X120540000Y-71952251D01*
X120323332Y-71971207D01*
X120113244Y-72027500D01*
X120002227Y-72079269D01*
X119916126Y-72119419D01*
X119889944Y-72137752D01*
X119737959Y-72244173D01*
X119584173Y-72397959D01*
X119459418Y-72576128D01*
X119367500Y-72773244D01*
X119311207Y-72983332D01*
X119292251Y-73200000D01*
X119311207Y-73416667D01*
X119311208Y-73416669D01*
X119367500Y-73626755D01*
X119459419Y-73823874D01*
X119584170Y-74002037D01*
X119737963Y-74155830D01*
X119916126Y-74280581D01*
X120113245Y-74372500D01*
X120323331Y-74428792D01*
X120540000Y-74447748D01*
X120756669Y-74428792D01*
X120966755Y-74372500D01*
X121163874Y-74280581D01*
X121342037Y-74155830D01*
X121495830Y-74002037D01*
X121585774Y-73873583D01*
X121640349Y-73829960D01*
X121709847Y-73822766D01*
X121772202Y-73854289D01*
X121793619Y-73884591D01*
X121794332Y-73884126D01*
X121799948Y-73892723D01*
X121799951Y-73892728D01*
X121931429Y-74093969D01*
X122094236Y-74270825D01*
X122094239Y-74270827D01*
X122283927Y-74418468D01*
X122283929Y-74418469D01*
X122283933Y-74418472D01*
X122495344Y-74532882D01*
X122722703Y-74610934D01*
X122959808Y-74650500D01*
X122959809Y-74650500D01*
X123200191Y-74650500D01*
X123200192Y-74650500D01*
X123437297Y-74610934D01*
X123664656Y-74532882D01*
X123876067Y-74418472D01*
X124065764Y-74270825D01*
X124161773Y-74166530D01*
X124221655Y-74130543D01*
X124291493Y-74132642D01*
X124349110Y-74172166D01*
X124376212Y-74236565D01*
X124376999Y-74250511D01*
X124376999Y-74262246D01*
X124388632Y-74320730D01*
X124432947Y-74387052D01*
X124499269Y-74431367D01*
X124557751Y-74443000D01*
X124557752Y-74443000D01*
X126682249Y-74443000D01*
X126711489Y-74437183D01*
X126740731Y-74431367D01*
X126807052Y-74387052D01*
X126851367Y-74320731D01*
X126863000Y-74262248D01*
X126863000Y-72137752D01*
X126851367Y-72079269D01*
X126851367Y-72079268D01*
X126807052Y-72012947D01*
X126740730Y-71968632D01*
X126682249Y-71957000D01*
X126682248Y-71957000D01*
X126194500Y-71957000D01*
X126127461Y-71937315D01*
X126081706Y-71884511D01*
X126070500Y-71833000D01*
X126070500Y-68852000D01*
X126090185Y-68784961D01*
X126142989Y-68739206D01*
X126194500Y-68728000D01*
X126682249Y-68728000D01*
X126711489Y-68722183D01*
X126740731Y-68716367D01*
X126807052Y-68672052D01*
X126851367Y-68605731D01*
X126863000Y-68547248D01*
X126863000Y-66753686D01*
X126882685Y-66686648D01*
X126899319Y-66666006D01*
X128287870Y-65277455D01*
X129185898Y-64379427D01*
X129247220Y-64345943D01*
X129316912Y-64350927D01*
X129372845Y-64392799D01*
X129397262Y-64458263D01*
X129396517Y-64483294D01*
X129394317Y-64499999D01*
X129414956Y-64656762D01*
X129475463Y-64802840D01*
X129571717Y-64928282D01*
X129609334Y-64957146D01*
X129697159Y-65024536D01*
X129843238Y-65085044D01*
X130000000Y-65105682D01*
X130156762Y-65085044D01*
X130302841Y-65024536D01*
X130428282Y-64928282D01*
X130469923Y-64874013D01*
X130526350Y-64832811D01*
X130568299Y-64825500D01*
X136971525Y-64825500D01*
X136998812Y-64825500D01*
X137065851Y-64845185D01*
X137086493Y-64861819D01*
X137227990Y-65003316D01*
X137245985Y-65026766D01*
X137275742Y-65051735D01*
X137283716Y-65059042D01*
X137323181Y-65098507D01*
X137356666Y-65159827D01*
X137359500Y-65186187D01*
X137359500Y-66158000D01*
X137339815Y-66225039D01*
X137287011Y-66270794D01*
X137235500Y-66282000D01*
X136622751Y-66282000D01*
X136564269Y-66293632D01*
X136497947Y-66337947D01*
X136453632Y-66404269D01*
X136442000Y-66462751D01*
X136442000Y-66474483D01*
X136422315Y-66541522D01*
X136369511Y-66587277D01*
X136300353Y-66597221D01*
X136236797Y-66568196D01*
X136226770Y-66558466D01*
X136208751Y-66538892D01*
X136130764Y-66454175D01*
X136078568Y-66413549D01*
X135941072Y-66306531D01*
X135941068Y-66306528D01*
X135941067Y-66306528D01*
X135729656Y-66192118D01*
X135729655Y-66192117D01*
X135729652Y-66192116D01*
X135502299Y-66114066D01*
X135344226Y-66087688D01*
X135265192Y-66074500D01*
X135024808Y-66074500D01*
X134965531Y-66084391D01*
X134787700Y-66114066D01*
X134560347Y-66192116D01*
X134348927Y-66306531D01*
X134159239Y-66454172D01*
X134159236Y-66454174D01*
X134159236Y-66454175D01*
X133996429Y-66631031D01*
X133864951Y-66832272D01*
X133864949Y-66832276D01*
X133859332Y-66840874D01*
X133857730Y-66839827D01*
X133820939Y-66883592D01*
X133754201Y-66904277D01*
X133686875Y-66885597D01*
X133650772Y-66851414D01*
X133614650Y-66799827D01*
X133560830Y-66722963D01*
X133407037Y-66569170D01*
X133228874Y-66444419D01*
X133031755Y-66352500D01*
X132977446Y-66337948D01*
X132821667Y-66296207D01*
X132604999Y-66277251D01*
X132388332Y-66296207D01*
X132178244Y-66352500D01*
X132005481Y-66433062D01*
X131981126Y-66444419D01*
X131818250Y-66558466D01*
X131802959Y-66569173D01*
X131649173Y-66722959D01*
X131649170Y-66722962D01*
X131649170Y-66722963D01*
X131534875Y-66886194D01*
X131524418Y-66901128D01*
X131432500Y-67098244D01*
X131376207Y-67308332D01*
X131357251Y-67524999D01*
X131376207Y-67741667D01*
X131376208Y-67741669D01*
X131432500Y-67951755D01*
X131524419Y-68148874D01*
X131649170Y-68327037D01*
X131802963Y-68480830D01*
X131981126Y-68605581D01*
X132178245Y-68697500D01*
X132388331Y-68753792D01*
X132417764Y-68756367D01*
X132604999Y-68772748D01*
X132604999Y-68772747D01*
X132605000Y-68772748D01*
X132821669Y-68753792D01*
X133031755Y-68697500D01*
X133228874Y-68605581D01*
X133407037Y-68480830D01*
X133482821Y-68405045D01*
X133544139Y-68371562D01*
X133613831Y-68376546D01*
X133669765Y-68418416D01*
X133694183Y-68483880D01*
X133694499Y-68492728D01*
X133694499Y-72232270D01*
X133674814Y-72299309D01*
X133622010Y-72345064D01*
X133552852Y-72355008D01*
X133489296Y-72325983D01*
X133482818Y-72319951D01*
X133407040Y-72244173D01*
X133407037Y-72244170D01*
X133228874Y-72119419D01*
X133031755Y-72027500D01*
X132977446Y-72012948D01*
X132821667Y-71971207D01*
X132605000Y-71952251D01*
X132388332Y-71971207D01*
X132178244Y-72027500D01*
X132067227Y-72079269D01*
X131981126Y-72119419D01*
X131954944Y-72137752D01*
X131802959Y-72244173D01*
X131649173Y-72397959D01*
X131524418Y-72576128D01*
X131432500Y-72773244D01*
X131376207Y-72983332D01*
X131357251Y-73199999D01*
X131376207Y-73416667D01*
X131376208Y-73416669D01*
X131432500Y-73626755D01*
X131524419Y-73823874D01*
X131649170Y-74002037D01*
X131802963Y-74155830D01*
X131981126Y-74280581D01*
X132178245Y-74372500D01*
X132388331Y-74428792D01*
X132605000Y-74447748D01*
X132821669Y-74428792D01*
X133031755Y-74372500D01*
X133228874Y-74280581D01*
X133407037Y-74155830D01*
X133560830Y-74002037D01*
X133650774Y-73873583D01*
X133705349Y-73829960D01*
X133774847Y-73822766D01*
X133837202Y-73854289D01*
X133858619Y-73884591D01*
X133859332Y-73884126D01*
X133864948Y-73892723D01*
X133864951Y-73892728D01*
X133996429Y-74093969D01*
X134159236Y-74270825D01*
X134159239Y-74270827D01*
X134348927Y-74418468D01*
X134348929Y-74418469D01*
X134348933Y-74418472D01*
X134560344Y-74532882D01*
X134787703Y-74610934D01*
X135024808Y-74650500D01*
X135024809Y-74650500D01*
X135265191Y-74650500D01*
X135265192Y-74650500D01*
X135502297Y-74610934D01*
X135729656Y-74532882D01*
X135941067Y-74418472D01*
X136130764Y-74270825D01*
X136226770Y-74166533D01*
X136286657Y-74130543D01*
X136356495Y-74132643D01*
X136414111Y-74172166D01*
X136441213Y-74236566D01*
X136442000Y-74250516D01*
X136442000Y-74262248D01*
X136453632Y-74320730D01*
X136497947Y-74387052D01*
X136564269Y-74431367D01*
X136622751Y-74443000D01*
X136622752Y-74443000D01*
X138747249Y-74443000D01*
X138776489Y-74437183D01*
X138805731Y-74431367D01*
X138872052Y-74387052D01*
X138916367Y-74320731D01*
X138928000Y-74262248D01*
X138928000Y-72137752D01*
X138916367Y-72079269D01*
X138916367Y-72079268D01*
X138872052Y-72012947D01*
X138805730Y-71968632D01*
X138747249Y-71957000D01*
X138747248Y-71957000D01*
X138259500Y-71957000D01*
X138192461Y-71937315D01*
X138146706Y-71884511D01*
X138135500Y-71833000D01*
X138135500Y-68892000D01*
X138155185Y-68824961D01*
X138207989Y-68779206D01*
X138259500Y-68768000D01*
X138747249Y-68768000D01*
X138776489Y-68762183D01*
X138805731Y-68756367D01*
X138872052Y-68712052D01*
X138916367Y-68645731D01*
X138928000Y-68587248D01*
X138928000Y-68485000D01*
X153250000Y-68485000D01*
X153250000Y-69419518D01*
X153250354Y-69426132D01*
X153256400Y-69482371D01*
X153306647Y-69617089D01*
X153392811Y-69732188D01*
X153507910Y-69818352D01*
X153642628Y-69868599D01*
X153698867Y-69874645D01*
X153705482Y-69875000D01*
X154465000Y-69875000D01*
X154465000Y-68485000D01*
X156465000Y-68485000D01*
X156465000Y-69875000D01*
X157645000Y-69875000D01*
X157645000Y-68485000D01*
X159645000Y-68485000D01*
X159645000Y-69875000D01*
X160404518Y-69875000D01*
X160411132Y-69874645D01*
X160467371Y-69868599D01*
X160602089Y-69818352D01*
X160717188Y-69732188D01*
X160803352Y-69617089D01*
X160853599Y-69482371D01*
X160859645Y-69426132D01*
X160860000Y-69419518D01*
X160860000Y-68485000D01*
X159645000Y-68485000D01*
X157645000Y-68485000D01*
X156465000Y-68485000D01*
X154465000Y-68485000D01*
X153250000Y-68485000D01*
X138928000Y-68485000D01*
X138928000Y-67578543D01*
X154575000Y-67578543D01*
X154613898Y-67761540D01*
X154689992Y-67932451D01*
X154799958Y-68083806D01*
X154938990Y-68208991D01*
X155101011Y-68302534D01*
X155278939Y-68360346D01*
X155418361Y-68375000D01*
X155511639Y-68375000D01*
X155651061Y-68360346D01*
X155828989Y-68302534D01*
X155991010Y-68208991D01*
X156130042Y-68083806D01*
X156240008Y-67932451D01*
X156316102Y-67761540D01*
X156355000Y-67578543D01*
X157755000Y-67578543D01*
X157793898Y-67761540D01*
X157869992Y-67932451D01*
X157979958Y-68083806D01*
X158118990Y-68208991D01*
X158281011Y-68302534D01*
X158458939Y-68360346D01*
X158598361Y-68375000D01*
X158691639Y-68375000D01*
X158831061Y-68360346D01*
X159008989Y-68302534D01*
X159171010Y-68208991D01*
X159310042Y-68083806D01*
X159420008Y-67932451D01*
X159496102Y-67761540D01*
X159535000Y-67578543D01*
X159535000Y-67391457D01*
X159496102Y-67208460D01*
X159420008Y-67037549D01*
X159310042Y-66886194D01*
X159171010Y-66761009D01*
X159008989Y-66667466D01*
X158831061Y-66609654D01*
X158691639Y-66595000D01*
X158598361Y-66595000D01*
X158458939Y-66609654D01*
X158281011Y-66667466D01*
X158118990Y-66761009D01*
X157979958Y-66886194D01*
X157869992Y-67037549D01*
X157793898Y-67208460D01*
X157755000Y-67391457D01*
X157755000Y-67578543D01*
X156355000Y-67578543D01*
X156355000Y-67391457D01*
X156316102Y-67208460D01*
X156240008Y-67037549D01*
X156130042Y-66886194D01*
X155991010Y-66761009D01*
X155828989Y-66667466D01*
X155651061Y-66609654D01*
X155511639Y-66595000D01*
X155418361Y-66595000D01*
X155278939Y-66609654D01*
X155101011Y-66667466D01*
X154938990Y-66761009D01*
X154799958Y-66886194D01*
X154689992Y-67037549D01*
X154613898Y-67208460D01*
X154575000Y-67391457D01*
X154575000Y-67578543D01*
X138928000Y-67578543D01*
X138928000Y-66485000D01*
X153250000Y-66485000D01*
X154465000Y-66485000D01*
X154465000Y-65095000D01*
X156465000Y-65095000D01*
X156465000Y-66485000D01*
X157645000Y-66485000D01*
X157645000Y-65095000D01*
X159645000Y-65095000D01*
X159645000Y-66485000D01*
X160860000Y-66485000D01*
X160860000Y-65550481D01*
X160859645Y-65543867D01*
X160853599Y-65487628D01*
X160803352Y-65352910D01*
X160717188Y-65237811D01*
X160602089Y-65151647D01*
X160467371Y-65101400D01*
X160411132Y-65095354D01*
X160404518Y-65095000D01*
X159645000Y-65095000D01*
X157645000Y-65095000D01*
X156465000Y-65095000D01*
X154465000Y-65095000D01*
X153705482Y-65095000D01*
X153698867Y-65095354D01*
X153642628Y-65101400D01*
X153507910Y-65151647D01*
X153392811Y-65237811D01*
X153306647Y-65352910D01*
X153256400Y-65487628D01*
X153250354Y-65543867D01*
X153250000Y-65550481D01*
X153250000Y-66485000D01*
X138928000Y-66485000D01*
X138928000Y-66462752D01*
X138926293Y-66454172D01*
X138916367Y-66404269D01*
X138872052Y-66337947D01*
X138805730Y-66293632D01*
X138747249Y-66282000D01*
X138747248Y-66282000D01*
X138134500Y-66282000D01*
X138067461Y-66262315D01*
X138021706Y-66209511D01*
X138010500Y-66158000D01*
X138010500Y-65019627D01*
X138010972Y-65008818D01*
X138014264Y-64971194D01*
X138014263Y-64971192D01*
X138014357Y-64970123D01*
X138010500Y-64940821D01*
X138010500Y-64374179D01*
X138014358Y-64344878D01*
X138010972Y-64306175D01*
X138010500Y-64295368D01*
X138010500Y-64059180D01*
X138014358Y-64029879D01*
X138010972Y-63991176D01*
X138010500Y-63980369D01*
X138010500Y-62779615D01*
X138010972Y-62768807D01*
X138014263Y-62731194D01*
X138014263Y-62731193D01*
X138004483Y-62694697D01*
X138002144Y-62684140D01*
X138000621Y-62675500D01*
X137995588Y-62646955D01*
X137995587Y-62646954D01*
X137995400Y-62645891D01*
X137985173Y-62621201D01*
X137984554Y-62620317D01*
X137984554Y-62620316D01*
X137962878Y-62589360D01*
X137957085Y-62580266D01*
X137938194Y-62547545D01*
X137909261Y-62523267D01*
X137901286Y-62515959D01*
X137473007Y-62087679D01*
X137439522Y-62026356D01*
X137444506Y-61956664D01*
X137473005Y-61912319D01*
X138155290Y-61230034D01*
X138163258Y-61222734D01*
X138192192Y-61198457D01*
X138192192Y-61198456D01*
X138192194Y-61198455D01*
X138211091Y-61165722D01*
X138216887Y-61156625D01*
X138238554Y-61125684D01*
X138238554Y-61125682D01*
X138239173Y-61124799D01*
X138249399Y-61100112D01*
X138249586Y-61099047D01*
X138249588Y-61099045D01*
X138256149Y-61061830D01*
X138258478Y-61051324D01*
X138268264Y-61014807D01*
X138267083Y-61001311D01*
X138264972Y-60977176D01*
X138264500Y-60966369D01*
X138264500Y-53442500D01*
X138284185Y-53375461D01*
X138336989Y-53329706D01*
X138388500Y-53318500D01*
X138958749Y-53318500D01*
X138999404Y-53310413D01*
X139017231Y-53306867D01*
X139083552Y-53262552D01*
X139127867Y-53196231D01*
X139139500Y-53137748D01*
X141818500Y-53137748D01*
X141830132Y-53196230D01*
X141874447Y-53262552D01*
X141940769Y-53306867D01*
X141999251Y-53318500D01*
X141999252Y-53318500D01*
X142569500Y-53318500D01*
X142636539Y-53338185D01*
X142682294Y-53390989D01*
X142693500Y-53442500D01*
X142693500Y-59661872D01*
X142693028Y-59672680D01*
X142689735Y-59710307D01*
X142699512Y-59746796D01*
X142701853Y-59757352D01*
X142708599Y-59795607D01*
X142718829Y-59820303D01*
X142719446Y-59821184D01*
X142741112Y-59852127D01*
X142746915Y-59861236D01*
X142765806Y-59893955D01*
X142773372Y-59900304D01*
X142794742Y-59918235D01*
X142802718Y-59925544D01*
X144070620Y-61193446D01*
X144104105Y-61254769D01*
X144101336Y-61299991D01*
X144103768Y-61300220D01*
X144099770Y-61342848D01*
X144099769Y-61342861D01*
X144099500Y-61345734D01*
X144099500Y-61979266D01*
X144099769Y-61982139D01*
X144099770Y-61982151D01*
X144102353Y-62009696D01*
X144147207Y-62137884D01*
X144227849Y-62247150D01*
X144337115Y-62327792D01*
X144345621Y-62330768D01*
X144465301Y-62372646D01*
X144495734Y-62375500D01*
X144498627Y-62375500D01*
X145501373Y-62375500D01*
X145504266Y-62375500D01*
X145534699Y-62372646D01*
X145662882Y-62327793D01*
X145662882Y-62327792D01*
X145662884Y-62327792D01*
X145772150Y-62247150D01*
X145852792Y-62137884D01*
X145856570Y-62127089D01*
X145876179Y-62071046D01*
X145916902Y-62014269D01*
X145981855Y-61988522D01*
X145993222Y-61988000D01*
X146115752Y-61988000D01*
X146182791Y-62007685D01*
X146212625Y-62042115D01*
X146215526Y-62039890D01*
X146321717Y-62178282D01*
X146440919Y-62269748D01*
X146447159Y-62274536D01*
X146593238Y-62335044D01*
X146750000Y-62355682D01*
X146906762Y-62335044D01*
X147052841Y-62274536D01*
X147178282Y-62178282D01*
X147274536Y-62052841D01*
X147335044Y-61906762D01*
X147335309Y-61904748D01*
X153549500Y-61904748D01*
X153561132Y-61963230D01*
X153605447Y-62029552D01*
X153671769Y-62073867D01*
X153730251Y-62085500D01*
X153730252Y-62085500D01*
X160379749Y-62085500D01*
X160417900Y-62077911D01*
X160438231Y-62073867D01*
X160504552Y-62029552D01*
X160548867Y-61963231D01*
X160560500Y-61904748D01*
X160560500Y-58085252D01*
X160548867Y-58026769D01*
X160540849Y-58014769D01*
X160504552Y-57960447D01*
X160438230Y-57916132D01*
X160379749Y-57904500D01*
X160379748Y-57904500D01*
X157199748Y-57904500D01*
X153730252Y-57904500D01*
X153730251Y-57904500D01*
X153671769Y-57916132D01*
X153605447Y-57960447D01*
X153561132Y-58026769D01*
X153549500Y-58085251D01*
X153549500Y-61904748D01*
X147335309Y-61904748D01*
X147355682Y-61750000D01*
X147335044Y-61593238D01*
X147274536Y-61447159D01*
X147239270Y-61401199D01*
X147178282Y-61321717D01*
X147052840Y-61225463D01*
X146906762Y-61164956D01*
X146750000Y-61144317D01*
X146593237Y-61164956D01*
X146447159Y-61225463D01*
X146389439Y-61269754D01*
X146335196Y-61311375D01*
X146270029Y-61336570D01*
X146259711Y-61337000D01*
X145993222Y-61337000D01*
X145926183Y-61317315D01*
X145880428Y-61264511D01*
X145876180Y-61253954D01*
X145852792Y-61187115D01*
X145772150Y-61077849D01*
X145662884Y-60997207D01*
X145534696Y-60952353D01*
X145507151Y-60949770D01*
X145507139Y-60949769D01*
X145504266Y-60949500D01*
X145501373Y-60949500D01*
X144798688Y-60949500D01*
X144731649Y-60929815D01*
X144711007Y-60913181D01*
X144560007Y-60762181D01*
X144526522Y-60700858D01*
X144531506Y-60631166D01*
X144573378Y-60575233D01*
X144638842Y-60550816D01*
X144647688Y-60550500D01*
X145501373Y-60550500D01*
X145504266Y-60550500D01*
X145534699Y-60547646D01*
X145662882Y-60502793D01*
X145662882Y-60502792D01*
X145662884Y-60502792D01*
X145772150Y-60422150D01*
X145852792Y-60312884D01*
X145853467Y-60310955D01*
X145897646Y-60184699D01*
X145900500Y-60154266D01*
X145900500Y-59520734D01*
X145897646Y-59490301D01*
X145852793Y-59362118D01*
X145852792Y-59362115D01*
X145772150Y-59252849D01*
X145662884Y-59172207D01*
X145534696Y-59127353D01*
X145507151Y-59124770D01*
X145507139Y-59124769D01*
X145504266Y-59124500D01*
X145501373Y-59124500D01*
X145449500Y-59124500D01*
X145382461Y-59104815D01*
X145336706Y-59052011D01*
X145325500Y-59000500D01*
X145325500Y-58499500D01*
X145345185Y-58432461D01*
X145397989Y-58386706D01*
X145449500Y-58375500D01*
X145506870Y-58375500D01*
X145509764Y-58375500D01*
X145539774Y-58372686D01*
X145666179Y-58328455D01*
X145773930Y-58248930D01*
X145853455Y-58141179D01*
X145897686Y-58014774D01*
X145900500Y-57984764D01*
X145900500Y-57390236D01*
X145897686Y-57360226D01*
X145853455Y-57233821D01*
X145820438Y-57189085D01*
X145773930Y-57126069D01*
X145720054Y-57086307D01*
X145666179Y-57046545D01*
X145604178Y-57024849D01*
X145547405Y-56984130D01*
X145521657Y-56919178D01*
X145535113Y-56850616D01*
X145583500Y-56800213D01*
X145606131Y-56790104D01*
X145772710Y-56734905D01*
X145920692Y-56643629D01*
X146043629Y-56520692D01*
X146134905Y-56372710D01*
X146158999Y-56300000D01*
X143841001Y-56300000D01*
X143865094Y-56372710D01*
X143956370Y-56520692D01*
X144079307Y-56643629D01*
X144227289Y-56734905D01*
X144393868Y-56790104D01*
X144451313Y-56829877D01*
X144478136Y-56894393D01*
X144465821Y-56963168D01*
X144418278Y-57014368D01*
X144395819Y-57024851D01*
X144333822Y-57046544D01*
X144226069Y-57126069D01*
X144146546Y-57233819D01*
X144102313Y-57360230D01*
X144099770Y-57387348D01*
X144099769Y-57387365D01*
X144099500Y-57390236D01*
X144099500Y-57984764D01*
X144099769Y-57987635D01*
X144099770Y-57987651D01*
X144102313Y-58014769D01*
X144102313Y-58014771D01*
X144102314Y-58014774D01*
X144146545Y-58141179D01*
X144146546Y-58141180D01*
X144226069Y-58248930D01*
X144289085Y-58295438D01*
X144333821Y-58328455D01*
X144460226Y-58372686D01*
X144490236Y-58375500D01*
X144550500Y-58375500D01*
X144617539Y-58395185D01*
X144663294Y-58447989D01*
X144674500Y-58499500D01*
X144674500Y-59000500D01*
X144654815Y-59067539D01*
X144602011Y-59113294D01*
X144550500Y-59124500D01*
X144495734Y-59124500D01*
X144492861Y-59124769D01*
X144492848Y-59124770D01*
X144465303Y-59127353D01*
X144337115Y-59172207D01*
X144227849Y-59252849D01*
X144147207Y-59362115D01*
X144102353Y-59490303D01*
X144099770Y-59517848D01*
X144099769Y-59517861D01*
X144099500Y-59520734D01*
X144099500Y-59523626D01*
X144099500Y-60002311D01*
X144079815Y-60069350D01*
X144027011Y-60115105D01*
X143957853Y-60125049D01*
X143894297Y-60096024D01*
X143887819Y-60089992D01*
X143380819Y-59582992D01*
X143347334Y-59521669D01*
X143344500Y-59495311D01*
X143344500Y-55325000D01*
X143841001Y-55325000D01*
X144512500Y-55325000D01*
X144512500Y-54825000D01*
X145487500Y-54825000D01*
X145487500Y-55325000D01*
X146158998Y-55325000D01*
X146134905Y-55252289D01*
X146043629Y-55104307D01*
X145920692Y-54981370D01*
X145772710Y-54890094D01*
X145607673Y-54835406D01*
X145508938Y-54825319D01*
X145502661Y-54825000D01*
X145487500Y-54825000D01*
X144512500Y-54825000D01*
X144497339Y-54825000D01*
X144491061Y-54825319D01*
X144392326Y-54835406D01*
X144227289Y-54890094D01*
X144079307Y-54981370D01*
X143956370Y-55104307D01*
X143865094Y-55252289D01*
X143841001Y-55325000D01*
X143344500Y-55325000D01*
X143344500Y-53442500D01*
X143364185Y-53375461D01*
X143416989Y-53329706D01*
X143468500Y-53318500D01*
X144038749Y-53318500D01*
X144079404Y-53310413D01*
X144097231Y-53306867D01*
X144163552Y-53262552D01*
X144207867Y-53196231D01*
X144219500Y-53137748D01*
X144219500Y-53118000D01*
X146472000Y-53118000D01*
X146472000Y-53162518D01*
X146472354Y-53169132D01*
X146478400Y-53225371D01*
X146528647Y-53360089D01*
X146614811Y-53475188D01*
X146729910Y-53561352D01*
X146864628Y-53611599D01*
X146920867Y-53617645D01*
X146927482Y-53618000D01*
X146972000Y-53618000D01*
X146972000Y-53118000D01*
X148972000Y-53118000D01*
X148972000Y-53618000D01*
X149016518Y-53618000D01*
X149023132Y-53617645D01*
X149079371Y-53611599D01*
X149214089Y-53561352D01*
X149329188Y-53475188D01*
X149415352Y-53360089D01*
X149465599Y-53225371D01*
X149471645Y-53169132D01*
X149472000Y-53162518D01*
X149472000Y-53118000D01*
X148972000Y-53118000D01*
X146972000Y-53118000D01*
X146472000Y-53118000D01*
X144219500Y-53118000D01*
X144219500Y-51118000D01*
X146472000Y-51118000D01*
X146972000Y-51118000D01*
X146972000Y-50618000D01*
X148972000Y-50618000D01*
X148972000Y-51118000D01*
X149472000Y-51118000D01*
X149472000Y-51073481D01*
X149471645Y-51066867D01*
X149465599Y-51010628D01*
X149415352Y-50875910D01*
X149329188Y-50760811D01*
X149214089Y-50674647D01*
X149079371Y-50624400D01*
X149023132Y-50618354D01*
X149016518Y-50618000D01*
X148972000Y-50618000D01*
X146972000Y-50618000D01*
X146927482Y-50618000D01*
X146920867Y-50618354D01*
X146864628Y-50624400D01*
X146729910Y-50674647D01*
X146614811Y-50760811D01*
X146528647Y-50875910D01*
X146478400Y-51010628D01*
X146472354Y-51066867D01*
X146472000Y-51073481D01*
X146472000Y-51118000D01*
X144219500Y-51118000D01*
X144219500Y-51098252D01*
X144207867Y-51039769D01*
X144163552Y-50973447D01*
X144097230Y-50929132D01*
X144038749Y-50917500D01*
X144038748Y-50917500D01*
X141999252Y-50917500D01*
X141999251Y-50917500D01*
X141940769Y-50929132D01*
X141874447Y-50973447D01*
X141830132Y-51039769D01*
X141818500Y-51098251D01*
X141818500Y-53137748D01*
X139139500Y-53137748D01*
X139139500Y-51098252D01*
X139127867Y-51039769D01*
X139083552Y-50973447D01*
X139017230Y-50929132D01*
X138958749Y-50917500D01*
X138958748Y-50917500D01*
X136919252Y-50917500D01*
X136919251Y-50917500D01*
X136860769Y-50929132D01*
X136794447Y-50973447D01*
X136750132Y-51039769D01*
X136738500Y-51098251D01*
X136738500Y-53137748D01*
X136750132Y-53196230D01*
X136794447Y-53262552D01*
X136860769Y-53306867D01*
X136919251Y-53318500D01*
X136919252Y-53318500D01*
X137489500Y-53318500D01*
X137556539Y-53338185D01*
X137602294Y-53390989D01*
X137613500Y-53442500D01*
X137613500Y-60799811D01*
X137593815Y-60866850D01*
X137577181Y-60887492D01*
X136887181Y-61577492D01*
X136825858Y-61610977D01*
X136756166Y-61605993D01*
X136700233Y-61564121D01*
X136675816Y-61498657D01*
X136675500Y-61489811D01*
X136675500Y-61130251D01*
X136663867Y-61071769D01*
X136619552Y-61005447D01*
X136553230Y-60961132D01*
X136494749Y-60949500D01*
X136494748Y-60949500D01*
X135705252Y-60949500D01*
X135705251Y-60949500D01*
X135646769Y-60961132D01*
X135580446Y-61005448D01*
X135552601Y-61047122D01*
X135498989Y-61091926D01*
X135429664Y-61100633D01*
X135366637Y-61070478D01*
X135329918Y-61011034D01*
X135325500Y-60978230D01*
X135325500Y-60443618D01*
X135325972Y-60432810D01*
X135329263Y-60395191D01*
X135319486Y-60358704D01*
X135317144Y-60348140D01*
X135310928Y-60312884D01*
X135310588Y-60310955D01*
X135310587Y-60310954D01*
X135310400Y-60309891D01*
X135300173Y-60285201D01*
X135299554Y-60284317D01*
X135299554Y-60284316D01*
X135277878Y-60253360D01*
X135272085Y-60244266D01*
X135253194Y-60211545D01*
X135224261Y-60187267D01*
X135216286Y-60179959D01*
X128759327Y-53723000D01*
X129397576Y-53723000D01*
X129471600Y-53876712D01*
X129603855Y-54058745D01*
X129766491Y-54214241D01*
X129799000Y-54235700D01*
X129799000Y-53723000D01*
X131299000Y-53723000D01*
X131299000Y-54233704D01*
X131416318Y-54140146D01*
X131564359Y-53970700D01*
X131679762Y-53777548D01*
X131700235Y-53723000D01*
X131299000Y-53723000D01*
X129799000Y-53723000D01*
X129397576Y-53723000D01*
X128759327Y-53723000D01*
X128535818Y-53499491D01*
X128502333Y-53438168D01*
X128499499Y-53411810D01*
X128499499Y-53046327D01*
X130039000Y-53046327D01*
X130080318Y-53187040D01*
X130159605Y-53310413D01*
X130270438Y-53406451D01*
X130403839Y-53467373D01*
X130512527Y-53483000D01*
X130585473Y-53483000D01*
X130694161Y-53467373D01*
X130827562Y-53406451D01*
X130938395Y-53310413D01*
X131017682Y-53187040D01*
X131059000Y-53046327D01*
X131059000Y-52899673D01*
X131017682Y-52758960D01*
X130938395Y-52635587D01*
X130827562Y-52539549D01*
X130694161Y-52478627D01*
X130585473Y-52463000D01*
X130512527Y-52463000D01*
X130403839Y-52478627D01*
X130270438Y-52539549D01*
X130159605Y-52635587D01*
X130080318Y-52758960D01*
X130039000Y-52899673D01*
X130039000Y-53046327D01*
X128499499Y-53046327D01*
X128499499Y-52223000D01*
X129397764Y-52223000D01*
X129798999Y-52223000D01*
X129798999Y-51712294D01*
X129681678Y-51805856D01*
X129533640Y-51975299D01*
X129418237Y-52168451D01*
X129397764Y-52223000D01*
X128499499Y-52223000D01*
X128499499Y-52161638D01*
X128499499Y-52161637D01*
X128499499Y-52158736D01*
X128496646Y-52128302D01*
X128451793Y-52000118D01*
X128405393Y-51937248D01*
X128371150Y-51890849D01*
X128288802Y-51830075D01*
X128261882Y-51810207D01*
X128133698Y-51765354D01*
X128133697Y-51765353D01*
X128133695Y-51765353D01*
X128106150Y-51762770D01*
X128106138Y-51762769D01*
X128103265Y-51762500D01*
X128100372Y-51762500D01*
X126997638Y-51762500D01*
X126997616Y-51762500D01*
X126994736Y-51762501D01*
X126991860Y-51762770D01*
X126991851Y-51762771D01*
X126964301Y-51765354D01*
X126836118Y-51810207D01*
X126726849Y-51890849D01*
X126646207Y-52000118D01*
X126601353Y-52128304D01*
X126598770Y-52155849D01*
X126598770Y-52155851D01*
X126598500Y-52158735D01*
X126598500Y-52161626D01*
X126598500Y-52161627D01*
X126598500Y-53784361D01*
X126598500Y-53784382D01*
X126598501Y-53787264D01*
X126601354Y-53817698D01*
X126646207Y-53945882D01*
X126680450Y-53992280D01*
X126726849Y-54055150D01*
X126773248Y-54089393D01*
X126836118Y-54135793D01*
X126964302Y-54180646D01*
X126994735Y-54183500D01*
X128103264Y-54183499D01*
X128133698Y-54180646D01*
X128180623Y-54164225D01*
X128250399Y-54160662D01*
X128309259Y-54193585D01*
X134638181Y-60522507D01*
X134671666Y-60583830D01*
X134674500Y-60610188D01*
X134674500Y-60978230D01*
X134654815Y-61045269D01*
X134602011Y-61091024D01*
X134532853Y-61100968D01*
X134469297Y-61071943D01*
X134447399Y-61047122D01*
X134419553Y-61005448D01*
X134353230Y-60961132D01*
X134294749Y-60949500D01*
X134294748Y-60949500D01*
X133505252Y-60949500D01*
X133505251Y-60949500D01*
X133446769Y-60961132D01*
X133380447Y-61005447D01*
X133336132Y-61071769D01*
X133324500Y-61130251D01*
X133324500Y-61130252D01*
X133324500Y-61569748D01*
X133335686Y-61625986D01*
X133340624Y-61650808D01*
X133340624Y-61699192D01*
X133324500Y-61780251D01*
X133324500Y-62219750D01*
X133340623Y-62300807D01*
X133340624Y-62349188D01*
X133324500Y-62430253D01*
X133324500Y-62713812D01*
X133304815Y-62780851D01*
X133288181Y-62801493D01*
X132951493Y-63138181D01*
X132890170Y-63171666D01*
X132863812Y-63174500D01*
X129624628Y-63174500D01*
X129613820Y-63174028D01*
X129576192Y-63170735D01*
X129539704Y-63180512D01*
X129529148Y-63182852D01*
X129490899Y-63189597D01*
X129466193Y-63199831D01*
X129434380Y-63222106D01*
X129425264Y-63227914D01*
X129392545Y-63246805D01*
X129368262Y-63275744D01*
X129360956Y-63283716D01*
X126438993Y-66205681D01*
X126377670Y-66239166D01*
X126351312Y-66242000D01*
X124888688Y-66242000D01*
X124821649Y-66222315D01*
X124801007Y-66205681D01*
X123561819Y-64966492D01*
X123528334Y-64905169D01*
X123525500Y-64878811D01*
X123525500Y-63471740D01*
X123545185Y-63404701D01*
X123597989Y-63358946D01*
X123662755Y-63348450D01*
X123673885Y-63349646D01*
X123680482Y-63350000D01*
X123900000Y-63350000D01*
X123900000Y-62850000D01*
X124300000Y-62850000D01*
X124300000Y-63350000D01*
X124519518Y-63350000D01*
X124526132Y-63349645D01*
X124582371Y-63343599D01*
X124717089Y-63293352D01*
X124832188Y-63207188D01*
X124918352Y-63092089D01*
X124968599Y-62957371D01*
X124974645Y-62901132D01*
X124975000Y-62894518D01*
X124975000Y-62850000D01*
X124300000Y-62850000D01*
X123900000Y-62850000D01*
X123900000Y-62574000D01*
X123919685Y-62506961D01*
X123972489Y-62461206D01*
X124024000Y-62450000D01*
X124975000Y-62450000D01*
X124975000Y-62449500D01*
X124994685Y-62382461D01*
X125047489Y-62336706D01*
X125099000Y-62325500D01*
X127043029Y-62325500D01*
X127110068Y-62345185D01*
X127146130Y-62380608D01*
X127155446Y-62394551D01*
X127221769Y-62438867D01*
X127280251Y-62450500D01*
X127280252Y-62450500D01*
X128419749Y-62450500D01*
X128456709Y-62443148D01*
X128478231Y-62438867D01*
X128544552Y-62394552D01*
X128588867Y-62328231D01*
X128600500Y-62269748D01*
X129399500Y-62269748D01*
X129411132Y-62328230D01*
X129455447Y-62394552D01*
X129521769Y-62438867D01*
X129580251Y-62450500D01*
X129580252Y-62450500D01*
X130719749Y-62450500D01*
X130756709Y-62443148D01*
X130778231Y-62438867D01*
X130844552Y-62394552D01*
X130848351Y-62388867D01*
X130853870Y-62380608D01*
X130907482Y-62335804D01*
X130956971Y-62325500D01*
X131681701Y-62325500D01*
X131748740Y-62345185D01*
X131780076Y-62374013D01*
X131821718Y-62428282D01*
X131947159Y-62524536D01*
X132093238Y-62585044D01*
X132250000Y-62605682D01*
X132406762Y-62585044D01*
X132552841Y-62524536D01*
X132678282Y-62428282D01*
X132774536Y-62302841D01*
X132835044Y-62156762D01*
X132855682Y-62000000D01*
X132835044Y-61843238D01*
X132774536Y-61697159D01*
X132742530Y-61655448D01*
X132678282Y-61571717D01*
X132552840Y-61475463D01*
X132406762Y-61414956D01*
X132249999Y-61394317D01*
X132093237Y-61414956D01*
X131947159Y-61475463D01*
X131821718Y-61571717D01*
X131780077Y-61625986D01*
X131723650Y-61667189D01*
X131681701Y-61674500D01*
X130956971Y-61674500D01*
X130889932Y-61654815D01*
X130853870Y-61619392D01*
X130844553Y-61605448D01*
X130778230Y-61561132D01*
X130719749Y-61549500D01*
X130719748Y-61549500D01*
X129580252Y-61549500D01*
X129580251Y-61549500D01*
X129521769Y-61561132D01*
X129455447Y-61605447D01*
X129411132Y-61671769D01*
X129399500Y-61730251D01*
X129399500Y-62269748D01*
X128600500Y-62269748D01*
X128600500Y-61730252D01*
X128588867Y-61671769D01*
X128583204Y-61663294D01*
X128544552Y-61605447D01*
X128478230Y-61561132D01*
X128419749Y-61549500D01*
X128419748Y-61549500D01*
X128299500Y-61549500D01*
X128232461Y-61529815D01*
X128186706Y-61477011D01*
X128175500Y-61425500D01*
X128175500Y-60299499D01*
X128195185Y-60232460D01*
X128247989Y-60186705D01*
X128299500Y-60175499D01*
X128406514Y-60175499D01*
X128406518Y-60175499D01*
X128500304Y-60160646D01*
X128613342Y-60103050D01*
X128703050Y-60013342D01*
X128727992Y-59964389D01*
X128775967Y-59913593D01*
X128843788Y-59896797D01*
X128909923Y-59919334D01*
X128953375Y-59974049D01*
X128956863Y-59983792D01*
X128981981Y-60064397D01*
X129069925Y-60209875D01*
X129190124Y-60330074D01*
X129335599Y-60418016D01*
X129424999Y-60445874D01*
X129425000Y-60445874D01*
X129425000Y-59900000D01*
X130225000Y-59900000D01*
X130225000Y-60445874D01*
X130314400Y-60418016D01*
X130459875Y-60330074D01*
X130580074Y-60209875D01*
X130668018Y-60064397D01*
X130718590Y-59902107D01*
X130718782Y-59900000D01*
X130225000Y-59900000D01*
X129425000Y-59900000D01*
X129425000Y-58554124D01*
X129424999Y-58554123D01*
X130225000Y-58554123D01*
X130225000Y-59100000D01*
X130718781Y-59100000D01*
X130718590Y-59097892D01*
X130668018Y-58935602D01*
X130580074Y-58790124D01*
X130459875Y-58669925D01*
X130314397Y-58581981D01*
X130225000Y-58554123D01*
X129424999Y-58554123D01*
X129335602Y-58581981D01*
X129190124Y-58669925D01*
X129069925Y-58790124D01*
X128981981Y-58935602D01*
X128956863Y-59016208D01*
X128918125Y-59074356D01*
X128854100Y-59102329D01*
X128785114Y-59091247D01*
X128733072Y-59044628D01*
X128727993Y-59035611D01*
X128703050Y-58986657D01*
X128613343Y-58896950D01*
X128500302Y-58839353D01*
X128406521Y-58824500D01*
X127943485Y-58824500D01*
X127896588Y-58831927D01*
X127849696Y-58839354D01*
X127849694Y-58839354D01*
X127849693Y-58839355D01*
X127736657Y-58896949D01*
X127646949Y-58986657D01*
X127617105Y-59045229D01*
X127569130Y-59096024D01*
X127501309Y-59112819D01*
X127435175Y-59090281D01*
X127418940Y-59076614D01*
X121236819Y-52894493D01*
X121203334Y-52833170D01*
X121200500Y-52806812D01*
X121200500Y-51106491D01*
X123659500Y-51106491D01*
X123698373Y-51289382D01*
X123774427Y-51460202D01*
X123884329Y-51611469D01*
X124023284Y-51736585D01*
X124185214Y-51830075D01*
X124270803Y-51857884D01*
X124363044Y-51887855D01*
X124502380Y-51902500D01*
X124505622Y-51902500D01*
X124592378Y-51902500D01*
X124595620Y-51902500D01*
X124734956Y-51887855D01*
X124912785Y-51830075D01*
X125074715Y-51736585D01*
X125103910Y-51710298D01*
X131299000Y-51710298D01*
X131299000Y-52223000D01*
X131700423Y-52223000D01*
X131700423Y-52222999D01*
X131626399Y-52069287D01*
X131494144Y-51887254D01*
X131331508Y-51731758D01*
X131299000Y-51710298D01*
X125103910Y-51710298D01*
X125213669Y-51611470D01*
X125323573Y-51460200D01*
X125399625Y-51289385D01*
X125438500Y-51106491D01*
X132659500Y-51106491D01*
X132698373Y-51289382D01*
X132774427Y-51460202D01*
X132884329Y-51611469D01*
X133023284Y-51736585D01*
X133185214Y-51830075D01*
X133270803Y-51857884D01*
X133363044Y-51887855D01*
X133502380Y-51902500D01*
X133505622Y-51902500D01*
X133592378Y-51902500D01*
X133595620Y-51902500D01*
X133734956Y-51887855D01*
X133912785Y-51830075D01*
X134074715Y-51736585D01*
X134213669Y-51611470D01*
X134323573Y-51460200D01*
X134399625Y-51289385D01*
X134438500Y-51106490D01*
X134438500Y-50919510D01*
X134429233Y-50875910D01*
X134399626Y-50736617D01*
X134323572Y-50565797D01*
X134213670Y-50414530D01*
X134074715Y-50289414D01*
X133912785Y-50195924D01*
X133734957Y-50138145D01*
X133598840Y-50123838D01*
X133598831Y-50123837D01*
X133595620Y-50123500D01*
X133502380Y-50123500D01*
X133499169Y-50123837D01*
X133499159Y-50123838D01*
X133363042Y-50138145D01*
X133185214Y-50195924D01*
X133023284Y-50289414D01*
X132884329Y-50414530D01*
X132774427Y-50565797D01*
X132698373Y-50736617D01*
X132659500Y-50919508D01*
X132659500Y-51106491D01*
X125438500Y-51106491D01*
X125438500Y-51106490D01*
X125438500Y-50919510D01*
X125429233Y-50875910D01*
X125399626Y-50736617D01*
X125323572Y-50565797D01*
X125213670Y-50414530D01*
X125074715Y-50289414D01*
X124912785Y-50195924D01*
X124734957Y-50138145D01*
X124598840Y-50123838D01*
X124598831Y-50123837D01*
X124595620Y-50123500D01*
X124502380Y-50123500D01*
X124499169Y-50123837D01*
X124499159Y-50123838D01*
X124363042Y-50138145D01*
X124185214Y-50195924D01*
X124023284Y-50289414D01*
X123884329Y-50414530D01*
X123774427Y-50565797D01*
X123698373Y-50736617D01*
X123659500Y-50919508D01*
X123659500Y-51106491D01*
X121200500Y-51106491D01*
X121200500Y-51098251D01*
X121188867Y-51039769D01*
X121144552Y-50973447D01*
X121078230Y-50929132D01*
X121019749Y-50917500D01*
X121019748Y-50917500D01*
X118980252Y-50917500D01*
X118980251Y-50917500D01*
X118921769Y-50929132D01*
X118855447Y-50973447D01*
X118811132Y-51039769D01*
X118799500Y-51098251D01*
X118799500Y-53137748D01*
X118811132Y-53196230D01*
X118855447Y-53262552D01*
X118921769Y-53306867D01*
X118980251Y-53318500D01*
X118980252Y-53318500D01*
X120688812Y-53318500D01*
X120755851Y-53338185D01*
X120776493Y-53354819D01*
X127137950Y-59716276D01*
X127145258Y-59724250D01*
X127169545Y-59753194D01*
X127193594Y-59767079D01*
X127202256Y-59772080D01*
X127211379Y-59777892D01*
X127243201Y-59800174D01*
X127267891Y-59810400D01*
X127268953Y-59810587D01*
X127268955Y-59810588D01*
X127306161Y-59817147D01*
X127316676Y-59819478D01*
X127353194Y-59829264D01*
X127353196Y-59829263D01*
X127374317Y-59834924D01*
X127373199Y-59839093D01*
X127401551Y-59844790D01*
X127431544Y-59866872D01*
X127488180Y-59923507D01*
X127521666Y-59984830D01*
X127524500Y-60011189D01*
X127524500Y-61425500D01*
X127504815Y-61492539D01*
X127452011Y-61538294D01*
X127400500Y-61549500D01*
X127280251Y-61549500D01*
X127221769Y-61561132D01*
X127155446Y-61605448D01*
X127146130Y-61619392D01*
X127092518Y-61664196D01*
X127043029Y-61674500D01*
X124799500Y-61674500D01*
X124732461Y-61654815D01*
X124686706Y-61602011D01*
X124675500Y-61550500D01*
X124675500Y-61130251D01*
X124663867Y-61071769D01*
X124619552Y-61005447D01*
X124553230Y-60961132D01*
X124494749Y-60949500D01*
X124494748Y-60949500D01*
X123705252Y-60949500D01*
X123673690Y-60955778D01*
X123604098Y-60949549D01*
X123548922Y-60906686D01*
X123525678Y-60840796D01*
X123525500Y-60834160D01*
X123525500Y-58797550D01*
X123525972Y-58786742D01*
X123529263Y-58749123D01*
X123519486Y-58712636D01*
X123517144Y-58702072D01*
X123510400Y-58663823D01*
X123500173Y-58639133D01*
X123499554Y-58638249D01*
X123499554Y-58638248D01*
X123477878Y-58607292D01*
X123472085Y-58598198D01*
X123453194Y-58565477D01*
X123424261Y-58541199D01*
X123416286Y-58533891D01*
X116784111Y-51901717D01*
X116776802Y-51893741D01*
X116752522Y-51864805D01*
X116719804Y-51845915D01*
X116710695Y-51840112D01*
X116679752Y-51818446D01*
X116678871Y-51817829D01*
X116654175Y-51807599D01*
X116615920Y-51800853D01*
X116605364Y-51798512D01*
X116568875Y-51788735D01*
X116531248Y-51792028D01*
X116520440Y-51792500D01*
X116324500Y-51792500D01*
X116257461Y-51772815D01*
X116211706Y-51720011D01*
X116200500Y-51668500D01*
X116200500Y-51098251D01*
X116188867Y-51039769D01*
X116144552Y-50973447D01*
X116078230Y-50929132D01*
X116019749Y-50917500D01*
X116019748Y-50917500D01*
X113980252Y-50917500D01*
X113980251Y-50917500D01*
X113921769Y-50929132D01*
X113855447Y-50973447D01*
X113811132Y-51039769D01*
X113799500Y-51098251D01*
X113799500Y-53137748D01*
X113811132Y-53196230D01*
X113855447Y-53262552D01*
X113921769Y-53306867D01*
X113980251Y-53318500D01*
X113980252Y-53318500D01*
X116019749Y-53318500D01*
X116060404Y-53310413D01*
X116078231Y-53306867D01*
X116144552Y-53262552D01*
X116188867Y-53196231D01*
X116200500Y-53137748D01*
X116200500Y-52567499D01*
X116220185Y-52500461D01*
X116272989Y-52454706D01*
X116324500Y-52443500D01*
X116353880Y-52443500D01*
X116420919Y-52463185D01*
X116441561Y-52479819D01*
X122838181Y-58876439D01*
X122871666Y-58937762D01*
X122874500Y-58964120D01*
X122874500Y-60743939D01*
X122854815Y-60810978D01*
X122802011Y-60856733D01*
X122732853Y-60866677D01*
X122669297Y-60837652D01*
X122651234Y-60818251D01*
X122632189Y-60792811D01*
X122517089Y-60706647D01*
X122382371Y-60656400D01*
X122326132Y-60650354D01*
X122319518Y-60650000D01*
X122100000Y-60650000D01*
X122100000Y-61426000D01*
X122080315Y-61493039D01*
X122027511Y-61538794D01*
X121976000Y-61550000D01*
X121025000Y-61550000D01*
X121025000Y-61550500D01*
X121005315Y-61617539D01*
X120952511Y-61663294D01*
X120901000Y-61674500D01*
X118524747Y-61674500D01*
X118457708Y-61654815D01*
X118414262Y-61606794D01*
X118410646Y-61599697D01*
X118410646Y-61599696D01*
X118359164Y-61498657D01*
X118353050Y-61486657D01*
X118263343Y-61396950D01*
X118150302Y-61339353D01*
X118056521Y-61324500D01*
X117593485Y-61324500D01*
X117546589Y-61331927D01*
X117499696Y-61339354D01*
X117499694Y-61339354D01*
X117499693Y-61339355D01*
X117386657Y-61396949D01*
X117296950Y-61486656D01*
X117239353Y-61599697D01*
X117224500Y-61693478D01*
X117224500Y-62306514D01*
X117229019Y-62335044D01*
X117239354Y-62400304D01*
X117239354Y-62400305D01*
X117239355Y-62400306D01*
X117296949Y-62513342D01*
X117386656Y-62603049D01*
X117386658Y-62603050D01*
X117499696Y-62660646D01*
X117593481Y-62675500D01*
X118056518Y-62675499D01*
X118150304Y-62660646D01*
X118263342Y-62603050D01*
X118353050Y-62513342D01*
X118410646Y-62400304D01*
X118410646Y-62400303D01*
X118414263Y-62393205D01*
X118462238Y-62342409D01*
X118524748Y-62325500D01*
X121200500Y-62325500D01*
X121267539Y-62345185D01*
X121313294Y-62397989D01*
X121324500Y-62449500D01*
X121324500Y-62869748D01*
X121336132Y-62928230D01*
X121380447Y-62994552D01*
X121446769Y-63038867D01*
X121505251Y-63050500D01*
X121505252Y-63050500D01*
X121550500Y-63050500D01*
X121617539Y-63070185D01*
X121663294Y-63122989D01*
X121674499Y-63174498D01*
X121674499Y-63343599D01*
X121674499Y-63431700D01*
X121654814Y-63498740D01*
X121625987Y-63530074D01*
X121571721Y-63571715D01*
X121571719Y-63571716D01*
X121571718Y-63571718D01*
X121513965Y-63646982D01*
X121475462Y-63697161D01*
X121414956Y-63843237D01*
X121394317Y-64000000D01*
X121414956Y-64156762D01*
X121475463Y-64302840D01*
X121507824Y-64345014D01*
X121533018Y-64410183D01*
X121518980Y-64478628D01*
X121470166Y-64528617D01*
X121409448Y-64544500D01*
X117329500Y-64544500D01*
X117262461Y-64524815D01*
X117216706Y-64472011D01*
X117205500Y-64420500D01*
X117205500Y-62938111D01*
X117205500Y-62938110D01*
X117205500Y-62934996D01*
X117201384Y-62894073D01*
X117191550Y-62845679D01*
X117189886Y-62838205D01*
X117161317Y-62780851D01*
X117149110Y-62756344D01*
X117106018Y-62703764D01*
X117104820Y-62702302D01*
X117087729Y-62683872D01*
X117009167Y-62637051D01*
X116970747Y-62624614D01*
X116944496Y-62616116D01*
X116944486Y-62616113D01*
X116942694Y-62615533D01*
X116940874Y-62615064D01*
X116940865Y-62615062D01*
X116918349Y-62609267D01*
X116908678Y-62609594D01*
X116841013Y-62592180D01*
X116793505Y-62540948D01*
X116780499Y-62485664D01*
X116780499Y-61513993D01*
X116800184Y-61446954D01*
X116852988Y-61401199D01*
X116886852Y-61391255D01*
X116887597Y-61391147D01*
X116887600Y-61391148D01*
X116956758Y-61381204D01*
X116981373Y-61376112D01*
X117062085Y-61333102D01*
X117114889Y-61287347D01*
X117132843Y-61269756D01*
X117177490Y-61189939D01*
X117189217Y-61150000D01*
X121025000Y-61150000D01*
X121700000Y-61150000D01*
X121700000Y-60650000D01*
X121480482Y-60650000D01*
X121473867Y-60650354D01*
X121417628Y-60656400D01*
X121282910Y-60706647D01*
X121167811Y-60792811D01*
X121081647Y-60907910D01*
X121031400Y-61042628D01*
X121025354Y-61098867D01*
X121025000Y-61105481D01*
X121025000Y-61150000D01*
X117189217Y-61150000D01*
X117197175Y-61122900D01*
X117205500Y-61065002D01*
X117205500Y-60874000D01*
X117200803Y-60830316D01*
X117189597Y-60778805D01*
X117189232Y-60777268D01*
X117187121Y-60768649D01*
X117187110Y-60768629D01*
X117187110Y-60768627D01*
X117150997Y-60700858D01*
X117144100Y-60687914D01*
X117099600Y-60636558D01*
X117099580Y-60636536D01*
X117098345Y-60635111D01*
X117080754Y-60617157D01*
X117000937Y-60572510D01*
X117000936Y-60572509D01*
X117000935Y-60572509D01*
X116933901Y-60552826D01*
X116933898Y-60552825D01*
X116876000Y-60544500D01*
X114402446Y-60544500D01*
X114399310Y-60544822D01*
X114399299Y-60544823D01*
X114363789Y-60548474D01*
X114363775Y-60548476D01*
X114360625Y-60548800D01*
X114357511Y-60549447D01*
X114357506Y-60549448D01*
X114311211Y-60559071D01*
X114309959Y-60559352D01*
X114302864Y-60560984D01*
X114221356Y-60602499D01*
X114169167Y-60646056D01*
X114169142Y-60646077D01*
X114167714Y-60647270D01*
X114166355Y-60648552D01*
X114166328Y-60648577D01*
X114149437Y-60664524D01*
X114103320Y-60743502D01*
X114082966Y-60808350D01*
X114082952Y-60808399D01*
X114082398Y-60810165D01*
X114081948Y-60811977D01*
X114081947Y-60811984D01*
X114072445Y-60850328D01*
X114037213Y-60910664D01*
X113974953Y-60942373D01*
X113952086Y-60944500D01*
X113043689Y-60944500D01*
X112976650Y-60924815D01*
X112956008Y-60908181D01*
X112810008Y-60762181D01*
X112776523Y-60700858D01*
X112781507Y-60631166D01*
X112823379Y-60575233D01*
X112888843Y-60550816D01*
X112897689Y-60550500D01*
X113751373Y-60550500D01*
X113754266Y-60550500D01*
X113784699Y-60547646D01*
X113912882Y-60502793D01*
X113912882Y-60502792D01*
X113912884Y-60502792D01*
X114022150Y-60422150D01*
X114102792Y-60312884D01*
X114103467Y-60310955D01*
X114147646Y-60184699D01*
X114150500Y-60154266D01*
X114150500Y-59520734D01*
X114147646Y-59490301D01*
X114102793Y-59362118D01*
X114102792Y-59362115D01*
X114022150Y-59252849D01*
X113912884Y-59172207D01*
X113784696Y-59127353D01*
X113757151Y-59124770D01*
X113757139Y-59124769D01*
X113754266Y-59124500D01*
X113751373Y-59124500D01*
X113699500Y-59124500D01*
X113632461Y-59104815D01*
X113586706Y-59052011D01*
X113575500Y-59000500D01*
X113575500Y-58499500D01*
X113595185Y-58432461D01*
X113647989Y-58386706D01*
X113699500Y-58375500D01*
X113756870Y-58375500D01*
X113759764Y-58375500D01*
X113789774Y-58372686D01*
X113916179Y-58328455D01*
X114023930Y-58248930D01*
X114103455Y-58141179D01*
X114147686Y-58014774D01*
X114150500Y-57984764D01*
X114150500Y-57390236D01*
X114147686Y-57360226D01*
X114103455Y-57233821D01*
X114070438Y-57189085D01*
X114023930Y-57126069D01*
X113970054Y-57086307D01*
X113916179Y-57046545D01*
X113854178Y-57024849D01*
X113797405Y-56984130D01*
X113771657Y-56919178D01*
X113785113Y-56850616D01*
X113833500Y-56800213D01*
X113856131Y-56790104D01*
X114022710Y-56734905D01*
X114170692Y-56643629D01*
X114293629Y-56520692D01*
X114384905Y-56372710D01*
X114408999Y-56300000D01*
X112091001Y-56300000D01*
X112115094Y-56372710D01*
X112206370Y-56520692D01*
X112329307Y-56643629D01*
X112477289Y-56734905D01*
X112643868Y-56790104D01*
X112701313Y-56829877D01*
X112728136Y-56894393D01*
X112715821Y-56963168D01*
X112668278Y-57014368D01*
X112645819Y-57024851D01*
X112583822Y-57046544D01*
X112476069Y-57126069D01*
X112396546Y-57233819D01*
X112352313Y-57360230D01*
X112349770Y-57387348D01*
X112349769Y-57387365D01*
X112349500Y-57390236D01*
X112349500Y-57984764D01*
X112349769Y-57987635D01*
X112349770Y-57987651D01*
X112352313Y-58014769D01*
X112352313Y-58014771D01*
X112352314Y-58014774D01*
X112396545Y-58141179D01*
X112396546Y-58141180D01*
X112476069Y-58248930D01*
X112539085Y-58295438D01*
X112583821Y-58328455D01*
X112710226Y-58372686D01*
X112740236Y-58375500D01*
X112800500Y-58375500D01*
X112867539Y-58395185D01*
X112913294Y-58447989D01*
X112924500Y-58499500D01*
X112924500Y-59000500D01*
X112904815Y-59067539D01*
X112852011Y-59113294D01*
X112800500Y-59124500D01*
X112745734Y-59124500D01*
X112742861Y-59124769D01*
X112742848Y-59124770D01*
X112715303Y-59127353D01*
X112587115Y-59172207D01*
X112477849Y-59252849D01*
X112397207Y-59362115D01*
X112352353Y-59490303D01*
X112349770Y-59517848D01*
X112349769Y-59517861D01*
X112349500Y-59520734D01*
X112349500Y-59523626D01*
X112349500Y-60002311D01*
X112329815Y-60069350D01*
X112277011Y-60115105D01*
X112207853Y-60125049D01*
X112144297Y-60096024D01*
X112137819Y-60089992D01*
X110487818Y-58439991D01*
X110454333Y-58378668D01*
X110451500Y-58352319D01*
X110451500Y-55325000D01*
X112091001Y-55325000D01*
X112762500Y-55325000D01*
X112762500Y-54825000D01*
X113737500Y-54825000D01*
X113737500Y-55325000D01*
X114408998Y-55325000D01*
X114384905Y-55252289D01*
X114293629Y-55104307D01*
X114170692Y-54981370D01*
X114022710Y-54890094D01*
X113857673Y-54835406D01*
X113758938Y-54825319D01*
X113752661Y-54825000D01*
X113737500Y-54825000D01*
X112762500Y-54825000D01*
X112747339Y-54825000D01*
X112741061Y-54825319D01*
X112642326Y-54835406D01*
X112477289Y-54890094D01*
X112329307Y-54981370D01*
X112206370Y-55104307D01*
X112115094Y-55252289D01*
X112091001Y-55325000D01*
X110451500Y-55325000D01*
X110451500Y-53442500D01*
X110471185Y-53375461D01*
X110523989Y-53329706D01*
X110575500Y-53318500D01*
X111145749Y-53318500D01*
X111186404Y-53310413D01*
X111204231Y-53306867D01*
X111270552Y-53262552D01*
X111314867Y-53196231D01*
X111326500Y-53137748D01*
X111326500Y-51098252D01*
X111314867Y-51039769D01*
X111314866Y-51039769D01*
X111270552Y-50973447D01*
X111204230Y-50929132D01*
X111145749Y-50917500D01*
X111145748Y-50917500D01*
X109106252Y-50917500D01*
X109106251Y-50917500D01*
X109047769Y-50929132D01*
X108981447Y-50973447D01*
X108937132Y-51039769D01*
X108925500Y-51098251D01*
X108925500Y-53137748D01*
X108937132Y-53196230D01*
X108981447Y-53262552D01*
X109047769Y-53306867D01*
X109106251Y-53318500D01*
X109106252Y-53318500D01*
X109676500Y-53318500D01*
X109743539Y-53338185D01*
X109789294Y-53390989D01*
X109800500Y-53442500D01*
X109800500Y-58518872D01*
X109800028Y-58529680D01*
X109796735Y-58567307D01*
X109806512Y-58603796D01*
X109808853Y-58614352D01*
X109815599Y-58652607D01*
X109825829Y-58677303D01*
X109826446Y-58678184D01*
X109848112Y-58709127D01*
X109853915Y-58718236D01*
X109872806Y-58750955D01*
X109901742Y-58775235D01*
X109909718Y-58782544D01*
X111459992Y-60332819D01*
X111493477Y-60394142D01*
X111488493Y-60463834D01*
X111446621Y-60519767D01*
X111381157Y-60544184D01*
X111372311Y-60544500D01*
X108374000Y-60544500D01*
X108370703Y-60544854D01*
X108370693Y-60544855D01*
X108333627Y-60548840D01*
X108333608Y-60548842D01*
X108330316Y-60549197D01*
X108327069Y-60549903D01*
X108327065Y-60549904D01*
X108278805Y-60560403D01*
X108277268Y-60560768D01*
X108268649Y-60562878D01*
X108187914Y-60605899D01*
X108136558Y-60650399D01*
X108136518Y-60650435D01*
X108135111Y-60651655D01*
X108133769Y-60652970D01*
X108117156Y-60669247D01*
X108072509Y-60749064D01*
X108052826Y-60816098D01*
X108052825Y-60816102D01*
X108045026Y-60870346D01*
X108044500Y-60874003D01*
X108044500Y-64420500D01*
X108024815Y-64487539D01*
X107972011Y-64533294D01*
X107920500Y-64544500D01*
X96874000Y-64544500D01*
X96870703Y-64544854D01*
X96870693Y-64544855D01*
X96833627Y-64548840D01*
X96833608Y-64548842D01*
X96830316Y-64549197D01*
X96827069Y-64549903D01*
X96827065Y-64549904D01*
X96778805Y-64560403D01*
X96777268Y-64560768D01*
X96768649Y-64562878D01*
X96687914Y-64605899D01*
X96636558Y-64650399D01*
X96636518Y-64650435D01*
X96635111Y-64651655D01*
X96633769Y-64652970D01*
X96617156Y-64669247D01*
X96572509Y-64749064D01*
X96556719Y-64802840D01*
X96552825Y-64816102D01*
X96546252Y-64861819D01*
X96544500Y-64874003D01*
X96544499Y-70122677D01*
X88100500Y-70122677D01*
X88100500Y-60995000D01*
X97365000Y-60995000D01*
X97365000Y-61929518D01*
X97365354Y-61936132D01*
X97371400Y-61992371D01*
X97421647Y-62127089D01*
X97507811Y-62242188D01*
X97622910Y-62328352D01*
X97757628Y-62378599D01*
X97813867Y-62384645D01*
X97820482Y-62385000D01*
X98580000Y-62385000D01*
X98580000Y-60995000D01*
X100580000Y-60995000D01*
X100580000Y-62385000D01*
X101760000Y-62385000D01*
X101760000Y-60995000D01*
X103760000Y-60995000D01*
X103760000Y-62385000D01*
X104519518Y-62385000D01*
X104526132Y-62384645D01*
X104582371Y-62378599D01*
X104717089Y-62328352D01*
X104832188Y-62242188D01*
X104918352Y-62127089D01*
X104968599Y-61992371D01*
X104974645Y-61936132D01*
X104975000Y-61929518D01*
X104975000Y-60995000D01*
X103760000Y-60995000D01*
X101760000Y-60995000D01*
X100580000Y-60995000D01*
X98580000Y-60995000D01*
X97365000Y-60995000D01*
X88100500Y-60995000D01*
X88100500Y-60088543D01*
X98690000Y-60088543D01*
X98728898Y-60271540D01*
X98804992Y-60442451D01*
X98914958Y-60593806D01*
X99053990Y-60718991D01*
X99216011Y-60812534D01*
X99393939Y-60870346D01*
X99533361Y-60885000D01*
X99626639Y-60885000D01*
X99766061Y-60870346D01*
X99943989Y-60812534D01*
X100106010Y-60718991D01*
X100245042Y-60593806D01*
X100355008Y-60442451D01*
X100431102Y-60271540D01*
X100470000Y-60088543D01*
X101870000Y-60088543D01*
X101908898Y-60271540D01*
X101984992Y-60442451D01*
X102094958Y-60593806D01*
X102233990Y-60718991D01*
X102396011Y-60812534D01*
X102573939Y-60870346D01*
X102713361Y-60885000D01*
X102806639Y-60885000D01*
X102946061Y-60870346D01*
X103123989Y-60812534D01*
X103286010Y-60718991D01*
X103425042Y-60593806D01*
X103535008Y-60442451D01*
X103611102Y-60271540D01*
X103650000Y-60088543D01*
X103650000Y-59901457D01*
X103611102Y-59718460D01*
X103535008Y-59547549D01*
X103425042Y-59396194D01*
X103286010Y-59271009D01*
X103123989Y-59177466D01*
X102946061Y-59119654D01*
X102806639Y-59105000D01*
X102713361Y-59105000D01*
X102573939Y-59119654D01*
X102396011Y-59177466D01*
X102233990Y-59271009D01*
X102094958Y-59396194D01*
X101984992Y-59547549D01*
X101908898Y-59718460D01*
X101870000Y-59901457D01*
X101870000Y-60088543D01*
X100470000Y-60088543D01*
X100470000Y-59901457D01*
X100431102Y-59718460D01*
X100355008Y-59547549D01*
X100245042Y-59396194D01*
X100106010Y-59271009D01*
X99943989Y-59177466D01*
X99766061Y-59119654D01*
X99626639Y-59105000D01*
X99533361Y-59105000D01*
X99393939Y-59119654D01*
X99216011Y-59177466D01*
X99053990Y-59271009D01*
X98914958Y-59396194D01*
X98804992Y-59547549D01*
X98728898Y-59718460D01*
X98690000Y-59901457D01*
X98690000Y-60088543D01*
X88100500Y-60088543D01*
X88100500Y-58995000D01*
X97365000Y-58995000D01*
X98580000Y-58995000D01*
X98580000Y-57605000D01*
X100580000Y-57605000D01*
X100580000Y-58995000D01*
X101760000Y-58995000D01*
X101760000Y-57605000D01*
X103760000Y-57605000D01*
X103760000Y-58995000D01*
X104975000Y-58995000D01*
X104975000Y-58060481D01*
X104974645Y-58053867D01*
X104968599Y-57997628D01*
X104918352Y-57862910D01*
X104832188Y-57747811D01*
X104717089Y-57661647D01*
X104582371Y-57611400D01*
X104526132Y-57605354D01*
X104519518Y-57605000D01*
X103760000Y-57605000D01*
X101760000Y-57605000D01*
X100580000Y-57605000D01*
X98580000Y-57605000D01*
X97820482Y-57605000D01*
X97813867Y-57605354D01*
X97757628Y-57611400D01*
X97622910Y-57661647D01*
X97507811Y-57747811D01*
X97421647Y-57862910D01*
X97371400Y-57997628D01*
X97365354Y-58053867D01*
X97365000Y-58060481D01*
X97365000Y-58995000D01*
X88100500Y-58995000D01*
X88100500Y-48131482D01*
X91245500Y-48131482D01*
X91284691Y-48391507D01*
X91362202Y-48642787D01*
X91476296Y-48879707D01*
X91476297Y-48879709D01*
X91476298Y-48879710D01*
X91624430Y-49096980D01*
X91803290Y-49289746D01*
X92008883Y-49453701D01*
X92236616Y-49585183D01*
X92481402Y-49681254D01*
X92737772Y-49739769D01*
X92934346Y-49754500D01*
X92936663Y-49754500D01*
X93063337Y-49754500D01*
X93065654Y-49754500D01*
X93262228Y-49739769D01*
X93518598Y-49681254D01*
X93763384Y-49585183D01*
X93991117Y-49453701D01*
X94196710Y-49289746D01*
X94375570Y-49096980D01*
X94523702Y-48879710D01*
X94637798Y-48642788D01*
X94715308Y-48391508D01*
X94754500Y-48131482D01*
X163245500Y-48131482D01*
X163284691Y-48391507D01*
X163362202Y-48642787D01*
X163476296Y-48879707D01*
X163476297Y-48879709D01*
X163476298Y-48879710D01*
X163624430Y-49096980D01*
X163803290Y-49289746D01*
X164008883Y-49453701D01*
X164236616Y-49585183D01*
X164481402Y-49681254D01*
X164737772Y-49739769D01*
X164934346Y-49754500D01*
X164936663Y-49754500D01*
X165063337Y-49754500D01*
X165065654Y-49754500D01*
X165262228Y-49739769D01*
X165518598Y-49681254D01*
X165763384Y-49585183D01*
X165991117Y-49453701D01*
X166196710Y-49289746D01*
X166375570Y-49096980D01*
X166523702Y-48879710D01*
X166637798Y-48642788D01*
X166715308Y-48391508D01*
X166754500Y-48131482D01*
X166754500Y-47868518D01*
X166715308Y-47608492D01*
X166637798Y-47357212D01*
X166523702Y-47120290D01*
X166375570Y-46903020D01*
X166196710Y-46710254D01*
X165991117Y-46546299D01*
X165991116Y-46546298D01*
X165763382Y-46414816D01*
X165518600Y-46318746D01*
X165262225Y-46260230D01*
X165067968Y-46245673D01*
X165067957Y-46245672D01*
X165065654Y-46245500D01*
X164934346Y-46245500D01*
X164932043Y-46245672D01*
X164932031Y-46245673D01*
X164737774Y-46260230D01*
X164481399Y-46318746D01*
X164236617Y-46414816D01*
X164008883Y-46546298D01*
X163803290Y-46710253D01*
X163624431Y-46903018D01*
X163476296Y-47120292D01*
X163362202Y-47357212D01*
X163284691Y-47608492D01*
X163245500Y-47868517D01*
X163245500Y-48131482D01*
X94754500Y-48131482D01*
X94754500Y-47868518D01*
X94715308Y-47608492D01*
X94637798Y-47357212D01*
X94523702Y-47120290D01*
X94375570Y-46903020D01*
X94196710Y-46710254D01*
X93991117Y-46546299D01*
X93991116Y-46546298D01*
X93763382Y-46414816D01*
X93518600Y-46318746D01*
X93262225Y-46260230D01*
X93067968Y-46245673D01*
X93067957Y-46245672D01*
X93065654Y-46245500D01*
X92934346Y-46245500D01*
X92932043Y-46245672D01*
X92932031Y-46245673D01*
X92737774Y-46260230D01*
X92481399Y-46318746D01*
X92236617Y-46414816D01*
X92008883Y-46546298D01*
X91803290Y-46710253D01*
X91624431Y-46903018D01*
X91476296Y-47120292D01*
X91362202Y-47357212D01*
X91284691Y-47608492D01*
X91245500Y-47868517D01*
X91245500Y-48131482D01*
X88100500Y-48131482D01*
X88100500Y-48002705D01*
X88100618Y-47997296D01*
X88101195Y-47984083D01*
X88118908Y-47578363D01*
X88119848Y-47567631D01*
X88174229Y-47154565D01*
X88176101Y-47143946D01*
X88266279Y-46737177D01*
X88269066Y-46726777D01*
X88394355Y-46329410D01*
X88398039Y-46319289D01*
X88557480Y-45934365D01*
X88562038Y-45924591D01*
X88754412Y-45555045D01*
X88759807Y-45545700D01*
X88983665Y-45194313D01*
X88989855Y-45185473D01*
X89243478Y-44854945D01*
X89250416Y-44846676D01*
X89531883Y-44539509D01*
X89539509Y-44531883D01*
X89846676Y-44250416D01*
X89854945Y-44243478D01*
X90185473Y-43989855D01*
X90194313Y-43983665D01*
X90545700Y-43759807D01*
X90555045Y-43754412D01*
X90924591Y-43562038D01*
X90934365Y-43557480D01*
X91319289Y-43398039D01*
X91329410Y-43394355D01*
X91726777Y-43269066D01*
X91737177Y-43266279D01*
X92143946Y-43176101D01*
X92154565Y-43174229D01*
X92567631Y-43119848D01*
X92578365Y-43118908D01*
X92984694Y-43101168D01*
X92997298Y-43100618D01*
X93002706Y-43100500D01*
X93026929Y-43100500D01*
X164973071Y-43100500D01*
X164997294Y-43100500D01*
X165002702Y-43100617D01*
G37*
G04 #@! TD.AperFunction*
M02*
