G04 #@! TF.GenerationSoftware,KiCad,Pcbnew,(5.1.5)-3*
G04 #@! TF.CreationDate,2021-01-10T22:28:37-06:00*
G04 #@! TF.ProjectId,Power-Secondary,506f7765-722d-4536-9563-6f6e64617279,rev?*
G04 #@! TF.SameCoordinates,Original*
G04 #@! TF.FileFunction,Copper,L1,Top*
G04 #@! TF.FilePolarity,Positive*
%FSLAX46Y46*%
G04 Gerber Fmt 4.6, Leading zero omitted, Abs format (unit mm)*
G04 Created by KiCad (PCBNEW (5.1.5)-3) date 2021-01-10 22:28:37*
%MOMM*%
%LPD*%
G04 APERTURE LIST*
%ADD10C,1.397000*%
%ADD11C,1.520000*%
%ADD12C,2.000000*%
%ADD13R,1.520000X1.520000*%
%ADD14O,2.000000X1.500000*%
%ADD15R,2.000000X1.500000*%
%ADD16R,2.000000X2.000000*%
%ADD17R,3.430000X3.780000*%
%ADD18C,1.800000*%
%ADD19R,1.800000X1.800000*%
%ADD20C,2.780000*%
%ADD21R,2.400000X2.400000*%
%ADD22O,2.400000X2.400000*%
%ADD23R,3.200000X3.200000*%
%ADD24O,3.200000X3.200000*%
%ADD25C,1.600000*%
%ADD26O,1.600000X1.600000*%
%ADD27C,0.800000*%
%ADD28C,0.250000*%
%ADD29C,0.500000*%
%ADD30C,0.254000*%
G04 APERTURE END LIST*
D10*
X57380000Y-62000000D03*
X57380000Y-56920000D03*
X65000000Y-62000000D03*
X65000000Y-56920000D03*
X119620000Y-133000000D03*
X119620000Y-138080000D03*
X112000000Y-133000000D03*
X112000000Y-138080000D03*
D11*
X100000000Y-116630000D03*
D12*
X115240000Y-116630000D03*
X117780000Y-124250000D03*
X110160000Y-124250000D03*
D13*
X100000000Y-124250000D03*
D14*
X43000000Y-138000000D03*
D15*
X43000000Y-135000000D03*
D16*
X132000000Y-97000000D03*
X132000000Y-119000000D03*
X43000000Y-92500000D03*
X49000000Y-46250000D03*
X43000000Y-110500000D03*
X132000000Y-53500000D03*
X132000000Y-75500000D03*
D10*
X119500000Y-100420000D03*
X119500000Y-105500000D03*
X111880000Y-100420000D03*
X111880000Y-105500000D03*
D11*
X100000000Y-73380000D03*
D12*
X115240000Y-73380000D03*
X117780000Y-81000000D03*
X110160000Y-81000000D03*
D13*
X100000000Y-81000000D03*
X100000000Y-59000000D03*
D12*
X110160000Y-59000000D03*
X117780000Y-59000000D03*
X115240000Y-51380000D03*
D11*
X100000000Y-51380000D03*
D17*
X43180000Y-56010000D03*
X43180000Y-63500000D03*
X46360000Y-56010000D03*
X46360000Y-63500000D03*
D18*
X132000000Y-84000000D03*
D19*
X132000000Y-81460000D03*
D18*
X59000000Y-71000000D03*
D19*
X56460000Y-71000000D03*
D18*
X59000000Y-103500000D03*
D19*
X56460000Y-103500000D03*
D18*
X59000000Y-121500000D03*
D19*
X56460000Y-121500000D03*
D18*
X132000000Y-62000000D03*
D19*
X132000000Y-59460000D03*
D18*
X132000000Y-106000000D03*
D19*
X132000000Y-103460000D03*
D18*
X132000000Y-128000000D03*
D19*
X132000000Y-125460000D03*
D20*
X83420000Y-56400000D03*
X83420000Y-53000000D03*
X73500000Y-56400000D03*
X73500000Y-53000000D03*
X83420000Y-78500000D03*
X83420000Y-75100000D03*
X73500000Y-78500000D03*
X73500000Y-75000000D03*
X83420000Y-100400000D03*
X83420000Y-97000000D03*
X73500000Y-100400000D03*
X73500000Y-97000000D03*
X83420000Y-122400000D03*
X83420000Y-119000000D03*
X73500000Y-122400000D03*
X73500000Y-119000000D03*
D14*
X43000000Y-102000000D03*
D15*
X43000000Y-99000000D03*
D14*
X43000000Y-120000000D03*
D15*
X43000000Y-117000000D03*
D14*
X43000000Y-156000000D03*
D15*
X43000000Y-153000000D03*
D14*
X146000000Y-58000000D03*
D15*
X146000000Y-61000000D03*
D14*
X146000000Y-80000000D03*
D15*
X146000000Y-83000000D03*
D14*
X146000000Y-102000000D03*
D15*
X146000000Y-105000000D03*
D14*
X146000000Y-124000000D03*
D15*
X146000000Y-127000000D03*
D21*
X92500000Y-51380000D03*
D22*
X92500000Y-64080000D03*
X92500000Y-86080000D03*
D21*
X92500000Y-73380000D03*
X92500000Y-116630000D03*
D22*
X92500000Y-129330000D03*
D23*
X99000000Y-134000000D03*
D24*
X83760000Y-134000000D03*
X83760000Y-143000000D03*
D23*
X99000000Y-143000000D03*
X99000000Y-152000000D03*
D24*
X83760000Y-152000000D03*
D25*
X65000000Y-66380000D03*
D26*
X65000000Y-76540000D03*
D25*
X53880000Y-96500000D03*
D26*
X64040000Y-96500000D03*
X64040000Y-114500000D03*
D25*
X53880000Y-114500000D03*
D26*
X134540000Y-66500000D03*
D25*
X124380000Y-66500000D03*
D26*
X134540000Y-88500000D03*
D25*
X124380000Y-88500000D03*
D26*
X134540000Y-111000000D03*
D25*
X124380000Y-111000000D03*
X124380000Y-133000000D03*
D26*
X134540000Y-133000000D03*
D16*
X148000000Y-142500000D03*
D27*
X148000000Y-142500000D03*
X87250000Y-107250000D03*
D28*
X62000000Y-71000000D02*
X65000000Y-74000000D01*
X59000000Y-71000000D02*
X62000000Y-71000000D01*
X65000000Y-74000000D02*
X65000000Y-76540000D01*
X61250000Y-96500000D02*
X64040000Y-96500000D01*
X59000000Y-103500000D02*
X59000000Y-98750000D01*
X59000000Y-98750000D02*
X61250000Y-96500000D01*
X59000000Y-117000000D02*
X61500000Y-114500000D01*
X59000000Y-121500000D02*
X59000000Y-117000000D01*
X61500000Y-114500000D02*
X64040000Y-114500000D01*
X132000000Y-63272792D02*
X132000000Y-62000000D01*
X132000000Y-65091370D02*
X132000000Y-63272792D01*
X133408630Y-66500000D02*
X132000000Y-65091370D01*
X134540000Y-66500000D02*
X133408630Y-66500000D01*
X132000000Y-85960000D02*
X134540000Y-88500000D01*
X132000000Y-84000000D02*
X132000000Y-85960000D01*
X132000000Y-108460000D02*
X134540000Y-111000000D01*
X132000000Y-106000000D02*
X132000000Y-108460000D01*
X132000000Y-130460000D02*
X134540000Y-133000000D01*
X132000000Y-128000000D02*
X132000000Y-130460000D01*
X46360000Y-56010000D02*
X46360000Y-53870000D01*
X49000000Y-53370000D02*
X46360000Y-56010000D01*
X49000000Y-46250000D02*
X49000000Y-53370000D01*
X57380000Y-62000000D02*
X65000000Y-62000000D01*
X65000000Y-62000000D02*
X65000000Y-66380000D01*
X43000000Y-110500000D02*
X43000000Y-117000000D01*
D29*
X92500000Y-112500000D02*
X92500000Y-116630000D01*
X87250000Y-107250000D02*
X92500000Y-112500000D01*
D28*
X43000000Y-99000000D02*
X43000000Y-92500000D01*
D30*
G36*
X77873000Y-125873000D02*
G01*
X69127000Y-125873000D01*
X69127000Y-60000000D01*
X69124560Y-59975224D01*
X69117333Y-59951399D01*
X69105597Y-59929443D01*
X69089803Y-59910197D01*
X69070557Y-59894403D01*
X69048601Y-59882667D01*
X69024776Y-59875440D01*
X69000000Y-59873000D01*
X37127000Y-59873000D01*
X37127000Y-49127000D01*
X77873000Y-49127000D01*
X77873000Y-125873000D01*
G37*
X77873000Y-125873000D02*
X69127000Y-125873000D01*
X69127000Y-60000000D01*
X69124560Y-59975224D01*
X69117333Y-59951399D01*
X69105597Y-59929443D01*
X69089803Y-59910197D01*
X69070557Y-59894403D01*
X69048601Y-59882667D01*
X69024776Y-59875440D01*
X69000000Y-59873000D01*
X37127000Y-59873000D01*
X37127000Y-49127000D01*
X77873000Y-49127000D01*
X77873000Y-125873000D01*
G36*
X123873000Y-61873000D02*
G01*
X115127000Y-61873000D01*
X115127000Y-56000000D01*
X115124560Y-55975224D01*
X115117333Y-55951399D01*
X115105597Y-55929443D01*
X115089803Y-55910197D01*
X115070557Y-55894403D01*
X115048601Y-55882667D01*
X115024776Y-55875440D01*
X115000000Y-55873000D01*
X88000000Y-55873000D01*
X87975224Y-55875440D01*
X87951399Y-55882667D01*
X87929443Y-55894403D01*
X87910197Y-55910197D01*
X87894403Y-55929443D01*
X87882667Y-55951399D01*
X87875440Y-55975224D01*
X87873000Y-56000000D01*
X87873000Y-59873000D01*
X79127000Y-59873000D01*
X79127000Y-51218967D01*
X113605000Y-51218967D01*
X113605000Y-51541033D01*
X113667832Y-51856912D01*
X113791082Y-52154463D01*
X113970013Y-52422252D01*
X114197748Y-52649987D01*
X114465537Y-52828918D01*
X114763088Y-52952168D01*
X115078967Y-53015000D01*
X115401033Y-53015000D01*
X115716912Y-52952168D01*
X116014463Y-52828918D01*
X116282252Y-52649987D01*
X116509987Y-52422252D01*
X116688918Y-52154463D01*
X116812168Y-51856912D01*
X116875000Y-51541033D01*
X116875000Y-51218967D01*
X116812168Y-50903088D01*
X116688918Y-50605537D01*
X116509987Y-50337748D01*
X116282252Y-50110013D01*
X116014463Y-49931082D01*
X115716912Y-49807832D01*
X115401033Y-49745000D01*
X115078967Y-49745000D01*
X114763088Y-49807832D01*
X114465537Y-49931082D01*
X114197748Y-50110013D01*
X113970013Y-50337748D01*
X113791082Y-50605537D01*
X113667832Y-50903088D01*
X113605000Y-51218967D01*
X79127000Y-51218967D01*
X79127000Y-49127000D01*
X123873000Y-49127000D01*
X123873000Y-61873000D01*
G37*
X123873000Y-61873000D02*
X115127000Y-61873000D01*
X115127000Y-56000000D01*
X115124560Y-55975224D01*
X115117333Y-55951399D01*
X115105597Y-55929443D01*
X115089803Y-55910197D01*
X115070557Y-55894403D01*
X115048601Y-55882667D01*
X115024776Y-55875440D01*
X115000000Y-55873000D01*
X88000000Y-55873000D01*
X87975224Y-55875440D01*
X87951399Y-55882667D01*
X87929443Y-55894403D01*
X87910197Y-55910197D01*
X87894403Y-55929443D01*
X87882667Y-55951399D01*
X87875440Y-55975224D01*
X87873000Y-56000000D01*
X87873000Y-59873000D01*
X79127000Y-59873000D01*
X79127000Y-51218967D01*
X113605000Y-51218967D01*
X113605000Y-51541033D01*
X113667832Y-51856912D01*
X113791082Y-52154463D01*
X113970013Y-52422252D01*
X114197748Y-52649987D01*
X114465537Y-52828918D01*
X114763088Y-52952168D01*
X115078967Y-53015000D01*
X115401033Y-53015000D01*
X115716912Y-52952168D01*
X116014463Y-52828918D01*
X116282252Y-52649987D01*
X116509987Y-52422252D01*
X116688918Y-52154463D01*
X116812168Y-51856912D01*
X116875000Y-51541033D01*
X116875000Y-51218967D01*
X116812168Y-50903088D01*
X116688918Y-50605537D01*
X116509987Y-50337748D01*
X116282252Y-50110013D01*
X116014463Y-49931082D01*
X115716912Y-49807832D01*
X115401033Y-49745000D01*
X115078967Y-49745000D01*
X114763088Y-49807832D01*
X114465537Y-49931082D01*
X114197748Y-50110013D01*
X113970013Y-50337748D01*
X113791082Y-50605537D01*
X113667832Y-50903088D01*
X113605000Y-51218967D01*
X79127000Y-51218967D01*
X79127000Y-49127000D01*
X123873000Y-49127000D01*
X123873000Y-61873000D01*
G36*
X150873000Y-69873000D02*
G01*
X106127000Y-69873000D01*
X106127000Y-57127000D01*
X113873000Y-57127000D01*
X113873000Y-63000000D01*
X113875440Y-63024776D01*
X113882667Y-63048601D01*
X113894403Y-63070557D01*
X113910197Y-63089803D01*
X113929443Y-63105597D01*
X113951399Y-63117333D01*
X113975224Y-63124560D01*
X114000000Y-63127000D01*
X125000000Y-63127000D01*
X125024776Y-63124560D01*
X125048601Y-63117333D01*
X125070557Y-63105597D01*
X125089803Y-63089803D01*
X125105597Y-63070557D01*
X125117333Y-63048601D01*
X125124560Y-63024776D01*
X125127000Y-63000000D01*
X125127000Y-58560000D01*
X130461928Y-58560000D01*
X130461928Y-60360000D01*
X130474188Y-60484482D01*
X130510498Y-60604180D01*
X130569463Y-60714494D01*
X130648815Y-60811185D01*
X130745506Y-60890537D01*
X130855820Y-60949502D01*
X130874127Y-60955056D01*
X130807688Y-61021495D01*
X130639701Y-61272905D01*
X130523989Y-61552257D01*
X130465000Y-61848816D01*
X130465000Y-62151184D01*
X130523989Y-62447743D01*
X130639701Y-62727095D01*
X130807688Y-62978505D01*
X131021495Y-63192312D01*
X131240001Y-63338313D01*
X131240000Y-65054047D01*
X131236324Y-65091370D01*
X131240000Y-65128692D01*
X131240000Y-65128702D01*
X131250997Y-65240355D01*
X131294454Y-65383616D01*
X131365026Y-65515646D01*
X131404871Y-65564196D01*
X131459999Y-65631371D01*
X131489003Y-65655174D01*
X132844831Y-67011003D01*
X132868629Y-67040001D01*
X132984354Y-67134974D01*
X133116383Y-67205546D01*
X133259644Y-67249003D01*
X133318481Y-67254798D01*
X133425363Y-67414759D01*
X133625241Y-67614637D01*
X133860273Y-67771680D01*
X134121426Y-67879853D01*
X134398665Y-67935000D01*
X134681335Y-67935000D01*
X134958574Y-67879853D01*
X135219727Y-67771680D01*
X135454759Y-67614637D01*
X135654637Y-67414759D01*
X135811680Y-67179727D01*
X135919853Y-66918574D01*
X135975000Y-66641335D01*
X135975000Y-66358665D01*
X135919853Y-66081426D01*
X135811680Y-65820273D01*
X135654637Y-65585241D01*
X135454759Y-65385363D01*
X135219727Y-65228320D01*
X134958574Y-65120147D01*
X134681335Y-65065000D01*
X134398665Y-65065000D01*
X134121426Y-65120147D01*
X133860273Y-65228320D01*
X133625241Y-65385363D01*
X133497018Y-65513586D01*
X132760000Y-64776569D01*
X132760000Y-63888212D01*
X142905000Y-63888212D01*
X142905000Y-64111788D01*
X142948617Y-64331067D01*
X143034176Y-64537624D01*
X143158388Y-64723520D01*
X143316480Y-64881612D01*
X143502376Y-65005824D01*
X143708933Y-65091383D01*
X143928212Y-65135000D01*
X144151788Y-65135000D01*
X144371067Y-65091383D01*
X144577624Y-65005824D01*
X144763520Y-64881612D01*
X144921612Y-64723520D01*
X145045824Y-64537624D01*
X145131383Y-64331067D01*
X145175000Y-64111788D01*
X145175000Y-63888212D01*
X145131383Y-63668933D01*
X145045824Y-63462376D01*
X144921612Y-63276480D01*
X144763520Y-63118388D01*
X144577624Y-62994176D01*
X144371067Y-62908617D01*
X144151788Y-62865000D01*
X143928212Y-62865000D01*
X143708933Y-62908617D01*
X143502376Y-62994176D01*
X143316480Y-63118388D01*
X143158388Y-63276480D01*
X143034176Y-63462376D01*
X142948617Y-63668933D01*
X142905000Y-63888212D01*
X132760000Y-63888212D01*
X132760000Y-63338313D01*
X132978505Y-63192312D01*
X133192312Y-62978505D01*
X133360299Y-62727095D01*
X133476011Y-62447743D01*
X133535000Y-62151184D01*
X133535000Y-61848816D01*
X133476011Y-61552257D01*
X133360299Y-61272905D01*
X133192312Y-61021495D01*
X133125873Y-60955056D01*
X133144180Y-60949502D01*
X133254494Y-60890537D01*
X133351185Y-60811185D01*
X133430537Y-60714494D01*
X133489502Y-60604180D01*
X133525812Y-60484482D01*
X133538072Y-60360000D01*
X133538072Y-58560000D01*
X133525812Y-58435518D01*
X133489502Y-58315820D01*
X133430537Y-58205506D01*
X133351185Y-58108815D01*
X133254494Y-58029463D01*
X133199374Y-58000000D01*
X144358299Y-58000000D01*
X144385040Y-58271507D01*
X144464236Y-58532581D01*
X144592843Y-58773188D01*
X144765919Y-58984081D01*
X144976812Y-59157157D01*
X145217419Y-59285764D01*
X145478493Y-59364960D01*
X145681963Y-59385000D01*
X146318037Y-59385000D01*
X146521507Y-59364960D01*
X146782581Y-59285764D01*
X147023188Y-59157157D01*
X147234081Y-58984081D01*
X147407157Y-58773188D01*
X147535764Y-58532581D01*
X147614960Y-58271507D01*
X147641701Y-58000000D01*
X147614960Y-57728493D01*
X147535764Y-57467419D01*
X147407157Y-57226812D01*
X147234081Y-57015919D01*
X147023188Y-56842843D01*
X146782581Y-56714236D01*
X146521507Y-56635040D01*
X146318037Y-56615000D01*
X145681963Y-56615000D01*
X145478493Y-56635040D01*
X145217419Y-56714236D01*
X144976812Y-56842843D01*
X144765919Y-57015919D01*
X144592843Y-57226812D01*
X144464236Y-57467419D01*
X144385040Y-57728493D01*
X144358299Y-58000000D01*
X133199374Y-58000000D01*
X133144180Y-57970498D01*
X133024482Y-57934188D01*
X132900000Y-57921928D01*
X131100000Y-57921928D01*
X130975518Y-57934188D01*
X130855820Y-57970498D01*
X130745506Y-58029463D01*
X130648815Y-58108815D01*
X130569463Y-58205506D01*
X130510498Y-58315820D01*
X130474188Y-58435518D01*
X130461928Y-58560000D01*
X125127000Y-58560000D01*
X125127000Y-54888212D01*
X142905000Y-54888212D01*
X142905000Y-55111788D01*
X142948617Y-55331067D01*
X143034176Y-55537624D01*
X143158388Y-55723520D01*
X143316480Y-55881612D01*
X143502376Y-56005824D01*
X143708933Y-56091383D01*
X143928212Y-56135000D01*
X144151788Y-56135000D01*
X144371067Y-56091383D01*
X144577624Y-56005824D01*
X144763520Y-55881612D01*
X144921612Y-55723520D01*
X145045824Y-55537624D01*
X145131383Y-55331067D01*
X145175000Y-55111788D01*
X145175000Y-54888212D01*
X145131383Y-54668933D01*
X145045824Y-54462376D01*
X144921612Y-54276480D01*
X144763520Y-54118388D01*
X144577624Y-53994176D01*
X144371067Y-53908617D01*
X144151788Y-53865000D01*
X143928212Y-53865000D01*
X143708933Y-53908617D01*
X143502376Y-53994176D01*
X143316480Y-54118388D01*
X143158388Y-54276480D01*
X143034176Y-54462376D01*
X142948617Y-54668933D01*
X142905000Y-54888212D01*
X125127000Y-54888212D01*
X125127000Y-49127000D01*
X150873000Y-49127000D01*
X150873000Y-69873000D01*
G37*
X150873000Y-69873000D02*
X106127000Y-69873000D01*
X106127000Y-57127000D01*
X113873000Y-57127000D01*
X113873000Y-63000000D01*
X113875440Y-63024776D01*
X113882667Y-63048601D01*
X113894403Y-63070557D01*
X113910197Y-63089803D01*
X113929443Y-63105597D01*
X113951399Y-63117333D01*
X113975224Y-63124560D01*
X114000000Y-63127000D01*
X125000000Y-63127000D01*
X125024776Y-63124560D01*
X125048601Y-63117333D01*
X125070557Y-63105597D01*
X125089803Y-63089803D01*
X125105597Y-63070557D01*
X125117333Y-63048601D01*
X125124560Y-63024776D01*
X125127000Y-63000000D01*
X125127000Y-58560000D01*
X130461928Y-58560000D01*
X130461928Y-60360000D01*
X130474188Y-60484482D01*
X130510498Y-60604180D01*
X130569463Y-60714494D01*
X130648815Y-60811185D01*
X130745506Y-60890537D01*
X130855820Y-60949502D01*
X130874127Y-60955056D01*
X130807688Y-61021495D01*
X130639701Y-61272905D01*
X130523989Y-61552257D01*
X130465000Y-61848816D01*
X130465000Y-62151184D01*
X130523989Y-62447743D01*
X130639701Y-62727095D01*
X130807688Y-62978505D01*
X131021495Y-63192312D01*
X131240001Y-63338313D01*
X131240000Y-65054047D01*
X131236324Y-65091370D01*
X131240000Y-65128692D01*
X131240000Y-65128702D01*
X131250997Y-65240355D01*
X131294454Y-65383616D01*
X131365026Y-65515646D01*
X131404871Y-65564196D01*
X131459999Y-65631371D01*
X131489003Y-65655174D01*
X132844831Y-67011003D01*
X132868629Y-67040001D01*
X132984354Y-67134974D01*
X133116383Y-67205546D01*
X133259644Y-67249003D01*
X133318481Y-67254798D01*
X133425363Y-67414759D01*
X133625241Y-67614637D01*
X133860273Y-67771680D01*
X134121426Y-67879853D01*
X134398665Y-67935000D01*
X134681335Y-67935000D01*
X134958574Y-67879853D01*
X135219727Y-67771680D01*
X135454759Y-67614637D01*
X135654637Y-67414759D01*
X135811680Y-67179727D01*
X135919853Y-66918574D01*
X135975000Y-66641335D01*
X135975000Y-66358665D01*
X135919853Y-66081426D01*
X135811680Y-65820273D01*
X135654637Y-65585241D01*
X135454759Y-65385363D01*
X135219727Y-65228320D01*
X134958574Y-65120147D01*
X134681335Y-65065000D01*
X134398665Y-65065000D01*
X134121426Y-65120147D01*
X133860273Y-65228320D01*
X133625241Y-65385363D01*
X133497018Y-65513586D01*
X132760000Y-64776569D01*
X132760000Y-63888212D01*
X142905000Y-63888212D01*
X142905000Y-64111788D01*
X142948617Y-64331067D01*
X143034176Y-64537624D01*
X143158388Y-64723520D01*
X143316480Y-64881612D01*
X143502376Y-65005824D01*
X143708933Y-65091383D01*
X143928212Y-65135000D01*
X144151788Y-65135000D01*
X144371067Y-65091383D01*
X144577624Y-65005824D01*
X144763520Y-64881612D01*
X144921612Y-64723520D01*
X145045824Y-64537624D01*
X145131383Y-64331067D01*
X145175000Y-64111788D01*
X145175000Y-63888212D01*
X145131383Y-63668933D01*
X145045824Y-63462376D01*
X144921612Y-63276480D01*
X144763520Y-63118388D01*
X144577624Y-62994176D01*
X144371067Y-62908617D01*
X144151788Y-62865000D01*
X143928212Y-62865000D01*
X143708933Y-62908617D01*
X143502376Y-62994176D01*
X143316480Y-63118388D01*
X143158388Y-63276480D01*
X143034176Y-63462376D01*
X142948617Y-63668933D01*
X142905000Y-63888212D01*
X132760000Y-63888212D01*
X132760000Y-63338313D01*
X132978505Y-63192312D01*
X133192312Y-62978505D01*
X133360299Y-62727095D01*
X133476011Y-62447743D01*
X133535000Y-62151184D01*
X133535000Y-61848816D01*
X133476011Y-61552257D01*
X133360299Y-61272905D01*
X133192312Y-61021495D01*
X133125873Y-60955056D01*
X133144180Y-60949502D01*
X133254494Y-60890537D01*
X133351185Y-60811185D01*
X133430537Y-60714494D01*
X133489502Y-60604180D01*
X133525812Y-60484482D01*
X133538072Y-60360000D01*
X133538072Y-58560000D01*
X133525812Y-58435518D01*
X133489502Y-58315820D01*
X133430537Y-58205506D01*
X133351185Y-58108815D01*
X133254494Y-58029463D01*
X133199374Y-58000000D01*
X144358299Y-58000000D01*
X144385040Y-58271507D01*
X144464236Y-58532581D01*
X144592843Y-58773188D01*
X144765919Y-58984081D01*
X144976812Y-59157157D01*
X145217419Y-59285764D01*
X145478493Y-59364960D01*
X145681963Y-59385000D01*
X146318037Y-59385000D01*
X146521507Y-59364960D01*
X146782581Y-59285764D01*
X147023188Y-59157157D01*
X147234081Y-58984081D01*
X147407157Y-58773188D01*
X147535764Y-58532581D01*
X147614960Y-58271507D01*
X147641701Y-58000000D01*
X147614960Y-57728493D01*
X147535764Y-57467419D01*
X147407157Y-57226812D01*
X147234081Y-57015919D01*
X147023188Y-56842843D01*
X146782581Y-56714236D01*
X146521507Y-56635040D01*
X146318037Y-56615000D01*
X145681963Y-56615000D01*
X145478493Y-56635040D01*
X145217419Y-56714236D01*
X144976812Y-56842843D01*
X144765919Y-57015919D01*
X144592843Y-57226812D01*
X144464236Y-57467419D01*
X144385040Y-57728493D01*
X144358299Y-58000000D01*
X133199374Y-58000000D01*
X133144180Y-57970498D01*
X133024482Y-57934188D01*
X132900000Y-57921928D01*
X131100000Y-57921928D01*
X130975518Y-57934188D01*
X130855820Y-57970498D01*
X130745506Y-58029463D01*
X130648815Y-58108815D01*
X130569463Y-58205506D01*
X130510498Y-58315820D01*
X130474188Y-58435518D01*
X130461928Y-58560000D01*
X125127000Y-58560000D01*
X125127000Y-54888212D01*
X142905000Y-54888212D01*
X142905000Y-55111788D01*
X142948617Y-55331067D01*
X143034176Y-55537624D01*
X143158388Y-55723520D01*
X143316480Y-55881612D01*
X143502376Y-56005824D01*
X143708933Y-56091383D01*
X143928212Y-56135000D01*
X144151788Y-56135000D01*
X144371067Y-56091383D01*
X144577624Y-56005824D01*
X144763520Y-55881612D01*
X144921612Y-55723520D01*
X145045824Y-55537624D01*
X145131383Y-55331067D01*
X145175000Y-55111788D01*
X145175000Y-54888212D01*
X145131383Y-54668933D01*
X145045824Y-54462376D01*
X144921612Y-54276480D01*
X144763520Y-54118388D01*
X144577624Y-53994176D01*
X144371067Y-53908617D01*
X144151788Y-53865000D01*
X143928212Y-53865000D01*
X143708933Y-53908617D01*
X143502376Y-53994176D01*
X143316480Y-54118388D01*
X143158388Y-54276480D01*
X143034176Y-54462376D01*
X142948617Y-54668933D01*
X142905000Y-54888212D01*
X125127000Y-54888212D01*
X125127000Y-49127000D01*
X150873000Y-49127000D01*
X150873000Y-69873000D01*
G36*
X123873000Y-83873000D02*
G01*
X115127000Y-83873000D01*
X115127000Y-78000000D01*
X115124560Y-77975224D01*
X115117333Y-77951399D01*
X115105597Y-77929443D01*
X115089803Y-77910197D01*
X115070557Y-77894403D01*
X115048601Y-77882667D01*
X115024776Y-77875440D01*
X115000000Y-77873000D01*
X88000000Y-77873000D01*
X87975224Y-77875440D01*
X87951399Y-77882667D01*
X87929443Y-77894403D01*
X87910197Y-77910197D01*
X87894403Y-77929443D01*
X87882667Y-77951399D01*
X87875440Y-77975224D01*
X87873000Y-78000000D01*
X87873000Y-81873000D01*
X79127000Y-81873000D01*
X79127000Y-73218967D01*
X113605000Y-73218967D01*
X113605000Y-73541033D01*
X113667832Y-73856912D01*
X113791082Y-74154463D01*
X113970013Y-74422252D01*
X114197748Y-74649987D01*
X114465537Y-74828918D01*
X114763088Y-74952168D01*
X115078967Y-75015000D01*
X115401033Y-75015000D01*
X115716912Y-74952168D01*
X116014463Y-74828918D01*
X116282252Y-74649987D01*
X116509987Y-74422252D01*
X116688918Y-74154463D01*
X116812168Y-73856912D01*
X116875000Y-73541033D01*
X116875000Y-73218967D01*
X116812168Y-72903088D01*
X116688918Y-72605537D01*
X116509987Y-72337748D01*
X116282252Y-72110013D01*
X116014463Y-71931082D01*
X115716912Y-71807832D01*
X115401033Y-71745000D01*
X115078967Y-71745000D01*
X114763088Y-71807832D01*
X114465537Y-71931082D01*
X114197748Y-72110013D01*
X113970013Y-72337748D01*
X113791082Y-72605537D01*
X113667832Y-72903088D01*
X113605000Y-73218967D01*
X79127000Y-73218967D01*
X79127000Y-71127000D01*
X123873000Y-71127000D01*
X123873000Y-83873000D01*
G37*
X123873000Y-83873000D02*
X115127000Y-83873000D01*
X115127000Y-78000000D01*
X115124560Y-77975224D01*
X115117333Y-77951399D01*
X115105597Y-77929443D01*
X115089803Y-77910197D01*
X115070557Y-77894403D01*
X115048601Y-77882667D01*
X115024776Y-77875440D01*
X115000000Y-77873000D01*
X88000000Y-77873000D01*
X87975224Y-77875440D01*
X87951399Y-77882667D01*
X87929443Y-77894403D01*
X87910197Y-77910197D01*
X87894403Y-77929443D01*
X87882667Y-77951399D01*
X87875440Y-77975224D01*
X87873000Y-78000000D01*
X87873000Y-81873000D01*
X79127000Y-81873000D01*
X79127000Y-73218967D01*
X113605000Y-73218967D01*
X113605000Y-73541033D01*
X113667832Y-73856912D01*
X113791082Y-74154463D01*
X113970013Y-74422252D01*
X114197748Y-74649987D01*
X114465537Y-74828918D01*
X114763088Y-74952168D01*
X115078967Y-75015000D01*
X115401033Y-75015000D01*
X115716912Y-74952168D01*
X116014463Y-74828918D01*
X116282252Y-74649987D01*
X116509987Y-74422252D01*
X116688918Y-74154463D01*
X116812168Y-73856912D01*
X116875000Y-73541033D01*
X116875000Y-73218967D01*
X116812168Y-72903088D01*
X116688918Y-72605537D01*
X116509987Y-72337748D01*
X116282252Y-72110013D01*
X116014463Y-71931082D01*
X115716912Y-71807832D01*
X115401033Y-71745000D01*
X115078967Y-71745000D01*
X114763088Y-71807832D01*
X114465537Y-71931082D01*
X114197748Y-72110013D01*
X113970013Y-72337748D01*
X113791082Y-72605537D01*
X113667832Y-72903088D01*
X113605000Y-73218967D01*
X79127000Y-73218967D01*
X79127000Y-71127000D01*
X123873000Y-71127000D01*
X123873000Y-83873000D01*
G36*
X150873000Y-91873000D02*
G01*
X106127000Y-91873000D01*
X106127000Y-79127000D01*
X113873000Y-79127000D01*
X113873000Y-85000000D01*
X113875440Y-85024776D01*
X113882667Y-85048601D01*
X113894403Y-85070557D01*
X113910197Y-85089803D01*
X113929443Y-85105597D01*
X113951399Y-85117333D01*
X113975224Y-85124560D01*
X114000000Y-85127000D01*
X125000000Y-85127000D01*
X125024776Y-85124560D01*
X125048601Y-85117333D01*
X125070557Y-85105597D01*
X125089803Y-85089803D01*
X125105597Y-85070557D01*
X125117333Y-85048601D01*
X125124560Y-85024776D01*
X125127000Y-85000000D01*
X125127000Y-80560000D01*
X130461928Y-80560000D01*
X130461928Y-82360000D01*
X130474188Y-82484482D01*
X130510498Y-82604180D01*
X130569463Y-82714494D01*
X130648815Y-82811185D01*
X130745506Y-82890537D01*
X130855820Y-82949502D01*
X130874127Y-82955056D01*
X130807688Y-83021495D01*
X130639701Y-83272905D01*
X130523989Y-83552257D01*
X130465000Y-83848816D01*
X130465000Y-84151184D01*
X130523989Y-84447743D01*
X130639701Y-84727095D01*
X130807688Y-84978505D01*
X131021495Y-85192312D01*
X131240001Y-85338313D01*
X131240001Y-85922668D01*
X131236324Y-85960000D01*
X131250998Y-86108985D01*
X131294454Y-86252246D01*
X131365026Y-86384276D01*
X131436201Y-86471002D01*
X131460000Y-86500001D01*
X131488998Y-86523799D01*
X133141312Y-88176114D01*
X133105000Y-88358665D01*
X133105000Y-88641335D01*
X133160147Y-88918574D01*
X133268320Y-89179727D01*
X133425363Y-89414759D01*
X133625241Y-89614637D01*
X133860273Y-89771680D01*
X134121426Y-89879853D01*
X134398665Y-89935000D01*
X134681335Y-89935000D01*
X134958574Y-89879853D01*
X135219727Y-89771680D01*
X135454759Y-89614637D01*
X135654637Y-89414759D01*
X135811680Y-89179727D01*
X135919853Y-88918574D01*
X135975000Y-88641335D01*
X135975000Y-88358665D01*
X135919853Y-88081426D01*
X135811680Y-87820273D01*
X135654637Y-87585241D01*
X135454759Y-87385363D01*
X135219727Y-87228320D01*
X134958574Y-87120147D01*
X134681335Y-87065000D01*
X134398665Y-87065000D01*
X134216114Y-87101312D01*
X133003014Y-85888212D01*
X142905000Y-85888212D01*
X142905000Y-86111788D01*
X142948617Y-86331067D01*
X143034176Y-86537624D01*
X143158388Y-86723520D01*
X143316480Y-86881612D01*
X143502376Y-87005824D01*
X143708933Y-87091383D01*
X143928212Y-87135000D01*
X144151788Y-87135000D01*
X144371067Y-87091383D01*
X144577624Y-87005824D01*
X144763520Y-86881612D01*
X144921612Y-86723520D01*
X145045824Y-86537624D01*
X145131383Y-86331067D01*
X145175000Y-86111788D01*
X145175000Y-85888212D01*
X145131383Y-85668933D01*
X145045824Y-85462376D01*
X144921612Y-85276480D01*
X144763520Y-85118388D01*
X144577624Y-84994176D01*
X144371067Y-84908617D01*
X144151788Y-84865000D01*
X143928212Y-84865000D01*
X143708933Y-84908617D01*
X143502376Y-84994176D01*
X143316480Y-85118388D01*
X143158388Y-85276480D01*
X143034176Y-85462376D01*
X142948617Y-85668933D01*
X142905000Y-85888212D01*
X133003014Y-85888212D01*
X132760000Y-85645199D01*
X132760000Y-85338313D01*
X132978505Y-85192312D01*
X133192312Y-84978505D01*
X133360299Y-84727095D01*
X133476011Y-84447743D01*
X133535000Y-84151184D01*
X133535000Y-83848816D01*
X133476011Y-83552257D01*
X133360299Y-83272905D01*
X133192312Y-83021495D01*
X133125873Y-82955056D01*
X133144180Y-82949502D01*
X133254494Y-82890537D01*
X133351185Y-82811185D01*
X133430537Y-82714494D01*
X133489502Y-82604180D01*
X133525812Y-82484482D01*
X133538072Y-82360000D01*
X133538072Y-80560000D01*
X133525812Y-80435518D01*
X133489502Y-80315820D01*
X133430537Y-80205506D01*
X133351185Y-80108815D01*
X133254494Y-80029463D01*
X133199374Y-80000000D01*
X144358299Y-80000000D01*
X144385040Y-80271507D01*
X144464236Y-80532581D01*
X144592843Y-80773188D01*
X144765919Y-80984081D01*
X144976812Y-81157157D01*
X145217419Y-81285764D01*
X145478493Y-81364960D01*
X145681963Y-81385000D01*
X146318037Y-81385000D01*
X146521507Y-81364960D01*
X146782581Y-81285764D01*
X147023188Y-81157157D01*
X147234081Y-80984081D01*
X147407157Y-80773188D01*
X147535764Y-80532581D01*
X147614960Y-80271507D01*
X147641701Y-80000000D01*
X147614960Y-79728493D01*
X147535764Y-79467419D01*
X147407157Y-79226812D01*
X147234081Y-79015919D01*
X147023188Y-78842843D01*
X146782581Y-78714236D01*
X146521507Y-78635040D01*
X146318037Y-78615000D01*
X145681963Y-78615000D01*
X145478493Y-78635040D01*
X145217419Y-78714236D01*
X144976812Y-78842843D01*
X144765919Y-79015919D01*
X144592843Y-79226812D01*
X144464236Y-79467419D01*
X144385040Y-79728493D01*
X144358299Y-80000000D01*
X133199374Y-80000000D01*
X133144180Y-79970498D01*
X133024482Y-79934188D01*
X132900000Y-79921928D01*
X131100000Y-79921928D01*
X130975518Y-79934188D01*
X130855820Y-79970498D01*
X130745506Y-80029463D01*
X130648815Y-80108815D01*
X130569463Y-80205506D01*
X130510498Y-80315820D01*
X130474188Y-80435518D01*
X130461928Y-80560000D01*
X125127000Y-80560000D01*
X125127000Y-76888212D01*
X142905000Y-76888212D01*
X142905000Y-77111788D01*
X142948617Y-77331067D01*
X143034176Y-77537624D01*
X143158388Y-77723520D01*
X143316480Y-77881612D01*
X143502376Y-78005824D01*
X143708933Y-78091383D01*
X143928212Y-78135000D01*
X144151788Y-78135000D01*
X144371067Y-78091383D01*
X144577624Y-78005824D01*
X144763520Y-77881612D01*
X144921612Y-77723520D01*
X145045824Y-77537624D01*
X145131383Y-77331067D01*
X145175000Y-77111788D01*
X145175000Y-76888212D01*
X145131383Y-76668933D01*
X145045824Y-76462376D01*
X144921612Y-76276480D01*
X144763520Y-76118388D01*
X144577624Y-75994176D01*
X144371067Y-75908617D01*
X144151788Y-75865000D01*
X143928212Y-75865000D01*
X143708933Y-75908617D01*
X143502376Y-75994176D01*
X143316480Y-76118388D01*
X143158388Y-76276480D01*
X143034176Y-76462376D01*
X142948617Y-76668933D01*
X142905000Y-76888212D01*
X125127000Y-76888212D01*
X125127000Y-71127000D01*
X150873000Y-71127000D01*
X150873000Y-91873000D01*
G37*
X150873000Y-91873000D02*
X106127000Y-91873000D01*
X106127000Y-79127000D01*
X113873000Y-79127000D01*
X113873000Y-85000000D01*
X113875440Y-85024776D01*
X113882667Y-85048601D01*
X113894403Y-85070557D01*
X113910197Y-85089803D01*
X113929443Y-85105597D01*
X113951399Y-85117333D01*
X113975224Y-85124560D01*
X114000000Y-85127000D01*
X125000000Y-85127000D01*
X125024776Y-85124560D01*
X125048601Y-85117333D01*
X125070557Y-85105597D01*
X125089803Y-85089803D01*
X125105597Y-85070557D01*
X125117333Y-85048601D01*
X125124560Y-85024776D01*
X125127000Y-85000000D01*
X125127000Y-80560000D01*
X130461928Y-80560000D01*
X130461928Y-82360000D01*
X130474188Y-82484482D01*
X130510498Y-82604180D01*
X130569463Y-82714494D01*
X130648815Y-82811185D01*
X130745506Y-82890537D01*
X130855820Y-82949502D01*
X130874127Y-82955056D01*
X130807688Y-83021495D01*
X130639701Y-83272905D01*
X130523989Y-83552257D01*
X130465000Y-83848816D01*
X130465000Y-84151184D01*
X130523989Y-84447743D01*
X130639701Y-84727095D01*
X130807688Y-84978505D01*
X131021495Y-85192312D01*
X131240001Y-85338313D01*
X131240001Y-85922668D01*
X131236324Y-85960000D01*
X131250998Y-86108985D01*
X131294454Y-86252246D01*
X131365026Y-86384276D01*
X131436201Y-86471002D01*
X131460000Y-86500001D01*
X131488998Y-86523799D01*
X133141312Y-88176114D01*
X133105000Y-88358665D01*
X133105000Y-88641335D01*
X133160147Y-88918574D01*
X133268320Y-89179727D01*
X133425363Y-89414759D01*
X133625241Y-89614637D01*
X133860273Y-89771680D01*
X134121426Y-89879853D01*
X134398665Y-89935000D01*
X134681335Y-89935000D01*
X134958574Y-89879853D01*
X135219727Y-89771680D01*
X135454759Y-89614637D01*
X135654637Y-89414759D01*
X135811680Y-89179727D01*
X135919853Y-88918574D01*
X135975000Y-88641335D01*
X135975000Y-88358665D01*
X135919853Y-88081426D01*
X135811680Y-87820273D01*
X135654637Y-87585241D01*
X135454759Y-87385363D01*
X135219727Y-87228320D01*
X134958574Y-87120147D01*
X134681335Y-87065000D01*
X134398665Y-87065000D01*
X134216114Y-87101312D01*
X133003014Y-85888212D01*
X142905000Y-85888212D01*
X142905000Y-86111788D01*
X142948617Y-86331067D01*
X143034176Y-86537624D01*
X143158388Y-86723520D01*
X143316480Y-86881612D01*
X143502376Y-87005824D01*
X143708933Y-87091383D01*
X143928212Y-87135000D01*
X144151788Y-87135000D01*
X144371067Y-87091383D01*
X144577624Y-87005824D01*
X144763520Y-86881612D01*
X144921612Y-86723520D01*
X145045824Y-86537624D01*
X145131383Y-86331067D01*
X145175000Y-86111788D01*
X145175000Y-85888212D01*
X145131383Y-85668933D01*
X145045824Y-85462376D01*
X144921612Y-85276480D01*
X144763520Y-85118388D01*
X144577624Y-84994176D01*
X144371067Y-84908617D01*
X144151788Y-84865000D01*
X143928212Y-84865000D01*
X143708933Y-84908617D01*
X143502376Y-84994176D01*
X143316480Y-85118388D01*
X143158388Y-85276480D01*
X143034176Y-85462376D01*
X142948617Y-85668933D01*
X142905000Y-85888212D01*
X133003014Y-85888212D01*
X132760000Y-85645199D01*
X132760000Y-85338313D01*
X132978505Y-85192312D01*
X133192312Y-84978505D01*
X133360299Y-84727095D01*
X133476011Y-84447743D01*
X133535000Y-84151184D01*
X133535000Y-83848816D01*
X133476011Y-83552257D01*
X133360299Y-83272905D01*
X133192312Y-83021495D01*
X133125873Y-82955056D01*
X133144180Y-82949502D01*
X133254494Y-82890537D01*
X133351185Y-82811185D01*
X133430537Y-82714494D01*
X133489502Y-82604180D01*
X133525812Y-82484482D01*
X133538072Y-82360000D01*
X133538072Y-80560000D01*
X133525812Y-80435518D01*
X133489502Y-80315820D01*
X133430537Y-80205506D01*
X133351185Y-80108815D01*
X133254494Y-80029463D01*
X133199374Y-80000000D01*
X144358299Y-80000000D01*
X144385040Y-80271507D01*
X144464236Y-80532581D01*
X144592843Y-80773188D01*
X144765919Y-80984081D01*
X144976812Y-81157157D01*
X145217419Y-81285764D01*
X145478493Y-81364960D01*
X145681963Y-81385000D01*
X146318037Y-81385000D01*
X146521507Y-81364960D01*
X146782581Y-81285764D01*
X147023188Y-81157157D01*
X147234081Y-80984081D01*
X147407157Y-80773188D01*
X147535764Y-80532581D01*
X147614960Y-80271507D01*
X147641701Y-80000000D01*
X147614960Y-79728493D01*
X147535764Y-79467419D01*
X147407157Y-79226812D01*
X147234081Y-79015919D01*
X147023188Y-78842843D01*
X146782581Y-78714236D01*
X146521507Y-78635040D01*
X146318037Y-78615000D01*
X145681963Y-78615000D01*
X145478493Y-78635040D01*
X145217419Y-78714236D01*
X144976812Y-78842843D01*
X144765919Y-79015919D01*
X144592843Y-79226812D01*
X144464236Y-79467419D01*
X144385040Y-79728493D01*
X144358299Y-80000000D01*
X133199374Y-80000000D01*
X133144180Y-79970498D01*
X133024482Y-79934188D01*
X132900000Y-79921928D01*
X131100000Y-79921928D01*
X130975518Y-79934188D01*
X130855820Y-79970498D01*
X130745506Y-80029463D01*
X130648815Y-80108815D01*
X130569463Y-80205506D01*
X130510498Y-80315820D01*
X130474188Y-80435518D01*
X130461928Y-80560000D01*
X125127000Y-80560000D01*
X125127000Y-76888212D01*
X142905000Y-76888212D01*
X142905000Y-77111788D01*
X142948617Y-77331067D01*
X143034176Y-77537624D01*
X143158388Y-77723520D01*
X143316480Y-77881612D01*
X143502376Y-78005824D01*
X143708933Y-78091383D01*
X143928212Y-78135000D01*
X144151788Y-78135000D01*
X144371067Y-78091383D01*
X144577624Y-78005824D01*
X144763520Y-77881612D01*
X144921612Y-77723520D01*
X145045824Y-77537624D01*
X145131383Y-77331067D01*
X145175000Y-77111788D01*
X145175000Y-76888212D01*
X145131383Y-76668933D01*
X145045824Y-76462376D01*
X144921612Y-76276480D01*
X144763520Y-76118388D01*
X144577624Y-75994176D01*
X144371067Y-75908617D01*
X144151788Y-75865000D01*
X143928212Y-75865000D01*
X143708933Y-75908617D01*
X143502376Y-75994176D01*
X143316480Y-76118388D01*
X143158388Y-76276480D01*
X143034176Y-76462376D01*
X142948617Y-76668933D01*
X142905000Y-76888212D01*
X125127000Y-76888212D01*
X125127000Y-71127000D01*
X150873000Y-71127000D01*
X150873000Y-91873000D01*
G36*
X90710498Y-115185820D02*
G01*
X90674188Y-115305518D01*
X90661928Y-115430000D01*
X90661928Y-117830000D01*
X90674188Y-117954482D01*
X90710498Y-118074180D01*
X90769463Y-118184494D01*
X90848815Y-118281185D01*
X90945506Y-118360537D01*
X91055820Y-118419502D01*
X91175518Y-118455812D01*
X91300000Y-118468072D01*
X93700000Y-118468072D01*
X93824482Y-118455812D01*
X93944180Y-118419502D01*
X94054494Y-118360537D01*
X94151185Y-118281185D01*
X94230537Y-118184494D01*
X94289502Y-118074180D01*
X94325812Y-117954482D01*
X94338072Y-117830000D01*
X94338072Y-116492604D01*
X98605000Y-116492604D01*
X98605000Y-116767396D01*
X98658609Y-117036907D01*
X98763767Y-117290780D01*
X98916433Y-117519261D01*
X99110739Y-117713567D01*
X99339220Y-117866233D01*
X99593093Y-117971391D01*
X99862604Y-118025000D01*
X100137396Y-118025000D01*
X100406907Y-117971391D01*
X100660780Y-117866233D01*
X100889261Y-117713567D01*
X101083567Y-117519261D01*
X101236233Y-117290780D01*
X101341391Y-117036907D01*
X101395000Y-116767396D01*
X101395000Y-116492604D01*
X101341391Y-116223093D01*
X101236233Y-115969220D01*
X101083567Y-115740739D01*
X100889261Y-115546433D01*
X100660780Y-115393767D01*
X100406907Y-115288609D01*
X100137396Y-115235000D01*
X99862604Y-115235000D01*
X99593093Y-115288609D01*
X99339220Y-115393767D01*
X99110739Y-115546433D01*
X98916433Y-115740739D01*
X98763767Y-115969220D01*
X98658609Y-116223093D01*
X98605000Y-116492604D01*
X94338072Y-116492604D01*
X94338072Y-115430000D01*
X94325812Y-115305518D01*
X94289502Y-115185820D01*
X94258062Y-115127000D01*
X119873000Y-115127000D01*
X119873000Y-120873000D01*
X88000000Y-120873000D01*
X87975224Y-120875440D01*
X87951399Y-120882667D01*
X87929443Y-120894403D01*
X87910197Y-120910197D01*
X87894403Y-120929443D01*
X87882667Y-120951399D01*
X87875440Y-120975224D01*
X87873000Y-121000000D01*
X87873000Y-125873000D01*
X79127000Y-125873000D01*
X79127000Y-115127000D01*
X90741938Y-115127000D01*
X90710498Y-115185820D01*
G37*
X90710498Y-115185820D02*
X90674188Y-115305518D01*
X90661928Y-115430000D01*
X90661928Y-117830000D01*
X90674188Y-117954482D01*
X90710498Y-118074180D01*
X90769463Y-118184494D01*
X90848815Y-118281185D01*
X90945506Y-118360537D01*
X91055820Y-118419502D01*
X91175518Y-118455812D01*
X91300000Y-118468072D01*
X93700000Y-118468072D01*
X93824482Y-118455812D01*
X93944180Y-118419502D01*
X94054494Y-118360537D01*
X94151185Y-118281185D01*
X94230537Y-118184494D01*
X94289502Y-118074180D01*
X94325812Y-117954482D01*
X94338072Y-117830000D01*
X94338072Y-116492604D01*
X98605000Y-116492604D01*
X98605000Y-116767396D01*
X98658609Y-117036907D01*
X98763767Y-117290780D01*
X98916433Y-117519261D01*
X99110739Y-117713567D01*
X99339220Y-117866233D01*
X99593093Y-117971391D01*
X99862604Y-118025000D01*
X100137396Y-118025000D01*
X100406907Y-117971391D01*
X100660780Y-117866233D01*
X100889261Y-117713567D01*
X101083567Y-117519261D01*
X101236233Y-117290780D01*
X101341391Y-117036907D01*
X101395000Y-116767396D01*
X101395000Y-116492604D01*
X101341391Y-116223093D01*
X101236233Y-115969220D01*
X101083567Y-115740739D01*
X100889261Y-115546433D01*
X100660780Y-115393767D01*
X100406907Y-115288609D01*
X100137396Y-115235000D01*
X99862604Y-115235000D01*
X99593093Y-115288609D01*
X99339220Y-115393767D01*
X99110739Y-115546433D01*
X98916433Y-115740739D01*
X98763767Y-115969220D01*
X98658609Y-116223093D01*
X98605000Y-116492604D01*
X94338072Y-116492604D01*
X94338072Y-115430000D01*
X94325812Y-115305518D01*
X94289502Y-115185820D01*
X94258062Y-115127000D01*
X119873000Y-115127000D01*
X119873000Y-120873000D01*
X88000000Y-120873000D01*
X87975224Y-120875440D01*
X87951399Y-120882667D01*
X87929443Y-120894403D01*
X87910197Y-120910197D01*
X87894403Y-120929443D01*
X87882667Y-120951399D01*
X87875440Y-120975224D01*
X87873000Y-121000000D01*
X87873000Y-125873000D01*
X79127000Y-125873000D01*
X79127000Y-115127000D01*
X90741938Y-115127000D01*
X90710498Y-115185820D01*
G36*
X150873000Y-113873000D02*
G01*
X106127000Y-113873000D01*
X106127000Y-110858665D01*
X122945000Y-110858665D01*
X122945000Y-111141335D01*
X123000147Y-111418574D01*
X123108320Y-111679727D01*
X123265363Y-111914759D01*
X123465241Y-112114637D01*
X123700273Y-112271680D01*
X123961426Y-112379853D01*
X124238665Y-112435000D01*
X124521335Y-112435000D01*
X124798574Y-112379853D01*
X125059727Y-112271680D01*
X125294759Y-112114637D01*
X125494637Y-111914759D01*
X125651680Y-111679727D01*
X125759853Y-111418574D01*
X125815000Y-111141335D01*
X125815000Y-110858665D01*
X125759853Y-110581426D01*
X125651680Y-110320273D01*
X125494637Y-110085241D01*
X125294759Y-109885363D01*
X125059727Y-109728320D01*
X124798574Y-109620147D01*
X124521335Y-109565000D01*
X124238665Y-109565000D01*
X123961426Y-109620147D01*
X123700273Y-109728320D01*
X123465241Y-109885363D01*
X123265363Y-110085241D01*
X123108320Y-110320273D01*
X123000147Y-110581426D01*
X122945000Y-110858665D01*
X106127000Y-110858665D01*
X106127000Y-105368662D01*
X110546500Y-105368662D01*
X110546500Y-105631338D01*
X110597746Y-105888968D01*
X110698268Y-106131649D01*
X110844203Y-106350057D01*
X111029943Y-106535797D01*
X111248351Y-106681732D01*
X111491032Y-106782254D01*
X111748662Y-106833500D01*
X112011338Y-106833500D01*
X112268968Y-106782254D01*
X112511649Y-106681732D01*
X112730057Y-106535797D01*
X112915797Y-106350057D01*
X113061732Y-106131649D01*
X113162254Y-105888968D01*
X113213500Y-105631338D01*
X113213500Y-105368662D01*
X118166500Y-105368662D01*
X118166500Y-105631338D01*
X118217746Y-105888968D01*
X118318268Y-106131649D01*
X118464203Y-106350057D01*
X118649943Y-106535797D01*
X118868351Y-106681732D01*
X119111032Y-106782254D01*
X119368662Y-106833500D01*
X119631338Y-106833500D01*
X119888968Y-106782254D01*
X120131649Y-106681732D01*
X120350057Y-106535797D01*
X120535797Y-106350057D01*
X120681732Y-106131649D01*
X120782254Y-105888968D01*
X120833500Y-105631338D01*
X120833500Y-105368662D01*
X120782254Y-105111032D01*
X120681732Y-104868351D01*
X120535797Y-104649943D01*
X120350057Y-104464203D01*
X120131649Y-104318268D01*
X119888968Y-104217746D01*
X119631338Y-104166500D01*
X119368662Y-104166500D01*
X119111032Y-104217746D01*
X118868351Y-104318268D01*
X118649943Y-104464203D01*
X118464203Y-104649943D01*
X118318268Y-104868351D01*
X118217746Y-105111032D01*
X118166500Y-105368662D01*
X113213500Y-105368662D01*
X113162254Y-105111032D01*
X113061732Y-104868351D01*
X112915797Y-104649943D01*
X112730057Y-104464203D01*
X112511649Y-104318268D01*
X112268968Y-104217746D01*
X112011338Y-104166500D01*
X111748662Y-104166500D01*
X111491032Y-104217746D01*
X111248351Y-104318268D01*
X111029943Y-104464203D01*
X110844203Y-104649943D01*
X110698268Y-104868351D01*
X110597746Y-105111032D01*
X110546500Y-105368662D01*
X106127000Y-105368662D01*
X106127000Y-104000000D01*
X106124560Y-103975224D01*
X106117333Y-103951399D01*
X106105597Y-103929443D01*
X106089803Y-103910197D01*
X106070557Y-103894403D01*
X106048601Y-103882667D01*
X106024776Y-103875440D01*
X106000000Y-103873000D01*
X79127000Y-103873000D01*
X79127000Y-102560000D01*
X130461928Y-102560000D01*
X130461928Y-104360000D01*
X130474188Y-104484482D01*
X130510498Y-104604180D01*
X130569463Y-104714494D01*
X130648815Y-104811185D01*
X130745506Y-104890537D01*
X130855820Y-104949502D01*
X130874127Y-104955056D01*
X130807688Y-105021495D01*
X130639701Y-105272905D01*
X130523989Y-105552257D01*
X130465000Y-105848816D01*
X130465000Y-106151184D01*
X130523989Y-106447743D01*
X130639701Y-106727095D01*
X130807688Y-106978505D01*
X131021495Y-107192312D01*
X131240001Y-107338313D01*
X131240001Y-108422668D01*
X131236324Y-108460000D01*
X131250998Y-108608985D01*
X131294454Y-108752246D01*
X131365026Y-108884276D01*
X131436201Y-108971002D01*
X131460000Y-109000001D01*
X131488998Y-109023799D01*
X133141312Y-110676114D01*
X133105000Y-110858665D01*
X133105000Y-111141335D01*
X133160147Y-111418574D01*
X133268320Y-111679727D01*
X133425363Y-111914759D01*
X133625241Y-112114637D01*
X133860273Y-112271680D01*
X134121426Y-112379853D01*
X134398665Y-112435000D01*
X134681335Y-112435000D01*
X134958574Y-112379853D01*
X135219727Y-112271680D01*
X135454759Y-112114637D01*
X135654637Y-111914759D01*
X135811680Y-111679727D01*
X135919853Y-111418574D01*
X135975000Y-111141335D01*
X135975000Y-110858665D01*
X135919853Y-110581426D01*
X135811680Y-110320273D01*
X135654637Y-110085241D01*
X135454759Y-109885363D01*
X135219727Y-109728320D01*
X134958574Y-109620147D01*
X134681335Y-109565000D01*
X134398665Y-109565000D01*
X134216114Y-109601312D01*
X132760000Y-108145199D01*
X132760000Y-107888212D01*
X142905000Y-107888212D01*
X142905000Y-108111788D01*
X142948617Y-108331067D01*
X143034176Y-108537624D01*
X143158388Y-108723520D01*
X143316480Y-108881612D01*
X143502376Y-109005824D01*
X143708933Y-109091383D01*
X143928212Y-109135000D01*
X144151788Y-109135000D01*
X144371067Y-109091383D01*
X144577624Y-109005824D01*
X144763520Y-108881612D01*
X144921612Y-108723520D01*
X145045824Y-108537624D01*
X145131383Y-108331067D01*
X145175000Y-108111788D01*
X145175000Y-107888212D01*
X145131383Y-107668933D01*
X145045824Y-107462376D01*
X144921612Y-107276480D01*
X144763520Y-107118388D01*
X144577624Y-106994176D01*
X144371067Y-106908617D01*
X144151788Y-106865000D01*
X143928212Y-106865000D01*
X143708933Y-106908617D01*
X143502376Y-106994176D01*
X143316480Y-107118388D01*
X143158388Y-107276480D01*
X143034176Y-107462376D01*
X142948617Y-107668933D01*
X142905000Y-107888212D01*
X132760000Y-107888212D01*
X132760000Y-107338313D01*
X132978505Y-107192312D01*
X133192312Y-106978505D01*
X133360299Y-106727095D01*
X133476011Y-106447743D01*
X133535000Y-106151184D01*
X133535000Y-105848816D01*
X133476011Y-105552257D01*
X133360299Y-105272905D01*
X133192312Y-105021495D01*
X133125873Y-104955056D01*
X133144180Y-104949502D01*
X133254494Y-104890537D01*
X133351185Y-104811185D01*
X133430537Y-104714494D01*
X133489502Y-104604180D01*
X133525812Y-104484482D01*
X133538072Y-104360000D01*
X133538072Y-102560000D01*
X133525812Y-102435518D01*
X133489502Y-102315820D01*
X133430537Y-102205506D01*
X133351185Y-102108815D01*
X133254494Y-102029463D01*
X133199374Y-102000000D01*
X144358299Y-102000000D01*
X144385040Y-102271507D01*
X144464236Y-102532581D01*
X144592843Y-102773188D01*
X144765919Y-102984081D01*
X144976812Y-103157157D01*
X145217419Y-103285764D01*
X145478493Y-103364960D01*
X145681963Y-103385000D01*
X146318037Y-103385000D01*
X146521507Y-103364960D01*
X146782581Y-103285764D01*
X147023188Y-103157157D01*
X147234081Y-102984081D01*
X147407157Y-102773188D01*
X147535764Y-102532581D01*
X147614960Y-102271507D01*
X147641701Y-102000000D01*
X147614960Y-101728493D01*
X147535764Y-101467419D01*
X147407157Y-101226812D01*
X147234081Y-101015919D01*
X147023188Y-100842843D01*
X146782581Y-100714236D01*
X146521507Y-100635040D01*
X146318037Y-100615000D01*
X145681963Y-100615000D01*
X145478493Y-100635040D01*
X145217419Y-100714236D01*
X144976812Y-100842843D01*
X144765919Y-101015919D01*
X144592843Y-101226812D01*
X144464236Y-101467419D01*
X144385040Y-101728493D01*
X144358299Y-102000000D01*
X133199374Y-102000000D01*
X133144180Y-101970498D01*
X133024482Y-101934188D01*
X132900000Y-101921928D01*
X131100000Y-101921928D01*
X130975518Y-101934188D01*
X130855820Y-101970498D01*
X130745506Y-102029463D01*
X130648815Y-102108815D01*
X130569463Y-102205506D01*
X130510498Y-102315820D01*
X130474188Y-102435518D01*
X130461928Y-102560000D01*
X79127000Y-102560000D01*
X79127000Y-98888212D01*
X142905000Y-98888212D01*
X142905000Y-99111788D01*
X142948617Y-99331067D01*
X143034176Y-99537624D01*
X143158388Y-99723520D01*
X143316480Y-99881612D01*
X143502376Y-100005824D01*
X143708933Y-100091383D01*
X143928212Y-100135000D01*
X144151788Y-100135000D01*
X144371067Y-100091383D01*
X144577624Y-100005824D01*
X144763520Y-99881612D01*
X144921612Y-99723520D01*
X145045824Y-99537624D01*
X145131383Y-99331067D01*
X145175000Y-99111788D01*
X145175000Y-98888212D01*
X145131383Y-98668933D01*
X145045824Y-98462376D01*
X144921612Y-98276480D01*
X144763520Y-98118388D01*
X144577624Y-97994176D01*
X144371067Y-97908617D01*
X144151788Y-97865000D01*
X143928212Y-97865000D01*
X143708933Y-97908617D01*
X143502376Y-97994176D01*
X143316480Y-98118388D01*
X143158388Y-98276480D01*
X143034176Y-98462376D01*
X142948617Y-98668933D01*
X142905000Y-98888212D01*
X79127000Y-98888212D01*
X79127000Y-93127000D01*
X150873000Y-93127000D01*
X150873000Y-113873000D01*
G37*
X150873000Y-113873000D02*
X106127000Y-113873000D01*
X106127000Y-110858665D01*
X122945000Y-110858665D01*
X122945000Y-111141335D01*
X123000147Y-111418574D01*
X123108320Y-111679727D01*
X123265363Y-111914759D01*
X123465241Y-112114637D01*
X123700273Y-112271680D01*
X123961426Y-112379853D01*
X124238665Y-112435000D01*
X124521335Y-112435000D01*
X124798574Y-112379853D01*
X125059727Y-112271680D01*
X125294759Y-112114637D01*
X125494637Y-111914759D01*
X125651680Y-111679727D01*
X125759853Y-111418574D01*
X125815000Y-111141335D01*
X125815000Y-110858665D01*
X125759853Y-110581426D01*
X125651680Y-110320273D01*
X125494637Y-110085241D01*
X125294759Y-109885363D01*
X125059727Y-109728320D01*
X124798574Y-109620147D01*
X124521335Y-109565000D01*
X124238665Y-109565000D01*
X123961426Y-109620147D01*
X123700273Y-109728320D01*
X123465241Y-109885363D01*
X123265363Y-110085241D01*
X123108320Y-110320273D01*
X123000147Y-110581426D01*
X122945000Y-110858665D01*
X106127000Y-110858665D01*
X106127000Y-105368662D01*
X110546500Y-105368662D01*
X110546500Y-105631338D01*
X110597746Y-105888968D01*
X110698268Y-106131649D01*
X110844203Y-106350057D01*
X111029943Y-106535797D01*
X111248351Y-106681732D01*
X111491032Y-106782254D01*
X111748662Y-106833500D01*
X112011338Y-106833500D01*
X112268968Y-106782254D01*
X112511649Y-106681732D01*
X112730057Y-106535797D01*
X112915797Y-106350057D01*
X113061732Y-106131649D01*
X113162254Y-105888968D01*
X113213500Y-105631338D01*
X113213500Y-105368662D01*
X118166500Y-105368662D01*
X118166500Y-105631338D01*
X118217746Y-105888968D01*
X118318268Y-106131649D01*
X118464203Y-106350057D01*
X118649943Y-106535797D01*
X118868351Y-106681732D01*
X119111032Y-106782254D01*
X119368662Y-106833500D01*
X119631338Y-106833500D01*
X119888968Y-106782254D01*
X120131649Y-106681732D01*
X120350057Y-106535797D01*
X120535797Y-106350057D01*
X120681732Y-106131649D01*
X120782254Y-105888968D01*
X120833500Y-105631338D01*
X120833500Y-105368662D01*
X120782254Y-105111032D01*
X120681732Y-104868351D01*
X120535797Y-104649943D01*
X120350057Y-104464203D01*
X120131649Y-104318268D01*
X119888968Y-104217746D01*
X119631338Y-104166500D01*
X119368662Y-104166500D01*
X119111032Y-104217746D01*
X118868351Y-104318268D01*
X118649943Y-104464203D01*
X118464203Y-104649943D01*
X118318268Y-104868351D01*
X118217746Y-105111032D01*
X118166500Y-105368662D01*
X113213500Y-105368662D01*
X113162254Y-105111032D01*
X113061732Y-104868351D01*
X112915797Y-104649943D01*
X112730057Y-104464203D01*
X112511649Y-104318268D01*
X112268968Y-104217746D01*
X112011338Y-104166500D01*
X111748662Y-104166500D01*
X111491032Y-104217746D01*
X111248351Y-104318268D01*
X111029943Y-104464203D01*
X110844203Y-104649943D01*
X110698268Y-104868351D01*
X110597746Y-105111032D01*
X110546500Y-105368662D01*
X106127000Y-105368662D01*
X106127000Y-104000000D01*
X106124560Y-103975224D01*
X106117333Y-103951399D01*
X106105597Y-103929443D01*
X106089803Y-103910197D01*
X106070557Y-103894403D01*
X106048601Y-103882667D01*
X106024776Y-103875440D01*
X106000000Y-103873000D01*
X79127000Y-103873000D01*
X79127000Y-102560000D01*
X130461928Y-102560000D01*
X130461928Y-104360000D01*
X130474188Y-104484482D01*
X130510498Y-104604180D01*
X130569463Y-104714494D01*
X130648815Y-104811185D01*
X130745506Y-104890537D01*
X130855820Y-104949502D01*
X130874127Y-104955056D01*
X130807688Y-105021495D01*
X130639701Y-105272905D01*
X130523989Y-105552257D01*
X130465000Y-105848816D01*
X130465000Y-106151184D01*
X130523989Y-106447743D01*
X130639701Y-106727095D01*
X130807688Y-106978505D01*
X131021495Y-107192312D01*
X131240001Y-107338313D01*
X131240001Y-108422668D01*
X131236324Y-108460000D01*
X131250998Y-108608985D01*
X131294454Y-108752246D01*
X131365026Y-108884276D01*
X131436201Y-108971002D01*
X131460000Y-109000001D01*
X131488998Y-109023799D01*
X133141312Y-110676114D01*
X133105000Y-110858665D01*
X133105000Y-111141335D01*
X133160147Y-111418574D01*
X133268320Y-111679727D01*
X133425363Y-111914759D01*
X133625241Y-112114637D01*
X133860273Y-112271680D01*
X134121426Y-112379853D01*
X134398665Y-112435000D01*
X134681335Y-112435000D01*
X134958574Y-112379853D01*
X135219727Y-112271680D01*
X135454759Y-112114637D01*
X135654637Y-111914759D01*
X135811680Y-111679727D01*
X135919853Y-111418574D01*
X135975000Y-111141335D01*
X135975000Y-110858665D01*
X135919853Y-110581426D01*
X135811680Y-110320273D01*
X135654637Y-110085241D01*
X135454759Y-109885363D01*
X135219727Y-109728320D01*
X134958574Y-109620147D01*
X134681335Y-109565000D01*
X134398665Y-109565000D01*
X134216114Y-109601312D01*
X132760000Y-108145199D01*
X132760000Y-107888212D01*
X142905000Y-107888212D01*
X142905000Y-108111788D01*
X142948617Y-108331067D01*
X143034176Y-108537624D01*
X143158388Y-108723520D01*
X143316480Y-108881612D01*
X143502376Y-109005824D01*
X143708933Y-109091383D01*
X143928212Y-109135000D01*
X144151788Y-109135000D01*
X144371067Y-109091383D01*
X144577624Y-109005824D01*
X144763520Y-108881612D01*
X144921612Y-108723520D01*
X145045824Y-108537624D01*
X145131383Y-108331067D01*
X145175000Y-108111788D01*
X145175000Y-107888212D01*
X145131383Y-107668933D01*
X145045824Y-107462376D01*
X144921612Y-107276480D01*
X144763520Y-107118388D01*
X144577624Y-106994176D01*
X144371067Y-106908617D01*
X144151788Y-106865000D01*
X143928212Y-106865000D01*
X143708933Y-106908617D01*
X143502376Y-106994176D01*
X143316480Y-107118388D01*
X143158388Y-107276480D01*
X143034176Y-107462376D01*
X142948617Y-107668933D01*
X142905000Y-107888212D01*
X132760000Y-107888212D01*
X132760000Y-107338313D01*
X132978505Y-107192312D01*
X133192312Y-106978505D01*
X133360299Y-106727095D01*
X133476011Y-106447743D01*
X133535000Y-106151184D01*
X133535000Y-105848816D01*
X133476011Y-105552257D01*
X133360299Y-105272905D01*
X133192312Y-105021495D01*
X133125873Y-104955056D01*
X133144180Y-104949502D01*
X133254494Y-104890537D01*
X133351185Y-104811185D01*
X133430537Y-104714494D01*
X133489502Y-104604180D01*
X133525812Y-104484482D01*
X133538072Y-104360000D01*
X133538072Y-102560000D01*
X133525812Y-102435518D01*
X133489502Y-102315820D01*
X133430537Y-102205506D01*
X133351185Y-102108815D01*
X133254494Y-102029463D01*
X133199374Y-102000000D01*
X144358299Y-102000000D01*
X144385040Y-102271507D01*
X144464236Y-102532581D01*
X144592843Y-102773188D01*
X144765919Y-102984081D01*
X144976812Y-103157157D01*
X145217419Y-103285764D01*
X145478493Y-103364960D01*
X145681963Y-103385000D01*
X146318037Y-103385000D01*
X146521507Y-103364960D01*
X146782581Y-103285764D01*
X147023188Y-103157157D01*
X147234081Y-102984081D01*
X147407157Y-102773188D01*
X147535764Y-102532581D01*
X147614960Y-102271507D01*
X147641701Y-102000000D01*
X147614960Y-101728493D01*
X147535764Y-101467419D01*
X147407157Y-101226812D01*
X147234081Y-101015919D01*
X147023188Y-100842843D01*
X146782581Y-100714236D01*
X146521507Y-100635040D01*
X146318037Y-100615000D01*
X145681963Y-100615000D01*
X145478493Y-100635040D01*
X145217419Y-100714236D01*
X144976812Y-100842843D01*
X144765919Y-101015919D01*
X144592843Y-101226812D01*
X144464236Y-101467419D01*
X144385040Y-101728493D01*
X144358299Y-102000000D01*
X133199374Y-102000000D01*
X133144180Y-101970498D01*
X133024482Y-101934188D01*
X132900000Y-101921928D01*
X131100000Y-101921928D01*
X130975518Y-101934188D01*
X130855820Y-101970498D01*
X130745506Y-102029463D01*
X130648815Y-102108815D01*
X130569463Y-102205506D01*
X130510498Y-102315820D01*
X130474188Y-102435518D01*
X130461928Y-102560000D01*
X79127000Y-102560000D01*
X79127000Y-98888212D01*
X142905000Y-98888212D01*
X142905000Y-99111788D01*
X142948617Y-99331067D01*
X143034176Y-99537624D01*
X143158388Y-99723520D01*
X143316480Y-99881612D01*
X143502376Y-100005824D01*
X143708933Y-100091383D01*
X143928212Y-100135000D01*
X144151788Y-100135000D01*
X144371067Y-100091383D01*
X144577624Y-100005824D01*
X144763520Y-99881612D01*
X144921612Y-99723520D01*
X145045824Y-99537624D01*
X145131383Y-99331067D01*
X145175000Y-99111788D01*
X145175000Y-98888212D01*
X145131383Y-98668933D01*
X145045824Y-98462376D01*
X144921612Y-98276480D01*
X144763520Y-98118388D01*
X144577624Y-97994176D01*
X144371067Y-97908617D01*
X144151788Y-97865000D01*
X143928212Y-97865000D01*
X143708933Y-97908617D01*
X143502376Y-97994176D01*
X143316480Y-98118388D01*
X143158388Y-98276480D01*
X143034176Y-98462376D01*
X142948617Y-98668933D01*
X142905000Y-98888212D01*
X79127000Y-98888212D01*
X79127000Y-93127000D01*
X150873000Y-93127000D01*
X150873000Y-113873000D01*
G36*
X113873000Y-127873000D02*
G01*
X95000000Y-127873000D01*
X94975224Y-127875440D01*
X94951399Y-127882667D01*
X94929443Y-127894403D01*
X94910197Y-127910197D01*
X94894403Y-127929443D01*
X94882667Y-127951399D01*
X94875440Y-127975224D01*
X94873000Y-128000000D01*
X94873000Y-137873000D01*
X83127000Y-137873000D01*
X83127000Y-129149268D01*
X90665000Y-129149268D01*
X90665000Y-129510732D01*
X90735518Y-129865250D01*
X90873844Y-130199199D01*
X91074662Y-130499744D01*
X91330256Y-130755338D01*
X91630801Y-130956156D01*
X91964750Y-131094482D01*
X92319268Y-131165000D01*
X92680732Y-131165000D01*
X93035250Y-131094482D01*
X93369199Y-130956156D01*
X93669744Y-130755338D01*
X93925338Y-130499744D01*
X94126156Y-130199199D01*
X94264482Y-129865250D01*
X94335000Y-129510732D01*
X94335000Y-129149268D01*
X94264482Y-128794750D01*
X94126156Y-128460801D01*
X93925338Y-128160256D01*
X93669744Y-127904662D01*
X93369199Y-127703844D01*
X93035250Y-127565518D01*
X92680732Y-127495000D01*
X92319268Y-127495000D01*
X91964750Y-127565518D01*
X91630801Y-127703844D01*
X91330256Y-127904662D01*
X91074662Y-128160256D01*
X90873844Y-128460801D01*
X90735518Y-128794750D01*
X90665000Y-129149268D01*
X83127000Y-129149268D01*
X83127000Y-127127000D01*
X89000000Y-127127000D01*
X89024776Y-127124560D01*
X89048601Y-127117333D01*
X89070557Y-127105597D01*
X89089803Y-127089803D01*
X89105597Y-127070557D01*
X89117333Y-127048601D01*
X89124560Y-127024776D01*
X89127000Y-127000000D01*
X89127000Y-123490000D01*
X98601928Y-123490000D01*
X98601928Y-125010000D01*
X98614188Y-125134482D01*
X98650498Y-125254180D01*
X98709463Y-125364494D01*
X98788815Y-125461185D01*
X98885506Y-125540537D01*
X98995820Y-125599502D01*
X99115518Y-125635812D01*
X99240000Y-125648072D01*
X100760000Y-125648072D01*
X100884482Y-125635812D01*
X101004180Y-125599502D01*
X101114494Y-125540537D01*
X101211185Y-125461185D01*
X101290537Y-125364494D01*
X101349502Y-125254180D01*
X101385812Y-125134482D01*
X101398072Y-125010000D01*
X101398072Y-123490000D01*
X101385812Y-123365518D01*
X101349502Y-123245820D01*
X101290537Y-123135506D01*
X101211185Y-123038815D01*
X101114494Y-122959463D01*
X101004180Y-122900498D01*
X100884482Y-122864188D01*
X100760000Y-122851928D01*
X99240000Y-122851928D01*
X99115518Y-122864188D01*
X98995820Y-122900498D01*
X98885506Y-122959463D01*
X98788815Y-123038815D01*
X98709463Y-123135506D01*
X98650498Y-123245820D01*
X98614188Y-123365518D01*
X98601928Y-123490000D01*
X89127000Y-123490000D01*
X89127000Y-122127000D01*
X113873000Y-122127000D01*
X113873000Y-127873000D01*
G37*
X113873000Y-127873000D02*
X95000000Y-127873000D01*
X94975224Y-127875440D01*
X94951399Y-127882667D01*
X94929443Y-127894403D01*
X94910197Y-127910197D01*
X94894403Y-127929443D01*
X94882667Y-127951399D01*
X94875440Y-127975224D01*
X94873000Y-128000000D01*
X94873000Y-137873000D01*
X83127000Y-137873000D01*
X83127000Y-129149268D01*
X90665000Y-129149268D01*
X90665000Y-129510732D01*
X90735518Y-129865250D01*
X90873844Y-130199199D01*
X91074662Y-130499744D01*
X91330256Y-130755338D01*
X91630801Y-130956156D01*
X91964750Y-131094482D01*
X92319268Y-131165000D01*
X92680732Y-131165000D01*
X93035250Y-131094482D01*
X93369199Y-130956156D01*
X93669744Y-130755338D01*
X93925338Y-130499744D01*
X94126156Y-130199199D01*
X94264482Y-129865250D01*
X94335000Y-129510732D01*
X94335000Y-129149268D01*
X94264482Y-128794750D01*
X94126156Y-128460801D01*
X93925338Y-128160256D01*
X93669744Y-127904662D01*
X93369199Y-127703844D01*
X93035250Y-127565518D01*
X92680732Y-127495000D01*
X92319268Y-127495000D01*
X91964750Y-127565518D01*
X91630801Y-127703844D01*
X91330256Y-127904662D01*
X91074662Y-128160256D01*
X90873844Y-128460801D01*
X90735518Y-128794750D01*
X90665000Y-129149268D01*
X83127000Y-129149268D01*
X83127000Y-127127000D01*
X89000000Y-127127000D01*
X89024776Y-127124560D01*
X89048601Y-127117333D01*
X89070557Y-127105597D01*
X89089803Y-127089803D01*
X89105597Y-127070557D01*
X89117333Y-127048601D01*
X89124560Y-127024776D01*
X89127000Y-127000000D01*
X89127000Y-123490000D01*
X98601928Y-123490000D01*
X98601928Y-125010000D01*
X98614188Y-125134482D01*
X98650498Y-125254180D01*
X98709463Y-125364494D01*
X98788815Y-125461185D01*
X98885506Y-125540537D01*
X98995820Y-125599502D01*
X99115518Y-125635812D01*
X99240000Y-125648072D01*
X100760000Y-125648072D01*
X100884482Y-125635812D01*
X101004180Y-125599502D01*
X101114494Y-125540537D01*
X101211185Y-125461185D01*
X101290537Y-125364494D01*
X101349502Y-125254180D01*
X101385812Y-125134482D01*
X101398072Y-125010000D01*
X101398072Y-123490000D01*
X101385812Y-123365518D01*
X101349502Y-123245820D01*
X101290537Y-123135506D01*
X101211185Y-123038815D01*
X101114494Y-122959463D01*
X101004180Y-122900498D01*
X100884482Y-122864188D01*
X100760000Y-122851928D01*
X99240000Y-122851928D01*
X99115518Y-122864188D01*
X98995820Y-122900498D01*
X98885506Y-122959463D01*
X98788815Y-123038815D01*
X98709463Y-123135506D01*
X98650498Y-123245820D01*
X98614188Y-123365518D01*
X98601928Y-123490000D01*
X89127000Y-123490000D01*
X89127000Y-122127000D01*
X113873000Y-122127000D01*
X113873000Y-127873000D01*
G36*
X150873000Y-155873000D02*
G01*
X96127000Y-155873000D01*
X96127000Y-141500000D01*
X146361928Y-141500000D01*
X146361928Y-143500000D01*
X146374188Y-143624482D01*
X146410498Y-143744180D01*
X146469463Y-143854494D01*
X146548815Y-143951185D01*
X146645506Y-144030537D01*
X146755820Y-144089502D01*
X146875518Y-144125812D01*
X147000000Y-144138072D01*
X149000000Y-144138072D01*
X149124482Y-144125812D01*
X149244180Y-144089502D01*
X149354494Y-144030537D01*
X149451185Y-143951185D01*
X149530537Y-143854494D01*
X149589502Y-143744180D01*
X149625812Y-143624482D01*
X149638072Y-143500000D01*
X149638072Y-141500000D01*
X149625812Y-141375518D01*
X149589502Y-141255820D01*
X149530537Y-141145506D01*
X149451185Y-141048815D01*
X149354494Y-140969463D01*
X149244180Y-140910498D01*
X149124482Y-140874188D01*
X149000000Y-140861928D01*
X147000000Y-140861928D01*
X146875518Y-140874188D01*
X146755820Y-140910498D01*
X146645506Y-140969463D01*
X146548815Y-141048815D01*
X146469463Y-141145506D01*
X146410498Y-141255820D01*
X146374188Y-141375518D01*
X146361928Y-141500000D01*
X96127000Y-141500000D01*
X96127000Y-132868662D01*
X110666500Y-132868662D01*
X110666500Y-133131338D01*
X110717746Y-133388968D01*
X110818268Y-133631649D01*
X110964203Y-133850057D01*
X111149943Y-134035797D01*
X111368351Y-134181732D01*
X111611032Y-134282254D01*
X111868662Y-134333500D01*
X112131338Y-134333500D01*
X112388968Y-134282254D01*
X112631649Y-134181732D01*
X112850057Y-134035797D01*
X113035797Y-133850057D01*
X113181732Y-133631649D01*
X113282254Y-133388968D01*
X113333500Y-133131338D01*
X113333500Y-132868662D01*
X118286500Y-132868662D01*
X118286500Y-133131338D01*
X118337746Y-133388968D01*
X118438268Y-133631649D01*
X118584203Y-133850057D01*
X118769943Y-134035797D01*
X118988351Y-134181732D01*
X119231032Y-134282254D01*
X119488662Y-134333500D01*
X119751338Y-134333500D01*
X120008968Y-134282254D01*
X120251649Y-134181732D01*
X120470057Y-134035797D01*
X120655797Y-133850057D01*
X120801732Y-133631649D01*
X120902254Y-133388968D01*
X120953500Y-133131338D01*
X120953500Y-132868662D01*
X120951512Y-132858665D01*
X122945000Y-132858665D01*
X122945000Y-133141335D01*
X123000147Y-133418574D01*
X123108320Y-133679727D01*
X123265363Y-133914759D01*
X123465241Y-134114637D01*
X123700273Y-134271680D01*
X123961426Y-134379853D01*
X124238665Y-134435000D01*
X124521335Y-134435000D01*
X124798574Y-134379853D01*
X125059727Y-134271680D01*
X125294759Y-134114637D01*
X125494637Y-133914759D01*
X125651680Y-133679727D01*
X125759853Y-133418574D01*
X125815000Y-133141335D01*
X125815000Y-132858665D01*
X125759853Y-132581426D01*
X125651680Y-132320273D01*
X125494637Y-132085241D01*
X125294759Y-131885363D01*
X125059727Y-131728320D01*
X124798574Y-131620147D01*
X124521335Y-131565000D01*
X124238665Y-131565000D01*
X123961426Y-131620147D01*
X123700273Y-131728320D01*
X123465241Y-131885363D01*
X123265363Y-132085241D01*
X123108320Y-132320273D01*
X123000147Y-132581426D01*
X122945000Y-132858665D01*
X120951512Y-132858665D01*
X120902254Y-132611032D01*
X120801732Y-132368351D01*
X120655797Y-132149943D01*
X120470057Y-131964203D01*
X120251649Y-131818268D01*
X120008968Y-131717746D01*
X119751338Y-131666500D01*
X119488662Y-131666500D01*
X119231032Y-131717746D01*
X118988351Y-131818268D01*
X118769943Y-131964203D01*
X118584203Y-132149943D01*
X118438268Y-132368351D01*
X118337746Y-132611032D01*
X118286500Y-132868662D01*
X113333500Y-132868662D01*
X113282254Y-132611032D01*
X113181732Y-132368351D01*
X113035797Y-132149943D01*
X112850057Y-131964203D01*
X112631649Y-131818268D01*
X112388968Y-131717746D01*
X112131338Y-131666500D01*
X111868662Y-131666500D01*
X111611032Y-131717746D01*
X111368351Y-131818268D01*
X111149943Y-131964203D01*
X110964203Y-132149943D01*
X110818268Y-132368351D01*
X110717746Y-132611032D01*
X110666500Y-132868662D01*
X96127000Y-132868662D01*
X96127000Y-129127000D01*
X121000000Y-129127000D01*
X121024776Y-129124560D01*
X121048601Y-129117333D01*
X121070557Y-129105597D01*
X121089803Y-129089803D01*
X121105597Y-129070557D01*
X121117333Y-129048601D01*
X121124560Y-129024776D01*
X121127000Y-129000000D01*
X121127000Y-124560000D01*
X130461928Y-124560000D01*
X130461928Y-126360000D01*
X130474188Y-126484482D01*
X130510498Y-126604180D01*
X130569463Y-126714494D01*
X130648815Y-126811185D01*
X130745506Y-126890537D01*
X130855820Y-126949502D01*
X130874127Y-126955056D01*
X130807688Y-127021495D01*
X130639701Y-127272905D01*
X130523989Y-127552257D01*
X130465000Y-127848816D01*
X130465000Y-128151184D01*
X130523989Y-128447743D01*
X130639701Y-128727095D01*
X130807688Y-128978505D01*
X131021495Y-129192312D01*
X131240001Y-129338313D01*
X131240001Y-130422668D01*
X131236324Y-130460000D01*
X131250998Y-130608985D01*
X131294454Y-130752246D01*
X131365026Y-130884276D01*
X131436201Y-130971002D01*
X131460000Y-131000001D01*
X131488998Y-131023799D01*
X133141312Y-132676114D01*
X133105000Y-132858665D01*
X133105000Y-133141335D01*
X133160147Y-133418574D01*
X133268320Y-133679727D01*
X133425363Y-133914759D01*
X133625241Y-134114637D01*
X133860273Y-134271680D01*
X134121426Y-134379853D01*
X134398665Y-134435000D01*
X134681335Y-134435000D01*
X134958574Y-134379853D01*
X135219727Y-134271680D01*
X135454759Y-134114637D01*
X135654637Y-133914759D01*
X135811680Y-133679727D01*
X135919853Y-133418574D01*
X135975000Y-133141335D01*
X135975000Y-132858665D01*
X135919853Y-132581426D01*
X135811680Y-132320273D01*
X135654637Y-132085241D01*
X135454759Y-131885363D01*
X135219727Y-131728320D01*
X134958574Y-131620147D01*
X134681335Y-131565000D01*
X134398665Y-131565000D01*
X134216114Y-131601312D01*
X132760000Y-130145199D01*
X132760000Y-129888212D01*
X142905000Y-129888212D01*
X142905000Y-130111788D01*
X142948617Y-130331067D01*
X143034176Y-130537624D01*
X143158388Y-130723520D01*
X143316480Y-130881612D01*
X143502376Y-131005824D01*
X143708933Y-131091383D01*
X143928212Y-131135000D01*
X144151788Y-131135000D01*
X144371067Y-131091383D01*
X144577624Y-131005824D01*
X144763520Y-130881612D01*
X144921612Y-130723520D01*
X145045824Y-130537624D01*
X145131383Y-130331067D01*
X145175000Y-130111788D01*
X145175000Y-129888212D01*
X145131383Y-129668933D01*
X145045824Y-129462376D01*
X144921612Y-129276480D01*
X144763520Y-129118388D01*
X144577624Y-128994176D01*
X144371067Y-128908617D01*
X144151788Y-128865000D01*
X143928212Y-128865000D01*
X143708933Y-128908617D01*
X143502376Y-128994176D01*
X143316480Y-129118388D01*
X143158388Y-129276480D01*
X143034176Y-129462376D01*
X142948617Y-129668933D01*
X142905000Y-129888212D01*
X132760000Y-129888212D01*
X132760000Y-129338313D01*
X132978505Y-129192312D01*
X133192312Y-128978505D01*
X133360299Y-128727095D01*
X133476011Y-128447743D01*
X133535000Y-128151184D01*
X133535000Y-127848816D01*
X133476011Y-127552257D01*
X133360299Y-127272905D01*
X133192312Y-127021495D01*
X133125873Y-126955056D01*
X133144180Y-126949502D01*
X133254494Y-126890537D01*
X133351185Y-126811185D01*
X133430537Y-126714494D01*
X133489502Y-126604180D01*
X133525812Y-126484482D01*
X133538072Y-126360000D01*
X133538072Y-124560000D01*
X133525812Y-124435518D01*
X133489502Y-124315820D01*
X133430537Y-124205506D01*
X133351185Y-124108815D01*
X133254494Y-124029463D01*
X133199374Y-124000000D01*
X144358299Y-124000000D01*
X144385040Y-124271507D01*
X144464236Y-124532581D01*
X144592843Y-124773188D01*
X144765919Y-124984081D01*
X144976812Y-125157157D01*
X145217419Y-125285764D01*
X145478493Y-125364960D01*
X145681963Y-125385000D01*
X146318037Y-125385000D01*
X146521507Y-125364960D01*
X146782581Y-125285764D01*
X147023188Y-125157157D01*
X147234081Y-124984081D01*
X147407157Y-124773188D01*
X147535764Y-124532581D01*
X147614960Y-124271507D01*
X147641701Y-124000000D01*
X147614960Y-123728493D01*
X147535764Y-123467419D01*
X147407157Y-123226812D01*
X147234081Y-123015919D01*
X147023188Y-122842843D01*
X146782581Y-122714236D01*
X146521507Y-122635040D01*
X146318037Y-122615000D01*
X145681963Y-122615000D01*
X145478493Y-122635040D01*
X145217419Y-122714236D01*
X144976812Y-122842843D01*
X144765919Y-123015919D01*
X144592843Y-123226812D01*
X144464236Y-123467419D01*
X144385040Y-123728493D01*
X144358299Y-124000000D01*
X133199374Y-124000000D01*
X133144180Y-123970498D01*
X133024482Y-123934188D01*
X132900000Y-123921928D01*
X131100000Y-123921928D01*
X130975518Y-123934188D01*
X130855820Y-123970498D01*
X130745506Y-124029463D01*
X130648815Y-124108815D01*
X130569463Y-124205506D01*
X130510498Y-124315820D01*
X130474188Y-124435518D01*
X130461928Y-124560000D01*
X121127000Y-124560000D01*
X121127000Y-120888212D01*
X142905000Y-120888212D01*
X142905000Y-121111788D01*
X142948617Y-121331067D01*
X143034176Y-121537624D01*
X143158388Y-121723520D01*
X143316480Y-121881612D01*
X143502376Y-122005824D01*
X143708933Y-122091383D01*
X143928212Y-122135000D01*
X144151788Y-122135000D01*
X144371067Y-122091383D01*
X144577624Y-122005824D01*
X144763520Y-121881612D01*
X144921612Y-121723520D01*
X145045824Y-121537624D01*
X145131383Y-121331067D01*
X145175000Y-121111788D01*
X145175000Y-120888212D01*
X145131383Y-120668933D01*
X145045824Y-120462376D01*
X144921612Y-120276480D01*
X144763520Y-120118388D01*
X144577624Y-119994176D01*
X144371067Y-119908617D01*
X144151788Y-119865000D01*
X143928212Y-119865000D01*
X143708933Y-119908617D01*
X143502376Y-119994176D01*
X143316480Y-120118388D01*
X143158388Y-120276480D01*
X143034176Y-120462376D01*
X142948617Y-120668933D01*
X142905000Y-120888212D01*
X121127000Y-120888212D01*
X121127000Y-115127000D01*
X150873000Y-115127000D01*
X150873000Y-155873000D01*
G37*
X150873000Y-155873000D02*
X96127000Y-155873000D01*
X96127000Y-141500000D01*
X146361928Y-141500000D01*
X146361928Y-143500000D01*
X146374188Y-143624482D01*
X146410498Y-143744180D01*
X146469463Y-143854494D01*
X146548815Y-143951185D01*
X146645506Y-144030537D01*
X146755820Y-144089502D01*
X146875518Y-144125812D01*
X147000000Y-144138072D01*
X149000000Y-144138072D01*
X149124482Y-144125812D01*
X149244180Y-144089502D01*
X149354494Y-144030537D01*
X149451185Y-143951185D01*
X149530537Y-143854494D01*
X149589502Y-143744180D01*
X149625812Y-143624482D01*
X149638072Y-143500000D01*
X149638072Y-141500000D01*
X149625812Y-141375518D01*
X149589502Y-141255820D01*
X149530537Y-141145506D01*
X149451185Y-141048815D01*
X149354494Y-140969463D01*
X149244180Y-140910498D01*
X149124482Y-140874188D01*
X149000000Y-140861928D01*
X147000000Y-140861928D01*
X146875518Y-140874188D01*
X146755820Y-140910498D01*
X146645506Y-140969463D01*
X146548815Y-141048815D01*
X146469463Y-141145506D01*
X146410498Y-141255820D01*
X146374188Y-141375518D01*
X146361928Y-141500000D01*
X96127000Y-141500000D01*
X96127000Y-132868662D01*
X110666500Y-132868662D01*
X110666500Y-133131338D01*
X110717746Y-133388968D01*
X110818268Y-133631649D01*
X110964203Y-133850057D01*
X111149943Y-134035797D01*
X111368351Y-134181732D01*
X111611032Y-134282254D01*
X111868662Y-134333500D01*
X112131338Y-134333500D01*
X112388968Y-134282254D01*
X112631649Y-134181732D01*
X112850057Y-134035797D01*
X113035797Y-133850057D01*
X113181732Y-133631649D01*
X113282254Y-133388968D01*
X113333500Y-133131338D01*
X113333500Y-132868662D01*
X118286500Y-132868662D01*
X118286500Y-133131338D01*
X118337746Y-133388968D01*
X118438268Y-133631649D01*
X118584203Y-133850057D01*
X118769943Y-134035797D01*
X118988351Y-134181732D01*
X119231032Y-134282254D01*
X119488662Y-134333500D01*
X119751338Y-134333500D01*
X120008968Y-134282254D01*
X120251649Y-134181732D01*
X120470057Y-134035797D01*
X120655797Y-133850057D01*
X120801732Y-133631649D01*
X120902254Y-133388968D01*
X120953500Y-133131338D01*
X120953500Y-132868662D01*
X120951512Y-132858665D01*
X122945000Y-132858665D01*
X122945000Y-133141335D01*
X123000147Y-133418574D01*
X123108320Y-133679727D01*
X123265363Y-133914759D01*
X123465241Y-134114637D01*
X123700273Y-134271680D01*
X123961426Y-134379853D01*
X124238665Y-134435000D01*
X124521335Y-134435000D01*
X124798574Y-134379853D01*
X125059727Y-134271680D01*
X125294759Y-134114637D01*
X125494637Y-133914759D01*
X125651680Y-133679727D01*
X125759853Y-133418574D01*
X125815000Y-133141335D01*
X125815000Y-132858665D01*
X125759853Y-132581426D01*
X125651680Y-132320273D01*
X125494637Y-132085241D01*
X125294759Y-131885363D01*
X125059727Y-131728320D01*
X124798574Y-131620147D01*
X124521335Y-131565000D01*
X124238665Y-131565000D01*
X123961426Y-131620147D01*
X123700273Y-131728320D01*
X123465241Y-131885363D01*
X123265363Y-132085241D01*
X123108320Y-132320273D01*
X123000147Y-132581426D01*
X122945000Y-132858665D01*
X120951512Y-132858665D01*
X120902254Y-132611032D01*
X120801732Y-132368351D01*
X120655797Y-132149943D01*
X120470057Y-131964203D01*
X120251649Y-131818268D01*
X120008968Y-131717746D01*
X119751338Y-131666500D01*
X119488662Y-131666500D01*
X119231032Y-131717746D01*
X118988351Y-131818268D01*
X118769943Y-131964203D01*
X118584203Y-132149943D01*
X118438268Y-132368351D01*
X118337746Y-132611032D01*
X118286500Y-132868662D01*
X113333500Y-132868662D01*
X113282254Y-132611032D01*
X113181732Y-132368351D01*
X113035797Y-132149943D01*
X112850057Y-131964203D01*
X112631649Y-131818268D01*
X112388968Y-131717746D01*
X112131338Y-131666500D01*
X111868662Y-131666500D01*
X111611032Y-131717746D01*
X111368351Y-131818268D01*
X111149943Y-131964203D01*
X110964203Y-132149943D01*
X110818268Y-132368351D01*
X110717746Y-132611032D01*
X110666500Y-132868662D01*
X96127000Y-132868662D01*
X96127000Y-129127000D01*
X121000000Y-129127000D01*
X121024776Y-129124560D01*
X121048601Y-129117333D01*
X121070557Y-129105597D01*
X121089803Y-129089803D01*
X121105597Y-129070557D01*
X121117333Y-129048601D01*
X121124560Y-129024776D01*
X121127000Y-129000000D01*
X121127000Y-124560000D01*
X130461928Y-124560000D01*
X130461928Y-126360000D01*
X130474188Y-126484482D01*
X130510498Y-126604180D01*
X130569463Y-126714494D01*
X130648815Y-126811185D01*
X130745506Y-126890537D01*
X130855820Y-126949502D01*
X130874127Y-126955056D01*
X130807688Y-127021495D01*
X130639701Y-127272905D01*
X130523989Y-127552257D01*
X130465000Y-127848816D01*
X130465000Y-128151184D01*
X130523989Y-128447743D01*
X130639701Y-128727095D01*
X130807688Y-128978505D01*
X131021495Y-129192312D01*
X131240001Y-129338313D01*
X131240001Y-130422668D01*
X131236324Y-130460000D01*
X131250998Y-130608985D01*
X131294454Y-130752246D01*
X131365026Y-130884276D01*
X131436201Y-130971002D01*
X131460000Y-131000001D01*
X131488998Y-131023799D01*
X133141312Y-132676114D01*
X133105000Y-132858665D01*
X133105000Y-133141335D01*
X133160147Y-133418574D01*
X133268320Y-133679727D01*
X133425363Y-133914759D01*
X133625241Y-134114637D01*
X133860273Y-134271680D01*
X134121426Y-134379853D01*
X134398665Y-134435000D01*
X134681335Y-134435000D01*
X134958574Y-134379853D01*
X135219727Y-134271680D01*
X135454759Y-134114637D01*
X135654637Y-133914759D01*
X135811680Y-133679727D01*
X135919853Y-133418574D01*
X135975000Y-133141335D01*
X135975000Y-132858665D01*
X135919853Y-132581426D01*
X135811680Y-132320273D01*
X135654637Y-132085241D01*
X135454759Y-131885363D01*
X135219727Y-131728320D01*
X134958574Y-131620147D01*
X134681335Y-131565000D01*
X134398665Y-131565000D01*
X134216114Y-131601312D01*
X132760000Y-130145199D01*
X132760000Y-129888212D01*
X142905000Y-129888212D01*
X142905000Y-130111788D01*
X142948617Y-130331067D01*
X143034176Y-130537624D01*
X143158388Y-130723520D01*
X143316480Y-130881612D01*
X143502376Y-131005824D01*
X143708933Y-131091383D01*
X143928212Y-131135000D01*
X144151788Y-131135000D01*
X144371067Y-131091383D01*
X144577624Y-131005824D01*
X144763520Y-130881612D01*
X144921612Y-130723520D01*
X145045824Y-130537624D01*
X145131383Y-130331067D01*
X145175000Y-130111788D01*
X145175000Y-129888212D01*
X145131383Y-129668933D01*
X145045824Y-129462376D01*
X144921612Y-129276480D01*
X144763520Y-129118388D01*
X144577624Y-128994176D01*
X144371067Y-128908617D01*
X144151788Y-128865000D01*
X143928212Y-128865000D01*
X143708933Y-128908617D01*
X143502376Y-128994176D01*
X143316480Y-129118388D01*
X143158388Y-129276480D01*
X143034176Y-129462376D01*
X142948617Y-129668933D01*
X142905000Y-129888212D01*
X132760000Y-129888212D01*
X132760000Y-129338313D01*
X132978505Y-129192312D01*
X133192312Y-128978505D01*
X133360299Y-128727095D01*
X133476011Y-128447743D01*
X133535000Y-128151184D01*
X133535000Y-127848816D01*
X133476011Y-127552257D01*
X133360299Y-127272905D01*
X133192312Y-127021495D01*
X133125873Y-126955056D01*
X133144180Y-126949502D01*
X133254494Y-126890537D01*
X133351185Y-126811185D01*
X133430537Y-126714494D01*
X133489502Y-126604180D01*
X133525812Y-126484482D01*
X133538072Y-126360000D01*
X133538072Y-124560000D01*
X133525812Y-124435518D01*
X133489502Y-124315820D01*
X133430537Y-124205506D01*
X133351185Y-124108815D01*
X133254494Y-124029463D01*
X133199374Y-124000000D01*
X144358299Y-124000000D01*
X144385040Y-124271507D01*
X144464236Y-124532581D01*
X144592843Y-124773188D01*
X144765919Y-124984081D01*
X144976812Y-125157157D01*
X145217419Y-125285764D01*
X145478493Y-125364960D01*
X145681963Y-125385000D01*
X146318037Y-125385000D01*
X146521507Y-125364960D01*
X146782581Y-125285764D01*
X147023188Y-125157157D01*
X147234081Y-124984081D01*
X147407157Y-124773188D01*
X147535764Y-124532581D01*
X147614960Y-124271507D01*
X147641701Y-124000000D01*
X147614960Y-123728493D01*
X147535764Y-123467419D01*
X147407157Y-123226812D01*
X147234081Y-123015919D01*
X147023188Y-122842843D01*
X146782581Y-122714236D01*
X146521507Y-122635040D01*
X146318037Y-122615000D01*
X145681963Y-122615000D01*
X145478493Y-122635040D01*
X145217419Y-122714236D01*
X144976812Y-122842843D01*
X144765919Y-123015919D01*
X144592843Y-123226812D01*
X144464236Y-123467419D01*
X144385040Y-123728493D01*
X144358299Y-124000000D01*
X133199374Y-124000000D01*
X133144180Y-123970498D01*
X133024482Y-123934188D01*
X132900000Y-123921928D01*
X131100000Y-123921928D01*
X130975518Y-123934188D01*
X130855820Y-123970498D01*
X130745506Y-124029463D01*
X130648815Y-124108815D01*
X130569463Y-124205506D01*
X130510498Y-124315820D01*
X130474188Y-124435518D01*
X130461928Y-124560000D01*
X121127000Y-124560000D01*
X121127000Y-120888212D01*
X142905000Y-120888212D01*
X142905000Y-121111788D01*
X142948617Y-121331067D01*
X143034176Y-121537624D01*
X143158388Y-121723520D01*
X143316480Y-121881612D01*
X143502376Y-122005824D01*
X143708933Y-122091383D01*
X143928212Y-122135000D01*
X144151788Y-122135000D01*
X144371067Y-122091383D01*
X144577624Y-122005824D01*
X144763520Y-121881612D01*
X144921612Y-121723520D01*
X145045824Y-121537624D01*
X145131383Y-121331067D01*
X145175000Y-121111788D01*
X145175000Y-120888212D01*
X145131383Y-120668933D01*
X145045824Y-120462376D01*
X144921612Y-120276480D01*
X144763520Y-120118388D01*
X144577624Y-119994176D01*
X144371067Y-119908617D01*
X144151788Y-119865000D01*
X143928212Y-119865000D01*
X143708933Y-119908617D01*
X143502376Y-119994176D01*
X143316480Y-120118388D01*
X143158388Y-120276480D01*
X143034176Y-120462376D01*
X142948617Y-120668933D01*
X142905000Y-120888212D01*
X121127000Y-120888212D01*
X121127000Y-115127000D01*
X150873000Y-115127000D01*
X150873000Y-155873000D01*
G36*
X67873000Y-127000000D02*
G01*
X67875440Y-127024776D01*
X67882667Y-127048601D01*
X67894403Y-127070557D01*
X67910197Y-127089803D01*
X67929443Y-127105597D01*
X67951399Y-127117333D01*
X67975224Y-127124560D01*
X68000000Y-127127000D01*
X81873000Y-127127000D01*
X81873000Y-132801202D01*
X81779369Y-132941331D01*
X81610890Y-133348075D01*
X81525000Y-133779872D01*
X81525000Y-134220128D01*
X81610890Y-134651925D01*
X81779369Y-135058669D01*
X81873000Y-135198798D01*
X81873000Y-139000000D01*
X81875440Y-139024776D01*
X81882667Y-139048601D01*
X81894403Y-139070557D01*
X81910197Y-139089803D01*
X81929443Y-139105597D01*
X81951399Y-139117333D01*
X81975224Y-139124560D01*
X82000000Y-139127000D01*
X94873000Y-139127000D01*
X94873000Y-146873000D01*
X74627000Y-146873000D01*
X74627000Y-134500000D01*
X74624560Y-134475224D01*
X74617333Y-134451399D01*
X74605597Y-134429443D01*
X74589803Y-134410197D01*
X74570557Y-134394403D01*
X74548601Y-134382667D01*
X74524776Y-134375440D01*
X74500000Y-134373000D01*
X60627000Y-134373000D01*
X60627000Y-116447801D01*
X61814802Y-115260000D01*
X62821957Y-115260000D01*
X62925363Y-115414759D01*
X63125241Y-115614637D01*
X63360273Y-115771680D01*
X63621426Y-115879853D01*
X63898665Y-115935000D01*
X64181335Y-115935000D01*
X64458574Y-115879853D01*
X64719727Y-115771680D01*
X64954759Y-115614637D01*
X65154637Y-115414759D01*
X65311680Y-115179727D01*
X65419853Y-114918574D01*
X65475000Y-114641335D01*
X65475000Y-114358665D01*
X65419853Y-114081426D01*
X65311680Y-113820273D01*
X65154637Y-113585241D01*
X64954759Y-113385363D01*
X64719727Y-113228320D01*
X64458574Y-113120147D01*
X64181335Y-113065000D01*
X63898665Y-113065000D01*
X63621426Y-113120147D01*
X63360273Y-113228320D01*
X63125241Y-113385363D01*
X62925363Y-113585241D01*
X62821957Y-113740000D01*
X61537323Y-113740000D01*
X61500000Y-113736324D01*
X61462677Y-113740000D01*
X61462667Y-113740000D01*
X61351014Y-113750997D01*
X61207753Y-113794454D01*
X61075723Y-113865026D01*
X60992083Y-113933668D01*
X60959999Y-113959999D01*
X60936201Y-113988997D01*
X60627000Y-114298198D01*
X60627000Y-100500000D01*
X60624560Y-100475224D01*
X60617333Y-100451399D01*
X60605597Y-100429443D01*
X60589803Y-100410197D01*
X60570557Y-100394403D01*
X60548601Y-100382667D01*
X60524776Y-100375440D01*
X60500000Y-100373000D01*
X59760000Y-100373000D01*
X59760000Y-99064801D01*
X61564802Y-97260000D01*
X62821957Y-97260000D01*
X62925363Y-97414759D01*
X63125241Y-97614637D01*
X63360273Y-97771680D01*
X63621426Y-97879853D01*
X63898665Y-97935000D01*
X64181335Y-97935000D01*
X64458574Y-97879853D01*
X64719727Y-97771680D01*
X64954759Y-97614637D01*
X65154637Y-97414759D01*
X65311680Y-97179727D01*
X65419853Y-96918574D01*
X65475000Y-96641335D01*
X65475000Y-96358665D01*
X65419853Y-96081426D01*
X65311680Y-95820273D01*
X65154637Y-95585241D01*
X64954759Y-95385363D01*
X64719727Y-95228320D01*
X64458574Y-95120147D01*
X64181335Y-95065000D01*
X63898665Y-95065000D01*
X63621426Y-95120147D01*
X63360273Y-95228320D01*
X63125241Y-95385363D01*
X62925363Y-95585241D01*
X62821957Y-95740000D01*
X61287333Y-95740000D01*
X61250000Y-95736323D01*
X61212667Y-95740000D01*
X61101014Y-95750997D01*
X60957753Y-95794454D01*
X60825724Y-95865026D01*
X60709999Y-95959999D01*
X60686201Y-95988997D01*
X58488998Y-98186201D01*
X58460000Y-98209999D01*
X58436202Y-98238997D01*
X58436201Y-98238998D01*
X58365026Y-98325724D01*
X58294454Y-98457754D01*
X58250998Y-98601015D01*
X58236324Y-98750000D01*
X58240001Y-98787332D01*
X58240001Y-100373000D01*
X37127000Y-100373000D01*
X37127000Y-95888212D01*
X43825000Y-95888212D01*
X43825000Y-96111788D01*
X43868617Y-96331067D01*
X43954176Y-96537624D01*
X44078388Y-96723520D01*
X44236480Y-96881612D01*
X44422376Y-97005824D01*
X44628933Y-97091383D01*
X44848212Y-97135000D01*
X45071788Y-97135000D01*
X45291067Y-97091383D01*
X45497624Y-97005824D01*
X45683520Y-96881612D01*
X45841612Y-96723520D01*
X45965824Y-96537624D01*
X46051383Y-96331067D01*
X46095000Y-96111788D01*
X46095000Y-95888212D01*
X46051383Y-95668933D01*
X45965824Y-95462376D01*
X45841612Y-95276480D01*
X45683520Y-95118388D01*
X45497624Y-94994176D01*
X45291067Y-94908617D01*
X45071788Y-94865000D01*
X44848212Y-94865000D01*
X44628933Y-94908617D01*
X44422376Y-94994176D01*
X44236480Y-95118388D01*
X44078388Y-95276480D01*
X43954176Y-95462376D01*
X43868617Y-95668933D01*
X43825000Y-95888212D01*
X37127000Y-95888212D01*
X37127000Y-93127000D01*
X67873000Y-93127000D01*
X67873000Y-127000000D01*
G37*
X67873000Y-127000000D02*
X67875440Y-127024776D01*
X67882667Y-127048601D01*
X67894403Y-127070557D01*
X67910197Y-127089803D01*
X67929443Y-127105597D01*
X67951399Y-127117333D01*
X67975224Y-127124560D01*
X68000000Y-127127000D01*
X81873000Y-127127000D01*
X81873000Y-132801202D01*
X81779369Y-132941331D01*
X81610890Y-133348075D01*
X81525000Y-133779872D01*
X81525000Y-134220128D01*
X81610890Y-134651925D01*
X81779369Y-135058669D01*
X81873000Y-135198798D01*
X81873000Y-139000000D01*
X81875440Y-139024776D01*
X81882667Y-139048601D01*
X81894403Y-139070557D01*
X81910197Y-139089803D01*
X81929443Y-139105597D01*
X81951399Y-139117333D01*
X81975224Y-139124560D01*
X82000000Y-139127000D01*
X94873000Y-139127000D01*
X94873000Y-146873000D01*
X74627000Y-146873000D01*
X74627000Y-134500000D01*
X74624560Y-134475224D01*
X74617333Y-134451399D01*
X74605597Y-134429443D01*
X74589803Y-134410197D01*
X74570557Y-134394403D01*
X74548601Y-134382667D01*
X74524776Y-134375440D01*
X74500000Y-134373000D01*
X60627000Y-134373000D01*
X60627000Y-116447801D01*
X61814802Y-115260000D01*
X62821957Y-115260000D01*
X62925363Y-115414759D01*
X63125241Y-115614637D01*
X63360273Y-115771680D01*
X63621426Y-115879853D01*
X63898665Y-115935000D01*
X64181335Y-115935000D01*
X64458574Y-115879853D01*
X64719727Y-115771680D01*
X64954759Y-115614637D01*
X65154637Y-115414759D01*
X65311680Y-115179727D01*
X65419853Y-114918574D01*
X65475000Y-114641335D01*
X65475000Y-114358665D01*
X65419853Y-114081426D01*
X65311680Y-113820273D01*
X65154637Y-113585241D01*
X64954759Y-113385363D01*
X64719727Y-113228320D01*
X64458574Y-113120147D01*
X64181335Y-113065000D01*
X63898665Y-113065000D01*
X63621426Y-113120147D01*
X63360273Y-113228320D01*
X63125241Y-113385363D01*
X62925363Y-113585241D01*
X62821957Y-113740000D01*
X61537323Y-113740000D01*
X61500000Y-113736324D01*
X61462677Y-113740000D01*
X61462667Y-113740000D01*
X61351014Y-113750997D01*
X61207753Y-113794454D01*
X61075723Y-113865026D01*
X60992083Y-113933668D01*
X60959999Y-113959999D01*
X60936201Y-113988997D01*
X60627000Y-114298198D01*
X60627000Y-100500000D01*
X60624560Y-100475224D01*
X60617333Y-100451399D01*
X60605597Y-100429443D01*
X60589803Y-100410197D01*
X60570557Y-100394403D01*
X60548601Y-100382667D01*
X60524776Y-100375440D01*
X60500000Y-100373000D01*
X59760000Y-100373000D01*
X59760000Y-99064801D01*
X61564802Y-97260000D01*
X62821957Y-97260000D01*
X62925363Y-97414759D01*
X63125241Y-97614637D01*
X63360273Y-97771680D01*
X63621426Y-97879853D01*
X63898665Y-97935000D01*
X64181335Y-97935000D01*
X64458574Y-97879853D01*
X64719727Y-97771680D01*
X64954759Y-97614637D01*
X65154637Y-97414759D01*
X65311680Y-97179727D01*
X65419853Y-96918574D01*
X65475000Y-96641335D01*
X65475000Y-96358665D01*
X65419853Y-96081426D01*
X65311680Y-95820273D01*
X65154637Y-95585241D01*
X64954759Y-95385363D01*
X64719727Y-95228320D01*
X64458574Y-95120147D01*
X64181335Y-95065000D01*
X63898665Y-95065000D01*
X63621426Y-95120147D01*
X63360273Y-95228320D01*
X63125241Y-95385363D01*
X62925363Y-95585241D01*
X62821957Y-95740000D01*
X61287333Y-95740000D01*
X61250000Y-95736323D01*
X61212667Y-95740000D01*
X61101014Y-95750997D01*
X60957753Y-95794454D01*
X60825724Y-95865026D01*
X60709999Y-95959999D01*
X60686201Y-95988997D01*
X58488998Y-98186201D01*
X58460000Y-98209999D01*
X58436202Y-98238997D01*
X58436201Y-98238998D01*
X58365026Y-98325724D01*
X58294454Y-98457754D01*
X58250998Y-98601015D01*
X58236324Y-98750000D01*
X58240001Y-98787332D01*
X58240001Y-100373000D01*
X37127000Y-100373000D01*
X37127000Y-95888212D01*
X43825000Y-95888212D01*
X43825000Y-96111788D01*
X43868617Y-96331067D01*
X43954176Y-96537624D01*
X44078388Y-96723520D01*
X44236480Y-96881612D01*
X44422376Y-97005824D01*
X44628933Y-97091383D01*
X44848212Y-97135000D01*
X45071788Y-97135000D01*
X45291067Y-97091383D01*
X45497624Y-97005824D01*
X45683520Y-96881612D01*
X45841612Y-96723520D01*
X45965824Y-96537624D01*
X46051383Y-96331067D01*
X46095000Y-96111788D01*
X46095000Y-95888212D01*
X46051383Y-95668933D01*
X45965824Y-95462376D01*
X45841612Y-95276480D01*
X45683520Y-95118388D01*
X45497624Y-94994176D01*
X45291067Y-94908617D01*
X45071788Y-94865000D01*
X44848212Y-94865000D01*
X44628933Y-94908617D01*
X44422376Y-94994176D01*
X44236480Y-95118388D01*
X44078388Y-95276480D01*
X43954176Y-95462376D01*
X43868617Y-95668933D01*
X43825000Y-95888212D01*
X37127000Y-95888212D01*
X37127000Y-93127000D01*
X67873000Y-93127000D01*
X67873000Y-127000000D01*
G36*
X59373000Y-115552199D02*
G01*
X58488998Y-116436201D01*
X58460000Y-116459999D01*
X58436202Y-116488997D01*
X58436201Y-116488998D01*
X58365026Y-116575724D01*
X58294454Y-116707754D01*
X58250998Y-116851015D01*
X58236324Y-117000000D01*
X58240001Y-117037332D01*
X58240000Y-120161687D01*
X58021495Y-120307688D01*
X57955056Y-120374127D01*
X57949502Y-120355820D01*
X57890537Y-120245506D01*
X57811185Y-120148815D01*
X57714494Y-120069463D01*
X57604180Y-120010498D01*
X57484482Y-119974188D01*
X57360000Y-119961928D01*
X55560000Y-119961928D01*
X55435518Y-119974188D01*
X55315820Y-120010498D01*
X55205506Y-120069463D01*
X55108815Y-120148815D01*
X55029463Y-120245506D01*
X54970498Y-120355820D01*
X54934188Y-120475518D01*
X54921928Y-120600000D01*
X54921928Y-122400000D01*
X54934188Y-122524482D01*
X54970498Y-122644180D01*
X55029463Y-122754494D01*
X55108815Y-122851185D01*
X55205506Y-122930537D01*
X55315820Y-122989502D01*
X55435518Y-123025812D01*
X55560000Y-123038072D01*
X57360000Y-123038072D01*
X57484482Y-123025812D01*
X57604180Y-122989502D01*
X57714494Y-122930537D01*
X57811185Y-122851185D01*
X57890537Y-122754494D01*
X57949502Y-122644180D01*
X57955056Y-122625873D01*
X58021495Y-122692312D01*
X58272905Y-122860299D01*
X58552257Y-122976011D01*
X58848816Y-123035000D01*
X59151184Y-123035000D01*
X59373000Y-122990878D01*
X59373000Y-135500000D01*
X59375440Y-135524776D01*
X59382667Y-135548601D01*
X59394403Y-135570557D01*
X59410197Y-135589803D01*
X59429443Y-135605597D01*
X59451399Y-135617333D01*
X59475224Y-135624560D01*
X59500000Y-135627000D01*
X73373000Y-135627000D01*
X73373000Y-148000000D01*
X73375440Y-148024776D01*
X73382667Y-148048601D01*
X73394403Y-148070557D01*
X73410197Y-148089803D01*
X73429443Y-148105597D01*
X73451399Y-148117333D01*
X73475224Y-148124560D01*
X73500000Y-148127000D01*
X94873000Y-148127000D01*
X94873000Y-155873000D01*
X66127000Y-155873000D01*
X66127000Y-143000000D01*
X66124560Y-142975224D01*
X66117333Y-142951399D01*
X66105597Y-142929443D01*
X66089803Y-142910197D01*
X66070557Y-142894403D01*
X66048601Y-142882667D01*
X66024776Y-142875440D01*
X66000000Y-142873000D01*
X52127000Y-142873000D01*
X52127000Y-118500000D01*
X52124560Y-118475224D01*
X52117333Y-118451399D01*
X52105597Y-118429443D01*
X52089803Y-118410197D01*
X52070557Y-118394403D01*
X52048601Y-118382667D01*
X52024776Y-118375440D01*
X52000000Y-118373000D01*
X37127000Y-118373000D01*
X37127000Y-113888212D01*
X43825000Y-113888212D01*
X43825000Y-114111788D01*
X43868617Y-114331067D01*
X43954176Y-114537624D01*
X44078388Y-114723520D01*
X44236480Y-114881612D01*
X44422376Y-115005824D01*
X44628933Y-115091383D01*
X44848212Y-115135000D01*
X45071788Y-115135000D01*
X45291067Y-115091383D01*
X45497624Y-115005824D01*
X45683520Y-114881612D01*
X45841612Y-114723520D01*
X45965824Y-114537624D01*
X46051383Y-114331067D01*
X46095000Y-114111788D01*
X46095000Y-113888212D01*
X46051383Y-113668933D01*
X45965824Y-113462376D01*
X45841612Y-113276480D01*
X45683520Y-113118388D01*
X45497624Y-112994176D01*
X45291067Y-112908617D01*
X45071788Y-112865000D01*
X44848212Y-112865000D01*
X44628933Y-112908617D01*
X44422376Y-112994176D01*
X44236480Y-113118388D01*
X44078388Y-113276480D01*
X43954176Y-113462376D01*
X43868617Y-113668933D01*
X43825000Y-113888212D01*
X37127000Y-113888212D01*
X37127000Y-111127000D01*
X59373000Y-111127000D01*
X59373000Y-115552199D01*
G37*
X59373000Y-115552199D02*
X58488998Y-116436201D01*
X58460000Y-116459999D01*
X58436202Y-116488997D01*
X58436201Y-116488998D01*
X58365026Y-116575724D01*
X58294454Y-116707754D01*
X58250998Y-116851015D01*
X58236324Y-117000000D01*
X58240001Y-117037332D01*
X58240000Y-120161687D01*
X58021495Y-120307688D01*
X57955056Y-120374127D01*
X57949502Y-120355820D01*
X57890537Y-120245506D01*
X57811185Y-120148815D01*
X57714494Y-120069463D01*
X57604180Y-120010498D01*
X57484482Y-119974188D01*
X57360000Y-119961928D01*
X55560000Y-119961928D01*
X55435518Y-119974188D01*
X55315820Y-120010498D01*
X55205506Y-120069463D01*
X55108815Y-120148815D01*
X55029463Y-120245506D01*
X54970498Y-120355820D01*
X54934188Y-120475518D01*
X54921928Y-120600000D01*
X54921928Y-122400000D01*
X54934188Y-122524482D01*
X54970498Y-122644180D01*
X55029463Y-122754494D01*
X55108815Y-122851185D01*
X55205506Y-122930537D01*
X55315820Y-122989502D01*
X55435518Y-123025812D01*
X55560000Y-123038072D01*
X57360000Y-123038072D01*
X57484482Y-123025812D01*
X57604180Y-122989502D01*
X57714494Y-122930537D01*
X57811185Y-122851185D01*
X57890537Y-122754494D01*
X57949502Y-122644180D01*
X57955056Y-122625873D01*
X58021495Y-122692312D01*
X58272905Y-122860299D01*
X58552257Y-122976011D01*
X58848816Y-123035000D01*
X59151184Y-123035000D01*
X59373000Y-122990878D01*
X59373000Y-135500000D01*
X59375440Y-135524776D01*
X59382667Y-135548601D01*
X59394403Y-135570557D01*
X59410197Y-135589803D01*
X59429443Y-135605597D01*
X59451399Y-135617333D01*
X59475224Y-135624560D01*
X59500000Y-135627000D01*
X73373000Y-135627000D01*
X73373000Y-148000000D01*
X73375440Y-148024776D01*
X73382667Y-148048601D01*
X73394403Y-148070557D01*
X73410197Y-148089803D01*
X73429443Y-148105597D01*
X73451399Y-148117333D01*
X73475224Y-148124560D01*
X73500000Y-148127000D01*
X94873000Y-148127000D01*
X94873000Y-155873000D01*
X66127000Y-155873000D01*
X66127000Y-143000000D01*
X66124560Y-142975224D01*
X66117333Y-142951399D01*
X66105597Y-142929443D01*
X66089803Y-142910197D01*
X66070557Y-142894403D01*
X66048601Y-142882667D01*
X66024776Y-142875440D01*
X66000000Y-142873000D01*
X52127000Y-142873000D01*
X52127000Y-118500000D01*
X52124560Y-118475224D01*
X52117333Y-118451399D01*
X52105597Y-118429443D01*
X52089803Y-118410197D01*
X52070557Y-118394403D01*
X52048601Y-118382667D01*
X52024776Y-118375440D01*
X52000000Y-118373000D01*
X37127000Y-118373000D01*
X37127000Y-113888212D01*
X43825000Y-113888212D01*
X43825000Y-114111788D01*
X43868617Y-114331067D01*
X43954176Y-114537624D01*
X44078388Y-114723520D01*
X44236480Y-114881612D01*
X44422376Y-115005824D01*
X44628933Y-115091383D01*
X44848212Y-115135000D01*
X45071788Y-115135000D01*
X45291067Y-115091383D01*
X45497624Y-115005824D01*
X45683520Y-114881612D01*
X45841612Y-114723520D01*
X45965824Y-114537624D01*
X46051383Y-114331067D01*
X46095000Y-114111788D01*
X46095000Y-113888212D01*
X46051383Y-113668933D01*
X45965824Y-113462376D01*
X45841612Y-113276480D01*
X45683520Y-113118388D01*
X45497624Y-112994176D01*
X45291067Y-112908617D01*
X45071788Y-112865000D01*
X44848212Y-112865000D01*
X44628933Y-112908617D01*
X44422376Y-112994176D01*
X44236480Y-113118388D01*
X44078388Y-113276480D01*
X43954176Y-113462376D01*
X43868617Y-113668933D01*
X43825000Y-113888212D01*
X37127000Y-113888212D01*
X37127000Y-111127000D01*
X59373000Y-111127000D01*
X59373000Y-115552199D01*
M02*
