G04 #@! TF.GenerationSoftware,KiCad,Pcbnew,9.0.1*
G04 #@! TF.CreationDate,2025-06-15T22:17:52-07:00*
G04 #@! TF.ProjectId,Power-Secondary,506f7765-722d-4536-9563-6f6e64617279,rev?*
G04 #@! TF.SameCoordinates,Original*
G04 #@! TF.FileFunction,Paste,Bot*
G04 #@! TF.FilePolarity,Positive*
%FSLAX46Y46*%
G04 Gerber Fmt 4.6, Leading zero omitted, Abs format (unit mm)*
G04 Created by KiCad (PCBNEW 9.0.1) date 2025-06-15 22:17:52*
%MOMM*%
%LPD*%
G01*
G04 APERTURE LIST*
G04 Aperture macros list*
%AMRoundRect*
0 Rectangle with rounded corners*
0 $1 Rounding radius*
0 $2 $3 $4 $5 $6 $7 $8 $9 X,Y pos of 4 corners*
0 Add a 4 corners polygon primitive as box body*
4,1,4,$2,$3,$4,$5,$6,$7,$8,$9,$2,$3,0*
0 Add four circle primitives for the rounded corners*
1,1,$1+$1,$2,$3*
1,1,$1+$1,$4,$5*
1,1,$1+$1,$6,$7*
1,1,$1+$1,$8,$9*
0 Add four rect primitives between the rounded corners*
20,1,$1+$1,$2,$3,$4,$5,0*
20,1,$1+$1,$4,$5,$6,$7,0*
20,1,$1+$1,$6,$7,$8,$9,0*
20,1,$1+$1,$8,$9,$2,$3,0*%
G04 Aperture macros list end*
%ADD10RoundRect,0.250000X-0.450000X0.262500X-0.450000X-0.262500X0.450000X-0.262500X0.450000X0.262500X0*%
%ADD11RoundRect,0.250000X-0.262500X-0.450000X0.262500X-0.450000X0.262500X0.450000X-0.262500X0.450000X0*%
%ADD12RoundRect,0.250000X0.450000X-0.262500X0.450000X0.262500X-0.450000X0.262500X-0.450000X-0.262500X0*%
%ADD13R,3.910000X3.810000*%
%ADD14R,0.610000X1.020000*%
%ADD15R,0.610000X1.270000*%
%ADD16RoundRect,0.150000X0.150000X-0.650000X0.150000X0.650000X-0.150000X0.650000X-0.150000X-0.650000X0*%
%ADD17RoundRect,0.150000X-0.587500X-0.150000X0.587500X-0.150000X0.587500X0.150000X-0.587500X0.150000X0*%
%ADD18RoundRect,0.250000X0.475000X-0.250000X0.475000X0.250000X-0.475000X0.250000X-0.475000X-0.250000X0*%
%ADD19RoundRect,0.150000X0.200000X-0.150000X0.200000X0.150000X-0.200000X0.150000X-0.200000X-0.150000X0*%
%ADD20RoundRect,0.250000X0.262500X0.450000X-0.262500X0.450000X-0.262500X-0.450000X0.262500X-0.450000X0*%
%ADD21RoundRect,0.250000X-0.475000X0.250000X-0.475000X-0.250000X0.475000X-0.250000X0.475000X0.250000X0*%
G04 APERTURE END LIST*
D10*
X140400000Y-95175000D03*
X140400000Y-97000000D03*
D11*
X111487500Y-69800000D03*
X113312500Y-69800000D03*
D12*
X131000000Y-95112500D03*
X131000000Y-93287500D03*
D13*
X172495000Y-77040000D03*
D14*
X170590000Y-74935000D03*
X171860000Y-74935000D03*
X173130000Y-74935000D03*
X174400000Y-74935000D03*
D15*
X170590000Y-80400000D03*
X171860000Y-80400000D03*
X173130000Y-80400000D03*
X174400000Y-80400000D03*
D16*
X153225000Y-88350000D03*
X152275000Y-88350000D03*
X151325000Y-88350000D03*
X151325000Y-86050000D03*
X152275000Y-86050000D03*
X153225000Y-86050000D03*
D12*
X151800000Y-95112500D03*
X151800000Y-93287500D03*
D17*
X140862500Y-74450000D03*
X140862500Y-72550000D03*
X142737500Y-73500000D03*
D12*
X145300000Y-88500000D03*
X145300000Y-86675000D03*
X128800000Y-95100000D03*
X128800000Y-93275000D03*
D16*
X127100000Y-88350000D03*
X126150000Y-88350000D03*
X125200000Y-88350000D03*
X125200000Y-86050000D03*
X126150000Y-86050000D03*
X127100000Y-86050000D03*
D12*
X144800000Y-76312500D03*
X144800000Y-74487500D03*
D18*
X137900000Y-90450000D03*
X137900000Y-88550000D03*
D12*
X149500000Y-88500000D03*
X149500000Y-86675000D03*
X147400000Y-95112500D03*
X147400000Y-93287500D03*
X133112500Y-88512500D03*
X133112500Y-86687500D03*
D18*
X140550000Y-90450000D03*
X140550000Y-88550000D03*
X124250000Y-80700000D03*
X124250000Y-78800000D03*
D11*
X111450000Y-72000000D03*
X113275000Y-72000000D03*
D18*
X154150000Y-80650000D03*
X154150000Y-78750000D03*
D19*
X124250000Y-75050000D03*
X124250000Y-76450000D03*
D12*
X133200000Y-95100000D03*
X133200000Y-93275000D03*
X128925000Y-88512500D03*
X128925000Y-86687500D03*
X149600000Y-95112500D03*
X149600000Y-93287500D03*
X145200000Y-95112500D03*
X145200000Y-93287500D03*
D11*
X139687500Y-67400000D03*
X141512500Y-67400000D03*
D20*
X141512500Y-64900000D03*
X139687500Y-64900000D03*
X166675000Y-72100000D03*
X164850000Y-72100000D03*
D12*
X131012500Y-88512500D03*
X131012500Y-86687500D03*
D19*
X154127500Y-75000000D03*
X154127500Y-76400000D03*
D18*
X135500000Y-84050000D03*
X135500000Y-82150000D03*
D21*
X137700000Y-82150000D03*
X137700000Y-84050000D03*
D12*
X147400000Y-88500000D03*
X147400000Y-86675000D03*
D20*
X166712500Y-70000000D03*
X164887500Y-70000000D03*
D12*
X126600000Y-95100000D03*
X126600000Y-93275000D03*
D10*
X138100000Y-95175000D03*
X138100000Y-97000000D03*
M02*
