%TF.GenerationSoftware,KiCad,Pcbnew,7.0.2*%
%TF.CreationDate,2023-09-20T10:41:03-05:00*%
%TF.ProjectId,Power-Secondary,506f7765-722d-4536-9563-6f6e64617279,rev?*%
%TF.SameCoordinates,Original*%
%TF.FileFunction,Drillmap*%
%TF.FilePolarity,Positive*%
%FSLAX45Y45*%
G04 Gerber Fmt 4.5, Leading zero omitted, Abs format (unit mm)*
G04 Created by KiCad (PCBNEW 7.0.2) date 2023-09-20 10:41:03*
%MOMM*%
%LPD*%
G01*
G04 APERTURE LIST*
%ADD10C,0.150000*%
%ADD11C,0.200000*%
%ADD12C,0.127000*%
%ADD13C,0.300000*%
G04 APERTURE END LIST*
D10*
X17000000Y-4800000D02*
X17000000Y-10400000D01*
X16500000Y-10900000D02*
G75*
G03*
X17000000Y-10400000I0J500000D01*
G01*
X9300000Y-4300000D02*
G75*
G03*
X8800000Y-4800000I0J-500000D01*
G01*
X17000000Y-4800000D02*
G75*
G03*
X16500000Y-4300000I-500000J0D01*
G01*
X9300000Y-4300000D02*
X16500000Y-4300000D01*
X9300000Y-10900000D02*
X16500000Y-10900000D01*
X8800000Y-4800000D02*
X8800000Y-10400000D01*
X8800000Y-10400000D02*
G75*
G03*
X9300000Y-10900000I500000J0D01*
G01*
D11*
D12*
X11336500Y-10249000D02*
X11463500Y-10376000D01*
X11463500Y-10249000D02*
X11336500Y-10376000D01*
X12236500Y-10249000D02*
X12363500Y-10376000D01*
X12363500Y-10249000D02*
X12236500Y-10376000D01*
X12391400Y-5037800D02*
X12518400Y-5164800D01*
X12518400Y-5037800D02*
X12391400Y-5164800D01*
X13291400Y-5037800D02*
X13418400Y-5164800D01*
X13418400Y-5037800D02*
X13291400Y-5164800D01*
X13536500Y-10249000D02*
X13663500Y-10376000D01*
X13663500Y-10249000D02*
X13536500Y-10376000D01*
X14436500Y-10249000D02*
X14563500Y-10376000D01*
X14563500Y-10249000D02*
X14436500Y-10376000D01*
D13*
X9450000Y-4800000D02*
G75*
G03*
X9450000Y-4800000I-150000J0D01*
G01*
X9450000Y-10400000D02*
G75*
G03*
X9450000Y-10400000I-150000J0D01*
G01*
X16650000Y-4800000D02*
G75*
G03*
X16650000Y-4800000I-150000J0D01*
G01*
X16650000Y-10400000D02*
G75*
G03*
X16650000Y-10400000I-150000J0D01*
G01*
D11*
X9040119Y-11220024D02*
X9040119Y-11020024D01*
X9040119Y-11020024D02*
X9087738Y-11020024D01*
X9087738Y-11020024D02*
X9116310Y-11029548D01*
X9116310Y-11029548D02*
X9135357Y-11048595D01*
X9135357Y-11048595D02*
X9144881Y-11067643D01*
X9144881Y-11067643D02*
X9154405Y-11105738D01*
X9154405Y-11105738D02*
X9154405Y-11134310D01*
X9154405Y-11134310D02*
X9144881Y-11172405D01*
X9144881Y-11172405D02*
X9135357Y-11191452D01*
X9135357Y-11191452D02*
X9116310Y-11210500D01*
X9116310Y-11210500D02*
X9087738Y-11220024D01*
X9087738Y-11220024D02*
X9040119Y-11220024D01*
X9240119Y-11220024D02*
X9240119Y-11086690D01*
X9240119Y-11124786D02*
X9249643Y-11105738D01*
X9249643Y-11105738D02*
X9259167Y-11096214D01*
X9259167Y-11096214D02*
X9278214Y-11086690D01*
X9278214Y-11086690D02*
X9297262Y-11086690D01*
X9363929Y-11220024D02*
X9363929Y-11086690D01*
X9363929Y-11020024D02*
X9354405Y-11029548D01*
X9354405Y-11029548D02*
X9363929Y-11039071D01*
X9363929Y-11039071D02*
X9373452Y-11029548D01*
X9373452Y-11029548D02*
X9363929Y-11020024D01*
X9363929Y-11020024D02*
X9363929Y-11039071D01*
X9487738Y-11220024D02*
X9468690Y-11210500D01*
X9468690Y-11210500D02*
X9459167Y-11191452D01*
X9459167Y-11191452D02*
X9459167Y-11020024D01*
X9592500Y-11220024D02*
X9573452Y-11210500D01*
X9573452Y-11210500D02*
X9563929Y-11191452D01*
X9563929Y-11191452D02*
X9563929Y-11020024D01*
X9821071Y-11220024D02*
X9821071Y-11020024D01*
X9821071Y-11020024D02*
X9887738Y-11162881D01*
X9887738Y-11162881D02*
X9954405Y-11020024D01*
X9954405Y-11020024D02*
X9954405Y-11220024D01*
X10135357Y-11220024D02*
X10135357Y-11115262D01*
X10135357Y-11115262D02*
X10125833Y-11096214D01*
X10125833Y-11096214D02*
X10106786Y-11086690D01*
X10106786Y-11086690D02*
X10068690Y-11086690D01*
X10068690Y-11086690D02*
X10049643Y-11096214D01*
X10135357Y-11210500D02*
X10116310Y-11220024D01*
X10116310Y-11220024D02*
X10068690Y-11220024D01*
X10068690Y-11220024D02*
X10049643Y-11210500D01*
X10049643Y-11210500D02*
X10040119Y-11191452D01*
X10040119Y-11191452D02*
X10040119Y-11172405D01*
X10040119Y-11172405D02*
X10049643Y-11153357D01*
X10049643Y-11153357D02*
X10068690Y-11143833D01*
X10068690Y-11143833D02*
X10116310Y-11143833D01*
X10116310Y-11143833D02*
X10135357Y-11134310D01*
X10230595Y-11086690D02*
X10230595Y-11286690D01*
X10230595Y-11096214D02*
X10249643Y-11086690D01*
X10249643Y-11086690D02*
X10287738Y-11086690D01*
X10287738Y-11086690D02*
X10306786Y-11096214D01*
X10306786Y-11096214D02*
X10316310Y-11105738D01*
X10316310Y-11105738D02*
X10325833Y-11124786D01*
X10325833Y-11124786D02*
X10325833Y-11181929D01*
X10325833Y-11181929D02*
X10316310Y-11200976D01*
X10316310Y-11200976D02*
X10306786Y-11210500D01*
X10306786Y-11210500D02*
X10287738Y-11220024D01*
X10287738Y-11220024D02*
X10249643Y-11220024D01*
X10249643Y-11220024D02*
X10230595Y-11210500D01*
X10411548Y-11200976D02*
X10421071Y-11210500D01*
X10421071Y-11210500D02*
X10411548Y-11220024D01*
X10411548Y-11220024D02*
X10402024Y-11210500D01*
X10402024Y-11210500D02*
X10411548Y-11200976D01*
X10411548Y-11200976D02*
X10411548Y-11220024D01*
X10411548Y-11096214D02*
X10421071Y-11105738D01*
X10421071Y-11105738D02*
X10411548Y-11115262D01*
X10411548Y-11115262D02*
X10402024Y-11105738D01*
X10402024Y-11105738D02*
X10411548Y-11096214D01*
X10411548Y-11096214D02*
X10411548Y-11115262D01*
D12*
X8665500Y-11484000D02*
X8792500Y-11611000D01*
X8792500Y-11484000D02*
X8665500Y-11611000D01*
D11*
X9144881Y-11640024D02*
X9030595Y-11640024D01*
X9087738Y-11640024D02*
X9087738Y-11440024D01*
X9087738Y-11440024D02*
X9068690Y-11468595D01*
X9068690Y-11468595D02*
X9049643Y-11487643D01*
X9049643Y-11487643D02*
X9030595Y-11497167D01*
X9230595Y-11620976D02*
X9240119Y-11630500D01*
X9240119Y-11630500D02*
X9230595Y-11640024D01*
X9230595Y-11640024D02*
X9221071Y-11630500D01*
X9221071Y-11630500D02*
X9230595Y-11620976D01*
X9230595Y-11620976D02*
X9230595Y-11640024D01*
X9316310Y-11459071D02*
X9325833Y-11449548D01*
X9325833Y-11449548D02*
X9344881Y-11440024D01*
X9344881Y-11440024D02*
X9392500Y-11440024D01*
X9392500Y-11440024D02*
X9411548Y-11449548D01*
X9411548Y-11449548D02*
X9421071Y-11459071D01*
X9421071Y-11459071D02*
X9430595Y-11478119D01*
X9430595Y-11478119D02*
X9430595Y-11497167D01*
X9430595Y-11497167D02*
X9421071Y-11525738D01*
X9421071Y-11525738D02*
X9306786Y-11640024D01*
X9306786Y-11640024D02*
X9430595Y-11640024D01*
X9497262Y-11440024D02*
X9630595Y-11440024D01*
X9630595Y-11440024D02*
X9544881Y-11640024D01*
X9744881Y-11440024D02*
X9763929Y-11440024D01*
X9763929Y-11440024D02*
X9782976Y-11449548D01*
X9782976Y-11449548D02*
X9792500Y-11459071D01*
X9792500Y-11459071D02*
X9802024Y-11478119D01*
X9802024Y-11478119D02*
X9811548Y-11516214D01*
X9811548Y-11516214D02*
X9811548Y-11563833D01*
X9811548Y-11563833D02*
X9802024Y-11601928D01*
X9802024Y-11601928D02*
X9792500Y-11620976D01*
X9792500Y-11620976D02*
X9782976Y-11630500D01*
X9782976Y-11630500D02*
X9763929Y-11640024D01*
X9763929Y-11640024D02*
X9744881Y-11640024D01*
X9744881Y-11640024D02*
X9725833Y-11630500D01*
X9725833Y-11630500D02*
X9716310Y-11620976D01*
X9716310Y-11620976D02*
X9706786Y-11601928D01*
X9706786Y-11601928D02*
X9697262Y-11563833D01*
X9697262Y-11563833D02*
X9697262Y-11516214D01*
X9697262Y-11516214D02*
X9706786Y-11478119D01*
X9706786Y-11478119D02*
X9716310Y-11459071D01*
X9716310Y-11459071D02*
X9725833Y-11449548D01*
X9725833Y-11449548D02*
X9744881Y-11440024D01*
X9897262Y-11640024D02*
X9897262Y-11506690D01*
X9897262Y-11525738D02*
X9906786Y-11516214D01*
X9906786Y-11516214D02*
X9925833Y-11506690D01*
X9925833Y-11506690D02*
X9954405Y-11506690D01*
X9954405Y-11506690D02*
X9973452Y-11516214D01*
X9973452Y-11516214D02*
X9982976Y-11535262D01*
X9982976Y-11535262D02*
X9982976Y-11640024D01*
X9982976Y-11535262D02*
X9992500Y-11516214D01*
X9992500Y-11516214D02*
X10011548Y-11506690D01*
X10011548Y-11506690D02*
X10040119Y-11506690D01*
X10040119Y-11506690D02*
X10059167Y-11516214D01*
X10059167Y-11516214D02*
X10068691Y-11535262D01*
X10068691Y-11535262D02*
X10068691Y-11640024D01*
X10163929Y-11640024D02*
X10163929Y-11506690D01*
X10163929Y-11525738D02*
X10173452Y-11516214D01*
X10173452Y-11516214D02*
X10192500Y-11506690D01*
X10192500Y-11506690D02*
X10221072Y-11506690D01*
X10221072Y-11506690D02*
X10240119Y-11516214D01*
X10240119Y-11516214D02*
X10249643Y-11535262D01*
X10249643Y-11535262D02*
X10249643Y-11640024D01*
X10249643Y-11535262D02*
X10259167Y-11516214D01*
X10259167Y-11516214D02*
X10278214Y-11506690D01*
X10278214Y-11506690D02*
X10306786Y-11506690D01*
X10306786Y-11506690D02*
X10325833Y-11516214D01*
X10325833Y-11516214D02*
X10335357Y-11535262D01*
X10335357Y-11535262D02*
X10335357Y-11640024D01*
X10725833Y-11430500D02*
X10554405Y-11687643D01*
X10982976Y-11440024D02*
X11002024Y-11440024D01*
X11002024Y-11440024D02*
X11021072Y-11449548D01*
X11021072Y-11449548D02*
X11030595Y-11459071D01*
X11030595Y-11459071D02*
X11040119Y-11478119D01*
X11040119Y-11478119D02*
X11049643Y-11516214D01*
X11049643Y-11516214D02*
X11049643Y-11563833D01*
X11049643Y-11563833D02*
X11040119Y-11601928D01*
X11040119Y-11601928D02*
X11030595Y-11620976D01*
X11030595Y-11620976D02*
X11021072Y-11630500D01*
X11021072Y-11630500D02*
X11002024Y-11640024D01*
X11002024Y-11640024D02*
X10982976Y-11640024D01*
X10982976Y-11640024D02*
X10963929Y-11630500D01*
X10963929Y-11630500D02*
X10954405Y-11620976D01*
X10954405Y-11620976D02*
X10944881Y-11601928D01*
X10944881Y-11601928D02*
X10935357Y-11563833D01*
X10935357Y-11563833D02*
X10935357Y-11516214D01*
X10935357Y-11516214D02*
X10944881Y-11478119D01*
X10944881Y-11478119D02*
X10954405Y-11459071D01*
X10954405Y-11459071D02*
X10963929Y-11449548D01*
X10963929Y-11449548D02*
X10982976Y-11440024D01*
X11135357Y-11620976D02*
X11144881Y-11630500D01*
X11144881Y-11630500D02*
X11135357Y-11640024D01*
X11135357Y-11640024D02*
X11125834Y-11630500D01*
X11125834Y-11630500D02*
X11135357Y-11620976D01*
X11135357Y-11620976D02*
X11135357Y-11640024D01*
X11268691Y-11440024D02*
X11287738Y-11440024D01*
X11287738Y-11440024D02*
X11306786Y-11449548D01*
X11306786Y-11449548D02*
X11316310Y-11459071D01*
X11316310Y-11459071D02*
X11325833Y-11478119D01*
X11325833Y-11478119D02*
X11335357Y-11516214D01*
X11335357Y-11516214D02*
X11335357Y-11563833D01*
X11335357Y-11563833D02*
X11325833Y-11601928D01*
X11325833Y-11601928D02*
X11316310Y-11620976D01*
X11316310Y-11620976D02*
X11306786Y-11630500D01*
X11306786Y-11630500D02*
X11287738Y-11640024D01*
X11287738Y-11640024D02*
X11268691Y-11640024D01*
X11268691Y-11640024D02*
X11249643Y-11630500D01*
X11249643Y-11630500D02*
X11240119Y-11620976D01*
X11240119Y-11620976D02*
X11230595Y-11601928D01*
X11230595Y-11601928D02*
X11221072Y-11563833D01*
X11221072Y-11563833D02*
X11221072Y-11516214D01*
X11221072Y-11516214D02*
X11230595Y-11478119D01*
X11230595Y-11478119D02*
X11240119Y-11459071D01*
X11240119Y-11459071D02*
X11249643Y-11449548D01*
X11249643Y-11449548D02*
X11268691Y-11440024D01*
X11516310Y-11440024D02*
X11421072Y-11440024D01*
X11421072Y-11440024D02*
X11411548Y-11535262D01*
X11411548Y-11535262D02*
X11421072Y-11525738D01*
X11421072Y-11525738D02*
X11440119Y-11516214D01*
X11440119Y-11516214D02*
X11487738Y-11516214D01*
X11487738Y-11516214D02*
X11506786Y-11525738D01*
X11506786Y-11525738D02*
X11516310Y-11535262D01*
X11516310Y-11535262D02*
X11525833Y-11554309D01*
X11525833Y-11554309D02*
X11525833Y-11601928D01*
X11525833Y-11601928D02*
X11516310Y-11620976D01*
X11516310Y-11620976D02*
X11506786Y-11630500D01*
X11506786Y-11630500D02*
X11487738Y-11640024D01*
X11487738Y-11640024D02*
X11440119Y-11640024D01*
X11440119Y-11640024D02*
X11421072Y-11630500D01*
X11421072Y-11630500D02*
X11411548Y-11620976D01*
X11649643Y-11440024D02*
X11668691Y-11440024D01*
X11668691Y-11440024D02*
X11687738Y-11449548D01*
X11687738Y-11449548D02*
X11697262Y-11459071D01*
X11697262Y-11459071D02*
X11706786Y-11478119D01*
X11706786Y-11478119D02*
X11716310Y-11516214D01*
X11716310Y-11516214D02*
X11716310Y-11563833D01*
X11716310Y-11563833D02*
X11706786Y-11601928D01*
X11706786Y-11601928D02*
X11697262Y-11620976D01*
X11697262Y-11620976D02*
X11687738Y-11630500D01*
X11687738Y-11630500D02*
X11668691Y-11640024D01*
X11668691Y-11640024D02*
X11649643Y-11640024D01*
X11649643Y-11640024D02*
X11630595Y-11630500D01*
X11630595Y-11630500D02*
X11621072Y-11620976D01*
X11621072Y-11620976D02*
X11611548Y-11601928D01*
X11611548Y-11601928D02*
X11602024Y-11563833D01*
X11602024Y-11563833D02*
X11602024Y-11516214D01*
X11602024Y-11516214D02*
X11611548Y-11478119D01*
X11611548Y-11478119D02*
X11621072Y-11459071D01*
X11621072Y-11459071D02*
X11630595Y-11449548D01*
X11630595Y-11449548D02*
X11649643Y-11440024D01*
X11840119Y-11440024D02*
X11859167Y-11440024D01*
X11859167Y-11440024D02*
X11878214Y-11449548D01*
X11878214Y-11449548D02*
X11887738Y-11459071D01*
X11887738Y-11459071D02*
X11897262Y-11478119D01*
X11897262Y-11478119D02*
X11906786Y-11516214D01*
X11906786Y-11516214D02*
X11906786Y-11563833D01*
X11906786Y-11563833D02*
X11897262Y-11601928D01*
X11897262Y-11601928D02*
X11887738Y-11620976D01*
X11887738Y-11620976D02*
X11878214Y-11630500D01*
X11878214Y-11630500D02*
X11859167Y-11640024D01*
X11859167Y-11640024D02*
X11840119Y-11640024D01*
X11840119Y-11640024D02*
X11821072Y-11630500D01*
X11821072Y-11630500D02*
X11811548Y-11620976D01*
X11811548Y-11620976D02*
X11802024Y-11601928D01*
X11802024Y-11601928D02*
X11792500Y-11563833D01*
X11792500Y-11563833D02*
X11792500Y-11516214D01*
X11792500Y-11516214D02*
X11802024Y-11478119D01*
X11802024Y-11478119D02*
X11811548Y-11459071D01*
X11811548Y-11459071D02*
X11821072Y-11449548D01*
X11821072Y-11449548D02*
X11840119Y-11440024D01*
X11982976Y-11440024D02*
X11982976Y-11478119D01*
X12059167Y-11440024D02*
X12059167Y-11478119D01*
X12354405Y-11716214D02*
X12344881Y-11706690D01*
X12344881Y-11706690D02*
X12325834Y-11678119D01*
X12325834Y-11678119D02*
X12316310Y-11659071D01*
X12316310Y-11659071D02*
X12306786Y-11630500D01*
X12306786Y-11630500D02*
X12297262Y-11582881D01*
X12297262Y-11582881D02*
X12297262Y-11544786D01*
X12297262Y-11544786D02*
X12306786Y-11497167D01*
X12306786Y-11497167D02*
X12316310Y-11468595D01*
X12316310Y-11468595D02*
X12325834Y-11449548D01*
X12325834Y-11449548D02*
X12344881Y-11420976D01*
X12344881Y-11420976D02*
X12354405Y-11411452D01*
X12516310Y-11440024D02*
X12478214Y-11440024D01*
X12478214Y-11440024D02*
X12459167Y-11449548D01*
X12459167Y-11449548D02*
X12449643Y-11459071D01*
X12449643Y-11459071D02*
X12430595Y-11487643D01*
X12430595Y-11487643D02*
X12421072Y-11525738D01*
X12421072Y-11525738D02*
X12421072Y-11601928D01*
X12421072Y-11601928D02*
X12430595Y-11620976D01*
X12430595Y-11620976D02*
X12440119Y-11630500D01*
X12440119Y-11630500D02*
X12459167Y-11640024D01*
X12459167Y-11640024D02*
X12497262Y-11640024D01*
X12497262Y-11640024D02*
X12516310Y-11630500D01*
X12516310Y-11630500D02*
X12525834Y-11620976D01*
X12525834Y-11620976D02*
X12535357Y-11601928D01*
X12535357Y-11601928D02*
X12535357Y-11554309D01*
X12535357Y-11554309D02*
X12525834Y-11535262D01*
X12525834Y-11535262D02*
X12516310Y-11525738D01*
X12516310Y-11525738D02*
X12497262Y-11516214D01*
X12497262Y-11516214D02*
X12459167Y-11516214D01*
X12459167Y-11516214D02*
X12440119Y-11525738D01*
X12440119Y-11525738D02*
X12430595Y-11535262D01*
X12430595Y-11535262D02*
X12421072Y-11554309D01*
X12773453Y-11640024D02*
X12773453Y-11440024D01*
X12859167Y-11640024D02*
X12859167Y-11535262D01*
X12859167Y-11535262D02*
X12849643Y-11516214D01*
X12849643Y-11516214D02*
X12830596Y-11506690D01*
X12830596Y-11506690D02*
X12802024Y-11506690D01*
X12802024Y-11506690D02*
X12782976Y-11516214D01*
X12782976Y-11516214D02*
X12773453Y-11525738D01*
X12982976Y-11640024D02*
X12963929Y-11630500D01*
X12963929Y-11630500D02*
X12954405Y-11620976D01*
X12954405Y-11620976D02*
X12944881Y-11601928D01*
X12944881Y-11601928D02*
X12944881Y-11544786D01*
X12944881Y-11544786D02*
X12954405Y-11525738D01*
X12954405Y-11525738D02*
X12963929Y-11516214D01*
X12963929Y-11516214D02*
X12982976Y-11506690D01*
X12982976Y-11506690D02*
X13011548Y-11506690D01*
X13011548Y-11506690D02*
X13030596Y-11516214D01*
X13030596Y-11516214D02*
X13040119Y-11525738D01*
X13040119Y-11525738D02*
X13049643Y-11544786D01*
X13049643Y-11544786D02*
X13049643Y-11601928D01*
X13049643Y-11601928D02*
X13040119Y-11620976D01*
X13040119Y-11620976D02*
X13030596Y-11630500D01*
X13030596Y-11630500D02*
X13011548Y-11640024D01*
X13011548Y-11640024D02*
X12982976Y-11640024D01*
X13163929Y-11640024D02*
X13144881Y-11630500D01*
X13144881Y-11630500D02*
X13135357Y-11611452D01*
X13135357Y-11611452D02*
X13135357Y-11440024D01*
X13316310Y-11630500D02*
X13297262Y-11640024D01*
X13297262Y-11640024D02*
X13259167Y-11640024D01*
X13259167Y-11640024D02*
X13240119Y-11630500D01*
X13240119Y-11630500D02*
X13230596Y-11611452D01*
X13230596Y-11611452D02*
X13230596Y-11535262D01*
X13230596Y-11535262D02*
X13240119Y-11516214D01*
X13240119Y-11516214D02*
X13259167Y-11506690D01*
X13259167Y-11506690D02*
X13297262Y-11506690D01*
X13297262Y-11506690D02*
X13316310Y-11516214D01*
X13316310Y-11516214D02*
X13325834Y-11535262D01*
X13325834Y-11535262D02*
X13325834Y-11554309D01*
X13325834Y-11554309D02*
X13230596Y-11573357D01*
X13402024Y-11630500D02*
X13421072Y-11640024D01*
X13421072Y-11640024D02*
X13459167Y-11640024D01*
X13459167Y-11640024D02*
X13478215Y-11630500D01*
X13478215Y-11630500D02*
X13487738Y-11611452D01*
X13487738Y-11611452D02*
X13487738Y-11601928D01*
X13487738Y-11601928D02*
X13478215Y-11582881D01*
X13478215Y-11582881D02*
X13459167Y-11573357D01*
X13459167Y-11573357D02*
X13430596Y-11573357D01*
X13430596Y-11573357D02*
X13411548Y-11563833D01*
X13411548Y-11563833D02*
X13402024Y-11544786D01*
X13402024Y-11544786D02*
X13402024Y-11535262D01*
X13402024Y-11535262D02*
X13411548Y-11516214D01*
X13411548Y-11516214D02*
X13430596Y-11506690D01*
X13430596Y-11506690D02*
X13459167Y-11506690D01*
X13459167Y-11506690D02*
X13478215Y-11516214D01*
X13554405Y-11716214D02*
X13563929Y-11706690D01*
X13563929Y-11706690D02*
X13582977Y-11678119D01*
X13582977Y-11678119D02*
X13592500Y-11659071D01*
X13592500Y-11659071D02*
X13602024Y-11630500D01*
X13602024Y-11630500D02*
X13611548Y-11582881D01*
X13611548Y-11582881D02*
X13611548Y-11544786D01*
X13611548Y-11544786D02*
X13602024Y-11497167D01*
X13602024Y-11497167D02*
X13592500Y-11468595D01*
X13592500Y-11468595D02*
X13582977Y-11449548D01*
X13582977Y-11449548D02*
X13563929Y-11420976D01*
X13563929Y-11420976D02*
X13554405Y-11411452D01*
X13916310Y-11716214D02*
X13906786Y-11706690D01*
X13906786Y-11706690D02*
X13887738Y-11678119D01*
X13887738Y-11678119D02*
X13878215Y-11659071D01*
X13878215Y-11659071D02*
X13868691Y-11630500D01*
X13868691Y-11630500D02*
X13859167Y-11582881D01*
X13859167Y-11582881D02*
X13859167Y-11544786D01*
X13859167Y-11544786D02*
X13868691Y-11497167D01*
X13868691Y-11497167D02*
X13878215Y-11468595D01*
X13878215Y-11468595D02*
X13887738Y-11449548D01*
X13887738Y-11449548D02*
X13906786Y-11420976D01*
X13906786Y-11420976D02*
X13916310Y-11411452D01*
X13992500Y-11506690D02*
X13992500Y-11640024D01*
X13992500Y-11525738D02*
X14002024Y-11516214D01*
X14002024Y-11516214D02*
X14021072Y-11506690D01*
X14021072Y-11506690D02*
X14049643Y-11506690D01*
X14049643Y-11506690D02*
X14068691Y-11516214D01*
X14068691Y-11516214D02*
X14078215Y-11535262D01*
X14078215Y-11535262D02*
X14078215Y-11640024D01*
X14202024Y-11640024D02*
X14182977Y-11630500D01*
X14182977Y-11630500D02*
X14173453Y-11620976D01*
X14173453Y-11620976D02*
X14163929Y-11601928D01*
X14163929Y-11601928D02*
X14163929Y-11544786D01*
X14163929Y-11544786D02*
X14173453Y-11525738D01*
X14173453Y-11525738D02*
X14182977Y-11516214D01*
X14182977Y-11516214D02*
X14202024Y-11506690D01*
X14202024Y-11506690D02*
X14230596Y-11506690D01*
X14230596Y-11506690D02*
X14249643Y-11516214D01*
X14249643Y-11516214D02*
X14259167Y-11525738D01*
X14259167Y-11525738D02*
X14268691Y-11544786D01*
X14268691Y-11544786D02*
X14268691Y-11601928D01*
X14268691Y-11601928D02*
X14259167Y-11620976D01*
X14259167Y-11620976D02*
X14249643Y-11630500D01*
X14249643Y-11630500D02*
X14230596Y-11640024D01*
X14230596Y-11640024D02*
X14202024Y-11640024D01*
X14325834Y-11506690D02*
X14402024Y-11506690D01*
X14354405Y-11440024D02*
X14354405Y-11611452D01*
X14354405Y-11611452D02*
X14363929Y-11630500D01*
X14363929Y-11630500D02*
X14382977Y-11640024D01*
X14382977Y-11640024D02*
X14402024Y-11640024D01*
X14621072Y-11506690D02*
X14621072Y-11706690D01*
X14621072Y-11516214D02*
X14640119Y-11506690D01*
X14640119Y-11506690D02*
X14678215Y-11506690D01*
X14678215Y-11506690D02*
X14697262Y-11516214D01*
X14697262Y-11516214D02*
X14706786Y-11525738D01*
X14706786Y-11525738D02*
X14716310Y-11544786D01*
X14716310Y-11544786D02*
X14716310Y-11601928D01*
X14716310Y-11601928D02*
X14706786Y-11620976D01*
X14706786Y-11620976D02*
X14697262Y-11630500D01*
X14697262Y-11630500D02*
X14678215Y-11640024D01*
X14678215Y-11640024D02*
X14640119Y-11640024D01*
X14640119Y-11640024D02*
X14621072Y-11630500D01*
X14830596Y-11640024D02*
X14811548Y-11630500D01*
X14811548Y-11630500D02*
X14802024Y-11611452D01*
X14802024Y-11611452D02*
X14802024Y-11440024D01*
X14992500Y-11640024D02*
X14992500Y-11535262D01*
X14992500Y-11535262D02*
X14982977Y-11516214D01*
X14982977Y-11516214D02*
X14963929Y-11506690D01*
X14963929Y-11506690D02*
X14925834Y-11506690D01*
X14925834Y-11506690D02*
X14906786Y-11516214D01*
X14992500Y-11630500D02*
X14973453Y-11640024D01*
X14973453Y-11640024D02*
X14925834Y-11640024D01*
X14925834Y-11640024D02*
X14906786Y-11630500D01*
X14906786Y-11630500D02*
X14897262Y-11611452D01*
X14897262Y-11611452D02*
X14897262Y-11592405D01*
X14897262Y-11592405D02*
X14906786Y-11573357D01*
X14906786Y-11573357D02*
X14925834Y-11563833D01*
X14925834Y-11563833D02*
X14973453Y-11563833D01*
X14973453Y-11563833D02*
X14992500Y-11554309D01*
X15059167Y-11506690D02*
X15135358Y-11506690D01*
X15087739Y-11440024D02*
X15087739Y-11611452D01*
X15087739Y-11611452D02*
X15097262Y-11630500D01*
X15097262Y-11630500D02*
X15116310Y-11640024D01*
X15116310Y-11640024D02*
X15135358Y-11640024D01*
X15278215Y-11630500D02*
X15259167Y-11640024D01*
X15259167Y-11640024D02*
X15221072Y-11640024D01*
X15221072Y-11640024D02*
X15202024Y-11630500D01*
X15202024Y-11630500D02*
X15192500Y-11611452D01*
X15192500Y-11611452D02*
X15192500Y-11535262D01*
X15192500Y-11535262D02*
X15202024Y-11516214D01*
X15202024Y-11516214D02*
X15221072Y-11506690D01*
X15221072Y-11506690D02*
X15259167Y-11506690D01*
X15259167Y-11506690D02*
X15278215Y-11516214D01*
X15278215Y-11516214D02*
X15287739Y-11535262D01*
X15287739Y-11535262D02*
X15287739Y-11554309D01*
X15287739Y-11554309D02*
X15192500Y-11573357D01*
X15459167Y-11640024D02*
X15459167Y-11440024D01*
X15459167Y-11630500D02*
X15440120Y-11640024D01*
X15440120Y-11640024D02*
X15402024Y-11640024D01*
X15402024Y-11640024D02*
X15382977Y-11630500D01*
X15382977Y-11630500D02*
X15373453Y-11620976D01*
X15373453Y-11620976D02*
X15363929Y-11601928D01*
X15363929Y-11601928D02*
X15363929Y-11544786D01*
X15363929Y-11544786D02*
X15373453Y-11525738D01*
X15373453Y-11525738D02*
X15382977Y-11516214D01*
X15382977Y-11516214D02*
X15402024Y-11506690D01*
X15402024Y-11506690D02*
X15440120Y-11506690D01*
X15440120Y-11506690D02*
X15459167Y-11516214D01*
X15535358Y-11716214D02*
X15544881Y-11706690D01*
X15544881Y-11706690D02*
X15563929Y-11678119D01*
X15563929Y-11678119D02*
X15573453Y-11659071D01*
X15573453Y-11659071D02*
X15582977Y-11630500D01*
X15582977Y-11630500D02*
X15592500Y-11582881D01*
X15592500Y-11582881D02*
X15592500Y-11544786D01*
X15592500Y-11544786D02*
X15582977Y-11497167D01*
X15582977Y-11497167D02*
X15573453Y-11468595D01*
X15573453Y-11468595D02*
X15563929Y-11449548D01*
X15563929Y-11449548D02*
X15544881Y-11420976D01*
X15544881Y-11420976D02*
X15535358Y-11411452D01*
X8792500Y-11811500D02*
G75*
G03*
X8792500Y-11811500I-100000J0D01*
G01*
X9021071Y-11704024D02*
X9144881Y-11704024D01*
X9144881Y-11704024D02*
X9078214Y-11780214D01*
X9078214Y-11780214D02*
X9106786Y-11780214D01*
X9106786Y-11780214D02*
X9125833Y-11789738D01*
X9125833Y-11789738D02*
X9135357Y-11799262D01*
X9135357Y-11799262D02*
X9144881Y-11818309D01*
X9144881Y-11818309D02*
X9144881Y-11865928D01*
X9144881Y-11865928D02*
X9135357Y-11884976D01*
X9135357Y-11884976D02*
X9125833Y-11894500D01*
X9125833Y-11894500D02*
X9106786Y-11904024D01*
X9106786Y-11904024D02*
X9049643Y-11904024D01*
X9049643Y-11904024D02*
X9030595Y-11894500D01*
X9030595Y-11894500D02*
X9021071Y-11884976D01*
X9230595Y-11884976D02*
X9240119Y-11894500D01*
X9240119Y-11894500D02*
X9230595Y-11904024D01*
X9230595Y-11904024D02*
X9221071Y-11894500D01*
X9221071Y-11894500D02*
X9230595Y-11884976D01*
X9230595Y-11884976D02*
X9230595Y-11904024D01*
X9363929Y-11704024D02*
X9382976Y-11704024D01*
X9382976Y-11704024D02*
X9402024Y-11713548D01*
X9402024Y-11713548D02*
X9411548Y-11723071D01*
X9411548Y-11723071D02*
X9421071Y-11742119D01*
X9421071Y-11742119D02*
X9430595Y-11780214D01*
X9430595Y-11780214D02*
X9430595Y-11827833D01*
X9430595Y-11827833D02*
X9421071Y-11865928D01*
X9421071Y-11865928D02*
X9411548Y-11884976D01*
X9411548Y-11884976D02*
X9402024Y-11894500D01*
X9402024Y-11894500D02*
X9382976Y-11904024D01*
X9382976Y-11904024D02*
X9363929Y-11904024D01*
X9363929Y-11904024D02*
X9344881Y-11894500D01*
X9344881Y-11894500D02*
X9335357Y-11884976D01*
X9335357Y-11884976D02*
X9325833Y-11865928D01*
X9325833Y-11865928D02*
X9316310Y-11827833D01*
X9316310Y-11827833D02*
X9316310Y-11780214D01*
X9316310Y-11780214D02*
X9325833Y-11742119D01*
X9325833Y-11742119D02*
X9335357Y-11723071D01*
X9335357Y-11723071D02*
X9344881Y-11713548D01*
X9344881Y-11713548D02*
X9363929Y-11704024D01*
X9554405Y-11704024D02*
X9573452Y-11704024D01*
X9573452Y-11704024D02*
X9592500Y-11713548D01*
X9592500Y-11713548D02*
X9602024Y-11723071D01*
X9602024Y-11723071D02*
X9611548Y-11742119D01*
X9611548Y-11742119D02*
X9621071Y-11780214D01*
X9621071Y-11780214D02*
X9621071Y-11827833D01*
X9621071Y-11827833D02*
X9611548Y-11865928D01*
X9611548Y-11865928D02*
X9602024Y-11884976D01*
X9602024Y-11884976D02*
X9592500Y-11894500D01*
X9592500Y-11894500D02*
X9573452Y-11904024D01*
X9573452Y-11904024D02*
X9554405Y-11904024D01*
X9554405Y-11904024D02*
X9535357Y-11894500D01*
X9535357Y-11894500D02*
X9525833Y-11884976D01*
X9525833Y-11884976D02*
X9516310Y-11865928D01*
X9516310Y-11865928D02*
X9506786Y-11827833D01*
X9506786Y-11827833D02*
X9506786Y-11780214D01*
X9506786Y-11780214D02*
X9516310Y-11742119D01*
X9516310Y-11742119D02*
X9525833Y-11723071D01*
X9525833Y-11723071D02*
X9535357Y-11713548D01*
X9535357Y-11713548D02*
X9554405Y-11704024D01*
X9744881Y-11704024D02*
X9763929Y-11704024D01*
X9763929Y-11704024D02*
X9782976Y-11713548D01*
X9782976Y-11713548D02*
X9792500Y-11723071D01*
X9792500Y-11723071D02*
X9802024Y-11742119D01*
X9802024Y-11742119D02*
X9811548Y-11780214D01*
X9811548Y-11780214D02*
X9811548Y-11827833D01*
X9811548Y-11827833D02*
X9802024Y-11865928D01*
X9802024Y-11865928D02*
X9792500Y-11884976D01*
X9792500Y-11884976D02*
X9782976Y-11894500D01*
X9782976Y-11894500D02*
X9763929Y-11904024D01*
X9763929Y-11904024D02*
X9744881Y-11904024D01*
X9744881Y-11904024D02*
X9725833Y-11894500D01*
X9725833Y-11894500D02*
X9716310Y-11884976D01*
X9716310Y-11884976D02*
X9706786Y-11865928D01*
X9706786Y-11865928D02*
X9697262Y-11827833D01*
X9697262Y-11827833D02*
X9697262Y-11780214D01*
X9697262Y-11780214D02*
X9706786Y-11742119D01*
X9706786Y-11742119D02*
X9716310Y-11723071D01*
X9716310Y-11723071D02*
X9725833Y-11713548D01*
X9725833Y-11713548D02*
X9744881Y-11704024D01*
X9897262Y-11904024D02*
X9897262Y-11770690D01*
X9897262Y-11789738D02*
X9906786Y-11780214D01*
X9906786Y-11780214D02*
X9925833Y-11770690D01*
X9925833Y-11770690D02*
X9954405Y-11770690D01*
X9954405Y-11770690D02*
X9973452Y-11780214D01*
X9973452Y-11780214D02*
X9982976Y-11799262D01*
X9982976Y-11799262D02*
X9982976Y-11904024D01*
X9982976Y-11799262D02*
X9992500Y-11780214D01*
X9992500Y-11780214D02*
X10011548Y-11770690D01*
X10011548Y-11770690D02*
X10040119Y-11770690D01*
X10040119Y-11770690D02*
X10059167Y-11780214D01*
X10059167Y-11780214D02*
X10068691Y-11799262D01*
X10068691Y-11799262D02*
X10068691Y-11904024D01*
X10163929Y-11904024D02*
X10163929Y-11770690D01*
X10163929Y-11789738D02*
X10173452Y-11780214D01*
X10173452Y-11780214D02*
X10192500Y-11770690D01*
X10192500Y-11770690D02*
X10221072Y-11770690D01*
X10221072Y-11770690D02*
X10240119Y-11780214D01*
X10240119Y-11780214D02*
X10249643Y-11799262D01*
X10249643Y-11799262D02*
X10249643Y-11904024D01*
X10249643Y-11799262D02*
X10259167Y-11780214D01*
X10259167Y-11780214D02*
X10278214Y-11770690D01*
X10278214Y-11770690D02*
X10306786Y-11770690D01*
X10306786Y-11770690D02*
X10325833Y-11780214D01*
X10325833Y-11780214D02*
X10335357Y-11799262D01*
X10335357Y-11799262D02*
X10335357Y-11904024D01*
X10725833Y-11694500D02*
X10554405Y-11951643D01*
X10982976Y-11704024D02*
X11002024Y-11704024D01*
X11002024Y-11704024D02*
X11021072Y-11713548D01*
X11021072Y-11713548D02*
X11030595Y-11723071D01*
X11030595Y-11723071D02*
X11040119Y-11742119D01*
X11040119Y-11742119D02*
X11049643Y-11780214D01*
X11049643Y-11780214D02*
X11049643Y-11827833D01*
X11049643Y-11827833D02*
X11040119Y-11865928D01*
X11040119Y-11865928D02*
X11030595Y-11884976D01*
X11030595Y-11884976D02*
X11021072Y-11894500D01*
X11021072Y-11894500D02*
X11002024Y-11904024D01*
X11002024Y-11904024D02*
X10982976Y-11904024D01*
X10982976Y-11904024D02*
X10963929Y-11894500D01*
X10963929Y-11894500D02*
X10954405Y-11884976D01*
X10954405Y-11884976D02*
X10944881Y-11865928D01*
X10944881Y-11865928D02*
X10935357Y-11827833D01*
X10935357Y-11827833D02*
X10935357Y-11780214D01*
X10935357Y-11780214D02*
X10944881Y-11742119D01*
X10944881Y-11742119D02*
X10954405Y-11723071D01*
X10954405Y-11723071D02*
X10963929Y-11713548D01*
X10963929Y-11713548D02*
X10982976Y-11704024D01*
X11135357Y-11884976D02*
X11144881Y-11894500D01*
X11144881Y-11894500D02*
X11135357Y-11904024D01*
X11135357Y-11904024D02*
X11125834Y-11894500D01*
X11125834Y-11894500D02*
X11135357Y-11884976D01*
X11135357Y-11884976D02*
X11135357Y-11904024D01*
X11335357Y-11904024D02*
X11221072Y-11904024D01*
X11278214Y-11904024D02*
X11278214Y-11704024D01*
X11278214Y-11704024D02*
X11259167Y-11732595D01*
X11259167Y-11732595D02*
X11240119Y-11751643D01*
X11240119Y-11751643D02*
X11221072Y-11761167D01*
X11525833Y-11904024D02*
X11411548Y-11904024D01*
X11468691Y-11904024D02*
X11468691Y-11704024D01*
X11468691Y-11704024D02*
X11449643Y-11732595D01*
X11449643Y-11732595D02*
X11430595Y-11751643D01*
X11430595Y-11751643D02*
X11411548Y-11761167D01*
X11640119Y-11789738D02*
X11621072Y-11780214D01*
X11621072Y-11780214D02*
X11611548Y-11770690D01*
X11611548Y-11770690D02*
X11602024Y-11751643D01*
X11602024Y-11751643D02*
X11602024Y-11742119D01*
X11602024Y-11742119D02*
X11611548Y-11723071D01*
X11611548Y-11723071D02*
X11621072Y-11713548D01*
X11621072Y-11713548D02*
X11640119Y-11704024D01*
X11640119Y-11704024D02*
X11678214Y-11704024D01*
X11678214Y-11704024D02*
X11697262Y-11713548D01*
X11697262Y-11713548D02*
X11706786Y-11723071D01*
X11706786Y-11723071D02*
X11716310Y-11742119D01*
X11716310Y-11742119D02*
X11716310Y-11751643D01*
X11716310Y-11751643D02*
X11706786Y-11770690D01*
X11706786Y-11770690D02*
X11697262Y-11780214D01*
X11697262Y-11780214D02*
X11678214Y-11789738D01*
X11678214Y-11789738D02*
X11640119Y-11789738D01*
X11640119Y-11789738D02*
X11621072Y-11799262D01*
X11621072Y-11799262D02*
X11611548Y-11808786D01*
X11611548Y-11808786D02*
X11602024Y-11827833D01*
X11602024Y-11827833D02*
X11602024Y-11865928D01*
X11602024Y-11865928D02*
X11611548Y-11884976D01*
X11611548Y-11884976D02*
X11621072Y-11894500D01*
X11621072Y-11894500D02*
X11640119Y-11904024D01*
X11640119Y-11904024D02*
X11678214Y-11904024D01*
X11678214Y-11904024D02*
X11697262Y-11894500D01*
X11697262Y-11894500D02*
X11706786Y-11884976D01*
X11706786Y-11884976D02*
X11716310Y-11865928D01*
X11716310Y-11865928D02*
X11716310Y-11827833D01*
X11716310Y-11827833D02*
X11706786Y-11808786D01*
X11706786Y-11808786D02*
X11697262Y-11799262D01*
X11697262Y-11799262D02*
X11678214Y-11789738D01*
X11906786Y-11904024D02*
X11792500Y-11904024D01*
X11849643Y-11904024D02*
X11849643Y-11704024D01*
X11849643Y-11704024D02*
X11830595Y-11732595D01*
X11830595Y-11732595D02*
X11811548Y-11751643D01*
X11811548Y-11751643D02*
X11792500Y-11761167D01*
X11982976Y-11704024D02*
X11982976Y-11742119D01*
X12059167Y-11704024D02*
X12059167Y-11742119D01*
X12354405Y-11980214D02*
X12344881Y-11970690D01*
X12344881Y-11970690D02*
X12325834Y-11942119D01*
X12325834Y-11942119D02*
X12316310Y-11923071D01*
X12316310Y-11923071D02*
X12306786Y-11894500D01*
X12306786Y-11894500D02*
X12297262Y-11846881D01*
X12297262Y-11846881D02*
X12297262Y-11808786D01*
X12297262Y-11808786D02*
X12306786Y-11761167D01*
X12306786Y-11761167D02*
X12316310Y-11732595D01*
X12316310Y-11732595D02*
X12325834Y-11713548D01*
X12325834Y-11713548D02*
X12344881Y-11684976D01*
X12344881Y-11684976D02*
X12354405Y-11675452D01*
X12516310Y-11770690D02*
X12516310Y-11904024D01*
X12468691Y-11694500D02*
X12421072Y-11837357D01*
X12421072Y-11837357D02*
X12544881Y-11837357D01*
X12773453Y-11904024D02*
X12773453Y-11704024D01*
X12859167Y-11904024D02*
X12859167Y-11799262D01*
X12859167Y-11799262D02*
X12849643Y-11780214D01*
X12849643Y-11780214D02*
X12830596Y-11770690D01*
X12830596Y-11770690D02*
X12802024Y-11770690D01*
X12802024Y-11770690D02*
X12782976Y-11780214D01*
X12782976Y-11780214D02*
X12773453Y-11789738D01*
X12982976Y-11904024D02*
X12963929Y-11894500D01*
X12963929Y-11894500D02*
X12954405Y-11884976D01*
X12954405Y-11884976D02*
X12944881Y-11865928D01*
X12944881Y-11865928D02*
X12944881Y-11808786D01*
X12944881Y-11808786D02*
X12954405Y-11789738D01*
X12954405Y-11789738D02*
X12963929Y-11780214D01*
X12963929Y-11780214D02*
X12982976Y-11770690D01*
X12982976Y-11770690D02*
X13011548Y-11770690D01*
X13011548Y-11770690D02*
X13030596Y-11780214D01*
X13030596Y-11780214D02*
X13040119Y-11789738D01*
X13040119Y-11789738D02*
X13049643Y-11808786D01*
X13049643Y-11808786D02*
X13049643Y-11865928D01*
X13049643Y-11865928D02*
X13040119Y-11884976D01*
X13040119Y-11884976D02*
X13030596Y-11894500D01*
X13030596Y-11894500D02*
X13011548Y-11904024D01*
X13011548Y-11904024D02*
X12982976Y-11904024D01*
X13163929Y-11904024D02*
X13144881Y-11894500D01*
X13144881Y-11894500D02*
X13135357Y-11875452D01*
X13135357Y-11875452D02*
X13135357Y-11704024D01*
X13316310Y-11894500D02*
X13297262Y-11904024D01*
X13297262Y-11904024D02*
X13259167Y-11904024D01*
X13259167Y-11904024D02*
X13240119Y-11894500D01*
X13240119Y-11894500D02*
X13230596Y-11875452D01*
X13230596Y-11875452D02*
X13230596Y-11799262D01*
X13230596Y-11799262D02*
X13240119Y-11780214D01*
X13240119Y-11780214D02*
X13259167Y-11770690D01*
X13259167Y-11770690D02*
X13297262Y-11770690D01*
X13297262Y-11770690D02*
X13316310Y-11780214D01*
X13316310Y-11780214D02*
X13325834Y-11799262D01*
X13325834Y-11799262D02*
X13325834Y-11818309D01*
X13325834Y-11818309D02*
X13230596Y-11837357D01*
X13402024Y-11894500D02*
X13421072Y-11904024D01*
X13421072Y-11904024D02*
X13459167Y-11904024D01*
X13459167Y-11904024D02*
X13478215Y-11894500D01*
X13478215Y-11894500D02*
X13487738Y-11875452D01*
X13487738Y-11875452D02*
X13487738Y-11865928D01*
X13487738Y-11865928D02*
X13478215Y-11846881D01*
X13478215Y-11846881D02*
X13459167Y-11837357D01*
X13459167Y-11837357D02*
X13430596Y-11837357D01*
X13430596Y-11837357D02*
X13411548Y-11827833D01*
X13411548Y-11827833D02*
X13402024Y-11808786D01*
X13402024Y-11808786D02*
X13402024Y-11799262D01*
X13402024Y-11799262D02*
X13411548Y-11780214D01*
X13411548Y-11780214D02*
X13430596Y-11770690D01*
X13430596Y-11770690D02*
X13459167Y-11770690D01*
X13459167Y-11770690D02*
X13478215Y-11780214D01*
X13554405Y-11980214D02*
X13563929Y-11970690D01*
X13563929Y-11970690D02*
X13582977Y-11942119D01*
X13582977Y-11942119D02*
X13592500Y-11923071D01*
X13592500Y-11923071D02*
X13602024Y-11894500D01*
X13602024Y-11894500D02*
X13611548Y-11846881D01*
X13611548Y-11846881D02*
X13611548Y-11808786D01*
X13611548Y-11808786D02*
X13602024Y-11761167D01*
X13602024Y-11761167D02*
X13592500Y-11732595D01*
X13592500Y-11732595D02*
X13582977Y-11713548D01*
X13582977Y-11713548D02*
X13563929Y-11684976D01*
X13563929Y-11684976D02*
X13554405Y-11675452D01*
X13916310Y-11980214D02*
X13906786Y-11970690D01*
X13906786Y-11970690D02*
X13887738Y-11942119D01*
X13887738Y-11942119D02*
X13878215Y-11923071D01*
X13878215Y-11923071D02*
X13868691Y-11894500D01*
X13868691Y-11894500D02*
X13859167Y-11846881D01*
X13859167Y-11846881D02*
X13859167Y-11808786D01*
X13859167Y-11808786D02*
X13868691Y-11761167D01*
X13868691Y-11761167D02*
X13878215Y-11732595D01*
X13878215Y-11732595D02*
X13887738Y-11713548D01*
X13887738Y-11713548D02*
X13906786Y-11684976D01*
X13906786Y-11684976D02*
X13916310Y-11675452D01*
X13992500Y-11770690D02*
X13992500Y-11904024D01*
X13992500Y-11789738D02*
X14002024Y-11780214D01*
X14002024Y-11780214D02*
X14021072Y-11770690D01*
X14021072Y-11770690D02*
X14049643Y-11770690D01*
X14049643Y-11770690D02*
X14068691Y-11780214D01*
X14068691Y-11780214D02*
X14078215Y-11799262D01*
X14078215Y-11799262D02*
X14078215Y-11904024D01*
X14202024Y-11904024D02*
X14182977Y-11894500D01*
X14182977Y-11894500D02*
X14173453Y-11884976D01*
X14173453Y-11884976D02*
X14163929Y-11865928D01*
X14163929Y-11865928D02*
X14163929Y-11808786D01*
X14163929Y-11808786D02*
X14173453Y-11789738D01*
X14173453Y-11789738D02*
X14182977Y-11780214D01*
X14182977Y-11780214D02*
X14202024Y-11770690D01*
X14202024Y-11770690D02*
X14230596Y-11770690D01*
X14230596Y-11770690D02*
X14249643Y-11780214D01*
X14249643Y-11780214D02*
X14259167Y-11789738D01*
X14259167Y-11789738D02*
X14268691Y-11808786D01*
X14268691Y-11808786D02*
X14268691Y-11865928D01*
X14268691Y-11865928D02*
X14259167Y-11884976D01*
X14259167Y-11884976D02*
X14249643Y-11894500D01*
X14249643Y-11894500D02*
X14230596Y-11904024D01*
X14230596Y-11904024D02*
X14202024Y-11904024D01*
X14325834Y-11770690D02*
X14402024Y-11770690D01*
X14354405Y-11704024D02*
X14354405Y-11875452D01*
X14354405Y-11875452D02*
X14363929Y-11894500D01*
X14363929Y-11894500D02*
X14382977Y-11904024D01*
X14382977Y-11904024D02*
X14402024Y-11904024D01*
X14621072Y-11770690D02*
X14621072Y-11970690D01*
X14621072Y-11780214D02*
X14640119Y-11770690D01*
X14640119Y-11770690D02*
X14678215Y-11770690D01*
X14678215Y-11770690D02*
X14697262Y-11780214D01*
X14697262Y-11780214D02*
X14706786Y-11789738D01*
X14706786Y-11789738D02*
X14716310Y-11808786D01*
X14716310Y-11808786D02*
X14716310Y-11865928D01*
X14716310Y-11865928D02*
X14706786Y-11884976D01*
X14706786Y-11884976D02*
X14697262Y-11894500D01*
X14697262Y-11894500D02*
X14678215Y-11904024D01*
X14678215Y-11904024D02*
X14640119Y-11904024D01*
X14640119Y-11904024D02*
X14621072Y-11894500D01*
X14830596Y-11904024D02*
X14811548Y-11894500D01*
X14811548Y-11894500D02*
X14802024Y-11875452D01*
X14802024Y-11875452D02*
X14802024Y-11704024D01*
X14992500Y-11904024D02*
X14992500Y-11799262D01*
X14992500Y-11799262D02*
X14982977Y-11780214D01*
X14982977Y-11780214D02*
X14963929Y-11770690D01*
X14963929Y-11770690D02*
X14925834Y-11770690D01*
X14925834Y-11770690D02*
X14906786Y-11780214D01*
X14992500Y-11894500D02*
X14973453Y-11904024D01*
X14973453Y-11904024D02*
X14925834Y-11904024D01*
X14925834Y-11904024D02*
X14906786Y-11894500D01*
X14906786Y-11894500D02*
X14897262Y-11875452D01*
X14897262Y-11875452D02*
X14897262Y-11856405D01*
X14897262Y-11856405D02*
X14906786Y-11837357D01*
X14906786Y-11837357D02*
X14925834Y-11827833D01*
X14925834Y-11827833D02*
X14973453Y-11827833D01*
X14973453Y-11827833D02*
X14992500Y-11818309D01*
X15059167Y-11770690D02*
X15135358Y-11770690D01*
X15087739Y-11704024D02*
X15087739Y-11875452D01*
X15087739Y-11875452D02*
X15097262Y-11894500D01*
X15097262Y-11894500D02*
X15116310Y-11904024D01*
X15116310Y-11904024D02*
X15135358Y-11904024D01*
X15278215Y-11894500D02*
X15259167Y-11904024D01*
X15259167Y-11904024D02*
X15221072Y-11904024D01*
X15221072Y-11904024D02*
X15202024Y-11894500D01*
X15202024Y-11894500D02*
X15192500Y-11875452D01*
X15192500Y-11875452D02*
X15192500Y-11799262D01*
X15192500Y-11799262D02*
X15202024Y-11780214D01*
X15202024Y-11780214D02*
X15221072Y-11770690D01*
X15221072Y-11770690D02*
X15259167Y-11770690D01*
X15259167Y-11770690D02*
X15278215Y-11780214D01*
X15278215Y-11780214D02*
X15287739Y-11799262D01*
X15287739Y-11799262D02*
X15287739Y-11818309D01*
X15287739Y-11818309D02*
X15192500Y-11837357D01*
X15459167Y-11904024D02*
X15459167Y-11704024D01*
X15459167Y-11894500D02*
X15440120Y-11904024D01*
X15440120Y-11904024D02*
X15402024Y-11904024D01*
X15402024Y-11904024D02*
X15382977Y-11894500D01*
X15382977Y-11894500D02*
X15373453Y-11884976D01*
X15373453Y-11884976D02*
X15363929Y-11865928D01*
X15363929Y-11865928D02*
X15363929Y-11808786D01*
X15363929Y-11808786D02*
X15373453Y-11789738D01*
X15373453Y-11789738D02*
X15382977Y-11780214D01*
X15382977Y-11780214D02*
X15402024Y-11770690D01*
X15402024Y-11770690D02*
X15440120Y-11770690D01*
X15440120Y-11770690D02*
X15459167Y-11780214D01*
X15535358Y-11980214D02*
X15544881Y-11970690D01*
X15544881Y-11970690D02*
X15563929Y-11942119D01*
X15563929Y-11942119D02*
X15573453Y-11923071D01*
X15573453Y-11923071D02*
X15582977Y-11894500D01*
X15582977Y-11894500D02*
X15592500Y-11846881D01*
X15592500Y-11846881D02*
X15592500Y-11808786D01*
X15592500Y-11808786D02*
X15582977Y-11761167D01*
X15582977Y-11761167D02*
X15573453Y-11732595D01*
X15573453Y-11732595D02*
X15563929Y-11713548D01*
X15563929Y-11713548D02*
X15544881Y-11684976D01*
X15544881Y-11684976D02*
X15535358Y-11675452D01*
M02*
