%TF.GenerationSoftware,KiCad,Pcbnew,7.0.2*%
%TF.CreationDate,2024-02-18T17:51:03-06:00*%
%TF.ProjectId,Power-Secondary,506f7765-722d-4536-9563-6f6e64617279,rev?*%
%TF.SameCoordinates,Original*%
%TF.FileFunction,Drillmap*%
%TF.FilePolarity,Positive*%
%FSLAX45Y45*%
G04 Gerber Fmt 4.5, Leading zero omitted, Abs format (unit mm)*
G04 Created by KiCad (PCBNEW 7.0.2) date 2024-02-18 17:51:03*
%MOMM*%
%LPD*%
G01*
G04 APERTURE LIST*
%ADD10C,0.150000*%
%ADD11C,0.200000*%
%ADD12C,0.040000*%
%ADD13C,0.102000*%
%ADD14C,0.139000*%
%ADD15C,0.178000*%
G04 APERTURE END LIST*
D10*
X17000000Y-4800000D02*
X17000000Y-10400000D01*
X16500000Y-10900000D02*
G75*
G03*
X17000000Y-10400000I0J500000D01*
G01*
X9300000Y-4300000D02*
G75*
G03*
X8800000Y-4800000I0J-500000D01*
G01*
X17000000Y-4800000D02*
G75*
G03*
X16500000Y-4300000I-500000J0D01*
G01*
X9300000Y-4300000D02*
X16500000Y-4300000D01*
X9300000Y-10900000D02*
X16500000Y-10900000D01*
X8800000Y-4800000D02*
X8800000Y-10400000D01*
X8800000Y-10400000D02*
G75*
G03*
X9300000Y-10900000I500000J0D01*
G01*
D11*
D12*
X8980000Y-5480000D02*
X9020000Y-5520000D01*
X9020000Y-5480000D02*
X8980000Y-5520000D01*
X8980000Y-6980000D02*
X9020000Y-7020000D01*
X9020000Y-6980000D02*
X8980000Y-7020000D01*
X8980000Y-8480000D02*
X9020000Y-8520000D01*
X9020000Y-8480000D02*
X8980000Y-8520000D01*
X8980000Y-9980000D02*
X9020000Y-10020000D01*
X9020000Y-9980000D02*
X8980000Y-10020000D01*
X9980000Y-4480000D02*
X10020000Y-4520000D01*
X10020000Y-4480000D02*
X9980000Y-4520000D01*
X9980000Y-10480000D02*
X10020000Y-10520000D01*
X10020000Y-10480000D02*
X9980000Y-10520000D01*
X11480000Y-4480000D02*
X11520000Y-4520000D01*
X11520000Y-4480000D02*
X11480000Y-4520000D01*
X11480000Y-5980000D02*
X11520000Y-6020000D01*
X11520000Y-5980000D02*
X11480000Y-6020000D01*
X11480000Y-7480000D02*
X11520000Y-7520000D01*
X11520000Y-7480000D02*
X11480000Y-7520000D01*
X11480000Y-8480000D02*
X11520000Y-8520000D01*
X11520000Y-8480000D02*
X11480000Y-8520000D01*
X11480000Y-10480000D02*
X11520000Y-10520000D01*
X11520000Y-10480000D02*
X11480000Y-10520000D01*
X12480000Y-6330000D02*
X12520000Y-6370000D01*
X12520000Y-6330000D02*
X12480000Y-6370000D01*
X12980000Y-4480000D02*
X13020000Y-4520000D01*
X13020000Y-4480000D02*
X12980000Y-4520000D01*
X12980000Y-10480000D02*
X13020000Y-10520000D01*
X13020000Y-10480000D02*
X12980000Y-10520000D01*
X14030000Y-5830000D02*
X14070000Y-5870000D01*
X14070000Y-5830000D02*
X14030000Y-5870000D01*
X14480000Y-4480000D02*
X14520000Y-4520000D01*
X14520000Y-4480000D02*
X14480000Y-4520000D01*
X14480000Y-7480000D02*
X14520000Y-7520000D01*
X14520000Y-7480000D02*
X14480000Y-7520000D01*
X14480000Y-10480000D02*
X14520000Y-10520000D01*
X14520000Y-10480000D02*
X14480000Y-10520000D01*
X14655000Y-6155000D02*
X14695000Y-6195000D01*
X14695000Y-6155000D02*
X14655000Y-6195000D01*
X15980000Y-4480000D02*
X16020000Y-4520000D01*
X16020000Y-4480000D02*
X15980000Y-4520000D01*
X15980000Y-7480000D02*
X16020000Y-7520000D01*
X16020000Y-7480000D02*
X15980000Y-7520000D01*
X15980000Y-10480000D02*
X16020000Y-10520000D01*
X16020000Y-10480000D02*
X15980000Y-10520000D01*
X16480000Y-5480000D02*
X16520000Y-5520000D01*
X16520000Y-5480000D02*
X16480000Y-5520000D01*
X16480000Y-6980000D02*
X16520000Y-7020000D01*
X16520000Y-6980000D02*
X16480000Y-7020000D01*
X16480000Y-8480000D02*
X16520000Y-8520000D01*
X16520000Y-8480000D02*
X16480000Y-8520000D01*
X16480000Y-9980000D02*
X16520000Y-10020000D01*
X16520000Y-9980000D02*
X16480000Y-10020000D01*
D13*
X11751000Y-10116500D02*
G75*
G03*
X11751000Y-10116500I-51000J0D01*
G01*
X12051000Y-10116500D02*
G75*
G03*
X12051000Y-10116500I-51000J0D01*
G01*
X12805900Y-5297300D02*
G75*
G03*
X12805900Y-5297300I-51000J0D01*
G01*
X13105900Y-5297300D02*
G75*
G03*
X13105900Y-5297300I-51000J0D01*
G01*
X13951000Y-10116500D02*
G75*
G03*
X13951000Y-10116500I-51000J0D01*
G01*
X14251000Y-10116500D02*
G75*
G03*
X14251000Y-10116500I-51000J0D01*
G01*
D14*
X12054000Y-6679000D02*
X12054000Y-6818000D01*
X11984500Y-6748500D02*
X12123500Y-6748500D01*
X12054000Y-7250500D02*
X12054000Y-7389500D01*
X11984500Y-7320000D02*
X12123500Y-7320000D01*
X12308000Y-6679000D02*
X12308000Y-6818000D01*
X12238500Y-6748500D02*
X12377500Y-6748500D01*
X12308000Y-7250500D02*
X12308000Y-7389500D01*
X12238500Y-7320000D02*
X12377500Y-7320000D01*
X12562000Y-6679000D02*
X12562000Y-6818000D01*
X12492500Y-6748500D02*
X12631500Y-6748500D01*
X12562000Y-7250500D02*
X12562000Y-7389500D01*
X12492500Y-7320000D02*
X12631500Y-7320000D01*
X13260500Y-6683000D02*
X13260500Y-6822000D01*
X13191000Y-6752500D02*
X13330000Y-6752500D01*
X13260500Y-7250500D02*
X13260500Y-7389500D01*
X13191000Y-7320000D02*
X13330000Y-7320000D01*
X13514500Y-6683000D02*
X13514500Y-6822000D01*
X13445000Y-6752500D02*
X13584000Y-6752500D01*
X13514500Y-7250500D02*
X13514500Y-7389500D01*
X13445000Y-7320000D02*
X13584000Y-7320000D01*
X13768500Y-6683000D02*
X13768500Y-6822000D01*
X13699000Y-6752500D02*
X13838000Y-6752500D01*
X13768500Y-7250500D02*
X13768500Y-7389500D01*
X13699000Y-7320000D02*
X13838000Y-7320000D01*
D15*
X10020933Y-6062433D02*
X10020933Y-5936567D01*
X9895067Y-5936567D01*
X9895067Y-6062433D01*
X10020933Y-6062433D01*
X10020933Y-6811433D02*
X10020933Y-6685567D01*
X9895067Y-6685567D01*
X9895067Y-6811433D01*
X10020933Y-6811433D01*
X10020933Y-8468933D02*
X10020933Y-8343067D01*
X9895067Y-8343067D01*
X9895067Y-8468933D01*
X10020933Y-8468933D01*
X10020933Y-9217933D02*
X10020933Y-9092067D01*
X9895067Y-9092067D01*
X9895067Y-9217933D01*
X10020933Y-9217933D01*
X10338933Y-6062433D02*
X10338933Y-5936567D01*
X10213067Y-5936567D01*
X10213067Y-6062433D01*
X10338933Y-6062433D01*
X10338933Y-6811433D02*
X10338933Y-6685567D01*
X10213067Y-6685567D01*
X10213067Y-6811433D01*
X10338933Y-6811433D01*
X10338933Y-8468933D02*
X10338933Y-8343067D01*
X10213067Y-8343067D01*
X10213067Y-8468933D01*
X10338933Y-8468933D01*
X10338933Y-9217933D02*
X10338933Y-9092067D01*
X10213067Y-9092067D01*
X10213067Y-9217933D01*
X10338933Y-9217933D01*
X12521933Y-8185933D02*
X12521933Y-8060067D01*
X12396067Y-8060067D01*
X12396067Y-8185933D01*
X12521933Y-8185933D01*
X12521933Y-8525933D02*
X12521933Y-8400067D01*
X12396067Y-8400067D01*
X12396067Y-8525933D01*
X12521933Y-8525933D01*
X13513933Y-8185933D02*
X13513933Y-8060067D01*
X13388067Y-8060067D01*
X13388067Y-8185933D01*
X13513933Y-8185933D01*
X13513933Y-8525933D02*
X13513933Y-8400067D01*
X13388067Y-8400067D01*
X13388067Y-8525933D01*
X13513933Y-8525933D01*
X15609433Y-6062433D02*
X15609433Y-5936567D01*
X15483567Y-5936567D01*
X15483567Y-6062433D01*
X15609433Y-6062433D01*
X15609433Y-6811433D02*
X15609433Y-6685567D01*
X15483567Y-6685567D01*
X15483567Y-6811433D01*
X15609433Y-6811433D01*
X15609433Y-8468933D02*
X15609433Y-8343067D01*
X15483567Y-8343067D01*
X15483567Y-8468933D01*
X15609433Y-8468933D01*
X15609433Y-9217933D02*
X15609433Y-9092067D01*
X15483567Y-9092067D01*
X15483567Y-9217933D01*
X15609433Y-9217933D01*
X15927433Y-6062433D02*
X15927433Y-5936567D01*
X15801567Y-5936567D01*
X15801567Y-6062433D01*
X15927433Y-6062433D01*
X15927433Y-6811433D02*
X15927433Y-6685567D01*
X15801567Y-6685567D01*
X15801567Y-6811433D01*
X15927433Y-6811433D01*
X15927433Y-8468933D02*
X15927433Y-8343067D01*
X15801567Y-8343067D01*
X15801567Y-8468933D01*
X15927433Y-8468933D01*
X15927433Y-9217933D02*
X15927433Y-9092067D01*
X15801567Y-9092067D01*
X15801567Y-9217933D01*
X15927433Y-9217933D01*
D11*
X9040119Y-11220024D02*
X9040119Y-11020024D01*
X9040119Y-11020024D02*
X9087738Y-11020024D01*
X9087738Y-11020024D02*
X9116310Y-11029548D01*
X9116310Y-11029548D02*
X9135357Y-11048595D01*
X9135357Y-11048595D02*
X9144881Y-11067643D01*
X9144881Y-11067643D02*
X9154405Y-11105738D01*
X9154405Y-11105738D02*
X9154405Y-11134310D01*
X9154405Y-11134310D02*
X9144881Y-11172405D01*
X9144881Y-11172405D02*
X9135357Y-11191452D01*
X9135357Y-11191452D02*
X9116310Y-11210500D01*
X9116310Y-11210500D02*
X9087738Y-11220024D01*
X9087738Y-11220024D02*
X9040119Y-11220024D01*
X9240119Y-11220024D02*
X9240119Y-11086690D01*
X9240119Y-11124786D02*
X9249643Y-11105738D01*
X9249643Y-11105738D02*
X9259167Y-11096214D01*
X9259167Y-11096214D02*
X9278214Y-11086690D01*
X9278214Y-11086690D02*
X9297262Y-11086690D01*
X9363929Y-11220024D02*
X9363929Y-11086690D01*
X9363929Y-11020024D02*
X9354405Y-11029548D01*
X9354405Y-11029548D02*
X9363929Y-11039071D01*
X9363929Y-11039071D02*
X9373452Y-11029548D01*
X9373452Y-11029548D02*
X9363929Y-11020024D01*
X9363929Y-11020024D02*
X9363929Y-11039071D01*
X9487738Y-11220024D02*
X9468690Y-11210500D01*
X9468690Y-11210500D02*
X9459167Y-11191452D01*
X9459167Y-11191452D02*
X9459167Y-11020024D01*
X9592500Y-11220024D02*
X9573452Y-11210500D01*
X9573452Y-11210500D02*
X9563929Y-11191452D01*
X9563929Y-11191452D02*
X9563929Y-11020024D01*
X9821071Y-11220024D02*
X9821071Y-11020024D01*
X9821071Y-11020024D02*
X9887738Y-11162881D01*
X9887738Y-11162881D02*
X9954405Y-11020024D01*
X9954405Y-11020024D02*
X9954405Y-11220024D01*
X10135357Y-11220024D02*
X10135357Y-11115262D01*
X10135357Y-11115262D02*
X10125833Y-11096214D01*
X10125833Y-11096214D02*
X10106786Y-11086690D01*
X10106786Y-11086690D02*
X10068690Y-11086690D01*
X10068690Y-11086690D02*
X10049643Y-11096214D01*
X10135357Y-11210500D02*
X10116310Y-11220024D01*
X10116310Y-11220024D02*
X10068690Y-11220024D01*
X10068690Y-11220024D02*
X10049643Y-11210500D01*
X10049643Y-11210500D02*
X10040119Y-11191452D01*
X10040119Y-11191452D02*
X10040119Y-11172405D01*
X10040119Y-11172405D02*
X10049643Y-11153357D01*
X10049643Y-11153357D02*
X10068690Y-11143833D01*
X10068690Y-11143833D02*
X10116310Y-11143833D01*
X10116310Y-11143833D02*
X10135357Y-11134310D01*
X10230595Y-11086690D02*
X10230595Y-11286690D01*
X10230595Y-11096214D02*
X10249643Y-11086690D01*
X10249643Y-11086690D02*
X10287738Y-11086690D01*
X10287738Y-11086690D02*
X10306786Y-11096214D01*
X10306786Y-11096214D02*
X10316310Y-11105738D01*
X10316310Y-11105738D02*
X10325833Y-11124786D01*
X10325833Y-11124786D02*
X10325833Y-11181929D01*
X10325833Y-11181929D02*
X10316310Y-11200976D01*
X10316310Y-11200976D02*
X10306786Y-11210500D01*
X10306786Y-11210500D02*
X10287738Y-11220024D01*
X10287738Y-11220024D02*
X10249643Y-11220024D01*
X10249643Y-11220024D02*
X10230595Y-11210500D01*
X10411548Y-11200976D02*
X10421071Y-11210500D01*
X10421071Y-11210500D02*
X10411548Y-11220024D01*
X10411548Y-11220024D02*
X10402024Y-11210500D01*
X10402024Y-11210500D02*
X10411548Y-11200976D01*
X10411548Y-11200976D02*
X10411548Y-11220024D01*
X10411548Y-11096214D02*
X10421071Y-11105738D01*
X10421071Y-11105738D02*
X10411548Y-11115262D01*
X10411548Y-11115262D02*
X10402024Y-11105738D01*
X10402024Y-11105738D02*
X10411548Y-11096214D01*
X10411548Y-11096214D02*
X10411548Y-11115262D01*
D12*
X8752500Y-11527500D02*
X8792500Y-11567500D01*
X8792500Y-11527500D02*
X8752500Y-11567500D01*
D11*
X9078214Y-11440024D02*
X9097262Y-11440024D01*
X9097262Y-11440024D02*
X9116310Y-11449548D01*
X9116310Y-11449548D02*
X9125833Y-11459071D01*
X9125833Y-11459071D02*
X9135357Y-11478119D01*
X9135357Y-11478119D02*
X9144881Y-11516214D01*
X9144881Y-11516214D02*
X9144881Y-11563833D01*
X9144881Y-11563833D02*
X9135357Y-11601928D01*
X9135357Y-11601928D02*
X9125833Y-11620976D01*
X9125833Y-11620976D02*
X9116310Y-11630500D01*
X9116310Y-11630500D02*
X9097262Y-11640024D01*
X9097262Y-11640024D02*
X9078214Y-11640024D01*
X9078214Y-11640024D02*
X9059167Y-11630500D01*
X9059167Y-11630500D02*
X9049643Y-11620976D01*
X9049643Y-11620976D02*
X9040119Y-11601928D01*
X9040119Y-11601928D02*
X9030595Y-11563833D01*
X9030595Y-11563833D02*
X9030595Y-11516214D01*
X9030595Y-11516214D02*
X9040119Y-11478119D01*
X9040119Y-11478119D02*
X9049643Y-11459071D01*
X9049643Y-11459071D02*
X9059167Y-11449548D01*
X9059167Y-11449548D02*
X9078214Y-11440024D01*
X9230595Y-11620976D02*
X9240119Y-11630500D01*
X9240119Y-11630500D02*
X9230595Y-11640024D01*
X9230595Y-11640024D02*
X9221071Y-11630500D01*
X9221071Y-11630500D02*
X9230595Y-11620976D01*
X9230595Y-11620976D02*
X9230595Y-11640024D01*
X9411548Y-11506690D02*
X9411548Y-11640024D01*
X9363929Y-11430500D02*
X9316310Y-11573357D01*
X9316310Y-11573357D02*
X9440119Y-11573357D01*
X9554405Y-11440024D02*
X9573452Y-11440024D01*
X9573452Y-11440024D02*
X9592500Y-11449548D01*
X9592500Y-11449548D02*
X9602024Y-11459071D01*
X9602024Y-11459071D02*
X9611548Y-11478119D01*
X9611548Y-11478119D02*
X9621071Y-11516214D01*
X9621071Y-11516214D02*
X9621071Y-11563833D01*
X9621071Y-11563833D02*
X9611548Y-11601928D01*
X9611548Y-11601928D02*
X9602024Y-11620976D01*
X9602024Y-11620976D02*
X9592500Y-11630500D01*
X9592500Y-11630500D02*
X9573452Y-11640024D01*
X9573452Y-11640024D02*
X9554405Y-11640024D01*
X9554405Y-11640024D02*
X9535357Y-11630500D01*
X9535357Y-11630500D02*
X9525833Y-11620976D01*
X9525833Y-11620976D02*
X9516310Y-11601928D01*
X9516310Y-11601928D02*
X9506786Y-11563833D01*
X9506786Y-11563833D02*
X9506786Y-11516214D01*
X9506786Y-11516214D02*
X9516310Y-11478119D01*
X9516310Y-11478119D02*
X9525833Y-11459071D01*
X9525833Y-11459071D02*
X9535357Y-11449548D01*
X9535357Y-11449548D02*
X9554405Y-11440024D01*
X9744881Y-11440024D02*
X9763929Y-11440024D01*
X9763929Y-11440024D02*
X9782976Y-11449548D01*
X9782976Y-11449548D02*
X9792500Y-11459071D01*
X9792500Y-11459071D02*
X9802024Y-11478119D01*
X9802024Y-11478119D02*
X9811548Y-11516214D01*
X9811548Y-11516214D02*
X9811548Y-11563833D01*
X9811548Y-11563833D02*
X9802024Y-11601928D01*
X9802024Y-11601928D02*
X9792500Y-11620976D01*
X9792500Y-11620976D02*
X9782976Y-11630500D01*
X9782976Y-11630500D02*
X9763929Y-11640024D01*
X9763929Y-11640024D02*
X9744881Y-11640024D01*
X9744881Y-11640024D02*
X9725833Y-11630500D01*
X9725833Y-11630500D02*
X9716310Y-11620976D01*
X9716310Y-11620976D02*
X9706786Y-11601928D01*
X9706786Y-11601928D02*
X9697262Y-11563833D01*
X9697262Y-11563833D02*
X9697262Y-11516214D01*
X9697262Y-11516214D02*
X9706786Y-11478119D01*
X9706786Y-11478119D02*
X9716310Y-11459071D01*
X9716310Y-11459071D02*
X9725833Y-11449548D01*
X9725833Y-11449548D02*
X9744881Y-11440024D01*
X9897262Y-11640024D02*
X9897262Y-11506690D01*
X9897262Y-11525738D02*
X9906786Y-11516214D01*
X9906786Y-11516214D02*
X9925833Y-11506690D01*
X9925833Y-11506690D02*
X9954405Y-11506690D01*
X9954405Y-11506690D02*
X9973452Y-11516214D01*
X9973452Y-11516214D02*
X9982976Y-11535262D01*
X9982976Y-11535262D02*
X9982976Y-11640024D01*
X9982976Y-11535262D02*
X9992500Y-11516214D01*
X9992500Y-11516214D02*
X10011548Y-11506690D01*
X10011548Y-11506690D02*
X10040119Y-11506690D01*
X10040119Y-11506690D02*
X10059167Y-11516214D01*
X10059167Y-11516214D02*
X10068691Y-11535262D01*
X10068691Y-11535262D02*
X10068691Y-11640024D01*
X10163929Y-11640024D02*
X10163929Y-11506690D01*
X10163929Y-11525738D02*
X10173452Y-11516214D01*
X10173452Y-11516214D02*
X10192500Y-11506690D01*
X10192500Y-11506690D02*
X10221072Y-11506690D01*
X10221072Y-11506690D02*
X10240119Y-11516214D01*
X10240119Y-11516214D02*
X10249643Y-11535262D01*
X10249643Y-11535262D02*
X10249643Y-11640024D01*
X10249643Y-11535262D02*
X10259167Y-11516214D01*
X10259167Y-11516214D02*
X10278214Y-11506690D01*
X10278214Y-11506690D02*
X10306786Y-11506690D01*
X10306786Y-11506690D02*
X10325833Y-11516214D01*
X10325833Y-11516214D02*
X10335357Y-11535262D01*
X10335357Y-11535262D02*
X10335357Y-11640024D01*
X10725833Y-11430500D02*
X10554405Y-11687643D01*
X10982976Y-11440024D02*
X11002024Y-11440024D01*
X11002024Y-11440024D02*
X11021072Y-11449548D01*
X11021072Y-11449548D02*
X11030595Y-11459071D01*
X11030595Y-11459071D02*
X11040119Y-11478119D01*
X11040119Y-11478119D02*
X11049643Y-11516214D01*
X11049643Y-11516214D02*
X11049643Y-11563833D01*
X11049643Y-11563833D02*
X11040119Y-11601928D01*
X11040119Y-11601928D02*
X11030595Y-11620976D01*
X11030595Y-11620976D02*
X11021072Y-11630500D01*
X11021072Y-11630500D02*
X11002024Y-11640024D01*
X11002024Y-11640024D02*
X10982976Y-11640024D01*
X10982976Y-11640024D02*
X10963929Y-11630500D01*
X10963929Y-11630500D02*
X10954405Y-11620976D01*
X10954405Y-11620976D02*
X10944881Y-11601928D01*
X10944881Y-11601928D02*
X10935357Y-11563833D01*
X10935357Y-11563833D02*
X10935357Y-11516214D01*
X10935357Y-11516214D02*
X10944881Y-11478119D01*
X10944881Y-11478119D02*
X10954405Y-11459071D01*
X10954405Y-11459071D02*
X10963929Y-11449548D01*
X10963929Y-11449548D02*
X10982976Y-11440024D01*
X11135357Y-11620976D02*
X11144881Y-11630500D01*
X11144881Y-11630500D02*
X11135357Y-11640024D01*
X11135357Y-11640024D02*
X11125834Y-11630500D01*
X11125834Y-11630500D02*
X11135357Y-11620976D01*
X11135357Y-11620976D02*
X11135357Y-11640024D01*
X11268691Y-11440024D02*
X11287738Y-11440024D01*
X11287738Y-11440024D02*
X11306786Y-11449548D01*
X11306786Y-11449548D02*
X11316310Y-11459071D01*
X11316310Y-11459071D02*
X11325833Y-11478119D01*
X11325833Y-11478119D02*
X11335357Y-11516214D01*
X11335357Y-11516214D02*
X11335357Y-11563833D01*
X11335357Y-11563833D02*
X11325833Y-11601928D01*
X11325833Y-11601928D02*
X11316310Y-11620976D01*
X11316310Y-11620976D02*
X11306786Y-11630500D01*
X11306786Y-11630500D02*
X11287738Y-11640024D01*
X11287738Y-11640024D02*
X11268691Y-11640024D01*
X11268691Y-11640024D02*
X11249643Y-11630500D01*
X11249643Y-11630500D02*
X11240119Y-11620976D01*
X11240119Y-11620976D02*
X11230595Y-11601928D01*
X11230595Y-11601928D02*
X11221072Y-11563833D01*
X11221072Y-11563833D02*
X11221072Y-11516214D01*
X11221072Y-11516214D02*
X11230595Y-11478119D01*
X11230595Y-11478119D02*
X11240119Y-11459071D01*
X11240119Y-11459071D02*
X11249643Y-11449548D01*
X11249643Y-11449548D02*
X11268691Y-11440024D01*
X11525833Y-11640024D02*
X11411548Y-11640024D01*
X11468691Y-11640024D02*
X11468691Y-11440024D01*
X11468691Y-11440024D02*
X11449643Y-11468595D01*
X11449643Y-11468595D02*
X11430595Y-11487643D01*
X11430595Y-11487643D02*
X11411548Y-11497167D01*
X11706786Y-11440024D02*
X11611548Y-11440024D01*
X11611548Y-11440024D02*
X11602024Y-11535262D01*
X11602024Y-11535262D02*
X11611548Y-11525738D01*
X11611548Y-11525738D02*
X11630595Y-11516214D01*
X11630595Y-11516214D02*
X11678214Y-11516214D01*
X11678214Y-11516214D02*
X11697262Y-11525738D01*
X11697262Y-11525738D02*
X11706786Y-11535262D01*
X11706786Y-11535262D02*
X11716310Y-11554309D01*
X11716310Y-11554309D02*
X11716310Y-11601928D01*
X11716310Y-11601928D02*
X11706786Y-11620976D01*
X11706786Y-11620976D02*
X11697262Y-11630500D01*
X11697262Y-11630500D02*
X11678214Y-11640024D01*
X11678214Y-11640024D02*
X11630595Y-11640024D01*
X11630595Y-11640024D02*
X11611548Y-11630500D01*
X11611548Y-11630500D02*
X11602024Y-11620976D01*
X11782976Y-11440024D02*
X11916310Y-11440024D01*
X11916310Y-11440024D02*
X11830595Y-11640024D01*
X11982976Y-11440024D02*
X11982976Y-11478119D01*
X12059167Y-11440024D02*
X12059167Y-11478119D01*
X12354405Y-11716214D02*
X12344881Y-11706690D01*
X12344881Y-11706690D02*
X12325834Y-11678119D01*
X12325834Y-11678119D02*
X12316310Y-11659071D01*
X12316310Y-11659071D02*
X12306786Y-11630500D01*
X12306786Y-11630500D02*
X12297262Y-11582881D01*
X12297262Y-11582881D02*
X12297262Y-11544786D01*
X12297262Y-11544786D02*
X12306786Y-11497167D01*
X12306786Y-11497167D02*
X12316310Y-11468595D01*
X12316310Y-11468595D02*
X12325834Y-11449548D01*
X12325834Y-11449548D02*
X12344881Y-11420976D01*
X12344881Y-11420976D02*
X12354405Y-11411452D01*
X12421072Y-11459071D02*
X12430595Y-11449548D01*
X12430595Y-11449548D02*
X12449643Y-11440024D01*
X12449643Y-11440024D02*
X12497262Y-11440024D01*
X12497262Y-11440024D02*
X12516310Y-11449548D01*
X12516310Y-11449548D02*
X12525834Y-11459071D01*
X12525834Y-11459071D02*
X12535357Y-11478119D01*
X12535357Y-11478119D02*
X12535357Y-11497167D01*
X12535357Y-11497167D02*
X12525834Y-11525738D01*
X12525834Y-11525738D02*
X12411548Y-11640024D01*
X12411548Y-11640024D02*
X12535357Y-11640024D01*
X12706786Y-11440024D02*
X12668691Y-11440024D01*
X12668691Y-11440024D02*
X12649643Y-11449548D01*
X12649643Y-11449548D02*
X12640119Y-11459071D01*
X12640119Y-11459071D02*
X12621072Y-11487643D01*
X12621072Y-11487643D02*
X12611548Y-11525738D01*
X12611548Y-11525738D02*
X12611548Y-11601928D01*
X12611548Y-11601928D02*
X12621072Y-11620976D01*
X12621072Y-11620976D02*
X12630595Y-11630500D01*
X12630595Y-11630500D02*
X12649643Y-11640024D01*
X12649643Y-11640024D02*
X12687738Y-11640024D01*
X12687738Y-11640024D02*
X12706786Y-11630500D01*
X12706786Y-11630500D02*
X12716310Y-11620976D01*
X12716310Y-11620976D02*
X12725834Y-11601928D01*
X12725834Y-11601928D02*
X12725834Y-11554309D01*
X12725834Y-11554309D02*
X12716310Y-11535262D01*
X12716310Y-11535262D02*
X12706786Y-11525738D01*
X12706786Y-11525738D02*
X12687738Y-11516214D01*
X12687738Y-11516214D02*
X12649643Y-11516214D01*
X12649643Y-11516214D02*
X12630595Y-11525738D01*
X12630595Y-11525738D02*
X12621072Y-11535262D01*
X12621072Y-11535262D02*
X12611548Y-11554309D01*
X12963929Y-11640024D02*
X12963929Y-11440024D01*
X13049643Y-11640024D02*
X13049643Y-11535262D01*
X13049643Y-11535262D02*
X13040119Y-11516214D01*
X13040119Y-11516214D02*
X13021072Y-11506690D01*
X13021072Y-11506690D02*
X12992500Y-11506690D01*
X12992500Y-11506690D02*
X12973453Y-11516214D01*
X12973453Y-11516214D02*
X12963929Y-11525738D01*
X13173453Y-11640024D02*
X13154405Y-11630500D01*
X13154405Y-11630500D02*
X13144881Y-11620976D01*
X13144881Y-11620976D02*
X13135357Y-11601928D01*
X13135357Y-11601928D02*
X13135357Y-11544786D01*
X13135357Y-11544786D02*
X13144881Y-11525738D01*
X13144881Y-11525738D02*
X13154405Y-11516214D01*
X13154405Y-11516214D02*
X13173453Y-11506690D01*
X13173453Y-11506690D02*
X13202024Y-11506690D01*
X13202024Y-11506690D02*
X13221072Y-11516214D01*
X13221072Y-11516214D02*
X13230596Y-11525738D01*
X13230596Y-11525738D02*
X13240119Y-11544786D01*
X13240119Y-11544786D02*
X13240119Y-11601928D01*
X13240119Y-11601928D02*
X13230596Y-11620976D01*
X13230596Y-11620976D02*
X13221072Y-11630500D01*
X13221072Y-11630500D02*
X13202024Y-11640024D01*
X13202024Y-11640024D02*
X13173453Y-11640024D01*
X13354405Y-11640024D02*
X13335357Y-11630500D01*
X13335357Y-11630500D02*
X13325834Y-11611452D01*
X13325834Y-11611452D02*
X13325834Y-11440024D01*
X13506786Y-11630500D02*
X13487738Y-11640024D01*
X13487738Y-11640024D02*
X13449643Y-11640024D01*
X13449643Y-11640024D02*
X13430596Y-11630500D01*
X13430596Y-11630500D02*
X13421072Y-11611452D01*
X13421072Y-11611452D02*
X13421072Y-11535262D01*
X13421072Y-11535262D02*
X13430596Y-11516214D01*
X13430596Y-11516214D02*
X13449643Y-11506690D01*
X13449643Y-11506690D02*
X13487738Y-11506690D01*
X13487738Y-11506690D02*
X13506786Y-11516214D01*
X13506786Y-11516214D02*
X13516310Y-11535262D01*
X13516310Y-11535262D02*
X13516310Y-11554309D01*
X13516310Y-11554309D02*
X13421072Y-11573357D01*
X13592500Y-11630500D02*
X13611548Y-11640024D01*
X13611548Y-11640024D02*
X13649643Y-11640024D01*
X13649643Y-11640024D02*
X13668691Y-11630500D01*
X13668691Y-11630500D02*
X13678215Y-11611452D01*
X13678215Y-11611452D02*
X13678215Y-11601928D01*
X13678215Y-11601928D02*
X13668691Y-11582881D01*
X13668691Y-11582881D02*
X13649643Y-11573357D01*
X13649643Y-11573357D02*
X13621072Y-11573357D01*
X13621072Y-11573357D02*
X13602024Y-11563833D01*
X13602024Y-11563833D02*
X13592500Y-11544786D01*
X13592500Y-11544786D02*
X13592500Y-11535262D01*
X13592500Y-11535262D02*
X13602024Y-11516214D01*
X13602024Y-11516214D02*
X13621072Y-11506690D01*
X13621072Y-11506690D02*
X13649643Y-11506690D01*
X13649643Y-11506690D02*
X13668691Y-11516214D01*
X13744881Y-11716214D02*
X13754405Y-11706690D01*
X13754405Y-11706690D02*
X13773453Y-11678119D01*
X13773453Y-11678119D02*
X13782977Y-11659071D01*
X13782977Y-11659071D02*
X13792500Y-11630500D01*
X13792500Y-11630500D02*
X13802024Y-11582881D01*
X13802024Y-11582881D02*
X13802024Y-11544786D01*
X13802024Y-11544786D02*
X13792500Y-11497167D01*
X13792500Y-11497167D02*
X13782977Y-11468595D01*
X13782977Y-11468595D02*
X13773453Y-11449548D01*
X13773453Y-11449548D02*
X13754405Y-11420976D01*
X13754405Y-11420976D02*
X13744881Y-11411452D01*
D13*
X8792500Y-11811500D02*
G75*
G03*
X8792500Y-11811500I-51000J0D01*
G01*
D11*
X9144881Y-11904024D02*
X9030595Y-11904024D01*
X9087738Y-11904024D02*
X9087738Y-11704024D01*
X9087738Y-11704024D02*
X9068690Y-11732595D01*
X9068690Y-11732595D02*
X9049643Y-11751643D01*
X9049643Y-11751643D02*
X9030595Y-11761167D01*
X9230595Y-11884976D02*
X9240119Y-11894500D01*
X9240119Y-11894500D02*
X9230595Y-11904024D01*
X9230595Y-11904024D02*
X9221071Y-11894500D01*
X9221071Y-11894500D02*
X9230595Y-11884976D01*
X9230595Y-11884976D02*
X9230595Y-11904024D01*
X9363929Y-11704024D02*
X9382976Y-11704024D01*
X9382976Y-11704024D02*
X9402024Y-11713548D01*
X9402024Y-11713548D02*
X9411548Y-11723071D01*
X9411548Y-11723071D02*
X9421071Y-11742119D01*
X9421071Y-11742119D02*
X9430595Y-11780214D01*
X9430595Y-11780214D02*
X9430595Y-11827833D01*
X9430595Y-11827833D02*
X9421071Y-11865928D01*
X9421071Y-11865928D02*
X9411548Y-11884976D01*
X9411548Y-11884976D02*
X9402024Y-11894500D01*
X9402024Y-11894500D02*
X9382976Y-11904024D01*
X9382976Y-11904024D02*
X9363929Y-11904024D01*
X9363929Y-11904024D02*
X9344881Y-11894500D01*
X9344881Y-11894500D02*
X9335357Y-11884976D01*
X9335357Y-11884976D02*
X9325833Y-11865928D01*
X9325833Y-11865928D02*
X9316310Y-11827833D01*
X9316310Y-11827833D02*
X9316310Y-11780214D01*
X9316310Y-11780214D02*
X9325833Y-11742119D01*
X9325833Y-11742119D02*
X9335357Y-11723071D01*
X9335357Y-11723071D02*
X9344881Y-11713548D01*
X9344881Y-11713548D02*
X9363929Y-11704024D01*
X9506786Y-11723071D02*
X9516310Y-11713548D01*
X9516310Y-11713548D02*
X9535357Y-11704024D01*
X9535357Y-11704024D02*
X9582976Y-11704024D01*
X9582976Y-11704024D02*
X9602024Y-11713548D01*
X9602024Y-11713548D02*
X9611548Y-11723071D01*
X9611548Y-11723071D02*
X9621071Y-11742119D01*
X9621071Y-11742119D02*
X9621071Y-11761167D01*
X9621071Y-11761167D02*
X9611548Y-11789738D01*
X9611548Y-11789738D02*
X9497262Y-11904024D01*
X9497262Y-11904024D02*
X9621071Y-11904024D01*
X9744881Y-11704024D02*
X9763929Y-11704024D01*
X9763929Y-11704024D02*
X9782976Y-11713548D01*
X9782976Y-11713548D02*
X9792500Y-11723071D01*
X9792500Y-11723071D02*
X9802024Y-11742119D01*
X9802024Y-11742119D02*
X9811548Y-11780214D01*
X9811548Y-11780214D02*
X9811548Y-11827833D01*
X9811548Y-11827833D02*
X9802024Y-11865928D01*
X9802024Y-11865928D02*
X9792500Y-11884976D01*
X9792500Y-11884976D02*
X9782976Y-11894500D01*
X9782976Y-11894500D02*
X9763929Y-11904024D01*
X9763929Y-11904024D02*
X9744881Y-11904024D01*
X9744881Y-11904024D02*
X9725833Y-11894500D01*
X9725833Y-11894500D02*
X9716310Y-11884976D01*
X9716310Y-11884976D02*
X9706786Y-11865928D01*
X9706786Y-11865928D02*
X9697262Y-11827833D01*
X9697262Y-11827833D02*
X9697262Y-11780214D01*
X9697262Y-11780214D02*
X9706786Y-11742119D01*
X9706786Y-11742119D02*
X9716310Y-11723071D01*
X9716310Y-11723071D02*
X9725833Y-11713548D01*
X9725833Y-11713548D02*
X9744881Y-11704024D01*
X9897262Y-11904024D02*
X9897262Y-11770690D01*
X9897262Y-11789738D02*
X9906786Y-11780214D01*
X9906786Y-11780214D02*
X9925833Y-11770690D01*
X9925833Y-11770690D02*
X9954405Y-11770690D01*
X9954405Y-11770690D02*
X9973452Y-11780214D01*
X9973452Y-11780214D02*
X9982976Y-11799262D01*
X9982976Y-11799262D02*
X9982976Y-11904024D01*
X9982976Y-11799262D02*
X9992500Y-11780214D01*
X9992500Y-11780214D02*
X10011548Y-11770690D01*
X10011548Y-11770690D02*
X10040119Y-11770690D01*
X10040119Y-11770690D02*
X10059167Y-11780214D01*
X10059167Y-11780214D02*
X10068691Y-11799262D01*
X10068691Y-11799262D02*
X10068691Y-11904024D01*
X10163929Y-11904024D02*
X10163929Y-11770690D01*
X10163929Y-11789738D02*
X10173452Y-11780214D01*
X10173452Y-11780214D02*
X10192500Y-11770690D01*
X10192500Y-11770690D02*
X10221072Y-11770690D01*
X10221072Y-11770690D02*
X10240119Y-11780214D01*
X10240119Y-11780214D02*
X10249643Y-11799262D01*
X10249643Y-11799262D02*
X10249643Y-11904024D01*
X10249643Y-11799262D02*
X10259167Y-11780214D01*
X10259167Y-11780214D02*
X10278214Y-11770690D01*
X10278214Y-11770690D02*
X10306786Y-11770690D01*
X10306786Y-11770690D02*
X10325833Y-11780214D01*
X10325833Y-11780214D02*
X10335357Y-11799262D01*
X10335357Y-11799262D02*
X10335357Y-11904024D01*
X10725833Y-11694500D02*
X10554405Y-11951643D01*
X10982976Y-11704024D02*
X11002024Y-11704024D01*
X11002024Y-11704024D02*
X11021072Y-11713548D01*
X11021072Y-11713548D02*
X11030595Y-11723071D01*
X11030595Y-11723071D02*
X11040119Y-11742119D01*
X11040119Y-11742119D02*
X11049643Y-11780214D01*
X11049643Y-11780214D02*
X11049643Y-11827833D01*
X11049643Y-11827833D02*
X11040119Y-11865928D01*
X11040119Y-11865928D02*
X11030595Y-11884976D01*
X11030595Y-11884976D02*
X11021072Y-11894500D01*
X11021072Y-11894500D02*
X11002024Y-11904024D01*
X11002024Y-11904024D02*
X10982976Y-11904024D01*
X10982976Y-11904024D02*
X10963929Y-11894500D01*
X10963929Y-11894500D02*
X10954405Y-11884976D01*
X10954405Y-11884976D02*
X10944881Y-11865928D01*
X10944881Y-11865928D02*
X10935357Y-11827833D01*
X10935357Y-11827833D02*
X10935357Y-11780214D01*
X10935357Y-11780214D02*
X10944881Y-11742119D01*
X10944881Y-11742119D02*
X10954405Y-11723071D01*
X10954405Y-11723071D02*
X10963929Y-11713548D01*
X10963929Y-11713548D02*
X10982976Y-11704024D01*
X11135357Y-11884976D02*
X11144881Y-11894500D01*
X11144881Y-11894500D02*
X11135357Y-11904024D01*
X11135357Y-11904024D02*
X11125834Y-11894500D01*
X11125834Y-11894500D02*
X11135357Y-11884976D01*
X11135357Y-11884976D02*
X11135357Y-11904024D01*
X11268691Y-11704024D02*
X11287738Y-11704024D01*
X11287738Y-11704024D02*
X11306786Y-11713548D01*
X11306786Y-11713548D02*
X11316310Y-11723071D01*
X11316310Y-11723071D02*
X11325833Y-11742119D01*
X11325833Y-11742119D02*
X11335357Y-11780214D01*
X11335357Y-11780214D02*
X11335357Y-11827833D01*
X11335357Y-11827833D02*
X11325833Y-11865928D01*
X11325833Y-11865928D02*
X11316310Y-11884976D01*
X11316310Y-11884976D02*
X11306786Y-11894500D01*
X11306786Y-11894500D02*
X11287738Y-11904024D01*
X11287738Y-11904024D02*
X11268691Y-11904024D01*
X11268691Y-11904024D02*
X11249643Y-11894500D01*
X11249643Y-11894500D02*
X11240119Y-11884976D01*
X11240119Y-11884976D02*
X11230595Y-11865928D01*
X11230595Y-11865928D02*
X11221072Y-11827833D01*
X11221072Y-11827833D02*
X11221072Y-11780214D01*
X11221072Y-11780214D02*
X11230595Y-11742119D01*
X11230595Y-11742119D02*
X11240119Y-11723071D01*
X11240119Y-11723071D02*
X11249643Y-11713548D01*
X11249643Y-11713548D02*
X11268691Y-11704024D01*
X11506786Y-11770690D02*
X11506786Y-11904024D01*
X11459167Y-11694500D02*
X11411548Y-11837357D01*
X11411548Y-11837357D02*
X11535357Y-11837357D01*
X11649643Y-11704024D02*
X11668691Y-11704024D01*
X11668691Y-11704024D02*
X11687738Y-11713548D01*
X11687738Y-11713548D02*
X11697262Y-11723071D01*
X11697262Y-11723071D02*
X11706786Y-11742119D01*
X11706786Y-11742119D02*
X11716310Y-11780214D01*
X11716310Y-11780214D02*
X11716310Y-11827833D01*
X11716310Y-11827833D02*
X11706786Y-11865928D01*
X11706786Y-11865928D02*
X11697262Y-11884976D01*
X11697262Y-11884976D02*
X11687738Y-11894500D01*
X11687738Y-11894500D02*
X11668691Y-11904024D01*
X11668691Y-11904024D02*
X11649643Y-11904024D01*
X11649643Y-11904024D02*
X11630595Y-11894500D01*
X11630595Y-11894500D02*
X11621072Y-11884976D01*
X11621072Y-11884976D02*
X11611548Y-11865928D01*
X11611548Y-11865928D02*
X11602024Y-11827833D01*
X11602024Y-11827833D02*
X11602024Y-11780214D01*
X11602024Y-11780214D02*
X11611548Y-11742119D01*
X11611548Y-11742119D02*
X11621072Y-11723071D01*
X11621072Y-11723071D02*
X11630595Y-11713548D01*
X11630595Y-11713548D02*
X11649643Y-11704024D01*
X11792500Y-11723071D02*
X11802024Y-11713548D01*
X11802024Y-11713548D02*
X11821072Y-11704024D01*
X11821072Y-11704024D02*
X11868691Y-11704024D01*
X11868691Y-11704024D02*
X11887738Y-11713548D01*
X11887738Y-11713548D02*
X11897262Y-11723071D01*
X11897262Y-11723071D02*
X11906786Y-11742119D01*
X11906786Y-11742119D02*
X11906786Y-11761167D01*
X11906786Y-11761167D02*
X11897262Y-11789738D01*
X11897262Y-11789738D02*
X11782976Y-11904024D01*
X11782976Y-11904024D02*
X11906786Y-11904024D01*
X11982976Y-11704024D02*
X11982976Y-11742119D01*
X12059167Y-11704024D02*
X12059167Y-11742119D01*
X12354405Y-11980214D02*
X12344881Y-11970690D01*
X12344881Y-11970690D02*
X12325834Y-11942119D01*
X12325834Y-11942119D02*
X12316310Y-11923071D01*
X12316310Y-11923071D02*
X12306786Y-11894500D01*
X12306786Y-11894500D02*
X12297262Y-11846881D01*
X12297262Y-11846881D02*
X12297262Y-11808786D01*
X12297262Y-11808786D02*
X12306786Y-11761167D01*
X12306786Y-11761167D02*
X12316310Y-11732595D01*
X12316310Y-11732595D02*
X12325834Y-11713548D01*
X12325834Y-11713548D02*
X12344881Y-11684976D01*
X12344881Y-11684976D02*
X12354405Y-11675452D01*
X12516310Y-11704024D02*
X12478214Y-11704024D01*
X12478214Y-11704024D02*
X12459167Y-11713548D01*
X12459167Y-11713548D02*
X12449643Y-11723071D01*
X12449643Y-11723071D02*
X12430595Y-11751643D01*
X12430595Y-11751643D02*
X12421072Y-11789738D01*
X12421072Y-11789738D02*
X12421072Y-11865928D01*
X12421072Y-11865928D02*
X12430595Y-11884976D01*
X12430595Y-11884976D02*
X12440119Y-11894500D01*
X12440119Y-11894500D02*
X12459167Y-11904024D01*
X12459167Y-11904024D02*
X12497262Y-11904024D01*
X12497262Y-11904024D02*
X12516310Y-11894500D01*
X12516310Y-11894500D02*
X12525834Y-11884976D01*
X12525834Y-11884976D02*
X12535357Y-11865928D01*
X12535357Y-11865928D02*
X12535357Y-11818309D01*
X12535357Y-11818309D02*
X12525834Y-11799262D01*
X12525834Y-11799262D02*
X12516310Y-11789738D01*
X12516310Y-11789738D02*
X12497262Y-11780214D01*
X12497262Y-11780214D02*
X12459167Y-11780214D01*
X12459167Y-11780214D02*
X12440119Y-11789738D01*
X12440119Y-11789738D02*
X12430595Y-11799262D01*
X12430595Y-11799262D02*
X12421072Y-11818309D01*
X12773453Y-11904024D02*
X12773453Y-11704024D01*
X12859167Y-11904024D02*
X12859167Y-11799262D01*
X12859167Y-11799262D02*
X12849643Y-11780214D01*
X12849643Y-11780214D02*
X12830596Y-11770690D01*
X12830596Y-11770690D02*
X12802024Y-11770690D01*
X12802024Y-11770690D02*
X12782976Y-11780214D01*
X12782976Y-11780214D02*
X12773453Y-11789738D01*
X12982976Y-11904024D02*
X12963929Y-11894500D01*
X12963929Y-11894500D02*
X12954405Y-11884976D01*
X12954405Y-11884976D02*
X12944881Y-11865928D01*
X12944881Y-11865928D02*
X12944881Y-11808786D01*
X12944881Y-11808786D02*
X12954405Y-11789738D01*
X12954405Y-11789738D02*
X12963929Y-11780214D01*
X12963929Y-11780214D02*
X12982976Y-11770690D01*
X12982976Y-11770690D02*
X13011548Y-11770690D01*
X13011548Y-11770690D02*
X13030596Y-11780214D01*
X13030596Y-11780214D02*
X13040119Y-11789738D01*
X13040119Y-11789738D02*
X13049643Y-11808786D01*
X13049643Y-11808786D02*
X13049643Y-11865928D01*
X13049643Y-11865928D02*
X13040119Y-11884976D01*
X13040119Y-11884976D02*
X13030596Y-11894500D01*
X13030596Y-11894500D02*
X13011548Y-11904024D01*
X13011548Y-11904024D02*
X12982976Y-11904024D01*
X13163929Y-11904024D02*
X13144881Y-11894500D01*
X13144881Y-11894500D02*
X13135357Y-11875452D01*
X13135357Y-11875452D02*
X13135357Y-11704024D01*
X13316310Y-11894500D02*
X13297262Y-11904024D01*
X13297262Y-11904024D02*
X13259167Y-11904024D01*
X13259167Y-11904024D02*
X13240119Y-11894500D01*
X13240119Y-11894500D02*
X13230596Y-11875452D01*
X13230596Y-11875452D02*
X13230596Y-11799262D01*
X13230596Y-11799262D02*
X13240119Y-11780214D01*
X13240119Y-11780214D02*
X13259167Y-11770690D01*
X13259167Y-11770690D02*
X13297262Y-11770690D01*
X13297262Y-11770690D02*
X13316310Y-11780214D01*
X13316310Y-11780214D02*
X13325834Y-11799262D01*
X13325834Y-11799262D02*
X13325834Y-11818309D01*
X13325834Y-11818309D02*
X13230596Y-11837357D01*
X13402024Y-11894500D02*
X13421072Y-11904024D01*
X13421072Y-11904024D02*
X13459167Y-11904024D01*
X13459167Y-11904024D02*
X13478215Y-11894500D01*
X13478215Y-11894500D02*
X13487738Y-11875452D01*
X13487738Y-11875452D02*
X13487738Y-11865928D01*
X13487738Y-11865928D02*
X13478215Y-11846881D01*
X13478215Y-11846881D02*
X13459167Y-11837357D01*
X13459167Y-11837357D02*
X13430596Y-11837357D01*
X13430596Y-11837357D02*
X13411548Y-11827833D01*
X13411548Y-11827833D02*
X13402024Y-11808786D01*
X13402024Y-11808786D02*
X13402024Y-11799262D01*
X13402024Y-11799262D02*
X13411548Y-11780214D01*
X13411548Y-11780214D02*
X13430596Y-11770690D01*
X13430596Y-11770690D02*
X13459167Y-11770690D01*
X13459167Y-11770690D02*
X13478215Y-11780214D01*
X13554405Y-11980214D02*
X13563929Y-11970690D01*
X13563929Y-11970690D02*
X13582977Y-11942119D01*
X13582977Y-11942119D02*
X13592500Y-11923071D01*
X13592500Y-11923071D02*
X13602024Y-11894500D01*
X13602024Y-11894500D02*
X13611548Y-11846881D01*
X13611548Y-11846881D02*
X13611548Y-11808786D01*
X13611548Y-11808786D02*
X13602024Y-11761167D01*
X13602024Y-11761167D02*
X13592500Y-11732595D01*
X13592500Y-11732595D02*
X13582977Y-11713548D01*
X13582977Y-11713548D02*
X13563929Y-11684976D01*
X13563929Y-11684976D02*
X13554405Y-11675452D01*
D14*
X8723000Y-12006000D02*
X8723000Y-12145000D01*
X8653500Y-12075500D02*
X8792500Y-12075500D01*
D11*
X9144881Y-12168024D02*
X9030595Y-12168024D01*
X9087738Y-12168024D02*
X9087738Y-11968024D01*
X9087738Y-11968024D02*
X9068690Y-11996595D01*
X9068690Y-11996595D02*
X9049643Y-12015643D01*
X9049643Y-12015643D02*
X9030595Y-12025167D01*
X9230595Y-12148976D02*
X9240119Y-12158500D01*
X9240119Y-12158500D02*
X9230595Y-12168024D01*
X9230595Y-12168024D02*
X9221071Y-12158500D01*
X9221071Y-12158500D02*
X9230595Y-12148976D01*
X9230595Y-12148976D02*
X9230595Y-12168024D01*
X9306786Y-11968024D02*
X9430595Y-11968024D01*
X9430595Y-11968024D02*
X9363929Y-12044214D01*
X9363929Y-12044214D02*
X9392500Y-12044214D01*
X9392500Y-12044214D02*
X9411548Y-12053738D01*
X9411548Y-12053738D02*
X9421071Y-12063262D01*
X9421071Y-12063262D02*
X9430595Y-12082309D01*
X9430595Y-12082309D02*
X9430595Y-12129928D01*
X9430595Y-12129928D02*
X9421071Y-12148976D01*
X9421071Y-12148976D02*
X9411548Y-12158500D01*
X9411548Y-12158500D02*
X9392500Y-12168024D01*
X9392500Y-12168024D02*
X9335357Y-12168024D01*
X9335357Y-12168024D02*
X9316310Y-12158500D01*
X9316310Y-12158500D02*
X9306786Y-12148976D01*
X9525833Y-12168024D02*
X9563929Y-12168024D01*
X9563929Y-12168024D02*
X9582976Y-12158500D01*
X9582976Y-12158500D02*
X9592500Y-12148976D01*
X9592500Y-12148976D02*
X9611548Y-12120405D01*
X9611548Y-12120405D02*
X9621071Y-12082309D01*
X9621071Y-12082309D02*
X9621071Y-12006119D01*
X9621071Y-12006119D02*
X9611548Y-11987071D01*
X9611548Y-11987071D02*
X9602024Y-11977548D01*
X9602024Y-11977548D02*
X9582976Y-11968024D01*
X9582976Y-11968024D02*
X9544881Y-11968024D01*
X9544881Y-11968024D02*
X9525833Y-11977548D01*
X9525833Y-11977548D02*
X9516310Y-11987071D01*
X9516310Y-11987071D02*
X9506786Y-12006119D01*
X9506786Y-12006119D02*
X9506786Y-12053738D01*
X9506786Y-12053738D02*
X9516310Y-12072786D01*
X9516310Y-12072786D02*
X9525833Y-12082309D01*
X9525833Y-12082309D02*
X9544881Y-12091833D01*
X9544881Y-12091833D02*
X9582976Y-12091833D01*
X9582976Y-12091833D02*
X9602024Y-12082309D01*
X9602024Y-12082309D02*
X9611548Y-12072786D01*
X9611548Y-12072786D02*
X9621071Y-12053738D01*
X9744881Y-11968024D02*
X9763929Y-11968024D01*
X9763929Y-11968024D02*
X9782976Y-11977548D01*
X9782976Y-11977548D02*
X9792500Y-11987071D01*
X9792500Y-11987071D02*
X9802024Y-12006119D01*
X9802024Y-12006119D02*
X9811548Y-12044214D01*
X9811548Y-12044214D02*
X9811548Y-12091833D01*
X9811548Y-12091833D02*
X9802024Y-12129928D01*
X9802024Y-12129928D02*
X9792500Y-12148976D01*
X9792500Y-12148976D02*
X9782976Y-12158500D01*
X9782976Y-12158500D02*
X9763929Y-12168024D01*
X9763929Y-12168024D02*
X9744881Y-12168024D01*
X9744881Y-12168024D02*
X9725833Y-12158500D01*
X9725833Y-12158500D02*
X9716310Y-12148976D01*
X9716310Y-12148976D02*
X9706786Y-12129928D01*
X9706786Y-12129928D02*
X9697262Y-12091833D01*
X9697262Y-12091833D02*
X9697262Y-12044214D01*
X9697262Y-12044214D02*
X9706786Y-12006119D01*
X9706786Y-12006119D02*
X9716310Y-11987071D01*
X9716310Y-11987071D02*
X9725833Y-11977548D01*
X9725833Y-11977548D02*
X9744881Y-11968024D01*
X9897262Y-12168024D02*
X9897262Y-12034690D01*
X9897262Y-12053738D02*
X9906786Y-12044214D01*
X9906786Y-12044214D02*
X9925833Y-12034690D01*
X9925833Y-12034690D02*
X9954405Y-12034690D01*
X9954405Y-12034690D02*
X9973452Y-12044214D01*
X9973452Y-12044214D02*
X9982976Y-12063262D01*
X9982976Y-12063262D02*
X9982976Y-12168024D01*
X9982976Y-12063262D02*
X9992500Y-12044214D01*
X9992500Y-12044214D02*
X10011548Y-12034690D01*
X10011548Y-12034690D02*
X10040119Y-12034690D01*
X10040119Y-12034690D02*
X10059167Y-12044214D01*
X10059167Y-12044214D02*
X10068691Y-12063262D01*
X10068691Y-12063262D02*
X10068691Y-12168024D01*
X10163929Y-12168024D02*
X10163929Y-12034690D01*
X10163929Y-12053738D02*
X10173452Y-12044214D01*
X10173452Y-12044214D02*
X10192500Y-12034690D01*
X10192500Y-12034690D02*
X10221072Y-12034690D01*
X10221072Y-12034690D02*
X10240119Y-12044214D01*
X10240119Y-12044214D02*
X10249643Y-12063262D01*
X10249643Y-12063262D02*
X10249643Y-12168024D01*
X10249643Y-12063262D02*
X10259167Y-12044214D01*
X10259167Y-12044214D02*
X10278214Y-12034690D01*
X10278214Y-12034690D02*
X10306786Y-12034690D01*
X10306786Y-12034690D02*
X10325833Y-12044214D01*
X10325833Y-12044214D02*
X10335357Y-12063262D01*
X10335357Y-12063262D02*
X10335357Y-12168024D01*
X10725833Y-11958500D02*
X10554405Y-12215643D01*
X10982976Y-11968024D02*
X11002024Y-11968024D01*
X11002024Y-11968024D02*
X11021072Y-11977548D01*
X11021072Y-11977548D02*
X11030595Y-11987071D01*
X11030595Y-11987071D02*
X11040119Y-12006119D01*
X11040119Y-12006119D02*
X11049643Y-12044214D01*
X11049643Y-12044214D02*
X11049643Y-12091833D01*
X11049643Y-12091833D02*
X11040119Y-12129928D01*
X11040119Y-12129928D02*
X11030595Y-12148976D01*
X11030595Y-12148976D02*
X11021072Y-12158500D01*
X11021072Y-12158500D02*
X11002024Y-12168024D01*
X11002024Y-12168024D02*
X10982976Y-12168024D01*
X10982976Y-12168024D02*
X10963929Y-12158500D01*
X10963929Y-12158500D02*
X10954405Y-12148976D01*
X10954405Y-12148976D02*
X10944881Y-12129928D01*
X10944881Y-12129928D02*
X10935357Y-12091833D01*
X10935357Y-12091833D02*
X10935357Y-12044214D01*
X10935357Y-12044214D02*
X10944881Y-12006119D01*
X10944881Y-12006119D02*
X10954405Y-11987071D01*
X10954405Y-11987071D02*
X10963929Y-11977548D01*
X10963929Y-11977548D02*
X10982976Y-11968024D01*
X11135357Y-12148976D02*
X11144881Y-12158500D01*
X11144881Y-12158500D02*
X11135357Y-12168024D01*
X11135357Y-12168024D02*
X11125834Y-12158500D01*
X11125834Y-12158500D02*
X11135357Y-12148976D01*
X11135357Y-12148976D02*
X11135357Y-12168024D01*
X11268691Y-11968024D02*
X11287738Y-11968024D01*
X11287738Y-11968024D02*
X11306786Y-11977548D01*
X11306786Y-11977548D02*
X11316310Y-11987071D01*
X11316310Y-11987071D02*
X11325833Y-12006119D01*
X11325833Y-12006119D02*
X11335357Y-12044214D01*
X11335357Y-12044214D02*
X11335357Y-12091833D01*
X11335357Y-12091833D02*
X11325833Y-12129928D01*
X11325833Y-12129928D02*
X11316310Y-12148976D01*
X11316310Y-12148976D02*
X11306786Y-12158500D01*
X11306786Y-12158500D02*
X11287738Y-12168024D01*
X11287738Y-12168024D02*
X11268691Y-12168024D01*
X11268691Y-12168024D02*
X11249643Y-12158500D01*
X11249643Y-12158500D02*
X11240119Y-12148976D01*
X11240119Y-12148976D02*
X11230595Y-12129928D01*
X11230595Y-12129928D02*
X11221072Y-12091833D01*
X11221072Y-12091833D02*
X11221072Y-12044214D01*
X11221072Y-12044214D02*
X11230595Y-12006119D01*
X11230595Y-12006119D02*
X11240119Y-11987071D01*
X11240119Y-11987071D02*
X11249643Y-11977548D01*
X11249643Y-11977548D02*
X11268691Y-11968024D01*
X11516310Y-11968024D02*
X11421072Y-11968024D01*
X11421072Y-11968024D02*
X11411548Y-12063262D01*
X11411548Y-12063262D02*
X11421072Y-12053738D01*
X11421072Y-12053738D02*
X11440119Y-12044214D01*
X11440119Y-12044214D02*
X11487738Y-12044214D01*
X11487738Y-12044214D02*
X11506786Y-12053738D01*
X11506786Y-12053738D02*
X11516310Y-12063262D01*
X11516310Y-12063262D02*
X11525833Y-12082309D01*
X11525833Y-12082309D02*
X11525833Y-12129928D01*
X11525833Y-12129928D02*
X11516310Y-12148976D01*
X11516310Y-12148976D02*
X11506786Y-12158500D01*
X11506786Y-12158500D02*
X11487738Y-12168024D01*
X11487738Y-12168024D02*
X11440119Y-12168024D01*
X11440119Y-12168024D02*
X11421072Y-12158500D01*
X11421072Y-12158500D02*
X11411548Y-12148976D01*
X11697262Y-12034690D02*
X11697262Y-12168024D01*
X11649643Y-11958500D02*
X11602024Y-12101357D01*
X11602024Y-12101357D02*
X11725833Y-12101357D01*
X11782976Y-11968024D02*
X11916310Y-11968024D01*
X11916310Y-11968024D02*
X11830595Y-12168024D01*
X11982976Y-11968024D02*
X11982976Y-12006119D01*
X12059167Y-11968024D02*
X12059167Y-12006119D01*
X12354405Y-12244214D02*
X12344881Y-12234690D01*
X12344881Y-12234690D02*
X12325834Y-12206119D01*
X12325834Y-12206119D02*
X12316310Y-12187071D01*
X12316310Y-12187071D02*
X12306786Y-12158500D01*
X12306786Y-12158500D02*
X12297262Y-12110881D01*
X12297262Y-12110881D02*
X12297262Y-12072786D01*
X12297262Y-12072786D02*
X12306786Y-12025167D01*
X12306786Y-12025167D02*
X12316310Y-11996595D01*
X12316310Y-11996595D02*
X12325834Y-11977548D01*
X12325834Y-11977548D02*
X12344881Y-11948976D01*
X12344881Y-11948976D02*
X12354405Y-11939452D01*
X12535357Y-12168024D02*
X12421072Y-12168024D01*
X12478214Y-12168024D02*
X12478214Y-11968024D01*
X12478214Y-11968024D02*
X12459167Y-11996595D01*
X12459167Y-11996595D02*
X12440119Y-12015643D01*
X12440119Y-12015643D02*
X12421072Y-12025167D01*
X12611548Y-11987071D02*
X12621072Y-11977548D01*
X12621072Y-11977548D02*
X12640119Y-11968024D01*
X12640119Y-11968024D02*
X12687738Y-11968024D01*
X12687738Y-11968024D02*
X12706786Y-11977548D01*
X12706786Y-11977548D02*
X12716310Y-11987071D01*
X12716310Y-11987071D02*
X12725834Y-12006119D01*
X12725834Y-12006119D02*
X12725834Y-12025167D01*
X12725834Y-12025167D02*
X12716310Y-12053738D01*
X12716310Y-12053738D02*
X12602024Y-12168024D01*
X12602024Y-12168024D02*
X12725834Y-12168024D01*
X12963929Y-12168024D02*
X12963929Y-11968024D01*
X13049643Y-12168024D02*
X13049643Y-12063262D01*
X13049643Y-12063262D02*
X13040119Y-12044214D01*
X13040119Y-12044214D02*
X13021072Y-12034690D01*
X13021072Y-12034690D02*
X12992500Y-12034690D01*
X12992500Y-12034690D02*
X12973453Y-12044214D01*
X12973453Y-12044214D02*
X12963929Y-12053738D01*
X13173453Y-12168024D02*
X13154405Y-12158500D01*
X13154405Y-12158500D02*
X13144881Y-12148976D01*
X13144881Y-12148976D02*
X13135357Y-12129928D01*
X13135357Y-12129928D02*
X13135357Y-12072786D01*
X13135357Y-12072786D02*
X13144881Y-12053738D01*
X13144881Y-12053738D02*
X13154405Y-12044214D01*
X13154405Y-12044214D02*
X13173453Y-12034690D01*
X13173453Y-12034690D02*
X13202024Y-12034690D01*
X13202024Y-12034690D02*
X13221072Y-12044214D01*
X13221072Y-12044214D02*
X13230596Y-12053738D01*
X13230596Y-12053738D02*
X13240119Y-12072786D01*
X13240119Y-12072786D02*
X13240119Y-12129928D01*
X13240119Y-12129928D02*
X13230596Y-12148976D01*
X13230596Y-12148976D02*
X13221072Y-12158500D01*
X13221072Y-12158500D02*
X13202024Y-12168024D01*
X13202024Y-12168024D02*
X13173453Y-12168024D01*
X13354405Y-12168024D02*
X13335357Y-12158500D01*
X13335357Y-12158500D02*
X13325834Y-12139452D01*
X13325834Y-12139452D02*
X13325834Y-11968024D01*
X13506786Y-12158500D02*
X13487738Y-12168024D01*
X13487738Y-12168024D02*
X13449643Y-12168024D01*
X13449643Y-12168024D02*
X13430596Y-12158500D01*
X13430596Y-12158500D02*
X13421072Y-12139452D01*
X13421072Y-12139452D02*
X13421072Y-12063262D01*
X13421072Y-12063262D02*
X13430596Y-12044214D01*
X13430596Y-12044214D02*
X13449643Y-12034690D01*
X13449643Y-12034690D02*
X13487738Y-12034690D01*
X13487738Y-12034690D02*
X13506786Y-12044214D01*
X13506786Y-12044214D02*
X13516310Y-12063262D01*
X13516310Y-12063262D02*
X13516310Y-12082309D01*
X13516310Y-12082309D02*
X13421072Y-12101357D01*
X13592500Y-12158500D02*
X13611548Y-12168024D01*
X13611548Y-12168024D02*
X13649643Y-12168024D01*
X13649643Y-12168024D02*
X13668691Y-12158500D01*
X13668691Y-12158500D02*
X13678215Y-12139452D01*
X13678215Y-12139452D02*
X13678215Y-12129928D01*
X13678215Y-12129928D02*
X13668691Y-12110881D01*
X13668691Y-12110881D02*
X13649643Y-12101357D01*
X13649643Y-12101357D02*
X13621072Y-12101357D01*
X13621072Y-12101357D02*
X13602024Y-12091833D01*
X13602024Y-12091833D02*
X13592500Y-12072786D01*
X13592500Y-12072786D02*
X13592500Y-12063262D01*
X13592500Y-12063262D02*
X13602024Y-12044214D01*
X13602024Y-12044214D02*
X13621072Y-12034690D01*
X13621072Y-12034690D02*
X13649643Y-12034690D01*
X13649643Y-12034690D02*
X13668691Y-12044214D01*
X13744881Y-12244214D02*
X13754405Y-12234690D01*
X13754405Y-12234690D02*
X13773453Y-12206119D01*
X13773453Y-12206119D02*
X13782977Y-12187071D01*
X13782977Y-12187071D02*
X13792500Y-12158500D01*
X13792500Y-12158500D02*
X13802024Y-12110881D01*
X13802024Y-12110881D02*
X13802024Y-12072786D01*
X13802024Y-12072786D02*
X13792500Y-12025167D01*
X13792500Y-12025167D02*
X13782977Y-11996595D01*
X13782977Y-11996595D02*
X13773453Y-11977548D01*
X13773453Y-11977548D02*
X13754405Y-11948976D01*
X13754405Y-11948976D02*
X13744881Y-11939452D01*
D15*
X8766433Y-12402433D02*
X8766433Y-12276567D01*
X8640567Y-12276567D01*
X8640567Y-12402433D01*
X8766433Y-12402433D01*
D11*
X9144881Y-12432024D02*
X9030595Y-12432024D01*
X9087738Y-12432024D02*
X9087738Y-12232024D01*
X9087738Y-12232024D02*
X9068690Y-12260595D01*
X9068690Y-12260595D02*
X9049643Y-12279643D01*
X9049643Y-12279643D02*
X9030595Y-12289167D01*
X9230595Y-12412976D02*
X9240119Y-12422500D01*
X9240119Y-12422500D02*
X9230595Y-12432024D01*
X9230595Y-12432024D02*
X9221071Y-12422500D01*
X9221071Y-12422500D02*
X9230595Y-12412976D01*
X9230595Y-12412976D02*
X9230595Y-12432024D01*
X9306786Y-12232024D02*
X9440119Y-12232024D01*
X9440119Y-12232024D02*
X9354405Y-12432024D01*
X9544881Y-12317738D02*
X9525833Y-12308214D01*
X9525833Y-12308214D02*
X9516310Y-12298690D01*
X9516310Y-12298690D02*
X9506786Y-12279643D01*
X9506786Y-12279643D02*
X9506786Y-12270119D01*
X9506786Y-12270119D02*
X9516310Y-12251071D01*
X9516310Y-12251071D02*
X9525833Y-12241548D01*
X9525833Y-12241548D02*
X9544881Y-12232024D01*
X9544881Y-12232024D02*
X9582976Y-12232024D01*
X9582976Y-12232024D02*
X9602024Y-12241548D01*
X9602024Y-12241548D02*
X9611548Y-12251071D01*
X9611548Y-12251071D02*
X9621071Y-12270119D01*
X9621071Y-12270119D02*
X9621071Y-12279643D01*
X9621071Y-12279643D02*
X9611548Y-12298690D01*
X9611548Y-12298690D02*
X9602024Y-12308214D01*
X9602024Y-12308214D02*
X9582976Y-12317738D01*
X9582976Y-12317738D02*
X9544881Y-12317738D01*
X9544881Y-12317738D02*
X9525833Y-12327262D01*
X9525833Y-12327262D02*
X9516310Y-12336786D01*
X9516310Y-12336786D02*
X9506786Y-12355833D01*
X9506786Y-12355833D02*
X9506786Y-12393928D01*
X9506786Y-12393928D02*
X9516310Y-12412976D01*
X9516310Y-12412976D02*
X9525833Y-12422500D01*
X9525833Y-12422500D02*
X9544881Y-12432024D01*
X9544881Y-12432024D02*
X9582976Y-12432024D01*
X9582976Y-12432024D02*
X9602024Y-12422500D01*
X9602024Y-12422500D02*
X9611548Y-12412976D01*
X9611548Y-12412976D02*
X9621071Y-12393928D01*
X9621071Y-12393928D02*
X9621071Y-12355833D01*
X9621071Y-12355833D02*
X9611548Y-12336786D01*
X9611548Y-12336786D02*
X9602024Y-12327262D01*
X9602024Y-12327262D02*
X9582976Y-12317738D01*
X9744881Y-12232024D02*
X9763929Y-12232024D01*
X9763929Y-12232024D02*
X9782976Y-12241548D01*
X9782976Y-12241548D02*
X9792500Y-12251071D01*
X9792500Y-12251071D02*
X9802024Y-12270119D01*
X9802024Y-12270119D02*
X9811548Y-12308214D01*
X9811548Y-12308214D02*
X9811548Y-12355833D01*
X9811548Y-12355833D02*
X9802024Y-12393928D01*
X9802024Y-12393928D02*
X9792500Y-12412976D01*
X9792500Y-12412976D02*
X9782976Y-12422500D01*
X9782976Y-12422500D02*
X9763929Y-12432024D01*
X9763929Y-12432024D02*
X9744881Y-12432024D01*
X9744881Y-12432024D02*
X9725833Y-12422500D01*
X9725833Y-12422500D02*
X9716310Y-12412976D01*
X9716310Y-12412976D02*
X9706786Y-12393928D01*
X9706786Y-12393928D02*
X9697262Y-12355833D01*
X9697262Y-12355833D02*
X9697262Y-12308214D01*
X9697262Y-12308214D02*
X9706786Y-12270119D01*
X9706786Y-12270119D02*
X9716310Y-12251071D01*
X9716310Y-12251071D02*
X9725833Y-12241548D01*
X9725833Y-12241548D02*
X9744881Y-12232024D01*
X9897262Y-12432024D02*
X9897262Y-12298690D01*
X9897262Y-12317738D02*
X9906786Y-12308214D01*
X9906786Y-12308214D02*
X9925833Y-12298690D01*
X9925833Y-12298690D02*
X9954405Y-12298690D01*
X9954405Y-12298690D02*
X9973452Y-12308214D01*
X9973452Y-12308214D02*
X9982976Y-12327262D01*
X9982976Y-12327262D02*
X9982976Y-12432024D01*
X9982976Y-12327262D02*
X9992500Y-12308214D01*
X9992500Y-12308214D02*
X10011548Y-12298690D01*
X10011548Y-12298690D02*
X10040119Y-12298690D01*
X10040119Y-12298690D02*
X10059167Y-12308214D01*
X10059167Y-12308214D02*
X10068691Y-12327262D01*
X10068691Y-12327262D02*
X10068691Y-12432024D01*
X10163929Y-12432024D02*
X10163929Y-12298690D01*
X10163929Y-12317738D02*
X10173452Y-12308214D01*
X10173452Y-12308214D02*
X10192500Y-12298690D01*
X10192500Y-12298690D02*
X10221072Y-12298690D01*
X10221072Y-12298690D02*
X10240119Y-12308214D01*
X10240119Y-12308214D02*
X10249643Y-12327262D01*
X10249643Y-12327262D02*
X10249643Y-12432024D01*
X10249643Y-12327262D02*
X10259167Y-12308214D01*
X10259167Y-12308214D02*
X10278214Y-12298690D01*
X10278214Y-12298690D02*
X10306786Y-12298690D01*
X10306786Y-12298690D02*
X10325833Y-12308214D01*
X10325833Y-12308214D02*
X10335357Y-12327262D01*
X10335357Y-12327262D02*
X10335357Y-12432024D01*
X10725833Y-12222500D02*
X10554405Y-12479643D01*
X10982976Y-12232024D02*
X11002024Y-12232024D01*
X11002024Y-12232024D02*
X11021072Y-12241548D01*
X11021072Y-12241548D02*
X11030595Y-12251071D01*
X11030595Y-12251071D02*
X11040119Y-12270119D01*
X11040119Y-12270119D02*
X11049643Y-12308214D01*
X11049643Y-12308214D02*
X11049643Y-12355833D01*
X11049643Y-12355833D02*
X11040119Y-12393928D01*
X11040119Y-12393928D02*
X11030595Y-12412976D01*
X11030595Y-12412976D02*
X11021072Y-12422500D01*
X11021072Y-12422500D02*
X11002024Y-12432024D01*
X11002024Y-12432024D02*
X10982976Y-12432024D01*
X10982976Y-12432024D02*
X10963929Y-12422500D01*
X10963929Y-12422500D02*
X10954405Y-12412976D01*
X10954405Y-12412976D02*
X10944881Y-12393928D01*
X10944881Y-12393928D02*
X10935357Y-12355833D01*
X10935357Y-12355833D02*
X10935357Y-12308214D01*
X10935357Y-12308214D02*
X10944881Y-12270119D01*
X10944881Y-12270119D02*
X10954405Y-12251071D01*
X10954405Y-12251071D02*
X10963929Y-12241548D01*
X10963929Y-12241548D02*
X10982976Y-12232024D01*
X11135357Y-12412976D02*
X11144881Y-12422500D01*
X11144881Y-12422500D02*
X11135357Y-12432024D01*
X11135357Y-12432024D02*
X11125834Y-12422500D01*
X11125834Y-12422500D02*
X11135357Y-12412976D01*
X11135357Y-12412976D02*
X11135357Y-12432024D01*
X11268691Y-12232024D02*
X11287738Y-12232024D01*
X11287738Y-12232024D02*
X11306786Y-12241548D01*
X11306786Y-12241548D02*
X11316310Y-12251071D01*
X11316310Y-12251071D02*
X11325833Y-12270119D01*
X11325833Y-12270119D02*
X11335357Y-12308214D01*
X11335357Y-12308214D02*
X11335357Y-12355833D01*
X11335357Y-12355833D02*
X11325833Y-12393928D01*
X11325833Y-12393928D02*
X11316310Y-12412976D01*
X11316310Y-12412976D02*
X11306786Y-12422500D01*
X11306786Y-12422500D02*
X11287738Y-12432024D01*
X11287738Y-12432024D02*
X11268691Y-12432024D01*
X11268691Y-12432024D02*
X11249643Y-12422500D01*
X11249643Y-12422500D02*
X11240119Y-12412976D01*
X11240119Y-12412976D02*
X11230595Y-12393928D01*
X11230595Y-12393928D02*
X11221072Y-12355833D01*
X11221072Y-12355833D02*
X11221072Y-12308214D01*
X11221072Y-12308214D02*
X11230595Y-12270119D01*
X11230595Y-12270119D02*
X11240119Y-12251071D01*
X11240119Y-12251071D02*
X11249643Y-12241548D01*
X11249643Y-12241548D02*
X11268691Y-12232024D01*
X11402024Y-12232024D02*
X11535357Y-12232024D01*
X11535357Y-12232024D02*
X11449643Y-12432024D01*
X11649643Y-12232024D02*
X11668691Y-12232024D01*
X11668691Y-12232024D02*
X11687738Y-12241548D01*
X11687738Y-12241548D02*
X11697262Y-12251071D01*
X11697262Y-12251071D02*
X11706786Y-12270119D01*
X11706786Y-12270119D02*
X11716310Y-12308214D01*
X11716310Y-12308214D02*
X11716310Y-12355833D01*
X11716310Y-12355833D02*
X11706786Y-12393928D01*
X11706786Y-12393928D02*
X11697262Y-12412976D01*
X11697262Y-12412976D02*
X11687738Y-12422500D01*
X11687738Y-12422500D02*
X11668691Y-12432024D01*
X11668691Y-12432024D02*
X11649643Y-12432024D01*
X11649643Y-12432024D02*
X11630595Y-12422500D01*
X11630595Y-12422500D02*
X11621072Y-12412976D01*
X11621072Y-12412976D02*
X11611548Y-12393928D01*
X11611548Y-12393928D02*
X11602024Y-12355833D01*
X11602024Y-12355833D02*
X11602024Y-12308214D01*
X11602024Y-12308214D02*
X11611548Y-12270119D01*
X11611548Y-12270119D02*
X11621072Y-12251071D01*
X11621072Y-12251071D02*
X11630595Y-12241548D01*
X11630595Y-12241548D02*
X11649643Y-12232024D01*
X11906786Y-12432024D02*
X11792500Y-12432024D01*
X11849643Y-12432024D02*
X11849643Y-12232024D01*
X11849643Y-12232024D02*
X11830595Y-12260595D01*
X11830595Y-12260595D02*
X11811548Y-12279643D01*
X11811548Y-12279643D02*
X11792500Y-12289167D01*
X11982976Y-12232024D02*
X11982976Y-12270119D01*
X12059167Y-12232024D02*
X12059167Y-12270119D01*
X12354405Y-12508214D02*
X12344881Y-12498690D01*
X12344881Y-12498690D02*
X12325834Y-12470119D01*
X12325834Y-12470119D02*
X12316310Y-12451071D01*
X12316310Y-12451071D02*
X12306786Y-12422500D01*
X12306786Y-12422500D02*
X12297262Y-12374881D01*
X12297262Y-12374881D02*
X12297262Y-12336786D01*
X12297262Y-12336786D02*
X12306786Y-12289167D01*
X12306786Y-12289167D02*
X12316310Y-12260595D01*
X12316310Y-12260595D02*
X12325834Y-12241548D01*
X12325834Y-12241548D02*
X12344881Y-12212976D01*
X12344881Y-12212976D02*
X12354405Y-12203452D01*
X12421072Y-12251071D02*
X12430595Y-12241548D01*
X12430595Y-12241548D02*
X12449643Y-12232024D01*
X12449643Y-12232024D02*
X12497262Y-12232024D01*
X12497262Y-12232024D02*
X12516310Y-12241548D01*
X12516310Y-12241548D02*
X12525834Y-12251071D01*
X12525834Y-12251071D02*
X12535357Y-12270119D01*
X12535357Y-12270119D02*
X12535357Y-12289167D01*
X12535357Y-12289167D02*
X12525834Y-12317738D01*
X12525834Y-12317738D02*
X12411548Y-12432024D01*
X12411548Y-12432024D02*
X12535357Y-12432024D01*
X12659167Y-12232024D02*
X12678215Y-12232024D01*
X12678215Y-12232024D02*
X12697262Y-12241548D01*
X12697262Y-12241548D02*
X12706786Y-12251071D01*
X12706786Y-12251071D02*
X12716310Y-12270119D01*
X12716310Y-12270119D02*
X12725834Y-12308214D01*
X12725834Y-12308214D02*
X12725834Y-12355833D01*
X12725834Y-12355833D02*
X12716310Y-12393928D01*
X12716310Y-12393928D02*
X12706786Y-12412976D01*
X12706786Y-12412976D02*
X12697262Y-12422500D01*
X12697262Y-12422500D02*
X12678215Y-12432024D01*
X12678215Y-12432024D02*
X12659167Y-12432024D01*
X12659167Y-12432024D02*
X12640119Y-12422500D01*
X12640119Y-12422500D02*
X12630595Y-12412976D01*
X12630595Y-12412976D02*
X12621072Y-12393928D01*
X12621072Y-12393928D02*
X12611548Y-12355833D01*
X12611548Y-12355833D02*
X12611548Y-12308214D01*
X12611548Y-12308214D02*
X12621072Y-12270119D01*
X12621072Y-12270119D02*
X12630595Y-12251071D01*
X12630595Y-12251071D02*
X12640119Y-12241548D01*
X12640119Y-12241548D02*
X12659167Y-12232024D01*
X12963929Y-12432024D02*
X12963929Y-12232024D01*
X13049643Y-12432024D02*
X13049643Y-12327262D01*
X13049643Y-12327262D02*
X13040119Y-12308214D01*
X13040119Y-12308214D02*
X13021072Y-12298690D01*
X13021072Y-12298690D02*
X12992500Y-12298690D01*
X12992500Y-12298690D02*
X12973453Y-12308214D01*
X12973453Y-12308214D02*
X12963929Y-12317738D01*
X13173453Y-12432024D02*
X13154405Y-12422500D01*
X13154405Y-12422500D02*
X13144881Y-12412976D01*
X13144881Y-12412976D02*
X13135357Y-12393928D01*
X13135357Y-12393928D02*
X13135357Y-12336786D01*
X13135357Y-12336786D02*
X13144881Y-12317738D01*
X13144881Y-12317738D02*
X13154405Y-12308214D01*
X13154405Y-12308214D02*
X13173453Y-12298690D01*
X13173453Y-12298690D02*
X13202024Y-12298690D01*
X13202024Y-12298690D02*
X13221072Y-12308214D01*
X13221072Y-12308214D02*
X13230596Y-12317738D01*
X13230596Y-12317738D02*
X13240119Y-12336786D01*
X13240119Y-12336786D02*
X13240119Y-12393928D01*
X13240119Y-12393928D02*
X13230596Y-12412976D01*
X13230596Y-12412976D02*
X13221072Y-12422500D01*
X13221072Y-12422500D02*
X13202024Y-12432024D01*
X13202024Y-12432024D02*
X13173453Y-12432024D01*
X13354405Y-12432024D02*
X13335357Y-12422500D01*
X13335357Y-12422500D02*
X13325834Y-12403452D01*
X13325834Y-12403452D02*
X13325834Y-12232024D01*
X13506786Y-12422500D02*
X13487738Y-12432024D01*
X13487738Y-12432024D02*
X13449643Y-12432024D01*
X13449643Y-12432024D02*
X13430596Y-12422500D01*
X13430596Y-12422500D02*
X13421072Y-12403452D01*
X13421072Y-12403452D02*
X13421072Y-12327262D01*
X13421072Y-12327262D02*
X13430596Y-12308214D01*
X13430596Y-12308214D02*
X13449643Y-12298690D01*
X13449643Y-12298690D02*
X13487738Y-12298690D01*
X13487738Y-12298690D02*
X13506786Y-12308214D01*
X13506786Y-12308214D02*
X13516310Y-12327262D01*
X13516310Y-12327262D02*
X13516310Y-12346309D01*
X13516310Y-12346309D02*
X13421072Y-12365357D01*
X13592500Y-12422500D02*
X13611548Y-12432024D01*
X13611548Y-12432024D02*
X13649643Y-12432024D01*
X13649643Y-12432024D02*
X13668691Y-12422500D01*
X13668691Y-12422500D02*
X13678215Y-12403452D01*
X13678215Y-12403452D02*
X13678215Y-12393928D01*
X13678215Y-12393928D02*
X13668691Y-12374881D01*
X13668691Y-12374881D02*
X13649643Y-12365357D01*
X13649643Y-12365357D02*
X13621072Y-12365357D01*
X13621072Y-12365357D02*
X13602024Y-12355833D01*
X13602024Y-12355833D02*
X13592500Y-12336786D01*
X13592500Y-12336786D02*
X13592500Y-12327262D01*
X13592500Y-12327262D02*
X13602024Y-12308214D01*
X13602024Y-12308214D02*
X13621072Y-12298690D01*
X13621072Y-12298690D02*
X13649643Y-12298690D01*
X13649643Y-12298690D02*
X13668691Y-12308214D01*
X13744881Y-12508214D02*
X13754405Y-12498690D01*
X13754405Y-12498690D02*
X13773453Y-12470119D01*
X13773453Y-12470119D02*
X13782977Y-12451071D01*
X13782977Y-12451071D02*
X13792500Y-12422500D01*
X13792500Y-12422500D02*
X13802024Y-12374881D01*
X13802024Y-12374881D02*
X13802024Y-12336786D01*
X13802024Y-12336786D02*
X13792500Y-12289167D01*
X13792500Y-12289167D02*
X13782977Y-12260595D01*
X13782977Y-12260595D02*
X13773453Y-12241548D01*
X13773453Y-12241548D02*
X13754405Y-12212976D01*
X13754405Y-12212976D02*
X13744881Y-12203452D01*
M02*
