M48
; DRILL file {KiCad 8.0.0} date 2024-11-27T00:01:30-0600
; FORMAT={-:-/ absolute / metric / decimal}
; #@! TF.CreationDate,2024-11-27T00:01:30-06:00
; #@! TF.GenerationSoftware,Kicad,Pcbnew,8.0.0
; #@! TF.FileFunction,Plated,1,4,PTH
FMAT,2
METRIC
; #@! TA.AperFunction,Plated,PTH,ViaDrill
T1C0.400
; #@! TA.AperFunction,Plated,PTH,ComponentDrill
T2C0.850
; #@! TA.AperFunction,Plated,PTH,ComponentDrill
T3C1.000
; #@! TA.AperFunction,Plated,PTH,ComponentDrill
T4C1.020
; #@! TA.AperFunction,Plated,PTH,ComponentDrill
T5C1.780
%
G90
G05
T1
X102.0Y-76.0
X102.0Y-80.0
X102.0Y-88.0
X102.0Y-96.0
X103.0Y-57.0
X103.0Y-61.0
X103.0Y-65.0
X103.0Y-69.0
X106.0Y-76.0
X106.0Y-80.0
X106.0Y-88.0
X106.0Y-96.0
X107.0Y-53.0
X107.0Y-57.0
X107.0Y-65.0
X107.0Y-69.0
X107.2Y-60.0
X107.2Y-62.3
X108.0Y-100.0
X108.0Y-103.0
X108.3Y-73.5
X110.0Y-76.0
X110.0Y-80.0
X110.0Y-88.0
X110.0Y-96.0
X111.0Y-53.0
X111.0Y-57.0
X111.0Y-61.0
X111.0Y-65.0
X111.4Y-69.8
X111.4Y-72.0
X111.6Y-99.8
X113.5Y-104.0
X113.895Y-101.205
X114.0Y-88.0
X114.0Y-96.0
X114.413Y-72.948
X115.0Y-65.0
X115.0Y-69.0
X116.0Y-78.5
X116.0Y-80.25
X117.0Y-90.0
X117.75Y-75.25
X117.75Y-80.25
X118.0Y-88.0
X118.0Y-96.0
X119.0Y-65.0
X119.0Y-69.0
X119.5Y-75.25
X119.5Y-77.0
X120.7Y-93.3
X121.3Y-82.3
X121.6Y-74.7
X121.6Y-76.7
X121.6Y-78.7
X122.311Y-82.289
X122.979Y-80.75
X123.0Y-65.0
X123.0Y-69.0
X123.45Y-76.45
X124.25Y-78.8
X125.2Y-86.1
X125.55Y-74.75
X126.6Y-93.3
X127.0Y-65.0
X127.0Y-69.0
X127.05Y-76.75
X127.05Y-78.75
X127.05Y-80.75
X127.1Y-86.1
X128.8Y-93.3
X128.9Y-88.5
X129.3Y-75.5
X129.3Y-77.9
X129.3Y-80.1
X131.0Y-53.0
X131.0Y-57.0
X131.0Y-61.0
X131.0Y-65.0
X131.0Y-69.0
X131.0Y-88.5
X131.0Y-93.3
X131.0Y-95.112
X132.4Y-75.5
X132.4Y-77.9
X132.4Y-80.1
X133.1Y-88.5
X133.15Y-97.0
X133.2Y-93.3
X133.55Y-103.1
X135.0Y-57.0
X135.0Y-61.0
X135.0Y-65.0
X135.0Y-69.0
X135.1Y-71.4
X135.1Y-77.2
X136.2Y-71.4
X136.2Y-77.2
X136.297Y-102.275
X137.3Y-71.4
X137.3Y-77.2
X137.4Y-85.448
X137.7Y-82.15
X137.9Y-90.5
X138.1Y-93.9
X138.1Y-95.175
X138.1Y-97.0
X138.3Y-105.4
X139.0Y-53.0
X139.0Y-69.0
X140.2Y-105.4
X140.4Y-97.0
X140.6Y-90.5
X141.0Y-85.448
X141.2Y-71.4
X141.2Y-77.2
X142.0Y-50.9
X142.3Y-71.4
X142.3Y-77.2
X143.0Y-57.0
X143.0Y-61.0
X143.4Y-71.4
X143.4Y-77.2
X143.8Y-83.2
X144.9Y-96.75
X145.2Y-93.3
X145.3Y-88.5
X146.1Y-73.2
X146.2Y-75.3
X146.2Y-77.7
X146.2Y-79.9
X146.35Y-99.95
X147.4Y-88.5
X147.4Y-93.3
X147.9Y-98.7
X148.0Y-53.0
X148.0Y-57.0
X148.0Y-61.0
X149.0Y-103.05
X149.3Y-75.3
X149.3Y-77.7
X149.3Y-79.9
X149.5Y-88.5
X149.6Y-93.3
X151.4Y-74.7
X151.4Y-76.7
X151.4Y-78.7
X151.4Y-86.1
X151.8Y-93.3
X152.0Y-65.0
X152.0Y-69.0
X152.95Y-80.7
X153.0Y-103.1
X153.25Y-86.1
X154.15Y-78.75
X155.05Y-76.4
X155.4Y-74.7
X156.0Y-53.0
X156.0Y-57.0
X156.0Y-61.0
X156.0Y-65.0
X156.0Y-69.0
X156.75Y-82.167
X156.9Y-76.7
X156.9Y-78.7
X156.9Y-80.7
X157.7Y-82.15
X157.8Y-93.2
X158.5Y-98.2
X159.0Y-75.25
X159.0Y-77.0
X160.0Y-65.0
X160.0Y-69.0
X160.0Y-88.0
X160.0Y-96.0
X160.75Y-75.25
X160.75Y-80.25
X161.4Y-85.5
X162.5Y-78.5
X162.5Y-80.25
X164.0Y-53.0
X164.0Y-57.0
X164.0Y-61.0
X164.0Y-65.0
X164.0Y-88.0
X164.0Y-96.0
X164.488Y-101.121
X164.9Y-104.0
X166.7Y-70.0
X166.7Y-72.1
X166.9Y-99.7
X168.0Y-53.0
X168.0Y-57.0
X168.0Y-61.0
X168.0Y-65.0
X168.0Y-76.0
X168.0Y-80.0
X168.0Y-88.0
X168.0Y-96.0
X170.0Y-100.0
X170.0Y-103.0
X170.1Y-73.3
X172.0Y-57.0
X172.0Y-61.0
X172.0Y-65.0
X172.0Y-69.0
X172.0Y-76.0
X172.0Y-80.0
X172.0Y-88.0
X172.0Y-96.0
X173.9Y-58.1
X174.8Y-57.9
X176.0Y-65.0
X176.0Y-80.0
X176.0Y-88.0
X176.0Y-96.0
T2
X139.0Y-56.5
X139.0Y-61.5
T3
X123.7Y-91.3
X123.7Y-93.84
X123.7Y-96.38
X136.62Y-100.0
X139.16Y-100.0
X141.7Y-100.0
X154.8Y-91.3
X154.8Y-93.84
X154.8Y-96.38
T4
X175.45Y-68.2
X175.45Y-71.2
T5
X106.82Y-83.81
X106.82Y-91.3
X110.0Y-83.81
X110.0Y-91.3
X117.5Y-55.32
X117.5Y-58.5
X124.99Y-55.32
X124.99Y-58.5
X153.21Y-55.3
X153.21Y-58.48
X160.7Y-55.3
X160.7Y-58.48
X168.52Y-83.8
X168.52Y-91.29
X171.7Y-83.8
X171.7Y-91.29
M30
