%TF.GenerationSoftware,KiCad,Pcbnew,7.0.2*%
%TF.CreationDate,2024-02-18T17:49:51-06:00*%
%TF.ProjectId,Power-Secondary,506f7765-722d-4536-9563-6f6e64617279,rev?*%
%TF.SameCoordinates,Original*%
%TF.FileFunction,Legend,Top*%
%TF.FilePolarity,Positive*%
%FSLAX46Y46*%
G04 Gerber Fmt 4.6, Leading zero omitted, Abs format (unit mm)*
G04 Created by KiCad (PCBNEW 7.0.2) date 2024-02-18 17:49:51*
%MOMM*%
%LPD*%
G01*
G04 APERTURE LIST*
G04 Aperture macros list*
%AMRoundRect*
0 Rectangle with rounded corners*
0 $1 Rounding radius*
0 $2 $3 $4 $5 $6 $7 $8 $9 X,Y pos of 4 corners*
0 Add a 4 corners polygon primitive as box body*
4,1,4,$2,$3,$4,$5,$6,$7,$8,$9,$2,$3,0*
0 Add four circle primitives for the rounded corners*
1,1,$1+$1,$2,$3*
1,1,$1+$1,$4,$5*
1,1,$1+$1,$6,$7*
1,1,$1+$1,$8,$9*
0 Add four rect primitives between the rounded corners*
20,1,$1+$1,$2,$3,$4,$5,0*
20,1,$1+$1,$4,$5,$6,$7,0*
20,1,$1+$1,$6,$7,$8,$9,0*
20,1,$1+$1,$8,$9,$2,$3,0*%
G04 Aperture macros list end*
%ADD10C,0.150000*%
%ADD11C,0.254000*%
%ADD12C,0.200000*%
%ADD13C,0.120000*%
%ADD14C,0.100000*%
%ADD15C,3.000000*%
%ADD16R,2.085000X2.085000*%
%ADD17C,2.085000*%
%ADD18R,3.430000X3.780000*%
%ADD19RoundRect,0.243750X-0.456250X0.243750X-0.456250X-0.243750X0.456250X-0.243750X0.456250X0.243750X0*%
%ADD20R,2.000000X2.000000*%
%ADD21C,1.270000*%
%ADD22RoundRect,0.250001X0.499999X0.759999X-0.499999X0.759999X-0.499999X-0.759999X0.499999X-0.759999X0*%
%ADD23O,1.500000X2.020000*%
%ADD24C,2.780000*%
%ADD25R,0.750000X0.400000*%
%ADD26RoundRect,0.200000X0.275000X-0.200000X0.275000X0.200000X-0.275000X0.200000X-0.275000X-0.200000X0*%
%ADD27R,1.100000X0.500000*%
%ADD28RoundRect,0.250000X0.450000X-0.262500X0.450000X0.262500X-0.450000X0.262500X-0.450000X-0.262500X0*%
%ADD29R,0.900000X0.600000*%
%ADD30RoundRect,0.250000X-0.250000X-0.475000X0.250000X-0.475000X0.250000X0.475000X-0.250000X0.475000X0*%
%ADD31RoundRect,0.250001X-0.499999X-0.759999X0.499999X-0.759999X0.499999X0.759999X-0.499999X0.759999X0*%
%ADD32RoundRect,0.200000X-0.200000X-0.275000X0.200000X-0.275000X0.200000X0.275000X-0.200000X0.275000X0*%
%ADD33R,2.850000X1.250000*%
%ADD34R,6.500000X5.550000*%
G04 APERTURE END LIST*
D10*
X166010666Y-92011904D02*
X166010666Y-91250000D01*
X108316476Y-48296000D02*
X108459333Y-48343619D01*
X108459333Y-48343619D02*
X108697428Y-48343619D01*
X108697428Y-48343619D02*
X108792666Y-48296000D01*
X108792666Y-48296000D02*
X108840285Y-48248380D01*
X108840285Y-48248380D02*
X108887904Y-48153142D01*
X108887904Y-48153142D02*
X108887904Y-48057904D01*
X108887904Y-48057904D02*
X108840285Y-47962666D01*
X108840285Y-47962666D02*
X108792666Y-47915047D01*
X108792666Y-47915047D02*
X108697428Y-47867428D01*
X108697428Y-47867428D02*
X108506952Y-47819809D01*
X108506952Y-47819809D02*
X108411714Y-47772190D01*
X108411714Y-47772190D02*
X108364095Y-47724571D01*
X108364095Y-47724571D02*
X108316476Y-47629333D01*
X108316476Y-47629333D02*
X108316476Y-47534095D01*
X108316476Y-47534095D02*
X108364095Y-47438857D01*
X108364095Y-47438857D02*
X108411714Y-47391238D01*
X108411714Y-47391238D02*
X108506952Y-47343619D01*
X108506952Y-47343619D02*
X108745047Y-47343619D01*
X108745047Y-47343619D02*
X108887904Y-47391238D01*
X109316476Y-47343619D02*
X109316476Y-48153142D01*
X109316476Y-48153142D02*
X109364095Y-48248380D01*
X109364095Y-48248380D02*
X109411714Y-48296000D01*
X109411714Y-48296000D02*
X109506952Y-48343619D01*
X109506952Y-48343619D02*
X109697428Y-48343619D01*
X109697428Y-48343619D02*
X109792666Y-48296000D01*
X109792666Y-48296000D02*
X109840285Y-48248380D01*
X109840285Y-48248380D02*
X109887904Y-48153142D01*
X109887904Y-48153142D02*
X109887904Y-47343619D01*
X110364095Y-48343619D02*
X110364095Y-47343619D01*
X110364095Y-47343619D02*
X110745047Y-47343619D01*
X110745047Y-47343619D02*
X110840285Y-47391238D01*
X110840285Y-47391238D02*
X110887904Y-47438857D01*
X110887904Y-47438857D02*
X110935523Y-47534095D01*
X110935523Y-47534095D02*
X110935523Y-47676952D01*
X110935523Y-47676952D02*
X110887904Y-47772190D01*
X110887904Y-47772190D02*
X110840285Y-47819809D01*
X110840285Y-47819809D02*
X110745047Y-47867428D01*
X110745047Y-47867428D02*
X110364095Y-47867428D01*
X111364095Y-48343619D02*
X111364095Y-47343619D01*
X111364095Y-47343619D02*
X111745047Y-47343619D01*
X111745047Y-47343619D02*
X111840285Y-47391238D01*
X111840285Y-47391238D02*
X111887904Y-47438857D01*
X111887904Y-47438857D02*
X111935523Y-47534095D01*
X111935523Y-47534095D02*
X111935523Y-47676952D01*
X111935523Y-47676952D02*
X111887904Y-47772190D01*
X111887904Y-47772190D02*
X111840285Y-47819809D01*
X111840285Y-47819809D02*
X111745047Y-47867428D01*
X111745047Y-47867428D02*
X111364095Y-47867428D01*
X108792667Y-49963619D02*
X108792667Y-48963619D01*
X108792667Y-48963619D02*
X109173619Y-48963619D01*
X109173619Y-48963619D02*
X109268857Y-49011238D01*
X109268857Y-49011238D02*
X109316476Y-49058857D01*
X109316476Y-49058857D02*
X109364095Y-49154095D01*
X109364095Y-49154095D02*
X109364095Y-49296952D01*
X109364095Y-49296952D02*
X109316476Y-49392190D01*
X109316476Y-49392190D02*
X109268857Y-49439809D01*
X109268857Y-49439809D02*
X109173619Y-49487428D01*
X109173619Y-49487428D02*
X108792667Y-49487428D01*
X109697429Y-48963619D02*
X109935524Y-49963619D01*
X109935524Y-49963619D02*
X110126000Y-49249333D01*
X110126000Y-49249333D02*
X110316476Y-49963619D01*
X110316476Y-49963619D02*
X110554572Y-48963619D01*
X111506952Y-49963619D02*
X111173619Y-49487428D01*
X110935524Y-49963619D02*
X110935524Y-48963619D01*
X110935524Y-48963619D02*
X111316476Y-48963619D01*
X111316476Y-48963619D02*
X111411714Y-49011238D01*
X111411714Y-49011238D02*
X111459333Y-49058857D01*
X111459333Y-49058857D02*
X111506952Y-49154095D01*
X111506952Y-49154095D02*
X111506952Y-49296952D01*
X111506952Y-49296952D02*
X111459333Y-49392190D01*
X111459333Y-49392190D02*
X111411714Y-49439809D01*
X111411714Y-49439809D02*
X111316476Y-49487428D01*
X111316476Y-49487428D02*
X110935524Y-49487428D01*
X125556476Y-47089000D02*
X125699333Y-47136619D01*
X125699333Y-47136619D02*
X125937428Y-47136619D01*
X125937428Y-47136619D02*
X126032666Y-47089000D01*
X126032666Y-47089000D02*
X126080285Y-47041380D01*
X126080285Y-47041380D02*
X126127904Y-46946142D01*
X126127904Y-46946142D02*
X126127904Y-46850904D01*
X126127904Y-46850904D02*
X126080285Y-46755666D01*
X126080285Y-46755666D02*
X126032666Y-46708047D01*
X126032666Y-46708047D02*
X125937428Y-46660428D01*
X125937428Y-46660428D02*
X125746952Y-46612809D01*
X125746952Y-46612809D02*
X125651714Y-46565190D01*
X125651714Y-46565190D02*
X125604095Y-46517571D01*
X125604095Y-46517571D02*
X125556476Y-46422333D01*
X125556476Y-46422333D02*
X125556476Y-46327095D01*
X125556476Y-46327095D02*
X125604095Y-46231857D01*
X125604095Y-46231857D02*
X125651714Y-46184238D01*
X125651714Y-46184238D02*
X125746952Y-46136619D01*
X125746952Y-46136619D02*
X125985047Y-46136619D01*
X125985047Y-46136619D02*
X126127904Y-46184238D01*
X126556476Y-46136619D02*
X126556476Y-46946142D01*
X126556476Y-46946142D02*
X126604095Y-47041380D01*
X126604095Y-47041380D02*
X126651714Y-47089000D01*
X126651714Y-47089000D02*
X126746952Y-47136619D01*
X126746952Y-47136619D02*
X126937428Y-47136619D01*
X126937428Y-47136619D02*
X127032666Y-47089000D01*
X127032666Y-47089000D02*
X127080285Y-47041380D01*
X127080285Y-47041380D02*
X127127904Y-46946142D01*
X127127904Y-46946142D02*
X127127904Y-46136619D01*
X127604095Y-47136619D02*
X127604095Y-46136619D01*
X127604095Y-46136619D02*
X127985047Y-46136619D01*
X127985047Y-46136619D02*
X128080285Y-46184238D01*
X128080285Y-46184238D02*
X128127904Y-46231857D01*
X128127904Y-46231857D02*
X128175523Y-46327095D01*
X128175523Y-46327095D02*
X128175523Y-46469952D01*
X128175523Y-46469952D02*
X128127904Y-46565190D01*
X128127904Y-46565190D02*
X128080285Y-46612809D01*
X128080285Y-46612809D02*
X127985047Y-46660428D01*
X127985047Y-46660428D02*
X127604095Y-46660428D01*
X128604095Y-47136619D02*
X128604095Y-46136619D01*
X128604095Y-46136619D02*
X128985047Y-46136619D01*
X128985047Y-46136619D02*
X129080285Y-46184238D01*
X129080285Y-46184238D02*
X129127904Y-46231857D01*
X129127904Y-46231857D02*
X129175523Y-46327095D01*
X129175523Y-46327095D02*
X129175523Y-46469952D01*
X129175523Y-46469952D02*
X129127904Y-46565190D01*
X129127904Y-46565190D02*
X129080285Y-46612809D01*
X129080285Y-46612809D02*
X128985047Y-46660428D01*
X128985047Y-46660428D02*
X128604095Y-46660428D01*
X130366000Y-47136619D02*
X130366000Y-46136619D01*
X130366000Y-46136619D02*
X130699333Y-46850904D01*
X130699333Y-46850904D02*
X131032666Y-46136619D01*
X131032666Y-46136619D02*
X131032666Y-47136619D01*
X131699333Y-46136619D02*
X131889809Y-46136619D01*
X131889809Y-46136619D02*
X131985047Y-46184238D01*
X131985047Y-46184238D02*
X132080285Y-46279476D01*
X132080285Y-46279476D02*
X132127904Y-46469952D01*
X132127904Y-46469952D02*
X132127904Y-46803285D01*
X132127904Y-46803285D02*
X132080285Y-46993761D01*
X132080285Y-46993761D02*
X131985047Y-47089000D01*
X131985047Y-47089000D02*
X131889809Y-47136619D01*
X131889809Y-47136619D02*
X131699333Y-47136619D01*
X131699333Y-47136619D02*
X131604095Y-47089000D01*
X131604095Y-47089000D02*
X131508857Y-46993761D01*
X131508857Y-46993761D02*
X131461238Y-46803285D01*
X131461238Y-46803285D02*
X131461238Y-46469952D01*
X131461238Y-46469952D02*
X131508857Y-46279476D01*
X131508857Y-46279476D02*
X131604095Y-46184238D01*
X131604095Y-46184238D02*
X131699333Y-46136619D01*
X132556476Y-47136619D02*
X132556476Y-46136619D01*
X132556476Y-46136619D02*
X133127904Y-47136619D01*
X133127904Y-47136619D02*
X133127904Y-46136619D01*
X131011904Y-49253333D02*
X130250000Y-49253333D01*
X91568095Y-90984666D02*
X92330000Y-90984666D01*
X91949047Y-91365619D02*
X91949047Y-90603714D01*
X165736095Y-59996666D02*
X166498000Y-59996666D01*
X166117047Y-60377619D02*
X166117047Y-59615714D01*
X166010666Y-67881904D02*
X166010666Y-67120000D01*
X127238095Y-49246666D02*
X128000000Y-49246666D01*
X127619047Y-49627619D02*
X127619047Y-48865714D01*
X141384095Y-48343619D02*
X141384095Y-47343619D01*
X141384095Y-47343619D02*
X141622190Y-47343619D01*
X141622190Y-47343619D02*
X141765047Y-47391238D01*
X141765047Y-47391238D02*
X141860285Y-47486476D01*
X141860285Y-47486476D02*
X141907904Y-47581714D01*
X141907904Y-47581714D02*
X141955523Y-47772190D01*
X141955523Y-47772190D02*
X141955523Y-47915047D01*
X141955523Y-47915047D02*
X141907904Y-48105523D01*
X141907904Y-48105523D02*
X141860285Y-48200761D01*
X141860285Y-48200761D02*
X141765047Y-48296000D01*
X141765047Y-48296000D02*
X141622190Y-48343619D01*
X141622190Y-48343619D02*
X141384095Y-48343619D01*
X142955523Y-48248380D02*
X142907904Y-48296000D01*
X142907904Y-48296000D02*
X142765047Y-48343619D01*
X142765047Y-48343619D02*
X142669809Y-48343619D01*
X142669809Y-48343619D02*
X142526952Y-48296000D01*
X142526952Y-48296000D02*
X142431714Y-48200761D01*
X142431714Y-48200761D02*
X142384095Y-48105523D01*
X142384095Y-48105523D02*
X142336476Y-47915047D01*
X142336476Y-47915047D02*
X142336476Y-47772190D01*
X142336476Y-47772190D02*
X142384095Y-47581714D01*
X142384095Y-47581714D02*
X142431714Y-47486476D01*
X142431714Y-47486476D02*
X142526952Y-47391238D01*
X142526952Y-47391238D02*
X142669809Y-47343619D01*
X142669809Y-47343619D02*
X142765047Y-47343619D01*
X142765047Y-47343619D02*
X142907904Y-47391238D01*
X142907904Y-47391238D02*
X142955523Y-47438857D01*
X143384095Y-48343619D02*
X143384095Y-47343619D01*
X143384095Y-47343619D02*
X143622190Y-47343619D01*
X143622190Y-47343619D02*
X143765047Y-47391238D01*
X143765047Y-47391238D02*
X143860285Y-47486476D01*
X143860285Y-47486476D02*
X143907904Y-47581714D01*
X143907904Y-47581714D02*
X143955523Y-47772190D01*
X143955523Y-47772190D02*
X143955523Y-47915047D01*
X143955523Y-47915047D02*
X143907904Y-48105523D01*
X143907904Y-48105523D02*
X143860285Y-48200761D01*
X143860285Y-48200761D02*
X143765047Y-48296000D01*
X143765047Y-48296000D02*
X143622190Y-48343619D01*
X143622190Y-48343619D02*
X143384095Y-48343619D01*
X144955523Y-48248380D02*
X144907904Y-48296000D01*
X144907904Y-48296000D02*
X144765047Y-48343619D01*
X144765047Y-48343619D02*
X144669809Y-48343619D01*
X144669809Y-48343619D02*
X144526952Y-48296000D01*
X144526952Y-48296000D02*
X144431714Y-48200761D01*
X144431714Y-48200761D02*
X144384095Y-48105523D01*
X144384095Y-48105523D02*
X144336476Y-47915047D01*
X144336476Y-47915047D02*
X144336476Y-47772190D01*
X144336476Y-47772190D02*
X144384095Y-47581714D01*
X144384095Y-47581714D02*
X144431714Y-47486476D01*
X144431714Y-47486476D02*
X144526952Y-47391238D01*
X144526952Y-47391238D02*
X144669809Y-47343619D01*
X144669809Y-47343619D02*
X144765047Y-47343619D01*
X144765047Y-47343619D02*
X144907904Y-47391238D01*
X144907904Y-47391238D02*
X144955523Y-47438857D01*
X141812667Y-49963619D02*
X141812667Y-48963619D01*
X141812667Y-48963619D02*
X142193619Y-48963619D01*
X142193619Y-48963619D02*
X142288857Y-49011238D01*
X142288857Y-49011238D02*
X142336476Y-49058857D01*
X142336476Y-49058857D02*
X142384095Y-49154095D01*
X142384095Y-49154095D02*
X142384095Y-49296952D01*
X142384095Y-49296952D02*
X142336476Y-49392190D01*
X142336476Y-49392190D02*
X142288857Y-49439809D01*
X142288857Y-49439809D02*
X142193619Y-49487428D01*
X142193619Y-49487428D02*
X141812667Y-49487428D01*
X142717429Y-48963619D02*
X142955524Y-49963619D01*
X142955524Y-49963619D02*
X143146000Y-49249333D01*
X143146000Y-49249333D02*
X143336476Y-49963619D01*
X143336476Y-49963619D02*
X143574572Y-48963619D01*
X144526952Y-49963619D02*
X144193619Y-49487428D01*
X143955524Y-49963619D02*
X143955524Y-48963619D01*
X143955524Y-48963619D02*
X144336476Y-48963619D01*
X144336476Y-48963619D02*
X144431714Y-49011238D01*
X144431714Y-49011238D02*
X144479333Y-49058857D01*
X144479333Y-49058857D02*
X144526952Y-49154095D01*
X144526952Y-49154095D02*
X144526952Y-49296952D01*
X144526952Y-49296952D02*
X144479333Y-49392190D01*
X144479333Y-49392190D02*
X144431714Y-49439809D01*
X144431714Y-49439809D02*
X144336476Y-49487428D01*
X144336476Y-49487428D02*
X143955524Y-49487428D01*
X135538095Y-47357619D02*
X136204761Y-47357619D01*
X136204761Y-47357619D02*
X135538095Y-48357619D01*
X135538095Y-48357619D02*
X136204761Y-48357619D01*
X136585714Y-47833809D02*
X136919047Y-47833809D01*
X137061904Y-48357619D02*
X136585714Y-48357619D01*
X136585714Y-48357619D02*
X136585714Y-47357619D01*
X136585714Y-47357619D02*
X137061904Y-47357619D01*
X137490476Y-48357619D02*
X137490476Y-47357619D01*
X137490476Y-47357619D02*
X138061904Y-48357619D01*
X138061904Y-48357619D02*
X138061904Y-47357619D01*
X138538095Y-47833809D02*
X138871428Y-47833809D01*
X139014285Y-48357619D02*
X138538095Y-48357619D01*
X138538095Y-48357619D02*
X138538095Y-47357619D01*
X138538095Y-47357619D02*
X139014285Y-47357619D01*
X140014285Y-48357619D02*
X139680952Y-47881428D01*
X139442857Y-48357619D02*
X139442857Y-47357619D01*
X139442857Y-47357619D02*
X139823809Y-47357619D01*
X139823809Y-47357619D02*
X139919047Y-47405238D01*
X139919047Y-47405238D02*
X139966666Y-47452857D01*
X139966666Y-47452857D02*
X140014285Y-47548095D01*
X140014285Y-47548095D02*
X140014285Y-47690952D01*
X140014285Y-47690952D02*
X139966666Y-47786190D01*
X139966666Y-47786190D02*
X139919047Y-47833809D01*
X139919047Y-47833809D02*
X139823809Y-47881428D01*
X139823809Y-47881428D02*
X139442857Y-47881428D01*
X136799999Y-49025238D02*
X136704761Y-48977619D01*
X136704761Y-48977619D02*
X136561904Y-48977619D01*
X136561904Y-48977619D02*
X136419047Y-49025238D01*
X136419047Y-49025238D02*
X136323809Y-49120476D01*
X136323809Y-49120476D02*
X136276190Y-49215714D01*
X136276190Y-49215714D02*
X136228571Y-49406190D01*
X136228571Y-49406190D02*
X136228571Y-49549047D01*
X136228571Y-49549047D02*
X136276190Y-49739523D01*
X136276190Y-49739523D02*
X136323809Y-49834761D01*
X136323809Y-49834761D02*
X136419047Y-49930000D01*
X136419047Y-49930000D02*
X136561904Y-49977619D01*
X136561904Y-49977619D02*
X136657142Y-49977619D01*
X136657142Y-49977619D02*
X136799999Y-49930000D01*
X136799999Y-49930000D02*
X136847618Y-49882380D01*
X136847618Y-49882380D02*
X136847618Y-49549047D01*
X136847618Y-49549047D02*
X136657142Y-49549047D01*
X137228571Y-49691904D02*
X137704761Y-49691904D01*
X137133333Y-49977619D02*
X137466666Y-48977619D01*
X137466666Y-48977619D02*
X137799999Y-49977619D01*
X137990476Y-48977619D02*
X138561904Y-48977619D01*
X138276190Y-49977619D02*
X138276190Y-48977619D01*
X138895238Y-49453809D02*
X139228571Y-49453809D01*
X139371428Y-49977619D02*
X138895238Y-49977619D01*
X138895238Y-49977619D02*
X138895238Y-48977619D01*
X138895238Y-48977619D02*
X139371428Y-48977619D01*
X114634476Y-108080000D02*
X114777333Y-108127619D01*
X114777333Y-108127619D02*
X115015428Y-108127619D01*
X115015428Y-108127619D02*
X115110666Y-108080000D01*
X115110666Y-108080000D02*
X115158285Y-108032380D01*
X115158285Y-108032380D02*
X115205904Y-107937142D01*
X115205904Y-107937142D02*
X115205904Y-107841904D01*
X115205904Y-107841904D02*
X115158285Y-107746666D01*
X115158285Y-107746666D02*
X115110666Y-107699047D01*
X115110666Y-107699047D02*
X115015428Y-107651428D01*
X115015428Y-107651428D02*
X114824952Y-107603809D01*
X114824952Y-107603809D02*
X114729714Y-107556190D01*
X114729714Y-107556190D02*
X114682095Y-107508571D01*
X114682095Y-107508571D02*
X114634476Y-107413333D01*
X114634476Y-107413333D02*
X114634476Y-107318095D01*
X114634476Y-107318095D02*
X114682095Y-107222857D01*
X114682095Y-107222857D02*
X114729714Y-107175238D01*
X114729714Y-107175238D02*
X114824952Y-107127619D01*
X114824952Y-107127619D02*
X115063047Y-107127619D01*
X115063047Y-107127619D02*
X115205904Y-107175238D01*
X115634476Y-107127619D02*
X115634476Y-107937142D01*
X115634476Y-107937142D02*
X115682095Y-108032380D01*
X115682095Y-108032380D02*
X115729714Y-108080000D01*
X115729714Y-108080000D02*
X115824952Y-108127619D01*
X115824952Y-108127619D02*
X116015428Y-108127619D01*
X116015428Y-108127619D02*
X116110666Y-108080000D01*
X116110666Y-108080000D02*
X116158285Y-108032380D01*
X116158285Y-108032380D02*
X116205904Y-107937142D01*
X116205904Y-107937142D02*
X116205904Y-107127619D01*
X116682095Y-108127619D02*
X116682095Y-107127619D01*
X116682095Y-107127619D02*
X117063047Y-107127619D01*
X117063047Y-107127619D02*
X117158285Y-107175238D01*
X117158285Y-107175238D02*
X117205904Y-107222857D01*
X117205904Y-107222857D02*
X117253523Y-107318095D01*
X117253523Y-107318095D02*
X117253523Y-107460952D01*
X117253523Y-107460952D02*
X117205904Y-107556190D01*
X117205904Y-107556190D02*
X117158285Y-107603809D01*
X117158285Y-107603809D02*
X117063047Y-107651428D01*
X117063047Y-107651428D02*
X116682095Y-107651428D01*
X117682095Y-108127619D02*
X117682095Y-107127619D01*
X117682095Y-107127619D02*
X118063047Y-107127619D01*
X118063047Y-107127619D02*
X118158285Y-107175238D01*
X118158285Y-107175238D02*
X118205904Y-107222857D01*
X118205904Y-107222857D02*
X118253523Y-107318095D01*
X118253523Y-107318095D02*
X118253523Y-107460952D01*
X118253523Y-107460952D02*
X118205904Y-107556190D01*
X118205904Y-107556190D02*
X118158285Y-107603809D01*
X118158285Y-107603809D02*
X118063047Y-107651428D01*
X118063047Y-107651428D02*
X117682095Y-107651428D01*
X119634476Y-107127619D02*
X119824952Y-107127619D01*
X119824952Y-107127619D02*
X119920190Y-107175238D01*
X119920190Y-107175238D02*
X120015428Y-107270476D01*
X120015428Y-107270476D02*
X120063047Y-107460952D01*
X120063047Y-107460952D02*
X120063047Y-107794285D01*
X120063047Y-107794285D02*
X120015428Y-107984761D01*
X120015428Y-107984761D02*
X119920190Y-108080000D01*
X119920190Y-108080000D02*
X119824952Y-108127619D01*
X119824952Y-108127619D02*
X119634476Y-108127619D01*
X119634476Y-108127619D02*
X119539238Y-108080000D01*
X119539238Y-108080000D02*
X119444000Y-107984761D01*
X119444000Y-107984761D02*
X119396381Y-107794285D01*
X119396381Y-107794285D02*
X119396381Y-107460952D01*
X119396381Y-107460952D02*
X119444000Y-107270476D01*
X119444000Y-107270476D02*
X119539238Y-107175238D01*
X119539238Y-107175238D02*
X119634476Y-107127619D01*
X120491619Y-107127619D02*
X120491619Y-107937142D01*
X120491619Y-107937142D02*
X120539238Y-108032380D01*
X120539238Y-108032380D02*
X120586857Y-108080000D01*
X120586857Y-108080000D02*
X120682095Y-108127619D01*
X120682095Y-108127619D02*
X120872571Y-108127619D01*
X120872571Y-108127619D02*
X120967809Y-108080000D01*
X120967809Y-108080000D02*
X121015428Y-108032380D01*
X121015428Y-108032380D02*
X121063047Y-107937142D01*
X121063047Y-107937142D02*
X121063047Y-107127619D01*
X121396381Y-107127619D02*
X121967809Y-107127619D01*
X121682095Y-108127619D02*
X121682095Y-107127619D01*
X117011904Y-104753333D02*
X116250000Y-104753333D01*
X118338095Y-48357619D02*
X118338095Y-47357619D01*
X118338095Y-47357619D02*
X118576190Y-47357619D01*
X118576190Y-47357619D02*
X118719047Y-47405238D01*
X118719047Y-47405238D02*
X118814285Y-47500476D01*
X118814285Y-47500476D02*
X118861904Y-47595714D01*
X118861904Y-47595714D02*
X118909523Y-47786190D01*
X118909523Y-47786190D02*
X118909523Y-47929047D01*
X118909523Y-47929047D02*
X118861904Y-48119523D01*
X118861904Y-48119523D02*
X118814285Y-48214761D01*
X118814285Y-48214761D02*
X118719047Y-48310000D01*
X118719047Y-48310000D02*
X118576190Y-48357619D01*
X118576190Y-48357619D02*
X118338095Y-48357619D01*
X119909523Y-48262380D02*
X119861904Y-48310000D01*
X119861904Y-48310000D02*
X119719047Y-48357619D01*
X119719047Y-48357619D02*
X119623809Y-48357619D01*
X119623809Y-48357619D02*
X119480952Y-48310000D01*
X119480952Y-48310000D02*
X119385714Y-48214761D01*
X119385714Y-48214761D02*
X119338095Y-48119523D01*
X119338095Y-48119523D02*
X119290476Y-47929047D01*
X119290476Y-47929047D02*
X119290476Y-47786190D01*
X119290476Y-47786190D02*
X119338095Y-47595714D01*
X119338095Y-47595714D02*
X119385714Y-47500476D01*
X119385714Y-47500476D02*
X119480952Y-47405238D01*
X119480952Y-47405238D02*
X119623809Y-47357619D01*
X119623809Y-47357619D02*
X119719047Y-47357619D01*
X119719047Y-47357619D02*
X119861904Y-47405238D01*
X119861904Y-47405238D02*
X119909523Y-47452857D01*
X120338095Y-48357619D02*
X120338095Y-47357619D01*
X120338095Y-47357619D02*
X120576190Y-47357619D01*
X120576190Y-47357619D02*
X120719047Y-47405238D01*
X120719047Y-47405238D02*
X120814285Y-47500476D01*
X120814285Y-47500476D02*
X120861904Y-47595714D01*
X120861904Y-47595714D02*
X120909523Y-47786190D01*
X120909523Y-47786190D02*
X120909523Y-47929047D01*
X120909523Y-47929047D02*
X120861904Y-48119523D01*
X120861904Y-48119523D02*
X120814285Y-48214761D01*
X120814285Y-48214761D02*
X120719047Y-48310000D01*
X120719047Y-48310000D02*
X120576190Y-48357619D01*
X120576190Y-48357619D02*
X120338095Y-48357619D01*
X121909523Y-48262380D02*
X121861904Y-48310000D01*
X121861904Y-48310000D02*
X121719047Y-48357619D01*
X121719047Y-48357619D02*
X121623809Y-48357619D01*
X121623809Y-48357619D02*
X121480952Y-48310000D01*
X121480952Y-48310000D02*
X121385714Y-48214761D01*
X121385714Y-48214761D02*
X121338095Y-48119523D01*
X121338095Y-48119523D02*
X121290476Y-47929047D01*
X121290476Y-47929047D02*
X121290476Y-47786190D01*
X121290476Y-47786190D02*
X121338095Y-47595714D01*
X121338095Y-47595714D02*
X121385714Y-47500476D01*
X121385714Y-47500476D02*
X121480952Y-47405238D01*
X121480952Y-47405238D02*
X121623809Y-47357619D01*
X121623809Y-47357619D02*
X121719047Y-47357619D01*
X121719047Y-47357619D02*
X121861904Y-47405238D01*
X121861904Y-47405238D02*
X121909523Y-47452857D01*
X119099999Y-49025238D02*
X119004761Y-48977619D01*
X119004761Y-48977619D02*
X118861904Y-48977619D01*
X118861904Y-48977619D02*
X118719047Y-49025238D01*
X118719047Y-49025238D02*
X118623809Y-49120476D01*
X118623809Y-49120476D02*
X118576190Y-49215714D01*
X118576190Y-49215714D02*
X118528571Y-49406190D01*
X118528571Y-49406190D02*
X118528571Y-49549047D01*
X118528571Y-49549047D02*
X118576190Y-49739523D01*
X118576190Y-49739523D02*
X118623809Y-49834761D01*
X118623809Y-49834761D02*
X118719047Y-49930000D01*
X118719047Y-49930000D02*
X118861904Y-49977619D01*
X118861904Y-49977619D02*
X118957142Y-49977619D01*
X118957142Y-49977619D02*
X119099999Y-49930000D01*
X119099999Y-49930000D02*
X119147618Y-49882380D01*
X119147618Y-49882380D02*
X119147618Y-49549047D01*
X119147618Y-49549047D02*
X118957142Y-49549047D01*
X119528571Y-49691904D02*
X120004761Y-49691904D01*
X119433333Y-49977619D02*
X119766666Y-48977619D01*
X119766666Y-48977619D02*
X120099999Y-49977619D01*
X120290476Y-48977619D02*
X120861904Y-48977619D01*
X120576190Y-49977619D02*
X120576190Y-48977619D01*
X121195238Y-49453809D02*
X121528571Y-49453809D01*
X121671428Y-49977619D02*
X121195238Y-49977619D01*
X121195238Y-49977619D02*
X121195238Y-48977619D01*
X121195238Y-48977619D02*
X121671428Y-48977619D01*
X146738095Y-56257619D02*
X146738095Y-55257619D01*
X146738095Y-55257619D02*
X146976190Y-55257619D01*
X146976190Y-55257619D02*
X147119047Y-55305238D01*
X147119047Y-55305238D02*
X147214285Y-55400476D01*
X147214285Y-55400476D02*
X147261904Y-55495714D01*
X147261904Y-55495714D02*
X147309523Y-55686190D01*
X147309523Y-55686190D02*
X147309523Y-55829047D01*
X147309523Y-55829047D02*
X147261904Y-56019523D01*
X147261904Y-56019523D02*
X147214285Y-56114761D01*
X147214285Y-56114761D02*
X147119047Y-56210000D01*
X147119047Y-56210000D02*
X146976190Y-56257619D01*
X146976190Y-56257619D02*
X146738095Y-56257619D01*
X148309523Y-56162380D02*
X148261904Y-56210000D01*
X148261904Y-56210000D02*
X148119047Y-56257619D01*
X148119047Y-56257619D02*
X148023809Y-56257619D01*
X148023809Y-56257619D02*
X147880952Y-56210000D01*
X147880952Y-56210000D02*
X147785714Y-56114761D01*
X147785714Y-56114761D02*
X147738095Y-56019523D01*
X147738095Y-56019523D02*
X147690476Y-55829047D01*
X147690476Y-55829047D02*
X147690476Y-55686190D01*
X147690476Y-55686190D02*
X147738095Y-55495714D01*
X147738095Y-55495714D02*
X147785714Y-55400476D01*
X147785714Y-55400476D02*
X147880952Y-55305238D01*
X147880952Y-55305238D02*
X148023809Y-55257619D01*
X148023809Y-55257619D02*
X148119047Y-55257619D01*
X148119047Y-55257619D02*
X148261904Y-55305238D01*
X148261904Y-55305238D02*
X148309523Y-55352857D01*
X148738095Y-56257619D02*
X148738095Y-55257619D01*
X148738095Y-55257619D02*
X148976190Y-55257619D01*
X148976190Y-55257619D02*
X149119047Y-55305238D01*
X149119047Y-55305238D02*
X149214285Y-55400476D01*
X149214285Y-55400476D02*
X149261904Y-55495714D01*
X149261904Y-55495714D02*
X149309523Y-55686190D01*
X149309523Y-55686190D02*
X149309523Y-55829047D01*
X149309523Y-55829047D02*
X149261904Y-56019523D01*
X149261904Y-56019523D02*
X149214285Y-56114761D01*
X149214285Y-56114761D02*
X149119047Y-56210000D01*
X149119047Y-56210000D02*
X148976190Y-56257619D01*
X148976190Y-56257619D02*
X148738095Y-56257619D01*
X150309523Y-56162380D02*
X150261904Y-56210000D01*
X150261904Y-56210000D02*
X150119047Y-56257619D01*
X150119047Y-56257619D02*
X150023809Y-56257619D01*
X150023809Y-56257619D02*
X149880952Y-56210000D01*
X149880952Y-56210000D02*
X149785714Y-56114761D01*
X149785714Y-56114761D02*
X149738095Y-56019523D01*
X149738095Y-56019523D02*
X149690476Y-55829047D01*
X149690476Y-55829047D02*
X149690476Y-55686190D01*
X149690476Y-55686190D02*
X149738095Y-55495714D01*
X149738095Y-55495714D02*
X149785714Y-55400476D01*
X149785714Y-55400476D02*
X149880952Y-55305238D01*
X149880952Y-55305238D02*
X150023809Y-55257619D01*
X150023809Y-55257619D02*
X150119047Y-55257619D01*
X150119047Y-55257619D02*
X150261904Y-55305238D01*
X150261904Y-55305238D02*
X150309523Y-55352857D01*
X147166667Y-57877619D02*
X147166667Y-56877619D01*
X147166667Y-56877619D02*
X147547619Y-56877619D01*
X147547619Y-56877619D02*
X147642857Y-56925238D01*
X147642857Y-56925238D02*
X147690476Y-56972857D01*
X147690476Y-56972857D02*
X147738095Y-57068095D01*
X147738095Y-57068095D02*
X147738095Y-57210952D01*
X147738095Y-57210952D02*
X147690476Y-57306190D01*
X147690476Y-57306190D02*
X147642857Y-57353809D01*
X147642857Y-57353809D02*
X147547619Y-57401428D01*
X147547619Y-57401428D02*
X147166667Y-57401428D01*
X148071429Y-56877619D02*
X148309524Y-57877619D01*
X148309524Y-57877619D02*
X148500000Y-57163333D01*
X148500000Y-57163333D02*
X148690476Y-57877619D01*
X148690476Y-57877619D02*
X148928572Y-56877619D01*
X149880952Y-57877619D02*
X149547619Y-57401428D01*
X149309524Y-57877619D02*
X149309524Y-56877619D01*
X149309524Y-56877619D02*
X149690476Y-56877619D01*
X149690476Y-56877619D02*
X149785714Y-56925238D01*
X149785714Y-56925238D02*
X149833333Y-56972857D01*
X149833333Y-56972857D02*
X149880952Y-57068095D01*
X149880952Y-57068095D02*
X149880952Y-57210952D01*
X149880952Y-57210952D02*
X149833333Y-57306190D01*
X149833333Y-57306190D02*
X149785714Y-57353809D01*
X149785714Y-57353809D02*
X149690476Y-57401428D01*
X149690476Y-57401428D02*
X149309524Y-57401428D01*
X167922190Y-84693428D02*
X167922190Y-84360095D01*
X167398380Y-84360095D02*
X168398380Y-84360095D01*
X168398380Y-84360095D02*
X168398380Y-84836285D01*
X168398380Y-85217238D02*
X167588857Y-85217238D01*
X167588857Y-85217238D02*
X167493619Y-85264857D01*
X167493619Y-85264857D02*
X167446000Y-85312476D01*
X167446000Y-85312476D02*
X167398380Y-85407714D01*
X167398380Y-85407714D02*
X167398380Y-85598190D01*
X167398380Y-85598190D02*
X167446000Y-85693428D01*
X167446000Y-85693428D02*
X167493619Y-85741047D01*
X167493619Y-85741047D02*
X167588857Y-85788666D01*
X167588857Y-85788666D02*
X168398380Y-85788666D01*
X167446000Y-86217238D02*
X167398380Y-86360095D01*
X167398380Y-86360095D02*
X167398380Y-86598190D01*
X167398380Y-86598190D02*
X167446000Y-86693428D01*
X167446000Y-86693428D02*
X167493619Y-86741047D01*
X167493619Y-86741047D02*
X167588857Y-86788666D01*
X167588857Y-86788666D02*
X167684095Y-86788666D01*
X167684095Y-86788666D02*
X167779333Y-86741047D01*
X167779333Y-86741047D02*
X167826952Y-86693428D01*
X167826952Y-86693428D02*
X167874571Y-86598190D01*
X167874571Y-86598190D02*
X167922190Y-86407714D01*
X167922190Y-86407714D02*
X167969809Y-86312476D01*
X167969809Y-86312476D02*
X168017428Y-86264857D01*
X168017428Y-86264857D02*
X168112666Y-86217238D01*
X168112666Y-86217238D02*
X168207904Y-86217238D01*
X168207904Y-86217238D02*
X168303142Y-86264857D01*
X168303142Y-86264857D02*
X168350761Y-86312476D01*
X168350761Y-86312476D02*
X168398380Y-86407714D01*
X168398380Y-86407714D02*
X168398380Y-86645809D01*
X168398380Y-86645809D02*
X168350761Y-86788666D01*
X167922190Y-87217238D02*
X167922190Y-87550571D01*
X167398380Y-87693428D02*
X167398380Y-87217238D01*
X167398380Y-87217238D02*
X168398380Y-87217238D01*
X168398380Y-87217238D02*
X168398380Y-87693428D01*
X168398380Y-89074381D02*
X168398380Y-89264857D01*
X168398380Y-89264857D02*
X168350761Y-89360095D01*
X168350761Y-89360095D02*
X168255523Y-89455333D01*
X168255523Y-89455333D02*
X168065047Y-89502952D01*
X168065047Y-89502952D02*
X167731714Y-89502952D01*
X167731714Y-89502952D02*
X167541238Y-89455333D01*
X167541238Y-89455333D02*
X167446000Y-89360095D01*
X167446000Y-89360095D02*
X167398380Y-89264857D01*
X167398380Y-89264857D02*
X167398380Y-89074381D01*
X167398380Y-89074381D02*
X167446000Y-88979143D01*
X167446000Y-88979143D02*
X167541238Y-88883905D01*
X167541238Y-88883905D02*
X167731714Y-88836286D01*
X167731714Y-88836286D02*
X168065047Y-88836286D01*
X168065047Y-88836286D02*
X168255523Y-88883905D01*
X168255523Y-88883905D02*
X168350761Y-88979143D01*
X168350761Y-88979143D02*
X168398380Y-89074381D01*
X168398380Y-89931524D02*
X167588857Y-89931524D01*
X167588857Y-89931524D02*
X167493619Y-89979143D01*
X167493619Y-89979143D02*
X167446000Y-90026762D01*
X167446000Y-90026762D02*
X167398380Y-90122000D01*
X167398380Y-90122000D02*
X167398380Y-90312476D01*
X167398380Y-90312476D02*
X167446000Y-90407714D01*
X167446000Y-90407714D02*
X167493619Y-90455333D01*
X167493619Y-90455333D02*
X167588857Y-90502952D01*
X167588857Y-90502952D02*
X168398380Y-90502952D01*
X168398380Y-90836286D02*
X168398380Y-91407714D01*
X167398380Y-91122000D02*
X168398380Y-91122000D01*
X139511904Y-104753333D02*
X138750000Y-104753333D01*
X167398380Y-59784095D02*
X168398380Y-59784095D01*
X168398380Y-59784095D02*
X168398380Y-60022190D01*
X168398380Y-60022190D02*
X168350761Y-60165047D01*
X168350761Y-60165047D02*
X168255523Y-60260285D01*
X168255523Y-60260285D02*
X168160285Y-60307904D01*
X168160285Y-60307904D02*
X167969809Y-60355523D01*
X167969809Y-60355523D02*
X167826952Y-60355523D01*
X167826952Y-60355523D02*
X167636476Y-60307904D01*
X167636476Y-60307904D02*
X167541238Y-60260285D01*
X167541238Y-60260285D02*
X167446000Y-60165047D01*
X167446000Y-60165047D02*
X167398380Y-60022190D01*
X167398380Y-60022190D02*
X167398380Y-59784095D01*
X167493619Y-61355523D02*
X167446000Y-61307904D01*
X167446000Y-61307904D02*
X167398380Y-61165047D01*
X167398380Y-61165047D02*
X167398380Y-61069809D01*
X167398380Y-61069809D02*
X167446000Y-60926952D01*
X167446000Y-60926952D02*
X167541238Y-60831714D01*
X167541238Y-60831714D02*
X167636476Y-60784095D01*
X167636476Y-60784095D02*
X167826952Y-60736476D01*
X167826952Y-60736476D02*
X167969809Y-60736476D01*
X167969809Y-60736476D02*
X168160285Y-60784095D01*
X168160285Y-60784095D02*
X168255523Y-60831714D01*
X168255523Y-60831714D02*
X168350761Y-60926952D01*
X168350761Y-60926952D02*
X168398380Y-61069809D01*
X168398380Y-61069809D02*
X168398380Y-61165047D01*
X168398380Y-61165047D02*
X168350761Y-61307904D01*
X168350761Y-61307904D02*
X168303142Y-61355523D01*
X167398380Y-61784095D02*
X168398380Y-61784095D01*
X168398380Y-61784095D02*
X168398380Y-62022190D01*
X168398380Y-62022190D02*
X168350761Y-62165047D01*
X168350761Y-62165047D02*
X168255523Y-62260285D01*
X168255523Y-62260285D02*
X168160285Y-62307904D01*
X168160285Y-62307904D02*
X167969809Y-62355523D01*
X167969809Y-62355523D02*
X167826952Y-62355523D01*
X167826952Y-62355523D02*
X167636476Y-62307904D01*
X167636476Y-62307904D02*
X167541238Y-62260285D01*
X167541238Y-62260285D02*
X167446000Y-62165047D01*
X167446000Y-62165047D02*
X167398380Y-62022190D01*
X167398380Y-62022190D02*
X167398380Y-61784095D01*
X167493619Y-63355523D02*
X167446000Y-63307904D01*
X167446000Y-63307904D02*
X167398380Y-63165047D01*
X167398380Y-63165047D02*
X167398380Y-63069809D01*
X167398380Y-63069809D02*
X167446000Y-62926952D01*
X167446000Y-62926952D02*
X167541238Y-62831714D01*
X167541238Y-62831714D02*
X167636476Y-62784095D01*
X167636476Y-62784095D02*
X167826952Y-62736476D01*
X167826952Y-62736476D02*
X167969809Y-62736476D01*
X167969809Y-62736476D02*
X168160285Y-62784095D01*
X168160285Y-62784095D02*
X168255523Y-62831714D01*
X168255523Y-62831714D02*
X168350761Y-62926952D01*
X168350761Y-62926952D02*
X168398380Y-63069809D01*
X168398380Y-63069809D02*
X168398380Y-63165047D01*
X168398380Y-63165047D02*
X168350761Y-63307904D01*
X168350761Y-63307904D02*
X168303142Y-63355523D01*
X167398380Y-64546000D02*
X168398380Y-64546000D01*
X168398380Y-64546000D02*
X168398380Y-64926952D01*
X168398380Y-64926952D02*
X168350761Y-65022190D01*
X168350761Y-65022190D02*
X168303142Y-65069809D01*
X168303142Y-65069809D02*
X168207904Y-65117428D01*
X168207904Y-65117428D02*
X168065047Y-65117428D01*
X168065047Y-65117428D02*
X167969809Y-65069809D01*
X167969809Y-65069809D02*
X167922190Y-65022190D01*
X167922190Y-65022190D02*
X167874571Y-64926952D01*
X167874571Y-64926952D02*
X167874571Y-64546000D01*
X168398380Y-65450762D02*
X167398380Y-65688857D01*
X167398380Y-65688857D02*
X168112666Y-65879333D01*
X168112666Y-65879333D02*
X167398380Y-66069809D01*
X167398380Y-66069809D02*
X168398380Y-66307905D01*
X167398380Y-67260285D02*
X167874571Y-66926952D01*
X167398380Y-66688857D02*
X168398380Y-66688857D01*
X168398380Y-66688857D02*
X168398380Y-67069809D01*
X168398380Y-67069809D02*
X168350761Y-67165047D01*
X168350761Y-67165047D02*
X168303142Y-67212666D01*
X168303142Y-67212666D02*
X168207904Y-67260285D01*
X168207904Y-67260285D02*
X168065047Y-67260285D01*
X168065047Y-67260285D02*
X167969809Y-67212666D01*
X167969809Y-67212666D02*
X167922190Y-67165047D01*
X167922190Y-67165047D02*
X167874571Y-67069809D01*
X167874571Y-67069809D02*
X167874571Y-66688857D01*
X92096666Y-84137904D02*
X92096666Y-83376000D01*
X165736095Y-84126666D02*
X166498000Y-84126666D01*
X166117047Y-84507619D02*
X166117047Y-83745714D01*
X91568095Y-67616666D02*
X92330000Y-67616666D01*
X91949047Y-67997619D02*
X91949047Y-67235714D01*
X119738095Y-104746666D02*
X120500000Y-104746666D01*
X120119047Y-105127619D02*
X120119047Y-104365714D01*
X108190476Y-56460000D02*
X108333333Y-56507619D01*
X108333333Y-56507619D02*
X108571428Y-56507619D01*
X108571428Y-56507619D02*
X108666666Y-56460000D01*
X108666666Y-56460000D02*
X108714285Y-56412380D01*
X108714285Y-56412380D02*
X108761904Y-56317142D01*
X108761904Y-56317142D02*
X108761904Y-56221904D01*
X108761904Y-56221904D02*
X108714285Y-56126666D01*
X108714285Y-56126666D02*
X108666666Y-56079047D01*
X108666666Y-56079047D02*
X108571428Y-56031428D01*
X108571428Y-56031428D02*
X108380952Y-55983809D01*
X108380952Y-55983809D02*
X108285714Y-55936190D01*
X108285714Y-55936190D02*
X108238095Y-55888571D01*
X108238095Y-55888571D02*
X108190476Y-55793333D01*
X108190476Y-55793333D02*
X108190476Y-55698095D01*
X108190476Y-55698095D02*
X108238095Y-55602857D01*
X108238095Y-55602857D02*
X108285714Y-55555238D01*
X108285714Y-55555238D02*
X108380952Y-55507619D01*
X108380952Y-55507619D02*
X108619047Y-55507619D01*
X108619047Y-55507619D02*
X108761904Y-55555238D01*
X109190476Y-55507619D02*
X109190476Y-56317142D01*
X109190476Y-56317142D02*
X109238095Y-56412380D01*
X109238095Y-56412380D02*
X109285714Y-56460000D01*
X109285714Y-56460000D02*
X109380952Y-56507619D01*
X109380952Y-56507619D02*
X109571428Y-56507619D01*
X109571428Y-56507619D02*
X109666666Y-56460000D01*
X109666666Y-56460000D02*
X109714285Y-56412380D01*
X109714285Y-56412380D02*
X109761904Y-56317142D01*
X109761904Y-56317142D02*
X109761904Y-55507619D01*
X110238095Y-56507619D02*
X110238095Y-55507619D01*
X110238095Y-55507619D02*
X110619047Y-55507619D01*
X110619047Y-55507619D02*
X110714285Y-55555238D01*
X110714285Y-55555238D02*
X110761904Y-55602857D01*
X110761904Y-55602857D02*
X110809523Y-55698095D01*
X110809523Y-55698095D02*
X110809523Y-55840952D01*
X110809523Y-55840952D02*
X110761904Y-55936190D01*
X110761904Y-55936190D02*
X110714285Y-55983809D01*
X110714285Y-55983809D02*
X110619047Y-56031428D01*
X110619047Y-56031428D02*
X110238095Y-56031428D01*
X111238095Y-56507619D02*
X111238095Y-55507619D01*
X111238095Y-55507619D02*
X111619047Y-55507619D01*
X111619047Y-55507619D02*
X111714285Y-55555238D01*
X111714285Y-55555238D02*
X111761904Y-55602857D01*
X111761904Y-55602857D02*
X111809523Y-55698095D01*
X111809523Y-55698095D02*
X111809523Y-55840952D01*
X111809523Y-55840952D02*
X111761904Y-55936190D01*
X111761904Y-55936190D02*
X111714285Y-55983809D01*
X111714285Y-55983809D02*
X111619047Y-56031428D01*
X111619047Y-56031428D02*
X111238095Y-56031428D01*
X108666667Y-58127619D02*
X108666667Y-57127619D01*
X108666667Y-57127619D02*
X109047619Y-57127619D01*
X109047619Y-57127619D02*
X109142857Y-57175238D01*
X109142857Y-57175238D02*
X109190476Y-57222857D01*
X109190476Y-57222857D02*
X109238095Y-57318095D01*
X109238095Y-57318095D02*
X109238095Y-57460952D01*
X109238095Y-57460952D02*
X109190476Y-57556190D01*
X109190476Y-57556190D02*
X109142857Y-57603809D01*
X109142857Y-57603809D02*
X109047619Y-57651428D01*
X109047619Y-57651428D02*
X108666667Y-57651428D01*
X109571429Y-57127619D02*
X109809524Y-58127619D01*
X109809524Y-58127619D02*
X110000000Y-57413333D01*
X110000000Y-57413333D02*
X110190476Y-58127619D01*
X110190476Y-58127619D02*
X110428572Y-57127619D01*
X111380952Y-58127619D02*
X111047619Y-57651428D01*
X110809524Y-58127619D02*
X110809524Y-57127619D01*
X110809524Y-57127619D02*
X111190476Y-57127619D01*
X111190476Y-57127619D02*
X111285714Y-57175238D01*
X111285714Y-57175238D02*
X111333333Y-57222857D01*
X111333333Y-57222857D02*
X111380952Y-57318095D01*
X111380952Y-57318095D02*
X111380952Y-57460952D01*
X111380952Y-57460952D02*
X111333333Y-57556190D01*
X111333333Y-57556190D02*
X111285714Y-57603809D01*
X111285714Y-57603809D02*
X111190476Y-57651428D01*
X111190476Y-57651428D02*
X110809524Y-57651428D01*
X113317476Y-48296000D02*
X113460333Y-48343619D01*
X113460333Y-48343619D02*
X113698428Y-48343619D01*
X113698428Y-48343619D02*
X113793666Y-48296000D01*
X113793666Y-48296000D02*
X113841285Y-48248380D01*
X113841285Y-48248380D02*
X113888904Y-48153142D01*
X113888904Y-48153142D02*
X113888904Y-48057904D01*
X113888904Y-48057904D02*
X113841285Y-47962666D01*
X113841285Y-47962666D02*
X113793666Y-47915047D01*
X113793666Y-47915047D02*
X113698428Y-47867428D01*
X113698428Y-47867428D02*
X113507952Y-47819809D01*
X113507952Y-47819809D02*
X113412714Y-47772190D01*
X113412714Y-47772190D02*
X113365095Y-47724571D01*
X113365095Y-47724571D02*
X113317476Y-47629333D01*
X113317476Y-47629333D02*
X113317476Y-47534095D01*
X113317476Y-47534095D02*
X113365095Y-47438857D01*
X113365095Y-47438857D02*
X113412714Y-47391238D01*
X113412714Y-47391238D02*
X113507952Y-47343619D01*
X113507952Y-47343619D02*
X113746047Y-47343619D01*
X113746047Y-47343619D02*
X113888904Y-47391238D01*
X114317476Y-47343619D02*
X114317476Y-48153142D01*
X114317476Y-48153142D02*
X114365095Y-48248380D01*
X114365095Y-48248380D02*
X114412714Y-48296000D01*
X114412714Y-48296000D02*
X114507952Y-48343619D01*
X114507952Y-48343619D02*
X114698428Y-48343619D01*
X114698428Y-48343619D02*
X114793666Y-48296000D01*
X114793666Y-48296000D02*
X114841285Y-48248380D01*
X114841285Y-48248380D02*
X114888904Y-48153142D01*
X114888904Y-48153142D02*
X114888904Y-47343619D01*
X115365095Y-48343619D02*
X115365095Y-47343619D01*
X115365095Y-47343619D02*
X115746047Y-47343619D01*
X115746047Y-47343619D02*
X115841285Y-47391238D01*
X115841285Y-47391238D02*
X115888904Y-47438857D01*
X115888904Y-47438857D02*
X115936523Y-47534095D01*
X115936523Y-47534095D02*
X115936523Y-47676952D01*
X115936523Y-47676952D02*
X115888904Y-47772190D01*
X115888904Y-47772190D02*
X115841285Y-47819809D01*
X115841285Y-47819809D02*
X115746047Y-47867428D01*
X115746047Y-47867428D02*
X115365095Y-47867428D01*
X116365095Y-48343619D02*
X116365095Y-47343619D01*
X116365095Y-47343619D02*
X116746047Y-47343619D01*
X116746047Y-47343619D02*
X116841285Y-47391238D01*
X116841285Y-47391238D02*
X116888904Y-47438857D01*
X116888904Y-47438857D02*
X116936523Y-47534095D01*
X116936523Y-47534095D02*
X116936523Y-47676952D01*
X116936523Y-47676952D02*
X116888904Y-47772190D01*
X116888904Y-47772190D02*
X116841285Y-47819809D01*
X116841285Y-47819809D02*
X116746047Y-47867428D01*
X116746047Y-47867428D02*
X116365095Y-47867428D01*
X114126999Y-49011238D02*
X114031761Y-48963619D01*
X114031761Y-48963619D02*
X113888904Y-48963619D01*
X113888904Y-48963619D02*
X113746047Y-49011238D01*
X113746047Y-49011238D02*
X113650809Y-49106476D01*
X113650809Y-49106476D02*
X113603190Y-49201714D01*
X113603190Y-49201714D02*
X113555571Y-49392190D01*
X113555571Y-49392190D02*
X113555571Y-49535047D01*
X113555571Y-49535047D02*
X113603190Y-49725523D01*
X113603190Y-49725523D02*
X113650809Y-49820761D01*
X113650809Y-49820761D02*
X113746047Y-49916000D01*
X113746047Y-49916000D02*
X113888904Y-49963619D01*
X113888904Y-49963619D02*
X113984142Y-49963619D01*
X113984142Y-49963619D02*
X114126999Y-49916000D01*
X114126999Y-49916000D02*
X114174618Y-49868380D01*
X114174618Y-49868380D02*
X114174618Y-49535047D01*
X114174618Y-49535047D02*
X113984142Y-49535047D01*
X114555571Y-49677904D02*
X115031761Y-49677904D01*
X114460333Y-49963619D02*
X114793666Y-48963619D01*
X114793666Y-48963619D02*
X115126999Y-49963619D01*
X115317476Y-48963619D02*
X115888904Y-48963619D01*
X115603190Y-49963619D02*
X115603190Y-48963619D01*
X116222238Y-49439809D02*
X116555571Y-49439809D01*
X116698428Y-49963619D02*
X116222238Y-49963619D01*
X116222238Y-49963619D02*
X116222238Y-48963619D01*
X116222238Y-48963619D02*
X116698428Y-48963619D01*
X141738095Y-104746666D02*
X142500000Y-104746666D01*
X142119047Y-105127619D02*
X142119047Y-104365714D01*
X90830000Y-92059523D02*
X90877619Y-91916666D01*
X90877619Y-91916666D02*
X90877619Y-91678571D01*
X90877619Y-91678571D02*
X90830000Y-91583333D01*
X90830000Y-91583333D02*
X90782380Y-91535714D01*
X90782380Y-91535714D02*
X90687142Y-91488095D01*
X90687142Y-91488095D02*
X90591904Y-91488095D01*
X90591904Y-91488095D02*
X90496666Y-91535714D01*
X90496666Y-91535714D02*
X90449047Y-91583333D01*
X90449047Y-91583333D02*
X90401428Y-91678571D01*
X90401428Y-91678571D02*
X90353809Y-91869047D01*
X90353809Y-91869047D02*
X90306190Y-91964285D01*
X90306190Y-91964285D02*
X90258571Y-92011904D01*
X90258571Y-92011904D02*
X90163333Y-92059523D01*
X90163333Y-92059523D02*
X90068095Y-92059523D01*
X90068095Y-92059523D02*
X89972857Y-92011904D01*
X89972857Y-92011904D02*
X89925238Y-91964285D01*
X89925238Y-91964285D02*
X89877619Y-91869047D01*
X89877619Y-91869047D02*
X89877619Y-91630952D01*
X89877619Y-91630952D02*
X89925238Y-91488095D01*
X89877619Y-91059523D02*
X90687142Y-91059523D01*
X90687142Y-91059523D02*
X90782380Y-91011904D01*
X90782380Y-91011904D02*
X90830000Y-90964285D01*
X90830000Y-90964285D02*
X90877619Y-90869047D01*
X90877619Y-90869047D02*
X90877619Y-90678571D01*
X90877619Y-90678571D02*
X90830000Y-90583333D01*
X90830000Y-90583333D02*
X90782380Y-90535714D01*
X90782380Y-90535714D02*
X90687142Y-90488095D01*
X90687142Y-90488095D02*
X89877619Y-90488095D01*
X90877619Y-90011904D02*
X89877619Y-90011904D01*
X89877619Y-90011904D02*
X89877619Y-89630952D01*
X89877619Y-89630952D02*
X89925238Y-89535714D01*
X89925238Y-89535714D02*
X89972857Y-89488095D01*
X89972857Y-89488095D02*
X90068095Y-89440476D01*
X90068095Y-89440476D02*
X90210952Y-89440476D01*
X90210952Y-89440476D02*
X90306190Y-89488095D01*
X90306190Y-89488095D02*
X90353809Y-89535714D01*
X90353809Y-89535714D02*
X90401428Y-89630952D01*
X90401428Y-89630952D02*
X90401428Y-90011904D01*
X90877619Y-89011904D02*
X89877619Y-89011904D01*
X89877619Y-89011904D02*
X89877619Y-88630952D01*
X89877619Y-88630952D02*
X89925238Y-88535714D01*
X89925238Y-88535714D02*
X89972857Y-88488095D01*
X89972857Y-88488095D02*
X90068095Y-88440476D01*
X90068095Y-88440476D02*
X90210952Y-88440476D01*
X90210952Y-88440476D02*
X90306190Y-88488095D01*
X90306190Y-88488095D02*
X90353809Y-88535714D01*
X90353809Y-88535714D02*
X90401428Y-88630952D01*
X90401428Y-88630952D02*
X90401428Y-89011904D01*
X90877619Y-87249999D02*
X89877619Y-87249999D01*
X89877619Y-87249999D02*
X89877619Y-86869047D01*
X89877619Y-86869047D02*
X89925238Y-86773809D01*
X89925238Y-86773809D02*
X89972857Y-86726190D01*
X89972857Y-86726190D02*
X90068095Y-86678571D01*
X90068095Y-86678571D02*
X90210952Y-86678571D01*
X90210952Y-86678571D02*
X90306190Y-86726190D01*
X90306190Y-86726190D02*
X90353809Y-86773809D01*
X90353809Y-86773809D02*
X90401428Y-86869047D01*
X90401428Y-86869047D02*
X90401428Y-87249999D01*
X89877619Y-86345237D02*
X90877619Y-86107142D01*
X90877619Y-86107142D02*
X90163333Y-85916666D01*
X90163333Y-85916666D02*
X90877619Y-85726190D01*
X90877619Y-85726190D02*
X89877619Y-85488095D01*
X90877619Y-84535714D02*
X90401428Y-84869047D01*
X90877619Y-85107142D02*
X89877619Y-85107142D01*
X89877619Y-85107142D02*
X89877619Y-84726190D01*
X89877619Y-84726190D02*
X89925238Y-84630952D01*
X89925238Y-84630952D02*
X89972857Y-84583333D01*
X89972857Y-84583333D02*
X90068095Y-84535714D01*
X90068095Y-84535714D02*
X90210952Y-84535714D01*
X90210952Y-84535714D02*
X90306190Y-84583333D01*
X90306190Y-84583333D02*
X90353809Y-84630952D01*
X90353809Y-84630952D02*
X90401428Y-84726190D01*
X90401428Y-84726190D02*
X90401428Y-85107142D01*
X89972857Y-83392856D02*
X89925238Y-83345237D01*
X89925238Y-83345237D02*
X89877619Y-83249999D01*
X89877619Y-83249999D02*
X89877619Y-83011904D01*
X89877619Y-83011904D02*
X89925238Y-82916666D01*
X89925238Y-82916666D02*
X89972857Y-82869047D01*
X89972857Y-82869047D02*
X90068095Y-82821428D01*
X90068095Y-82821428D02*
X90163333Y-82821428D01*
X90163333Y-82821428D02*
X90306190Y-82869047D01*
X90306190Y-82869047D02*
X90877619Y-83440475D01*
X90877619Y-83440475D02*
X90877619Y-82821428D01*
X137510285Y-108127619D02*
X137034095Y-108127619D01*
X137034095Y-108127619D02*
X137034095Y-107127619D01*
X137700762Y-107127619D02*
X138034095Y-108127619D01*
X138034095Y-108127619D02*
X138367428Y-107127619D01*
X139462667Y-107603809D02*
X139796000Y-107603809D01*
X139938857Y-108127619D02*
X139462667Y-108127619D01*
X139462667Y-108127619D02*
X139462667Y-107127619D01*
X139462667Y-107127619D02*
X139938857Y-107127619D01*
X140367429Y-108127619D02*
X140367429Y-107127619D01*
X140367429Y-107127619D02*
X140938857Y-108127619D01*
X140938857Y-108127619D02*
X140938857Y-107127619D01*
X141367429Y-107841904D02*
X141843619Y-107841904D01*
X141272191Y-108127619D02*
X141605524Y-107127619D01*
X141605524Y-107127619D02*
X141938857Y-108127619D01*
X142605524Y-107603809D02*
X142748381Y-107651428D01*
X142748381Y-107651428D02*
X142796000Y-107699047D01*
X142796000Y-107699047D02*
X142843619Y-107794285D01*
X142843619Y-107794285D02*
X142843619Y-107937142D01*
X142843619Y-107937142D02*
X142796000Y-108032380D01*
X142796000Y-108032380D02*
X142748381Y-108080000D01*
X142748381Y-108080000D02*
X142653143Y-108127619D01*
X142653143Y-108127619D02*
X142272191Y-108127619D01*
X142272191Y-108127619D02*
X142272191Y-107127619D01*
X142272191Y-107127619D02*
X142605524Y-107127619D01*
X142605524Y-107127619D02*
X142700762Y-107175238D01*
X142700762Y-107175238D02*
X142748381Y-107222857D01*
X142748381Y-107222857D02*
X142796000Y-107318095D01*
X142796000Y-107318095D02*
X142796000Y-107413333D01*
X142796000Y-107413333D02*
X142748381Y-107508571D01*
X142748381Y-107508571D02*
X142700762Y-107556190D01*
X142700762Y-107556190D02*
X142605524Y-107603809D01*
X142605524Y-107603809D02*
X142272191Y-107603809D01*
X143748381Y-108127619D02*
X143272191Y-108127619D01*
X143272191Y-108127619D02*
X143272191Y-107127619D01*
X144081715Y-107603809D02*
X144415048Y-107603809D01*
X144557905Y-108127619D02*
X144081715Y-108127619D01*
X144081715Y-108127619D02*
X144081715Y-107127619D01*
X144081715Y-107127619D02*
X144557905Y-107127619D01*
X92096666Y-60261904D02*
X92096666Y-59500000D01*
X90830000Y-68183523D02*
X90877619Y-68040666D01*
X90877619Y-68040666D02*
X90877619Y-67802571D01*
X90877619Y-67802571D02*
X90830000Y-67707333D01*
X90830000Y-67707333D02*
X90782380Y-67659714D01*
X90782380Y-67659714D02*
X90687142Y-67612095D01*
X90687142Y-67612095D02*
X90591904Y-67612095D01*
X90591904Y-67612095D02*
X90496666Y-67659714D01*
X90496666Y-67659714D02*
X90449047Y-67707333D01*
X90449047Y-67707333D02*
X90401428Y-67802571D01*
X90401428Y-67802571D02*
X90353809Y-67993047D01*
X90353809Y-67993047D02*
X90306190Y-68088285D01*
X90306190Y-68088285D02*
X90258571Y-68135904D01*
X90258571Y-68135904D02*
X90163333Y-68183523D01*
X90163333Y-68183523D02*
X90068095Y-68183523D01*
X90068095Y-68183523D02*
X89972857Y-68135904D01*
X89972857Y-68135904D02*
X89925238Y-68088285D01*
X89925238Y-68088285D02*
X89877619Y-67993047D01*
X89877619Y-67993047D02*
X89877619Y-67754952D01*
X89877619Y-67754952D02*
X89925238Y-67612095D01*
X89877619Y-67183523D02*
X90687142Y-67183523D01*
X90687142Y-67183523D02*
X90782380Y-67135904D01*
X90782380Y-67135904D02*
X90830000Y-67088285D01*
X90830000Y-67088285D02*
X90877619Y-66993047D01*
X90877619Y-66993047D02*
X90877619Y-66802571D01*
X90877619Y-66802571D02*
X90830000Y-66707333D01*
X90830000Y-66707333D02*
X90782380Y-66659714D01*
X90782380Y-66659714D02*
X90687142Y-66612095D01*
X90687142Y-66612095D02*
X89877619Y-66612095D01*
X90877619Y-66135904D02*
X89877619Y-66135904D01*
X89877619Y-66135904D02*
X89877619Y-65754952D01*
X89877619Y-65754952D02*
X89925238Y-65659714D01*
X89925238Y-65659714D02*
X89972857Y-65612095D01*
X89972857Y-65612095D02*
X90068095Y-65564476D01*
X90068095Y-65564476D02*
X90210952Y-65564476D01*
X90210952Y-65564476D02*
X90306190Y-65612095D01*
X90306190Y-65612095D02*
X90353809Y-65659714D01*
X90353809Y-65659714D02*
X90401428Y-65754952D01*
X90401428Y-65754952D02*
X90401428Y-66135904D01*
X90877619Y-65135904D02*
X89877619Y-65135904D01*
X89877619Y-65135904D02*
X89877619Y-64754952D01*
X89877619Y-64754952D02*
X89925238Y-64659714D01*
X89925238Y-64659714D02*
X89972857Y-64612095D01*
X89972857Y-64612095D02*
X90068095Y-64564476D01*
X90068095Y-64564476D02*
X90210952Y-64564476D01*
X90210952Y-64564476D02*
X90306190Y-64612095D01*
X90306190Y-64612095D02*
X90353809Y-64659714D01*
X90353809Y-64659714D02*
X90401428Y-64754952D01*
X90401428Y-64754952D02*
X90401428Y-65135904D01*
X90877619Y-63373999D02*
X89877619Y-63373999D01*
X89877619Y-63373999D02*
X89877619Y-62993047D01*
X89877619Y-62993047D02*
X89925238Y-62897809D01*
X89925238Y-62897809D02*
X89972857Y-62850190D01*
X89972857Y-62850190D02*
X90068095Y-62802571D01*
X90068095Y-62802571D02*
X90210952Y-62802571D01*
X90210952Y-62802571D02*
X90306190Y-62850190D01*
X90306190Y-62850190D02*
X90353809Y-62897809D01*
X90353809Y-62897809D02*
X90401428Y-62993047D01*
X90401428Y-62993047D02*
X90401428Y-63373999D01*
X89877619Y-62469237D02*
X90877619Y-62231142D01*
X90877619Y-62231142D02*
X90163333Y-62040666D01*
X90163333Y-62040666D02*
X90877619Y-61850190D01*
X90877619Y-61850190D02*
X89877619Y-61612095D01*
X90877619Y-60659714D02*
X90401428Y-60993047D01*
X90877619Y-61231142D02*
X89877619Y-61231142D01*
X89877619Y-61231142D02*
X89877619Y-60850190D01*
X89877619Y-60850190D02*
X89925238Y-60754952D01*
X89925238Y-60754952D02*
X89972857Y-60707333D01*
X89972857Y-60707333D02*
X90068095Y-60659714D01*
X90068095Y-60659714D02*
X90210952Y-60659714D01*
X90210952Y-60659714D02*
X90306190Y-60707333D01*
X90306190Y-60707333D02*
X90353809Y-60754952D01*
X90353809Y-60754952D02*
X90401428Y-60850190D01*
X90401428Y-60850190D02*
X90401428Y-61231142D01*
X90877619Y-58945428D02*
X90877619Y-59516856D01*
X90877619Y-59231142D02*
X89877619Y-59231142D01*
X89877619Y-59231142D02*
X90020476Y-59326380D01*
X90020476Y-59326380D02*
X90115714Y-59421618D01*
X90115714Y-59421618D02*
X90163333Y-59516856D01*
X147210095Y-48201238D02*
X147114857Y-48153619D01*
X147114857Y-48153619D02*
X146972000Y-48153619D01*
X146972000Y-48153619D02*
X146829143Y-48201238D01*
X146829143Y-48201238D02*
X146733905Y-48296476D01*
X146733905Y-48296476D02*
X146686286Y-48391714D01*
X146686286Y-48391714D02*
X146638667Y-48582190D01*
X146638667Y-48582190D02*
X146638667Y-48725047D01*
X146638667Y-48725047D02*
X146686286Y-48915523D01*
X146686286Y-48915523D02*
X146733905Y-49010761D01*
X146733905Y-49010761D02*
X146829143Y-49106000D01*
X146829143Y-49106000D02*
X146972000Y-49153619D01*
X146972000Y-49153619D02*
X147067238Y-49153619D01*
X147067238Y-49153619D02*
X147210095Y-49106000D01*
X147210095Y-49106000D02*
X147257714Y-49058380D01*
X147257714Y-49058380D02*
X147257714Y-48725047D01*
X147257714Y-48725047D02*
X147067238Y-48725047D01*
X147686286Y-49153619D02*
X147686286Y-48153619D01*
X147686286Y-48153619D02*
X148257714Y-49153619D01*
X148257714Y-49153619D02*
X148257714Y-48153619D01*
X148733905Y-49153619D02*
X148733905Y-48153619D01*
X148733905Y-48153619D02*
X148972000Y-48153619D01*
X148972000Y-48153619D02*
X149114857Y-48201238D01*
X149114857Y-48201238D02*
X149210095Y-48296476D01*
X149210095Y-48296476D02*
X149257714Y-48391714D01*
X149257714Y-48391714D02*
X149305333Y-48582190D01*
X149305333Y-48582190D02*
X149305333Y-48725047D01*
X149305333Y-48725047D02*
X149257714Y-48915523D01*
X149257714Y-48915523D02*
X149210095Y-49010761D01*
X149210095Y-49010761D02*
X149114857Y-49106000D01*
X149114857Y-49106000D02*
X148972000Y-49153619D01*
X148972000Y-49153619D02*
X148733905Y-49153619D01*
D11*
X142230000Y-73908478D02*
X142109048Y-73848002D01*
X142109048Y-73848002D02*
X141988095Y-73727050D01*
X141988095Y-73727050D02*
X141806667Y-73545621D01*
X141806667Y-73545621D02*
X141685714Y-73485145D01*
X141685714Y-73485145D02*
X141564762Y-73485145D01*
X141625238Y-73787526D02*
X141504286Y-73727050D01*
X141504286Y-73727050D02*
X141383333Y-73606097D01*
X141383333Y-73606097D02*
X141322857Y-73364192D01*
X141322857Y-73364192D02*
X141322857Y-72940859D01*
X141322857Y-72940859D02*
X141383333Y-72698954D01*
X141383333Y-72698954D02*
X141504286Y-72578002D01*
X141504286Y-72578002D02*
X141625238Y-72517526D01*
X141625238Y-72517526D02*
X141867143Y-72517526D01*
X141867143Y-72517526D02*
X141988095Y-72578002D01*
X141988095Y-72578002D02*
X142109048Y-72698954D01*
X142109048Y-72698954D02*
X142169524Y-72940859D01*
X142169524Y-72940859D02*
X142169524Y-73364192D01*
X142169524Y-73364192D02*
X142109048Y-73606097D01*
X142109048Y-73606097D02*
X141988095Y-73727050D01*
X141988095Y-73727050D02*
X141867143Y-73787526D01*
X141867143Y-73787526D02*
X141625238Y-73787526D01*
X143379048Y-73787526D02*
X142653333Y-73787526D01*
X143016190Y-73787526D02*
X143016190Y-72517526D01*
X143016190Y-72517526D02*
X142895238Y-72698954D01*
X142895238Y-72698954D02*
X142774286Y-72819907D01*
X142774286Y-72819907D02*
X142653333Y-72880383D01*
X143862857Y-73424669D02*
X144467619Y-73424669D01*
X143741905Y-73787526D02*
X144165238Y-72517526D01*
X144165238Y-72517526D02*
X144588572Y-73787526D01*
X144951428Y-72638478D02*
X145011904Y-72578002D01*
X145011904Y-72578002D02*
X145132857Y-72517526D01*
X145132857Y-72517526D02*
X145435238Y-72517526D01*
X145435238Y-72517526D02*
X145556190Y-72578002D01*
X145556190Y-72578002D02*
X145616666Y-72638478D01*
X145616666Y-72638478D02*
X145677143Y-72759430D01*
X145677143Y-72759430D02*
X145677143Y-72880383D01*
X145677143Y-72880383D02*
X145616666Y-73061811D01*
X145616666Y-73061811D02*
X144890952Y-73787526D01*
X144890952Y-73787526D02*
X145677143Y-73787526D01*
X113730000Y-68208478D02*
X113609048Y-68148002D01*
X113609048Y-68148002D02*
X113488095Y-68027050D01*
X113488095Y-68027050D02*
X113306667Y-67845621D01*
X113306667Y-67845621D02*
X113185714Y-67785145D01*
X113185714Y-67785145D02*
X113064762Y-67785145D01*
X113125238Y-68087526D02*
X113004286Y-68027050D01*
X113004286Y-68027050D02*
X112883333Y-67906097D01*
X112883333Y-67906097D02*
X112822857Y-67664192D01*
X112822857Y-67664192D02*
X112822857Y-67240859D01*
X112822857Y-67240859D02*
X112883333Y-66998954D01*
X112883333Y-66998954D02*
X113004286Y-66878002D01*
X113004286Y-66878002D02*
X113125238Y-66817526D01*
X113125238Y-66817526D02*
X113367143Y-66817526D01*
X113367143Y-66817526D02*
X113488095Y-66878002D01*
X113488095Y-66878002D02*
X113609048Y-66998954D01*
X113609048Y-66998954D02*
X113669524Y-67240859D01*
X113669524Y-67240859D02*
X113669524Y-67664192D01*
X113669524Y-67664192D02*
X113609048Y-67906097D01*
X113609048Y-67906097D02*
X113488095Y-68027050D01*
X113488095Y-68027050D02*
X113367143Y-68087526D01*
X113367143Y-68087526D02*
X113125238Y-68087526D01*
X114879048Y-68087526D02*
X114153333Y-68087526D01*
X114516190Y-68087526D02*
X114516190Y-66817526D01*
X114516190Y-66817526D02*
X114395238Y-66998954D01*
X114395238Y-66998954D02*
X114274286Y-67119907D01*
X114274286Y-67119907D02*
X114153333Y-67180383D01*
X115362857Y-67724669D02*
X115967619Y-67724669D01*
X115241905Y-68087526D02*
X115665238Y-66817526D01*
X115665238Y-66817526D02*
X116088572Y-68087526D01*
X117177143Y-68087526D02*
X116451428Y-68087526D01*
X116814285Y-68087526D02*
X116814285Y-66817526D01*
X116814285Y-66817526D02*
X116693333Y-66998954D01*
X116693333Y-66998954D02*
X116572381Y-67119907D01*
X116572381Y-67119907D02*
X116451428Y-67180383D01*
D10*
X166702380Y-87476666D02*
X165988095Y-87476666D01*
X165988095Y-87476666D02*
X165845238Y-87429047D01*
X165845238Y-87429047D02*
X165750000Y-87333809D01*
X165750000Y-87333809D02*
X165702380Y-87190952D01*
X165702380Y-87190952D02*
X165702380Y-87095714D01*
X166702380Y-88429047D02*
X166702380Y-87952857D01*
X166702380Y-87952857D02*
X166226190Y-87905238D01*
X166226190Y-87905238D02*
X166273809Y-87952857D01*
X166273809Y-87952857D02*
X166321428Y-88048095D01*
X166321428Y-88048095D02*
X166321428Y-88286190D01*
X166321428Y-88286190D02*
X166273809Y-88381428D01*
X166273809Y-88381428D02*
X166226190Y-88429047D01*
X166226190Y-88429047D02*
X166130952Y-88476666D01*
X166130952Y-88476666D02*
X165892857Y-88476666D01*
X165892857Y-88476666D02*
X165797619Y-88429047D01*
X165797619Y-88429047D02*
X165750000Y-88381428D01*
X165750000Y-88381428D02*
X165702380Y-88286190D01*
X165702380Y-88286190D02*
X165702380Y-88048095D01*
X165702380Y-88048095D02*
X165750000Y-87952857D01*
X165750000Y-87952857D02*
X165797619Y-87905238D01*
X118166666Y-105462619D02*
X118166666Y-106176904D01*
X118166666Y-106176904D02*
X118119047Y-106319761D01*
X118119047Y-106319761D02*
X118023809Y-106415000D01*
X118023809Y-106415000D02*
X117880952Y-106462619D01*
X117880952Y-106462619D02*
X117785714Y-106462619D01*
X119071428Y-105462619D02*
X118880952Y-105462619D01*
X118880952Y-105462619D02*
X118785714Y-105510238D01*
X118785714Y-105510238D02*
X118738095Y-105557857D01*
X118738095Y-105557857D02*
X118642857Y-105700714D01*
X118642857Y-105700714D02*
X118595238Y-105891190D01*
X118595238Y-105891190D02*
X118595238Y-106272142D01*
X118595238Y-106272142D02*
X118642857Y-106367380D01*
X118642857Y-106367380D02*
X118690476Y-106415000D01*
X118690476Y-106415000D02*
X118785714Y-106462619D01*
X118785714Y-106462619D02*
X118976190Y-106462619D01*
X118976190Y-106462619D02*
X119071428Y-106415000D01*
X119071428Y-106415000D02*
X119119047Y-106367380D01*
X119119047Y-106367380D02*
X119166666Y-106272142D01*
X119166666Y-106272142D02*
X119166666Y-106034047D01*
X119166666Y-106034047D02*
X119119047Y-105938809D01*
X119119047Y-105938809D02*
X119071428Y-105891190D01*
X119071428Y-105891190D02*
X118976190Y-105843571D01*
X118976190Y-105843571D02*
X118785714Y-105843571D01*
X118785714Y-105843571D02*
X118690476Y-105891190D01*
X118690476Y-105891190D02*
X118642857Y-105938809D01*
X118642857Y-105938809D02*
X118595238Y-106034047D01*
X129216666Y-78423809D02*
X128883333Y-78423809D01*
X128883333Y-78947619D02*
X128883333Y-77947619D01*
X128883333Y-77947619D02*
X129359523Y-77947619D01*
X130264285Y-78947619D02*
X129692857Y-78947619D01*
X129978571Y-78947619D02*
X129978571Y-77947619D01*
X129978571Y-77947619D02*
X129883333Y-78090476D01*
X129883333Y-78090476D02*
X129788095Y-78185714D01*
X129788095Y-78185714D02*
X129692857Y-78233333D01*
X91522619Y-88133333D02*
X92236904Y-88133333D01*
X92236904Y-88133333D02*
X92379761Y-88180952D01*
X92379761Y-88180952D02*
X92475000Y-88276190D01*
X92475000Y-88276190D02*
X92522619Y-88419047D01*
X92522619Y-88419047D02*
X92522619Y-88514285D01*
X91522619Y-87752380D02*
X91522619Y-87133333D01*
X91522619Y-87133333D02*
X91903571Y-87466666D01*
X91903571Y-87466666D02*
X91903571Y-87323809D01*
X91903571Y-87323809D02*
X91951190Y-87228571D01*
X91951190Y-87228571D02*
X91998809Y-87180952D01*
X91998809Y-87180952D02*
X92094047Y-87133333D01*
X92094047Y-87133333D02*
X92332142Y-87133333D01*
X92332142Y-87133333D02*
X92427380Y-87180952D01*
X92427380Y-87180952D02*
X92475000Y-87228571D01*
X92475000Y-87228571D02*
X92522619Y-87323809D01*
X92522619Y-87323809D02*
X92522619Y-87609523D01*
X92522619Y-87609523D02*
X92475000Y-87704761D01*
X92475000Y-87704761D02*
X92427380Y-87752380D01*
X91522619Y-64068333D02*
X92236904Y-64068333D01*
X92236904Y-64068333D02*
X92379761Y-64115952D01*
X92379761Y-64115952D02*
X92475000Y-64211190D01*
X92475000Y-64211190D02*
X92522619Y-64354047D01*
X92522619Y-64354047D02*
X92522619Y-64449285D01*
X91617857Y-63639761D02*
X91570238Y-63592142D01*
X91570238Y-63592142D02*
X91522619Y-63496904D01*
X91522619Y-63496904D02*
X91522619Y-63258809D01*
X91522619Y-63258809D02*
X91570238Y-63163571D01*
X91570238Y-63163571D02*
X91617857Y-63115952D01*
X91617857Y-63115952D02*
X91713095Y-63068333D01*
X91713095Y-63068333D02*
X91808333Y-63068333D01*
X91808333Y-63068333D02*
X91951190Y-63115952D01*
X91951190Y-63115952D02*
X92522619Y-63687380D01*
X92522619Y-63687380D02*
X92522619Y-63068333D01*
D11*
X142230000Y-68208478D02*
X142109048Y-68148002D01*
X142109048Y-68148002D02*
X141988095Y-68027050D01*
X141988095Y-68027050D02*
X141806667Y-67845621D01*
X141806667Y-67845621D02*
X141685714Y-67785145D01*
X141685714Y-67785145D02*
X141564762Y-67785145D01*
X141625238Y-68087526D02*
X141504286Y-68027050D01*
X141504286Y-68027050D02*
X141383333Y-67906097D01*
X141383333Y-67906097D02*
X141322857Y-67664192D01*
X141322857Y-67664192D02*
X141322857Y-67240859D01*
X141322857Y-67240859D02*
X141383333Y-66998954D01*
X141383333Y-66998954D02*
X141504286Y-66878002D01*
X141504286Y-66878002D02*
X141625238Y-66817526D01*
X141625238Y-66817526D02*
X141867143Y-66817526D01*
X141867143Y-66817526D02*
X141988095Y-66878002D01*
X141988095Y-66878002D02*
X142109048Y-66998954D01*
X142109048Y-66998954D02*
X142169524Y-67240859D01*
X142169524Y-67240859D02*
X142169524Y-67664192D01*
X142169524Y-67664192D02*
X142109048Y-67906097D01*
X142109048Y-67906097D02*
X141988095Y-68027050D01*
X141988095Y-68027050D02*
X141867143Y-68087526D01*
X141867143Y-68087526D02*
X141625238Y-68087526D01*
X143379048Y-68087526D02*
X142653333Y-68087526D01*
X143016190Y-68087526D02*
X143016190Y-66817526D01*
X143016190Y-66817526D02*
X142895238Y-66998954D01*
X142895238Y-66998954D02*
X142774286Y-67119907D01*
X142774286Y-67119907D02*
X142653333Y-67180383D01*
X143862857Y-67724669D02*
X144467619Y-67724669D01*
X143741905Y-68087526D02*
X144165238Y-66817526D01*
X144165238Y-66817526D02*
X144588572Y-68087526D01*
X145556190Y-67240859D02*
X145556190Y-68087526D01*
X145253809Y-66757050D02*
X144951428Y-67664192D01*
X144951428Y-67664192D02*
X145737619Y-67664192D01*
X132129047Y-59208478D02*
X132008095Y-59148002D01*
X132008095Y-59148002D02*
X131887142Y-59027050D01*
X131887142Y-59027050D02*
X131705714Y-58845621D01*
X131705714Y-58845621D02*
X131584761Y-58785145D01*
X131584761Y-58785145D02*
X131463809Y-58785145D01*
X131524285Y-59087526D02*
X131403333Y-59027050D01*
X131403333Y-59027050D02*
X131282380Y-58906097D01*
X131282380Y-58906097D02*
X131221904Y-58664192D01*
X131221904Y-58664192D02*
X131221904Y-58240859D01*
X131221904Y-58240859D02*
X131282380Y-57998954D01*
X131282380Y-57998954D02*
X131403333Y-57878002D01*
X131403333Y-57878002D02*
X131524285Y-57817526D01*
X131524285Y-57817526D02*
X131766190Y-57817526D01*
X131766190Y-57817526D02*
X131887142Y-57878002D01*
X131887142Y-57878002D02*
X132008095Y-57998954D01*
X132008095Y-57998954D02*
X132068571Y-58240859D01*
X132068571Y-58240859D02*
X132068571Y-58664192D01*
X132068571Y-58664192D02*
X132008095Y-58906097D01*
X132008095Y-58906097D02*
X131887142Y-59027050D01*
X131887142Y-59027050D02*
X131766190Y-59087526D01*
X131766190Y-59087526D02*
X131524285Y-59087526D01*
X132552380Y-57938478D02*
X132612856Y-57878002D01*
X132612856Y-57878002D02*
X132733809Y-57817526D01*
X132733809Y-57817526D02*
X133036190Y-57817526D01*
X133036190Y-57817526D02*
X133157142Y-57878002D01*
X133157142Y-57878002D02*
X133217618Y-57938478D01*
X133217618Y-57938478D02*
X133278095Y-58059430D01*
X133278095Y-58059430D02*
X133278095Y-58180383D01*
X133278095Y-58180383D02*
X133217618Y-58361811D01*
X133217618Y-58361811D02*
X132491904Y-59087526D01*
X132491904Y-59087526D02*
X133278095Y-59087526D01*
D10*
X123033333Y-61862619D02*
X122700000Y-61386428D01*
X122461905Y-61862619D02*
X122461905Y-60862619D01*
X122461905Y-60862619D02*
X122842857Y-60862619D01*
X122842857Y-60862619D02*
X122938095Y-60910238D01*
X122938095Y-60910238D02*
X122985714Y-60957857D01*
X122985714Y-60957857D02*
X123033333Y-61053095D01*
X123033333Y-61053095D02*
X123033333Y-61195952D01*
X123033333Y-61195952D02*
X122985714Y-61291190D01*
X122985714Y-61291190D02*
X122938095Y-61338809D01*
X122938095Y-61338809D02*
X122842857Y-61386428D01*
X122842857Y-61386428D02*
X122461905Y-61386428D01*
X123414286Y-60957857D02*
X123461905Y-60910238D01*
X123461905Y-60910238D02*
X123557143Y-60862619D01*
X123557143Y-60862619D02*
X123795238Y-60862619D01*
X123795238Y-60862619D02*
X123890476Y-60910238D01*
X123890476Y-60910238D02*
X123938095Y-60957857D01*
X123938095Y-60957857D02*
X123985714Y-61053095D01*
X123985714Y-61053095D02*
X123985714Y-61148333D01*
X123985714Y-61148333D02*
X123938095Y-61291190D01*
X123938095Y-61291190D02*
X123366667Y-61862619D01*
X123366667Y-61862619D02*
X123985714Y-61862619D01*
D11*
X136162618Y-56547526D02*
X136162618Y-55277526D01*
X136162618Y-55277526D02*
X136464999Y-55277526D01*
X136464999Y-55277526D02*
X136646428Y-55338002D01*
X136646428Y-55338002D02*
X136767380Y-55458954D01*
X136767380Y-55458954D02*
X136827857Y-55579907D01*
X136827857Y-55579907D02*
X136888333Y-55821811D01*
X136888333Y-55821811D02*
X136888333Y-56003240D01*
X136888333Y-56003240D02*
X136827857Y-56245145D01*
X136827857Y-56245145D02*
X136767380Y-56366097D01*
X136767380Y-56366097D02*
X136646428Y-56487050D01*
X136646428Y-56487050D02*
X136464999Y-56547526D01*
X136464999Y-56547526D02*
X136162618Y-56547526D01*
X138097857Y-56547526D02*
X137372142Y-56547526D01*
X137734999Y-56547526D02*
X137734999Y-55277526D01*
X137734999Y-55277526D02*
X137614047Y-55458954D01*
X137614047Y-55458954D02*
X137493095Y-55579907D01*
X137493095Y-55579907D02*
X137372142Y-55640383D01*
D10*
X140266666Y-105462619D02*
X140266666Y-106176904D01*
X140266666Y-106176904D02*
X140219047Y-106319761D01*
X140219047Y-106319761D02*
X140123809Y-106415000D01*
X140123809Y-106415000D02*
X139980952Y-106462619D01*
X139980952Y-106462619D02*
X139885714Y-106462619D01*
X140647619Y-105462619D02*
X141314285Y-105462619D01*
X141314285Y-105462619D02*
X140885714Y-106462619D01*
X113083333Y-63712619D02*
X112750000Y-63236428D01*
X112511905Y-63712619D02*
X112511905Y-62712619D01*
X112511905Y-62712619D02*
X112892857Y-62712619D01*
X112892857Y-62712619D02*
X112988095Y-62760238D01*
X112988095Y-62760238D02*
X113035714Y-62807857D01*
X113035714Y-62807857D02*
X113083333Y-62903095D01*
X113083333Y-62903095D02*
X113083333Y-63045952D01*
X113083333Y-63045952D02*
X113035714Y-63141190D01*
X113035714Y-63141190D02*
X112988095Y-63188809D01*
X112988095Y-63188809D02*
X112892857Y-63236428D01*
X112892857Y-63236428D02*
X112511905Y-63236428D01*
X114035714Y-63712619D02*
X113464286Y-63712619D01*
X113750000Y-63712619D02*
X113750000Y-62712619D01*
X113750000Y-62712619D02*
X113654762Y-62855476D01*
X113654762Y-62855476D02*
X113559524Y-62950714D01*
X113559524Y-62950714D02*
X113464286Y-62998333D01*
D11*
X131532380Y-62067526D02*
X131532380Y-63095621D01*
X131532380Y-63095621D02*
X131592857Y-63216573D01*
X131592857Y-63216573D02*
X131653333Y-63277050D01*
X131653333Y-63277050D02*
X131774285Y-63337526D01*
X131774285Y-63337526D02*
X132016190Y-63337526D01*
X132016190Y-63337526D02*
X132137142Y-63277050D01*
X132137142Y-63277050D02*
X132197619Y-63216573D01*
X132197619Y-63216573D02*
X132258095Y-63095621D01*
X132258095Y-63095621D02*
X132258095Y-62067526D01*
X133528095Y-63337526D02*
X132802380Y-63337526D01*
X133165237Y-63337526D02*
X133165237Y-62067526D01*
X133165237Y-62067526D02*
X133044285Y-62248954D01*
X133044285Y-62248954D02*
X132923333Y-62369907D01*
X132923333Y-62369907D02*
X132802380Y-62430383D01*
D10*
X139583333Y-63617380D02*
X139535714Y-63665000D01*
X139535714Y-63665000D02*
X139392857Y-63712619D01*
X139392857Y-63712619D02*
X139297619Y-63712619D01*
X139297619Y-63712619D02*
X139154762Y-63665000D01*
X139154762Y-63665000D02*
X139059524Y-63569761D01*
X139059524Y-63569761D02*
X139011905Y-63474523D01*
X139011905Y-63474523D02*
X138964286Y-63284047D01*
X138964286Y-63284047D02*
X138964286Y-63141190D01*
X138964286Y-63141190D02*
X139011905Y-62950714D01*
X139011905Y-62950714D02*
X139059524Y-62855476D01*
X139059524Y-62855476D02*
X139154762Y-62760238D01*
X139154762Y-62760238D02*
X139297619Y-62712619D01*
X139297619Y-62712619D02*
X139392857Y-62712619D01*
X139392857Y-62712619D02*
X139535714Y-62760238D01*
X139535714Y-62760238D02*
X139583333Y-62807857D01*
X140440476Y-63045952D02*
X140440476Y-63712619D01*
X140202381Y-62665000D02*
X139964286Y-63379285D01*
X139964286Y-63379285D02*
X140583333Y-63379285D01*
X128715666Y-47462619D02*
X128715666Y-48176904D01*
X128715666Y-48176904D02*
X128668047Y-48319761D01*
X128668047Y-48319761D02*
X128572809Y-48415000D01*
X128572809Y-48415000D02*
X128429952Y-48462619D01*
X128429952Y-48462619D02*
X128334714Y-48462619D01*
X129715666Y-48462619D02*
X129144238Y-48462619D01*
X129429952Y-48462619D02*
X129429952Y-47462619D01*
X129429952Y-47462619D02*
X129334714Y-47605476D01*
X129334714Y-47605476D02*
X129239476Y-47700714D01*
X129239476Y-47700714D02*
X129144238Y-47748333D01*
D11*
X113730000Y-73908478D02*
X113609048Y-73848002D01*
X113609048Y-73848002D02*
X113488095Y-73727050D01*
X113488095Y-73727050D02*
X113306667Y-73545621D01*
X113306667Y-73545621D02*
X113185714Y-73485145D01*
X113185714Y-73485145D02*
X113064762Y-73485145D01*
X113125238Y-73787526D02*
X113004286Y-73727050D01*
X113004286Y-73727050D02*
X112883333Y-73606097D01*
X112883333Y-73606097D02*
X112822857Y-73364192D01*
X112822857Y-73364192D02*
X112822857Y-72940859D01*
X112822857Y-72940859D02*
X112883333Y-72698954D01*
X112883333Y-72698954D02*
X113004286Y-72578002D01*
X113004286Y-72578002D02*
X113125238Y-72517526D01*
X113125238Y-72517526D02*
X113367143Y-72517526D01*
X113367143Y-72517526D02*
X113488095Y-72578002D01*
X113488095Y-72578002D02*
X113609048Y-72698954D01*
X113609048Y-72698954D02*
X113669524Y-72940859D01*
X113669524Y-72940859D02*
X113669524Y-73364192D01*
X113669524Y-73364192D02*
X113609048Y-73606097D01*
X113609048Y-73606097D02*
X113488095Y-73727050D01*
X113488095Y-73727050D02*
X113367143Y-73787526D01*
X113367143Y-73787526D02*
X113125238Y-73787526D01*
X114879048Y-73787526D02*
X114153333Y-73787526D01*
X114516190Y-73787526D02*
X114516190Y-72517526D01*
X114516190Y-72517526D02*
X114395238Y-72698954D01*
X114395238Y-72698954D02*
X114274286Y-72819907D01*
X114274286Y-72819907D02*
X114153333Y-72880383D01*
X115362857Y-73424669D02*
X115967619Y-73424669D01*
X115241905Y-73787526D02*
X115665238Y-72517526D01*
X115665238Y-72517526D02*
X116088572Y-73787526D01*
X116390952Y-72517526D02*
X117177143Y-72517526D01*
X117177143Y-72517526D02*
X116753809Y-73001335D01*
X116753809Y-73001335D02*
X116935238Y-73001335D01*
X116935238Y-73001335D02*
X117056190Y-73061811D01*
X117056190Y-73061811D02*
X117116666Y-73122288D01*
X117116666Y-73122288D02*
X117177143Y-73243240D01*
X117177143Y-73243240D02*
X117177143Y-73545621D01*
X117177143Y-73545621D02*
X117116666Y-73666573D01*
X117116666Y-73666573D02*
X117056190Y-73727050D01*
X117056190Y-73727050D02*
X116935238Y-73787526D01*
X116935238Y-73787526D02*
X116572381Y-73787526D01*
X116572381Y-73787526D02*
X116451428Y-73727050D01*
X116451428Y-73727050D02*
X116390952Y-73666573D01*
D10*
X139508333Y-61362619D02*
X139175000Y-60886428D01*
X138936905Y-61362619D02*
X138936905Y-60362619D01*
X138936905Y-60362619D02*
X139317857Y-60362619D01*
X139317857Y-60362619D02*
X139413095Y-60410238D01*
X139413095Y-60410238D02*
X139460714Y-60457857D01*
X139460714Y-60457857D02*
X139508333Y-60553095D01*
X139508333Y-60553095D02*
X139508333Y-60695952D01*
X139508333Y-60695952D02*
X139460714Y-60791190D01*
X139460714Y-60791190D02*
X139413095Y-60838809D01*
X139413095Y-60838809D02*
X139317857Y-60886428D01*
X139317857Y-60886428D02*
X138936905Y-60886428D01*
X139841667Y-60362619D02*
X140460714Y-60362619D01*
X140460714Y-60362619D02*
X140127381Y-60743571D01*
X140127381Y-60743571D02*
X140270238Y-60743571D01*
X140270238Y-60743571D02*
X140365476Y-60791190D01*
X140365476Y-60791190D02*
X140413095Y-60838809D01*
X140413095Y-60838809D02*
X140460714Y-60934047D01*
X140460714Y-60934047D02*
X140460714Y-61172142D01*
X140460714Y-61172142D02*
X140413095Y-61267380D01*
X140413095Y-61267380D02*
X140365476Y-61315000D01*
X140365476Y-61315000D02*
X140270238Y-61362619D01*
X140270238Y-61362619D02*
X139984524Y-61362619D01*
X139984524Y-61362619D02*
X139889286Y-61315000D01*
X139889286Y-61315000D02*
X139841667Y-61267380D01*
D11*
X128794047Y-98878478D02*
X128673095Y-98818002D01*
X128673095Y-98818002D02*
X128552142Y-98697050D01*
X128552142Y-98697050D02*
X128370714Y-98515621D01*
X128370714Y-98515621D02*
X128249761Y-98455145D01*
X128249761Y-98455145D02*
X128128809Y-98455145D01*
X128189285Y-98757526D02*
X128068333Y-98697050D01*
X128068333Y-98697050D02*
X127947380Y-98576097D01*
X127947380Y-98576097D02*
X127886904Y-98334192D01*
X127886904Y-98334192D02*
X127886904Y-97910859D01*
X127886904Y-97910859D02*
X127947380Y-97668954D01*
X127947380Y-97668954D02*
X128068333Y-97548002D01*
X128068333Y-97548002D02*
X128189285Y-97487526D01*
X128189285Y-97487526D02*
X128431190Y-97487526D01*
X128431190Y-97487526D02*
X128552142Y-97548002D01*
X128552142Y-97548002D02*
X128673095Y-97668954D01*
X128673095Y-97668954D02*
X128733571Y-97910859D01*
X128733571Y-97910859D02*
X128733571Y-98334192D01*
X128733571Y-98334192D02*
X128673095Y-98576097D01*
X128673095Y-98576097D02*
X128552142Y-98697050D01*
X128552142Y-98697050D02*
X128431190Y-98757526D01*
X128431190Y-98757526D02*
X128189285Y-98757526D01*
X129156904Y-97487526D02*
X129943095Y-97487526D01*
X129943095Y-97487526D02*
X129519761Y-97971335D01*
X129519761Y-97971335D02*
X129701190Y-97971335D01*
X129701190Y-97971335D02*
X129822142Y-98031811D01*
X129822142Y-98031811D02*
X129882618Y-98092288D01*
X129882618Y-98092288D02*
X129943095Y-98213240D01*
X129943095Y-98213240D02*
X129943095Y-98515621D01*
X129943095Y-98515621D02*
X129882618Y-98636573D01*
X129882618Y-98636573D02*
X129822142Y-98697050D01*
X129822142Y-98697050D02*
X129701190Y-98757526D01*
X129701190Y-98757526D02*
X129338333Y-98757526D01*
X129338333Y-98757526D02*
X129217380Y-98697050D01*
X129217380Y-98697050D02*
X129156904Y-98636573D01*
D10*
X166797380Y-63214666D02*
X166083095Y-63214666D01*
X166083095Y-63214666D02*
X165940238Y-63167047D01*
X165940238Y-63167047D02*
X165845000Y-63071809D01*
X165845000Y-63071809D02*
X165797380Y-62928952D01*
X165797380Y-62928952D02*
X165797380Y-62833714D01*
X166464047Y-64119428D02*
X165797380Y-64119428D01*
X166845000Y-63881333D02*
X166130714Y-63643238D01*
X166130714Y-63643238D02*
X166130714Y-64262285D01*
X144833333Y-63712619D02*
X144500000Y-63236428D01*
X144261905Y-63712619D02*
X144261905Y-62712619D01*
X144261905Y-62712619D02*
X144642857Y-62712619D01*
X144642857Y-62712619D02*
X144738095Y-62760238D01*
X144738095Y-62760238D02*
X144785714Y-62807857D01*
X144785714Y-62807857D02*
X144833333Y-62903095D01*
X144833333Y-62903095D02*
X144833333Y-63045952D01*
X144833333Y-63045952D02*
X144785714Y-63141190D01*
X144785714Y-63141190D02*
X144738095Y-63188809D01*
X144738095Y-63188809D02*
X144642857Y-63236428D01*
X144642857Y-63236428D02*
X144261905Y-63236428D01*
X145690476Y-63045952D02*
X145690476Y-63712619D01*
X145452381Y-62665000D02*
X145214286Y-63379285D01*
X145214286Y-63379285D02*
X145833333Y-63379285D01*
D12*
X140400000Y-76120000D02*
X140400000Y-73200000D01*
X129890000Y-76120000D02*
X140400000Y-76120000D01*
X129890000Y-71470000D02*
X129890000Y-76120000D01*
X128335000Y-70405000D02*
X128335000Y-67485000D01*
X117825000Y-70405000D02*
X128335000Y-70405000D01*
X117825000Y-65755000D02*
X117825000Y-70405000D01*
D13*
X163225000Y-77160000D02*
X151475000Y-77160000D01*
X151475000Y-77160000D02*
X151475000Y-98450000D01*
X164090685Y-83660000D02*
X163525000Y-84060000D01*
X163525000Y-84060000D02*
X164090685Y-84460000D01*
X164090685Y-84460000D02*
X164090685Y-83660000D01*
X165075000Y-86170000D02*
X165075000Y-89440000D01*
X163225000Y-86170000D02*
X165075000Y-86170000D01*
X165075000Y-89440000D02*
X163225000Y-89440000D01*
X163225000Y-98450000D02*
X163225000Y-77160000D01*
X151475000Y-98450000D02*
X163225000Y-98450000D01*
X114210000Y-55065000D02*
X112290000Y-55065000D01*
X112290000Y-55065000D02*
X112290000Y-57750000D01*
X114210000Y-57750000D02*
X114210000Y-55065000D01*
X108926000Y-50918000D02*
X111326000Y-50918000D01*
X108926000Y-53318000D02*
X108926000Y-50918000D01*
X111326000Y-50918000D02*
X111326000Y-53318000D01*
X111326000Y-53318000D02*
X108926000Y-53318000D01*
X123435000Y-102230000D02*
X123435000Y-99155000D01*
X123435000Y-99155000D02*
X113565000Y-99155000D01*
X122015000Y-103745000D02*
X122015000Y-103245000D01*
X122015000Y-103245000D02*
X114985000Y-103245000D01*
X121995000Y-103745000D02*
X122015000Y-103745000D01*
X114985000Y-103745000D02*
X115005000Y-103745000D01*
X114985000Y-103245000D02*
X114985000Y-103745000D01*
X113565000Y-99155000D02*
X113565000Y-102230000D01*
X121450000Y-79460000D02*
X121450000Y-86400000D01*
X121450000Y-86400000D02*
X137650000Y-86400000D01*
X127950000Y-80930000D02*
X131150000Y-80930000D01*
X128800000Y-82930000D02*
X130300000Y-82930000D01*
X131150000Y-84930000D02*
X127950000Y-84930000D01*
X137650000Y-79460000D02*
X121450000Y-79460000D01*
X137650000Y-86400000D02*
X137650000Y-79460000D01*
X95000000Y-98450000D02*
X106750000Y-98450000D01*
X106750000Y-98450000D02*
X106750000Y-77160000D01*
X94134315Y-91950000D02*
X94700000Y-91550000D01*
X94700000Y-91550000D02*
X94134315Y-91150000D01*
X94134315Y-91150000D02*
X94134315Y-91950000D01*
X93150000Y-89440000D02*
X93150000Y-86170000D01*
X95000000Y-89440000D02*
X93150000Y-89440000D01*
X93150000Y-86170000D02*
X95000000Y-86170000D01*
X95000000Y-77160000D02*
X95000000Y-98450000D01*
X106750000Y-77160000D02*
X95000000Y-77160000D01*
X95000000Y-74385000D02*
X106750000Y-74385000D01*
X106750000Y-74385000D02*
X106750000Y-53095000D01*
X94134315Y-67885000D02*
X94700000Y-67485000D01*
X94700000Y-67485000D02*
X94134315Y-67085000D01*
X94134315Y-67085000D02*
X94134315Y-67885000D01*
X93150000Y-65375000D02*
X93150000Y-62105000D01*
X95000000Y-65375000D02*
X93150000Y-65375000D01*
X93150000Y-62105000D02*
X95000000Y-62105000D01*
X95000000Y-53095000D02*
X95000000Y-74385000D01*
X106750000Y-53095000D02*
X95000000Y-53095000D01*
D12*
X140400000Y-70445000D02*
X140400000Y-67525000D01*
X129890000Y-70445000D02*
X140400000Y-70445000D01*
X129890000Y-65795000D02*
X129890000Y-70445000D01*
D13*
X146772000Y-50918000D02*
X149172000Y-50918000D01*
X146772000Y-53318000D02*
X146772000Y-50918000D01*
X149172000Y-50918000D02*
X149172000Y-53318000D01*
X149172000Y-53318000D02*
X146772000Y-53318000D01*
D12*
X130475000Y-59700000D02*
X129725000Y-59700000D01*
X129375000Y-59500000D02*
X128625000Y-59500000D01*
X129375000Y-57500000D02*
X129375000Y-59500000D01*
X128625000Y-59500000D02*
X128625000Y-57500000D01*
X128625000Y-57500000D02*
X129375000Y-57500000D01*
D13*
X124477500Y-61737258D02*
X124477500Y-61262742D01*
X125522500Y-61737258D02*
X125522500Y-61262742D01*
D12*
X138800000Y-59125000D02*
X136250000Y-59125000D01*
X137950000Y-57875000D02*
X136250000Y-57875000D01*
D13*
X145960000Y-55065000D02*
X144040000Y-55065000D01*
X144040000Y-55065000D02*
X144040000Y-57750000D01*
X145960000Y-57750000D02*
X145960000Y-55065000D01*
X141819000Y-50918000D02*
X144219000Y-50918000D01*
X141819000Y-53318000D02*
X141819000Y-50918000D01*
X144219000Y-50918000D02*
X144219000Y-53318000D01*
X144219000Y-53318000D02*
X141819000Y-53318000D01*
X145435000Y-102230000D02*
X145435000Y-99155000D01*
X145435000Y-99155000D02*
X135565000Y-99155000D01*
X144015000Y-103745000D02*
X144015000Y-103245000D01*
X144015000Y-103245000D02*
X136985000Y-103245000D01*
X143995000Y-103745000D02*
X144015000Y-103745000D01*
X136985000Y-103745000D02*
X137005000Y-103745000D01*
X136985000Y-103245000D02*
X136985000Y-103745000D01*
X135565000Y-99155000D02*
X135565000Y-102230000D01*
X112515000Y-60977064D02*
X112515000Y-60522936D01*
X113985000Y-60977064D02*
X113985000Y-60522936D01*
D12*
X130850000Y-64000000D02*
X129950000Y-64000000D01*
X129600000Y-63950000D02*
X128400000Y-63950000D01*
X129600000Y-61050000D02*
X129600000Y-63950000D01*
X128400000Y-63950000D02*
X128400000Y-61050000D01*
X128400000Y-61050000D02*
X129600000Y-61050000D01*
D13*
X136638748Y-62565000D02*
X137161252Y-62565000D01*
X136638748Y-64035000D02*
X137161252Y-64035000D01*
X124114000Y-51908000D02*
X124114000Y-54983000D01*
X124114000Y-54983000D02*
X133984000Y-54983000D01*
X125534000Y-50393000D02*
X125534000Y-50893000D01*
X125534000Y-50893000D02*
X132564000Y-50893000D01*
X125554000Y-50393000D02*
X125534000Y-50393000D01*
X132564000Y-50393000D02*
X132544000Y-50393000D01*
X132564000Y-50893000D02*
X132564000Y-50393000D01*
X133984000Y-54983000D02*
X133984000Y-51908000D01*
D12*
X128335000Y-76120000D02*
X128335000Y-73200000D01*
X117825000Y-76120000D02*
X128335000Y-76120000D01*
X117825000Y-71470000D02*
X117825000Y-76120000D01*
D13*
X136562742Y-60377500D02*
X137037258Y-60377500D01*
X136562742Y-61422500D02*
X137037258Y-61422500D01*
D14*
X134055000Y-89090000D02*
X127835000Y-89090000D01*
X127835000Y-89090000D02*
X127835000Y-95820000D01*
D12*
X123875000Y-90055000D02*
X123875000Y-90055000D01*
X123875000Y-90255000D02*
X123875000Y-90255000D01*
D14*
X127835000Y-95820000D02*
X134055000Y-95820000D01*
D12*
X123875000Y-90255000D02*
G75*
G03*
X123875000Y-90055000I0J100000D01*
G01*
X123875000Y-90055000D02*
G75*
G03*
X123875000Y-90255000I0J-100000D01*
G01*
D13*
X113800000Y-50918000D02*
X116200000Y-50918000D01*
X113800000Y-53318000D02*
X113800000Y-50918000D01*
X116200000Y-50918000D02*
X116200000Y-53318000D01*
X116200000Y-53318000D02*
X113800000Y-53318000D01*
X136700000Y-50918000D02*
X139100000Y-50918000D01*
X136700000Y-53318000D02*
X136700000Y-50918000D01*
X139100000Y-50918000D02*
X139100000Y-53318000D01*
X139100000Y-53318000D02*
X136700000Y-53318000D01*
X118900000Y-50900000D02*
X121300000Y-50900000D01*
X118900000Y-53300000D02*
X118900000Y-50900000D01*
X121300000Y-50900000D02*
X121300000Y-53300000D01*
X121300000Y-53300000D02*
X118900000Y-53300000D01*
X163225000Y-53095000D02*
X151475000Y-53095000D01*
X151475000Y-53095000D02*
X151475000Y-74385000D01*
X164090685Y-59595000D02*
X163525000Y-59995000D01*
X163525000Y-59995000D02*
X164090685Y-60395000D01*
X164090685Y-60395000D02*
X164090685Y-59595000D01*
X165075000Y-62105000D02*
X165075000Y-65375000D01*
X163225000Y-62105000D02*
X165075000Y-62105000D01*
X165075000Y-65375000D02*
X163225000Y-65375000D01*
X163225000Y-74385000D02*
X163225000Y-53095000D01*
X151475000Y-74385000D02*
X163225000Y-74385000D01*
X144265000Y-60977064D02*
X144265000Y-60522936D01*
X145735000Y-60977064D02*
X145735000Y-60522936D01*
%LPC*%
D15*
X93000000Y-48000000D03*
D16*
X137685000Y-73200000D03*
D17*
X135145000Y-73200000D03*
X132605000Y-73200000D03*
D16*
X125620000Y-67485000D03*
D17*
X123080000Y-67485000D03*
X120540000Y-67485000D03*
D18*
X158645000Y-84060000D03*
X155465000Y-84060000D03*
X158645000Y-91550000D03*
X155465000Y-91550000D03*
D19*
X113250000Y-55812500D03*
X113250000Y-57687500D03*
D15*
X165000000Y-104000000D03*
D20*
X110126000Y-52118000D03*
D21*
X123000000Y-103125000D03*
X114000000Y-103125000D03*
D22*
X120000000Y-101165000D03*
D23*
X117000000Y-101165000D03*
D24*
X124590000Y-81230000D03*
X124590000Y-84630000D03*
X134510000Y-81230000D03*
X134510000Y-84630000D03*
D18*
X99580000Y-91550000D03*
X102760000Y-91550000D03*
X99580000Y-84060000D03*
X102760000Y-84060000D03*
D15*
X165000000Y-48000000D03*
D18*
X99580000Y-67485000D03*
X102760000Y-67485000D03*
X99580000Y-59995000D03*
X102760000Y-59995000D03*
D16*
X137685000Y-67525000D03*
D17*
X135145000Y-67525000D03*
X132605000Y-67525000D03*
D20*
X147972000Y-52118000D03*
D25*
X130100000Y-59150000D03*
X130100000Y-58500000D03*
X130100000Y-57850000D03*
X127900000Y-57850000D03*
X127900000Y-58500000D03*
X127900000Y-59150000D03*
D15*
X93000000Y-104000000D03*
D26*
X125000000Y-62325000D03*
X125000000Y-60675000D03*
D27*
X138250000Y-58500000D03*
X135950000Y-58500000D03*
D19*
X145000000Y-55812500D03*
X145000000Y-57687500D03*
D20*
X143019000Y-52118000D03*
D21*
X145000000Y-103125000D03*
X136000000Y-103125000D03*
D22*
X142000000Y-101165000D03*
D23*
X139000000Y-101165000D03*
D28*
X113250000Y-61662500D03*
X113250000Y-59837500D03*
D29*
X130400000Y-63450000D03*
X130400000Y-62500000D03*
X130400000Y-61550000D03*
X127600000Y-61550000D03*
X127600000Y-63450000D03*
D30*
X135950000Y-63300000D03*
X137850000Y-63300000D03*
D21*
X124549000Y-51013000D03*
X133549000Y-51013000D03*
D31*
X127549000Y-52973000D03*
D23*
X130549000Y-52973000D03*
D16*
X125620000Y-73200000D03*
D17*
X123080000Y-73200000D03*
X120540000Y-73200000D03*
D32*
X135975000Y-60900000D03*
X137625000Y-60900000D03*
D33*
X125675000Y-90175000D03*
D34*
X132075000Y-92455000D03*
D33*
X125675000Y-94735000D03*
D20*
X115000000Y-52118000D03*
X137900000Y-52118000D03*
X120100000Y-52100000D03*
D18*
X158645000Y-59995000D03*
X155465000Y-59995000D03*
X158645000Y-67485000D03*
X155465000Y-67485000D03*
D28*
X145000000Y-61662500D03*
X145000000Y-59837500D03*
%LPD*%
M02*
