G04 #@! TF.GenerationSoftware,KiCad,Pcbnew,8.0.1*
G04 #@! TF.CreationDate,2024-04-15T13:35:02-05:00*
G04 #@! TF.ProjectId,Power-Secondary,506f7765-722d-4536-9563-6f6e64617279,rev?*
G04 #@! TF.SameCoordinates,Original*
G04 #@! TF.FileFunction,Copper,L2,Inr*
G04 #@! TF.FilePolarity,Positive*
%FSLAX46Y46*%
G04 Gerber Fmt 4.6, Leading zero omitted, Abs format (unit mm)*
G04 Created by KiCad (PCBNEW 8.0.1) date 2024-04-15 13:35:02*
%MOMM*%
%LPD*%
G01*
G04 APERTURE LIST*
G04 Aperture macros list*
%AMRoundRect*
0 Rectangle with rounded corners*
0 $1 Rounding radius*
0 $2 $3 $4 $5 $6 $7 $8 $9 X,Y pos of 4 corners*
0 Add a 4 corners polygon primitive as box body*
4,1,4,$2,$3,$4,$5,$6,$7,$8,$9,$2,$3,0*
0 Add four circle primitives for the rounded corners*
1,1,$1+$1,$2,$3*
1,1,$1+$1,$4,$5*
1,1,$1+$1,$6,$7*
1,1,$1+$1,$8,$9*
0 Add four rect primitives between the rounded corners*
20,1,$1+$1,$2,$3,$4,$5,0*
20,1,$1+$1,$4,$5,$6,$7,0*
20,1,$1+$1,$6,$7,$8,$9,0*
20,1,$1+$1,$8,$9,$2,$3,0*%
G04 Aperture macros list end*
G04 #@! TA.AperFunction,ComponentPad*
%ADD10R,3.430000X3.780000*%
G04 #@! TD*
G04 #@! TA.AperFunction,ComponentPad*
%ADD11R,2.085000X2.085000*%
G04 #@! TD*
G04 #@! TA.AperFunction,ComponentPad*
%ADD12C,2.085000*%
G04 #@! TD*
G04 #@! TA.AperFunction,ComponentPad*
%ADD13R,3.780000X3.430000*%
G04 #@! TD*
G04 #@! TA.AperFunction,ComponentPad*
%ADD14C,2.780000*%
G04 #@! TD*
G04 #@! TA.AperFunction,ComponentPad*
%ADD15RoundRect,0.250001X0.759999X-0.499999X0.759999X0.499999X-0.759999X0.499999X-0.759999X-0.499999X0*%
G04 #@! TD*
G04 #@! TA.AperFunction,ComponentPad*
%ADD16O,2.020000X1.500000*%
G04 #@! TD*
G04 #@! TA.AperFunction,ComponentPad*
%ADD17R,1.524000X1.524000*%
G04 #@! TD*
G04 #@! TA.AperFunction,ComponentPad*
%ADD18C,1.524000*%
G04 #@! TD*
G04 #@! TA.AperFunction,ComponentPad*
%ADD19RoundRect,0.250001X-0.499999X-0.759999X0.499999X-0.759999X0.499999X0.759999X-0.499999X0.759999X0*%
G04 #@! TD*
G04 #@! TA.AperFunction,ComponentPad*
%ADD20O,1.500000X2.020000*%
G04 #@! TD*
G04 #@! TA.AperFunction,ViaPad*
%ADD21C,0.800000*%
G04 #@! TD*
G04 #@! TA.AperFunction,Conductor*
%ADD22C,0.500000*%
G04 #@! TD*
G04 #@! TA.AperFunction,Conductor*
%ADD23C,2.000000*%
G04 #@! TD*
G04 APERTURE END LIST*
D10*
X213180000Y-86000000D03*
X210000000Y-86000000D03*
X213180000Y-93490000D03*
X210000000Y-93490000D03*
D11*
X173670000Y-51250000D03*
D12*
X176210000Y-51250000D03*
X178750000Y-51250000D03*
D10*
X157630000Y-79495000D03*
X160810000Y-79495000D03*
X157630000Y-72005000D03*
X160810000Y-72005000D03*
D11*
X173670000Y-74750000D03*
D12*
X176210000Y-74750000D03*
X178750000Y-74750000D03*
D13*
X195750000Y-94740000D03*
X195750000Y-91560000D03*
X188260000Y-94740000D03*
X188260000Y-91560000D03*
D11*
X206920000Y-75345000D03*
D12*
X209460000Y-75345000D03*
X212000000Y-75345000D03*
D14*
X191090000Y-58460000D03*
X194490000Y-58460000D03*
X191090000Y-48540000D03*
X194490000Y-48540000D03*
D15*
X155250000Y-108500000D03*
D16*
X155250000Y-105500000D03*
D10*
X157635000Y-54000000D03*
X160815000Y-54000000D03*
X157635000Y-46510000D03*
X160815000Y-46510000D03*
D14*
X170640000Y-80500000D03*
X170640000Y-83900000D03*
X180560000Y-80500000D03*
X180560000Y-83900000D03*
D17*
X202540000Y-104500000D03*
D18*
X200000000Y-104500000D03*
X197460000Y-104500000D03*
X194920000Y-104500000D03*
X192380000Y-104500000D03*
X189840000Y-104500000D03*
X187300000Y-104500000D03*
X184760000Y-104500000D03*
X182220000Y-104500000D03*
X179680000Y-104500000D03*
X177140000Y-104500000D03*
X174600000Y-104500000D03*
X172060000Y-104500000D03*
X169520000Y-104500000D03*
X166980000Y-104500000D03*
X166980000Y-119740000D03*
X169520000Y-119740000D03*
X172060000Y-119740000D03*
X174600000Y-119740000D03*
X177140000Y-119740000D03*
X179680000Y-119740000D03*
X182220000Y-119740000D03*
X184760000Y-119740000D03*
X187300000Y-119740000D03*
X189840000Y-119740000D03*
X192380000Y-119740000D03*
X194920000Y-119740000D03*
X197460000Y-119740000D03*
X200000000Y-119740000D03*
X202540000Y-119740000D03*
D13*
X197005000Y-30880000D03*
X197005000Y-34060000D03*
X204495000Y-30880000D03*
X204495000Y-34060000D03*
D11*
X173670000Y-59000000D03*
D12*
X176210000Y-59000000D03*
X178750000Y-59000000D03*
D11*
X212040000Y-58805000D03*
D12*
X209500000Y-58805000D03*
X206960000Y-58805000D03*
D11*
X173670000Y-67000000D03*
D12*
X176210000Y-67000000D03*
X178750000Y-67000000D03*
D11*
X206960000Y-52250000D03*
D12*
X209500000Y-52250000D03*
X212040000Y-52250000D03*
D15*
X155250000Y-95750000D03*
D16*
X155250000Y-92750000D03*
D14*
X169790000Y-41300000D03*
X169790000Y-44700000D03*
X179710000Y-41300000D03*
X179710000Y-44700000D03*
X194450000Y-68540000D03*
X191050000Y-68540000D03*
X194450000Y-78460000D03*
X191050000Y-78460000D03*
D11*
X212000000Y-66405000D03*
D12*
X209460000Y-66405000D03*
X206920000Y-66405000D03*
D19*
X181300000Y-27000000D03*
D20*
X184300000Y-27000000D03*
D21*
X199300000Y-98700000D03*
X205423000Y-99400000D03*
X202550000Y-116900000D03*
X174700000Y-99900000D03*
X174800000Y-37200000D03*
X180900000Y-99400000D03*
X174800000Y-32400000D03*
X178800000Y-100700000D03*
X174000000Y-27500000D03*
X171900000Y-101700000D03*
X169800000Y-27500000D03*
X180525000Y-33600000D03*
X183512500Y-116700000D03*
X206200000Y-89900000D03*
X205550000Y-114050000D03*
X204000000Y-97900000D03*
X169800000Y-31900000D03*
X172769763Y-97923000D03*
X202073576Y-44300017D03*
X202050000Y-72450000D03*
X166500000Y-77600000D03*
X166500000Y-93700000D03*
X166500000Y-86600000D03*
X214600000Y-38600000D03*
X166600000Y-47700000D03*
X206300000Y-45000000D03*
X206300000Y-42000000D03*
X210100000Y-45000000D03*
X210100000Y-42000000D03*
X179556250Y-36956250D03*
X173000000Y-39700000D03*
X201175000Y-53000000D03*
X200000000Y-101500000D03*
X159750000Y-102500000D03*
X202498069Y-75500000D03*
X176700000Y-94900000D03*
X172900000Y-91900000D03*
X176700000Y-91900000D03*
X172900000Y-94900000D03*
X179800000Y-100500000D03*
X167600000Y-37300000D03*
X167500000Y-86600000D03*
X170000000Y-97300000D03*
X167500000Y-77600000D03*
X204000000Y-96317813D03*
X180100000Y-97123000D03*
X203000000Y-53000000D03*
X203000578Y-44299422D03*
X165600000Y-27450000D03*
X165600000Y-36300000D03*
X173850000Y-101021000D03*
X165600000Y-47700000D03*
X178650000Y-102584000D03*
D22*
X202550000Y-116900000D02*
X202550000Y-115550000D01*
X205423000Y-112677000D02*
X205423000Y-99400000D01*
X202550000Y-115550000D02*
X205423000Y-112677000D01*
X206200000Y-113400000D02*
X206200000Y-89900000D01*
X205550000Y-114050000D02*
X206200000Y-113400000D01*
D23*
X176200000Y-59025000D02*
X176200000Y-51275000D01*
D22*
X205300000Y-96600000D02*
X205300000Y-76965000D01*
X206920000Y-75345000D02*
X206920000Y-71485000D01*
X205300000Y-76965000D02*
X206920000Y-75345000D01*
X204000000Y-97900000D02*
X205300000Y-96600000D01*
X202050000Y-72450000D02*
X202073576Y-72426424D01*
X206920000Y-71485000D02*
X212000000Y-66405000D01*
X202073576Y-72426424D02*
X202073576Y-44300017D01*
X166500000Y-93700000D02*
X166500000Y-86600000D01*
X166500000Y-77600000D02*
X166500000Y-47800000D01*
X166500000Y-47800000D02*
X166600000Y-47700000D01*
X200000000Y-101500000D02*
X202498069Y-99001931D01*
X202498069Y-99001931D02*
X202498069Y-75500000D01*
X167500000Y-94800000D02*
X167500000Y-86600000D01*
X170000000Y-97300000D02*
X167500000Y-94800000D01*
X167500000Y-77600000D02*
X167500000Y-65170000D01*
X167500000Y-65170000D02*
X173670000Y-59000000D01*
X204000000Y-96317813D02*
X204483343Y-95834470D01*
X212040000Y-59277523D02*
X212040000Y-58805000D01*
X212040000Y-58805000D02*
X212040000Y-57330000D01*
X212040000Y-57330000D02*
X206960000Y-52250000D01*
X203000000Y-53000000D02*
X206210000Y-53000000D01*
X204483343Y-66834180D02*
X212040000Y-59277523D01*
X206210000Y-53000000D02*
X206960000Y-52250000D01*
X203000000Y-44300000D02*
X203000578Y-44299422D01*
X204483343Y-95834470D02*
X204483343Y-66834180D01*
X203000000Y-53000000D02*
X203000000Y-44300000D01*
X173850000Y-74930000D02*
X173670000Y-74750000D01*
X173850000Y-101021000D02*
X173850000Y-74930000D01*
D23*
X176200000Y-74725000D02*
X176200000Y-66975000D01*
G04 #@! TA.AperFunction,Conductor*
G36*
X199743039Y-71519685D02*
G01*
X199788794Y-71572489D01*
X199800000Y-71624000D01*
X199800000Y-99076000D01*
X199780315Y-99143039D01*
X199727511Y-99188794D01*
X199676000Y-99200000D01*
X192424000Y-99200000D01*
X192356961Y-99180315D01*
X192311206Y-99127511D01*
X192300000Y-99076000D01*
X192300000Y-96455000D01*
X193360000Y-96455000D01*
X193360000Y-96502844D01*
X193366401Y-96562372D01*
X193366403Y-96562379D01*
X193416645Y-96697086D01*
X193416649Y-96697093D01*
X193502809Y-96812187D01*
X193502812Y-96812190D01*
X193617906Y-96898350D01*
X193617913Y-96898354D01*
X193752620Y-96948596D01*
X193752627Y-96948598D01*
X193812155Y-96954999D01*
X193812172Y-96955000D01*
X194035000Y-96955000D01*
X194035000Y-96455000D01*
X197465000Y-96455000D01*
X197465000Y-96955000D01*
X197687828Y-96955000D01*
X197687844Y-96954999D01*
X197747372Y-96948598D01*
X197747379Y-96948596D01*
X197882086Y-96898354D01*
X197882093Y-96898350D01*
X197997187Y-96812190D01*
X197997190Y-96812187D01*
X198083350Y-96697093D01*
X198083354Y-96697086D01*
X198133596Y-96562379D01*
X198133598Y-96562372D01*
X198139999Y-96502844D01*
X198140000Y-96502827D01*
X198140000Y-96455000D01*
X197465000Y-96455000D01*
X194035000Y-96455000D01*
X193360000Y-96455000D01*
X192300000Y-96455000D01*
X192300000Y-94827657D01*
X194860000Y-94827657D01*
X194894203Y-94999603D01*
X194961293Y-95161573D01*
X195058692Y-95307342D01*
X195182658Y-95431308D01*
X195328427Y-95528707D01*
X195490397Y-95595797D01*
X195662343Y-95630000D01*
X195837657Y-95630000D01*
X196009603Y-95595797D01*
X196171573Y-95528707D01*
X196317342Y-95431308D01*
X196441308Y-95307342D01*
X196538707Y-95161573D01*
X196605797Y-94999603D01*
X196640000Y-94827657D01*
X196640000Y-94652343D01*
X196605797Y-94480397D01*
X196538707Y-94318427D01*
X196441308Y-94172658D01*
X196317342Y-94048692D01*
X196171573Y-93951293D01*
X196009603Y-93884203D01*
X195837657Y-93850000D01*
X195662343Y-93850000D01*
X195490397Y-93884203D01*
X195328427Y-93951293D01*
X195182658Y-94048692D01*
X195058692Y-94172658D01*
X194961293Y-94318427D01*
X194894203Y-94480397D01*
X194860000Y-94652343D01*
X194860000Y-94827657D01*
X192300000Y-94827657D01*
X192300000Y-91647657D01*
X194860000Y-91647657D01*
X194894203Y-91819603D01*
X194961293Y-91981573D01*
X195058692Y-92127342D01*
X195182658Y-92251308D01*
X195328427Y-92348707D01*
X195490397Y-92415797D01*
X195662343Y-92450000D01*
X195837657Y-92450000D01*
X196009603Y-92415797D01*
X196171573Y-92348707D01*
X196317342Y-92251308D01*
X196441308Y-92127342D01*
X196538707Y-91981573D01*
X196605797Y-91819603D01*
X196640000Y-91647657D01*
X196640000Y-91472343D01*
X196605797Y-91300397D01*
X196538707Y-91138427D01*
X196441308Y-90992658D01*
X196317342Y-90868692D01*
X196171573Y-90771293D01*
X196009603Y-90704203D01*
X195837657Y-90670000D01*
X195662343Y-90670000D01*
X195490397Y-90704203D01*
X195328427Y-90771293D01*
X195182658Y-90868692D01*
X195058692Y-90992658D01*
X194961293Y-91138427D01*
X194894203Y-91300397D01*
X194860000Y-91472343D01*
X194860000Y-91647657D01*
X192300000Y-91647657D01*
X192300000Y-89845000D01*
X193360000Y-89845000D01*
X194035000Y-89845000D01*
X194035000Y-89345000D01*
X197465000Y-89345000D01*
X197465000Y-89845000D01*
X198140000Y-89845000D01*
X198140000Y-89797172D01*
X198139999Y-89797155D01*
X198133598Y-89737627D01*
X198133596Y-89737620D01*
X198083354Y-89602913D01*
X198083350Y-89602906D01*
X197997190Y-89487812D01*
X197997187Y-89487809D01*
X197882093Y-89401649D01*
X197882086Y-89401645D01*
X197747379Y-89351403D01*
X197747372Y-89351401D01*
X197687844Y-89345000D01*
X197465000Y-89345000D01*
X194035000Y-89345000D01*
X193812155Y-89345000D01*
X193752627Y-89351401D01*
X193752620Y-89351403D01*
X193617913Y-89401645D01*
X193617906Y-89401649D01*
X193502812Y-89487809D01*
X193502809Y-89487812D01*
X193416649Y-89602906D01*
X193416645Y-89602913D01*
X193366403Y-89737620D01*
X193366401Y-89737627D01*
X193360000Y-89797155D01*
X193360000Y-89845000D01*
X192300000Y-89845000D01*
X192300000Y-87500000D01*
X185924000Y-87500000D01*
X185856961Y-87480315D01*
X185811206Y-87427511D01*
X185800000Y-87376000D01*
X185800000Y-78547657D01*
X190160000Y-78547657D01*
X190194203Y-78719603D01*
X190261293Y-78881573D01*
X190358692Y-79027342D01*
X190482658Y-79151308D01*
X190628427Y-79248707D01*
X190790397Y-79315797D01*
X190962343Y-79350000D01*
X191137657Y-79350000D01*
X191309603Y-79315797D01*
X191471573Y-79248707D01*
X191617342Y-79151308D01*
X191741308Y-79027342D01*
X191838707Y-78881573D01*
X191905797Y-78719603D01*
X191940000Y-78547657D01*
X193560000Y-78547657D01*
X193594203Y-78719603D01*
X193661293Y-78881573D01*
X193758692Y-79027342D01*
X193882658Y-79151308D01*
X194028427Y-79248707D01*
X194190397Y-79315797D01*
X194362343Y-79350000D01*
X194537657Y-79350000D01*
X194709603Y-79315797D01*
X194871573Y-79248707D01*
X195017342Y-79151308D01*
X195141308Y-79027342D01*
X195238707Y-78881573D01*
X195305797Y-78719603D01*
X195340000Y-78547657D01*
X195340000Y-78372343D01*
X195305797Y-78200397D01*
X195238707Y-78038427D01*
X195141308Y-77892658D01*
X195017342Y-77768692D01*
X194871573Y-77671293D01*
X194709603Y-77604203D01*
X194537657Y-77570000D01*
X194362343Y-77570000D01*
X194190397Y-77604203D01*
X194028427Y-77671293D01*
X193882658Y-77768692D01*
X193758692Y-77892658D01*
X193661293Y-78038427D01*
X193594203Y-78200397D01*
X193560000Y-78372343D01*
X193560000Y-78547657D01*
X191940000Y-78547657D01*
X191940000Y-78372343D01*
X191905797Y-78200397D01*
X191838707Y-78038427D01*
X191741308Y-77892658D01*
X191617342Y-77768692D01*
X191471573Y-77671293D01*
X191309603Y-77604203D01*
X191137657Y-77570000D01*
X190962343Y-77570000D01*
X190790397Y-77604203D01*
X190628427Y-77671293D01*
X190482658Y-77768692D01*
X190358692Y-77892658D01*
X190261293Y-78038427D01*
X190194203Y-78200397D01*
X190160000Y-78372343D01*
X190160000Y-78547657D01*
X185800000Y-78547657D01*
X185800000Y-71624000D01*
X185819685Y-71556961D01*
X185872489Y-71511206D01*
X185924000Y-71500000D01*
X199676000Y-71500000D01*
X199743039Y-71519685D01*
G37*
G04 #@! TD.AperFunction*
G04 #@! TA.AperFunction,Conductor*
G36*
X185343039Y-71519685D02*
G01*
X185388794Y-71572489D01*
X185400000Y-71624000D01*
X185400000Y-87376000D01*
X185380315Y-87443039D01*
X185327511Y-87488794D01*
X185276000Y-87500000D01*
X177524000Y-87500000D01*
X177456961Y-87480315D01*
X177411206Y-87427511D01*
X177400000Y-87376000D01*
X177400000Y-83987657D01*
X179670000Y-83987657D01*
X179704203Y-84159603D01*
X179771293Y-84321573D01*
X179868692Y-84467342D01*
X179992658Y-84591308D01*
X180138427Y-84688707D01*
X180300397Y-84755797D01*
X180472343Y-84790000D01*
X180647657Y-84790000D01*
X180819603Y-84755797D01*
X180981573Y-84688707D01*
X181127342Y-84591308D01*
X181251308Y-84467342D01*
X181348707Y-84321573D01*
X181415797Y-84159603D01*
X181450000Y-83987657D01*
X181450000Y-83812343D01*
X181415797Y-83640397D01*
X181348707Y-83478427D01*
X181251308Y-83332658D01*
X181127342Y-83208692D01*
X180981573Y-83111293D01*
X180819603Y-83044203D01*
X180647657Y-83010000D01*
X180472343Y-83010000D01*
X180300397Y-83044203D01*
X180138427Y-83111293D01*
X179992658Y-83208692D01*
X179868692Y-83332658D01*
X179771293Y-83478427D01*
X179704203Y-83640397D01*
X179670000Y-83812343D01*
X179670000Y-83987657D01*
X177400000Y-83987657D01*
X177400000Y-80587657D01*
X179670000Y-80587657D01*
X179704203Y-80759603D01*
X179771293Y-80921573D01*
X179868692Y-81067342D01*
X179992658Y-81191308D01*
X180138427Y-81288707D01*
X180300397Y-81355797D01*
X180472343Y-81390000D01*
X180647657Y-81390000D01*
X180819603Y-81355797D01*
X180981573Y-81288707D01*
X181127342Y-81191308D01*
X181251308Y-81067342D01*
X181348707Y-80921573D01*
X181415797Y-80759603D01*
X181450000Y-80587657D01*
X181450000Y-80412343D01*
X181415797Y-80240397D01*
X181348707Y-80078427D01*
X181251308Y-79932658D01*
X181127342Y-79808692D01*
X180981573Y-79711293D01*
X180819603Y-79644203D01*
X180647657Y-79610000D01*
X180472343Y-79610000D01*
X180300397Y-79644203D01*
X180138427Y-79711293D01*
X179992658Y-79808692D01*
X179868692Y-79932658D01*
X179771293Y-80078427D01*
X179704203Y-80240397D01*
X179670000Y-80412343D01*
X179670000Y-80587657D01*
X177400000Y-80587657D01*
X177400000Y-76291946D01*
X178682371Y-76291946D01*
X178749999Y-76297269D01*
X178817627Y-76291946D01*
X178750000Y-76224318D01*
X178682371Y-76291946D01*
X177400000Y-76291946D01*
X177400000Y-75642236D01*
X177400000Y-75111442D01*
X177408638Y-75079206D01*
X177438792Y-74966669D01*
X177451759Y-74818452D01*
X178055000Y-74818452D01*
X178081708Y-74952724D01*
X178134099Y-75079206D01*
X178210158Y-75193037D01*
X178306963Y-75289842D01*
X178420794Y-75365901D01*
X178547276Y-75418292D01*
X178681548Y-75445000D01*
X178818452Y-75445000D01*
X178952724Y-75418292D01*
X179079206Y-75365901D01*
X179193037Y-75289842D01*
X179289842Y-75193037D01*
X179365901Y-75079206D01*
X179418292Y-74952724D01*
X179445000Y-74818452D01*
X179445000Y-74750000D01*
X180224318Y-74750000D01*
X180291946Y-74817627D01*
X180297269Y-74749999D01*
X180291946Y-74682371D01*
X180224318Y-74750000D01*
X179445000Y-74750000D01*
X179445000Y-74681548D01*
X179418292Y-74547276D01*
X179365901Y-74420794D01*
X179289842Y-74306963D01*
X179193037Y-74210158D01*
X179079206Y-74134099D01*
X178952724Y-74081708D01*
X178818452Y-74055000D01*
X178681548Y-74055000D01*
X178547276Y-74081708D01*
X178420794Y-74134099D01*
X178306963Y-74210158D01*
X178210158Y-74306963D01*
X178134099Y-74420794D01*
X178081708Y-74547276D01*
X178055000Y-74681548D01*
X178055000Y-74818452D01*
X177451759Y-74818452D01*
X177457748Y-74750000D01*
X177438792Y-74533331D01*
X177404725Y-74406190D01*
X177400500Y-74374097D01*
X177400500Y-73208052D01*
X178682370Y-73208052D01*
X178750000Y-73275681D01*
X178817629Y-73208051D01*
X178750000Y-73202730D01*
X178682370Y-73208051D01*
X178682370Y-73208052D01*
X177400500Y-73208052D01*
X177400500Y-71624000D01*
X177420185Y-71556961D01*
X177472989Y-71511206D01*
X177524500Y-71500000D01*
X185276000Y-71500000D01*
X185343039Y-71519685D01*
G37*
G04 #@! TD.AperFunction*
G04 #@! TA.AperFunction,Conductor*
G36*
X173443039Y-39169685D02*
G01*
X173488794Y-39222489D01*
X173500000Y-39274000D01*
X173500000Y-47526000D01*
X173480315Y-47593039D01*
X173427511Y-47638794D01*
X173376000Y-47650000D01*
X167307844Y-47650000D01*
X167240805Y-47630315D01*
X167195050Y-47577511D01*
X167187439Y-47551009D01*
X167187147Y-47551088D01*
X167185044Y-47543239D01*
X167185044Y-47543238D01*
X167124536Y-47397159D01*
X167028282Y-47271718D01*
X166902841Y-47175464D01*
X166756762Y-47114956D01*
X166756760Y-47114955D01*
X166600001Y-47094318D01*
X166599999Y-47094318D01*
X166443239Y-47114955D01*
X166443237Y-47114956D01*
X166297157Y-47175464D01*
X166175486Y-47268826D01*
X166110317Y-47294020D01*
X166041872Y-47279981D01*
X166024514Y-47268826D01*
X165902842Y-47175464D01*
X165756762Y-47114956D01*
X165756760Y-47114955D01*
X165600001Y-47094318D01*
X165599999Y-47094318D01*
X165443239Y-47114955D01*
X165443237Y-47114956D01*
X165297160Y-47175463D01*
X165171718Y-47271718D01*
X165075463Y-47397160D01*
X165014956Y-47543237D01*
X165014956Y-47543239D01*
X165006531Y-47607231D01*
X165000000Y-47621993D01*
X165000000Y-47648714D01*
X164998939Y-47664899D01*
X164994318Y-47699998D01*
X164994318Y-47699999D01*
X164998939Y-47735099D01*
X165000000Y-47751285D01*
X165000000Y-77650000D01*
X165792156Y-77650000D01*
X165859195Y-77669685D01*
X165904950Y-77722489D01*
X165912560Y-77748990D01*
X165912853Y-77748912D01*
X165914956Y-77756762D01*
X165924581Y-77780000D01*
X165975464Y-77902841D01*
X166071718Y-78028282D01*
X166197159Y-78124536D01*
X166343238Y-78185044D01*
X166421619Y-78195363D01*
X166499999Y-78205682D01*
X166500000Y-78205682D01*
X166500001Y-78205682D01*
X166552254Y-78198802D01*
X166656762Y-78185044D01*
X166802841Y-78124536D01*
X166924515Y-78031171D01*
X166989683Y-78005979D01*
X167058127Y-78020017D01*
X167075478Y-78031167D01*
X167197159Y-78124536D01*
X167343238Y-78185044D01*
X167421619Y-78195363D01*
X167499999Y-78205682D01*
X167500000Y-78205682D01*
X167500001Y-78205682D01*
X167552254Y-78198802D01*
X167656762Y-78185044D01*
X167802841Y-78124536D01*
X167928282Y-78028282D01*
X168024536Y-77902841D01*
X168085044Y-77756762D01*
X168085044Y-77756754D01*
X168087147Y-77748912D01*
X168088664Y-77749318D01*
X168113169Y-77693921D01*
X168171492Y-77655448D01*
X168207844Y-77650000D01*
X173275500Y-77650000D01*
X173342539Y-77669685D01*
X173388294Y-77722489D01*
X173399500Y-77774000D01*
X173399500Y-86526000D01*
X173379815Y-86593039D01*
X173327011Y-86638794D01*
X173275500Y-86650000D01*
X168221010Y-86650000D01*
X168153971Y-86630315D01*
X168108216Y-86577511D01*
X168098071Y-86542186D01*
X168094932Y-86518348D01*
X168085044Y-86443238D01*
X168024536Y-86297159D01*
X167928282Y-86171718D01*
X167802841Y-86075464D01*
X167656762Y-86014956D01*
X167656760Y-86014955D01*
X167500001Y-85994318D01*
X167499999Y-85994318D01*
X167343239Y-86014955D01*
X167343237Y-86014956D01*
X167197157Y-86075464D01*
X167075486Y-86168826D01*
X167010317Y-86194020D01*
X166941872Y-86179981D01*
X166924514Y-86168826D01*
X166802842Y-86075464D01*
X166656762Y-86014956D01*
X166656760Y-86014955D01*
X166500001Y-85994318D01*
X166499999Y-85994318D01*
X166343239Y-86014955D01*
X166343237Y-86014956D01*
X166197160Y-86075463D01*
X166071718Y-86171718D01*
X165975463Y-86297160D01*
X165914956Y-86443237D01*
X165914956Y-86443238D01*
X165901929Y-86542186D01*
X165873662Y-86606082D01*
X165815338Y-86644553D01*
X165778990Y-86650000D01*
X150624000Y-86650000D01*
X150556961Y-86630315D01*
X150511206Y-86577511D01*
X150500000Y-86526000D01*
X150500000Y-83987657D01*
X169750000Y-83987657D01*
X169784203Y-84159603D01*
X169851293Y-84321573D01*
X169948692Y-84467342D01*
X170072658Y-84591308D01*
X170218427Y-84688707D01*
X170380397Y-84755797D01*
X170552343Y-84790000D01*
X170727657Y-84790000D01*
X170899603Y-84755797D01*
X171061573Y-84688707D01*
X171207342Y-84591308D01*
X171331308Y-84467342D01*
X171428707Y-84321573D01*
X171495797Y-84159603D01*
X171530000Y-83987657D01*
X171530000Y-83812343D01*
X171495797Y-83640397D01*
X171428707Y-83478427D01*
X171331308Y-83332658D01*
X171207342Y-83208692D01*
X171061573Y-83111293D01*
X170899603Y-83044203D01*
X170727657Y-83010000D01*
X170552343Y-83010000D01*
X170380397Y-83044203D01*
X170218427Y-83111293D01*
X170072658Y-83208692D01*
X169948692Y-83332658D01*
X169851293Y-83478427D01*
X169784203Y-83640397D01*
X169750000Y-83812343D01*
X169750000Y-83987657D01*
X150500000Y-83987657D01*
X150500000Y-81210000D01*
X155415000Y-81210000D01*
X155415000Y-81432844D01*
X155421401Y-81492372D01*
X155421403Y-81492379D01*
X155471645Y-81627086D01*
X155471649Y-81627093D01*
X155557809Y-81742187D01*
X155557812Y-81742190D01*
X155672906Y-81828350D01*
X155672913Y-81828354D01*
X155807620Y-81878596D01*
X155807627Y-81878598D01*
X155867155Y-81884999D01*
X155867172Y-81885000D01*
X155915000Y-81885000D01*
X155915000Y-81210000D01*
X162525000Y-81210000D01*
X162525000Y-81885000D01*
X162572828Y-81885000D01*
X162572844Y-81884999D01*
X162632372Y-81878598D01*
X162632379Y-81878596D01*
X162767086Y-81828354D01*
X162767093Y-81828350D01*
X162882187Y-81742190D01*
X162882190Y-81742187D01*
X162968350Y-81627093D01*
X162968354Y-81627086D01*
X163018596Y-81492379D01*
X163018598Y-81492372D01*
X163024999Y-81432844D01*
X163025000Y-81432827D01*
X163025000Y-81210000D01*
X162525000Y-81210000D01*
X155915000Y-81210000D01*
X155415000Y-81210000D01*
X150500000Y-81210000D01*
X150500000Y-80587657D01*
X169750000Y-80587657D01*
X169784203Y-80759603D01*
X169851293Y-80921573D01*
X169948692Y-81067342D01*
X170072658Y-81191308D01*
X170218427Y-81288707D01*
X170380397Y-81355797D01*
X170552343Y-81390000D01*
X170727657Y-81390000D01*
X170899603Y-81355797D01*
X171061573Y-81288707D01*
X171207342Y-81191308D01*
X171331308Y-81067342D01*
X171428707Y-80921573D01*
X171495797Y-80759603D01*
X171530000Y-80587657D01*
X171530000Y-80412343D01*
X171495797Y-80240397D01*
X171428707Y-80078427D01*
X171331308Y-79932658D01*
X171207342Y-79808692D01*
X171061573Y-79711293D01*
X170899603Y-79644203D01*
X170727657Y-79610000D01*
X170552343Y-79610000D01*
X170380397Y-79644203D01*
X170218427Y-79711293D01*
X170072658Y-79808692D01*
X169948692Y-79932658D01*
X169851293Y-80078427D01*
X169784203Y-80240397D01*
X169750000Y-80412343D01*
X169750000Y-80587657D01*
X150500000Y-80587657D01*
X150500000Y-79582657D01*
X156740000Y-79582657D01*
X156774203Y-79754603D01*
X156841293Y-79916573D01*
X156938692Y-80062342D01*
X157062658Y-80186308D01*
X157208427Y-80283707D01*
X157370397Y-80350797D01*
X157542343Y-80385000D01*
X157717657Y-80385000D01*
X157889603Y-80350797D01*
X158051573Y-80283707D01*
X158197342Y-80186308D01*
X158321308Y-80062342D01*
X158418707Y-79916573D01*
X158485797Y-79754603D01*
X158520000Y-79582657D01*
X159920000Y-79582657D01*
X159954203Y-79754603D01*
X160021293Y-79916573D01*
X160118692Y-80062342D01*
X160242658Y-80186308D01*
X160388427Y-80283707D01*
X160550397Y-80350797D01*
X160722343Y-80385000D01*
X160897657Y-80385000D01*
X161069603Y-80350797D01*
X161231573Y-80283707D01*
X161377342Y-80186308D01*
X161501308Y-80062342D01*
X161598707Y-79916573D01*
X161665797Y-79754603D01*
X161700000Y-79582657D01*
X161700000Y-79407343D01*
X161665797Y-79235397D01*
X161598707Y-79073427D01*
X161501308Y-78927658D01*
X161377342Y-78803692D01*
X161231573Y-78706293D01*
X161069603Y-78639203D01*
X160897657Y-78605000D01*
X160722343Y-78605000D01*
X160550397Y-78639203D01*
X160388427Y-78706293D01*
X160242658Y-78803692D01*
X160118692Y-78927658D01*
X160021293Y-79073427D01*
X159954203Y-79235397D01*
X159920000Y-79407343D01*
X159920000Y-79582657D01*
X158520000Y-79582657D01*
X158520000Y-79407343D01*
X158485797Y-79235397D01*
X158418707Y-79073427D01*
X158321308Y-78927658D01*
X158197342Y-78803692D01*
X158051573Y-78706293D01*
X157889603Y-78639203D01*
X157717657Y-78605000D01*
X157542343Y-78605000D01*
X157370397Y-78639203D01*
X157208427Y-78706293D01*
X157062658Y-78803692D01*
X156938692Y-78927658D01*
X156841293Y-79073427D01*
X156774203Y-79235397D01*
X156740000Y-79407343D01*
X156740000Y-79582657D01*
X150500000Y-79582657D01*
X150500000Y-77780000D01*
X155415000Y-77780000D01*
X155915000Y-77780000D01*
X155915000Y-77105000D01*
X162525000Y-77105000D01*
X162525000Y-77780000D01*
X163025000Y-77780000D01*
X163025000Y-77557172D01*
X163024999Y-77557155D01*
X163018598Y-77497627D01*
X163018596Y-77497620D01*
X162968354Y-77362913D01*
X162968350Y-77362906D01*
X162882190Y-77247812D01*
X162882187Y-77247809D01*
X162767093Y-77161649D01*
X162767086Y-77161645D01*
X162632379Y-77111403D01*
X162632372Y-77111401D01*
X162572844Y-77105000D01*
X162525000Y-77105000D01*
X155915000Y-77105000D01*
X155867155Y-77105000D01*
X155807627Y-77111401D01*
X155807620Y-77111403D01*
X155672913Y-77161645D01*
X155672906Y-77161649D01*
X155557812Y-77247809D01*
X155557809Y-77247812D01*
X155471649Y-77362906D01*
X155471645Y-77362913D01*
X155421403Y-77497620D01*
X155421401Y-77497627D01*
X155415000Y-77557155D01*
X155415000Y-77780000D01*
X150500000Y-77780000D01*
X150500000Y-73914752D01*
X155714500Y-73914752D01*
X155726131Y-73973229D01*
X155726132Y-73973230D01*
X155770447Y-74039552D01*
X155836769Y-74083867D01*
X155836770Y-74083868D01*
X155895247Y-74095499D01*
X155895250Y-74095500D01*
X155895252Y-74095500D01*
X162544750Y-74095500D01*
X162544751Y-74095499D01*
X162559568Y-74092552D01*
X162603229Y-74083868D01*
X162603229Y-74083867D01*
X162603231Y-74083867D01*
X162669552Y-74039552D01*
X162713867Y-73973231D01*
X162713867Y-73973229D01*
X162713868Y-73973229D01*
X162725499Y-73914752D01*
X162725500Y-73914750D01*
X162725500Y-70095249D01*
X162725499Y-70095247D01*
X162713868Y-70036770D01*
X162713867Y-70036769D01*
X162669552Y-69970447D01*
X162603230Y-69926132D01*
X162603229Y-69926131D01*
X162544752Y-69914500D01*
X162544748Y-69914500D01*
X159364748Y-69914500D01*
X155895252Y-69914500D01*
X155895247Y-69914500D01*
X155836770Y-69926131D01*
X155836769Y-69926132D01*
X155770447Y-69970447D01*
X155726132Y-70036769D01*
X155726131Y-70036770D01*
X155714500Y-70095247D01*
X155714500Y-73914752D01*
X150500000Y-73914752D01*
X150500000Y-55715000D01*
X155420000Y-55715000D01*
X155420000Y-55937844D01*
X155426401Y-55997372D01*
X155426403Y-55997379D01*
X155476645Y-56132086D01*
X155476649Y-56132093D01*
X155562809Y-56247187D01*
X155562812Y-56247190D01*
X155677906Y-56333350D01*
X155677913Y-56333354D01*
X155812620Y-56383596D01*
X155812627Y-56383598D01*
X155872155Y-56389999D01*
X155872172Y-56390000D01*
X155920000Y-56390000D01*
X155920000Y-55715000D01*
X162530000Y-55715000D01*
X162530000Y-56390000D01*
X162577828Y-56390000D01*
X162577844Y-56389999D01*
X162637372Y-56383598D01*
X162637379Y-56383596D01*
X162772086Y-56333354D01*
X162772093Y-56333350D01*
X162887187Y-56247190D01*
X162887190Y-56247187D01*
X162973350Y-56132093D01*
X162973354Y-56132086D01*
X163023596Y-55997379D01*
X163023598Y-55997372D01*
X163029999Y-55937844D01*
X163030000Y-55937827D01*
X163030000Y-55715000D01*
X162530000Y-55715000D01*
X155920000Y-55715000D01*
X155420000Y-55715000D01*
X150500000Y-55715000D01*
X150500000Y-54087657D01*
X156745000Y-54087657D01*
X156779203Y-54259603D01*
X156846293Y-54421573D01*
X156943692Y-54567342D01*
X157067658Y-54691308D01*
X157213427Y-54788707D01*
X157375397Y-54855797D01*
X157547343Y-54890000D01*
X157722657Y-54890000D01*
X157894603Y-54855797D01*
X158056573Y-54788707D01*
X158202342Y-54691308D01*
X158326308Y-54567342D01*
X158423707Y-54421573D01*
X158490797Y-54259603D01*
X158525000Y-54087657D01*
X159925000Y-54087657D01*
X159959203Y-54259603D01*
X160026293Y-54421573D01*
X160123692Y-54567342D01*
X160247658Y-54691308D01*
X160393427Y-54788707D01*
X160555397Y-54855797D01*
X160727343Y-54890000D01*
X160902657Y-54890000D01*
X161074603Y-54855797D01*
X161236573Y-54788707D01*
X161382342Y-54691308D01*
X161506308Y-54567342D01*
X161603707Y-54421573D01*
X161670797Y-54259603D01*
X161705000Y-54087657D01*
X161705000Y-53912343D01*
X161670797Y-53740397D01*
X161603707Y-53578427D01*
X161506308Y-53432658D01*
X161382342Y-53308692D01*
X161236573Y-53211293D01*
X161074603Y-53144203D01*
X160902657Y-53110000D01*
X160727343Y-53110000D01*
X160555397Y-53144203D01*
X160393427Y-53211293D01*
X160247658Y-53308692D01*
X160123692Y-53432658D01*
X160026293Y-53578427D01*
X159959203Y-53740397D01*
X159925000Y-53912343D01*
X159925000Y-54087657D01*
X158525000Y-54087657D01*
X158525000Y-53912343D01*
X158490797Y-53740397D01*
X158423707Y-53578427D01*
X158326308Y-53432658D01*
X158202342Y-53308692D01*
X158056573Y-53211293D01*
X157894603Y-53144203D01*
X157722657Y-53110000D01*
X157547343Y-53110000D01*
X157375397Y-53144203D01*
X157213427Y-53211293D01*
X157067658Y-53308692D01*
X156943692Y-53432658D01*
X156846293Y-53578427D01*
X156779203Y-53740397D01*
X156745000Y-53912343D01*
X156745000Y-54087657D01*
X150500000Y-54087657D01*
X150500000Y-52285000D01*
X155420000Y-52285000D01*
X155920000Y-52285000D01*
X155920000Y-51610000D01*
X162530000Y-51610000D01*
X162530000Y-52285000D01*
X163030000Y-52285000D01*
X163030000Y-52062172D01*
X163029999Y-52062155D01*
X163023598Y-52002627D01*
X163023596Y-52002620D01*
X162973354Y-51867913D01*
X162973350Y-51867906D01*
X162887190Y-51752812D01*
X162887187Y-51752809D01*
X162772093Y-51666649D01*
X162772086Y-51666645D01*
X162637379Y-51616403D01*
X162637372Y-51616401D01*
X162577844Y-51610000D01*
X162530000Y-51610000D01*
X155920000Y-51610000D01*
X155872155Y-51610000D01*
X155812627Y-51616401D01*
X155812620Y-51616403D01*
X155677913Y-51666645D01*
X155677906Y-51666649D01*
X155562812Y-51752809D01*
X155562809Y-51752812D01*
X155476649Y-51867906D01*
X155476645Y-51867913D01*
X155426403Y-52002620D01*
X155426401Y-52002627D01*
X155420000Y-52062155D01*
X155420000Y-52285000D01*
X150500000Y-52285000D01*
X150500000Y-48419752D01*
X155719500Y-48419752D01*
X155731131Y-48478229D01*
X155731132Y-48478230D01*
X155775447Y-48544552D01*
X155841769Y-48588867D01*
X155841770Y-48588868D01*
X155900247Y-48600499D01*
X155900250Y-48600500D01*
X155900252Y-48600500D01*
X162549750Y-48600500D01*
X162549751Y-48600499D01*
X162564568Y-48597552D01*
X162608229Y-48588868D01*
X162608229Y-48588867D01*
X162608231Y-48588867D01*
X162674552Y-48544552D01*
X162718867Y-48478231D01*
X162718867Y-48478229D01*
X162718868Y-48478229D01*
X162730499Y-48419752D01*
X162730500Y-48419750D01*
X162730500Y-44787657D01*
X168900000Y-44787657D01*
X168934203Y-44959603D01*
X169001293Y-45121573D01*
X169098692Y-45267342D01*
X169222658Y-45391308D01*
X169368427Y-45488707D01*
X169530397Y-45555797D01*
X169702343Y-45590000D01*
X169877657Y-45590000D01*
X170049603Y-45555797D01*
X170211573Y-45488707D01*
X170357342Y-45391308D01*
X170481308Y-45267342D01*
X170578707Y-45121573D01*
X170645797Y-44959603D01*
X170680000Y-44787657D01*
X170680000Y-44612343D01*
X170645797Y-44440397D01*
X170578707Y-44278427D01*
X170481308Y-44132658D01*
X170357342Y-44008692D01*
X170211573Y-43911293D01*
X170049603Y-43844203D01*
X169877657Y-43810000D01*
X169702343Y-43810000D01*
X169530397Y-43844203D01*
X169368427Y-43911293D01*
X169222658Y-44008692D01*
X169098692Y-44132658D01*
X169001293Y-44278427D01*
X168934203Y-44440397D01*
X168900000Y-44612343D01*
X168900000Y-44787657D01*
X162730500Y-44787657D01*
X162730500Y-44600249D01*
X162730499Y-44600247D01*
X162718868Y-44541770D01*
X162718867Y-44541769D01*
X162674552Y-44475447D01*
X162608230Y-44431132D01*
X162608229Y-44431131D01*
X162549752Y-44419500D01*
X162549748Y-44419500D01*
X159369748Y-44419500D01*
X155900252Y-44419500D01*
X155900247Y-44419500D01*
X155841770Y-44431131D01*
X155841769Y-44431132D01*
X155775447Y-44475447D01*
X155731132Y-44541769D01*
X155731131Y-44541770D01*
X155719500Y-44600247D01*
X155719500Y-48419752D01*
X150500000Y-48419752D01*
X150500000Y-41387657D01*
X168900000Y-41387657D01*
X168934203Y-41559603D01*
X169001293Y-41721573D01*
X169098692Y-41867342D01*
X169222658Y-41991308D01*
X169368427Y-42088707D01*
X169530397Y-42155797D01*
X169702343Y-42190000D01*
X169877657Y-42190000D01*
X170049603Y-42155797D01*
X170211573Y-42088707D01*
X170357342Y-41991308D01*
X170481308Y-41867342D01*
X170578707Y-41721573D01*
X170645797Y-41559603D01*
X170680000Y-41387657D01*
X170680000Y-41212343D01*
X170645797Y-41040397D01*
X170578707Y-40878427D01*
X170481308Y-40732658D01*
X170357342Y-40608692D01*
X170211573Y-40511293D01*
X170049603Y-40444203D01*
X169877657Y-40410000D01*
X169702343Y-40410000D01*
X169530397Y-40444203D01*
X169368427Y-40511293D01*
X169222658Y-40608692D01*
X169098692Y-40732658D01*
X169001293Y-40878427D01*
X168934203Y-41040397D01*
X168900000Y-41212343D01*
X168900000Y-41387657D01*
X150500000Y-41387657D01*
X150500000Y-39274000D01*
X150519685Y-39206961D01*
X150572489Y-39161206D01*
X150624000Y-39150000D01*
X169206325Y-39150000D01*
X170373675Y-39150000D01*
X173376000Y-39150000D01*
X173443039Y-39169685D01*
G37*
G04 #@! TD.AperFunction*
G04 #@! TA.AperFunction,Conductor*
G36*
X218143039Y-48719685D02*
G01*
X218188794Y-48772489D01*
X218200000Y-48824000D01*
X218200000Y-90276000D01*
X218180315Y-90343039D01*
X218127511Y-90388794D01*
X218076000Y-90400000D01*
X205874500Y-90400000D01*
X205807461Y-90380315D01*
X205761706Y-90327511D01*
X205750500Y-90276000D01*
X205750500Y-87715000D01*
X207785000Y-87715000D01*
X207785000Y-87937844D01*
X207791401Y-87997372D01*
X207791403Y-87997379D01*
X207841645Y-88132086D01*
X207841649Y-88132093D01*
X207927809Y-88247187D01*
X207927812Y-88247190D01*
X208042906Y-88333350D01*
X208042913Y-88333354D01*
X208177620Y-88383596D01*
X208177627Y-88383598D01*
X208237155Y-88389999D01*
X208237172Y-88390000D01*
X208285000Y-88390000D01*
X208285000Y-87715000D01*
X214895000Y-87715000D01*
X214895000Y-88390000D01*
X214942828Y-88390000D01*
X214942844Y-88389999D01*
X215002372Y-88383598D01*
X215002379Y-88383596D01*
X215137086Y-88333354D01*
X215137093Y-88333350D01*
X215252187Y-88247190D01*
X215252190Y-88247187D01*
X215338350Y-88132093D01*
X215338354Y-88132086D01*
X215388596Y-87997379D01*
X215388598Y-87997372D01*
X215394999Y-87937844D01*
X215395000Y-87937827D01*
X215395000Y-87715000D01*
X214895000Y-87715000D01*
X208285000Y-87715000D01*
X207785000Y-87715000D01*
X205750500Y-87715000D01*
X205750500Y-86087657D01*
X209110000Y-86087657D01*
X209144203Y-86259603D01*
X209211293Y-86421573D01*
X209308692Y-86567342D01*
X209432658Y-86691308D01*
X209578427Y-86788707D01*
X209740397Y-86855797D01*
X209912343Y-86890000D01*
X210087657Y-86890000D01*
X210259603Y-86855797D01*
X210421573Y-86788707D01*
X210567342Y-86691308D01*
X210691308Y-86567342D01*
X210788707Y-86421573D01*
X210855797Y-86259603D01*
X210890000Y-86087657D01*
X212290000Y-86087657D01*
X212324203Y-86259603D01*
X212391293Y-86421573D01*
X212488692Y-86567342D01*
X212612658Y-86691308D01*
X212758427Y-86788707D01*
X212920397Y-86855797D01*
X213092343Y-86890000D01*
X213267657Y-86890000D01*
X213439603Y-86855797D01*
X213601573Y-86788707D01*
X213747342Y-86691308D01*
X213871308Y-86567342D01*
X213968707Y-86421573D01*
X214035797Y-86259603D01*
X214070000Y-86087657D01*
X214070000Y-85912343D01*
X214035797Y-85740397D01*
X213968707Y-85578427D01*
X213871308Y-85432658D01*
X213747342Y-85308692D01*
X213601573Y-85211293D01*
X213439603Y-85144203D01*
X213267657Y-85110000D01*
X213092343Y-85110000D01*
X212920397Y-85144203D01*
X212758427Y-85211293D01*
X212612658Y-85308692D01*
X212488692Y-85432658D01*
X212391293Y-85578427D01*
X212324203Y-85740397D01*
X212290000Y-85912343D01*
X212290000Y-86087657D01*
X210890000Y-86087657D01*
X210890000Y-85912343D01*
X210855797Y-85740397D01*
X210788707Y-85578427D01*
X210691308Y-85432658D01*
X210567342Y-85308692D01*
X210421573Y-85211293D01*
X210259603Y-85144203D01*
X210087657Y-85110000D01*
X209912343Y-85110000D01*
X209740397Y-85144203D01*
X209578427Y-85211293D01*
X209432658Y-85308692D01*
X209308692Y-85432658D01*
X209211293Y-85578427D01*
X209144203Y-85740397D01*
X209110000Y-85912343D01*
X209110000Y-86087657D01*
X205750500Y-86087657D01*
X205750500Y-84285000D01*
X207785000Y-84285000D01*
X208285000Y-84285000D01*
X208285000Y-83610000D01*
X214895000Y-83610000D01*
X214895000Y-84285000D01*
X215395000Y-84285000D01*
X215395000Y-84062172D01*
X215394999Y-84062155D01*
X215388598Y-84002627D01*
X215388596Y-84002620D01*
X215338354Y-83867913D01*
X215338350Y-83867906D01*
X215252190Y-83752812D01*
X215252187Y-83752809D01*
X215137093Y-83666649D01*
X215137086Y-83666645D01*
X215002379Y-83616403D01*
X215002372Y-83616401D01*
X214942844Y-83610000D01*
X214895000Y-83610000D01*
X208285000Y-83610000D01*
X208237155Y-83610000D01*
X208177627Y-83616401D01*
X208177620Y-83616403D01*
X208042913Y-83666645D01*
X208042906Y-83666649D01*
X207927812Y-83752809D01*
X207927809Y-83752812D01*
X207841649Y-83867906D01*
X207841645Y-83867913D01*
X207791403Y-84002620D01*
X207791401Y-84002627D01*
X207785000Y-84062155D01*
X207785000Y-84285000D01*
X205750500Y-84285000D01*
X205750500Y-78824000D01*
X205770185Y-78756961D01*
X205822989Y-78711206D01*
X205874500Y-78700000D01*
X210700000Y-78700000D01*
X210700000Y-76886946D01*
X211932371Y-76886946D01*
X211999999Y-76892269D01*
X212067627Y-76886946D01*
X212000000Y-76819318D01*
X211932371Y-76886946D01*
X210700000Y-76886946D01*
X210700000Y-76287236D01*
X210700000Y-75433558D01*
X210701759Y-75413452D01*
X211305000Y-75413452D01*
X211331708Y-75547724D01*
X211384099Y-75674206D01*
X211460158Y-75788037D01*
X211556963Y-75884842D01*
X211670794Y-75960901D01*
X211797276Y-76013292D01*
X211931548Y-76040000D01*
X212068452Y-76040000D01*
X212202724Y-76013292D01*
X212329206Y-75960901D01*
X212443037Y-75884842D01*
X212539842Y-75788037D01*
X212615901Y-75674206D01*
X212668292Y-75547724D01*
X212695000Y-75413452D01*
X212695000Y-75345000D01*
X213474318Y-75345000D01*
X213541946Y-75412627D01*
X213547269Y-75344999D01*
X213541946Y-75277371D01*
X213474318Y-75345000D01*
X212695000Y-75345000D01*
X212695000Y-75276548D01*
X212668292Y-75142276D01*
X212615901Y-75015794D01*
X212539842Y-74901963D01*
X212443037Y-74805158D01*
X212329206Y-74729099D01*
X212202724Y-74676708D01*
X212068452Y-74650000D01*
X211931548Y-74650000D01*
X211797276Y-74676708D01*
X211670794Y-74729099D01*
X211556963Y-74805158D01*
X211460158Y-74901963D01*
X211384099Y-75015794D01*
X211331708Y-75142276D01*
X211305000Y-75276548D01*
X211305000Y-75413452D01*
X210701759Y-75413452D01*
X210707748Y-75345001D01*
X210707748Y-75344998D01*
X210700000Y-75256440D01*
X210700000Y-73803052D01*
X211932370Y-73803052D01*
X212000000Y-73870681D01*
X212067629Y-73803051D01*
X212000000Y-73797730D01*
X211932370Y-73803051D01*
X211932370Y-73803052D01*
X210700000Y-73803052D01*
X210700000Y-68393465D01*
X210719685Y-68326426D01*
X210736319Y-68305784D01*
X211357784Y-67684319D01*
X211419107Y-67650834D01*
X211445465Y-67648000D01*
X213062250Y-67648000D01*
X213062251Y-67647999D01*
X213077068Y-67645052D01*
X213120729Y-67636368D01*
X213120729Y-67636367D01*
X213120731Y-67636367D01*
X213187052Y-67592052D01*
X213231367Y-67525731D01*
X213231367Y-67525729D01*
X213231368Y-67525729D01*
X213242999Y-67467252D01*
X213243000Y-67467250D01*
X213243000Y-65342749D01*
X213242999Y-65342747D01*
X213231368Y-65284270D01*
X213231367Y-65284269D01*
X213187052Y-65217947D01*
X213120730Y-65173632D01*
X213120729Y-65173631D01*
X213062252Y-65162000D01*
X213062248Y-65162000D01*
X210937752Y-65162000D01*
X210937747Y-65162000D01*
X210879268Y-65173632D01*
X210871452Y-65176870D01*
X210801983Y-65184339D01*
X210739504Y-65153064D01*
X210703852Y-65092975D01*
X210700000Y-65062309D01*
X210700000Y-61305988D01*
X210719685Y-61238949D01*
X210736316Y-61218309D01*
X211870308Y-60084319D01*
X211931631Y-60050834D01*
X211957989Y-60048000D01*
X213102250Y-60048000D01*
X213102251Y-60047999D01*
X213117068Y-60045052D01*
X213160729Y-60036368D01*
X213160729Y-60036367D01*
X213160731Y-60036367D01*
X213227052Y-59992052D01*
X213271367Y-59925731D01*
X213271367Y-59925729D01*
X213271368Y-59925729D01*
X213282999Y-59867252D01*
X213283000Y-59867250D01*
X213283000Y-57742749D01*
X213282999Y-57742747D01*
X213271368Y-57684270D01*
X213271367Y-57684269D01*
X213227052Y-57617947D01*
X213160730Y-57573632D01*
X213160729Y-57573631D01*
X213102252Y-57562000D01*
X213102248Y-57562000D01*
X212614500Y-57562000D01*
X212547461Y-57542315D01*
X212501706Y-57489511D01*
X212490500Y-57438000D01*
X212490500Y-57270693D01*
X212490500Y-57270691D01*
X212459799Y-57156114D01*
X212459799Y-57156113D01*
X212400489Y-57053386D01*
X210736319Y-55389216D01*
X210702834Y-55327893D01*
X210700000Y-55301535D01*
X210700000Y-53791946D01*
X211972371Y-53791946D01*
X212039999Y-53797269D01*
X212107627Y-53791946D01*
X212040000Y-53724318D01*
X211972371Y-53791946D01*
X210700000Y-53791946D01*
X210700000Y-53152236D01*
X210700000Y-52574122D01*
X210728792Y-52466669D01*
X210741759Y-52318452D01*
X211345000Y-52318452D01*
X211371708Y-52452724D01*
X211424099Y-52579206D01*
X211500158Y-52693037D01*
X211596963Y-52789842D01*
X211710794Y-52865901D01*
X211837276Y-52918292D01*
X211971548Y-52945000D01*
X212108452Y-52945000D01*
X212242724Y-52918292D01*
X212369206Y-52865901D01*
X212483037Y-52789842D01*
X212579842Y-52693037D01*
X212655901Y-52579206D01*
X212708292Y-52452724D01*
X212735000Y-52318452D01*
X212735000Y-52250000D01*
X213514318Y-52250000D01*
X213581946Y-52317627D01*
X213587269Y-52249999D01*
X213581946Y-52182371D01*
X213514318Y-52250000D01*
X212735000Y-52250000D01*
X212735000Y-52181548D01*
X212708292Y-52047276D01*
X212655901Y-51920794D01*
X212579842Y-51806963D01*
X212483037Y-51710158D01*
X212369206Y-51634099D01*
X212242724Y-51581708D01*
X212108452Y-51555000D01*
X211971548Y-51555000D01*
X211837276Y-51581708D01*
X211710794Y-51634099D01*
X211596963Y-51710158D01*
X211500158Y-51806963D01*
X211424099Y-51920794D01*
X211371708Y-52047276D01*
X211345000Y-52181548D01*
X211345000Y-52318452D01*
X210741759Y-52318452D01*
X210747748Y-52250000D01*
X210728792Y-52033331D01*
X210700000Y-51925877D01*
X210700000Y-50708052D01*
X211972370Y-50708052D01*
X212040000Y-50775681D01*
X212107629Y-50708051D01*
X212040000Y-50702730D01*
X211972370Y-50708051D01*
X211972370Y-50708052D01*
X210700000Y-50708052D01*
X210700000Y-48824000D01*
X210719685Y-48756961D01*
X210772489Y-48711206D01*
X210824000Y-48700000D01*
X218076000Y-48700000D01*
X218143039Y-48719685D01*
G37*
G04 #@! TD.AperFunction*
G04 #@! TA.AperFunction,Conductor*
G36*
X211443039Y-26519685D02*
G01*
X211488794Y-26572489D01*
X211500000Y-26624000D01*
X211500000Y-46676000D01*
X211480315Y-46743039D01*
X211427511Y-46788794D01*
X211376000Y-46800000D01*
X204124000Y-46800000D01*
X204056961Y-46780315D01*
X204011206Y-46727511D01*
X204000000Y-46676000D01*
X204000000Y-38800000D01*
X201924000Y-38800000D01*
X201856961Y-38780315D01*
X201811206Y-38727511D01*
X201800000Y-38676000D01*
X201800000Y-35775000D01*
X202105000Y-35775000D01*
X202105000Y-35822844D01*
X202111401Y-35882372D01*
X202111403Y-35882379D01*
X202161645Y-36017086D01*
X202161649Y-36017093D01*
X202247809Y-36132187D01*
X202247812Y-36132190D01*
X202362906Y-36218350D01*
X202362913Y-36218354D01*
X202497620Y-36268596D01*
X202497627Y-36268598D01*
X202557155Y-36274999D01*
X202557172Y-36275000D01*
X202780000Y-36275000D01*
X202780000Y-35775000D01*
X206210000Y-35775000D01*
X206210000Y-36275000D01*
X206432828Y-36275000D01*
X206432844Y-36274999D01*
X206492372Y-36268598D01*
X206492379Y-36268596D01*
X206627086Y-36218354D01*
X206627093Y-36218350D01*
X206742187Y-36132190D01*
X206742190Y-36132187D01*
X206828350Y-36017093D01*
X206828354Y-36017086D01*
X206878596Y-35882379D01*
X206878598Y-35882372D01*
X206884999Y-35822844D01*
X206885000Y-35822827D01*
X206885000Y-35775000D01*
X206210000Y-35775000D01*
X202780000Y-35775000D01*
X202105000Y-35775000D01*
X201800000Y-35775000D01*
X201800000Y-34147657D01*
X203605000Y-34147657D01*
X203639203Y-34319603D01*
X203706293Y-34481573D01*
X203803692Y-34627342D01*
X203927658Y-34751308D01*
X204073427Y-34848707D01*
X204235397Y-34915797D01*
X204407343Y-34950000D01*
X204582657Y-34950000D01*
X204754603Y-34915797D01*
X204916573Y-34848707D01*
X205062342Y-34751308D01*
X205186308Y-34627342D01*
X205283707Y-34481573D01*
X205350797Y-34319603D01*
X205385000Y-34147657D01*
X205385000Y-33972343D01*
X205350797Y-33800397D01*
X205283707Y-33638427D01*
X205186308Y-33492658D01*
X205062342Y-33368692D01*
X204916573Y-33271293D01*
X204754603Y-33204203D01*
X204582657Y-33170000D01*
X204407343Y-33170000D01*
X204235397Y-33204203D01*
X204073427Y-33271293D01*
X203927658Y-33368692D01*
X203803692Y-33492658D01*
X203706293Y-33638427D01*
X203639203Y-33800397D01*
X203605000Y-33972343D01*
X203605000Y-34147657D01*
X201800000Y-34147657D01*
X201800000Y-30967657D01*
X203605000Y-30967657D01*
X203639203Y-31139603D01*
X203706293Y-31301573D01*
X203803692Y-31447342D01*
X203927658Y-31571308D01*
X204073427Y-31668707D01*
X204235397Y-31735797D01*
X204407343Y-31770000D01*
X204582657Y-31770000D01*
X204754603Y-31735797D01*
X204916573Y-31668707D01*
X205062342Y-31571308D01*
X205186308Y-31447342D01*
X205283707Y-31301573D01*
X205350797Y-31139603D01*
X205385000Y-30967657D01*
X205385000Y-30792343D01*
X205350797Y-30620397D01*
X205283707Y-30458427D01*
X205186308Y-30312658D01*
X205062342Y-30188692D01*
X204916573Y-30091293D01*
X204754603Y-30024203D01*
X204582657Y-29990000D01*
X204407343Y-29990000D01*
X204235397Y-30024203D01*
X204073427Y-30091293D01*
X203927658Y-30188692D01*
X203803692Y-30312658D01*
X203706293Y-30458427D01*
X203639203Y-30620397D01*
X203605000Y-30792343D01*
X203605000Y-30967657D01*
X201800000Y-30967657D01*
X201800000Y-29165000D01*
X202105000Y-29165000D01*
X202780000Y-29165000D01*
X202780000Y-28665000D01*
X206210000Y-28665000D01*
X206210000Y-29165000D01*
X206885000Y-29165000D01*
X206885000Y-29117172D01*
X206884999Y-29117155D01*
X206878598Y-29057627D01*
X206878596Y-29057620D01*
X206828354Y-28922913D01*
X206828350Y-28922906D01*
X206742190Y-28807812D01*
X206742187Y-28807809D01*
X206627093Y-28721649D01*
X206627086Y-28721645D01*
X206492379Y-28671403D01*
X206492372Y-28671401D01*
X206432844Y-28665000D01*
X206210000Y-28665000D01*
X202780000Y-28665000D01*
X202557155Y-28665000D01*
X202497627Y-28671401D01*
X202497620Y-28671403D01*
X202362913Y-28721645D01*
X202362906Y-28721649D01*
X202247812Y-28807809D01*
X202247809Y-28807812D01*
X202161649Y-28922906D01*
X202161645Y-28922913D01*
X202111403Y-29057620D01*
X202111401Y-29057627D01*
X202105000Y-29117155D01*
X202105000Y-29165000D01*
X201800000Y-29165000D01*
X201800000Y-26624000D01*
X201819685Y-26556961D01*
X201872489Y-26511206D01*
X201924000Y-26500000D01*
X211376000Y-26500000D01*
X211443039Y-26519685D01*
G37*
G04 #@! TD.AperFunction*
G04 #@! TA.AperFunction,Conductor*
G36*
X199643039Y-26519685D02*
G01*
X199688794Y-26572489D01*
X199700000Y-26624000D01*
X199700000Y-51276000D01*
X199680315Y-51343039D01*
X199627511Y-51388794D01*
X199576000Y-51400000D01*
X189324000Y-51400000D01*
X189256961Y-51380315D01*
X189211206Y-51327511D01*
X189200000Y-51276000D01*
X189200000Y-49383674D01*
X189200000Y-48627657D01*
X190200000Y-48627657D01*
X190234203Y-48799603D01*
X190301293Y-48961573D01*
X190398692Y-49107342D01*
X190522658Y-49231308D01*
X190668427Y-49328707D01*
X190830397Y-49395797D01*
X191002343Y-49430000D01*
X191177657Y-49430000D01*
X191349603Y-49395797D01*
X191511573Y-49328707D01*
X191657342Y-49231308D01*
X191781308Y-49107342D01*
X191878707Y-48961573D01*
X191945797Y-48799603D01*
X191980000Y-48627657D01*
X193600000Y-48627657D01*
X193634203Y-48799603D01*
X193701293Y-48961573D01*
X193798692Y-49107342D01*
X193922658Y-49231308D01*
X194068427Y-49328707D01*
X194230397Y-49395797D01*
X194402343Y-49430000D01*
X194577657Y-49430000D01*
X194749603Y-49395797D01*
X194911573Y-49328707D01*
X195057342Y-49231308D01*
X195181308Y-49107342D01*
X195278707Y-48961573D01*
X195345797Y-48799603D01*
X195380000Y-48627657D01*
X195380000Y-48452343D01*
X195345797Y-48280397D01*
X195278707Y-48118427D01*
X195181308Y-47972658D01*
X195057342Y-47848692D01*
X194911573Y-47751293D01*
X194749603Y-47684203D01*
X194577657Y-47650000D01*
X194402343Y-47650000D01*
X194230397Y-47684203D01*
X194068427Y-47751293D01*
X193922658Y-47848692D01*
X193798692Y-47972658D01*
X193701293Y-48118427D01*
X193634203Y-48280397D01*
X193600000Y-48452343D01*
X193600000Y-48627657D01*
X191980000Y-48627657D01*
X191980000Y-48452343D01*
X191945797Y-48280397D01*
X191878707Y-48118427D01*
X191781308Y-47972658D01*
X191657342Y-47848692D01*
X191511573Y-47751293D01*
X191349603Y-47684203D01*
X191177657Y-47650000D01*
X191002343Y-47650000D01*
X190830397Y-47684203D01*
X190668427Y-47751293D01*
X190522658Y-47848692D01*
X190398692Y-47972658D01*
X190301293Y-48118427D01*
X190234203Y-48280397D01*
X190200000Y-48452343D01*
X190200000Y-48627657D01*
X189200000Y-48627657D01*
X189200000Y-35775000D01*
X194615000Y-35775000D01*
X194615000Y-35822844D01*
X194621401Y-35882372D01*
X194621403Y-35882379D01*
X194671645Y-36017086D01*
X194671649Y-36017093D01*
X194757809Y-36132187D01*
X194757812Y-36132190D01*
X194872906Y-36218350D01*
X194872913Y-36218354D01*
X195007620Y-36268596D01*
X195007627Y-36268598D01*
X195067155Y-36274999D01*
X195067172Y-36275000D01*
X195290000Y-36275000D01*
X195290000Y-35775000D01*
X198720000Y-35775000D01*
X198720000Y-36275000D01*
X198942828Y-36275000D01*
X198942844Y-36274999D01*
X199002372Y-36268598D01*
X199002379Y-36268596D01*
X199137086Y-36218354D01*
X199137093Y-36218350D01*
X199252187Y-36132190D01*
X199252190Y-36132187D01*
X199338350Y-36017093D01*
X199338354Y-36017086D01*
X199388596Y-35882379D01*
X199388598Y-35882372D01*
X199394999Y-35822844D01*
X199395000Y-35822827D01*
X199395000Y-35775000D01*
X198720000Y-35775000D01*
X195290000Y-35775000D01*
X194615000Y-35775000D01*
X189200000Y-35775000D01*
X189200000Y-34147657D01*
X196115000Y-34147657D01*
X196149203Y-34319603D01*
X196216293Y-34481573D01*
X196313692Y-34627342D01*
X196437658Y-34751308D01*
X196583427Y-34848707D01*
X196745397Y-34915797D01*
X196917343Y-34950000D01*
X197092657Y-34950000D01*
X197264603Y-34915797D01*
X197426573Y-34848707D01*
X197572342Y-34751308D01*
X197696308Y-34627342D01*
X197793707Y-34481573D01*
X197860797Y-34319603D01*
X197895000Y-34147657D01*
X197895000Y-33972343D01*
X197860797Y-33800397D01*
X197793707Y-33638427D01*
X197696308Y-33492658D01*
X197572342Y-33368692D01*
X197426573Y-33271293D01*
X197264603Y-33204203D01*
X197092657Y-33170000D01*
X196917343Y-33170000D01*
X196745397Y-33204203D01*
X196583427Y-33271293D01*
X196437658Y-33368692D01*
X196313692Y-33492658D01*
X196216293Y-33638427D01*
X196149203Y-33800397D01*
X196115000Y-33972343D01*
X196115000Y-34147657D01*
X189200000Y-34147657D01*
X189200000Y-30967657D01*
X196115000Y-30967657D01*
X196149203Y-31139603D01*
X196216293Y-31301573D01*
X196313692Y-31447342D01*
X196437658Y-31571308D01*
X196583427Y-31668707D01*
X196745397Y-31735797D01*
X196917343Y-31770000D01*
X197092657Y-31770000D01*
X197264603Y-31735797D01*
X197426573Y-31668707D01*
X197572342Y-31571308D01*
X197696308Y-31447342D01*
X197793707Y-31301573D01*
X197860797Y-31139603D01*
X197895000Y-30967657D01*
X197895000Y-30792343D01*
X197860797Y-30620397D01*
X197793707Y-30458427D01*
X197696308Y-30312658D01*
X197572342Y-30188692D01*
X197426573Y-30091293D01*
X197264603Y-30024203D01*
X197092657Y-29990000D01*
X196917343Y-29990000D01*
X196745397Y-30024203D01*
X196583427Y-30091293D01*
X196437658Y-30188692D01*
X196313692Y-30312658D01*
X196216293Y-30458427D01*
X196149203Y-30620397D01*
X196115000Y-30792343D01*
X196115000Y-30967657D01*
X189200000Y-30967657D01*
X189200000Y-29165000D01*
X194615000Y-29165000D01*
X195290000Y-29165000D01*
X195290000Y-28665000D01*
X198720000Y-28665000D01*
X198720000Y-29165000D01*
X199395000Y-29165000D01*
X199395000Y-29117172D01*
X199394999Y-29117155D01*
X199388598Y-29057627D01*
X199388596Y-29057620D01*
X199338354Y-28922913D01*
X199338350Y-28922906D01*
X199252190Y-28807812D01*
X199252187Y-28807809D01*
X199137093Y-28721649D01*
X199137086Y-28721645D01*
X199002379Y-28671403D01*
X199002372Y-28671401D01*
X198942844Y-28665000D01*
X198720000Y-28665000D01*
X195290000Y-28665000D01*
X195067155Y-28665000D01*
X195007627Y-28671401D01*
X195007620Y-28671403D01*
X194872913Y-28721645D01*
X194872906Y-28721649D01*
X194757812Y-28807809D01*
X194757809Y-28807812D01*
X194671649Y-28922906D01*
X194671645Y-28922913D01*
X194621403Y-29057620D01*
X194621401Y-29057627D01*
X194615000Y-29117155D01*
X194615000Y-29165000D01*
X189200000Y-29165000D01*
X189200000Y-26624000D01*
X189219685Y-26556961D01*
X189272489Y-26511206D01*
X189324000Y-26500000D01*
X199576000Y-26500000D01*
X199643039Y-26519685D01*
G37*
G04 #@! TD.AperFunction*
G04 #@! TA.AperFunction,Conductor*
G36*
X184343039Y-38619685D02*
G01*
X184388794Y-38672489D01*
X184400000Y-38724000D01*
X184400000Y-52976000D01*
X184380315Y-53043039D01*
X184327511Y-53088794D01*
X184276000Y-53100000D01*
X177524500Y-53100000D01*
X177457461Y-53080315D01*
X177411706Y-53027511D01*
X177400500Y-52976000D01*
X177400500Y-52791946D01*
X178682371Y-52791946D01*
X178749999Y-52797269D01*
X178817627Y-52791946D01*
X178750000Y-52724318D01*
X178682371Y-52791946D01*
X177400500Y-52791946D01*
X177400500Y-51625902D01*
X177404725Y-51593809D01*
X177420500Y-51534936D01*
X177438792Y-51466669D01*
X177451759Y-51318452D01*
X178055000Y-51318452D01*
X178081708Y-51452724D01*
X178134099Y-51579206D01*
X178210158Y-51693037D01*
X178306963Y-51789842D01*
X178420794Y-51865901D01*
X178547276Y-51918292D01*
X178681548Y-51945000D01*
X178818452Y-51945000D01*
X178952724Y-51918292D01*
X179079206Y-51865901D01*
X179193037Y-51789842D01*
X179289842Y-51693037D01*
X179365901Y-51579206D01*
X179418292Y-51452724D01*
X179445000Y-51318452D01*
X179445000Y-51250000D01*
X180224318Y-51250000D01*
X180291946Y-51317627D01*
X180297269Y-51249999D01*
X180291946Y-51182371D01*
X180224318Y-51250000D01*
X179445000Y-51250000D01*
X179445000Y-51181548D01*
X179418292Y-51047276D01*
X179365901Y-50920794D01*
X179289842Y-50806963D01*
X179193037Y-50710158D01*
X179079206Y-50634099D01*
X178952724Y-50581708D01*
X178818452Y-50555000D01*
X178681548Y-50555000D01*
X178547276Y-50581708D01*
X178420794Y-50634099D01*
X178306963Y-50710158D01*
X178210158Y-50806963D01*
X178134099Y-50920794D01*
X178081708Y-51047276D01*
X178055000Y-51181548D01*
X178055000Y-51318452D01*
X177451759Y-51318452D01*
X177457748Y-51250000D01*
X177438792Y-51033331D01*
X177400000Y-50888556D01*
X177400000Y-49708052D01*
X178682370Y-49708052D01*
X178750000Y-49775681D01*
X178817629Y-49708051D01*
X178750000Y-49702730D01*
X178682370Y-49708051D01*
X178682370Y-49708052D01*
X177400000Y-49708052D01*
X177400000Y-44787657D01*
X178820000Y-44787657D01*
X178854203Y-44959603D01*
X178921293Y-45121573D01*
X179018692Y-45267342D01*
X179142658Y-45391308D01*
X179288427Y-45488707D01*
X179450397Y-45555797D01*
X179622343Y-45590000D01*
X179797657Y-45590000D01*
X179969603Y-45555797D01*
X180131573Y-45488707D01*
X180277342Y-45391308D01*
X180401308Y-45267342D01*
X180498707Y-45121573D01*
X180565797Y-44959603D01*
X180600000Y-44787657D01*
X180600000Y-44612343D01*
X180565797Y-44440397D01*
X180498707Y-44278427D01*
X180401308Y-44132658D01*
X180277342Y-44008692D01*
X180131573Y-43911293D01*
X179969603Y-43844203D01*
X179797657Y-43810000D01*
X179622343Y-43810000D01*
X179450397Y-43844203D01*
X179288427Y-43911293D01*
X179142658Y-44008692D01*
X179018692Y-44132658D01*
X178921293Y-44278427D01*
X178854203Y-44440397D01*
X178820000Y-44612343D01*
X178820000Y-44787657D01*
X177400000Y-44787657D01*
X177400000Y-41387657D01*
X178820000Y-41387657D01*
X178854203Y-41559603D01*
X178921293Y-41721573D01*
X179018692Y-41867342D01*
X179142658Y-41991308D01*
X179288427Y-42088707D01*
X179450397Y-42155797D01*
X179622343Y-42190000D01*
X179797657Y-42190000D01*
X179969603Y-42155797D01*
X180131573Y-42088707D01*
X180277342Y-41991308D01*
X180401308Y-41867342D01*
X180498707Y-41721573D01*
X180565797Y-41559603D01*
X180600000Y-41387657D01*
X180600000Y-41212343D01*
X180565797Y-41040397D01*
X180498707Y-40878427D01*
X180401308Y-40732658D01*
X180277342Y-40608692D01*
X180131573Y-40511293D01*
X179969603Y-40444203D01*
X179797657Y-40410000D01*
X179622343Y-40410000D01*
X179450397Y-40444203D01*
X179288427Y-40511293D01*
X179142658Y-40608692D01*
X179018692Y-40732658D01*
X178921293Y-40878427D01*
X178854203Y-41040397D01*
X178820000Y-41212343D01*
X178820000Y-41387657D01*
X177400000Y-41387657D01*
X177400000Y-38724000D01*
X177419685Y-38656961D01*
X177472489Y-38611206D01*
X177524000Y-38600000D01*
X184276000Y-38600000D01*
X184343039Y-38619685D01*
G37*
G04 #@! TD.AperFunction*
M02*
