M48
; DRILL file {KiCad 8.0.1} date 2024-04-15T13:35:20-0500
; FORMAT={-:-/ absolute / metric / decimal}
; #@! TF.CreationDate,2024-04-15T13:35:20-05:00
; #@! TF.GenerationSoftware,Kicad,Pcbnew,8.0.1
; #@! TF.FileFunction,Plated,1,4,PTH
FMAT,2
METRIC
; #@! TA.AperFunction,Plated,PTH,ViaDrill
T1C0.400
; #@! TA.AperFunction,Plated,PTH,ComponentDrill
T2C1.020
; #@! TA.AperFunction,Plated,PTH,ComponentDrill
T3C1.021
; #@! TA.AperFunction,Plated,PTH,ComponentDrill
T4C1.390
; #@! TA.AperFunction,Plated,PTH,ComponentDrill
T5C1.780
%
G90
G05
T1
X159.75Y-102.5
X165.6Y-27.45
X165.6Y-36.3
X165.6Y-47.7
X166.5Y-77.6
X166.5Y-86.6
X166.5Y-93.7
X166.6Y-47.7
X167.5Y-77.6
X167.5Y-86.6
X167.6Y-37.3
X169.8Y-27.5
X169.8Y-31.9
X170.0Y-97.3
X171.9Y-101.7
X172.77Y-97.923
X172.9Y-91.9
X172.9Y-94.9
X173.0Y-39.7
X173.85Y-101.021
X174.0Y-27.5
X174.7Y-99.9
X174.8Y-32.4
X174.8Y-37.2
X176.7Y-91.9
X176.7Y-94.9
X178.65Y-102.584
X178.8Y-100.7
X179.556Y-36.956
X179.8Y-100.5
X180.1Y-97.123
X180.525Y-33.6
X180.9Y-99.4
X183.512Y-116.7
X199.3Y-98.7
X200.0Y-101.5
X201.175Y-53.0
X202.05Y-72.45
X202.074Y-44.3
X202.498Y-75.5
X202.55Y-116.9
X203.0Y-53.0
X203.001Y-44.299
X204.0Y-96.318
X204.0Y-97.9
X205.423Y-99.4
X205.55Y-114.05
X206.2Y-89.9
X206.3Y-42.0
X206.3Y-45.0
X210.1Y-42.0
X210.1Y-45.0
X214.6Y-38.6
T2
X155.25Y-92.75
X155.25Y-95.75
X155.25Y-105.5
X155.25Y-108.5
X181.3Y-27.0
X184.3Y-27.0
T3
X166.98Y-104.5
X166.98Y-119.74
X169.52Y-104.5
X169.52Y-119.74
X172.06Y-104.5
X172.06Y-119.74
X174.6Y-104.5
X174.6Y-119.74
X177.14Y-104.5
X177.14Y-119.74
X179.68Y-104.5
X179.68Y-119.74
X182.22Y-104.5
X182.22Y-119.74
X184.76Y-104.5
X184.76Y-119.74
X187.3Y-104.5
X187.3Y-119.74
X189.84Y-104.5
X189.84Y-119.74
X192.38Y-104.5
X192.38Y-119.74
X194.92Y-104.5
X194.92Y-119.74
X197.46Y-104.5
X197.46Y-119.74
X200.0Y-104.5
X200.0Y-119.74
X202.54Y-104.5
X202.54Y-119.74
T4
X173.67Y-51.25
X173.67Y-59.0
X173.67Y-67.0
X173.67Y-74.75
X176.21Y-51.25
X176.21Y-59.0
X176.21Y-67.0
X176.21Y-74.75
X178.75Y-51.25
X178.75Y-59.0
X178.75Y-67.0
X178.75Y-74.75
X206.92Y-66.405
X206.92Y-75.345
X206.96Y-52.25
X206.96Y-58.805
X209.46Y-66.405
X209.46Y-75.345
X209.5Y-52.25
X209.5Y-58.805
X212.0Y-66.405
X212.0Y-75.345
X212.04Y-52.25
X212.04Y-58.805
T5
X157.63Y-72.005
X157.63Y-79.495
X157.635Y-46.51
X157.635Y-54.0
X160.81Y-72.005
X160.81Y-79.495
X160.815Y-46.51
X160.815Y-54.0
X169.79Y-41.3
X169.79Y-44.7
X170.64Y-80.5
X170.64Y-83.9
X179.71Y-41.3
X179.71Y-44.7
X180.56Y-80.5
X180.56Y-83.9
X188.26Y-91.56
X188.26Y-94.74
X191.05Y-68.54
X191.05Y-78.46
X191.09Y-48.54
X191.09Y-58.46
X194.45Y-68.54
X194.45Y-78.46
X194.49Y-48.54
X194.49Y-58.46
X195.75Y-91.56
X195.75Y-94.74
X197.005Y-30.88
X197.005Y-34.06
X204.495Y-30.88
X204.495Y-34.06
X210.0Y-86.0
X210.0Y-93.49
X213.18Y-86.0
X213.18Y-93.49
M30
