G04 #@! TF.GenerationSoftware,KiCad,Pcbnew,8.0.1*
G04 #@! TF.CreationDate,2024-04-15T13:35:02-05:00*
G04 #@! TF.ProjectId,Power-Secondary,506f7765-722d-4536-9563-6f6e64617279,rev?*
G04 #@! TF.SameCoordinates,Original*
G04 #@! TF.FileFunction,Soldermask,Top*
G04 #@! TF.FilePolarity,Negative*
%FSLAX46Y46*%
G04 Gerber Fmt 4.6, Leading zero omitted, Abs format (unit mm)*
G04 Created by KiCad (PCBNEW 8.0.1) date 2024-04-15 13:35:02*
%MOMM*%
%LPD*%
G01*
G04 APERTURE LIST*
G04 Aperture macros list*
%AMRoundRect*
0 Rectangle with rounded corners*
0 $1 Rounding radius*
0 $2 $3 $4 $5 $6 $7 $8 $9 X,Y pos of 4 corners*
0 Add a 4 corners polygon primitive as box body*
4,1,4,$2,$3,$4,$5,$6,$7,$8,$9,$2,$3,0*
0 Add four circle primitives for the rounded corners*
1,1,$1+$1,$2,$3*
1,1,$1+$1,$4,$5*
1,1,$1+$1,$6,$7*
1,1,$1+$1,$8,$9*
0 Add four rect primitives between the rounded corners*
20,1,$1+$1,$2,$3,$4,$5,0*
20,1,$1+$1,$4,$5,$6,$7,0*
20,1,$1+$1,$6,$7,$8,$9,0*
20,1,$1+$1,$8,$9,$2,$3,0*%
G04 Aperture macros list end*
%ADD10R,3.430000X3.780000*%
%ADD11C,3.000000*%
%ADD12R,0.400000X0.750000*%
%ADD13R,2.085000X2.085000*%
%ADD14C,2.085000*%
%ADD15R,2.000000X2.000000*%
%ADD16RoundRect,0.243750X-0.243750X-0.456250X0.243750X-0.456250X0.243750X0.456250X-0.243750X0.456250X0*%
%ADD17R,3.780000X3.430000*%
%ADD18RoundRect,0.250000X0.262500X0.450000X-0.262500X0.450000X-0.262500X-0.450000X0.262500X-0.450000X0*%
%ADD19C,2.780000*%
%ADD20C,1.270000*%
%ADD21RoundRect,0.250001X0.759999X-0.499999X0.759999X0.499999X-0.759999X0.499999X-0.759999X-0.499999X0*%
%ADD22O,2.020000X1.500000*%
%ADD23R,1.524000X1.524000*%
%ADD24C,1.524000*%
%ADD25RoundRect,0.250000X-0.262500X-0.450000X0.262500X-0.450000X0.262500X0.450000X-0.262500X0.450000X0*%
%ADD26RoundRect,0.250001X-0.499999X-0.759999X0.499999X-0.759999X0.499999X0.759999X-0.499999X0.759999X0*%
%ADD27O,1.500000X2.020000*%
G04 APERTURE END LIST*
D10*
X213180000Y-86000000D03*
X210000000Y-86000000D03*
X213180000Y-93490000D03*
X210000000Y-93490000D03*
D11*
X216000000Y-117500000D03*
X155000000Y-28500000D03*
D12*
X180100000Y-99400000D03*
X179450000Y-99400000D03*
X178800000Y-99400000D03*
X178800000Y-101600000D03*
X179450000Y-101600000D03*
X180100000Y-101600000D03*
D13*
X173670000Y-51250000D03*
D14*
X176210000Y-51250000D03*
X178750000Y-51250000D03*
D15*
X165600000Y-31800000D03*
D10*
X157630000Y-79495000D03*
X160810000Y-79495000D03*
X157630000Y-72005000D03*
X160810000Y-72005000D03*
D13*
X173670000Y-74750000D03*
D14*
X176210000Y-74750000D03*
X178750000Y-74750000D03*
D11*
X155000000Y-117500000D03*
D16*
X174802500Y-33600000D03*
X176677500Y-33600000D03*
D17*
X195750000Y-94740000D03*
X195750000Y-91560000D03*
X188260000Y-94740000D03*
X188260000Y-91560000D03*
D13*
X206920000Y-75345000D03*
D14*
X209460000Y-75345000D03*
X212000000Y-75345000D03*
D18*
X180512500Y-36000000D03*
X178687500Y-36000000D03*
X180525000Y-33600000D03*
X178700000Y-33600000D03*
D19*
X191090000Y-58460000D03*
X194490000Y-58460000D03*
X191090000Y-48540000D03*
X194490000Y-48540000D03*
D15*
X169800000Y-36300000D03*
D20*
X153290000Y-111500000D03*
X153290000Y-102500000D03*
D21*
X155250000Y-108500000D03*
D22*
X155250000Y-105500000D03*
D11*
X216000000Y-28500000D03*
D10*
X157635000Y-54000000D03*
X160815000Y-54000000D03*
X157635000Y-46510000D03*
X160815000Y-46510000D03*
D15*
X169800000Y-31900000D03*
D19*
X170640000Y-80500000D03*
X170640000Y-83900000D03*
X180560000Y-80500000D03*
X180560000Y-83900000D03*
D23*
X202540000Y-104500000D03*
D24*
X200000000Y-104500000D03*
X197460000Y-104500000D03*
X194920000Y-104500000D03*
X192380000Y-104500000D03*
X189840000Y-104500000D03*
X187300000Y-104500000D03*
X184760000Y-104500000D03*
X182220000Y-104500000D03*
X179680000Y-104500000D03*
X177140000Y-104500000D03*
X174600000Y-104500000D03*
X172060000Y-104500000D03*
X169520000Y-104500000D03*
X166980000Y-104500000D03*
X166980000Y-119740000D03*
X169520000Y-119740000D03*
X172060000Y-119740000D03*
X174600000Y-119740000D03*
X177140000Y-119740000D03*
X179680000Y-119740000D03*
X182220000Y-119740000D03*
X184760000Y-119740000D03*
X187300000Y-119740000D03*
X189840000Y-119740000D03*
X192380000Y-119740000D03*
X194920000Y-119740000D03*
X197460000Y-119740000D03*
X200000000Y-119740000D03*
X202540000Y-119740000D03*
D25*
X166887500Y-59000000D03*
X168712500Y-59000000D03*
D17*
X197005000Y-30880000D03*
X197005000Y-34060000D03*
X204495000Y-30880000D03*
X204495000Y-34060000D03*
D13*
X173670000Y-59000000D03*
D14*
X176210000Y-59000000D03*
X178750000Y-59000000D03*
D16*
X174790000Y-35995000D03*
X176665000Y-35995000D03*
D13*
X212040000Y-58805000D03*
D14*
X209500000Y-58805000D03*
X206960000Y-58805000D03*
D25*
X201175000Y-53000000D03*
X203000000Y-53000000D03*
D13*
X173670000Y-67000000D03*
D14*
X176210000Y-67000000D03*
X178750000Y-67000000D03*
D13*
X206960000Y-52250000D03*
D14*
X209500000Y-52250000D03*
X212040000Y-52250000D03*
D20*
X153290000Y-98750000D03*
X153290000Y-89750000D03*
D21*
X155250000Y-95750000D03*
D22*
X155250000Y-92750000D03*
D25*
X166875000Y-74700000D03*
X168700000Y-74700000D03*
D15*
X165600000Y-36250000D03*
X165600000Y-27450000D03*
D19*
X169790000Y-41300000D03*
X169790000Y-44700000D03*
X179710000Y-41300000D03*
X179710000Y-44700000D03*
D15*
X174000000Y-27500000D03*
D19*
X194450000Y-68540000D03*
X191050000Y-68540000D03*
X194450000Y-78460000D03*
X191050000Y-78460000D03*
D12*
X173850000Y-99500000D03*
X173200000Y-99500000D03*
X172550000Y-99500000D03*
X172550000Y-101700000D03*
X173200000Y-101700000D03*
X173850000Y-101700000D03*
D13*
X212000000Y-66405000D03*
D14*
X209460000Y-66405000D03*
X206920000Y-66405000D03*
D20*
X178300000Y-25040000D03*
X187300000Y-25040000D03*
D26*
X181300000Y-27000000D03*
D27*
X184300000Y-27000000D03*
D15*
X169800000Y-27500000D03*
M02*
